/* XPM */
static char *result[] = {
/* columns rows colors chars-per-pixel */
"16 16 30 1 ",
"  c #00000000",
"! c #14000000",
"# c #05000000",
"$ c #FF000000",
"% c #6F000000",
"& c #2C000000",
"' c #20000000",
"( c #11000000",
") c #CF000000",
"* c #CE000000",
"+ c #19000000",
", c #01000000",
"- c #03000000",
". c #1D000000",
"/ c #D0000000",
"0 c #16000000",
"1 c #66000000",
"2 c #6B000000",
"3 c #71000000",
"4 c #83000000",
"5 c #B5000000",
"6 c #0F000000",
"7 c #87000000",
"8 c #78000000",
"9 c #8A000000",
": c #61000000",
"; c #04000000",
"< c #06000000",
"= c #34000000",
"> c #30000000",
/* pixels */
"        !#      ",
"       !$%#     ",
"        &$&     ",
"        #%$'    ",
"         ()*+   ",
"          +**+  ",
" ,-########.)/0 ",
"12%3333333334$56",
"$$$$$$$$$$$$$$$7",
"%833333333339$:#",
";<#########=$>  ",
"          >$>   ",
"         >$>    ",
"        >$>     ",
"       +$>      ",
"        +       "
};