/* XPM */
static char *result[] = {
/* columns rows colors chars-per-pixel */
"64 64 591 2 ",
"   c #00000000",
" ! c #06000000",
" # c #0C000000",
" $ c #3B000000",
" % c #72000000",
" & c #A0000000",
" ' c #C0000000",
" ( c #CF000000",
" ) c #DC000000",
" * c #E7000000",
" + c #EF000000",
" , c #E9000000",
" - c #D4000000",
" . c #A2000000",
" / c #6F000000",
" 0 c #38000000",
" 1 c #0B000000",
" 2 c #0D000000",
" 3 c #60000000",
" 4 c #AC000000",
" 5 c #DD000000",
" 6 c #F8000000",
" 7 c #FD000000",
" 8 c #FE000000",
" 9 c #FF000000",
" : c #F9000000",
" ; c #E3000000",
" < c #87000000",
" = c #1A000000",
" > c #01000000",
" ? c #02000000",
" @ c #37000000",
" A c #A6000000",
" B c #EC000000",
" C c #FE000001",
" D c #FD000001",
" E c #FD000102",
" F c #FC000102",
" G c #E5000000",
" H c #44000000",
" I c #03000000",
" J c #41000000",
" K c #CA000000",
" L c #FC000203",
" M c #F2000A0D",
" N c #DF001A23",
" O c #D0002C3A",
" P c #BD004259",
" Q c #B400506B",
" R c #AD005A78",
" S c #A500688B",
" T c #B300516C",
" U c #CF002C3B",
" V c #E0001821",
" W c #F000070A",
" X c #EA000000",
" Y c #18000000",
" Z c #05000000",
" [ c #49000000",
" \ c #F9000304",
" ] c #EA001015",
" ^ c #CC003041",
" _ c #A400698D",
" ` c #8700ABE4",
" a c #8000BFFF",
" b c #8400B1ED",
" c c #9F006F95",
" d c #D500161D",
" e c #A4000000",
" f c #F200080B",
" g c #C8003446",
" h c #950087B5",
" i c #8100BCFB",
" j c #8200B6F3",
" k c #D7001821",
" l c #F4000000",
" m c #1D000000",
" n c #09000000",
" o c #8C000000",
" p c #FB000000",
" q c #EF00090C",
" r c #BA00465E",
" s c #8800A7DF",
" t c #9A007DA7",
" u c #FA000203",
" v c #93000000",
" w c #82000000",
" x c #FC000000",
" y c #F8000203",
" z c #C7003243",
" { c #8B00A0D6",
" | c #8000BDFD",
" } c #D4002431",
"!  c #15000000",
"!! c #5F000000",
"!# c #FA000000",
"!$ c #F4000608",
"!% c #9D0078A0",
"!& c #970083AF",
"!' c #70000000",
"!( c #1E000000",
"!) c #E6000000",
"!* c #F8000406",
"!+ c #9B007CA6",
"!, c #E7001319",
"!- c #D7000000",
"!. c #04000000",
"!/ c #A7006486",
"!0 c #AE005876",
"!1 c #FC000001",
"!2 c #30000000",
"!3 c #F5000000",
"!4 c #D900222D",
"!5 c #8500AFE9",
"!6 c #EC000D12",
"!7 c #CC000000",
"!8 c #08000000",
"!9 c #F400080B",
"!: c #8C009ED3",
"!; c #8200B7F5",
"!< c #8A00A3DA",
"!= c #B7004B64",
"!> c #56000000",
"!? c #19000000",
"!@ c #EB000000",
"!A c #C6003649",
"!B c #8600ADE8",
"!C c #AB005D7D",
"!D c #D4002734",
"!E c #E400161E",
"!F c #E1001A23",
"!G c #C500384B",
"!H c #980081AC",
"!I c #8800A8E1",
"!J c #ED000E13",
"!K c #22000000",
"!L c #FA000406",
"!M c #8F0095C7",
"!N c #C500394D",
"!O c #FB0D1011",
"!P c #FF3F3F3F",
"!Q c #FF6F6F6F",
"!R c #FF636363",
"!S c #FF282828",
"!T c #ED031218",
"!U c #A6006688",
"!V c #C8000000",
"!W c #10000000",
"!X c #C1000000",
"!Y c #DD001E28",
"!Z c #BA00475F",
"![ c #FC141718",
"!\ c #FF797979",
"!] c #FFD9D9D9",
"!^ c #FFEAEAEA",
"!_ c #FFE6E6E6",
"!` c #FFBFBFBF",
"!a c #FF4C4C4C",
"!b c #ED031217",
"!c c #8300B6F3",
"!d c #D6002430",
"!e c #B2000000",
"!f c #12000000",
"!g c #E700141B",
"!h c #FF585858",
"!i c #FFE4E4E4",
"!j c #FFFEFEFE",
"!k c #FFFFFFFF",
"!l c #FFFBFBFB",
"!m c #FFBABABA",
"!n c #FE222323",
"!o c #BE004157",
"!p c #8900A5DD",
"!q c #E3001820",
"!r c #98000000",
"!s c #4A000000",
"!t c #8F0096C9",
"!u c #94008AB8",
"!v c #F9000507",
"!w c #FF9B9B9B",
"!x c #FFFAFAFA",
"!y c #FFE2E2E2",
"!z c #FF535353",
"!{ c #DA00212C",
"!| c #8500B0EB",
"!} c #8D009BCF",
"#  c #F2000B0E",
"#! c #9F000000",
"## c #0A000000",
"#$ c #8D000000",
"#% c #EC000F14",
"#& c #8100BAF9",
"#' c #FFA5A5A5",
"#( c #FF5A5A5A",
"#) c #DC001E28",
"#* c #8600ACE6",
"#+ c #8700A9E2",
"#, c #F200090C",
"#- c #86000000",
"#. c #B0000000",
"#/ c #DB00202B",
"#0 c #EF000C11",
"#1 c #FF6A6A6A",
"#2 c #FFF1F1F1",
"#3 c #FFFDFDFD",
"#4 c #FFCCCCCC",
"#5 c #FF2E2F2F",
"#6 c #CA003344",
"#7 c #B4004F6A",
"#8 c #EC001015",
"#9 c #E9001219",
"#: c #CD002F3F",
"#; c #9F00749B",
"#< c #8200B9F7",
"#= c #910090C1",
"#> c #6D000000",
"#? c #BB000000",
"#@ c #D0002B39",
"#A c #FE1F2121",
"#B c #FF999999",
"#C c #FFF0F0F0",
"#D c #FFF9F9F9",
"#E c #FFF7F7F7",
"#F c #FFDBDBDB",
"#G c #FF6B6B6B",
"#H c #F7070E11",
"#I c #A1007096",
"#J c #CC003040",
"#K c #FC0D1010",
"#L c #F0031014",
"#M c #AD005B7A",
"#N c #F5000709",
"#O c #F3000000",
"#P c #3C000000",
"#Q c #C2000000",
"#R c #CA003242",
"#S c #910092C3",
"#T c #DE011E27",
"#U c #FE1F2020",
"#V c #FF686868",
"#W c #FFA1A1A1",
"#X c #FF939393",
"#Y c #FF4A4A4A",
"#Z c #F70D1315",
"#[ c #BE004258",
"#\ c #FD141616",
"#] c #FF787878",
"#^ c #F0030F13",
"#_ c #A3006B8F",
"#` c #E2000000",
"#a c #1C000000",
"#b c #C3000000",
"#c c #C2003C50",
"#d c #C600374A",
"#e c #EB001116",
"#f c #F6000609",
"#g c #F400090C",
"#h c #E0001A23",
"#i c #AE005A78",
"#j c #E9001218",
"#k c #C2003D51",
"#l c #C2003B4E",
"#m c #9B000000",
"#n c #C1003D51",
"#o c #950089B7",
"#p c #DD001921",
"#q c #F6000000",
"#r c #960085B2",
"#s c #DC001F29",
"#t c #94008BBA",
"#u c #EE000E13",
"#v c #C7003547",
"#w c #47000000",
"#x c #D1002A39",
"#y c #C4003A4E",
"#z c #FD1F2121",
"#{ c #F5071013",
"#| c #EE00080B",
"#} c #E1001922",
"$  c #8D009ACE",
"$! c #D801242F",
"$# c #F50E1618",
"$$ c #B5004E68",
"$% c #B6004C66",
"$& c #55000000",
"$' c #BC00445A",
"$( c #F0000C11",
"$) c #D900212C",
"$* c #A600678A",
"$+ c #ED000B0F",
"$, c #CB000000",
"$- c #FA000305",
"$. c #900093C4",
"$/ c #B5004D66",
"$0 c #26000000",
"$1 c #FD000203",
"$2 c #8100BDFD",
"$3 c #F000080B",
"$4 c #96000000",
"$5 c #E8000000",
"$6 c #FE000102",
"$7 c #B1005470",
"$8 c #9000A9E2",
"$9 c #9800A0D6",
"$: c #9500A4DB",
"$; c #9B009DD2",
"$< c #9400A5DC",
"$= c #8700B5F1",
"$> c #CD002E3E",
"$? c #8500B8F5",
"$@ c #9D009BD0",
"$A c #CF047AA1",
"$B c #E90F789B",
"$C c #F3076C8D",
"$D c #E2117DA2",
"$E c #D10A7FA7",
"$F c #B90084B0",
"$G c #8200BCFB",
"$H c #9B007BA4",
"$I c #3E000000",
"$J c #A30095C8",
"$K c #D101769D",
"$L c #FB18799A",
"$M c #FF46A6C6",
"$N c #FF62C1E2",
"$O c #FF53B3D3",
"$P c #FB399ABB",
"$Q c #EC1981A3",
"$R c #BC0183AF",
"$S c #8600B6F3",
"$T c #EC000E13",
"$U c #B200536F",
"$V c #AD008DBC",
"$W c #D7087AA0",
"$X c #F5117496",
"$Y c #FF2282A2",
"$Z c #FF5CBCDC",
"$[ c #FF7FDEFF",
"$\ c #FF6CCBEC",
"$] c #FF3696B6",
"$^ c #D705779D",
"$_ c #8900B2EE",
"$` c #CE002D3C",
"$a c #DB000000",
"$b c #8400B9F7",
"$c c #A40095C7",
"$d c #E00D7A9F",
"$e c #FC2F90B0",
"$f c #FF4FAFCF",
"$g c #FF3D9DBD",
"$h c #FF3090B0",
"$i c #FE63C3E3",
"$j c #FE7EDEFF",
"$k c #FF79D8F9",
"$l c #FF3898B8",
"$m c #CF097FA6",
"$n c #9100A8E1",
"$o c #A500698C",
"$p c #2F000000",
"$q c #FA000304",
"$r c #92008FC0",
"$s c #8800B3F0",
"$t c #C6037FA8",
"$u c #F82B8DAE",
"$v c #FF63C2E3",
"$w c #FF7EDEFE",
"$x c #FF7DDDFD",
"$y c #FE72D2F2",
"$z c #FD72D2F3",
"${ c #FF68C8E8",
"$| c #F42B8FB1",
"$} c #BF0282AD",
"%  c #8A00B1EC",
"%! c #F500080B",
"%# c #81000000",
"%$ c #78000000",
"%% c #F1000B0E",
"%& c #8300B4F1",
"%' c #8D00ADE7",
"%( c #D40679A0",
"%) c #FE3999BA",
"%* c #FF77D7F7",
"%+ c #FF62C2E2",
"%, c #F22388AA",
"%- c #CD000000",
"%. c #AA000000",
"%/ c #DE001B24",
"%0 c #8C00AEE9",
"%1 c #C80680A9",
"%2 c #FE2C8CAD",
"%3 c #FF71D1F1",
"%4 c #FF78D8F8",
"%5 c #FF70CFF0",
"%6 c #FF5BBBDB",
"%7 c #FF64C4E4",
"%8 c #FF6BCBEB",
"%9 c #FC3798B8",
"%: c #D903749A",
"%; c #9801A2D8",
"%< c #F2000000",
"%= c #8500B7F5",
"%> c #AF018DBC",
"%? c #E50E799D",
"%@ c #FF2484A4",
"%A c #FF3B9BBB",
"%B c #FE3F9FBF",
"%C c #F82789AA",
"%D c #EF1F85A7",
"%E c #F42E92B4",
"%F c #FF4DADCD",
"%G c #F9147797",
"%H c #CC0077A0",
"%I c #9300A6DE",
"%J c #FB000305",
"%K c #51000000",
"%L c #25000000",
"%M c #8E00ACE5",
"%N c #C10381AC",
"%O c #D6007298",
"%P c #D9007197",
"%Q c #B30088B6",
"%R c #D201769D",
"%S c #FB2182A3",
"%T c #F1187D9F",
"%U c #BC0083AE",
"%V c #E800131A",
"%W c #7D000000",
"%X c #8300BAF9",
"%Y c #E6046F92",
"%Z c #FF43A3C3",
"%[ c #FF74D3F4",
"%\ c #FE48A8C8",
"%] c #E8147EA1",
"%^ c #B60288B5",
"%_ c #CF002D3C",
"%` c #C5000000",
"%a c #B70085B2",
"%b c #F6177B9C",
"%c c #FF61C1E1",
"%d c #FF6FCEEF",
"%e c #EC0F7699",
"%f c #F1000000",
"%g c #BD00435A",
"%h c #D405799F",
"%i c #FF3393B3",
"%j c #FF6ECDEE",
"%k c #FF68C7E8",
"%l c #FE3B9BBC",
"%m c #E6127CA0",
"%n c #BA0286B2",
"%o c #AD018FBE",
"%p c #A70092C3",
"%q c #31000000",
"%r c #FC000304",
"%s c #980082AE",
"%t c #AC008EBD",
"%u c #E9117A9D",
"%v c #FF4BABCB",
"%w c #FF7ADAFA",
"%x c #FC41A2C3",
"%y c #EE1A81A3",
"%z c #E60B7599",
"%{ c #EB137B9E",
"%| c #EF1A80A2",
"%} c #E5127DA1",
"&  c #C4007DA7",
"&! c #67000000",
"&# c #77000000",
"&$ c #C20280AA",
"&% c #F32085A6",
"&& c #FF5FBFDF",
"&' c #FF7BDBFB",
"&( c #FF6FCFEF",
"&) c #FF57B7D7",
"&* c #FF5ABADA",
"&+ c #FE44A5C5",
"&, c #E9137C9F",
"&- c #A90090C1",
"&. c #E500151C",
"&/ c #8A000000",
"&0 c #A5000000",
"&1 c #DF001B24",
"&2 c #9A009ED3",
"&3 c #DC08779D",
"&4 c #FF7DDCFD",
"&5 c #FF7EDDFE",
"&6 c #F81E80A1",
"&7 c #AA0191C1",
"&8 c #DF001922",
"&9 c #9D000000",
"&: c #BF000000",
"&; c #CE002E3D",
"&< c #D1077CA3",
"&= c #FC399ABB",
"&> c #FF70D0F0",
"&? c #FF65C4E5",
"&@ c #FF6ECEEE",
"&A c #FE60C0E0",
"&B c #EB1F87AA",
"&C c #A50094C5",
"&D c #E4001218",
"&E c #9E000000",
"&F c #C3003A4E",
"&G c #DC0A7A9F",
"&H c #FD43A4C4",
"&I c #FF79D9F9",
"&J c #FF54B4D4",
"&K c #FF2080A0",
"&L c #FF45A5C5",
"&M c #FF67C6E7",
"&N c #FB3E9FC0",
"&O c #D51487AD",
"&P c #9E009ACE",
"&Q c #F4000406",
"&R c #80000000",
"&S c #9F0099CD",
"&T c #E50D789C",
"&U c #FF4AAACA",
"&V c #FC167798",
"&W c #F7147798",
"&X c #F83A9CBD",
"&Y c #E9147DA0",
"&Z c #B80489B6",
"&[ c #C9003040",
"&\ c #99009FD5",
"&] c #DE0B799E",
"&^ c #FF3191B1",
"&_ c #FF50B0D0",
"&` c #FC399ABA",
"&a c #E40A769A",
"&b c #C7007AA4",
"&c c #C30B88B2",
"&d c #C80782AB",
"&e c #B20089B7",
"&f c #B9004961",
"&g c #AB000000",
"&h c #F0000B0E",
"&i c #B0018CBB",
"&j c #DD09779C",
"&k c #EF12789B",
"&l c #DC057499",
"&m c #AB008EBE",
"&n c #8B00AFEA",
"&o c #BC00455C",
"&p c #35000000",
"&q c #5A000000",
"&r c #D4002633",
"&s c #AA008FC0",
"&t c #5C000000",
"&u c #73000000",
"&v c #DE001D27",
"&w c #BF004156",
"&x c #99007FAA",
"&y c #8400B3EF",
"&z c #A2006D92",
"&{ c #F7000608",
"&| c #EE000000",
"&} c #50000000",
"'  c #3F000000",
"'! c #ED000C10",
"'# c #E9000F14",
"'$ c #E200151D",
"'% c #E100171F",
"'& c #DD001D27",
"'' c #A1006F94",
"'( c #AA006081",
"') c #9A007EA8",
"'* c #8A00A1D8",
"'+ c #F600070A",
"', c #29000000",
"'- c #24000000",
"'. c #F300080B",
"'/ c #F9000406",
"'0 c #F7000507",
"'1 c #F8000608",
"'2 c #F8000507",
"'3 c #FB000304",
"'4 c #2E000000",
"'5 c #84000000",
"'6 c #C4000000",
"'7 c #DF000000",
"'8 c #94000000",
"'9 c #2C000000",
"': c #2B000000",
"'; c #45000000",
"'< c #68000000",
"'= c #A7000000",
"'> c #DA000000",
"'? c #F0000000",
"'@ c #D8000000",
"'A c #B1000000",
/* pixels */
"                                                                                                                                ",
"                                                                                                                                ",
"                                                                                                                                ",
"                                                                                                                                ",
"                                                                                                                                ",
"                                         # $ % & ' ( ) * + + , - . / 0 1                                                        ",
"                                   2 3 4 5 6 7 8 9 9 9 9 9 9 9 9 9 7 : ; < = >                                                  ",
"                             ? @ A B 7 9 9 9 9 9 8 C D D E F C 9 9 9 9 9 8 G H                                                  ",
"                         I J K : 9 9 9 9 8 L M N O P Q Q R S T U V W D 9 9 9 X Y                                                ",
"                     Z [ ' : 9 9 9 8 \ ] ^ _ ` a a a a a a a a a a b c d 7 9 8 e >                                              ",
"                   ? < : 9 9 9 C f g h i a a a a a a a a a a a a a a a j k 9 9 l m                                              ",
"                 n o p 9 9 8 q r s a a a a a a a a a a a a a a a a a a a t u 9 8 v                                              ",
"               I w x 9 9 y z { | a a a a a a a a a a a a a a a a a a a a i } 8 9 X!                                             ",
"             >!!!# 9 9!$!% a a a a a a a a a a a a a a a a a a a a a a a a!& L 9 7!'                                            ",
"            !(!) 9 9!*!+ a a a a a a a a a a a a a a a a a a a a a a a a a |!, 9 9!-!.                                          ",
"          !. . 8 9 F!/ a a a a a a a a a a a a a a a a a a a a a a a a a a a!0!1 9!# [                                          ",
"          !2!3 9 9!4 | a a a a a a a a a a a a a a a a a a a a a a a a a a a!5!6 9 9!7!8                                        ",
"         > & 8 9!9!: a a a a a a a a!;!< ` | a a a a a a a a a a a a a a a a a!= C 9!#!>                                        ",
"        !?!@ 9 8!A a a a a a a a!B!C!D!E!F!G!H i a a a a a a a a a a a a a a a!I!J 9 9 G!K                                      ",
"         % 7 9!L!M a a a a a a!I!N!O!P!Q!R!S!T!U | a a a a a a a a a a a a a a a!C E 9 9!V!W                                    ",
"       >!X 9 9!Y a a a a a a |!Z![!\!]!^!_!`!a!b h a a a a a a a a a a a a a a a!c!d 8 9 8!e 2                                  ",
"      !f B 9 D R a a a a a a `!g!h!i!j!k!k!l!m!n!o | a a a a a a a a a a a a a a a!p!q 9 9 7!r!.                                ",
"      !s!# 9!L!t a a a a a a!u!v!w!x!k!]!k!k!y!z!{!| a a a a a a a a a a a a a a a a!}#  9 9 7#!##                              ",
"      #$ 8 9#%#& a a a a a a!&!L#'!l!] 9!]!k!i#(#)#* a a a a a a a a!;!<#+ i a a a a a t#, 9 9 x#-!.                            ",
"      #. 8 9#/ a a a a a a a {#0#1#2!k!]!k#3#4#5#6#& a a a a a a#+#7!Y#8#9#:#;#< a a a a#=#0 9 9 :#> >                          ",
"      #? 9 8#@ a a a a a a a!; g#A#B#C#D#E#F#G#H#I a a a a a a {#J#K!P!Q!R!S#L#M i a a a a t#N 9 9#O#P                          ",
"      #Q 9 8#R a a a a a a a a#S#T#U#V#W#X#Y#Z P#& a a a a a i#[#\#]!]!^!_!`!a#^!H a a a a a#_ \ 9 9#`#a                        ",
"      #b 9 8#c a a a a a a a a a!t#d#e#f#g#h#i!c a a a a a a!I#j!h!i!j!k!k!l!m!n#k | a a a a |#l 8 9 8#m >                      ",
"      #b 9 C#n a a a a a a a a a a i s#o#S!5 i a a a a a a a h!v!w!x!k!]!k!k!y!z#/!5 a a a a a#<#p 9 9#q 0                      ",
"      #Q 9 C#k a a a a a a a a a a a a a a a a a a a a a a a#r!L#'!l!] 9!]!k!i#(#s!B a a a a a a#t y 9 9!7 ?                    ",
"      !X 9 8!G a a a a a a a a a a a a a a a a a a a a a a a!<#u#1#2!k!]!k#3#4#5#v i a a a a a a | z 8 9 p#w                    ",
"      !e 9 9#x a a a a a a a a a a a a a a a a a a a a a a a#<#y#z#B#C#D#E#F#G#{!% a a a a a a a a!:#| 9 9!7 Z                  ",
"       v 8 9#} a a a a a a a a a a a a a a a a a a a a a a a a$ $!#A#V#W#X#Y$#$$ i a a a a a a a a |$% 7 9 p$&                  ",
"      !' 7 9!9!c a a a a a a a a a a a a a a a a a a a a a a a a {$'!E M$($)$*#& a a a a a a a a a a!c$+ 9 9$, >                ",
"       $ : 9$-$. a a a a a a a a a a a a a a a a a a a a a a a a a |!5!M!:!; | a a a a a a a a a a a a$/ D 9#q$0                ",
"       2 l 9$1 _ a a a a a a a a a a a a a a a a a a a a a a a$2 a a a a a a a a a a a a a a a a a a a!<$3 9 8$4                ",
"        $5 9$6$7 a a a a a a a a a a a a a a a a a a a$8$9$:$;$<$=$2 a a a a a a a a a a a a a a a a a a$> 8 9 ;!.              ",
"         5 9$6 T a a a a a a a a a a a a a a a a a$?$@$A$B$C$D$E$F$<$G a a a a a a a a a a a a a a a a a$H u 9!#$I              ",
"         5 9 D T a a a a a a a a a a a a a a a a$=$J$K$L$M$N$O$P$Q$R$S a a a a a a a a a a a a a a a a a!;$T 9 8 v              ",
"         G 9 D$U a a a a a a a a a a a a a a a$=$V$W$X$Y$Z$[$[$\$]$^$_ a a a a a a a a a a a a a a a a a a$` 8 9$a Z            ",
"       ##O 9 F S a a a a a a a a a a a a a a$b$c$d$e$f$g$h$i$j$k$l$m$n a a a a a a a a a a a a a a a a a a$o D 9 :$p            ",
"       J p 9$q$r a a a a a a a a a a a a a a$s$t$u$v$w$x$y$z$j${$|$}%  a a a a a a a a a a a a a a a a a a `%! 9 8%#            ",
"      %$ 7 9%%%& a a a a a a a a a a a a a a%'%(%)%*$[$[$[$x$x%+%,$F$2 a a a a a a a a a a a a a a a a a a a#/ 9 9%- >          ",
"      %. 8 9%/ a a a a a a a a a a a a a a a%0%1%2%3$[%4%5%6%7%8%9%:%; a a a a a a a a a a a a a a a a a a a$% C 9%<!           ",
"     I!- 9 8 g a a a a a a a a a a a a a a a%=%>%?%@%A%B%C%D%E%F$Z%G%H%I$2 a a a a a a a a a a a a a a a a a$r%J 9 x%K          ",
"    %L#q 9 E!/ a a a a a a a a a a a a a a a a%M$V%N%O%P$}%Q%R%S%+%6%T%U%M a a a a a a a a a a a a a a a a a i%V 9 9#m          ",
"    %W 8 9!9!< a a a a a a a a a a a a a a a a a$G$_% %0$s%X$J%Y%Z%[%\%]%^%  a a a a a a a a a a a a a a a a a%_ 9 9 -          ",
"    %` 9 9#s | a a a a a a a a a a a a a a a a a a a a a a a%X%a%b%c%d$l%e%a%0 a a%=$G a a a a a a a a a a a a$U D 9%f n        ",
"   # X 9 C%g a a a a a a a a a a a a a a a a a a a a a a a a a%I%h%i%j%k%l%m%n$;$J%o%p%I$G a a a a a a a a a a!u%J 9 6%q        ",
"   $ : 9%r%s a a a a a a a a a a a a a a a a a a a a a a a a a$2%t%u%v%w%j%x%y%z%{%|%}& %M a a a a a a a a a a!| M 9 x&!        ",
"  &# 7 9%%%& a a a a a a a a a a a a a a a a a a a a a a a a a a%0&$&%&&&'&(&)$f$O&*&+&,&- a a a a a a a a a a a&. 9 8&/        ",
"  &0 8 9&1 a a a a a a a a a a a a a a a a a a a a a a a a a a a a&2&3$g%*&4$w&5$[$[%c&6&7$2 a a a a a a a a a a&8 9 9&9        ",
"  &: 9 9&; a a a a a a a a a a a a a a a a a a a a a a a a a a a a%'&<&=&>&?$O&@$[&'&A&B&C a a a a a a a a a a a&D 9 9&E        ",
"  #Q 9 8&F a a a a a a a a a a a a a a a a a a a a a a a a a a a a%I&G&H&I&J&K&L%5&M&N&O&P a a a a a a a a a a!|&Q 9 7&R        ",
"  #Q 9 8#c a a a a a a a a a a a a a a a a a a a a a a a a a a a a&S&T&U$j%c&V&W&X%2&Y&Z$n$2 a a a a a a a a i&[ 8 9 6 @        ",
"  !X 9 8&; a a a a a a a a a a a a a a a a a a a a a a a a a a a a&\&]&^&_&`&a&b&c&d&e$n%X a a a a a a a a |&f E 9 9 K Z        ",
"  &g 9 9&h ` a a a a a a a a a a a a a a a a a a a a a a a a a a a$s&i&j&k&l&m%'&n%M%= a a a a a a a a a#&&o F 9 9%f&p          ",
"  &q x 9 8&r!| a a a a a a a a a a a a a a a a a a a a a a a a a a a% &S&s$;$S a a a a a a a a a a a a!B U D 9 9 6&t >          ",
"   2%- 9 9 8!{!< a a a a a a a a a a a a a a a a a a a a a a a a a a a$G a a a a a a a a a a a a a#*!Z%! 8 9 9 6&u ?            ",
"    %L!@ 9 9 9!*&v&w&x&y a a a a a a a a a a a a a a a a a a a a a a a a a a a a a a a a a a `&z!D&{ C 9 9 9&|&} >              ",
"      '  + 9 9 9 9 8 L$q!*#N'!'#'$'%&1&1!F'&$>''&x!% S'( S') h'*#<!I#< a a a a a |!p!u!0 U!E'+ E 8 9 9 9 x!X',                  ",
"        '-#?#q 8 9 9 9 9 9 9 9 9 9 9 9 9 9 9 9 9 9 9 9 9 9 9 8 F'.#N'/'0'0&{'1'1'2$-'3 C 8 9 9 9 9 8 : -&q !                    ",
"           I'4'5'6!)#q : p x x 7 7 8 8 9 9 9 9 9 9 9 9 9 9 9 9 9 9 9 9 9 9 9 9 9 9 9 9 9 9 9 7 6'7'8'9 >                        ",
"                  ##':';!>&!'<&u'5$4'='> 6 x x p p!#!# :!# 7 8 9 8!# : : : : : : : :#q'?'@'A&#!2 !                              "
};