/* XPM */
static char *result[] = {
/* columns rows colors chars-per-pixel */
"64 64 104 2 ",
"   c #000000",
".  c #000609",
"X  c #00090C",
"o  c #010D12",
"O  c #021115",
"+  c #0D1112",
"@  c #00141C",
"#  c #0E1618",
"$  c #141616",
"%  c #141718",
"&  c #001B24",
"*  c #001E28",
"=  c #00212C",
"-  c #1F2121",
";  c #002633",
":  c #002836",
">  c #002D3C",
",  c #222323",
"<  c #2B2C2C",
"1  c #3F3F3F",
"2  c #003243",
"3  c #00374A",
"4  c #003A4D",
"5  c #003D51",
"6  c #004157",
"7  c #00445B",
"8  c #004C65",
"9  c #004F69",
"0  c #00516C",
"q  c #005672",
"w  c #005977",
"e  c #005B7A",
"r  c #4B4B4B",
"t  c #535353",
"y  c gray35",
"u  c gray39",
"i  c gray42",
"p  c #797979",
"a  c #006283",
"s  c #006789",
"d  c #00698C",
"f  c #0A6C8D",
"g  c #006D92",
"h  c #0B6F90",
"j  c #037196",
"k  c #0A7295",
"l  c #02759B",
"z  c #0A769A",
"x  c #0D789D",
"c  c #157595",
"v  c #157C9F",
"b  c #1A7C9C",
"n  c #027AA2",
"m  c #0F7CA1",
"M  c #007FA9",
"N  c #1B7FA0",
"B  c #0182AD",
"V  c #1B82A5",
"C  c #1285AC",
"Z  c #0085B2",
"A  c #0089B7",
"S  c #008CBB",
"D  c #2183A3",
"F  c #2587A8",
"G  c #2789AA",
"H  c #2B8CAC",
"J  c #2C91B3",
"K  c #3394B4",
"L  c #3699BA",
"P  c #3B9BBB",
"I  c #008FC0",
"U  c #0092C3",
"Y  c #0096C9",
"T  c #009ACE",
"R  c #009ED3",
"E  c #3F9FC0",
"W  c #00A0D6",
"Q  c #00A4DB",
"!  c #00ABE4",
"~  c #00AEE9",
"^  c #00B1EC",
"/  c #00B5F2",
"(  c #00B9F7",
")  c #00BFFF",
"_  c #43A3C3",
"`  c #4AAACA",
"'  c #54B4D4",
"]  c #5BBBDB",
"[  c #63C3E3",
"{  c #68C7E8",
"}  c #6CCCEC",
"|  c #75D4F5",
" . c #7EDDFE",
".. c #939393",
"X. c #9A9A9A",
"o. c gray64",
"O. c #BDBDBD",
"+. c gray80",
"@. c #D9D9D9",
"#. c #E4E4E4",
"$. c #EAEAEA",
"%. c #F3F3F3",
"&. c #FDFDFD",
"*. c None",
/* pixels */
"*.*.*.*.*.*.*.*.*.*.*.*.*.*.*.*.*.*.*.*.*.*.*.*.*.*.*.*.*.*.*.*.*.*.*.*.*.*.*.*.*.*.*.*.*.*.*.*.*.*.*.*.*.*.*.*.*.*.*.*.*.*.*.*.",
"*.*.*.*.*.*.*.*.*.*.*.*.*.*.*.*.*.*.*.*.*.*.*.*.*.*.*.*.*.*.*.*.*.*.*.*.*.*.*.*.*.*.*.*.*.*.*.*.*.*.*.*.*.*.*.*.*.*.*.*.*.*.*.*.",
"*.*.*.*.*.*.*.*.*.*.*.*.*.*.*.*.*.*.*.*.*.*.*.*.*.*.*.*.*.*.*.*.*.*.*.*.*.*.*.*.*.*.*.*.*.*.*.*.*.*.*.*.*.*.*.*.*.*.*.*.*.*.*.*.",
"*.*.*.*.*.*.*.*.*.*.*.*.*.*.*.*.*.*.*.*.*.*.*.*.*.*.*.*.*.*.*.*.*.*.*.*.*.*.*.*.*.*.*.*.*.*.*.*.*.*.*.*.*.*.*.*.*.*.*.*.*.*.*.*.",
"*.*.*.*.*.*.*.*.*.*.*.*.*.*.*.*.*.*.*.*.*.*.*.*.*.*.*.*.*.*.*.*.*.*.*.*.*.*.*.*.*.*.*.*.*.*.*.*.*.*.*.*.*.*.*.*.*.*.*.*.*.*.*.*.",
"*.*.*.*.*.*.*.*.*.*.*.*.*.*.*.*.*.*.*.*.*.*.*.*.*.*.*.*.*.*.*.*.*.*.*.*.*.*.*.*.*.*.*.*.*.*.*.*.*.*.*.*.*.*.*.*.*.*.*.*.*.*.*.*.",
"*.*.*.*.*.*.*.*.*.*.*.*.*.*.*.*.*.*.*.*.*.*.*.*.*.*.*.*.*.*.*.*.*.*.*.*.*.*.*.*.*.*.*.*.*.*.*.*.*.*.*.*.*.*.*.*.*.*.*.*.*.*.*.*.",
"*.*.*.*.*.*.*.*.*.*.*.*.*.*.*.*.*.*.*.*.*.*.*.*.              *.*.*.*.*.*.*.*.*.*.*.*.*.*.*.*.*.*.*.*.*.*.*.*.*.*.*.*.*.*.*.*.*.",
"*.*.*.*.*.*.*.*.*.*.*.*.*.*.*.*.*.*.*.*.*.                            *.*.*.*.*.*.*.*.*.*.*.*.*.*.*.*.*.*.*.*.*.*.*.*.*.*.*.*.*.",
"*.*.*.*.*.*.*.*.*.*.*.*.*.*.*.*.*.*.                                      *.*.*.*.*.*.*.*.*.*.*.*.*.*.*.*.*.*.*.*.*.*.*.*.*.*.*.",
"*.*.*.*.*.*.*.*.*.*.*.*.*.*.*.                . O @ @ @ @ O .                 *.*.*.*.*.*.*.*.*.*.*.*.*.*.*.*.*.*.*.*.*.*.*.*.*.",
"*.*.*.*.*.*.*.*.*.*.*.*.*.            . & 4 d S W ! ^ ^ ! Q Z w 2 & X           *.*.*.*.*.*.*.*.*.*.*.*.*.*.*.*.*.*.*.*.*.*.*.*.",
"*.*.*.*.*.*.*.*.*.*.*.            @ 7 S ^ ) ) ) ) ) ) ) ) ) ) ) ) ( W >           *.*.*.*.*.*.*.*.*.*.*.*.*.*.*.*.*.*.*.*.*.*.*.",
"*.*.*.*.*.*.*.*.*.*.          X 0 ^ ) ) ) ) ) ) ) ) ) ) ) ) ) ) ) ) ) ( 0 .         *.*.*.*.*.*.*.*.*.*.*.*.*.*.*.*.*.*.*.*.*.*.",
"*.*.*.*.*.*.*.*.*.          > R ) ) ) ) ) ) ) ) ) ) ) ) ) ) ) ) ) ) ) ) ) l o         *.*.*.*.*.*.*.*.*.*.*.*.*.*.*.*.*.*.*.*.*.",
"*.*.*.*.*.*.*.*.        . g ) ) ) ) ) ) ) ) ) ) ) ) ) ) ) ) ) ) ) ) ) ) ) ) Y o       *.*.*.*.*.*.*.*.*.*.*.*.*.*.*.*.*.*.*.*.*.",
"*.*.*.*.*.*.          @ Q ) ) ) ) ) ) ) ) ) ) ) ) ) ) ) ) ) ) ) ) ) ) ) ) ) ) Q X       *.*.*.*.*.*.*.*.*.*.*.*.*.*.*.*.*.*.*.*.",
"*.*.*.*.*.*.        > ( ) ) ) ) ) ) ) ) ) ) ) ) ) ) ) ) ) ) ) ) ) ) ) ) ) ) ) ) U .       *.*.*.*.*.*.*.*.*.*.*.*.*.*.*.*.*.*.*.",
"*.*.*.*.*.        4 ) ) ) ) ) ) ) ) ) ) ) ) ) ) ) ) ) ) ) ) ) ) ) ) ) ) ) ) ) ) ) 0       *.*.*.*.*.*.*.*.*.*.*.*.*.*.*.*.*.*.*.",
"*.*.*.*.*.      3 ) ) ) ) ) ) ) ) ) ) ) ) ) ) ) ) ) ) ) ) ) ) ) ) ) ) ) ) ) ) ) ) / &       *.*.*.*.*.*.*.*.*.*.*.*.*.*.*.*.*.*.",
"*.*.*.*.      @ ( ) ) ) ) ) ) ) ) ) ( Q ~ ) ) ) ) ) ) ) ) ) ) ) ) ) ) ) ) ) ) ) ) ) M .       *.*.*.*.*.*.*.*.*.*.*.*.*.*.*.*.*.",
"*.*.*.*.      0 ) ) ) ) ) ) ) ) ~ e : @ & 3 B ) ) ) ) ) ) ) ) ) ) ) ) ) ) ) ) ) ) ) ) 4       *.*.*.*.*.*.*.*.*.*.*.*.*.*.*.*.*.",
"*.*.*.*.      U ) ) ) ) ) ) ) ! 4 $ 1 i u < O s ) ) ) ) ) ) ) ) ) ) ) ) ) ) ) ) ) ) ) ^ @       *.*.*.*.*.*.*.*.*.*.*.*.*.*.*.*.",
"*.*.*.      O ( ) ) ) ) ) ) ) 7 $ p @.$.#.O.r O A ) ) ) ) ) ) ) ) ) ( Q ! ) ) ) ) ) ) ) Q o       *.*.*.*.*.*.*.*.*.*.*.*.*.*.*.",
"*.*.*.      = ) ) ) ) ) ) ) ! @ y #.&.&.&.&.O., 5 ) ) ) ) ) ) ) ! 0 = O O > l ( ) ) ) ) ) S .       *.*.*.*.*.*.*.*.*.*.*.*.*.*.",
"*.*.*.      > ) ) ) ) ) ) ) A . X.&.&.@.&.&.#.t = ^ ) ) ) ) ) W > + 1 i u < O e ) ) ) ) ) ) B .       *.*.*.*.*.*.*.*.*.*.*.*.*.",
"*.*.*.      2 ) ) ) ) ) ) ) B . o.&.@.  @.&.#.y * ! ) ) ) ) ) 6 $ p @.$.#.O.r O B ) ) ) ) ) ) q       *.*.*.*.*.*.*.*.*.*.*.*.*.",
"*.*.*.      3 ) ) ) ) ) ) ) W o i %.&.@.&.&.+.< 2 ( ) ) ) ) Q O y #.&.&.&.&.O., 5 ) ) ) ) ) ) ( &       *.*.*.*.*.*.*.*.*.*.*.*.",
"*.*.*.      > ) ) ) ) ) ) ) ( 2 - X.%.%.&.@.i O j ) ) ) ) ) A . X.&.&.@.&.&.#.t = ~ ) ) ) ) ) ) Z       *.*.*.*.*.*.*.*.*.*.*.*.",
"*.*.*.      ; ) ) ) ) ) ) ) ) U = % i o...r + 7 ( ) ) ) ) ) B . o.&.@.  @.&.#.y = ! ) ) ) ) ) ) ) >       *.*.*.*.*.*.*.*.*.*.*.",
"*.*.*.      > ) ) ) ) ) ) ) ) ) Y 3 O . . & e ^ ) ) ) ) ) ) Q O i %.&.@.&.&.+.< 2 ) ) ) ) ) ) ) ) A       *.*.*.*.*.*.*.*.*.*.*.",
"*.*.*.      ; ) ) ) ) ) ) ) ) ) ) ) Q A U ! ) ) ) ) ) ) ) ) ( 4 % X.%.%.&.@.i + n ) ) ) ) ) ) ) ) ) @       *.*.*.*.*.*.*.*.*.*.",
"*.*.*.      @ ) ) ) ) ) ) ) ) ) ) ) ) ) ) ) ) ) ) ) ) ) ) ) ) T ; , i o...r # 9 ) ) ) ) ) ) ) ) ) ) g       *.*.*.*.*.*.*.*.*.*.",
"*.*.*.    . @ ) ) ) ) ) ) ) ) ) ) ) ) ) ) ) ) ) ) ) ) ) ) ) ) ) W 7 @ X X = d ( ) ) ) ) ) ) ) ) ) ) ( o       *.*.*.*.*.*.*.*.*.",
"*.*.        6 ) ) ) ) ) ) ) ) ) ) ) ) ) ) ) ) ) ) ) ) ) ) ) ) ) ) ) ! Y R / ) ) ) ) ) ) ) ) ) ) ) ) ) 9       *.*.*.*.*.*.*.*.*.",
"*.*.      . B ) ) ) ) ) ) ) ) ) ) ) ) ) ) ) ) ) ) ) ) ) ) ) ) ) ) ) ) ) ) ) ) ) ) ) ) ) ) ) ) ) ) ) ) Q .       *.*.*.*.*.*.*.*.",
"*.*.      @ ~ ) ) ) ) ) ) ) ) ) ) ) ) ) ) ) ) ) ) ) ) ) ) ) ) ) ) ) ) ) ) ) ) ) ) ) ) ) ) ) ) ) ) ) ) ) >       *.*.*.*.*.*.*.*.",
"*.*.      6 ) ) ) ) ) ) ) ) ) ) ) ) ) ) ) ) ) ) ) ) ) ) ) ) ) ) ) ) ) ) ) ) ) ) ) ) ) ) ) ) ) ) ) ) ) ) B       *.*.*.*.*.*.*.*.",
"*.*.    . j ) ) ) ) ) ) ) ) ) ) ) ) ) ) ) ) ) ) ) ) ) ( ^ / ) ) ) ) ) ) ) ) ) ) ) ) ) ) ) ) ) ) ) ) ) ) ( o       *.*.*.*.*.*.*.",
"*.*.    @ W *./ ) ) ) ) ) ) ) ) ) ) ) ) ) ) ) ) ( ^ Y B B B T ) ) ) ) ) ) ) ) ) ) ) ) ) ) ) ) ) ) ) ) ) ) >       *.*.*.*.*.*.*.",
"*.      & ! ) Q ) ) ) ) ) ) ) ) ) ) ) ) ) ) ) ) S z h H K V z Q ) ) ) ) ) ) ) ) ) ) ) ) ) ) ) ) ) ) ) ) ) d       *.*.*.*.*.*.*.",
"*.      = / *.! ) ) ) ) ) ) ) ) ) ) ) ) ) ) ) R h K [ | } ] b S ( ) ) ) ) ) ) ) ) ) ) ) ) ) ) ) ) ) ) ) ) ! .       *.*.*.*.*.*.",
"*.      ; *.*.) ) ) ) ) ) ) ) ) ) ) ) ) ) ) ^ B h E |  . .| H B / ) ) ) ) ) ) ) ) ) ) ) ) ) ) ) ) ) ) ) ) ) =       *.*.*.*.*.*.",
"*.    . > *.) ) ) ) ) ) ) ) ) ) ) ) ) ) ) ) Y z c D K [  .} J B ^ ) ) ) ) ) ) ) ) ) ) ) ) ) ) ) ) ) ) ) ) ) 9       *.*.*.*.*.*.",
"*.      4 *.) ) ) ) ) ) ) ) ) ) ) ) ) ) ) ~ B F ] | | |  .| _ k B ^ ) ) ) ) ) ) ) ) ) ) ) ) ) ) ) ) ) ) ) ) U       *.*.*.*.*.*.",
"*.      0 ) ( ) ) ) ) ) ) ) ) ) ) ) ) ) ) Q c _  . . . .| } { _ h l S ! ) ) ) ) ) ) ) ) ) ) ) ) ) ) ) ) ) ) ) O       *.*.*.*.*.",
"*.      w ( ) ) ) ) ) ) ) ) ) ) ) ) ) ) ) Q x `  . . .{ _ L _ { [ J x B Y ( ) ) / T S Y ^ ) ) ) ) ) ) ) ) ) ) >       *.*.*.*.*.",
"*.      a ) ) ) ) ) ) ) ) ) ) ) ) ) ) ) ) ~ l H { | ] H z B k H } } ` D z n S T B x V z B ) ) ) ) ) ) ) ) ) ) 0       *.*.*.*.*.",
"*.      s ) ) ) ) ) ) ) ) ) ) ) ) ) ) ) ) ) S x V c f l Y ~ S d D [ | [ _ G v z b _ ' L k Q ) ) ) ) ) ) ) ) ) S .     *.*.*.*.*.",
"*.      d ) ) ) ) ) ) ) ) ) ) ) ) ) ) ) ) ) / Y A S R ! ) ) ) R l F ' |  .{ ' ' [  . .[ V U ) ) ) ) ) ) ) ) ) ^ X     *.*.*.*.*.",
"*.      d ) ) ) ) ) ) ) ) ) ) ) ) ) ) ) ) ) ) ) ( ) ) ) ) ) ) ) Q n v E {  . . . . . .{ J S / ) ) ) ) ) ) ) ) ) @       *.*.*.*.",
"*.      s ) ) ) ) ) ) ) ) ) ) ) ) ) ) ) ) ) ) ) ) ) ) ) ) ) ) ) ) ! Z k K } | ' ] |  .' V S / ) ) ) ) ) ) ) ) ) &       *.*.*.*.",
"*.      8 ) ) ) ) ) ) ) ) ) ) ) ) ) ) ) ) ) ) ) ) ) ) ) ) ) ) ) ) ) ( S v ' | E b P ` F x W ( ) ) ) ) ) ) ) ) ) @       *.*.*.*.",
"*.      7 ) ) ) ) ) ) ) ) ) ) ) ) ) ) ) ) ) ) ) ) ) ) ) ) ) ) ) ) ) ) Q x `  .{ b d C B Y ) ) ) ) ) ) ) ) ) ) ^         *.*.*.*.",
"*.      5 ) ) ) ) ) ) ) ) ) ) ) ) ) ) ) ) ) ) ) ) ) ) ) ) ) ) ) ) ) ) Q l P  .[ b B Q ! ) ) ) ) ) ) ) ) ) ) ) 2       *.*.*.*.*.",
"*.      > ) ) ) ) ) ) ) ) ) ) ) ) ) ) ) ) ) ) ) ) ) ) ) ) ) ) ) ) ) ) ( M b K D j Q ) ) ) ) ) ) ) ) ) ) ) ) 7         *.*.*.*.*.",
"*.      X ! ) ) ) ) ) ) ) ) ) ) ) ) ) ) ) ) ) ) ) ) ) ) ) ) ) ) ) ) ) ) Q Z l l Y ( ) ) ) ) ) ) ) ) ) ) ( 7         *.*.*.*.*.*.",
"*.*.      ; ^ ) ) ) ) ) ) ) ) ) ) ) ) ) ) ) ) ) ) ) ) ) ) ) ) ) ) ) ) ) ) ^ Q ( ) ) ) ) ) ) ) ) ) ) ) ! >         *.*.*.*.*.*.*.",
"*.*.        = W ) ) ) ) ) ) ) ) ) ) ) ) ) ) ) ) ) ) ) ) ) ) ) ) ) ) ) ) ) ) ) ) ) ) ) ) ) ) ) ) ) ! 8 .         *.*.*.*.*.*.*.*.",
"*.*.*.        . = 6 B ^ ) ) ) ) ) ) ) ) ) ) ) ) ) ) ) ) ) ) ) ) ) ) ) ) ) ) ( / ) ) ) ) ) ) ! g : .           *.*.*.*.*.*.*.*.*.",
"*.*.*.*.              . . X X O @ @ & & & * > g B l d a d M Z W ( ! ( ) ) ) ) ) ) Q A q > @ .               *.*.*.*.*.*.*.*.*.*.",
"*.*.*.*.*.                                                      . .   . . . . . .   .                   *.*.*.*.*.*.*.*.*.*.*.*.",
"*.*.*.*.*.*.*.                                                                                      *.*.*.*.*.*.*.*.*.*.*.*.*.*.",
"*.*.*.*.*.*.*.*.*.*.*.*.*.*.*.*.                                                            *.*.*.*.*.*.*.*.*.*.*.*.*.*.*.*.*.*."
};
