/* XPM */
static char *result[] = {
/* columns rows colors chars-per-pixel */
"64 64 106 2 ",
"   c #000000",
".  c #000609",
"X  c #00090C",
"o  c #010E12",
"O  c #021115",
"+  c #0D1112",
"@  c #00141B",
"#  c #0E1618",
"$  c #141616",
"%  c #141718",
"&  c #001A23",
"*  c #001E28",
"=  c #00212C",
"-  c #1F2121",
";  c #002632",
":  c #002D3C",
">  c #222323",
",  c #2B2C2C",
"<  c #3F3F3F",
"1  c #003243",
"2  c #00374A",
"3  c #00394D",
"4  c #003D51",
"5  c #004157",
"6  c #00445B",
"7  c #004B65",
"8  c #004F69",
"9  c #00516D",
"0  c #005470",
"q  c #005876",
"w  c #005B7A",
"e  c #4B4B4B",
"r  c #535353",
"t  c gray35",
"y  c gray39",
"u  c gray42",
"i  c #797979",
"p  c #006384",
"a  c #006789",
"s  c #01698C",
"d  c #016F93",
"f  c #007197",
"g  c #02759B",
"h  c #0B769B",
"j  c #05799F",
"k  c #0D799D",
"l  c #137697",
"z  c #157798",
"x  c #137A9D",
"c  c #187B9D",
"v  c #0077A0",
"b  c #017BA4",
"n  c #097DA4",
"m  c #017FA9",
"M  c #137DA1",
"N  c #0282AD",
"B  c #1C81A3",
"V  c #1487AD",
"C  c #1F87AA",
"Z  c #0086B3",
"A  c #0189B6",
"S  c #0B88B2",
"D  c #008CBB",
"F  c #2183A3",
"G  c #2589AA",
"H  c #2C8CAD",
"J  c #2B8FB1",
"K  c #2F91B2",
"L  c #3393B3",
"P  c #3798B8",
"I  c #3A9BBB",
"U  c #008FC0",
"Y  c #0093C4",
"T  c #0095C8",
"R  c #009ACE",
"E  c #009DD3",
"W  c #3E9FC0",
"Q  c #00A0D6",
"!  c #00A4DC",
"~  c #00AAE4",
"^  c #00AEE9",
"/  c #00B1EC",
"(  c #00B6F3",
")  c #00B9F7",
"_  c #00BFFF",
"`  c #44A4C4",
"'  c #4CACCC",
"]  c #53B3D3",
"[  c #5CBCDC",
"{  c #63C2E3",
"}  c #68C7E8",
"|  c #6DCCED",
" . c #70CFF0",
".. c #73D3F3",
"X. c #7DDDFD",
"o. c #939393",
"O. c #9A9A9A",
"+. c gray64",
"@. c #BDBDBD",
"#. c gray80",
"$. c #D9D9D9",
"%. c #E4E4E4",
"&. c #EAEAEA",
"*. c #F3F3F3",
"=. c #FDFDFD",
"-. c None",
/* pixels */
"-.-.-.-.-.-.-.-.-.-.-.-.-.-.-.-.-.-.-.-.-.-.-.-.-.-.-.-.-.-.-.-.-.-.-.-.-.-.-.-.-.-.-.-.-.-.-.-.-.-.-.-.-.-.-.-.-.-.-.-.-.-.-.-.",
"-.-.-.-.-.-.-.-.-.-.-.-.-.-.-.-.-.-.-.-.-.-.-.-.-.-.-.-.-.-.-.-.-.-.-.-.-.-.-.-.-.-.-.-.-.-.-.-.-.-.-.-.-.-.-.-.-.-.-.-.-.-.-.-.",
"-.-.-.-.-.-.-.-.-.-.-.-.-.-.-.-.-.-.-.-.-.-.-.-.-.-.-.-.-.-.-.-.-.-.-.-.-.-.-.-.-.-.-.-.-.-.-.-.-.-.-.-.-.-.-.-.-.-.-.-.-.-.-.-.",
"-.-.-.-.-.-.-.-.-.-.-.-.-.-.-.-.-.-.-.-.-.-.-.-.-.-.-.-.-.-.-.-.-.-.-.-.-.-.-.-.-.-.-.-.-.-.-.-.-.-.-.-.-.-.-.-.-.-.-.-.-.-.-.-.",
"-.-.-.-.-.-.-.-.-.-.-.-.-.-.-.-.-.-.-.-.-.-.-.-.-.-.-.-.-.-.-.-.-.-.-.-.-.-.-.-.-.-.-.-.-.-.-.-.-.-.-.-.-.-.-.-.-.-.-.-.-.-.-.-.",
"-.-.-.-.-.-.-.-.-.-.-.-.-.-.-.-.-.-.-.-.-.-.-.                    -.-.-.-.-.-.-.-.-.-.-.-.-.-.-.-.-.-.-.-.-.-.-.-.-.-.-.-.-.-.-.",
"-.-.-.-.-.-.-.-.-.-.-.-.-.-.-.-.-.-.-.                                    -.-.-.-.-.-.-.-.-.-.-.-.-.-.-.-.-.-.-.-.-.-.-.-.-.-.-.",
"-.-.-.-.-.-.-.-.-.-.-.-.-.-.-.-.                                            -.-.-.-.-.-.-.-.-.-.-.-.-.-.-.-.-.-.-.-.-.-.-.-.-.-.",
"-.-.-.-.-.-.-.-.-.-.-.-.-.-.                X & : 5 9 9 w s 9 : & .           -.-.-.-.-.-.-.-.-.-.-.-.-.-.-.-.-.-.-.-.-.-.-.-.-.",
"-.-.-.-.-.-.-.-.-.-.-.-.            . O 1 s ~ _ _ _ _ _ _ _ _ _ _ / f @         -.-.-.-.-.-.-.-.-.-.-.-.-.-.-.-.-.-.-.-.-.-.-.-.",
"-.-.-.-.-.-.-.-.-.-.            X 2 A ) _ _ _ _ _ _ _ _ _ _ _ _ _ _ _ ( &       -.-.-.-.-.-.-.-.-.-.-.-.-.-.-.-.-.-.-.-.-.-.-.-.",
"-.-.-.-.-.-.-.-.-.          X 6 ! _ _ _ _ _ _ _ _ _ _ _ _ _ _ _ _ _ _ _ m         -.-.-.-.-.-.-.-.-.-.-.-.-.-.-.-.-.-.-.-.-.-.-.",
"-.-.-.-.-.-.-.-.          1 Q _ _ _ _ _ _ _ _ _ _ _ _ _ _ _ _ _ _ _ _ _ ) ;       -.-.-.-.-.-.-.-.-.-.-.-.-.-.-.-.-.-.-.-.-.-.-.",
"-.-.-.-.-.-.-.-.      . v _ _ _ _ _ _ _ _ _ _ _ _ _ _ _ _ _ _ _ _ _ _ _ _ Z       -.-.-.-.-.-.-.-.-.-.-.-.-.-.-.-.-.-.-.-.-.-.-.",
"-.-.-.-.-.-.-.      . b _ _ _ _ _ _ _ _ _ _ _ _ _ _ _ _ _ _ _ _ _ _ _ _ _ _ @       -.-.-.-.-.-.-.-.-.-.-.-.-.-.-.-.-.-.-.-.-.-.",
"-.-.-.-.-.-.        p _ _ _ _ _ _ _ _ _ _ _ _ _ _ _ _ _ _ _ _ _ _ _ _ _ _ _ q       -.-.-.-.-.-.-.-.-.-.-.-.-.-.-.-.-.-.-.-.-.-.",
"-.-.-.-.-.-.      = _ _ _ _ _ _ _ _ _ _ _ _ _ _ _ _ _ _ _ _ _ _ _ _ _ _ _ _ ^ o       -.-.-.-.-.-.-.-.-.-.-.-.-.-.-.-.-.-.-.-.-.",
"-.-.-.-.-.      X E _ _ _ _ _ _ _ _ ) ! ~ _ _ _ _ _ _ _ _ _ _ _ _ _ _ _ _ _ _ 7       -.-.-.-.-.-.-.-.-.-.-.-.-.-.-.-.-.-.-.-.-.",
"-.-.-.-.-.      2 _ _ _ _ _ _ _ ^ w ; & & 2 N ) _ _ _ _ _ _ _ _ _ _ _ _ _ _ _ ~ o       -.-.-.-.-.-.-.-.-.-.-.-.-.-.-.-.-.-.-.-.",
"-.-.-.-.-.    . T _ _ _ _ _ _ ~ 2 + < u y , O a _ _ _ _ _ _ _ _ _ _ _ _ _ _ _ _ w         -.-.-.-.-.-.-.-.-.-.-.-.-.-.-.-.-.-.-.",
"-.-.-.-.      * _ _ _ _ _ _ _ 6 % i $.&.%.@.e @ A _ _ _ _ _ _ _ _ _ _ _ _ _ _ _ ) ;         -.-.-.-.-.-.-.-.-.-.-.-.-.-.-.-.-.-.",
"-.-.-.-.      q _ _ _ _ _ _ ~ @ t %.=.=.=.=.@.> 5 ) _ _ _ _ _ _ _ _ _ _ _ _ _ _ _ ! &         -.-.-.-.-.-.-.-.-.-.-.-.-.-.-.-.-.",
"-.-.-.-.    . T _ _ _ _ _ _ A . O.=.=.$.=.=.%.r = / _ _ _ _ _ _ _ _ _ _ _ _ _ _ _ _ R X         -.-.-.-.-.-.-.-.-.-.-.-.-.-.-.-.",
"-.-.-.      o ) _ _ _ _ _ _ N . +.=.$.  $.=.%.t * ^ _ _ _ _ _ _ _ _ ) ! ^ ) _ _ _ _ _ b X         -.-.-.-.-.-.-.-.-.-.-.-.-.-.-.",
"-.-.-.      = _ _ _ _ _ _ _ Q o u *.=.$.=.=.#., 1 ) _ _ _ _ _ _ ~ 8 & o @ : g ) _ _ _ _ Y o       -.-.-.-.-.-.-.-.-.-.-.-.-.-.-.",
"-.-.-.      : _ _ _ _ _ _ _ ) 1 - O.*.*.*.$.u + g _ _ _ _ _ _ E : + e u y > O w ) _ _ _ _ b X       -.-.-.-.-.-.-.-.-.-.-.-.-.-.",
"-.-.-.      1 _ _ _ _ _ _ _ _ Y * - u +.o.e + 6 ) _ _ _ _ _ _ 5 $ i $.&.%.@.e O N _ _ _ _ _ s .       -.-.-.-.-.-.-.-.-.-.-.-.-.",
"-.-.-.      3 _ _ _ _ _ _ _ _ _ T 2 o . X & w ( _ _ _ _ _ _ ~ O t %.=.=.=.=.@.> 3 _ _ _ _ _ _ 3         -.-.-.-.-.-.-.-.-.-.-.-.",
"-.-.-.      4 _ _ _ _ _ _ _ _ _ _ ) ! D Y / ) _ _ _ _ _ _ _ A . O.=.=.$.=.=.%.r = ^ _ _ _ _ _ ) &       -.-.-.-.-.-.-.-.-.-.-.-.",
"-.-.-.      4 _ _ _ _ _ _ _ _ _ _ _ _ _ _ _ _ _ _ _ _ _ _ _ N . +.=.$.  $.=.%.t * ^ _ _ _ _ _ _ A         -.-.-.-.-.-.-.-.-.-.-.",
"-.-.-.      2 _ _ _ _ _ _ _ _ _ _ _ _ _ _ _ _ _ _ _ _ _ _ _ ! O u *.=.$.=.=.#., 1 _ _ _ _ _ _ _ _ 1       -.-.-.-.-.-.-.-.-.-.-.",
"-.-.-.      : _ _ _ _ _ _ _ _ _ _ _ _ _ _ _ _ _ _ _ _ _ _ _ ) 3 % O.*.*.=.$.u + v _ _ _ _ _ _ _ _ E X       -.-.-.-.-.-.-.-.-.-.",
"-.-.-.      @ _ _ _ _ _ _ _ _ _ _ _ _ _ _ _ _ _ _ _ _ _ _ _ _ R ; > u +.o.e + 9 _ _ _ _ _ _ _ _ _ _ 8       -.-.-.-.-.-.-.-.-.-.",
"-.-.-.-.    X ) _ _ _ _ _ _ _ _ _ _ _ _ _ _ _ _ _ _ _ _ _ _ _ _ Q 6 @ X X = s ) _ _ _ _ _ _ _ _ _ _ ( o       -.-.-.-.-.-.-.-.-.",
"-.-.-.-.    . Y _ _ _ _ _ _ _ _ _ _ _ _ _ _ _ _ _ _ _ _ _ _ _ _ _ _ ^ T E ( _ _ _ _ _ _ _ _ _ _ _ _ _ 7       -.-.-.-.-.-.-.-.-.",
"-.-.-.-.      s _ _ _ _ _ _ _ _ _ _ _ _ _ _ _ _ _ _ _ _ _ _ _ _ _ _ _ _ _ _ _ _ _ _ _ _ _ _ _ _ _ _ _ ! X       -.-.-.-.-.-.-.-.",
"-.-.-.-.      0 _ _ _ _ _ _ _ _ _ _ _ _ _ _ _ _ _ _ _ ! Q ! E ! ( _ _ _ _ _ _ _ _ _ _ _ _ _ _ _ _ _ _ _ :       -.-.-.-.-.-.-.-.",
"-.-.-.-.      0 _ _ _ _ _ _ _ _ _ _ _ _ _ _ _ _ _ ( R N z s x N Z ! ) _ _ _ _ _ _ _ _ _ _ _ _ _ _ _ _ _ N       -.-.-.-.-.-.-.-.",
"-.-.-.-.      9 _ _ _ _ _ _ _ _ _ _ _ _ _ _ _ _ ( Y h c ' { ] P B N ) _ _ _ _ _ _ _ _ _ _ _ _ _ _ _ _ _ ( O       -.-.-.-.-.-.-.",
"-.-.-.-.      q _ _ _ _ _ _ _ _ _ _ _ _ _ _ _ ( D j l F [ X.X.| P g / _ _ _ _ _ _ _ _ _ _ _ _ _ _ _ _ _ _ :       -.-.-.-.-.-.-.",
"-.-.-.-.      s _ _ _ _ _ _ _ _ _ _ _ _ _ _ ) T k K ] I K { X.X.P n ~ _ _ _ _ _ _ _ _ _ _ _ _ _ _ _ _ _ _ s       -.-.-.-.-.-.-.",
"-.-.-.-.      Y _ _ _ _ _ _ _ _ _ _ _ _ _ _ ( N K { X.X. ...X.} K N / _ _ _ _ _ _ _ _ _ _ _ _ _ _ _ _ _ _ ~ X       -.-.-.-.-.-.",
"-.-.-.-.    X ( _ _ _ _ _ _ _ _ _ _ _ _ _ _ ~ j P ..X.X.X.X.X.{ G N ) _ _ _ _ _ _ _ _ _ _ _ _ _ _ _ _ _ _ _ =       -.-.-.-.-.-.",
"-.-.-.      * _ _ _ _ _ _ _ _ _ _ _ _ _ _ _ ^ N H ..X.X. .[ { | P g ! _ _ _ _ _ _ _ _ _ _ _ _ _ _ _ _ _ _ _ 7       -.-.-.-.-.-.",
"-.-.-.      2 _ _ _ _ _ _ _ _ _ _ _ _ _ _ _ ( D k G I W G C L ' [ z g ! _ _ _ _ _ _ _ _ _ _ _ _ _ _ _ _ _ _ Y .     -.-.-.-.-.-.",
"-.-.-.      p _ _ _ _ _ _ _ _ _ _ _ _ _ _ _ _ ^ D N f f N A j F { [ B N ^ _ _ _ _ _ _ _ _ _ _ _ _ _ _ _ _ _ ) @       -.-.-.-.-.",
"-.-.-.    . ! _ _ _ _ _ _ _ _ _ _ _ _ _ _ _ _ _ ) / / / / ) T f ` ..` x A / _ _ _ _ _ _ _ _ _ _ _ _ _ _ _ _ _ :       -.-.-.-.-.",
"-.-.      * _ _ _ _ _ _ _ _ _ _ _ _ _ _ _ _ _ _ _ _ _ _ _ _ ) A x {  .P l Z ^ _ _ ) ) _ _ _ _ _ _ _ _ _ _ _ _ 9       -.-.-.-.-.",
"-.-.      6 _ _ _ _ _ _ _ _ _ _ _ _ _ _ _ _ _ _ _ _ _ _ _ _ _ ! j L | { I x Z E T D Y ~ ) _ _ _ _ _ _ _ _ _ _ A .     -.-.-.-.-.",
"-.-.      N _ _ _ _ _ _ _ _ _ _ _ _ _ _ _ _ _ _ _ _ _ _ _ _ _ _ D x ' X.| ` B l x M M b ^ _ _ _ _ _ _ _ _ _ _ / X     -.-.-.-.-.",
"-.-.    X ( _ _ _ _ _ _ _ _ _ _ _ _ _ _ _ _ _ _ _ _ _ _ _ _ _ _ ^ N F { X.| [ ' ] [ ` x Y _ _ _ _ _ _ _ _ _ _ _ @       -.-.-.-.",
"-.      * _ _ _ _ _ _ _ _ _ _ _ _ _ _ _ _ _ _ _ _ _ _ _ _ _ _ _ _ E n I ..X.X.X.X.X.{ B D _ _ _ _ _ _ _ _ _ _ _ &       -.-.-.-.",
"-.      : _ _ _ _ _ _ _ _ _ _ _ _ _ _ _ _ _ _ _ _ _ _ _ _ _ _ _ _ ^ n I ..{ ] | X.X.{ F T _ _ _ _ _ _ _ _ _ _ _ @       -.-.-.-.",
"-.      3 _ _ _ _ _ _ _ _ _ _ _ _ _ _ _ _ _ _ _ _ _ _ _ _ _ _ _ _ ! j ` ..] F ` ..} W V R _ _ _ _ _ _ _ _ _ _ / .       -.-.-.-.",
"-.      4 _ _ _ _ _ _ _ _ _ _ _ _ _ _ _ _ _ _ _ _ _ _ _ _ _ _ _ _ R k ' X.{ z z I H M A ~ ) _ _ _ _ _ _ _ _ ) 1       -.-.-.-.-.",
"-.      : _ _ _ _ _ _ _ _ _ _ _ _ _ _ _ _ _ _ _ _ _ _ _ _ _ _ _ _ E k K ] I h b S N A ~ ) _ _ _ _ _ _ _ _ _ 7         -.-.-.-.-.",
"-.      X ~ _ _ _ _ _ _ _ _ _ _ _ _ _ _ _ _ _ _ _ _ _ _ _ _ _ _ _ / D j x h D ^ ^ ^ ) _ _ _ _ _ _ _ _ _ ) 6         -.-.-.-.-.-.",
"-.-.      ; / _ _ _ _ _ _ _ _ _ _ _ _ _ _ _ _ _ _ _ _ _ _ _ _ _ _ _ / R D E ) _ _ _ _ _ _ _ _ _ _ _ _ ~ :         -.-.-.-.-.-.-.",
"-.-.        = Q _ _ _ _ _ _ _ _ _ _ _ _ _ _ _ _ _ _ _ _ _ _ _ _ _ _ _ ) _ _ _ _ _ _ _ _ _ _ _ _ _ ^ 7 .         -.-.-.-.-.-.-.-.",
"-.-.-.        . = 5 N / _ _ _ _ _ _ _ _ _ _ _ _ _ _ _ _ _ _ _ _ _ _ _ _ _ _ _ _ _ _ _ _ _ _ ~ d ; .           -.-.-.-.-.-.-.-.-.",
"-.-.-.-.              . . X X O @ & & & & * : d N g s p s b A Q ) ! ) _ _ _ _ _ ) ! A q : @ .               -.-.-.-.-.-.-.-.-.-.",
"-.-.-.-.-.                                                      X . . . . . . . . . .                   -.-.-.-.-.-.-.-.-.-.-.-.",
"-.-.-.-.-.-.-.                                                                                      -.-.-.-.-.-.-.-.-.-.-.-.-.-.",
"-.-.-.-.-.-.-.-.-.-.-.-.-.-.-.-.                                                            -.-.-.-.-.-.-.-.-.-.-.-.-.-.-.-.-.-."
};
