/* XPM */
static char *result[] = {
/* columns rows colors chars-per-pixel */
"64 64 96 2 ",
"   c #000000",
".  c #000609",
"X  c #00090C",
"o  c #010D12",
"O  c #021115",
"+  c #0D1112",
"@  c #00141B",
"#  c #0E1618",
"$  c #141616",
"%  c #141718",
"&  c #001B24",
"*  c #001E28",
"=  c #00212C",
"-  c #1F2121",
";  c #002633",
":  c #002D3C",
">  c #222323",
",  c #2B2C2C",
"<  c #3F3F3F",
"1  c #002F40",
"2  c #003243",
"3  c #00374A",
"4  c #00394D",
"5  c #003D51",
"6  c #004157",
"7  c #00445B",
"8  c #004C65",
"9  c #004F69",
"0  c #00516D",
"q  c #005470",
"w  c #005876",
"e  c #005B7A",
"r  c #4B4B4B",
"t  c #535353",
"y  c gray35",
"u  c gray39",
"i  c gray42",
"p  c #797979",
"a  c #026485",
"s  c #006789",
"d  c #02698C",
"f  c #0B6C8D",
"g  c #016E92",
"h  c #007197",
"j  c #0B7294",
"k  c #01759B",
"l  c #0A7A9F",
"z  c #147595",
"x  c #13799B",
"c  c #1E7E9E",
"v  c #007AA3",
"b  c #007EA9",
"n  c #177EA1",
"m  c #1B7EA0",
"M  c #0081AD",
"N  c #0086B3",
"B  c #0089B7",
"V  c #008CBB",
"C  c #2686A6",
"Z  c #2C8CAC",
"A  c #3393B3",
"S  c #3B9BBB",
"D  c #008FC0",
"F  c #0093C4",
"G  c #0993C2",
"H  c #0096C9",
"J  c #009ACE",
"K  c #009DD2",
"L  c #00A0D6",
"P  c #00A4DB",
"I  c #04A8DF",
"U  c #00ABE4",
"Y  c #00AEE9",
"T  c #00B1EC",
"R  c #00B6F4",
"E  c #00B9F7",
"W  c #00BFFF",
"Q  c #42A2C2",
"!  c #4BABCB",
"~  c #54B4D4",
"^  c #5BBBDB",
"/  c #63C3E3",
"(  c #6DCDED",
")  c #74D4F5",
"_  c #7EDDFE",
"`  c #939393",
"'  c #9A9A9A",
"]  c gray64",
"[  c #BDBDBD",
"{  c gray80",
"}  c #D9D9D9",
"|  c #E4E4E4",
" . c #EAEAEA",
".. c #F3F3F3",
"X. c #FDFDFD",
"o. c None",
/* pixels */
"o.o.o.o.o.o.o.o.o.o.o.o.o.o.o.o.o.o.o.o.o.o.o.o.o.o.o.o.o.o.o.o.o.o.o.o.o.o.o.o.o.o.o.o.o.o.o.o.o.o.o.o.o.o.o.o.o.o.o.o.o.o.o.o.",
"o.o.o.o.o.o.o.o.o.o.o.o.o.o.o.o.o.o.o.o.o.o.o.o.o.o.o.o.o.o.o.o.o.o.o.o.o.o.o.o.o.o.o.o.o.o.o.o.o.o.o.o.o.o.o.o.o.o.o.o.o.o.o.o.",
"o.o.o.o.o.o.o.o.o.o.o.o.o.o.o.o.o.o.o.o.o.o.o.o.o.o.o.o.o.o.o.o.o.o.o.o.o.o.o.o.o.o.o.o.o.o.o.o.o.o.o.o.o.o.o.o.o.o.o.o.o.o.o.o.",
"o.o.o.o.o.o.o.o.o.o.o.o.o.o.o.o.o.o.o.o.o.o.o.o.o.o.o.o.o.o.o.o.o.o.o.o.o.o.o.o.o.o.o.o.o.o.o.o.o.o.o.o.o.o.o.o.o.o.o.o.o.o.o.o.",
"o.o.o.o.o.o.o.o.o.o.o.o.o.o.o.o.o.o.o.o.o.o.o.o.o.o.o.o.o.o.o.o.o.o.o.o.o.o.o.o.o.o.o.o.o.o.o.o.o.o.o.o.o.o.o.o.o.o.o.o.o.o.o.o.",
"o.o.o.o.o.o.o.o.o.o.o.o.o.o.o.o.o.o.o.o.o.o.o.                    o.o.o.o.o.o.o.o.o.o.o.o.o.o.o.o.o.o.o.o.o.o.o.o.o.o.o.o.o.o.o.",
"o.o.o.o.o.o.o.o.o.o.o.o.o.o.o.o.o.o.o.                                    o.o.o.o.o.o.o.o.o.o.o.o.o.o.o.o.o.o.o.o.o.o.o.o.o.o.o.",
"o.o.o.o.o.o.o.o.o.o.o.o.o.o.o.o.                                              o.o.o.o.o.o.o.o.o.o.o.o.o.o.o.o.o.o.o.o.o.o.o.o.o.",
"o.o.o.o.o.o.o.o.o.o.o.o.o.o.                X & : 6 0 0 e d 0 : & o .           o.o.o.o.o.o.o.o.o.o.o.o.o.o.o.o.o.o.o.o.o.o.o.o.",
"o.o.o.o.o.o.o.o.o.o.o.o.            . O 2 d U W W W W W W W W W W E U a .         o.o.o.o.o.o.o.o.o.o.o.o.o.o.o.o.o.o.o.o.o.o.o.",
"o.o.o.o.o.o.o.o.o.o.            . 2 B W W W W W W W W W W W W W W W W W R 2         o.o.o.o.o.o.o.o.o.o.o.o.o.o.o.o.o.o.o.o.o.o.",
"o.o.o.o.o.o.o.o.o.          X 7 I W W W W W W W W W W W W W W W W W W W W E 5         o.o.o.o.o.o.o.o.o.o.o.o.o.o.o.o.o.o.o.o.o.",
"o.o.o.o.o.o.o.o.          2 L W W W W W W W W W W W W W W W W W W W W W W W E 2         o.o.o.o.o.o.o.o.o.o.o.o.o.o.o.o.o.o.o.o.",
"o.o.o.o.o.o.o.o.      . v W W W W W W W W W W W W W W W W W W W W W W W W W W T =       o.o.o.o.o.o.o.o.o.o.o.o.o.o.o.o.o.o.o.o.",
"o.o.o.o.o.o.o.      . v W W W W W W W W W W W W W W W W W W W W W W W W W W W W B X       o.o.o.o.o.o.o.o.o.o.o.o.o.o.o.o.o.o.o.",
"o.o.o.o.o.o.        a W W W W W W W W W W W W W W W W W W W W W W W W W W W W W W 7 o       o.o.o.o.o.o.o.o.o.o.o.o.o.o.o.o.o.o.",
"o.o.o.o.o.o.      = W W W W W W W W W W W W W W W W W W W W W W W W W W W W W W W U ;       o.o.o.o.o.o.o.o.o.o.o.o.o.o.o.o.o.o.",
"o.o.o.o.o.      . K W W W W W W W R P U W W W W W W W W W W W W W W W W W W W W W W h ;       o.o.o.o.o.o.o.o.o.o.o.o.o.o.o.o.o.",
"o.o.o.o.o.      3 W W W W W W Y e ; & & 3 M E W W W W W W W W W W W W W W W W W W W E 8 O       o.o.o.o.o.o.o.o.o.o.o.o.o.o.o.o.",
"o.o.o.o.o.    . H W W W W W U 3 + < i u , O s W W W W W W W W W W W W W W W W W W W W Y 3       o.o.o.o.o.o.o.o.o.o.o.o.o.o.o.o.",
"o.o.o.o.      * W W W W W W 7 % p }  .| [ r O N W W W W W W W W W W W W W W W W W W o.W F @       o.o.o.o.o.o.o.o.o.o.o.o.o.o.o.",
"o.o.o.o.      w W W W W W U @ y | X.X.X.X.[ > 6 W W W W W W W W W W W W W W W W W W W W W e .     o.o.o.o.o.o.o.o.o.o.o.o.o.o.o.",
"o.o.o.o.    . H W W W W W B . ' X.X.} X.X.| t = T W W W W W W W W W W W W W W W W W W Y W T 2       o.o.o.o.o.o.o.o.o.o.o.o.o.o.",
"o.o.o.      o E W W W W W N . ] X.}   } X.| y * Y W W W W W W W W W W W W W W W W W W U E W F O     o.o.o.o.o.o.o.o.o.o.o.o.o.o.",
"o.o.o.      = W W W W W W L o i ..X.} X.X.{ , 2 E W W W W W W W W E P U E W W W W W W W R o.E 6     o.o.o.o.o.o.o.o.o.o.o.o.o.o.",
"o.o.o.      : W W W W W W R 2 - '  ...X.} i + h W W W W W W W U 0 * O @ : k E W W W W W W W W M .     o.o.o.o.o.o.o.o.o.o.o.o.o.",
"o.o.o.      2 W W W W W W W F * % i ] ` r + 7 E W W W W W W L : + < i u , O e E W W W W W W W Y @     o.o.o.o.o.o.o.o.o.o.o.o.o.",
"o.o.o.      4 W W W W W W W W H 4 O . X & e R W W W W W W E 7 $ p }  .| [ r O M W W W W W W W E :       o.o.o.o.o.o.o.o.o.o.o.o.",
"o.o.o.      5 W W W W W W W W W W I B F Y E W W W W W W W U O y | X.X.X.X.[ > 4 E W W W W W W W e       o.o.o.o.o.o.o.o.o.o.o.o.",
"o.o.o.      5 W W W W W W W W W W W W W W W W W W W W W W B . ' X.X.} X.X.| t = T W W W W W W W T .       o.o.o.o.o.o.o.o.o.o.o.",
"o.o.o.      3 W W W W W W W W W W W W W W W W W W W W W W M . ] X.}   } X.| y = T W W W W W W W W :       o.o.o.o.o.o.o.o.o.o.o.",
"o.o.o.      : W W W W W W W W W W W W W W W W W W W W W W P O i ..X.} X.X.{ , 2 E W W W W W W W W K         o.o.o.o.o.o.o.o.o.o.",
"o.o.o.      & W W W W W W W W W W W W W W W W W W W W W W E 4 - '  .X...} i O k W W W W W W W W W W :       o.o.o.o.o.o.o.o.o.o.",
"o.o.o.o.    . T W W W W W W W W W W W W W W W W W W W W W W J ; - i ] ` r # 8 W W W W W W W W W W W T X       o.o.o.o.o.o.o.o.o.",
"o.o.o.o.    . F W W W W W W W W W W W W W W W W W W W W W W W L 6 @ X o = d E W W W W W W W W W W W W 9       o.o.o.o.o.o.o.o.o.",
"o.o.o.o.    . d W W W W W W W W W W W W W W W W W W W W W W W W W W W W W W W W W W W W W W W W W W W P .       o.o.o.o.o.o.o.o.",
"o.o.o.o.      q W W W W W W W W W W W W W W W W W W W W W W W W W W W W W W W W W W W W W W W W W W W W :       o.o.o.o.o.o.o.o.",
"o.o.o.o.      0 W W W W W W W W W W W W W W W W W W W W W W W W W W W W W W W W W W W W W W W W W W W W v .     o.o.o.o.o.o.o.o.",
"o.o.o.o.    . q W W W W W W W W W W W W W W W W W W W Y K H K Y W W W W W W W W W W W W W W W W W W W W R O       o.o.o.o.o.o.o.",
"o.o.o.o.      w W W W W W W W W W W W W W W W W W W L M j f f k Y W W W W W W W W W W W W W W W W W W W W :       o.o.o.o.o.o.o.",
"o.o.o.o.      d W W W W W W W W W W W W W W W W W V j C ~ ( ~ z B R W W W W W W W W W W W W W W W W W W W d       o.o.o.o.o.o.o.",
"o.o.o.o.      F W W W W W W W W W W W W W W W W I d A ( _ _ _ Q k U W W W W W W W W W W W W W W W W W W W U .       o.o.o.o.o.o.",
"o.o.o.o.    X R W W W W W W W W W W W W W W W W K f Z ~ / _ _ ~ d I W W W W W W W W W W W W W W W W W W W W =       o.o.o.o.o.o.",
"o.o.o.      & W W W W W W W W W W W W W W W W W N d C A ~ _ _ ( z g G L W W W W W W E P J Y E W W W W W W W 9       o.o.o.o.o.o.",
"o.o.o.      2 W W W W W W W W W W W W W W W W Y d Q _ _ ) _ _ _ / A f f k V U E W W H k j d B W W W W W W W F       o.o.o.o.o.o.",
"o.o.o.      s W W W W W W W W W W W W W W W W V j / _ _ _ _ ~ Q ! ( ) Q Z f s b B M f A ^ S a P W W W W W W E @       o.o.o.o.o.",
"o.o.o.    . L W W W W W W W W W W W W W W W W H C ~ _ _ ) S a h f C ^ _ _ / Q C C c S ) _ ) C B E W W W W W W :       o.o.o.o.o.",
"o.o.      * W W W W W W W W W W W W W W W W W Y k C ) / S f B W H h a S / _ _ ) / ( _ _ _ _ S k E W W W W W W 0       o.o.o.o.o.",
"o.o.      7 W W W W W W W W W W W W W W W W W W H d f f h V E W W R V g x A / _ _ _ ) _ _ _ A h W W W W W W W B .     o.o.o.o.o.",
"o.o.      M W W W W W W W W W W W W W W W W W W W P H H U W W W W W W T N g f ~ _ ^ z S ^ S a B W W W W W W W T X     o.o.o.o.o.",
"o.o.    X R W W W W W W W W W W W W W W W W W W W W W W W W W W W W W W W U k C _ ) S f x l N R W W W W W W W W @       o.o.o.o.",
"o.      * W W W W W W W W W W W W W W W W W W W W W W W W W W W W W W W W W V c / _ ^ x M U W W W W W W W W W W &       o.o.o.o.",
"o.      : W W W W W W W W W W W W W W W W W W W W W W W W W W W W W W W W W L l A ) ! d K W W W W W W W W W W W O       o.o.o.o.",
"o.      4 W W W W W W W W W W W W W W W W W W W W W W W W W W W W W W W W W E B f c f k E W W W W W W W W W W Y .       o.o.o.o.",
"o.      5 W W W W W W W W W W W W W W W W W W W W W W W W W W W W W W W W W W W V b D R W W W W W W W W W W E 2       o.o.o.o.o.",
"o.      : W W W W W W W W W W W W W W W W W W W W W W W W W W W W W W W W W W W W R E W W W W W W W W W W W 8         o.o.o.o.o.",
"o.      X U W W W W W W W W W W W W W W W W W W W W W W W W W W W W W W W W W W W W W W W W W W W W W W E 7         o.o.o.o.o.o.",
"o.o.      ; T W W W W W W W W W W W W W W W W W W W W W W W W W W W W W W W W W W W W W W W W W W W W U :         o.o.o.o.o.o.o.",
"o.o.        = L W W W W W W W W W W W W W W W W W W W W W W W W W W W W W W W W W W W W W W W W W U 8 .         o.o.o.o.o.o.o.o.",
"o.o.o.        . = 6 M T W W W W W W W W W W W W W W W W W W W W W W W W W W W W W W W W W W U g ; .           o.o.o.o.o.o.o.o.o.",
"o.o.o.o.              . . . X O @ & & & & * : g M k d a d b N L E U E W W W W W W P B w : @ .               o.o.o.o.o.o.o.o.o.o.",
"o.o.o.o.o.                                                      . .   . . . . . .   .                   o.o.o.o.o.o.o.o.o.o.o.o.",
"o.o.o.o.o.o.o.                                                                                      o.o.o.o.o.o.o.o.o.o.o.o.o.o.",
"o.o.o.o.o.o.o.o.o.o.o.o.o.o.o.o.                                                            o.o.o.o.o.o.o.o.o.o.o.o.o.o.o.o.o.o."
};
