/* XPM */
static char *result[] = {
/* columns rows colors chars-per-pixel */
"64 64 101 2 ",
"   c #000000",
".  c #000709",
"X  c #00090C",
"o  c #010D12",
"O  c #031115",
"+  c #0D1112",
"@  c #00141B",
"#  c #0E1618",
"$  c #141616",
"%  c #141718",
"&  c #001B24",
"*  c #001E28",
"=  c #00222D",
"-  c #1F2121",
";  c #002532",
":  c #002836",
">  c #002D3C",
",  c #222323",
"<  c #2B2C2C",
"1  c #3F3F3F",
"2  c #003243",
"3  c #00374A",
"4  c #00394D",
"5  c #003E52",
"6  c #004156",
"7  c #00445B",
"8  c #004B65",
"9  c #004F69",
"0  c #00526D",
"q  c #005572",
"w  c #005876",
"e  c #005C7B",
"r  c #4B4B4B",
"t  c #535353",
"y  c gray35",
"u  c gray39",
"i  c gray42",
"p  c #797979",
"a  c #006283",
"s  c #006789",
"d  c #02698C",
"f  c #0B6B8C",
"g  c #006E93",
"h  c #017096",
"j  c #0D7395",
"k  c #01749B",
"l  c #0B769A",
"z  c #0A799E",
"x  c #137494",
"c  c #157B9C",
"v  c #1B7C9C",
"b  c #027BA4",
"n  c #0B7DA4",
"m  c #017FA9",
"M  c #117EA4",
"N  c #0082AD",
"B  c #0B82AB",
"V  c #1A81A4",
"C  c #0086B4",
"Z  c #0189B7",
"A  c #008CBB",
"S  c #2383A4",
"D  c #2687A8",
"F  c #2C8DAD",
"G  c #3293B3",
"H  c #3B9BBB",
"J  c #008FC0",
"K  c #0092C3",
"L  c #0096C9",
"P  c #009ACE",
"I  c #009DD2",
"U  c #00A0D6",
"Y  c #00A3DA",
"T  c #3FA0C0",
"R  c #00AAE4",
"E  c #00AEE9",
"W  c #00B1ED",
"Q  c #00B6F3",
"!  c #00B9F7",
"~  c #00BFFF",
"^  c #44A4C4",
"/  c #4BABCB",
"(  c #52B2D2",
")  c #5DBDDD",
"_  c #60BFE0",
"`  c #63C3E4",
"'  c #6BCAEB",
"]  c #70CFF0",
"[  c #73D3F3",
"{  c #7DDDFE",
"}  c #939393",
"|  c #9A9A9A",
" . c gray64",
".. c #BDBDBD",
"X. c gray80",
"o. c #D9D9D9",
"O. c #E4E4E4",
"+. c #EAEAEA",
"@. c #F3F3F3",
"#. c #FDFDFD",
"$. c None",
/* pixels */
"$.$.$.$.$.$.$.$.$.$.$.$.$.$.$.$.$.$.$.$.$.$.$.$.$.$.$.$.$.$.$.$.$.$.$.$.$.$.$.$.$.$.$.$.$.$.$.$.$.$.$.$.$.$.$.$.$.$.$.$.$.$.$.$.",
"$.$.$.$.$.$.$.$.$.$.$.$.$.$.$.$.$.$.$.$.$.$.$.$.$.$.$.$.$.$.$.$.$.$.$.$.$.$.$.$.$.$.$.$.$.$.$.$.$.$.$.$.$.$.$.$.$.$.$.$.$.$.$.$.",
"$.$.$.$.$.$.$.$.$.$.$.$.$.$.$.$.$.$.$.$.$.$.$.$.$.$.$.$.$.$.$.$.$.$.$.$.$.$.$.$.$.$.$.$.$.$.$.$.$.$.$.$.$.$.$.$.$.$.$.$.$.$.$.$.",
"$.$.$.$.$.$.$.$.$.$.$.$.$.$.$.$.$.$.$.$.$.$.$.$.$.$.$.$.$.$.$.$.$.$.$.$.$.$.$.$.$.$.$.$.$.$.$.$.$.$.$.$.$.$.$.$.$.$.$.$.$.$.$.$.",
"$.$.$.$.$.$.$.$.$.$.$.$.$.$.$.$.$.$.$.$.$.$.$.$.$.$.$.$.$.$.$.$.$.$.$.$.$.$.$.$.$.$.$.$.$.$.$.$.$.$.$.$.$.$.$.$.$.$.$.$.$.$.$.$.",
"$.$.$.$.$.$.$.$.$.$.$.$.$.$.$.$.$.$.$.$.$.$.$.$.$.$.$.$.$.$.$.$.$.$.$.$.$.$.$.$.$.$.$.$.$.$.$.$.$.$.$.$.$.$.$.$.$.$.$.$.$.$.$.$.",
"$.$.$.$.$.$.$.$.$.$.$.$.$.$.$.$.$.$.$.$.$.$.$.$.$.$.$.$.$.$.$.$.$.$.$.$.$.$.$.$.$.$.$.$.$.$.$.$.$.$.$.$.$.$.$.$.$.$.$.$.$.$.$.$.",
"$.$.$.$.$.$.$.$.$.$.$.$.$.$.$.$.$.$.$.$.$.$.$.$.$.$.$.$.$.$.$.$.$.$.$.$.$.$.$.$.$.$.$.$.$.$.$.$.$.$.$.$.$.$.$.$.$.$.$.$.$.$.$.$.",
"$.$.$.$.$.$.$.$.$.$.$.$.$.$.$.$.$.$.$.$.$.$.$.$.$.$.$.$.$.$.$.$.$.$.$.$.$.$.$.$.$.$.$.$.$.$.$.$.$.$.$.$.$.$.$.$.$.$.$.$.$.$.$.$.",
"$.$.$.$.$.$.$.$.$.$.$.$.$.$.$.$.$.$.$.$.                        $.$.$.$.$.$.$.$.$.$.$.$.$.$.$.$.$.$.$.$.$.$.$.$.$.$.$.$.$.$.$.$.",
"$.$.$.$.$.$.$.$.$.$.$.$.$.$.$.$.$.                                    $.$.$.$.$.$.$.$.$.$.$.$.$.$.$.$.$.$.$.$.$.$.$.$.$.$.$.$.$.",
"$.$.$.$.$.$.$.$.$.$.$.$.$.$.                                                $.$.$.$.$.$.$.$.$.$.$.$.$.$.$.$.$.$.$.$.$.$.$.$.$.$.",
"$.$.$.$.$.$.$.$.$.$.$.$.                X & 2 6 8 q e e q 6 = O               $.$.$.$.$.$.$.$.$.$.$.$.$.$.$.$.$.$.$.$.$.$.$.$.$.",
"$.$.$.$.$.$.$.$.$.$.$.            @ 9 C E ~ ~ ~ ~ ~ ~ ~ ~ ~ ~ Y Z a ;           $.$.$.$.$.$.$.$.$.$.$.$.$.$.$.$.$.$.$.$.$.$.$.$.",
"$.$.$.$.$.$.$.$.$.          o 2 A ~ ~ ~ ~ ~ ~ ~ ~ ~ ~ ~ ~ ~ ~ ~ ~ ~ ~ C @         $.$.$.$.$.$.$.$.$.$.$.$.$.$.$.$.$.$.$.$.$.$.$.",
"$.$.$.$.$.$.$.$.        . 4 I ~ ~ ~ ~ ~ ~ ~ ~ ~ ~ ~ ~ ~ ~ ~ ~ ~ ~ ~ ~ ~ Y =         $.$.$.$.$.$.$.$.$.$.$.$.$.$.$.$.$.$.$.$.$.$.",
"$.$.$.$.$.$.$.        @ h ! ~ ~ ~ ~ ~ ~ ~ ~ ~ ~ ~ ~ ~ ~ ~ ~ ~ ~ ~ ~ ~ ~ ~ Q 7         $.$.$.$.$.$.$.$.$.$.$.$.$.$.$.$.$.$.$.$.$.",
"$.$.$.$.$.$.      . ; L ~ ~ ~ ~ ~ ~ ~ ~ ~ ~ ~ ~ ~ ~ ~ ~ ~ ~ ~ ~ ~ ~ ~ ~ ~ ~ Q &         $.$.$.$.$.$.$.$.$.$.$.$.$.$.$.$.$.$.$.$.",
"$.$.$.$.$.        > R ~ ~ ~ ~ ~ ~ ~ ~ ~ ~ ~ ~ ~ ~ ~ ~ ~ ~ ~ ~ ~ ~ ~ ~ ~ ~ ~ ~ I .       $.$.$.$.$.$.$.$.$.$.$.$.$.$.$.$.$.$.$.$.",
"$.$.$.$.$.      = R ~ ~ ~ ~ ~ ~ ~ ~ ~ ~ ~ ~ ~ ~ ~ ~ ~ ~ ~ ~ ~ ~ ~ ~ ~ ~ ~ ~ ~ ~ w         $.$.$.$.$.$.$.$.$.$.$.$.$.$.$.$.$.$.$.",
"$.$.$.$.      . R ~ ~ ~ ~ ~ ~ ~ ~ ~ ~ ~ ~ ~ ~ ~ ~ ~ ~ ~ ~ ~ ~ ~ ~ ~ ~ ~ ~ ~ ~ ~ Q ;         $.$.$.$.$.$.$.$.$.$.$.$.$.$.$.$.$.$.",
"$.$.$.$.      6 ~ ~ ~ ~ ~ ~ ~ ~ ~ ~ ~ ~ ~ ~ ~ ~ ~ ~ ~ ~ ~ ~ ~ ~ ~ ~ ~ ~ ~ ~ ~ ~ ~ Y @         $.$.$.$.$.$.$.$.$.$.$.$.$.$.$.$.$.",
"$.$.$.$.      K ~ ~ ~ ~ ~ ~ ~ ~ ~ ~ ! Y R ~ ~ ~ ~ ~ ~ ~ ~ ~ ~ ~ ~ ~ ! Y R ! ~ ~ ~ ~ I X         $.$.$.$.$.$.$.$.$.$.$.$.$.$.$.$.",
"$.$.$.      o ! ~ ~ ~ ~ ~ ~ ~ ~ W e ; @ & 3 N ~ ~ ~ ~ ~ ~ ~ ~ ~ R 0 & O @ > k ! ~ ~ ~ m .         $.$.$.$.$.$.$.$.$.$.$.$.$.$.$.",
"$.$.$.      = ~ ~ ~ ~ ~ ~ ~ ~ R 3 + 1 i u < O s ~ ~ ~ ~ ~ ~ ~ I > + 1 i u < O w ~ ~ ~ ~ A X         $.$.$.$.$.$.$.$.$.$.$.$.$.$.",
"$.$.$.      : ~ ~ ~ ~ ~ ~ ~ ~ 7 % p o.+.O...r O C ~ ~ ~ ~ ~ ~ 6 $ p o.+.+...r O N ~ ~ ~ ~ b .         $.$.$.$.$.$.$.$.$.$.$.$.$.",
"$.$.$.      2 ~ ~ ~ ~ ~ ~ ~ R @ y O.#.#.#.#..., 6 ~ ~ ~ ~ ~ R @ y O.#.#.#.#..., 4 ~ ~ ~ ~ ~ d         $.$.$.$.$.$.$.$.$.$.$.$.$.",
"$.$.$.      4 ~ ~ ~ ~ ~ ~ ~ Z . | #.#.o.#.#.O.y = W ~ ~ ~ ~ C   | #.#.o.#.#.O.t = E ~ ~ ~ ~ ~ 3         $.$.$.$.$.$.$.$.$.$.$.$.",
"$.$.$.      : ~ ~ ~ ~ ~ ~ ~ N .  .#.o.  o.#.O.y & E ~ ~ ~ ~ C .  .#.o.  o.#.O.y = E ~ ~ ~ ~ ~ ! &       $.$.$.$.$.$.$.$.$.$.$.$.",
"$.$.$.      : ~ ~ ~ ~ ~ ~ ~ U o i @.#.o.#.#.X.< 2 ! ~ ~ ~ ~ Y O i @.#.o.#.#.X.< 2 ~ ~ ~ ~ ~ ~ ~ A         $.$.$.$.$.$.$.$.$.$.$.",
"$.$.$.      > ~ ~ ~ ~ ~ ~ ~ ! 2 % | @.#.@.o.i o h ~ ~ ~ ~ ~ ! 4 - | @.@.@.o.i + k ~ ~ ~ ~ ~ ~ ~ ~ 2       $.$.$.$.$.$.$.$.$.$.$.",
"$.$.$.      ; ~ ~ ~ ~ ~ ~ ~ ~ K = , u  .} r $ 7 ! ~ ~ ~ ~ ~ ~ P = - i  .} r # 0 ~ ~ ~ ~ ~ ~ ~ ~ ~ I X       $.$.$.$.$.$.$.$.$.$.",
"$.$.$.      & ~ ~ ~ ~ ~ ~ ~ ~ ~ L 3 O . X @ e Q ~ ~ ~ ~ ~ ~ ~ ~ U 7 @ X o = s ! ~ ~ ~ ~ ~ ~ ~ ~ ~ ~ 9       $.$.$.$.$.$.$.$.$.$.",
"$.$.$.      @ ~ ~ ~ ~ ~ ~ ~ ~ ~ ~ ~ Y A K E ~ ~ ~ ~ ~ ~ ~ ~ ~ ~ ~ ~ E L I ! ~ ~ ~ ~ ~ ~ ~ ~ ~ ~ ~ ~ Q X       $.$.$.$.$.$.$.$.$.",
"$.$.        6 ~ ~ ~ ~ ~ ~ ~ ~ ~ ~ ~ ~ ~ ~ ~ ~ ~ ~ ~ ~ ~ ~ ~ ~ ~ ~ ~ ~ ~ ~ ~ ~ ~ ~ ~ ~ ~ ~ ~ ~ ~ ~ ~ ~ 9       $.$.$.$.$.$.$.$.$.",
"$.$.      . N ~ ~ ~ ~ ~ ~ ~ ~ ~ ~ ~ ~ ~ ~ ~ ~ ~ ~ ~ ~ ~ ~ ~ ~ ~ ~ ~ ~ ~ ~ ~ ~ ~ ~ ~ ~ ~ ~ ~ ~ ~ ~ ~ ~ Y X       $.$.$.$.$.$.$.$.",
"$.$.      @ E ~ ~ ~ ~ ~ ~ ~ ~ ~ ~ ~ ~ ~ ~ ~ ~ ~ ~ ~ ~ ~ ~ ~ ~ ~ ~ ~ ~ ~ ~ ~ ~ ~ ~ ~ ~ ~ ~ ~ ~ ~ ~ ~ ~ ~ >       $.$.$.$.$.$.$.$.",
"$.$.      6 ~ ~ ~ ~ ~ ~ ~ ~ ~ ~ ~ ~ ~ ~ ~ ~ ~ ~ ~ ! R Y Y W ~ ~ ~ ~ ~ ~ ~ ~ ~ ~ ~ ~ ~ ~ ~ ~ ~ ~ ~ ~ ~ ~ N       $.$.$.$.$.$.$.$.",
"$.$.    X k ~ ~ ~ ~ ~ ~ ~ ~ ~ ~ ~ ~ ~ ~ ~ ~ ~ ~ ~ A B z l N W ~ ~ ~ ~ ~ ~ ~ ~ ~ ~ ~ ~ ~ ~ ~ ~ ~ ~ ~ ~ ~ Q O       $.$.$.$.$.$.$.",
"$.$.    O I ~ Q ~ ~ ~ ~ ~ ~ ~ ~ ~ ~ ~ ~ ~ ~ ~ Y k f G ^ T x A ! ~ ~ ~ ~ ~ ~ ~ ~ ~ ~ ~ ~ ~ ~ ~ ~ ~ ~ ~ ~ ~ >       $.$.$.$.$.$.$.",
"$.      & E $.Y ~ ~ ~ ~ ~ ~ ~ ~ ~ ~ ~ ~ ~ ~ ! k S ) { { { G B Y ~ ~ ~ ~ ~ ~ ~ ~ ~ ~ ~ ~ ~ ~ ~ ~ ~ ~ ~ ~ ~ s       $.$.$.$.$.$.$.",
"$.      = Q ! E ~ ~ ~ ~ ~ ~ ~ ~ ~ ~ ~ ~ ~ ~ Y g G ' { { { / z P ~ ~ ~ ~ ~ ~ ~ ~ ~ ~ ~ ~ ~ ~ ~ ~ ~ ~ ~ ~ ~ R X       $.$.$.$.$.$.",
"$.    . : Q ~ ! ~ ~ ~ ~ ~ ~ ~ ~ ~ ~ ~ ~ ~ ~ A g x S ^ [ { ) S g A E W ~ ~ ~ ~ ~ ! I A A R ~ ~ ~ ~ ~ ~ ~ ~ ~ =       $.$.$.$.$.$.",
"$.      > ! ~ ~ ~ ~ ~ ~ ~ ~ ~ ~ ~ ~ ~ ~ ~ W N S ) ] [ { { { ` H f s b A P Q ~ ! L z V j h E ~ ~ ~ ~ ~ ~ ~ ~ 9       $.$.$.$.$.$.",
"$.      5 ! ~ ~ ~ ~ ~ ~ ~ ~ ~ ~ ~ ~ ~ ~ ~ Y z T { { { { _ / / ' [ ^ S c l k N N f G ) ( x A ~ ~ ~ ~ ~ ~ ~ ~ K       $.$.$.$.$.$.",
"$.      9 ~ ! ~ ~ ~ ~ ~ ~ ~ ~ ~ ~ ~ ~ ~ ~ U l / { { { ' D V j S ) { { ) ^ G D S H [ { { H B R ~ ~ ~ ~ ~ ~ ~ ~ O       $.$.$.$.$.",
"$.      w ~ ~ ~ ~ ~ ~ ~ ~ ~ ~ ~ ~ ~ ~ ~ ~ W z F [ { ` S k P K k f G ` [ { [ ] [ { { { { / B P ~ ~ ~ ~ ~ ~ ~ ~ >       $.$.$.$.$.",
"$.      a ~ ~ ~ ~ ~ ~ ~ ~ ~ ~ ~ ~ ~ ~ ~ ~ ~ A j S S f h P ~ ~ W A h x G ( [ { { [ ' { [ H l I ~ ~ ~ ~ ~ ~ ~ ~ 0       $.$.$.$.$.",
"$.      s ~ ~ ~ ~ ~ ~ ~ ~ ~ ~ ~ ~ ~ ~ ~ ~ ~ ! K N N K Q ~ ~ ~ ~ ~ W Z h c H ] ] G S T T c N ! ~ ~ ~ ~ ~ ~ ~ ~ A       $.$.$.$.$.",
"$.      s ~ ~ ~ ~ ~ ~ ~ ~ ~ ~ ~ ~ ~ ~ ~ ~ ~ ~ ~ W W ~ ~ ~ ~ ~ ~ ~ ~ ~ E C c ( { _ v a B Z R ~ ~ ~ ~ ~ ~ ~ ~ ~ W X     $.$.$.$.$.",
"$.      g ~ ~ ~ ~ ~ ~ ~ ~ ~ ~ ~ ~ ~ ~ ~ ~ ~ ~ ~ ~ ~ ~ ~ ~ ~ ~ ~ ~ ~ ~ ~ W z H { { D k R Q ~ ~ ~ ~ ~ ~ ~ ~ ~ ~ ~ @       $.$.$.$.",
"$.      a ~ ~ ~ ~ ~ ~ ~ ~ ~ ~ ~ ~ ~ ~ ~ ~ ~ ~ ~ ~ ~ ~ ~ ~ ~ ~ ~ ~ ~ ~ ~ ~ N x ` ` f Z ~ ~ ~ ~ ~ ~ ~ ~ ~ ~ ~ ~ ~ &       $.$.$.$.",
"$.      9 ~ ~ ~ ~ ~ ~ ~ ~ ~ ~ ~ ~ ~ ~ ~ ~ ~ ~ ~ ~ ~ ~ ~ ~ ~ ~ ~ ~ ~ ~ ~ ~ U h x f h Y ~ ~ ~ ~ ~ ~ ~ ~ ~ ~ ~ ~ ~ @       $.$.$.$.",
"$.      7 ~ ~ ~ ~ ~ ~ ~ ~ ~ ~ ~ ~ ~ ~ ~ ~ ~ ~ ~ ~ ~ ~ ~ ~ ~ ~ ~ ~ ~ ~ ~ ~ ~ Y A A E ~ ~ ~ ~ ~ ~ ~ ~ ~ ~ ~ ~ ~ W .       $.$.$.$.",
"$.      5 ~ ~ ~ ~ ~ ~ ~ ~ ~ ~ ~ ~ ~ ~ ~ ~ ~ ~ ~ ~ ~ ~ ~ ~ ~ ~ ~ ~ ~ ~ ~ ~ ~ ~ ~ ~ ~ ~ ~ ~ ~ ~ ~ ~ ~ ~ ~ ~ ~ ~ 2       $.$.$.$.$.",
"$.      > ~ ~ ~ ~ ~ ~ ~ ~ ~ ~ ~ ~ ~ ~ ~ ~ ~ ~ ~ ~ ~ ~ ~ ~ ~ ~ ~ ~ ~ ~ ~ ~ ~ ~ ~ ~ ~ ~ ~ ~ ~ ~ ~ ~ ~ ~ ~ ~ ~ 7         $.$.$.$.$.",
"$.      X R ~ ~ ~ ~ ~ ~ ~ ~ ~ ~ ~ ~ ~ ~ ~ ~ ~ ~ ~ ~ ~ ~ ~ ~ ~ ~ ~ ~ ~ ~ ~ ~ ~ ~ ~ ~ ~ ~ ~ ~ ~ ~ ~ ~ ~ ~ ! 7         $.$.$.$.$.$.",
"$.$.      ; W ~ ~ ~ ~ ~ ~ ~ ~ ~ ~ ~ ~ ~ ~ ~ ~ ~ ~ ~ ~ ~ ~ ~ ~ ~ ~ ~ ~ ~ ~ ~ ~ ~ ~ ~ ~ ~ ~ ~ ~ ~ ~ ~ ~ E >         $.$.$.$.$.$.$.",
"$.$.        = Y ~ ~ ~ ~ ~ ~ ~ ~ ~ ~ ~ ~ ~ ~ ~ ~ ~ ~ ~ ~ ~ ~ ~ ~ ~ ~ ~ ~ ~ ~ ~ ~ ~ ~ ~ ~ ~ ~ ~ ~ ~ E 8 .         $.$.$.$.$.$.$.$.",
"$.$.$.        . = 6 N W ~ ~ ~ ~ ~ ~ ~ ~ ~ ~ ~ ~ ~ ~ ~ ~ ~ ~ ~ ~ ~ ~ ~ ~ ~ ~ ! ! ~ ~ ~ ~ ~ ~ E g :             $.$.$.$.$.$.$.$.$.",
"$.$.$.$.                . X X O @ @ & & & * > g N k d a s m C Y ! R ! ~ ~ ~ ~ ~ ~ Y A w > @ .               $.$.$.$.$.$.$.$.$.$.",
"$.$.$.$.$.                                                      . X   . . . . . .                       $.$.$.$.$.$.$.$.$.$.$.$.",
"$.$.$.$.$.$.$.                                                                                      $.$.$.$.$.$.$.$.$.$.$.$.$.$.",
"$.$.$.$.$.$.$.$.$.$.$.$.$.$.$.$.                                                            $.$.$.$.$.$.$.$.$.$.$.$.$.$.$.$.$.$."
};
