/* XPM */
static char *result[] = {
/* columns rows colors chars-per-pixel */
"64 64 98 2 ",
"   c #000000",
".  c #000709",
"X  c #00090C",
"o  c #000D12",
"O  c #021015",
"+  c #0D1010",
"@  c #00141B",
"#  c #0E1618",
"$  c #141616",
"%  c #001B24",
"&  c #001E29",
"*  c #00212C",
"=  c #1F2121",
"-  c #002633",
";  c #002D3C",
":  c #222323",
">  c #2B2C2C",
",  c #3F3F3F",
"<  c #003243",
"1  c #003649",
"2  c #003A4E",
"3  c #003D51",
"4  c #004156",
"5  c #00445B",
"6  c #004961",
"7  c #004F69",
"8  c #00516C",
"9  c #005470",
"0  c #005876",
"q  c #005B79",
"w  c #4B4B4B",
"e  c #535353",
"r  c gray35",
"t  c gray39",
"y  c gray42",
"u  c gray47",
"i  c #016384",
"p  c #00678A",
"a  c #01698C",
"s  c #0C6D8D",
"d  c #006E93",
"f  c #086F92",
"g  c #027197",
"h  c #0E7091",
"j  c #00749B",
"k  c #0C779B",
"l  c #147494",
"z  c #137798",
"x  c #16799A",
"c  c #1B7B9B",
"v  c #0077A0",
"b  c #0179A2",
"n  c #0B7AA0",
"m  c #007EA9",
"M  c #0182AD",
"N  c #1D81A3",
"B  c #0086B4",
"V  c #0089B7",
"C  c #008BBA",
"Z  c #2283A3",
"A  c #2789A9",
"S  c #2B8BAB",
"D  c #3393B4",
"F  c #3B9BBB",
"G  c #008FC0",
"H  c #0092C3",
"J  c #0097CA",
"K  c #009ACE",
"L  c #009ED3",
"P  c #00A0D6",
"I  c #00A4DB",
"U  c #00AAE3",
"Y  c #00AEE8",
"T  c #00B1ED",
"R  c #00B6F3",
"E  c #00B9F7",
"W  c #00BFFF",
"Q  c #43A3C3",
"!  c #4DADCD",
"~  c #51B1D1",
"^  c #5BBBDB",
"/  c #63C3E3",
"(  c #6CCCEC",
")  c #70CFF0",
"_  c #74D3F4",
"`  c #76D7F8",
"'  c #7DDDFE",
"]  c #939393",
"[  c #9A9A9A",
"{  c gray64",
"}  c #BDBDBD",
"|  c gray80",
" . c #D9D9D9",
".. c #E4E4E4",
"X. c #EAEAEA",
"o. c #F3F3F3",
"O. c #FDFDFD",
"+. c None",
/* pixels */
"+.+.+.+.+.+.+.+.+.+.+.+.+.+.+.+.+.+.+.+.+.+.+.+.+.+.+.+.+.+.+.+.+.+.+.+.+.+.+.+.+.+.+.+.+.+.+.+.+.+.+.+.+.+.+.+.+.+.+.+.+.+.+.+.",
"+.+.+.+.+.+.+.+.+.+.+.+.+.+.+.+.+.+.+.+.+.+.+.+.+.+.+.+.+.+.+.+.+.+.+.+.+.+.+.+.+.+.+.+.+.+.+.+.+.+.+.+.+.+.+.+.+.+.+.+.+.+.+.+.",
"+.+.+.+.+.+.+.+.+.+.+.+.+.+.+.+.+.+.+.+.+.+.+.+.+.+.+.+.+.+.+.+.+.+.+.+.+.+.+.+.+.+.+.+.+.+.+.+.+.+.+.+.+.+.+.+.+.+.+.+.+.+.+.+.",
"+.+.+.+.+.+.+.+.+.+.+.+.+.+.+.+.+.+.+.+.+.+.+.+.+.+.+.+.+.+.+.+.+.+.+.+.+.+.+.+.+.+.+.+.+.+.+.+.+.+.+.+.+.+.+.    +.+.+.+.+.+.+.",
"+.+.+.+.+.+.+.+.+.+.+.+.+.+.+.+.+.+.+.+.+.+.+.+.+.+.+.+.+.+.+.+.+.+.+.+.+.+.+.+.+.+.+.+.+.+.+.+.+.+.+.+.+.+.+.+.    +.      +.+.",
"+.+.+.+.+.+.+.+.+.+.+.+.+.+.+.+.+.+.+.+.+.+.+.                      +.+.+.+.+.+.+.+.+.+.+.+.+.+.+.+.+.+.+.+.+.+.          +.+.+.",
"+.+.+.+.+.+.+.+.+.+.+.+.+.+.+.+.+.+.+.                                    +.+.+.+.+.+.+.+.+.+.+.+.+.+.+.+.      +.+.  +.+.+.+.+.",
"+.+.+.+.+.+.+.+.+.+.+.+.+.+.+.+.                                                +.+.+.+.+.+.+.+.+.+.+.+.+.+.      +.+.+.+.+.+.+.",
"+.+.+.+.+.+.+.+.+.+.+.+.+.+.                X % ; 4 8 8 q a 8 ; @ . .               +.+.+.+.+.+.+.+.+.+.+.+.+.+.  +.    +.+.+.+.",
"+.+.+.+.+.+.+.+.+.+.+.+.            . O < a U W W W W W W W W W W W E H 5 o             +.+.+.+.+.+.+.+.+.+.+.+.  +.+.      +.+.",
"+.+.+.+.+.+.+.+.+.+.            X 1 B W W W W W W W W W W W W W W W W W W U d - .           +.+.+.+.+.+.+.+.+.+.  +.+.+.+.+.+.+.",
"+.+.+.+.+.+.+.+.+.          X 5 I W W W W W W W W W W W W W W W W W W W W W W W L 3           +.+.+.+.+.+.+.+.+.+.+.+.+.+.+.+.+.",
"+.+.+.+.+.+.+.+.          < P W W W W W W W W W W W W W W W W W W W W W W W W W W W K &         +.+.+.+.+.+.+.+.+.+.+.+.+.+.+.+.",
"+.+.+.+.+.+.+.+.      . b W W W W W W W W W W W W W W W W W W W W W W W W W R E W W W E 2         +.+.+.+.+.+.+.+.+.+.+.+.+.+.+.",
"+.+.+.+.+.+.+.      . m W W W W W W W W W W W W W W W W W W W W W W W W W W W W W W W W R <       +.+.+.+.+.+.+.+.+.+.+.+.+.+.+.",
"+.+.+.+.+.+.        i W W W W W W W W W W W W W W W W W W W W W W W W W W W W W W W W W W Y %       +.+.+.+.+.+.+.+.+.+.+.+.+.+.",
"+.+.+.+.+.+.      * W W W W W W W W W W W W W W W W W W W W W W W W W W W W W W W W W W W W m         +.+.+.+.+.+.+.+.+.+.+.+.+.",
"+.+.+.+.+.      . L W W W W W W W W W W W W W W W W W W W W W W W W W W W W W R W E W W W W W <         +.+.+.+.+.+.+.+.+.+.+.+.",
"+.+.+.+.+.      1 W W W W W W W W W W W W W W W W W W W W W W W W W W W W W W W W W W W W W W Y <       +.+.+.+.+.+.+.+.+.+.+.+.",
"+.+.+.+.+.    . J W W W W W W W W W W W W W W W W W W W W W W W W W W W W W W W W W W W W W W W E 2       +.+.+.+.+.+.+.+.+.+.+.",
"+.+.+.+.      & W W W W W U 7 % O O ; j E W W W W W W W W W W W W W W W W W W W W W W W W W W W W E <       +.+.+.+.+.+.+.+.+.+.",
"+.+.+.+.      q W W W W P ; + , y t > O q W W W W W W W W W W U 7 & o @ ; j E W W W W W W W W W W W T @       +.+.+.+.+.+.+.+.+.",
"+.+.+.+.    . J W W W E 4 $ u  .X.X.} w O M W W W W W W W W P < + , y t : o q E W W W W W W W W W W W m       +.+.+.+.+.+.+.+.+.",
"+.+.+.      o E W W W U @ r ..O.O.O.O.} : 2 W W W W W W W W 4 $ u  .X.X.| w O m W W W W E W W W W W W E -       +.+.+.+.+.+.+.+.",
"+.+.+.      * W W W W B . [ O.O. .O.O...e * T W W W W W W U O r ..O.O.O.O.} : 3 W W W W W W W W W W W W j       +.+.+.+.+.+.+.+.",
"+.+.+.      ; W W W W B . { O. .   .O...r * Y W W W W W W V . [ O.O. .O.O...e & Y W W W W W W W W W W W U X       +.+.+.+.+.+.+.",
"+.+.+.      < W W W W P O y o.O. .O.O.| > 1 W W W W W W W M . { O. .   .O...r & Y W W W W W W E Y Y E W W <       +.+.+.+.+.+.+.",
"+.+.+.      2 W W W W E 1 = [ o.O.O. .y O j W W W W W W W I O y X.O. .O.O.| > 1 W W W W W W W R W W W W W v       +.+.+.+.+.+.+.",
"+.+.+.      3 W W W W W K * = y [ ] w # 7 E W W W W W W W E 2 : [ o.O.o. .y + b W W W W W W W W W W W E W T @     +.+.+.+.+.+.+.",
"+.+.+.      3 W W W W W W P 5 @ X o * p E W W W W W W W W W K * = t { ] w # 7 W W W W W W W W W W Y E W W W 5       +.+.+.+.+.+.",
"+.+.+.      1 W W W W W W W W W W W W W W W W W W W W W W W W P 4 % X o * p E W W W W W W W W W W W W W W W d       +.+.+.+.+.+.",
"+.+.+.      ; W W W W W W W W W W W W W W W W W W W W W W W W W W W W W W W W W W W W W W W W W W W W W W W H .     +.+.+.+.+.+.",
"+.+.+.      @ W W W W W W W W W W W W W W W W W W W W W W W W W W W W W W W W W W W W W W W W W W W W +.W W E @     +.+.+.+.+.+.",
"+.+.+.+.    X E W W W W W W W W W W W W W W W W W W W W W W W W W W W W W W W W W W W W W W W W W W W W W W W 1     +.+.+.+.+.+.",
"+.+.+.+.    . H W W W W W W W W W W W W W W W W W W W W W W W W W W W W W W W W W W W W W W W W W W W W W W W q       +.+.+.+.+.",
"+.+.+.+.      a W W W W W W W W W W W W W W W W W W W W W W W W W W W W W W W W W W W W W W W W W W W W W W W M       +.+.+.+.+.",
"+.+.+.+.      0 W W W W W W W W W W W W W W W W W W W W W W W W W W W W W W W W W W W W W W W W W W W W W W W C .     +.+.+.+.+.",
"+.+.+.+.      8 W W W W W W W W W W W W W W W W W W W W W W W W W W W W W W W W W W W W W W W W W W W W W W W K X     +.+.+.+.+.",
"+.+.+.+.      8 W W W W W W W W W W W E W W W W W W W W W W W W W E W E W W W W W W W W W W W W W W W W W W W P o     +.+.+.+.+.",
"+.+.+.+.      9 W W W W W W W W I C j b J E W W W W W W W W W W L V b M T W W W W W W W W W W W W W W W W W W I O     +.+.+.+.+.",
"+.+.+.+.      a W W W W W W W I M h S S a C W W W W W W W W W Y b x Z x j U W W W W W W W W W W W W W W W W W U @     +.+.+.+.+.",
"+.+.+.+.      H W W W W W W E j x / ' ' D j U W W W W W W W W M l / ` ( x B E W W W W W W W W W W W W W W W W U @     +.+.+.+.+.",
"+.+.+.+.    X R W W W W W W V N / ' ' ' / s k B M M M V B C b k Q ' ' ' ! p T W W W W W W W W W W W W W W W W U O     +.+.+.+.+.",
"+.+.+.      % W W W W W W W j N / / ` ' ` ^ S c x x c l c h S F _ ' ' ' ~ h P W W W W W W W W W W W W W W W W U @     +.+.+.+.+.",
"+.+.+.      1 W W W W W W E M s N S ( ' ' ' _ ( ` _ ` ` ) _ ) ' ' ) _ ( S g R W W W W W W W W W W W W W W W W U @     +.+.+.+.+.",
"+.+.+.      i W W W W W W W M s ~ ` ' ' / F l S Q ! / ( ` ' ' ' ^ l Z Z n C W W W W W W W W W W W W W W W W W K O     +.+.+.+.+.",
"+.+.+.    X I W W W W W W W j D ' ' ' ' D a M j g a i x N A ! ' ) ~ c a P W W W W W W W W W W W W W W W W W W K O     +.+.+.+.+.",
"+.+.      % W W W W W W W E b S ' ' ' ^ z C W W T U P V M g N Q ' ' F g Y W W W W W W W W W W W W W W W W W W C o     +.+.+.+.+.",
"+.+.      4 W W W W W W W W B N ~ ' ) Z d U W W W W W W W E M N / ' Q a T W W W W W W W W W W W W W W W W W W M       +.+.+.+.+.",
"+.+.    . M W W W W W W W W T b h S h j I W W W W W W W W W P k h D i M W W W W W W W W W W W W W W W W W W W T .     +.+.+.+.+.",
"+.+.    X R W W W W W W W W W I C j V P W W W W W W W W W W W I M j V Y W W W W W W W W W W W W W W W W W W W W @       +.+.+.+.",
"+.      % W W W W W W W W W W W W W W W W W W W W W W W W W W W W W E W W W W W W W W W W W W W W W W W W W W W %       +.+.+.+.",
"+.      ; W W W W W W W W W W W W W W W W W W W W W W W W W W W W W W W W W W W W W W W W W W W W W W W W W W W @       +.+.+.+.",
"+.      2 W W W W W W W W W W W W W W W W W W W W W W W W W W W W W W W W W W W W W W W W W W W W W W W W W W T         +.+.+.+.",
"+.      3 W W W W W W W W W W W W W W W W W W W W W W W W W W W W W W W W W W W W W W W W W W W W W W W W W W <       +.+.+.+.+.",
"+.      ; W W W W W W W W W W W W W W W W W W W W W W W W W W W W W W W W W W W W W W W W W W W W W W W W W 5         +.+.+.+.+.",
"+.      X U W W W W W W W W W W W W W W W W W W W W W W W W W W W W W W W W W W W W W W W W W W W W W W E 5         +.+.+.+.+.+.",
"+.+.      - T W W W W W W W W W W W W W W W W W W W W W W W W W W W W W W W W W W W W W W W W W W W W Y ;         +.+.+.+.+.+.+.",
"+.+.        * P W W W W W W W W W W W W W W W W W W W W W W W W W W W W W W W W W W W W W W W W W Y 6 .         +.+.+.+.+.+.+.+.",
"+.+.+.        . * 4 M T W W W W W W W W W W W W W W W W W W W W W W W W W W W W W W W W W W Y d - .           +.+.+.+.+.+.+.+.+.",
"+.+.+.+.              . . . X O @ % % % % & ; d M j a i a M B P E I E W W W W W W I C q ; @ .               +.+.+.+.+.+.+.+.+.+.",
"+.+.+.+.+.                                                      . . . . . . . . .                       +.+.+.+.+.+.+.+.+.+.+.+.",
"+.+.+.+.+.+.+.                                                                                      +.+.+.+.+.+.+.+.+.+.+.+.+.+.",
"+.+.+.+.+.+.+.+.+.+.+.+.+.+.+.+.                                                            +.+.+.+.+.+.+.+.+.+.+.+.+.+.+.+.+.+."
};
