/* XPM */
static char *result[] = {
/* columns rows colors chars-per-pixel */
"64 64 98 2 ",
"   c #000000",
".  c #000609",
"X  c #00090D",
"o  c #010E13",
"O  c #021115",
"+  c #0D1112",
"@  c #00151C",
"#  c #0E1618",
"$  c #141616",
"%  c #141718",
"&  c #001B24",
"*  c #001E29",
"=  c #00212C",
"-  c #1F2121",
";  c #002734",
":  c #002936",
">  c #002D3C",
",  c #222323",
"<  c #2B2C2C",
"1  c #3F3F3F",
"2  c #003243",
"3  c #00374A",
"4  c #00394D",
"5  c #003D51",
"6  c #004157",
"7  c #00445B",
"8  c #004961",
"9  c #004F69",
"0  c #00516D",
"q  c #005470",
"w  c #005876",
"e  c #005B79",
"r  c #4B4B4B",
"t  c #535353",
"y  c gray35",
"u  c gray39",
"i  c gray42",
"p  c #797979",
"a  c #026485",
"s  c #006789",
"d  c #026A8C",
"f  c #0B6C8D",
"g  c #016D92",
"h  c #027095",
"j  c #097093",
"k  c #00749C",
"l  c #0C779B",
"z  c #0C789D",
"x  c #137494",
"c  c #167B9D",
"v  c #1C7C9D",
"b  c #007AA2",
"n  c #007FA9",
"m  c #0081AD",
"M  c #1E83A5",
"N  c #0086B4",
"B  c #0089B7",
"V  c #008BBA",
"C  c #2383A3",
"Z  c #2687A8",
"A  c #2C8CAC",
"S  c #3494B4",
"D  c #3A9ABA",
"F  c #008FC0",
"G  c #0093C4",
"H  c #0096C9",
"J  c #009ACD",
"K  c #009ED3",
"L  c #00A0D6",
"P  c #00A4DB",
"I  c #00AAE3",
"U  c #00AEE8",
"Y  c #00B1ED",
"T  c #00B5F3",
"R  c #00B9F7",
"E  c #00BFFF",
"W  c #44A4C4",
"Q  c #4BABCB",
"!  c #55B5D5",
"~  c #5DBDDD",
"^  c #60BFE0",
"/  c #66C5E6",
"(  c #6CCBEC",
")  c #70CFF0",
"_  c #72D2F2",
"`  c #78D7F8",
"'  c #7EDDFE",
"]  c #939393",
"[  c #9A9A9A",
"{  c gray64",
"}  c #BDBDBD",
"|  c gray80",
" . c #D9D9D9",
".. c #E4E4E4",
"X. c #EAEAEA",
"o. c #F3F3F3",
"O. c #FDFDFD",
"+. c None",
/* pixels */
"+.+.+.+.+.+.+.+.+.+.+.+.+.+.+.+.+.+.+.+.+.+.+.+.+.+.+.+.+.+.+.+.+.+.+.+.+.+.+.+.+.+.+.+.+.+.+.+.+.+.+.+.+.+.+.+.+.+.+.+.+.+.+.+.",
"+.+.+.+.+.+.+.+.+.+.+.+.+.+.+.+.+.+.+.+.+.+.+.+.+.+.+.+.+.+.+.+.+.+.+.+.+.+.+.+.+.+.+.+.+.+.+.+.+.+.+.+.+.+.+.+.+.+.+.+.+.+.+.+.",
"+.+.+.+.+.+.+.+.+.+.+.+.+.+.+.+.+.+.+.+.+.+.+.+.+.+.+.+.+.+.+.+.+.+.+.+.+.+.+.+.+.+.+.+.+.+.+.+.+.+.+.+.+.+.+.+.+.+.+.+.+.+.+.+.",
"+.+.+.+.+.+.+.+.+.+.+.+.+.+.+.+.+.+.+.+.+.+.+.+.+.+.+.+.+.+.+.+.+.+.+.+.+.+.+.+.+.+.+.+.+.+.+.+.+.+.+.+.+.+.+.+.+.+.+.+.+.+.+.+.",
"+.+.+.+.+.+.+.+.+.+.+.+.+.+.+.+.+.+.+.+.+.+.+.+.+.+.+.+.+.+.+.+.+.+.+.+.+.+.+.+.+.+.+.+.+.+.+.+.+.+.+.+.+.+.+.+.+.+.+.+.+.+.+.+.",
"+.+.+.+.+.+.+.+.+.+.+.+.+.+.+.+.+.+.+.+.+.+.+.                      +.+.+.+.+.+.+.+.+.+.+.+.+.+.+.+.+.+.+.+.+.+.+.+.+.+.+.+.+.+.",
"+.+.+.+.+.+.+.+.+.+.+.+.+.+.+.+.+.+.+.                                      +.+.+.+.+.+.+.+.+.+.+.+.+.+.+.        +.+.+.+.+.+.+.",
"+.+.+.+.+.+.+.+.+.+.+.+.+.+.+.+.                                                    +.+.+.+.+.+.+.+.+.+.              +.+.+.+.+.",
"+.+.+.+.+.+.+.+.+.+.+.+.+.+.                X & > 6 9 0 e a 5 * & & ; * X .             +.+.+.+.+.+.+.        .         +.+.+.+.",
"+.+.+.+.+.+.+.+.+.+.+.+.            . O 2 d I E E E E E E E E E E E E E L g 4 & .         +.+.+.+.+.+.    . a k 5 X       +.+.+.",
"+.+.+.+.+.+.+.+.+.+.            X 2 N E E E E E E E E E E E E E E E E E E E E U b &         +.+.+.+.+.    2 E E E V &       +.+.",
"+.+.+.+.+.+.+.+.+.          X 7 P E E E E E E E E E E E I 0 = O @ > k T E E E E E Y 0 .                   0 E E E E m .     +.+.",
"+.+.+.+.+.+.+.+.          2 L E E E E E E E E E E E E L > + 1 i u < o e E E E E E E R k O               @ K E E E E E ;     +.+.",
"+.+.+.+.+.+.+.+.      . b E E E E E E E E E E E E E E 6 $ p  .X...} r o m E +.+.E E E E J > X         * G E E E E E E 8     +.+.",
"+.+.+.+.+.+.+.      . b E E E E E E E E E E E E E E P @ y ..O.O.O.O.} , 4 E +.+.E E E E E T G d e a N T E E E E E E E 8     +.+.",
"+.+.+.+.+.+.        a E E E E E E E E E E E E E E E N . [ O.O. .O.O...t = U E E E E E E E E E E E E E E E E E E E E H X     +.+.",
"+.+.+.+.+.+.      = E E E E E E E E E E E E E E E E N . { O. .   .O...y & U E E E R E E +.+.E E E E E E E E E I k 2 .       +.+.",
"+.+.+.+.+.      X K E E E E E E E E E E E E E E E E L O i o.O. .O.O.| < 2 E E R E E E E E +.+.+.E E E E E Y 0 O           +.+.+.",
"+.+.+.+.+.      3 E E E E E E E E E E E E E E E E E E 4 - [ o.O.O. .i O b E E E E E E E E E E E E E E E R 5 .           +.+.+.+.",
"+.+.+.+.+.    . H E E E E E E E E E E E E E E E E E E J = - u { ] r $ 9 E E E E E +.E E E E E E E E E E G X         +.+.+.+.+.+.",
"+.+.+.+.      * E E E E E E E E E E E E E E E E E E E E L 7 @ X X = s R E E E E E E E E E E R E E E E E n .     +.+.+.+.+.+.+.+.",
"+.+.+.+.      w E E E E E E E E E E E E E E E E E E E E E E E E E E E E E E E E E E E E E E E E E E E E m       +.+.+.+.+.+.+.+.",
"+.+.+.+.    . H E E E E E E T P I E E E E E E E E E E E E E E E E E E E E E E E E E E E E E E E E E E E P .     +.+.+.+.+.+.+.+.",
"+.+.+.      o R E E E E U e ; & & 3 m E E E E E E E E E E E E E E E E E E E E E E E E E E E E E E E E E E >     +.+.+.+.+.+.+.+.",
"+.+.+.      = E E E E P 4 + 1 i u < O s E E E E E E E E E E E E E E E E E E E E E E E E E E E E E E R E E g       +.+.+.+.+.+.+.",
"+.+.+.      > E E E E 8 $ p  .X...} r O N E E E E E E E E E E E E E E E E E E E E E E E E E E E E E T E E P o     +.+.+.+.+.+.+.",
"+.+.+.      2 E E E I @ y ..O.O.O.O.} , 6 E E E E E E E E E E E E E E E E E E E E E E E E E E E E E E I E E >     +.+.+.+.+.+.+.",
"+.+.+.      4 E E E B . [ O.O. .O.O...t = Y E E E E E E E E E E E E E E E E E E E E U I P Y E R E E E U R E e       +.+.+.+.+.+.",
"+.+.+.      5 E E E m . { O. .   .O...y = U E E E E E E E E E E E E E E E E E E R G h a g k H T E E E E P E n       +.+.+.+.+.+.",
"+.+.+.      5 E E E L o i o.O. .O.O.| < 2 R E E E E E E E E E E E E E E E E E E J g S ^ ^ S j G E +.E E R E V .     +.+.+.+.+.+.",
"+.+.+.      3 E E E T 2 - [ X.O.O. .i o h E E E E E E E E E E E E E E E E E E E V x ) ' ' ) C b T +.E E E Y H X     +.+.+.+.+.+.",
"+.+.+.      > E E E E G & - i { ] r + 6 R E E E E E E E E E E E E E E E E E E E H f ) ' ' ' S b T E +.E E E P o     +.+.+.+.+.+.",
"+.+.+.      @ E E E E E V 6 O o X & e R E E E E E E E E E E E E E E E E E E E E P j Q ' ' ~ M k E E +.E E E U @     +.+.+.+.+.+.",
"+.+.+.+.    X R E E E E E E I V V Y E E E E E E E E E E E E E E E E E E E E E E J l Q ' ! M f h G E E E E E R @     +.+.+.+.+.+.",
"+.+.+.+.    . G E E E E E E E E E E E E E E E E E E E E E E E E E E E E E E E I h Z ( ' ! D Q C d L E E E E E @     +.+.+.+.+.+.",
"+.+.+.+.      d E E E E E E E E E E E E E E E E E E E E E E E E E E E E E E U h x ~ ' ' ' ' ' ) x V E T E E E O     +.+.+.+.+.+.",
"+.+.+.+.      w E E E E E E E E E E E E E E E E E E E E E E E E E E E E E I h x ~ ' ' ! Q ! ) ~ f V E E T E R X     +.+.+.+.+.+.",
"+.+.+.+.      0 E E E E E E E E E E E E E E E E E E E E E E E E E E E E K h M ~ ' ( S f l M c a k T E E R E I X     +.+.+.+.+.+.",
"+.+.+.+.    . 0 E E E E E E E E E E E E E E E E E E E E E E U K G L U G g C ^ ' ! C g V L G V K Y E E E E E J .     +.+.+.+.+.+.",
"+.+.+.+.    . q E E E E E E E E E E E E E E E E E E E E E T k f x f h f Z ( ) D f k P E E E E E E E E E E E G       +.+.+.+.+.+.",
"+.+.+.+.      s E E E E E E E E E E E E E E E E E E E E R G f Q ` ~ D W ` ! v d B E E E E E E E E E E E E R m       +.+.+.+.+.+.",
"+.+.+.+.      G E E E E E E E E E E E E E E E E E E E E U m A ' ' ' ' ' ! d k K E E E E E E E E E E E E E E n .     +.+.+.+.+.+.",
"+.+.+.+.    X T E E E E E E E E E E E E E E E E E E E E U k W ' ' ' ' _ S k R E E E E E E E E E E E E E E E b .     +.+.+.+.+.+.",
"+.+.+.      & E E E E E E E E E E E E E E E E E E E E E E h W ' Q ~ ' ` A k T E E E E E E E E E E E E E E E g       +.+.+.+.+.+.",
"+.+.+.      2 E E E E E E E E E E E E E E E E E E E E E E k A ! M / ' ' Q f P E E E E E E E E E E E E E E E a       +.+.+.+.+.+.",
"+.+.+.      a E E E E E E E E E E E E E E E E E E E E E E J d f Z ' ' ' ( a L E E E E E E E E E E E E E E E L .       +.+.+.+.+.",
"+.+.+.    X P E E E E E E E E E E E E E E E E E E E E E E R G j C ` ' ' ^ f K E E E E E E E E E E E E E E E E ;       +.+.+.+.+.",
"+.+.      = E E E E E E E E E E E E E E E E E E E E E E E E E J f S / / D g P E E E E E E E E E E E E E E E E 0       +.+.+.+.+.",
"+.+.      6 E E E E E E E E E E E E E E E E E E E E E E E E E E B l M x d V E E E E E E E E E E E E E E E E E B .     +.+.+.+.+.",
"+.+.    . m E E E E E E E E E E E E E E E E E E E E E E E E E E R L V B U E E E E E E E E E E E E E E E E E E Y X     +.+.+.+.+.",
"+.+.    X T E E E E E E E E E E E E E E E E E E E E E E E E E E E E E E E E E E E E E E E E E E E E E E E E E E @       +.+.+.+.",
"+.      & E E E E E E E E E E E E E E E E E E E E E E E E E E E E E E E E E E E E E E E E E E E E E E E E E E E &       +.+.+.+.",
"+.      > E E E E E E E E E E E E E E E E E E E E E E E E E E E E E E E E E E E E E E E E E E E E E E E E E E E @       +.+.+.+.",
"+.      4 E E E E E E E E E E E E E E E E E E E E E E E E E E E E E E E E E E E E E E E E E E E E E E E E E E Y .       +.+.+.+.",
"+.      5 E E E E E E E E E E E E E E E E E E E E E E E E E E E E E E E E E E E E E E E E E E E E E E E E E E 2       +.+.+.+.+.",
"+.      > E E E E E E E E E E E E E E E E E E E E E E E E E E E E E E E E E E E E E E E E E E E E E E E E E 7         +.+.+.+.+.",
"+.      X I E E E E E E E E E E E E E E E E E E E E E E E E E E E E E E E E E E E E E E E E E E E E E E R 7         +.+.+.+.+.+.",
"+.+.      ; U E E E E E E E E E E E E E E E E E E E E E E E E E E E E E E E E E E E E E E E E E E E E U >         +.+.+.+.+.+.+.",
"+.+.        = P E E E E E E E E E E E E E E E E E E E E E E E E E E E E E E E E E E E E E E E E E U 8 .         +.+.+.+.+.+.+.+.",
"+.+.+.        . = 6 m Y E E E E E E E E E E E E E E E E E E E E E E E E E E E E E E E E E E I g ; .           +.+.+.+.+.+.+.+.+.",
"+.+.+.+.              . . X X O @ @ & & & * > g m k d a s n N P R P R E E E E E R P V w > @ .               +.+.+.+.+.+.+.+.+.+.",
"+.+.+.+.+.                                                      X . . . . . . . . . .                   +.+.+.+.+.+.+.+.+.+.+.+.",
"+.+.+.+.+.+.+.                                                                                      +.+.+.+.+.+.+.+.+.+.+.+.+.+.",
"+.+.+.+.+.+.+.+.+.+.+.+.+.+.+.+.                                                            +.+.+.+.+.+.+.+.+.+.+.+.+.+.+.+.+.+."
};
