/* XPM */
static char *result[] = {
/* columns rows colors chars-per-pixel */
"64 64 104 2 ",
"   c #000101",
".  c #000609",
"X  c #000A0D",
"o  c #010D12",
"O  c #011115",
"+  c #0D1112",
"@  c #00141B",
"#  c #0E1618",
"$  c #141616",
"%  c #141718",
"&  c #001B24",
"*  c #001E29",
"=  c #00212C",
"-  c #1F2121",
";  c #002632",
":  c #002D3C",
">  c #222323",
",  c #2B2C2C",
"<  c #3F3F3F",
"1  c #003344",
"2  c #003749",
"3  c #00394D",
"4  c #003E52",
"5  c #004156",
"6  c #00445B",
"7  c #004A63",
"8  c #004F69",
"9  c #00526E",
"0  c #005672",
"q  c #005C7B",
"w  c #4B4B4B",
"e  c #535353",
"r  c gray35",
"t  c gray39",
"y  c gray42",
"u  c #797979",
"i  c #006283",
"p  c #016789",
"a  c #056B8C",
"s  c #0B6E8E",
"d  c #006D92",
"f  c #0A6F91",
"g  c #037196",
"h  c #0B7193",
"j  c #01749A",
"k  c #0B769A",
"l  c #04789F",
"z  c #0E789C",
"x  c #147595",
"c  c #177798",
"v  c #177898",
"b  c #1B7C9D",
"n  c #017BA4",
"m  c #097BA2",
"M  c #007FAA",
"N  c #167DA0",
"B  c #1B7EA0",
"V  c #0082AD",
"C  c #1E82A2",
"Z  c #0086B3",
"A  c #0089B6",
"S  c #008BBA",
"D  c #2282A3",
"F  c #2487A8",
"G  c #2689A9",
"H  c #2C8CAC",
"J  c #3293B3",
"K  c #3B9BBB",
"L  c #008FC0",
"P  c #0093C4",
"I  c #0097CA",
"U  c #0099CD",
"Y  c #009ED3",
"T  c #01A0D6",
"R  c #00A4DC",
"E  c #3FA0C0",
"W  c #00AAE4",
"Q  c #00AEE9",
"!  c #00B1EC",
"~  c #00B6F4",
"^  c #00B9F7",
"/  c #00BFFF",
"(  c #43A4C4",
")  c #4DADCD",
"_  c #54B4D4",
"`  c #5CBCDC",
"'  c #63C3E3",
"]  c #6CCCEC",
"[  c #70CFF0",
"{  c #75D4F5",
"}  c #78D7F8",
"|  c #7DDDFD",
" . c #939393",
".. c #9A9A9A",
"X. c gray64",
"o. c #BDBDBD",
"O. c #80DFFF",
"+. c gray80",
"@. c #D9D9D9",
"#. c #E4E4E4",
"$. c #EAEAEA",
"%. c #F3F3F3",
"&. c #FDFDFD",
"*. c None",
/* pixels */
"*.*.*.*.*.*.*.*.*.*.*.*.*.*.*.*.*.*.*.*.*.*.*.*.*.*.*.*.*.*.*.*.*.*.*.*.*.*.*.*.*.*.*.*.*.*.*.*.*.*.*.*.*.*.*.*.*.*.*.*.*.*.*.*.",
"*.*.*.*.*.*.*.*.*.*.*.*.*.*.*.*.*.*.*.*.*.*.*.*.*.*.*.*.*.*.*.*.*.*.*.*.*.*.*.*.*.*.*.*.*.*.*.*.*.*.*.*.*.*.*.*.*.*.*.*.*.*.*.*.",
"*.*.*.*.*.*.*.*.*.*.*.*.*.*.*.*.*.*.*.*.*.*.*.*.*.*.*.*.*.*.*.*.*.*.*.*.*.*.*.*.*.*.*.*.*.*.*.*.*.*.*.*.*.*.*.*.*.*.*.*.*.*.*.*.",
"*.*.*.*.*.*.*.*.*.*.*.*.*.*.*.*.*.*.*.*.*.*.*.*.*.*.*.*.*.*.*.*.*.*.*.*.*.*.*.*.*.*.*.*.*.*.*.*.*.*.*.*.*.*.*.*.*.*.*.*.*.*.*.*.",
"*.*.*.*.*.*.*.*.*.*.*.*.*.*.*.*.*.*.*.*.*.*.*.*.*.*.*.*.*.*.*.*.*.*.*.*.*.*.*.*.*.*.*.*.*.*.*.*.*.*.*.*.*.*.*.*.*.*.*.*.*.*.*.*.",
"*.*.*.*.*.*.*.*.*.*.*.*.*.*.*.*.*.*.*.*.*.*.*.*.*.*.*.*.*.*.*.*.*.*.*.*.*.*.*.*.*.*.*.*.*.*.*.*.*.*.*.*.*.*.*.*.*.*.*.*.*.*.*.*.",
"*.*.*.*.*.*.*.*.*.*.*.*.*.*.*.*.*.*.*.*.*.*.*.*.*.*.*.*.*.*.*.*.*.*.*.*.*.*.*.*.*.*.*.*.*.*.*.*.*.*.*.*.*.*.*.*.*.*.*.*.*.*.*.*.",
"*.*.*.*.*.*.*.*.*.*.*.*.*.*.*.*.*.*.*.*.*.*.*.*.*.*.*.*.*.*.*.*.*.*.*.*.*.*.*.*.*.*.*.*.*.*.*.*.*.*.*.*.*.*.*.*.*.*.*.*.*.*.*.*.",
"*.*.*.*.*.*.*.*.*.*.*.*.*.*.*.*.*.*.*.*.*.*.*.*.*.*.*.*.*.*.*.*.*.*.*.*.*.*.*.*.*.*.*.*.*.*.*.*.*.*.*.*.*.*.*.*.*.*.*.*.*.*.*.*.",
"*.*.*.*.*.*.*.*.*.*.*.*.*.*.*.*.*.*.*.*.*.*.*.*.*.*.*.*.*.*.*.*.*.*.*.*.*.*.*.*.*.*.*.*.*.*.*.*.*.*.*.*.*.*.*.*.*.*.*.*.*.*.*.*.",
"*.*.*.*.*.*.*.*.*.*.*.*.*.*.*.*.*.*.*.*.*.*.*.*.*.*.*.*.*.*.*.*.*.*.*.*.*.*.*.*.*.*.*.*.*.*.*.*.*.*.*.*.*.*.*.*.*.*.*.*.*.*.*.*.",
"*.*.*.*.*.*.*.*.*.*.*.*.*.*.*.*.*.*.*.*.*.*.*.*.*.*.*.*.*.*.*.*.*.*.*.*.*.*.*.*.*.*.*.*.*.*.*.*.*.*.*.*.*.      .       *.*.*.*.",
"*.*.*.*.*.*.*.*.*.*.*.*.*.*.*.*.*.*.*.*..     *.*.*.*.*.*.*.*.*.*.*.*.*.*.*.*.*.*.*.*.*.*.*.*.*.*.*.*.*.    *./ / *.    *.*.*.*.",
"*.*.*.*.*.*.*.*.*.*.*.*.*.*.*.*.*.X   . . . .     *.*.*.*.*.*.*.*.*.*.*.*.*.*.*.*.*.*.*.*.*.*.*.*.*.*.*.*.*.            *.*.*.*.",
"*.*.*.*.*.*.*.*.*.*.*.*.*.*.*.*.    / *./ / / /   *.*.*.*.*.*.*.*.*.*.*.*.*.*.*.*.*.*.*.*.*.*.*.*.*.*.*.*.*.*.*.*.*.*.*.*.*.*.*.",
"*.*.*.*.*.*.*.*.*.*.*.*.*.*.*.*.          . .   . *.*.*.*.*.*.*.*.*.*.*.*.*.*.*.*.*.*.*.*.*.*.*.*.*.*.*.*.*.*.*.*.*.*.*.*.*.*.*.",
"*.*.*.*.*.*.*.*.*.*.*.*.*.*.*.*.*.*.*.*.*.*.*.*.*.*.*.*.*.*.*.*.*.*.*.*.*.*.*.*.*.X                   *.*.*.*.*.*.*.*.*.*.*.*.*.",
"*.*.*.*.*.*.*.*.*.*.*.*.*.*.*.*.*.*.*.*.*.*.*.*.*.*.*.*.*.*.*.*.*.*.*.*.*.*.*.*.  .                       *.*.*.*.*.*.*.*.*.*.*.",
"*.*.*.*.*.*.*.*.*.*.*.                  *.*.*.*.*.*.*.*.*.*.*.*.*.*.*.*.*.*.      : j S T W Q Q T i =     *.*.*.*.*.*.*.*.*.*.*.",
"*.*.*.*.*.*.*.*.                                        *.*.*.*.*.*.*.*.*.*.*.            9 I U d         *.*.*.*.*.*.*.*.*.*.*.",
"*.*.*.*.*.*.              X O o O o .                                 *.*.*.*.*.*.*.*.*.              *.*.*.*.*.*.*.*.*.*.*.*.*.",
"*.*.*.*.*.          * 0 P ~ / / ^ / Q A d 8 2 * X . .                           *.*.*.*.*.*.*.*.*.*.*.*.*.*.*.*.*.*.*.*.*.*.*.*.",
"*.*.*.*.        : P ^ / / / / / / / / / / / / / ~ R I M 9 4 = O X                   *.*.*.*.*.*.*.*.*.*.*.*.*.*.*.*.*.*.*.*.*.*.",
"*.*.*.      . q / / / / / / ^ T W / / / / / / / / / / / / / / / ^ U M 7 * X               *.*.*.*.*.*.*.*.*.*.*.*.*.*.*.*.*.*.*.",
"*.*.*.      g / / / / / Q q ; & & 2 V ^ / / / / / / / / / / / / / / / / / ^ S 4 X               *.*.*.*.*.*.*.*.*.*.*.*.*.*.*.*.",
"*.*.      5 / / / / / W 3 + < y t , O p / / / / / / / / / / / / / / / / / / / / / S 2 O             *.*.*.*.*.*.*.*.*.*.*.*.*.*.",
"*.*.    o ! / / / / / 6 % u @.$.#.o.w @ A / / / / / / / / / / / / / / / / / / / / / / ! i *             *.*.*.*.        *.*.*.*.",
"*.      7 / / / / / W @ r #.&.&.&.&.o.> 5 / / / / / / / / / / / / / / / / / / / / / / / / / P : .         *.*.*.*.*.*.*.*.*.*.*.",
"*.    . U / / / / / A . ..&.&.@.&.&.#.e = ! / / / / / / / / / / / / / / / / / / / / / / / / / / P ;           *.*.*.*.*.*.*.*.*.",
"*.    O ^ / / / / / V . X.&.@.  @.&.#.r * Q / / / / / / / / / / / / / / / / / / / / / / / / / / / / V =         *.*.*.*.*.*.*.*.",
"*.    ; / / / / / / T o y %.&.@.&.&.+., 1 ^ / / / / / / / / / / / / / / / / / / / / / / / / / / / / / ^ 5       *.*.*.*.*.*.*.*.",
"*.    5 / / / / / / ^ 1 % ..%.&.&.@.y o d / / / / / / / / / / / / / / / / / / / / / / / / / / / ^ / / / / 6       *.*.*.*.*.*.*.",
"    . V / / / / / / / S = - y X. .w # 5 / / / / / / / / / / / / / / / / / / / / / / / / / / I V V S Q ^ / / 5       *.*.*.*.*.*.",
"    . Q / / / / *./ / / P 2 O . . = 0 ~ / / / / / / / / / / / / / / / / / / / / / / / / / I V F D s V A S W ~ :       *.*.*.*.*.",
"    o / / / / / *./ / / / / W S S ! / / / / / / / / / / / / / / / / / / / / / / / / / / R g G ' { ` D q s V R Y @       *.*.*.*.",
"    @ / / / / / / / / / / / / / / / / / / / / / / / / / / / / / / / / / / / / / / / / / U C ) | O.O.) H ( D V / V .     *.*.*.*.",
"    & / / / / / / / / / / / / / / / / / / / / / / / / / / / / / / / / / / / / / / / / / Y V K O.O.} _ K O.) a T / :     X *.*.*.",
"    * ^ / / / / / / / / / / / / / / / / ~ T R / / / / / / / / / / / / / / / *./ / / / / ! Z x ` O.O.' ` O.] C V ~ P .     *.*.*.",
"    @ / / / / / / / / / / / / / / / W 8 = o @ : j / / / / / / / / / / / / / / / / / / / / W f C ` O.O.| O.{ G V / / 1     . *.*.",
"    o ^ / / / / / / / / / / / / / T : + w y t > + q / / / / / / / / / / / / / / / / / / / ^ U V H { O.{ [ _ C V / ~ U X     *.*.",
"    o ^ / / / / / / / / / / / / / 6 $ u @.$.#.o.w o V / / / / / / / / / / / / / / / / / / / ^ V b } ] E J b j R / ~ / 1     *.*.",
"    X ! / / / / / / / / / / / *.R O e #.&.&.&.&.o.- 3 / / / / / / / / / / / / / / / / / / / W s E [ c d M S ! / / ^ / V       *.",
"    . T / / / / / / / / / / *./ A . ..&.&.@.&.&.#.e = Q / / / / / / / / / / / / / / / / / / j C [ K a T ^ / / / / / / ~ @     *.",
"      S / / / / / / / / / / / / A . X.&.@.  @.&.#.r = Q / / / / / / / / / / / / / / / / / U q ) { D n / / / / / / / / / 4     *.",
"      j / / / / / / / / / / / / R o y %.&.@.&.&.+., 2 / / / / / / / / / / / / / / / / / ! j D { ` s P / / / / / / / / / l       ",
"*.    d / / / / / / / / / / / / ~ 4 % ..%.&.%.@.y + l / / / / / / / / / / / / / / / / / I q ` O.K a ~ / / / / / *./ / / T .     ",
"*.    8 / / / / / / / / / / / / / U ; - y X. .w # 8 / / / / / / / / / / / / / / / / / W V H } } x Z ^ / / / / / / / / / W .     ",
"*.    = / / / / / / / / / / / / / / Y 6 @ X o = p / / / / / / / / / / / / / / / ^ U A V x ` O.) h U / / / / / / / / / / ^ o     ",
"*.    o ~ / / / / / / / / / / / / *.*./ ! I T ~ / / / / / / / / / / / / / / / ~ V g C J _ } | J l ! / / / / / *./ / / / ^ o     ",
"*..     A / / / / / / / / / / / / / / / / / / / / / / / / / / / / / / / / / / U k E ] } | | { H n ! / / / / / *./ / / / / O     ",
"*.*.    3 / / / / / / / / / / / / / / / / / / / / / / / / / / / / / / / / / / P s ` | } ) ] | K k R / / / *.*./ / / / / / &     ",
"*.*.    o ! / / / *./ / / / / / / / / / / / / / / / / / / / / / / / / / / / / R a D ( K b ` | ' b n R / *.*.*./ / / / / / @     ",
"*.*.      d / / / / *./ / / / / / / / / / / / / / / / / / / / / / / / / / / / / P n h i H [ | | _ b S ^ *./ / / / / / / / X     ",
"*.*.*.    & ^ / / / / / / / / / / / / / / / / / / / / / / / / / / / / / / / / / ^ ! U n ( { | O.' C Z ^ / / / / / / / / P       ",
"*.*.*.      q / / / / / / / / / / / / / / / / / / / / / / *.*.*.*./ / / / / / / / / ~ V D _ } { ( z P / / / / / / / / R &       ",
"*.*.*.*.    . S / / / / / / / / / / / / / / / / / / / / / / / / / / / / / / / / / / / T g x D c f V ! / / / / / / W 9 X       *.",
"*.*.*.*.      @ T / / / / / / / / / / / / / / / / / / / / / / / / / / / / / / / / / / / R S A P R / / / / / / / ! *         *.*.",
"*.*.*.*.*.      O V / / / / / / / / / / / / / / / / / / / / / / / / / / / / / / / / / / / / / / / / / / ^ T n 4 @         *.*.*.",
"*.*.*.*.*.*.      . = 9 P / / / / / / / / / / / / / / / / / / / / / / / / / / / / / / / ^ W Y M j i 3 * o .               *.*.*.",
"*.*.*.*.*.*.*.            X = ; 6 0 j A Y R R R R R R R R R P n l j j j j l i 6 5 : * @ o . .                       *.*.*.*.*.*.",
"*.*.*.*.*.*.*.*.*.                        . . . . . . . . .                                                   *.*.*.*.*.*.*.*.*.",
"*.*.*.*.*.*.*.*.*.*.*.                                                                          *.*.*.*.*.*.*.*.*.*.*.*.*.*.*.*.",
"*.*.*.*.*.*.*.*.*.*.*.*.*.*.*.*.*.*.                            *.*.*.*.*.*.*.*.*.*.*.*.*.*.*.*.*.*.*.*.*.*.*.*.*.*.*.*.*.*.*.*.",
"*.*.*.*.*.*.*.*.*.*.*.*.*.*.*.*.*.*.*.*.*.*.*.*.*.*.*.*.*.*.*.*.*.*.*.*.*.*.*.*.*.*.*.*.*.*.*.*.*.*.*.*.*.*.*.*.*.*.*.*.*.*.*.*."
};
