/* XPM */
static char *result[] = {
/* columns rows colors chars-per-pixel */
"64 64 96 2 ",
"   c #000000",
".  c #000609",
"X  c #00090C",
"o  c #010E12",
"O  c #031115",
"+  c #0D1112",
"@  c #00141C",
"#  c #0E1618",
"$  c #141616",
"%  c #141718",
"&  c #001B24",
"*  c #001F29",
"=  c #00212C",
"-  c #1F2121",
";  c #002633",
":  c #002836",
">  c #002D3C",
",  c #222323",
"<  c #2B2C2C",
"1  c #3F3F3F",
"2  c #003243",
"3  c #00374A",
"4  c #003A4D",
"5  c #003D51",
"6  c #004157",
"7  c #00445B",
"8  c #004C65",
"9  c #004F69",
"0  c #00526D",
"q  c #005571",
"w  c #005876",
"e  c #005B7A",
"r  c #4B4B4B",
"t  c #535353",
"y  c gray35",
"u  c gray39",
"i  c gray42",
"p  c #797979",
"a  c #016384",
"s  c #006689",
"d  c #02698C",
"f  c #0B6C8D",
"g  c #006D91",
"h  c #007096",
"j  c #00759C",
"k  c #0A779B",
"l  c #08789D",
"z  c #137494",
"x  c #137A9D",
"c  c #1C7C9C",
"v  c #0077A0",
"b  c #017AA3",
"n  c #007FA9",
"m  c #0082AD",
"M  c #0086B3",
"N  c #0088B6",
"B  c #008CBA",
"V  c #2384A4",
"C  c #2387A8",
"Z  c #2D8DAD",
"A  c #3595B5",
"S  c #3B9BBB",
"D  c #008FC0",
"F  c #0092C3",
"G  c #0096C9",
"H  c #009ACE",
"J  c #009ED3",
"K  c #00A0D6",
"L  c #00A4DB",
"P  c #00AAE4",
"I  c #00AEE9",
"U  c #00B1EC",
"Y  c #00B6F3",
"T  c #00B9F7",
"R  c #00BFFF",
"E  c #45A5C5",
"W  c #4CACCC",
"Q  c #56B6D6",
"!  c #5BBBDB",
"~  c #64C4E5",
"^  c #65C7E8",
"/  c #68C7E8",
"(  c #6BCBEB",
")  c #74D4F4",
"_  c #7EDDFE",
"`  c #939393",
"'  c #9A9A9A",
"]  c gray64",
"[  c #BDBDBD",
"{  c gray80",
"}  c #D9D9D9",
"|  c #E4E4E4",
" . c #EAEAEA",
".. c #F3F3F3",
"X. c #FDFDFD",
"o. c None",
/* pixels */
"o.o.o.o.o.o.o.o.o.o.o.o.o.o.o.o.o.o.o.o.o.o.o.o.o.o.o.o.o.o.o.o.o.o.o.o.o.o.o.o.o.o.o.o.o.o.o.o.o.o.o.o.o.o.o.o.o.o.o.o.o.o.o.o.",
"o.o.o.o.o.o.o.o.o.o.o.o.o.o.o.o.o.o.o.o.o.o.o.o.o.o.o.o.o.o.o.o.o.o.o.o.o.o.o.o.o.o.o.o.o.o.o.o.o.o.o.o.o.o.o.o.o.o.o.o.o.o.o.o.",
"o.o.o.o.o.o.o.o.o.o.o.o.o.o.o.o.o.o.o.o.o.o.o.o.o.o.o.o.o.o.o.o.o.o.o.o.o.o.o.o.o.o.o.o.o.o.o.o.o.o.o.o.o.o.o.o.o.o.o.o.o.o.o.o.",
"o.o.o.o.o.o.o.o.o.o.o.o.o.o.o.o.o.o.o.o.o.o.o.o.o.o.o.o.o.o.o.o.o.o.o.o.o.o.o.o.o.o.o.o.o.o.o.o.o.o.o.o.o.o.o.o.o.o.o.o.o.o.o.o.",
"o.o.o.o.o.o.o.o.o.o.o.o.o.o.o.o.o.o.o.o.o.o.o.o.o.o.o.o.o.o.o.o.o.o.o.o.o.o.o.o.o.o.o.o.o.o.o.o.o.o.o.o.o.o.o.o.o.o.o.o.o.o.o.o.",
"o.o.o.o.o.o.o.o.o.o.o.o.o.o.o.o.o.o.o.o.o.o.o.o.o.o.o.o.o.o.o.o.o.o.o.o.o.o.o.o.o.o.o.o.o.o.o.o.o.o.o.o.o.o.o.o.o.o.o.o.o.o.o.o.",
"o.o.o.o.o.o.o.o.o.o.o.o.o.o.o.o.o.o.o.o.o.o.o.o.o.o.o.o.o.o.o.o.o.o.o.o.o.o.o.o.o.o.o.o.o.o.o.o.o.o.o.o.o.o.o.o.o.o.o.o.o.o.o.o.",
"o.o.o.o.o.o.o.o.o.o.o.o.o.o.o.o.o.o.o.o.o.o.o.o.              o.o.o.o.o.o.o.o.o.o.o.o.o.o.o.o.o.o.o.o.o.o.o.o.o.o.o.o.o.o.o.o.o.",
"o.o.o.o.o.o.o.o.o.o.o.o.o.o.o.o.o.o.o.o.o.                            o.o.o.o.o.o.o.o.o.o.o.o.o.o.o.o.o.o.o.o.o.o.o.o.o.o.o.o.o.",
"o.o.o.o.o.o.o.o.o.o.o.o.o.o.o.o.o.o.                                      o.o.o.o.o.o.o.o.o.o.o.o.o.o.o.o.o.o.o.o.o.o.o.o.o.o.o.",
"o.o.o.o.o.o.o.o.o.o.o.o.o.o.o.                . o @ & @ @ O .                 o.o.o.o.o.o.o.o.o.o.o.o.o.o.o.o.o.o.o.o.o.o.o.o.o.",
"o.o.o.o.o.o.o.o.o.o.o.o.o.            . & 4 d B K P I I I K M w 2 & .           o.o.o.o.o.o.o.o.o.o.o.o.o.o.o.o.o.o.o.o.o.o.o.o.",
"o.o.o.o.o.o.o.o.o.o.o.            @ 7 B U R R R R R R R R R R R R R J >           o.o.o.o.o.o.o.o.o.o.o.o.o.o.o.o.o.o.o.o.o.o.o.",
"o.o.o.o.o.o.o.o.o.o.          X 0 U R R R R R R R R R R R R R R R R R T 9 .         o.o.o.o.o.o.o.o.o.o.o.o.o.o.o.o.o.o.o.o.o.o.",
"o.o.o.o.o.o.o.o.o.          > J R R R R R R R R R R R R R R R R R R R R R j o         o.o.o.o.o.o.o.o.o.o.o.o.o.o.o.o.o.o.o.o.o.",
"o.o.o.o.o.o.o.o.        . g R R R R R R R R R R R R R R R R R R R R R R R R G o       o.o.o.o.o.o.o.o.o.o.o.o.o.o.o.o.o.o.o.o.o.",
"o.o.o.o.o.o.          @ L R R R R R R R R R R R R R R R R R R R R R R R R R R L         o.o.o.o.o.o.o.o.o.o.o.o.o.o.o.o.o.o.o.o.",
"o.o.o.o.o.o.        > T R R R R R R R R R R R R R R R R R R R R R R R R R R R R o.        o.o.o.o.o.o.o.o.o.o.o.o.o.o.o.o.o.o.o.",
"o.o.o.o.o.        4 R R R R R R R R R R R R R R R R R R R R R R R R R R R R R R o.4       o.o.o.o.o.o.o.o.o.o.o.o.o.o.o.o.o.o.o.",
"o.o.o.o.o.      3 R R R R R R R R R R T L P R R R R R R R R R R R R R R R R R R R Y o       o.o.o.o.o.o.o.o.o.o.o.o.o.o.o.o.o.o.",
"o.o.o.o.      @ R R R R R R R R R I e : @ = 3 m R R R R R R R R R R R R R R R R R R n         o.o.o.o.o.o.o.o.o.o.o.o.o.o.o.o.o.",
"o.o.o.o.      0 R R R R R R R R P 4 + 1 i u < O s R R R R R R R R R R R R R R R R R R 3       o.o.o.o.o.o.o.o.o.o.o.o.o.o.o.o.o.",
"o.o.o.o.      F R R R R R R R R 7 % p }  .| [ r O N R R R R R R R R R R R R R R R R R U O       o.o.o.o.o.o.o.o.o.o.o.o.o.o.o.o.",
"o.o.o.      O T R R R R R R R P @ y | X.X.X.X.[ , 6 R R R R R R R R R R R R R R R R R R L .       o.o.o.o.o.o.o.o.o.o.o.o.o.o.o.",
"o.o.o.      = R R R R R R R R B . ' X.X.} X.X.| t = U R R R R R R R Y L P R R R R R R R R B .       o.o.o.o.o.o.o.o.o.o.o.o.o.o.",
"o.o.o.      : R R R R R R R R m . ] X.}   } X.| y * P R R R R R P 0 = O O > j T R R R R R R m         o.o.o.o.o.o.o.o.o.o.o.o.o.",
"o.o.o.      2 R R R R R R R R K X i ..X.} X.X.{ < 2 T R R R R K > + 1 i u < O e R R R R R R R 8       o.o.o.o.o.o.o.o.o.o.o.o.o.",
"o.o.o.      4 R R R R R R R R T 2 - ` ..X...} i + h R R R R R 6 % p }  .| [ r O m R R R R R R T @       o.o.o.o.o.o.o.o.o.o.o.o.",
"o.o.o.      : R R R R R R R R R F * - i ] ` r + 7 T R R R R L @ y | X.X.X.X.[ , 5 R R R R R R R m       o.o.o.o.o.o.o.o.o.o.o.o.",
"o.o.o.      ; R R R R R R R R R R G 3 O . . & w T R R R R R M . ' X.X.} X.X.| t = U R R R R R R R *       o.o.o.o.o.o.o.o.o.o.o.",
"o.o.o.      > R R R R R R R R R R R R L N F I R R R R R R R M . ] X.}   } X.| y = P R R R R R R R N       o.o.o.o.o.o.o.o.o.o.o.",
"o.o.o.      ; R R R R R R R R R R R R R R R R R R R R R R R L o i ..X.} X.X.{ < 2 R R R R R R R R T @       o.o.o.o.o.o.o.o.o.o.",
"o.o.o.      @ R R R R R R R R R R R R R R R R R R R R R R R R 4 % ' ......} i # j R R R R R R R R R g       o.o.o.o.o.o.o.o.o.o.",
"o.o.o.    . @ R R R R R R R R R R R R R R R R R R R R R R R R H ; , i ] ` r # 8 R R R R R R R R R R T o       o.o.o.o.o.o.o.o.o.",
"o.o.        6 R R R R R R R R R R R R R R R R R R R R R R R R R K 7 @ . o = d T R R R R R R R R R R R 9       o.o.o.o.o.o.o.o.o.",
"o.o.      . M R R R R R R R R R R R R R R R R R R R R R R R R R R R I G J T R R R R R R R R R R R R R L .       o.o.o.o.o.o.o.o.",
"o.o.      @ I R R R R R R R R R R R R R R R R R R R R R R R R R R R R R R R R R R R R R R R R R R R R R >       o.o.o.o.o.o.o.o.",
"o.o.    . 6 T R R R R R R R R R R R R R R R R R R R R R R R R R R R R R R R R R R R R R R R R R R R R R b .     o.o.o.o.o.o.o.o.",
"o.o.    . h R R R R R R R R R R R R R R R R R R R R R U U R R R R R R R R R R R R R R R R R R R R R R R Y O       o.o.o.o.o.o.o.",
"o.o.    O K R Y R R R R R R R R R R R R R R R R R U B m j b H R R R R R R R R R R R R R R R R R R R R R R >       o.o.o.o.o.o.o.",
"o.      & P R L R R R R R R R R R R R R R R R R B d z Z A V d L R R R R R R R R R R R R R R R R R R R R R d       o.o.o.o.o.o.o.",
"o.      = Y R P R R R R R R R R R R R R R R R J d S ( _ _ ( c B T R R R R R R R R R R R R R R R R R R R R P .       o.o.o.o.o.o.",
"o.      ; Y R T R R R R R R R R R R R R R R R M a W ) _ _ _ Z m Y R R R R R R R R R R R R R R R R R R R R R =       o.o.o.o.o.o.",
"o.      > T R R R R R R R R R R R R R R R R K g z V V ^ _ ) Z j Y R R R R R R R R R R R R R R R R R R R R R 9       o.o.o.o.o.o.",
"o.      5 T R R R R R R R R R R R R R R R T m V ( _ ) ) _ _ W f b P T R R R R R R R R R R R R R R R R R R R F       o.o.o.o.o.o.",
"o.      9 R T R R R R R R R R R R R R R R L z E _ _ _ _ _ ( ) Q z a m K R R R R R Y I U R R R R R R R R R R R O       o.o.o.o.o.",
"o.      w R R R R R R R R R R R R R R R R L k E _ _ _ ( S V Z ^ _ E z d n K R R P m l j H R R R R R R R R R R >       o.o.o.o.o.",
"o.      e R R R R R R R R R R R R R R R R Y j V ) ) ! V g m g z ! _ ) S c s j m d c A V d P R R R R R R R R R 0       o.o.o.o.o.",
"o.      s R R R R R R R R R R R R R R R R R K d z z a h J R L j f E ) _ ~ E C V S ) _ / c B U R R R R R R R R B       o.o.o.o.o.",
"o.      d R R R R R R R R R R R R R R R R R R L B B J R R R R T M a Z ~ _ _ ) ) _ _ _ _ A m U R R R R R R R R U o     o.o.o.o.o.",
"o.      d R R R R R R R R R R R R R R R R R R R T R R R R R R R R G h c W ) _ _ ) _ _ ) Z b R R R R R R R R R R @       o.o.o.o.",
"o.      s R R R R R R R R R R R R R R R R R R R R R R R R R R R R R L m z Q _ E V Q ) W z N R R R R R R R R R R &       o.o.o.o.",
"o.      8 R R R R R R R R R R R R R R R R R R R R R R R R R R R R R R P k S _ / V s C x b U R R R R R R R R R R @       o.o.o.o.",
"o.      7 R R R R R R R R R R R R R R R R R R R R R R R R R R R R R R Y m Z _ _ A d B B I R R R R R R R R R R U .       o.o.o.o.",
"o.      5 R R R R R R R R R R R R R R R R R R R R R R R R R R R R R R R m z ~ ^ f M R R R R R R R R R R R R R 2       o.o.o.o.o.",
"o.      > R R R R R R R R R R R R R R R R R R R R R R R R R R R R R R R L g z f h L R R R R R R R R R R R R 7         o.o.o.o.o.",
"o.      X P R R R R R R R R R R R R R R R R R R R R R R R R R R R R R R R L B F I R R R R R R R R R R R T 7         o.o.o.o.o.o.",
"o.o.      ; U R R R R R R R R R R R R R R R R R R R R R R R R R R R R R R R R R R R R R R R R R R R R P >         o.o.o.o.o.o.o.",
"o.o.        = K R R R R R R R R R R R R R R R R R R R R R R R R R R R R R R R R R R R R R R R R R P 8 .         o.o.o.o.o.o.o.o.",
"o.o.o.        . = 6 m U R R R R R R R R R R R R R R R R R R R R R R R R R R T T R R R R R R P g : .           o.o.o.o.o.o.o.o.o.",
"o.o.o.o.              . . . o O @ @ & & & * > g m j d a d n N K T L T R R R R R R L B w > @ .               o.o.o.o.o.o.o.o.o.o.",
"o.o.o.o.o.                                                      . . . . . . . . .                       o.o.o.o.o.o.o.o.o.o.o.o.",
"o.o.o.o.o.o.o.                                                                                      o.o.o.o.o.o.o.o.o.o.o.o.o.o.",
"o.o.o.o.o.o.o.o.o.o.o.o.o.o.o.o.                                                            o.o.o.o.o.o.o.o.o.o.o.o.o.o.o.o.o.o."
};
