/* XPM */
static char *result[] = {
/* columns rows colors chars-per-pixel */
"64 64 613 2 ",
"   c #00000000",
" ! c #06000000",
" # c #48000000",
" $ c #85000000",
" % c #6A000000",
" & c #63000000",
" ' c #2A000000",
" ( c #81000000",
" ) c #F3000000",
" * c #FE000000",
" + c #FC000203",
" , c #F9000406",
" - c #F9000405",
" . c #FB000304",
" / c #F9000507",
" 0 c #F8000507",
" 1 c #F8000000",
" 2 c #EB000000",
" 3 c #15000000",
" 4 c #01000000",
" 5 c #04000000",
" 6 c #1A000000",
" 7 c #36000000",
" 8 c #46000000",
" 9 c #40000000",
" : c #18000000",
" ; c #0E000000",
" < c #0A000000",
" = c #F2000000",
" > c #FD000000",
" ? c #9E00769E",
" @ c #94008AB8",
" A c #94008BBA",
" B c #940089B8",
" C c #970084B1",
" D c #9B007BA4",
" E c #A2006E93",
" F c #F0000000",
" G c #20000000",
" H c #02000000",
" I c #0F000000",
" J c #45000000",
" K c #D6000000",
" L c #FA000304",
" M c #FC000000",
" N c #F6000000",
" O c #D7000000",
" P c #74000000",
" Q c #05000000",
" R c #8D000000",
" S c #E9000000",
" T c #F4000000",
" U c #FD000102",
" V c #FA000305",
" W c #F6000609",
" X c #0C000000",
" Y c #16000000",
" Z c #EA000000",
" [ c #B300526D",
" \ c #8000BFFF",
" ] c #8100BCFB",
" ^ c #F8000506",
" _ c #76000000",
" ` c #03000000",
" a c #08000000",
" b c #1F000000",
" c c #67000000",
" d c #7B000000",
" e c #89000000",
" f c #8C000000",
" g c #6D000000",
" h c #3F000000",
" i c #22000000",
" j c #F8000406",
" k c #9F007399",
" l c #FB000000",
" m c #94000000",
" n c #1C000000",
" o c #37000000",
" p c #62000000",
" q c #98000000",
" r c #AE000000",
" s c #BF000000",
" t c #C6000000",
" u c #D0000000",
" v c #D1000000",
" w c #CD000000",
" x c #A2000000",
" y c #78000000",
" z c #26000000",
" { c #C9000000",
" | c #F9000305",
" } c #F7000507",
"!  c #F5000000",
"!! c #F7000000",
"!# c #F6000709",
"!$ c #AD000000",
"!% c #E3000000",
"!& c #FA000000",
"!' c #FB000203",
"!( c #FA000405",
"!) c #FA000406",
"!* c #64000000",
"!+ c #23000000",
"!, c #33000000",
"!- c #35000000",
"!. c #F7000608",
"!/ c #D7002430",
"!0 c #B200526E",
"!1 c #8500B0EB",
"!2 c #8000BBFB",
"!3 c #8000BDFD",
"!4 c #A1006F94",
"!5 c #D1002A38",
"!6 c #9B000000",
"!7 c #39000000",
"!8 c #87000000",
"!9 c #C2000000",
"!: c #D3000000",
"!; c #A8000000",
"!< c #7A000000",
"!= c #58000000",
"!> c #4A000000",
"!? c #4C000000",
"!@ c #2D000000",
"!A c #91000000",
"!B c #E5000000",
"!C c #F8000608",
"!D c #D8000000",
"!E c #19000000",
"!F c #F9000000",
"!G c #FF000000",
"!H c #EF000000",
"!I c #C0000000",
"!J c #8A000000",
"!K c #13000000",
"!L c #07000000",
"!M c #2C000000",
"!N c #5A000000",
"!O c #80000000",
"!P c #9A000000",
"!Q c #A3000000",
"!R c #9E000000",
"!S c #93000000",
"!T c #4D000000",
"!U c #88000000",
"!V c #EF000B0E",
"!W c #EA001015",
"!X c #EC000F14",
"!Y c #F5000709",
"!Z c #FC000102",
"![ c #FE000001",
"!\ c #F1000000",
"!] c #CC000000",
"!^ c #09000000",
"!_ c #14000000",
"!` c #F8000203",
"!a c #D9001D27",
"!b c #AF005673",
"!c c #910092C3",
"!d c #8300B6F3",
"!e c #8600ACE6",
"!f c #950087B5",
"!g c #A2006D92",
"!h c #B200536F",
"!i c #CA003242",
"!j c #E9001219",
"!k c #FE000102",
"!l c #FF000001",
"!m c #E6000000",
"!n c #AA000000",
"!o c #3C000000",
"!p c #17000000",
"!q c #F9000102",
"!r c #C3003142",
"!s c #92008FC0",
"!t c #8100BAF9",
"!u c #9C0079A1",
"!v c #A9006181",
"!w c #CE002D3C",
"!x c #EB001116",
"!y c #7E000000",
"!z c #2E000000",
"!{ c #3D000000",
"!| c #50000000",
"!} c #53000000",
"#  c #3B000000",
"#! c #A6000000",
"## c #F7000305",
"#$ c #8200B7F5",
"#% c #8A00A3DA",
"#& c #8700ABE4",
"#' c #8F0095C7",
"#( c #B6004C66",
"#) c #D900222D",
"#* c #F500080B",
"#+ c #ED000000",
"#, c #9D000000",
"#- c #27000000",
"#. c #BC000000",
"#/ c #E1000000",
"#0 c #29000000",
"#1 c #8600ADE8",
"#2 c #AB005D7D",
"#3 c #D4002734",
"#4 c #E400161E",
"#5 c #E1001A23",
"#6 c #C500384B",
"#7 c #980081AC",
"#8 c #8800A7DF",
"#9 c #B5004F69",
"#: c #E300171F",
"#; c #1D000000",
"#< c #900091C3",
"#= c #B5000000",
"#> c #BE004258",
"#? c #8800A8E1",
"#@ c #C500394D",
"#A c #FB0D1011",
"#B c #FF3F3F3F",
"#C c #FF6F6F6F",
"#D c #FF636363",
"#E c #FF282828",
"#F c #ED031218",
"#G c #A6006688",
"#H c #970083AF",
"#I c #D3002735",
"#J c #B2000000",
"#K c #990080AB",
"#L c #8A00A1D8",
"#M c #A7000000",
"#N c #EC001015",
"#O c #8400B1ED",
"#P c #BA00475F",
"#Q c #FC141718",
"#R c #FF797979",
"#S c #FFD9D9D9",
"#T c #FFEAEAEA",
"#U c #FFE6E6E6",
"#V c #FFBFBFBF",
"#W c #FF4C4C4C",
"#X c #ED031217",
"#Y c #8E0097CA",
"#Z c #C8003547",
"#[ c #1E000000",
"#\ c #A1000000",
"#] c #A9000000",
"#^ c #A0000000",
"#_ c #B9004860",
"#` c #E700141B",
"#a c #FF585858",
"#b c #FFE4E4E4",
"#c c #FFFEFEFE",
"#d c #FFFFFFFF",
"#e c #FFFBFBFB",
"#f c #FFBABABA",
"#g c #FE222323",
"#h c #BE004157",
"#i c #BD004259",
"#j c #F300090C",
"#k c #7C000000",
"#l c #1B000000",
"#m c #32000000",
"#n c #30000000",
"#o c #8C009CD1",
"#p c #FF9B9B9B",
"#q c #FFFAFAFA",
"#r c #FFE2E2E2",
"#s c #FF535353",
"#t c #DA00212C",
"#u c #8B00A0D6",
"#v c #C7003547",
"#w c #DA000000",
"#x c #55000000",
"#y c #12000000",
"#z c #8200B9F7",
"#{ c #FFA5A5A5",
"#| c #FF5A5A5A",
"#} c #DC001E28",
"$  c #900093C4",
"$! c #B4000000",
"$# c #21000000",
"$$ c #D5002633",
"$% c #EF000C11",
"$& c #FF6A6A6A",
"$' c #FFF1F1F1",
"$( c #FFFDFDFD",
"$) c #FFCCCCCC",
"$* c #FF2E2F2F",
"$+ c #CA003344",
"$, c #E7000000",
"$- c #61000000",
"$. c #6F000000",
"$/ c #C8003446",
"$0 c #FE1F2121",
"$1 c #FF999999",
"$2 c #FFF0F0F0",
"$3 c #FFF9F9F9",
"$4 c #FFF7F7F7",
"$5 c #FFDBDBDB",
"$6 c #FF6B6B6B",
"$7 c #F7070E11",
"$8 c #A1007096",
"$9 c #8100BDFD",
"$: c #F500070A",
"$; c #AB000000",
"$< c #99007FAA",
"$= c #DE011E27",
"$> c #FE1F2020",
"$? c #FF686868",
"$@ c #FFA1A1A1",
"$A c #FF939393",
"$B c #FF4A4A4A",
"$C c #F70D1315",
"$D c #8600B6F3",
"$E c #9D009CD0",
"$F c #B40088B5",
"$G c #AF008BBA",
"$H c #9600A2D9",
"$I c #8E0099CC",
"$J c #DB00202B",
"$K c #CF000000",
"$L c #8500AFE9",
"$M c #8F0096C9",
"$N c #C600374A",
"$O c #F400090C",
"$P c #E0001A23",
"$Q c #AE005A78",
"$R c #8C00AEE9",
"$S c #B90084B0",
"$T c #E5107B9E",
"$U c #F81E81A2",
"$V c #FE157696",
"$W c #EB046C8E",
"$X c #CF01779E",
"$Y c #BF0282AD",
"$Z c #A8008FBF",
"$[ c #B2005775",
"$\ c #F400080B",
"$] c #B6000000",
"$^ c #DF000000",
"$_ c #950089B7",
"$` c #F10B7193",
"$a c #FF3A9ABA",
"$b c #FF6ACAEA",
"$c c #FE71D1F2",
"$d c #FE3C9CBD",
"$e c #FC0E6F8F",
"$f c #FB0D6E8F",
"$g c #ED0A7194",
"$h c #B80287B4",
"$i c #930094C6",
"$j c #DC001F29",
"$k c #0D000000",
"$l c #DF001C25",
"$m c #C5007CA5",
"$n c #FD3091B1",
"$o c #FF72D2F2",
"$p c #FF7FDEFF",
"$q c #FF60BFE0",
"$r c #FF3090B0",
"$s c #FF47A7C7",
"$t c #EC12799C",
"$u c #AA008FC0",
"$v c #8400B2EF",
"$w c #FD000203",
"$x c #C7000000",
"$y c #8400B9F7",
"$z c #F41F84A5",
"${ c #FF66C5E6",
"$| c #FF70D0F0",
"$} c #FF3797B7",
"%  c #FF5EBEDE",
"%! c #FF7BDAFB",
"%# c #FF3292B2",
"%$ c #CC057DA5",
"%% c #8F00AAE4",
"%& c #4E000000",
"%' c #D6002430",
"%( c #8700A9E2",
"%) c #9800A0D6",
"%* c #E6006A8D",
"%+ c #FF3F9FBF",
"%, c #FF77D7F7",
"%- c #FF77D6F7",
"%. c #FD67C7E8",
"%/ c #FE76D6F7",
"%0 c #FF4EAECE",
"%1 c #E4107B9F",
"%2 c #9F0099CD",
"%3 c #B4004F6A",
"%4 c #DD001E28",
"%5 c #CD002F3F",
"%6 c #9F00749B",
"%7 c #BB0082AE",
"%8 c #EF0D7396",
"%9 c #FF3C9CBC",
"%: c #FF6FCEEF",
"%; c #FE7EDEFE",
"%< c #FF5ABADA",
"%= c #F7117495",
"%> c #A10097CA",
"%? c #CF002C3B",
"%@ c #B8000000",
"%A c #E2000000",
"%B c #EB001015",
"%C c #CC003040",
"%D c #FC0D1010",
"%E c #F0031014",
"%F c #AD005B7A",
"%G c #8800B3F0",
"%H c #AE008CBB",
"%I c #F103698B",
"%J c #FF48A8C8",
"%K c #FF7AD9FA",
"%L c #FF7CDBFC",
"%M c #FF72D1F2",
"%N c #FF3393B3",
"%O c #E4077296",
"%P c #9700A1D8",
"%Q c #ED000F14",
"%R c #FD141616",
"%S c #FF787878",
"%T c #F0030F13",
"%U c #D7007197",
"%V c #FD41A1C2",
"%W c #FF50B0D0",
"%X c #FF2484A4",
"%Y c #FD187999",
"%Z c #E109759A",
"%[ c #A80092C3",
"%\ c #C7003649",
"%] c #D5000000",
"%^ c #E9001218",
"%_ c #C2003D51",
"%` c #9E009ACE",
"%a c #FF4FAFCF",
"%b c #FF62C2E2",
"%c c #FB167798",
"%d c #C40480AA",
"%e c #AC008EBE",
"%f c #9D009BCF",
"%g c #8500B7F5",
"%h c #DC000000",
"%i c #BA000000",
"%j c #C7007AA4",
"%k c #FC177898",
"%l c #FF71D0F1",
"%m c #FF3191B1",
"%n c #E6077295",
"%o c #9602A5DB",
"%p c #8300BAF9",
"%q c #E800131A",
"%r c #93008CBB",
"%s c #960085B2",
"%t c #9500A4DB",
"%u c #EE006689",
"%v c #FF4CACCC",
"%w c #FF75D4F5",
"%x c #FF1F7F9F",
"%y c #C4017EA8",
"%z c #C1003E53",
"%{ c #5E000000",
"%| c #EE000E13",
"%} c #BD0081AC",
"&  c #FD1A7B9B",
"&! c #FF66C6E6",
"&# c #F90A6C8D",
"&$ c #AB008EBE",
"&% c #9D0078A0",
"&& c #9C000000",
"&' c #C4003A4E",
"&( c #FD1F2121",
"&) c #F5071013",
"&* c #9000A9E2",
"&+ c #E8036C8F",
"&, c #FF40A0C0",
"&- c #EE036A8C",
"&. c #8D009ACE",
"&/ c #D801242F",
"&0 c #F50E1618",
"&1 c #B5004E68",
"&2 c #B40087B5",
"&3 c #FF0E6E8E",
"&4 c #FF7DDCFD",
"&5 c #FE2D8DAE",
"&6 c #D200749B",
"&7 c #31000000",
"&8 c #BC00445A",
"&9 c #F2000A0D",
"&: c #F0000C11",
"&; c #D900212C",
"&< c #A600678A",
"&= c #A90091C2",
"&> c #E4067195",
"&? c #FF2F8FAF",
"&@ c #FF7BDBFB",
"&A c #FF6DCDED",
"&B c #F91B7D9E",
"&C c #BC0082AD",
"&D c #ED000E13",
"&E c #8300B4F1",
"&F c #8C009ED3",
"&G c #8A00B1EC",
"&H c #D607799F",
"&I c #EA177FA2",
"&J c #FD3192B2",
"&K c #FF64C4E4",
"&L c #FF5DBDDD",
"&M c #F5036789",
"&N c #9A009ED3",
"&O c #E0000000",
"&P c #F30E7294",
"&Q c #FF3494B4",
"&R c #FF52B2D2",
"&S c #FF73D2F3",
"&T c #FF7ADAFA",
"&U c #FE4EAFCF",
"&V c #E60C769A",
"&W c #9C009CD1",
"&X c #E400171F",
"&Y c #EE000000",
"&Z c #C3003A4E",
"&[ c #8D00ADE7",
"&\ c #D10479A0",
"&] c #FF2C8CAC",
"&^ c #FE7ADAFB",
"&_ c #FF74D3F4",
"&` c #FF60C0E0",
"&a c #F3117697",
"&b c #C5017DA7",
"&c c #FC65C6E6",
"&d c #FF67C7E7",
"&e c #FF3999B9",
"&f c #FF79D9F9",
"&g c #FF76D6F6",
"&h c #EF0C7295",
"&i c #B1008AB8",
"&j c #8700B5F1",
"&k c #A3006C91",
"&l c #A30095C8",
"&m c #E4016C90",
"&n c #F5147799",
"&o c #F91D7FA0",
"&p c #FD167797",
"&q c #FF41A1C1",
"&r c #FF73D3F3",
"&s c #FD3E9EBF",
"&t c #DB047499",
"&u c #E3001820",
"&v c #B0008AB9",
"&w c #CD00779F",
"&x c #F1107597",
"&y c #FF53B3D3",
"&z c #E6057093",
"&{ c #9300A6DE",
"&| c #DA0E7EA3",
"&} c #FF44A4C4",
"'  c #FF76D5F6",
"'! c #FF6ECDEE",
"'# c #D603759B",
"'$ c #9100A8E1",
"'% c #8900A5DD",
"'& c #DA00202B",
"'' c #65000000",
"'( c #F600070A",
"') c #92008EBE",
"'* c #FF2A8AAA",
"'+ c #FE197A9A",
"', c #E3057095",
"'- c #A80091C2",
"'. c #B300516C",
"'/ c #F0000B0F",
"'0 c #A4000000",
"'1 c #E600151C",
"'2 c #8900B2EE",
"'3 c #AC008EBD",
"'4 c #D000759C",
"'5 c #CA0079A1",
"'6 c #AD008DBD",
"'7 c #9200A7DF",
"'8 c #8200BCFB",
"'9 c #6B000000",
"': c #9C007AA3",
"'; c #5C000000",
"'< c #9A007DA7",
"'= c #A9006283",
"'> c #47000000",
"'? c #FB000305",
"'@ c #EF000D12",
"'A c #D0002C3A",
"'B c #BD00435A",
"'C c #AF005774",
"'D c #960086B4",
"'E c #8900A4DB",
"'F c #900094C6",
"'G c #AA006081",
"'H c #CD002E3E",
"'I c #11000000",
"'J c #F7000609",
"'K c #C8000000",
"'L c #5F000000",
"'M c #42000000",
"'N c #8B000000",
"'O c #E4000000",
"'P c #D9000000",
"'Q c #99000000",
"'R c #75000000",
"'S c #4F000000",
"'T c #72000000",
"'U c #96000000",
"'V c #4B000000",
"'W c #3E000000",
/* pixels */
"                                                                                                                                ",
"                                                                                                                                ",
"                                                                                                                                ",
"                                                                                                                                ",
"                                                                                                                                ",
"                                                                                                                                ",
"                                                                                                                                ",
"                                                                                                                                ",
"                                                                                                                                ",
"                                                                                                                                ",
"                                                                                                         ! # $ % % % % % % & '  ",
"                                                                                                       ( ) * + , - - . / 0 1 2 3",
"                                             5 6 7 8 9 6 : ; 4                                       < = > 0 ? @ A B C D E 1 F G",
"                                           J K L M * * N + L O P Q                                     R S T . + U + V , L W #  ",
"                                         Y Z V [ \ \ \ \ ] C ^ * _                     4 4 4 4 4 4 4     ` a b c d e f g h 5    ",
"                               H H       i T U j \ \ \ \ \ k L l m       X n o p q r s t u u v v v w x y z 4                    ",
"                                   5 H 4   p { | }! !!!!!! N!#!$ ;     Y!% T!& 1 + . +!'!(!(!(!(!(!) 0 +!!!*                    ",
"                         H ` ` ` ` H 4       4 ` I!+!, 7!- i a         o >!.!/!0!1!2!3!3 \ \ \ \ \ \!4!5!!!6                    ",
"                 ` I!7!8!9 O K K K O!:!;!<!=!>!?!@ 3 Q 4               Q!A!B!C V . , j j j j j!( V V!! )!D o                    ",
"             4!E $!B!F *!G!G!G!G!G!G!G * * l >!G * l!H!I!J J!K H          !L!M!N!O!P!Q!Q!Q!Q!Q!R!S P!T i Q                      ",
"           ;!U!H *!G * > L!V!W!W!W!X!Y!'!Z![!G!G!G!G!G!G * l!\!]!8!@!^                                                          ",
"        !_ s *!G *!`!a!b!c!d ] ] ] ]!e!f!g!h!i!j , U![ U!k!l!G!G * 1!m!n!o Q                                                    ",
"      !p!9!G!G!q!r!s!t \ \ \ \ \ \ \ \ \ \ \ \ \ ]!e!c!u!v!w!x!)!l!G!G *!F!:!y 3                         4!^!E!z!{!|!}#  <      ",
"     4#! *!G##!v ] \ \ \ \ \ \#$#%#&!3 \ \ \ \ \ \ \ \ \ \!3!t#'#(#)#*![!G!G *#+#, i 4               Q#-#. N 1 1!&!F 1 l#/#0    ",
"    !> 1!G j!4!3 \ \ \ \ \#1#2#3#4#5#6#7 ] \ \ \ \ \ \ \ \ \ \ \ \!3#8#9#:!! *!G * )!; ' H        #;!%!F > >!c \ \ \ \#<!!#=    ",
"   Q!]!G![#> \ \ \ \ \ \#?#@#A#B#C#D#E#F#G!3 \ \ \ \ \ \ \ \ \ \ \ \ \ \!t#H#I!\ *!G!G! #J!M 4     n#+!F l#K \ \ \!3#L!Z!&#M    ",
"   9!F!G#N#O \ \ \ \ \!3#P#Q#R#S#T#U#V#W#X!f \ \ \ \ \ \ \ \ \ \ \ \ \ \ \ \!3#Y#Z#* >!G!G N#!#[    #[#\ = 1!&!&!&!&!F l#] ;    ",
" 4#^!G!l#_ \ \ \ \ \ \#&#`#a#b#c#d#d#e#f#g#h!3 \ \ \ \ \ \ \ \ \ \ \ \ \ \ \ \ \ \#L#i#j *!G *!H#k!^     5#l#m!,!-#n#l a        ",
" 5 K!G /#o \ \ \ \ \ \ @ /#p#q#d#S#d#d#r#s#t!1 \ \ \ \ \ \ \ \ \ \ \ \ \ \ \ \ \ \ \ \#u#v!.!G!G >#w#x `                        ",
"#y F!G!j#z \ \ \ \ \ \#H!)#{#e#S!G#S#d#b#|#}!e \ \ \ \ \ \ \ \ \ \ \ \ \ \ \ \ \ \ \ \ \ \$ #3 V!G!G!&$!$#                      ",
"!z 1!G$$!3 \ \ \ \ \ \#u$%$&$'#d#S#d$($)$*$+!t \ \ \ \ \ \ \ \ \ \ \ \ \ \ \ \ \ \ \ \ \ \ \!3!u#:!k!G!G$,$- !                  ",
"$. *!l#h \ \ \ \ \ \ \#$$/$0$1$2$3$4$5$6$7$8 \ \ \ \ \ \ \ \ \ \ \ \ \ \ \ \ \ \ \ \ \ \ \$9$9 \!d#9$:!G!G M!9 z H              ",
"$; * .$< \ \ \ \ \ \ \ \!c$=$>$?$@$A$B$C#i!t \ \ \ \ \ \ \ \ \ \ \ \ \ \ \ \ \ \ \ \ \ \$D$E$F$G$H$9$I$J!k!G!G!H$- `            ",
"$K!G$:$L \ \ \ \ \ \ \ \ \$M$N!x W$O$P$Q!d \ \ \ \ \ \ \ \ \ \ \ \ \ \ \ \ \ \ \ \ \ \$R$S$T$U$V$W$X$Y$Z$[$\!l!G >$] <          ",
"$^!G!X!t \ \ \ \ \ \ \ \ \ \ ]#8$_!c$L ] \ \ \ \ \ \ \ \ \ \ \ \ \ \ \ \ \ \ \ \ \ \ \$G$`$a$b$c$d$e$f$g$h$i$j![!G!G!%$k        ",
"#+!G$l!3 \ \ \ \ \ \ \ \ \ \ \ \ \ \ \ \ \ \ \ \ \ \ \ \ \ \ \ \ \ \ \ \ \ \ \ \ \ \ \$m$n$o$p$p$q$r$s$s$t$u$v#i$w!G!G$x        ",
"!H!G!/!3 \ \ \ \ \ \ \ \ \ \ \ \ \ \ \ \ \ \ \ \ \ \ \ \ \ \ \ \ \ \ \ \ \ \ \ \ \ \$y$S$z${$p$p$|$}% %!%#%$%%!3 [![!G *%&      ",
"!H!G%'!3 \ \ \ \ \ \ \ \ \ \ \ \ \ \ \ \ \#$#%%( ] \ \ \ \ \ \ \ \ \ \ \ \ \ \ \ \ \ \%)%*%+%,$p%-%.%/$p%0%1%2 \#z#v *!G =!+    ",
"!H!G#5!3 \ \ \ \ \ \ \ \ \ \ \ \ \ \ \ \%(%3%4#N!j%5%6#z \ \ \ \ \ \ \ \ \ \ \ \ \ \ \ \%7%8%9%:%;%;$p$p%<%=%> \ ]#z%? *!G%@ Q  ",
"%A!G%B ] \ \ \ \ \ \ \ \ \ \ \ \ \ \ \#u%C%D#B#C#D#E%E%F ] \ \ \ \ \ \ \ \ \ \ \ \ \ \ \%G%H%I%J%K%L%K%M%N%O%P \ \ ]#o#*!G N!+  ",
" O!G%Q ] \ \ \ \ \ \ \ \ \ \ \ \ \ \ ]#>%R%S#S#T#U#V#W%T#7 \ \ \ \ \ \ \ \ \ \ \ \ \ \ \ \ \%U%V%,%W%X%Y%Z%[$D \ \!d \%\ * *#k  ",
"%]!G$O$L \ \ \ \ \ \ \ \ \ \ \ \ \ \#?%^#a#b#c#d#d#e#f#g%_!3 \ \ \ \ \ \ \ \ \ \ \ \ \ \ \%`$W%a%b%c%d%e%f%g \ \ \!t \#K +!G%h X",
"%i!G!C#L \ \ \ \ \ \ \ \ \ \ \ \ \ \!f /#p#q#d#S#d#d#r#s$J$L \ \ \ \ \ \ \ \ \ \ \ \ \ \ \%j%k%l%m%n%o%p$9 \ \ \ \!3 \#$%q!G N z",
"!R * V%r \ \ \ \ \ \ \ \ \ \ \ \ \ \%s!)#{#e#S!G#S#d#b#|$j#1 \ \ \ \ \ \ \ \ \ \ \ \ \ \%t%u%v%w%x%y%p \ \ \ \ \ \ \ ] \%z!l >%{",
"!O > + k \ \ \ \ \ \ \ \ \ \ \ \ \ \#%%|$&$'#d#S#d$($)$*#v ] \ \ \ \ \ \ \ \ \ \ \ \ \ \%}& $|&!&#&$ \ \ \ \ \ \ \ \!3 \&%$w *&&",
" y > +!g \ \ \ \ \ \ \ \ \ \ \ \ \ \#z&'&($1$2$3$4$5$6&)&% \ \ \ \ \ \ \ \ \ \ \ \ \ \&*&+&,$p%v&-%% \ \ \ \ \ \ \ \ \ \#u 0 *%@",
"!* M![#( \ \ \ \ \ \ \ \ \ \ \ \ \ \ \&.&/$0$?$@$A$B&0&1 ] \ \ \ \ \ \ \ \ \ \ \ \ \$y&2&3${&4&5&6$y \ \ \ \ \ \ \ \ \ \#&#*!G!:",
"&7!F!G%'!3 \ \ \ \ \ \ \ \ \ \ \ \ \ \ \#u&8#4&9&:&;&<!t \ \ \ \ \ \ \ \ \ \ \ \$D&*&=&>&?&@&A&B&C \ \ \ \ \ \ \ \ \ \ \#z&D!G O",
"$k!B!G&D&E \ \ \ \ \ \ \ \ \ \ \ \ \ \ \ \!3$L#'&F#$!3 \ \ \ \ \ \ \ \ \ \ \ \&G&2&H&I&J&K$p&L&M&N \ \ \ \ \ \ \ \ \ \!3!t#N!G&O",
" H$!!G .!f \ \ \ \ \ \ \ \ \ \ \ \ \ \ \ \ \ \ \ \ \ \ \ \ \ \ \ \ \ \ \ \ \%p%e&P&Q&R&S$p&T&U&V&W \ \ \ \ \ \ \ \ \ \ \ ]&X!G&Y",
"  $.!l!l&Z \ \ \ \ \ \ \ \ \ \ \ \ \ \ \ \ \ \ \ \ \ \ \ \ \ \ \ \ \ \ \ \ \&[&\&]&^$p&_&K$p&`&a$S \ \ \ \ \ \ \ \ \ \!3!3!/!G!H",
"  $# =!G$%!1 \ \ \ \ \ \ \ \ \ \ \ \ \ \ \ \ \ \ \ \ \ \ \ \ \ \ \ \ \ \ \ \&[&b%x&c&d&e%X&f&g%9&h&i&j \ \ \ \ \ \ \ \!3!3%'!G!H",
"   H$]!G$w&k \ \ \ \ \ \ \ \ \ \ \ \ \ \ \ \ \ \ \ \ \ \ \ \ \ \ \ \ \ \ \ \$9&l&m&n&o&p&q&@$p&r&s&t%) \ \ \ \ \ \ \ \!3!3&u!G!H",
"    #x >!G#5#$ \ \ \ \ \ \ \ \ \ \ \ \ \ \ \ \ \ \ \ \ \ \ \ \ \ \ \ \ \ \ \ \$y&N&v&w&x&y$p$p$p%W&z&W \ \ \ \ \ \ \ \!3$M /!G#/",
"    $k!%!G$w%F \ \ \ \ \ \ \ \ \ \ \ \ \ \ \ \ \ \ \ \ \ \ \ \ \ \ \ \ \ \ \ \ \ \ \&{&|&}' &4'!&Q'#'$ \ \ \ \ \ \ \ \'%'& * *#,",
"      ''!F!G'(') \ \ \ \ \ \ \ \ \ \ \ \ \ \ \ \ \ \ \ \ \ \ \ \ \ \ \ \ \ \ \ \ \ \&G%7&h'*%N'+','-$9 \ \ \ \ \ \#&'.'/!l!G!H#0",
"       5'0 *!G'1#u \ \ \ \ \ \ \ \ \ \ \ \ \ \ \ \ \ \ \ \ \ \ \ \ \ \ \ \ \ \ \ \ \ \'2'3'4'5'6'7'8 \ \ \ \ \ \#O#}!l!G!G! '9!L",
"        !K%A!G!l%^#K ] \ \ \ \ \ \ \ \ \ \ \ \ \ \ \ \ \ \ \ \ \ \ \ \ \ \ \ \ \ \ \ \ \ \ \$9'8 \ \ \!3#$#L':%z%q![!G!G M'; 4  ",
"         4 h =!G!G!)&;!h$ !t!3!3 \ \ \ \ \ \ \ \ \ \ \ \ \ \ \ \ \ \ \ \ \ \ \ \ \ \!3 ]!t#&&F'< k'=&'#t#N W .!l!G!G *!  R a    ",
"           4'>%A *!G *!l'?'@$j'A'B'C k'D&F'E'E'E'E'E'E'E'E'E'F&% k k k k k k'G#_#h'H$J#4%| W / +$w!k *!G!G * * > T u y b H      ",
"              'I#k$^ l *!G!G * * * M!&!! 0'J'J'J'J'J'J'J'J!. V$w$w$w$w$w$w!& M * * * * * *!G *!G * * M =$,'K m'L G!L            ",
"                  $k'M'N t S!\!F l * *!G!G!G!G!G!G!G!G!G!G!G!G * * * * * * * * l!F!F F'O'P v$!'Q#k'R'S 6 ; 5                    ",
"                         4 <!p!-'S'T!O'U!;!$!$!$!$!$!$!$!$!$!n!A d d d d d!<$.'V'W!, 3 X 5 ` 4                                  ",
"                                       4 4 4 4 4 4 4 4 4 4 4 4                                                                  "
};