/* XPM */
static char *result[] = {
/* columns rows colors chars-per-pixel */
"64 64 93 2 ",
"   c #000000",
".  c #000609",
"X  c #00090C",
"o  c #010E12",
"O  c #021115",
"+  c #0D1112",
"@  c #00141B",
"#  c #0E1618",
"$  c #141616",
"%  c #141718",
"&  c #001A23",
"*  c #001E28",
"=  c #00212C",
"-  c #1F2121",
";  c #002632",
":  c #002D3C",
">  c #222323",
",  c #2B2C2C",
"<  c #3F3F3F",
"1  c #003243",
"2  c #00374A",
"3  c #00394D",
"4  c #003D51",
"5  c #004157",
"6  c #00445B",
"7  c #004B65",
"8  c #004F69",
"9  c #00516D",
"0  c #005470",
"q  c #005876",
"w  c #005B7A",
"e  c #4B4B4B",
"r  c #535353",
"t  c gray35",
"y  c gray39",
"u  c gray42",
"i  c #797979",
"p  c #036485",
"a  c #006789",
"s  c #01698B",
"d  c #0B6B8B",
"f  c #006E94",
"g  c #0F6F90",
"h  c #007096",
"j  c #0E7192",
"k  c #01759D",
"l  c #137393",
"z  c #1C7C9C",
"x  c #007BA4",
"c  c #007FA9",
"v  c #0082AD",
"b  c #0086B4",
"n  c #0089B7",
"m  c #008BB9",
"M  c #2383A3",
"N  c #2B8BAB",
"B  c #3393B3",
"V  c #3C9CBD",
"C  c #008FC0",
"Z  c #0092C3",
"A  c #0096C9",
"S  c #029BCE",
"D  c #009ED3",
"F  c #00A0D6",
"G  c #0AA1D4",
"H  c #00A4DC",
"J  c #00AAE3",
"K  c #00AEE9",
"L  c #00B1EC",
"P  c #00B6F3",
"I  c #00B9F7",
"U  c #00BFFF",
"Y  c #43A3C3",
"T  c #4BABCB",
"R  c #53B3D3",
"E  c #5CBDDD",
"W  c #65C4E5",
"Q  c #68C7E8",
"!  c #6CCBEC",
"~  c #70CFF0",
"^  c #74D3F4",
"/  c #7EDDFE",
"(  c #939393",
")  c #9A9A9A",
"_  c gray64",
"`  c #BDBDBD",
"'  c gray80",
"]  c #D9D9D9",
"[  c #E4E4E4",
"{  c #EAEAEA",
"}  c #F3F3F3",
"|  c #FDFDFD",
" . c None",
/* pixels */
" . . . . . . . . . . . . . . . . . . . . . . . . . . . . . . . . . . . . . . . . . . . . . . . . . . . . . . . . . . . . . . . .",
" . . . . . . . . . . . . . . . . . . . . . . . . . . . . . . . . . . . . . . . . . . . . . . . . . . . . . . . . . . . . . . . .",
" . . . . . . . . . . . . . . . . . . . . . . . . . . . . . . . . . . . . . . . . . . . . . . . . . . . . . . . . . . . . . . . .",
" . . . . . . . . . . . . . . . . . . . . . . . . . . . . . . . . . . . . . . . . . . . . . . . . . . . . . . . . . . . . . . . .",
" . . . . . . . . . . . . . . . . . . . . . . . . . . . . . . . . . . . . . . . . . . . . . . . . . . . . . . . . . . . . . . . .",
" . . . . . . . . . . . . . . . . . . . . . . .                     . . . . . . . . . . . . . . . . . . . . . . . . . . . . . . .",
" . . . . . . . . . . . . . . . . . . .                                     . . . . . . . . . . . . . . . . . . . . . . . . . . .",
" . . . . . . . . . . . . . . . .                                             . . . . . . . . . . . . . . . . . . . . . . . . . .",
" . . . . . . . . . . . . . .                X & : 5 9 9 w a 9 : & .            . . . . . . . . . . . . . . . . . . . . . . . . .",
" . . . . . . . . . . . .            . o 1 s J U U U U U U U U U U L h @          . . . . . . . . . . . . . . . . . . . . . . . .",
" . . . . . . . . . .            X 2 b U U U U U U U U U U U U U U U U P &        . . . . . . . . . . . . . . . . . . . . . . . .",
" . . . . . . . . .          X 6 H U U U U U U U U U U U U U U U U U U U c          . . . . . . . . . . . . . . . . . . . . . . .",
" . . . . . . . .          1 F U U U U U U U U U U U U U U U U U U U U U U =        . . . . . . . . . . . . . . . . . . . . . . .",
" . . . . . . . .      . x U U U U U U U U U U U U U U U U U U U U U U U U b        . . . . . . . . . . . . . . . . . . . . . . .",
" . . . . . . .      . x U U U U U U U U U U U U U U U U U U U U U U U U U U O        . . . . . . . . . . . . . . . . . . . . . .",
" . . . . . .        p U U U U U U U U U U U U U U U U U U U U U U U U U U U q        . . . . . . . . . . . . . . . . . . . . . .",
" . . . . . .      = U U U U U U U U U U U U U U U U U U U U U U U U U U U U K o        . . . . . . . . . . . . . . . . . . . . .",
" . . . . .      X D U U U U U U U U U U U U U U U U U U U U U U U U U U U U U 7        . . . . . . . . . . . . . . . . . . . . .",
" . . . . .      2 U U U U U U U U U U I H J U U U U U U U U U U U U U U U U U J o        . . . . . . . . . . . . . . . . . . . .",
" . . . . .    . A U U U U U U U U K w ; @ & 2 v U U U U U U U U U U U U U U U U w          . . . . . . . . . . . . . . . . . . .",
" . . . .      * U U U U U U U U J 3 + < u y , O a U U U U U U U U U U U U U U U P ;          . . . . . . . . . . . . . . . . . .",
" . . . .      q U U U U U U U U 6 % i ] { { ` e O b U U U U U U U U U U U U U U U H &          . . . . . . . . . . . . . . . . .",
" . . . .    . A U U U U U U U J @ t [ | | | | ` > 5 U U U U U U U U U U U U U U U U S X          . . . . . . . . . . . . . . . .",
" . . .      o I U U U U U U U m . ) | | ] | | [ r = L U U U U U U U U U U U U U U U U c X          . . . . . . . . . . . . . . .",
" . . .      = U U U U U U U U v . _ | ]   ] | [ t * K U U U U U U U U U U U U U U U U U m o        . . . . . . . . . . . . . . .",
" . . .      : U U U U U U U U F X u } | ] | | ' , 2 I U U U U U U U U U U U U U U U U U U c .        . . . . . . . . . . . . . .",
" . . .      1 U U U U U U U U I 1 - ) { | } ] u + h U U U U U U U U P H H U U U U U U U U U s .        . . . . . . . . . . . . .",
" . . .      3 U U U U U U U U U Z * - u _ ( e + 5 I U U U U U U J 9 * O @ : k I U U U U U U U 3          . . . . . . . . . . . .",
" . . .      4 U U U U U U U U U U A 2 O . X & w P U U U U U U D : + e u y > o w U U U U U U U P &        . . . . . . . . . . . .",
" . . .      4 U U U U U U U U U U U U H m Z L I U U U U U U U 5 $ i ] { [ ' e o v U U U U U U U m          . . . . . . . . . . .",
" . . .      2 U U U U U U U U U U U U U U U U U U U U U U U J O r [ | | | | ` > 3 U U U U U U U U 1        . . . . . . . . . . .",
" . . .      : U U U U U U U U U U U U U U U U U U U U U U U b . ) | | ] | | [ r = L U U U U U U U D X        . . . . . . . . . .",
" . . .      @ U U U U U U U U U U U U U U U U U U U U U U U b   _ | ]   ] | [ t = J U U U U U U U U 7        . . . . . . . . . .",
" . . . .    X I U U U U U U U U U U U U U U U U U U U U U U H O u } | ] | | ' , 2 U U U U U U U U U I X        . . . . . . . . .",
" . . . .    . A U U U U U U U U U U U U U U U U U U U U U U I 3 % ) } } } ] u # k U U U U U U U U U U 7        . . . . . . . . .",
" . . . .      s U U U U U U U U U U U U U U U U U U U U U U U S = > u _ ( e # 8 U U U U U U U U U U U H X        . . . . . . . .",
" . . . .      0 U U U U U U U U U U U U U U U U U U U U U U U U F 5 @ X o = a I U U U U U U U U U U U U :        . . . . . . . .",
" . . . .      0 U U U U U U U U U U U U U U U U U U U U U U U U U U L A F I U U U U U U U U U U U U U U v        . . . . . . . .",
" . . . .      0 U U U U U U U U U U U U U U U U U U U U U U U U U U U U U U U U U U U U U U U U U U U U I X        . . . . . . .",
" . . . .      q U U U U U U U U U U U U U U U U U U U U U U U U U U U U U U U U U U U U U U U U U U U U U :        . . . . . . .",
" . . . .      a U U U U U U U U U U U U U U U U U U I F Z m J U U U U U U U U U U U U U U U U U U U U U U s        . . . . . . .",
" . . . .    . Z U U U U U U U U U U U U U U U U I m s p z l p b U U U U U U U U U U U U U U U U U U U U U J X        . . . . . .",
" . . . .    X L U U U U U U U U U U U U U U U U m d Y Q ^ ~ Y a H U U U U U U U U U U U U U U U U U U U U U *        . . . . . .",
" . . .      * U U U U U U U U U U U U U U U U U k g E / / / ^ j A U U U U U U U U U U U U U U U U U U U U U 7        . . . . . .",
" . . .      2 U U U U U U U U U U U U U U U I k d M z B / / ~ g A U U U U U U U U U U U U U U U U U U U U U Z .      . . . . . .",
" . . .      p U U U U U U U U U U U U U U U m d E / ^ Q / / W p S U U U U U U U U U U U U U U U U U U U U U U O        . . . . .",
" . . .    . H U U U U U U U U U U U U U U U k B / / / / / / / M d G U U U U U U U U U U U U U U U U U U U U U :        . . . . .",
" . .      * U U U U U U U U U U U U U U U U k B / / / / W R Q ~ M p v P U U U U U U U U U U U U U U U U U U U 9        . . . . .",
" . .      6 U U U U U U U U U U U U U U U U v g W ^ Q B p a d R / T d f F U U U U U U U U U U U U U U U U U U m        . . . . .",
" . .      v U U U U U U U U U U U U U U U U I h p l p s m L x d R / W z p b U U K b v A U U U U U U U U U U U L X      . . . . .",
" . .    X P U U U U U U U U U U U U U U U U U I S m F L U U U x d R / / V p f x a l z p v U U U U U U U U U U U @        . . . .",
" .      * U U U U U U U U U U U U U U U U U U U U U U U U U U U c p R / / E B M Y ~ / Y p K U U U U U U U U U U &        . . . .",
" .      : U U U U U U U U U U U U U U U U U U U U U U U U U U U U x d Y / / / / / / / ^ j D U U U U U U U U U U @        . . . .",
" .      3 U U U U U U U U U U U U U U U U U U U U U U U U U U U U I v p R / / ~ / / / ! g D U U U U U U U U U L .        . . . .",
" .      4 U U U U U U U U U U U U U U U U U U U U U U U U U U U U U U k N / E l T / / Y a K U U U U U U U U U 1        . . . . .",
" .      : U U U U U U U U U U U U U U U U U U U U U U U U U U U U U U c N / / B p B N p v U U U U U U U U U 6          . . . . .",
" .      X J U U U U U U U U U U U U U U U U U U U U U U U U U U U U U v M / / V a x x m U U U U U U U U I 6          . . . . . .",
" . .      ; K U U U U U U U U U U U U U U U U U U U U U U U U U U U U m p R E d v U U U U U U U U U U J :          . . . . . . .",
" . .        = H U U U U U U U U U U U U U U U U U U U U U U U U U U U I x w p k K U U U U U U U U K 7 .          . . . . . . . .",
" . . .        . = 5 v L U U U U U U U U U U U U U U U U U U U U U U U U U D D I U U U U U U J f ; .            . . . . . . . . .",
" . . . .              . . X X O @ & & & & * : f v k s p a c b H I H I U U U U U I H m q : @ .                . . . . . . . . . .",
" . . . . .                                                      X . . .   . . . . . .                    . . . . . . . . . . . .",
" . . . . . . .                                                                                       . . . . . . . . . . . . . .",
" . . . . . . . . . . . . . . . .                                                             . . . . . . . . . . . . . . . . . ."
};
