/* XPM */
static char *result[] = {
/* columns rows colors chars-per-pixel */
"64 64 96 2 ",
"   c #000101",
".  c #000609",
"X  c #00090C",
"o  c #010E12",
"O  c #021015",
"+  c #0D1112",
"@  c #00141B",
"#  c #0E1618",
"$  c #141616",
"%  c #141718",
"&  c #001A24",
"*  c #001F29",
"=  c #00212C",
"-  c #1F2121",
";  c #002632",
":  c #002936",
">  c #002E3D",
",  c #222323",
"<  c #2B2C2C",
"1  c #3F3F3F",
"2  c #003344",
"3  c #003749",
"4  c #00394D",
"5  c #003D52",
"6  c #004157",
"7  c #00435A",
"8  c #004962",
"9  c #004F69",
"0  c #00526E",
"q  c #005673",
"w  c #005C7B",
"e  c #4B4B4B",
"r  c #535353",
"t  c gray35",
"y  c gray39",
"u  c gray42",
"i  c #797979",
"p  c #006283",
"a  c #006689",
"s  c #01698D",
"d  c #0A6C8D",
"f  c #006D92",
"g  c #096E90",
"h  c #017196",
"j  c #0E7294",
"k  c #00749A",
"l  c #0B7598",
"z  c #0B7A9F",
"x  c #147494",
"c  c #14799B",
"v  c #1B7C9C",
"b  c #0077A0",
"n  c #017AA3",
"m  c #007FA9",
"M  c #187FA2",
"N  c #0082AD",
"B  c #0086B4",
"V  c #0089B7",
"C  c #008CBB",
"Z  c #2383A4",
"A  c #2B8BAB",
"S  c #3494B4",
"D  c #3C9CBC",
"F  c #008FC0",
"G  c #0093C5",
"H  c #0096C9",
"J  c #009ACD",
"K  c #009ED3",
"L  c #00A0D6",
"P  c #00A4DB",
"I  c #00AAE3",
"U  c #00AEE9",
"Y  c #00B1ED",
"T  c #00B6F4",
"R  c #00B9F7",
"E  c #00BFFF",
"W  c #45A5C5",
"Q  c #4DADCD",
"!  c #54B4D4",
"~  c #5ABADA",
"^  c #60BFE0",
"/  c #65C4E5",
"(  c #6BCBEB",
")  c #73D3F3",
"_  c #7EDDFE",
"`  c #939393",
"'  c #9A9A9A",
"]  c gray64",
"[  c #BDBDBD",
"{  c gray80",
"}  c #D9D9D9",
"|  c #E4E4E4",
" . c #EAEAEA",
".. c #F3F3F3",
"X. c #FDFDFD",
"o. c None",
/* pixels */
"o.o.o.o.o.o.o.o.o.o.o.o.o.o.o.o.o.o.o.o.o.o.o.o.o.o.o.o.o.o.o.o.o.o.o.o.o.o.o.o.o.o.o.o.o.o.o.o.o.o.o.o.o.o.o.o.o.o.o.o.o.o.o.o.",
"o.o.o.o.o.o.o.o.o.o.o.o.o.o.o.o.o.o.o.o.o.o.o.o.o.o.o.o.o.o.o.o.o.o.o.o.o.o.o.o.o.o.o.o.o.o.o.o.o.o.o.o.o.o.o.o.o.o.o.o.o.o.o.o.",
"o.o.o.o.o.o.o.o.o.o.o.o.o.o.o.o.o.o.o.o.o.o.o.o.o.o.o.o.o.o.o.o.o.o.o.o.o.o.o.o.o.o.o.o.o.o.o.o.o.o.o.o.o.o.o.o.o.o.o.o.o.o.o.o.",
"o.o.o.o.o.o.o.o.o.o.o.o.o.o.o.o.o.o.o.o.o.o.o.o.o.o.o.o.o.o.o.o.o.o.o.o.o.o.o.o.o.o.o.o.        .   o.o.o.o.o.o.o.o.o.o.o.o.o.o.",
"o.o.o.o.o.o.o.o.o.o.o.o.o.o.o.o.o.o.o.o.o.o.o.o.o.o.o.o.o.o.o.o.o.o.o.o.o.o.o.o.o.      . q L K B     o.o.o.o.o.o.o.o.o.o.o.o.o.",
"o.o.o.o.o.o.o.o.o.o.o.o.o.o.o.o.o.o.o.o.o.o.o.o.o.o.o.o.o.o.o.o.o.o.o.o.o.o.o.o..   = P E E E Y ;   o.o.o.o.o.o.o.o.o.o.o.o.o.o.",
"o.o.o.o.o.o.o.o.o.o.o.o.o.o.o.o.o.o.o.o.o.o.o.o.o.o.o.o.o.o.o.o.o.o.o.o.o.o.    5 T E E E I 8 .     o.o.o.o.o.o.o.o.o.o.o.o.o.o.",
"o.o.o.o.o.o.o.o.o.o.o.o.o.o.o.o.o.o.o.o.o.o.o.o.o.o.o.o.o.o.o.o.o.o.o.o.o.    . I T I p o       o.o.o.o.o.o.o.o.o.o.o.o.o.o.o.o.",
"o.o.o.o.o.o.o.o.o.o.o.o.o.o.o.o.o.o.o.o.o.o.o.o.o.o.o.o.o.o.o.o.o.o.o.o.o.                o.o.o.o.o.o.o.o.o.o.o.o.o.o.o.o.o.o.o.",
"o.o.o.o.o.o.o.o.o.o.o.o.o.o.o.o.o.o.o.o.o.o.o.o.o.o.o.o.o.o.o.o.o.o.o.o.o.o.o.o.o.o.o.o.o.o.o.o.o.o.o.o.o.o.o.o.o.o.o.o.o.o.o.o.",
"o.o.o.o.o.o.o.o.o.o.o.o.o.o.o.o.o.o.o.o.o.o.o.o.o.o.o.o.o.o.o.o.o.o.o.o.o.o.o.o.o.o.o.o.o.o.o.o.o.o.o.o.o.o.o.o.o.o.o.o.o.o.o.o.",
"o.o.o.o.o.o.o.o.o.o.o.o.o.o.o.o.o.o.o.o.o.o.o.o.o.o.o.o.o.o.o.o.o.o.o.o.o.o.o.o.o.o.o.o.o.o.o.o.o.o.o.o.o.o.o.o.o.o.o.o.o.o.o.o.",
"o.o.o.o.o.o.o.o.o.o.o.o.o.o.o.o.o.o.o.o.o.o.o.o.o.  .                                     o.o.o.o.o.o.o.o.o.o.o.o.o.o.o.o.o.o.o.",
"o.o.o.o.o.o.o.o.o.o.o.o.o.o.o.o.o.o.o.o.o.o.o.    . X . @ w G I H G J J K J B G n p = X .       o.o.o.        . . o.o.o.o.o.o.o.",
"o.o.o.o.o.o.o.o.o.o.o.o.o.o.o.o.o.o.o.o.o.o.o.    : q C E E E E E E E E E E E E E E E H w ;       o.      . X X . .     . o.o.o.",
"o.o.o.o.o.o.o.o.o.o.o.o.o.o.o.o.o.o.o.o.o.o.o.o.  .   . & s P U I Y I Y P H K J N p @     .     o.    q I I I P J b 0 ; .   o.o.",
"o.o.o.o.o.o.o.o.o.o.o.o.o.o.o.o.o.o.o.o.o.o.o.o.o.o.o.                                . o.o.o.o.o.    & p G I I H C n a =     o.",
"o.o.o.o.o.o.o.o.o.o.o.o.o.o.o.o.o.o.o.o.o.o.o.o.o.o.o.o.o.o.o.o.o.o.o.o.o.o.o.o.o.o.o.o.o.o.o.o.o.o.            .   .       o.o.",
"o.o.o.o.o.o.o.o.o.o.o.                          o.o.o.o.o.o.o.o.o.o.o.o.o.o.o.o.o.o.o.o.o.o.o.o.o.o.o.o.o.o.  . o.o.o.o.o.o.o.o.",
"o.o.o.o.o.o.o.o.                                        o.o.o.o.o.o.          o.o.o.o.o.o.o.o.o.o.o.o.o.o.o.o.o.o.o.o.o.o.o.o.o.",
"o.o.o.o.o.o.              X = > 2 : = @ X .                   o.o.o.o.o.o.o.o.o.o.o.o.o.o.o.o.o.o.o.o.o.o.o.o.o.o.o.o.o.o.o.o.o.",
"o.o.o.o.o.          = 9 B Y E E E E E R R Y K k 4 & .             o.o.o.o.o.o.o.o.o.o.o.o.              o.o.o.o.o.o.o.o.o.o.o.o.",
"o.o.o.o.        2 F R E E E E E E E E E E E E E E E I s : .             o.o.o.o.o.o.o.o.o.    o.o.o.    o.o.o.o.o.o.o.o.o.o.o.o.",
"o.o.o.      . p E E E E E E E E T P I E E E E E E E E E E K 6 O             o.o.o.o.o.o.o.o.            o.o.o.o.o.o.o.o.o.o.o.o.",
"o.o.o.    . f E E E E E E E I w ; & & 3 N R E E E E E E E E E R f *               o.o.o.o.o.o.o.o.o.o.o.o.o.o.o.o.o.o.o.o.o.o.o.",
"o.o.      7 E E E E E E E I 4 + 1 u y < @ a E E E E E E E E E E E E G 4 o                 o.o.o.o.o.o.o.o.o.o.o.o.o.o.o.o.o.o.o.",
"o.o.    o Y E E E E E E E 8 % i }  .| [ e o B E E E E E E E E E E E E E T N 3 o                 o.o.o.o.o.o.o.o.o.o.o.o.o.o.o.o.",
"o.      8 E E E E E E E I @ t | X.X.X.X.[ , 7 E E E E E E E E E E E E E E E E R V 4 @               o.o.o.o.o.o.o.o.o.o.o.o.o.o.",
"o.      K E E E E E E E V . ' ..X.} X.X.| r = Y E E E E E E E E E E E E E E E E E E E K w =               o.o.o.o.o.o.o.o.o.o.o.",
"o.    @ R E E E E E E E N . ] X.}   } X.| t * I E E E E E E E E E E E E E E E E E E E E E E P 9 @             o.o.o.o.o.o.o.o.o.",
"o.    ; E E E E E E E E L o u ..X.} X.X.{ < 2 R E E E E E E E E E E E E E E E E E E E E E E E E R B :             o.o.o.o.o.o.o.",
"o.    6 E E E E E E E E R 2 - ' ..X...} u + k E E E E E E E E E E E E E E E E E E E E E E E E E E E E K 5 .         o.o.o.o.o.o.",
"    . N E E E E E E E E E C = , y ] ` e + 6 E E E E E E E E E E E E E E E E E E E E E E E E U C B G U E R L @         o.o.o.o.o.",
"    . U E E E E E E E E E E G 4 O . . = w T E E E E E E E E E E E E E E E E E E E E E E E P h Z Z d s N N J R =       o.o.o.o.o.",
"    O R E E E E E E E E E E E E P C C U E E E E E E E E E E E E E E E E E E E E E E E E T N x ! ) / Z d x l C K O       o.o.o.o.",
"    = E E E E E E E E E E E E E E E E E E E E E E E E E E E E E E E E E E E E E E E E E Y s ! _ _ _ Q A / D f L N .     o.o.o.o.",
"    = E E E E E E E E E E E E E E E E E E E E E E E E E E E E E E E E E E E E E E E E E I h D _ _ _ / A _ ) Z N Y >       o.o.o.",
"    = E E E E E E E E E E E E E E E E E T P P E E E E E E o.o.E E E E E E E E E E E E E T V d ~ _ _ ) ( _ _ D h I G .     o.o.o.",
"    & E E E E E E E E E E E E E E E I 9 = O O > k E E E o.o.E E E E E E E E E E E E E E E Y h Z Q _ _ _ _ _ W a Y E 2       o.o.",
"    o E E E E E E E E E E E E E E P > + 1 u y < O w E E E E E E E E E E E E E E E E E E E E I N d ~ _ ) ) / Z k Y E K .     o.o.",
"    o E E E E E E o.o.o.o.E E E E 6 $ i }  .| [ e o N E E E E E E E E E E E E E E E E E E E E E s Q ) D x j n I E T E 3     o.o.",
"    X U E E E E E o.o.E E E E E P O r | X.X.X.X.[ , 6 R E E E E E E E E E E E E E E E E E E E C d ~ ^ d V K I E E R E m       o.",
"      P E E E E E E E E E E E E V . ' X.X.} X.X.| r = U E E E E E E E E E E E E E E E E E E T N v ) A h Y E E E E E E T @     o.",
"      C E E E E E E E E E E E E B . ] X.}   } X.| t = U E E E E E E E E E E E E E E E E E E P w Q ) v N E E E E E E E E 5     o.",
"      k E E E E E E E E E o.o.E P o u ..X.} X.X.{ < 3 E E E E E E E E E E E E E E E E E E E N Z ) / d G E E E E E E E E k       ",
"o.    s E E E E E E E E E o.o.E R 5 % ' ..X...} u + k E E E E E E E E E E E E E E E E E E T s D _ Q s I E E E E E E E E P .     ",
"o.    8 E E E E E E E E E E E E E J ; - u ] ` e # 9 E E E E E E E E E E E E E E E E E E E C d ^ _ S k R E E E E E E E E I X     ",
"o.    = E E E E E E E E E E E E E E K 7 @ X o = a E E E E E E E E E E E E E E E E E E E L k Z _ ) Z n E E E E E E E E E R X     ",
"o.    o T E E E E E E E E E E E E E E E Y H L R E E E E E E E E E E E E E E E E E E J n z Z ~ _ ( d G E E E E E E E E E R o     ",
"o.      B E E E o.E E E E E E E E E E E E E E E E E E E E E E E E E E E E E E E E I h v D ( _ _ ~ c G E E E E E E E E E E O     ",
"o.o.    4 E E E E o.o.E E E E E E E E E E E E E E E E E E E E E E E E E E E E E E N c ( _ _ / _ ) Z k Y E E E o.E E E E E &     ",
"o.o.    o Y E E E E o.o.E E E E E E E E E E E E E E E E E E E E E E E E E E E E R N x ( _ ! x ) _ Q c n P E E o.E E E E E @     ",
"o.o.      f E E E E E E E E E E E E E E E E E E E E E E E E E E E E E E E E E E E L s x A c A ) _ _ ~ j V E o.E E E E E R X     ",
"o.o.o.    & R E E E E E E E E E E E E E E E E E E E E E E E E E E E E E E E E E E E J N k s S _ _ _ ) x V R E E E E E E G       ",
"o.o.o.      w E E E E E E E E E E E E E E E E E E E E E E E E E E E E E E E E E E E E E E n A ) _ _ Q j H E E E E E E P &       ",
"o.o.o.o.      C E E E E E E E E E E E E E E E E E E E E E E E E E E E E E E E E E E E E E H h v S Z d N R E E E E I 0 X       o.",
"o.o.o.o.      . P E E E E E E E E E E E E E E E E E E E E E E E E E E E E E E E E E E E E R K n h B J R E E E E Y *         o.o.",
"o.o.o.o.o.      X N E E E E E E E E E E E E E E E E E E E E E E E E E E E E E E E E E E E E E R E R E E T P n 5 @         o.o.o.",
"o.o.o.o.o.o.        = 0 G R E E E E E E E E E E E E E E E E E E E E E E E E E E E E E E R I L m k p 4 = O .               o.o.o.",
"o.o.o.o.o.o.o.            o = : 7 q k B L P P P P P P P P P G n k k k k k k p 8 6 > * @ o . .                       o.o.o.o.o.o.",
"o.o.o.o.o.o.o.o.o.                      . . . . X . . . . .                                                   o.o.o.o.o.o.o.o.o.",
"o.o.o.o.o.o.o.o.o.o.o.                                                                          o.o.o.o.o.o.o.o.o.o.o.o.o.o.o.o.",
"o.o.o.o.o.o.o.o.o.o.o.o.o.o.o.o.o.o.                            o.o.o.o.o.o.o.o.o.o.o.o.o.o.o.o.o.o.o.o.o.o.o.o.o.o.o.o.o.o.o.o.",
"o.o.o.o.o.o.o.o.o.o.o.o.o.o.o.o.o.o.o.o.o.o.o.o.o.o.o.o.o.o.o.o.o.o.o.o.o.o.o.o.o.o.o.o.o.o.o.o.o.o.o.o.o.o.o.o.o.o.o.o.o.o.o.o."
};
