/* XPM */
static char *result[] = {
/* columns rows colors chars-per-pixel */
"64 64 574 2 ",
"   c #00000000",
" ! c #06000000",
" # c #03000000",
" $ c #13000000",
" % c #39000000",
" & c #01000000",
" ' c #80000000",
" ( c #F1000000",
" ) c #24000000",
" * c #21000000",
" + c #19000000",
" , c #38000000",
" - c #F7000000",
" . c #A1000000",
" / c #10000000",
" 0 c #91000000",
" 1 c #EA000000",
" 2 c #B1000000",
" 3 c #0C000000",
" 4 c #3B000000",
" 5 c #72000000",
" 6 c #A0000000",
" 7 c #C0000000",
" 8 c #CF000000",
" 9 c #DC000000",
" : c #E7000000",
" ; c #EF000000",
" < c #E9000000",
" = c #D4000000",
" > c #B2000000",
" ? c #7D000000",
" @ c #44000000",
" A c #0F000000",
" B c #0D000000",
" C c #02000000",
" D c #A5000000",
" E c #C2000000",
" F c #C9000000",
" G c #F9000000",
" H c #BB000000",
" I c #2B000000",
" J c #60000000",
" K c #AC000000",
" L c #DD000000",
" M c #F8000000",
" N c #FD000000",
" O c #FE000000",
" P c #FF000000",
" Q c #E6000000",
" R c #6C000000",
" S c #17000000",
" T c #A7000000",
" U c #E1000000",
" V c #8C000000",
" W c #2C000000",
" X c #DE000000",
" Y c #66000000",
" Z c #37000000",
" [ c #A6000000",
" \ c #EC000000",
" ] c #FE000001",
" ^ c #FD000001",
" _ c #FD000102",
" ` c #FC000102",
" a c #DF000000",
" b c #8E000000",
" c c #09000000",
" d c #05000000",
" e c #50000000",
" f c #CC000000",
" g c #F3000000",
" h c #89000000",
" i c #32000000",
" j c #41000000",
" k c #CA000000",
" l c #FC000203",
" m c #F2000A0D",
" n c #DF001A23",
" o c #D0002C3A",
" p c #BD004259",
" q c #B400506B",
" r c #AD005A78",
" s c #A500688B",
" t c #B300516C",
" u c #CF002B39",
" v c #E6001319",
" w c #F000070A",
" x c #E200090C",
" y c #EE000203",
" z c #FC000000",
" { c #F2000000",
" | c #C4000000",
" } c #65000000",
"!  c #04000000",
"!! c #45000000",
"!# c #EE000000",
"!$ c #76000000",
"!% c #49000000",
"!& c #F9000304",
"!' c #EA001015",
"!( c #CC003041",
"!) c #A400698D",
"!* c #8700ABE4",
"!+ c #8000BFFF",
"!, c #8000BDFD",
"!- c #8100B9F7",
"!. c #92008FC0",
"!/ c #B400475E",
"!0 c #DB000E13",
"!1 c #F6000001",
"!2 c #FB000000",
"!3 c #D8000000",
"!4 c #61000000",
"!5 c #08000000",
"!6 c #2A000000",
"!7 c #F5000000",
"!8 c #62000000",
"!9 c #30000000",
"!: c #C7000000",
"!; c #E2000000",
"!< c #0E000000",
"!= c #87000000",
"!> c #F200080B",
"!? c #C8003446",
"!@ c #950087B5",
"!A c #8100BCFB",
"!B c #8700A9E2",
"!C c #9F006E93",
"!D c #C0002735",
"!E c #E7000304",
"!F c #AE000000",
"!G c #15000000",
"!H c #4F000000",
"!I c #4A000000",
"!J c #07000000",
"!K c #5E000000",
"!L c #EF00090C",
"!M c #BA00465E",
"!N c #8800A7DF",
"!O c #8A009DD2",
"!P c #A3003E52",
"!Q c #DE000203",
"!R c #1C000000",
"!S c #11000000",
"!T c #59000000",
"!U c #0A000000",
"!V c #82000000",
"!W c #F8000203",
"!X c #C7003243",
"!Y c #8B00A0D6",
"!Z c #8A009CD0",
"![ c #AD001E29",
"!\ c #F6000000",
"!] c #B0000000",
"!^ c #5F000000",
"!_ c #FA000000",
"!` c #F4000608",
"!a c #9D0078A0",
"!b c #8200B7F5",
"!c c #B0003B4F",
"!d c #F9000001",
"!e c #1E000000",
"!f c #F8000406",
"!g c #9B007CA6",
"!h c #8300B6F3",
"!i c #C6003141",
"!j c #A2000000",
"!k c #A7006486",
"!l c #8600ACE6",
"!m c #DE001B24",
"!n c #ED000000",
"!o c #0B000000",
"!p c #D900222D",
"!q c #9A007EA8",
"!r c #F400080B",
"!s c #8C009ED3",
"!t c #CA003242",
"!u c #88000000",
"!v c #EB000000",
"!w c #C6003649",
"!x c #8400B1ED",
"!y c #CB003041",
"!z c #68000000",
"!{ c #FA000406",
"!| c #8F0095C7",
"!} c #8200B9F7",
"#  c #C4003A4E",
"#! c #F4000000",
"## c #77000000",
"#$ c #C1000000",
"#% c #DD001E28",
"#& c #B4004F6A",
"#' c #EC001015",
"#( c #E9001219",
"#) c #CD002F3F",
"#* c #9F00749B",
"#+ c #48000000",
"#, c #12000000",
"#- c #CC003040",
"#. c #FC0D1010",
"#/ c #FF3F3F3F",
"#0 c #FF6F6F6F",
"#1 c #FF636363",
"#2 c #FF282828",
"#3 c #F0031014",
"#4 c #AD005B7A",
"#5 c #DF00161D",
"#6 c #BC000000",
"#7 c #8F0096C9",
"#8 c #BE004258",
"#9 c #FD141616",
"#: c #FF787878",
"#; c #FFD9D9D9",
"#< c #FFEAEAEA",
"#= c #FFE6E6E6",
"#> c #FFBFBFBF",
"#? c #FF4C4C4C",
"#@ c #F0030F13",
"#A c #980081AC",
"#B c #990080AB",
"#C c #FA000102",
"#D c #8D000000",
"#E c #EC000F14",
"#F c #8100BAF9",
"#G c #8800A8E1",
"#H c #E9001218",
"#I c #FF585858",
"#J c #FFE4E4E4",
"#K c #FFFEFEFE",
"#L c #FFFFFFFF",
"#M c #FFFBFBFB",
"#N c #FFBABABA",
"#O c #FE222323",
"#P c #C2003D51",
"#Q c #D2002531",
"#R c #DB00202B",
"#S c #F9000507",
"#T c #FF9B9B9B",
"#U c #FFFAFAFA",
"#V c #FFE2E2E2",
"#W c #FF535353",
"#X c #8500AFE9",
"#Y c #A0007299",
"#Z c #58000000",
"#[ c #D0002B39",
"#\ c #960085B2",
"#] c #FFA5A5A5",
"#^ c #FF5A5A5A",
"#_ c #DC001F29",
"#` c #8600ADE8",
"#a c #F0000A0D",
"#b c #BD000000",
"#c c #8A00A3DA",
"#d c #EE000E13",
"#e c #FF6A6A6A",
"#f c #FFF1F1F1",
"#g c #FFFDFDFD",
"#h c #FFCCCCCC",
"#i c #FF2E2F2F",
"#j c #C7003547",
"#k c #8500B0EB",
"#l c #1A000000",
"#m c #C3000000",
"#n c #C2003C50",
"#o c #FD1F2121",
"#p c #FF999999",
"#q c #FFF0F0F0",
"#r c #FFF9F9F9",
"#s c #FFF7F7F7",
"#t c #FFDBDBDB",
"#u c #FF6B6B6B",
"#v c #F5071013",
"#w c #9C0079A1",
"#x c #C1003D51",
"#y c #8D009ACE",
"#z c #D801242F",
"#{ c #FE1F2121",
"#| c #FF686868",
"#} c #FFA1A1A1",
"$  c #FF939393",
"$! c #FF4A4A4A",
"$# c #F50E1618",
"$$ c #B5004E68",
"$% c #8400B3EF",
"$& c #E100151C",
"$' c #BC00445A",
"$( c #E400161E",
"$) c #F0000C11",
"$* c #D900212C",
"$+ c #A600678A",
"$, c #BA00445B",
"$- c #85000000",
"$. c #C500384B",
"$/ c #A1006F94",
"$0 c #D1002A39",
"$1 c #900093C4",
"$2 c #EC000709",
"$3 c #E4000000",
"$4 c #20000000",
"$5 c #93000000",
"$6 c #E1001922",
"$7 c #7F00BFFF",
"$8 c #DA00171F",
"$9 c #40000000",
"$: c #70000000",
"$; c #C2003546",
"$< c #6E000000",
"$= c #FA000305",
"$> c #A7006080",
"$? c #A4000000",
"$@ c #FD000203",
"$A c #980080AB",
"$B c #F1000102",
"$C c #E8000000",
"$D c #FE000102",
"$E c #B1005470",
"$F c #910090C1",
"$G c #E9000405",
"$H c #8E0099CC",
"$I c #E300090C",
"$J c #DB000000",
"$K c #1B000000",
"$L c #8200BCFB",
"$M c #8600B6F3",
"$N c #8400B9F7",
"$O c #8C009CD1",
"$P c #DF000C11",
"$Q c #E5000000",
"$R c #B200536F",
"$S c #9200A7DF",
"$T c #AA0090C0",
"$U c #D200749B",
"$V c #C90079A2",
"$W c #A10097CA",
"$X c #99009FD5",
"$Y c #B50087B4",
"$Z c #CC0077A0",
"$[ c #BA0083AF",
"$\ c #8900B2EE",
"$] c #8100BDFD",
"$^ c #8900A5DD",
"$_ c #DE001015",
"$` c #9000A9E2",
"$a c #C7037EA7",
"$b c #FA0E7091",
"$c c #FF2A8AAA",
"$d c #F1056B8D",
"$e c #A70092C3",
"$f c #8300BAF9",
"$g c #8C00AEE9",
"$h c #CF0379A0",
"$i c #FB177899",
"$j c #FF2585A5",
"$k c #FE177797",
"$l c #D000759C",
"$m c #DC00141B",
"$n c #27000000",
"$o c #FA000304",
"$p c #D100749C",
"$q c #FF187898",
"$r c #FF60C0E0",
"$s c #FF7BDAFB",
"$t c #FF3393B3",
"$u c #D501749A",
"$v c #8F01ACE5",
"$w c #BD0081AC",
"$x c #FF137393",
"$y c #FF61C1E1",
"$z c #FF7CDBFC",
"${ c #FF69C8E9",
"$| c #FE177898",
"$} c #B40087B5",
"%  c #DB00141B",
"%! c #78000000",
"%# c #F1000B0E",
"%$ c #8300B4F1",
"%% c #B0008AB9",
"%& c #F81A7D9E",
"%' c #FF7FDEFF",
"%( c #FF66C6E6",
"%) c #FD0C6C8D",
"%* c #C10684AF",
"%+ c #BB0082AE",
"%, c #B60086B3",
"%- c #AE008CBB",
"%. c #C7007AA4",
"%/ c #E40C779B",
"%0 c #FF3F9FBF",
"%1 c #FF7ADAFA",
"%2 c #FF7EDEFE",
"%3 c #FF4AAACA",
"%4 c #E900688C",
"%5 c #8800B3F0",
"%6 c #8600ABE4",
"%7 c #D7001117",
"%8 c #AA000000",
"%9 c #CC0078A0",
"%: c #FF1D7D9D",
"%; c #FF67C7E7",
"%< c #FC76D7F8",
"%= c #FE7EDEFF",
"%> c #FF78D8F8",
"%? c #FF58B8D8",
"%@ c #FF2989A9",
"%A c #FE197A9A",
"%B c #FF177797",
"%C c #FE1B7B9B",
"%D c #FF117191",
"%E c #FD1A7B9B",
"%F c #FF0F6F8F",
"%G c #FB2789A9",
"%H c #FF3999B9",
"%I c #FF74D3F4",
"%J c #FF50B0D0",
"%K c #EC086F92",
"%L c #D9001218",
"%M c #D7000000",
"%N c #C40481AB",
"%O c #FC0B6C8C",
"%P c #FF2181A1",
"%Q c #FE65C5E6",
"%R c #FF75D4F5",
"%S c #FF6BCAEB",
"%T c #FF75D5F5",
"%U c #FF76D6F6",
"%V c #FF76D5F6",
"%W c #FF70D0F0",
"%X c #FF73D3F3",
"%Y c #FF70CFF0",
"%Z c #FF71D1F1",
"%[ c #FF6DCDED",
"%\ c #FF2C8CAC",
"%] c #DB006F95",
"%^ c #E200151C",
"%_ c #25000000",
"%` c #B90084B0",
"%a c #FE0A6B8B",
"%b c #FF53B3D3",
"%c c #FF67C6E7",
"%d c #FE3B9BBB",
"%e c #FF147494",
"%f c #FF40A0C0",
"%g c #FF4FAFCF",
"%h c #FF62C1E2",
"%i c #FF6FCEEF",
"%j c #FF7EDDFE",
"%k c #FF5DBDDD",
"%l c #FF1F7F9F",
"%m c #FA2182A3",
"%n c #DB0B7AA0",
"%o c #AA008FC0",
"%p c #8D009BCF",
"%q c #EA001116",
"%r c #FE3393B4",
"%s c #FF2F8FAF",
"%t c #E700698D",
"%u c #CD00779F",
"%v c #DC017096",
"%w c #EC00678A",
"%x c #F9026485",
"%y c #FD167697",
"%z c #FF1B7B9B",
"%{ c #FF2888A8",
"%| c #FF7CDCFC",
"%} c #FF4CACCC",
"&  c #FD1C7D9D",
"&! c #E3006B8F",
"&# c #9B009DD2",
"&$ c #ED000E13",
"&% c #C5000000",
"&& c #CA0079A1",
"&' c #F5137798",
"&( c #AC008EBD",
"&) c #8F00AAE4",
"&* c #B1008AB8",
"&+ c #D5007299",
"&, c #EF147B9D",
"&- c #FF47A7C7",
"&. c #FF3A9ABA",
"&/ c #DB027297",
"&0 c #94008BBA",
"&1 c #EF000B10",
"&2 c #BD00435A",
"&3 c #B70085B2",
"&4 c #F11D82A4",
"&5 c #FF2282A2",
"&6 c #DF006D92",
"&7 c #8E00ACE5",
"&8 c #C2007EA8",
"&9 c #F71D80A2",
"&: c #FF61C0E1",
"&; c #FD7BDCFC",
"&< c #FB41A2C3",
"&= c #E1006D91",
"&> c #FC000304",
"&? c #980082AE",
"&@ c #FA0C6E8F",
"&A c #FF2D8DAD",
"&B c #D7027399",
"&C c #9500A4DB",
"&D c #9700A1D8",
"&E c #CF047BA2",
"&F c #FF107090",
"&G c #FF3494B4",
"&H c #FF066686",
"&I c #BE0080AB",
"&J c #F500070A",
"&K c #6A000000",
"&L c #CF00769D",
"&M c #9800A0D6",
"&N c #D4007399",
"&O c #B20089B7",
"&P c #E500151C",
"&Q c #8A000000",
"&R c #DF001B24",
"&S c #8500B7F5",
"&T c #DF001922",
"&U c #9D000000",
"&V c #BF000000",
"&W c #CE002E3D",
"&X c #E4001218",
"&Y c #9E000000",
"&Z c #C3003A4E",
"&[ c #F4000406",
"&\ c #C9003040",
"&] c #B9004961",
"&^ c #AB000000",
"&_ c #F0000B0E",
"&` c #BC00455C",
"&a c #35000000",
"&b c #5A000000",
"&c c #D4002633",
"&d c #CF002C3B",
"&e c #5C000000",
"&f c #CD000000",
"&g c #DA00212C",
"&h c #BA00475F",
"&i c #F500080B",
"&j c #73000000",
"&k c #DE001D27",
"&l c #BF004156",
"&m c #99007FAA",
"&n c #A2006D92",
"&o c #D4002734",
"&p c #F7000608",
"&q c #3F000000",
"&r c #F5000709",
"&s c #ED000C10",
"&t c #E9000F14",
"&u c #E200151D",
"&v c #E100171F",
"&w c #E1001A23",
"&x c #DD001D27",
"&y c #CD002E3E",
"&z c #AA006081",
"&{ c #8A00A1D8",
"&| c #94008AB8",
"&} c #AE005876",
"'  c #F600070A",
"'! c #29000000",
"'# c #F300080B",
"'$ c #F9000406",
"'% c #F7000507",
"'& c #F8000608",
"'' c #F8000507",
"'( c #FB000304",
"') c #2E000000",
"'* c #84000000",
"'+ c #94000000",
"', c #56000000",
"'- c #67000000",
"'. c #96000000",
"'/ c #DA000000",
"'0 c #F0000000",
/* pixels */
"                                                                                                                                ",
"                                                                                                                                ",
"                                                                                                           # ! $ % &            ",
"                                                                                                         &     ' ( )     * +    ",
"                                                                                                       &       , - . / 0 1 2 &  ",
"                                         3 4 5 6 7 8 9 : ; ; < = > . ? @ 3                             &   A B C D E F G H I    ",
"                                   B J K L M N O P P P P P P P P P P P O Q R S &                     & & & T U V ) W X Y &      ",
"                             C Z [ \ N P P P P P O ] ^ ^ _ ` ] P P P P P P G a b , c                 d C   e f g h   Z i        ",
"                         # j k G P P P P O l m n o p q q r s t u v w x y z P P N { | } S &                  ! !! Q @ 8!#!$ /    ",
"                     d!% 7 G P P P O!&!'!(!)!*!+!+!+!+!+!+!+!+!+!+!,!-!.!/!0!1 O P P!2!3!4!5                  !6!7!8!9!: z!;!<  ",
"                   C!= G P P P ]!>!?!@!A!+!+!+!+!+!+!+!+!+!+!+!+!+!+!+!+!+!B!C!D!E z P P M!F!G           &    !H M!I  !J!K R &  ",
"                 c V!2 P P O!L!M!N!+!+!+!+!+!+!+!+!+!+!+!+!+!+!+!+!+!+!+!+!+!+!,!O!P!Q N P N 7!R             &!S!T!U            ",
"               #!V z P P!W!X!Y!,!+!+!+!+!+!+!+!+!+!+!+!+!+!+!+!+!+!+!+!+!+!+!+!+!+!,!Z![!\ P O!] B                              ",
"             &!^!_ P P!`!a!+!+!+!+!+!+!+!+!+!+!+!+!+!+!+!+!+!+!+!+!+!+!+!+!,!b!A!+!+!+!-!c!d P!_!V C                     C      ",
"            !e Q P P!f!g!+!+!+!+!+!+!+!+!+!+!+!+!+!+!+!+!+!+!+!+!+!+!+!+!+!+!A!+!+!+!+!+!h!i N P M!!                     c      ",
"          ! !j O P `!k!+!+!+!+!+!+!+!+!+!+!+!+!+!+!+!+!+!+!+!+!+!+!+!+!+!+!+!+!+!+!+!+!+!+!l!m P P!n /                 & &      ",
"          !9!7 P P!p!,!+!+!+!+!+!+!+!+!+!+!+!+!+!+!+!+!+!+!+!+!+!+!+!+!+!+!+!+!,!+!+!,!+!+!+!q ` P P k !                        ",
"         & 6 O P!r!s!+!+!+!+!+!+!+!+!+!+!+!+!+!+!+!+!+!+!+!+!+!+!+!+!+!+!+!+!+!b!,!A!+!+!+!+!A!t O P O!u C                      ",
"         +!v P O!w!+!+!+!+!+!+!+!+!+!+!+!+!+!+!+!+!+!+!+!+!+!+!+!+!+!+!+!+!+!+!,!,!+!+!+!+!+!+!x!y O P M!z &                    ",
"         5 N P!{!|!+!+!+!+!+!+!+!+!+!+!+!+!+!+!+!+!+!+!+!+!+!+!+!+!+!+!+!+!+!+!+!+!+!+!+!+!+!+!+!}#  O P#!## &                  ",
"       &#$ P P#%!+!+!+!+!+!B#&#%#'#(#)#*!}!+!+!+!+!+!+!+!+!+!+!+!+!+!+!+!+!+!+!+!+!+!+!+!+!,!+!+!+!}!y O P z#+                  ",
"      #, \ P ^ r!+!+!+!+!Y#-#.#/#0#1#2#3#4!A!+!+!+!+!+!+!+!+!+!B#&#%#'#(#)#*!}!+!+!+!+!+!+!+!+!+!+!+!x#5 P P#6 &                ",
"      !I!_ P!{#7!+!+!+!A#8#9#:#;#<#=#>#?#@#A!+!+!+!+!+!+!+!+!Y#-#.#/#0#1#2#3#4!A!+!+!+!+!+!+!,!,!+!+!+#B#C P!_!K                ",
"      #D O P#E#F!+!+!+#G#H#I#J#K#L#L#M#N#O#P!,!+!+!+!+!+!+!A#8#9#:#;#<#=#>#?#@#A!+!+!+!,#F!,!+!+!+!+!+!}#Q P P < B              ",
"      !] O P#R!+!+!+!+!@#S#T#U#L#;#L#L#V#W#R#X!+!+!+!+!+!+#G#H#I#J#K#L#L#M#N#O#P!,!+!+!+!+!+!+!+!+!+!+!+#Y ^ P O#Z              ",
"       H P O#[!+!+!+!+#\!{#]#M#; P#;#L#J#^#_#`!+!+!+!+!+!+!@#S#T#U#L#;#L#L#V#W#R#X!+!+!+!+!+!+!+!+!,!+!+!l#a P P#b!             ",
"       E P O!t!+!+!+!+#c#d#e#f#L#;#L#g#h#i#j!A!+!+!+!+!+!+#\!{#]#M#; P#;#L#J#^#_#`!+!+!+!+!+!+!}#`#k#F!+!,!y P P ;#l            ",
"      #m P O#n!+!+!+!+!}# #o#p#q#r#s#t#u#v!a!+!+!+!+!+!+!+#c#d#e#f#L#;#L#g#h#i#j!A!+!+!+!+!+!+!b!,!+!+!+!+#w ` P - W            ",
"      #m P ]#x!+!+!+!+!+#y#z#{#|#}$ $!$#$$!A!+!+!+!+!+!+!+!}# #o#p#q#r#s#t#u#v!a!+!+!+!+!+!+!+!+!+!+!,#F!,$%$& P!_!H            ",
"       E P ]#P!+!+!+!+!+!+!Y$'$( m$)$*$+#F!+!+!+!+!+!+!+!+!+#y#z#{#|#}$ $!$#$$!A!+!+!+!+!+!+!+!+!,#k!}!+!+!+$, N N$- &          ",
"      #$ P O$.!+!+!+!+!+!+!+!+!+!+!+!+!+!+!+!+!+!+!+!+!+!+!+!+!Y$'$( m$)$*$+#F!+!+!+!+!+!+!+!+!+!+!+!+!+!+!+$/!d P#m 3          ",
"       > P P$0!+!+!+!+!+!+!+!+!+!+!+!+!+!+!+!+!+!+!+!+!+!+!+!+!+!+!+!+!+!+!+!+!+!+!+!+!+!+!+!+!+!+!+!+!+!+!A$1$2 P$3$4          ",
"      $5 O P$6!+!+!+!+!+!+!+!+!+!+!+!+!+!+!+!+!+!+!+!+!+!+!+!+!+!+!+!+!+!+!+!+!+!+!+!+!+!+!+!+!+!+!+!+$7!+!+!h$8 P!7$9          ",
"      $: N P!r!h!+!+!+!+!+!+!+!+!+!+!+!+!+!+!+!+!+!+!+!+!+!+!+!+!+!+!+!+!+!+!+!+!+!+!+!+!+!+!+!+!+!+!+!+!+!+!+$; O N$<          ",
"       4 G P$=$1!+!+!+!+!+!+!+!+!+!+!+!+!+!+!+!+!+!+!+!+!+!+!+!+!+!+!+!+!+!+!+!+!+!+!+!+!+!+!+!+!+!+!+!+!+!+!A$>!_ O$? &        ",
"       B#! P$@!)!+!+!+!+!+!+!+!+!+!+!+!+!+!+!+!+!+!+!+!+!+!+!+!+!+!+!+!+!+!+!+!+!+!+!+!+!+!+!+!+!+!+!+!+!+!+!+$A$B O E c        ",
"        $C P$D$E!+!+!+!+!+!+!+!+!+!+!+!+!+!+!+!+!+!+!+!+!+!+!+!+!+!+!+!+!+!+!+!+!+!+!+!+!+!+!+!+!+!+!+!+!+!+!,$F$G O = S        ",
"         L P$D t!+!+!+!+!+!+!+!+!+!+!+!+!+!+!+!+!+!+!+!+!+!+!+!+!+!+!+!+!+!+!+!+!+!+!+!+!+!+!+!+!+!+!+!+!+!+!+$H$I O$J$K        ",
"         L P ^ t!+!+!+!+!+!+!+!+!+$L!+$M!+!+!+!+!+!+!+!+!+!+!+!+!+$N!+$L!+!+!+!+!+!+!+!+!+!+!+!+!+!+!+!+!+!+!+$O$P P X!R        ",
"        $Q P ^$R!+!+!+!+!+!+!+!+$S$T$U$V$W$M!+!+!+!+!+!+!+!+!+!+$X$Y$Z$[$\$]!+!+!+!+!+!+!+!+!+!+!+!+!+!+!+!+!+$^$_ P$3 )        ",
"       3 g P ` s!+!+!+!+!+!+!+$`$a$b$c$c$d$e$f!+!+!+!+!+!+!+!+$g$h$i$j$k$l$`!+!+!+!+!+!+!+!+!+!+!+!+!+!+!+!+!+!B$m P$Q$n        ",
"       j!2 P$o!.!+!+!+!+!+!+$N$p$q$r$s$s$t$u$v!+!+!+!+!+!+!+$]$w$x$y$z${$|$}$f!+!+!+!+!+!+!+!+!+!+!+!+!+!+!+!+!*%  P$Q$n        ",
"      %! N P%#%$!+!+!+!+!+$]%%%&$y%'%'%'%(%)$h%*%+%,%+%-$Y%-%.%/%0%1%'%2%3%4%5!+!+!+!+!+!+!+!+!+!+!+!+!+!+!+!+%6%7 P$Q$n        ",
"      %8 O P!m!+!+!+!+!+!+$L%9%:%;$y%<%=%>%?%@%A$q%B%C%D%E%F%G%H%I%'%'%'%J%K$X!+!+!+!+!+!+!+!+!+!+!+!+!+!+!+!+!*%L P$Q$n        ",
"     #%M P O!?!+!+!+!+!+!+$N%N%O%P$c%Q%=%'$s%R%S%1%T%U%V%W%X%Y%'%'%Z%R%[%\%]$M!+!+!+!+!+!+!+!+!+!+!+!+!+!+!+!+#G%^ P$Q$n        ",
"    %_!\ P _!k!+!+!+!+!+!+!+%`%a%b%>%1%2%c%d%e%@%f%g%h%i%U%j%2%'%k$x%l%m%n%o$L!+!+!+!+!+!+!+!+!+!+!+!+!+!+!+!+%p%q P U$4        ",
"     ? O P!r#c!+!+!+!+!+!+$]$p%r%=%'%'%'%s%t$[%u%v%w%x%y%z%{%g%|%W%}& &!&#!+!+!+!+!+!+!+!+!+!+!+!+!+!+!+!+!+!+#y&$ P%M$K        ",
"    &% P P#_!,!+!+!+!+!+!+$M&&$c%'%'%2%k&'&(!+!+%5&)$X&*$[&+&,&-%'%'&.&/$g!+!+!+!+!+!+!+!+!+!+!+!+!+!+!+!+!+!+&0&1 P \%_        ",
"   3 1 P ]&2!+!+!+!+!+!+!+!+&3&4%J%j%[&5&6&7!+!+!+!+!+!+!+$N&8&9&:&;&<&=$\!+!+!+!+!+!+!+!+!+!+!+!+!+!+!+!+!+!+!q$D P O#+        ",
"   4 G P&>&?!+!+!+!+!+!+!+!+$\$Z&@&A%D&B&C!+!+!+!+!+!+!+!+!+&D&E&F&G&H&I!+!+!+!+!+!+!+!+!+!+!+!+!+!+!+!+!+!+!+#`&J P N&K        ",
"  ## N P%#%$!+!+!+!+!+!+!+!+!+$S%o&L$Y&M$L!+!+!+!+!+!+!+!+!+!+&D%+&N&O&7!+!+!+!+!+!+!+!+!+!+!+!+!+!+!+!+!+!+!+!+&P P O&Q        ",
"   D O P&R!+!+!+!+!+!+!+!+!+!+!+!+!+$]!+!+!+!+!+!+!+!+!+!+!+!+!+!+!+&S!+!+!+!+!+!+!+!+!+!+!+!+!+!+!+!+!+!+!+!+!+&T P P&U        ",
"  &V P P&W!+!+!+!+!+!+!+!+!+!+!+!+!+!+!+!+!+!+!+!+!+!+!+!+!+!+!+!+!+!+!+!+!+!+!+!+!+!+!+!+!+!+!+!+!+!+!+!+!+!+!+&X P P&Y        ",
"   E P O&Z!+!+!+!+!+!+!+!+!+!+!+!+!+!+!+!+!+!+!+!+!+!+!+!+!+!+!+!+!+!+!+!+!+!+!+!+!+!+!+!+!+!+!+!+!+!+!+!+!+!+#k&[ P N '        ",
"   E P O#n!+!+!+!+!+!+!+!+!+!+!+!+!+!+!+!+!+!+!+!+!+!+!+!+!+!+!+!+!+!+!+!+!+!+!+!+!+!+!+!+!+!+!+!+!+!+!+!+!+!A&\ O P M Z        ",
"  #$ P O&W!+!+!+!+!+!+!+!+!+!+!+!+!+!+!+!+!+!+!+!+!+!+!+!+!+!+!+!+!+!+!+!+!+!+!+!+!+!+!+!+!+!+!+!+!+!+!+!+!,&] _ P P k d        ",
"  &^ P P&_!*!+!+!+!+!+!+!+!+!+!+!+!+!+!+!+!+!+!+!+!+!+!+!+!+!+!+!+!+!+!+!+!+!+!+!+!+!+!+!+!+!+!+!+!+!+!+#F&` ` P P (&a          ",
"  &b z P O&c#k!+!+!+!+!+!+!+!+!+!+!+!+!+!+!+!+!+!+!+!+!+!+!+!+!+!+!+!+!+!+!+!+!+!+!+!+!+!+!+!+!+!+!+!+#`&d ^ P P M&e &          ",
"   B&f P P O&g#c!+!+!+!+!+!+!+!+!+!+!+!+!+!+!+!+!+!+!+!+!+!+!+!+!+!+!+!+!+!+!+!+!+!+!+!+!+!+!+!+!+!l&h&i O P P M&j C            ",
"    %_!v P P P!f&k&l&m$%!+!+!+!+!+!+!+!+!+!+!+!+!+!+!+!+!+!+!+!+!+!+!+!+!+!+!+!+!+!+!+!+!+!+!*&n&o&p ] P P P!# e &              ",
"      &q ; P P P P O l$o!f&r&s&t&u&v&R&R&w&x&y$/&m!a s&z s!q!@&{!}#G!}!+!+!+!+!+!,$^&|&}&d$('  _ O P P P z#$'!                  ",
"         ) H!\ O P P P P P P P P P P P P P P P P P P P P P P O `'#&r'$'%'%&p'&'&''$='( ] O P P P P O G =&b !                    ",
"           #')'* | Q!\ G!2 z z N N O O P P P P P P P P P P P P P P P P P P P P P P P P P P P N M a'+ W &                        ",
"                  !U I!!','-!z&j'*'. T'/ M z z!2!2!_!_ G!_ N O P O!_ G G G G G G G G!\'0!3 2##!9 !                              "
};