/* XPM */
static char *result[] = {
/* columns rows colors chars-per-pixel */
"64 64 99 2 ",
"   c #000000",
".  c #000609",
"X  c #00090C",
"o  c #010D12",
"O  c #021115",
"+  c #0D1112",
"@  c #00141B",
"#  c #0E1618",
"$  c #141616",
"%  c #141718",
"&  c #001720",
"*  c #001B24",
"=  c #001E29",
"-  c #00212C",
";  c #1F2121",
":  c #002734",
">  c #002C3B",
",  c #222323",
"<  c #2B2C2C",
"1  c #3F3F3F",
"2  c #002F40",
"3  c #003243",
"4  c #003749",
"5  c #00394D",
"6  c #003D51",
"7  c #004156",
"8  c #00445B",
"9  c #004A63",
"0  c #004F69",
"q  c #00516C",
"w  c #005470",
"e  c #005876",
"r  c #005B7A",
"t  c #4B4B4B",
"y  c #535353",
"u  c gray35",
"i  c gray39",
"p  c gray42",
"a  c #797979",
"s  c #026485",
"d  c #006789",
"f  c #026A8D",
"g  c #0A6B8B",
"h  c #006E93",
"j  c #0B6F91",
"k  c #027096",
"l  c #0C7193",
"z  c #02749B",
"x  c #0E7598",
"c  c #09799F",
"v  c #137494",
"b  c #177898",
"n  c #1B7C9C",
"m  c #0077A0",
"M  c #017AA2",
"N  c #007FA9",
"B  c #1E7FA0",
"V  c #0081AD",
"C  c #0086B3",
"Z  c #0089B7",
"A  c #008BBA",
"S  c #2383A4",
"D  c #2A8AAA",
"F  c #3393B4",
"G  c #3A9ABA",
"H  c #008FC0",
"J  c #0093C4",
"K  c #0096C9",
"L  c #009ACE",
"P  c #009ED3",
"I  c #00A0D6",
"U  c #00A4DC",
"Y  c #00AAE3",
"T  c #00AEE9",
"R  c #00B1EC",
"E  c #00B6F3",
"W  c #00B9F7",
"Q  c #00BFFF",
"!  c #45A5C5",
"~  c #4DADCD",
"^  c #53B3D3",
"/  c #57B8D8",
"(  c #5DBDDD",
")  c #64C4E4",
"_  c #6BCBEB",
"`  c #73D2F3",
"'  c #78D7F8",
"]  c #7EDDFE",
"[  c #939393",
"{  c #9A9A9A",
"}  c gray64",
"|  c #BDBDBD",
" . c gray80",
".. c #D9D9D9",
"X. c #E4E4E4",
"o. c #EAEAEA",
"O. c #F3F3F3",
"+. c #FDFDFD",
"@. c None",
/* pixels */
"@.@.@.@.@.@.@.@.@.@.@.@.@.@.@.@.@.@.@.@.@.@.@.@.@.@.@.@.@.@.@.@.@.@.@.@.@.@.@.@.@.@.@.@.@.@.@.@.@.@.@.@.@.@.@.@.@.@.@.@.@.@.@.@.",
"@.@.@.@.@.@.@.@.@.@.@.@.@.@.@.@.@.@.@.@.@.@.@.@.@.@.@.@.@.@.@.@.@.@.@.@.@.@.@.@.@.@.@.@.@.@.@.@.@.@.@.@.@.@.@.@.@.@.@.@.@.@.@.@.",
"@.@.@.@.@.@.@.@.@.@.@.@.@.@.@.@.@.@.@.@.@.@.@.@.@.@.@.@.@.@.@.@.@.@.@.@.@.@.@.@.@.@.@.@.@.@.@.@.@.@.@.@.@.@.@.@.@.@.@.@.@.@.@.@.",
"@.@.@.@.@.@.@.@.@.@.@.@.@.@.@.@.@.@.@.@.@.@.@.@.@.@.@.@.@.@.@.@.@.@.@.@.@.@.@.@.@.@.@.@.@.@.@.@.@.@.@.@.@.@.@.          @.@.@.@.",
"@.@.@.@.@.@.@.@.@.@.@.@.@.@.@.@.@.@.@.@.@.@.@.@.@.@.@.@.@.@.@.@.@.@.@.@.@.@.@.@.@.@.@.@.@.@.@.@.@.@.@.@.@.                @.@.@.",
"@.@.@.@.@.@.@.@.@.@.@.@.@.@.@.@.@.@.@.@.@.@.@.                      @.@.@.@.@.@.@.@.@.@.@.@.@.@.@.@.@.@.          .         @.@.",
"@.@.@.@.@.@.@.@.@.@.@.@.@.@.@.@.@.@.@.                                    @.@.@.@.@.@.@.@.@.@.@.@.@.@.@.      8 A K M >       @.",
"@.@.@.@.@.@.@.@.@.@.@.@.@.@.@.@.                                                @.@.@.@.@.@.@.@.@.@.@.      7 W Q W Q W =     @.",
"@.@.@.@.@.@.@.@.@.@.@.@.@.@.                . * > 7 q q e f q > @ . X .             @.@.@.@.@.@.@.@.@.    . V W Q W Q Q k     @.",
"@.@.@.@.@.@.@.@.@.@.@.@.            . O 3 f T Q Q Q Q Q Q Q Q Q Q Q W H 9 @             @.@.@.@.@.@.@.    . K Q W Q Q Q A     @.",
"@.@.@.@.@.@.@.@.@.@.            X 4 Z Q Q Q Q Q Q Q Q Q Q Q Q Q Q Q Q Q Q Y k > .           @.@.@.@.@.      A Q E Q Q Q 9     @.",
"@.@.@.@.@.@.@.@.@.          X 8 U Q Q Q Q Q Q Q Q Q Q Q Q Q Q Q Q Q Q Q Q Q Q Q P 9 .         @.@.@.@.      8 Q Q Q Q L .     @.",
"@.@.@.@.@.@.@.@.          3 I Q Q Q Q Q Q Q Q Q Q Q Q Q Q Q Q Q Q Q Q Q Q Q Q Q Q Q P >         @.@.@.@.    . K Q Q C @       @.",
"@.@.@.@.@.@.@.@.      . M Q Q Q Q Q Q Q Q Q Q Q Q Q Q Q Q Q Q Q Q Q Q Q Q Q E Q Q Q Q W 8         @.@.@.      - C r .       @.@.",
"@.@.@.@.@.@.@.      . M Q Q Q Q Q Q Q Q Q Q Q Q Q Q Q Q Q Q U 0 = O @ > z W Q Q Q Q Q Q W 3       @.@.@.@.      .         @.@.@.",
"@.@.@.@.@.@.        s Q Q Q Q Q Q Q Q Q Q Q Q Q Q Q Q Q Q I 3 + 1 p i < o r W Q Q Q Q Q Q T -       @.@.@.              @.@.@.@.",
"@.@.@.@.@.@.      - Q Q Q Q Q W U Y Q Q Q Q Q Q Q Q Q Q Q 7 $ a ..o.X.| t + V Q Q Q Q Q Q Q K X                     @.@.@.@.@.@.",
"@.@.@.@.@.      . P Q Q Q T r : @ * 4 V Q Q Q Q Q Q Q Q U @ y X.+.+.+.+.| , 5 E Q W Q Q Q Q Q 9                 @.@.@.@.@.@.@.@.",
"@.@.@.@.@.      4 Q Q Q Y 5 + 1 p i < @ s Q Q Q Q Q Q Q Z . { +.+...+.+.X.y = T Q Q Q Q Q Q Q E 0 o             @.@.@.@.@.@.@.@.",
"@.@.@.@.@.    . K Q Q Q 8 % a ..o.o.| t O C Q Q Q Q Q Q C . } +...  ..+.X.u = T Q @.@.Q Q Q Q Q Q L N z 9       @.@.@.@.@.@.@.@.",
"@.@.@.@.      = Q Q Q Y O u X.+.+.+.+.| , 7 Q Q Q Q Q Q I O p O.+...+.+. .< 4 Q Q Q @.@.Q Q Q Q Q Q Q Q C .   @.@.@.@.@.@.@.@.@.",
"@.@.@.@.      e Q Q Q A . { +.+...+.+.X.y - R Q Q Q Q Q W 4 ; { O.+.O...p O M Q Q Q Q @.Q Q Q Q @.Q Q Q Z .   @.@.@.@.@.@.@.@.@.",
"@.@.@.@.    . K Q Q Q V . } +...  ..+.X.u = Y Q Q Q Q Q Q L : ; p } [ t # 9 Q Q Q Q Q Q @.Q Q Q @.@.Q Q V .     @.@.@.@.@.@.@.@.",
"@.@.@.      o W Q Q Q I X p O.+...+.+. .< 4 W Q Q Q Q Q Q Q I 8 @ X o - d W Q Q Q Q Q Q W Q Q Q Q @.Q Q V .     @.@.@.@.@.@.@.@.",
"@.@.@.      - Q Q Q Q E 3 ; { o.+.O...p + k Q Q Q Q Q Q Q Q Q Q Q Q Q Q Q Q Q Q Q Q Q Q Q @.Q Q Q Q @.Q K X     @.@.@.@.@.@.@.@.",
"@.@.@.      > Q Q Q Q Q J = ; p } [ t # 7 Q Q Q Q Q Q Q Q Q Q Q Q Q Q Q Q Q Q Q Q Q Q Q Q Q @.Q Q Q Q Q T *     @.@.@.@.@.@.@.@.",
"@.@.@.      3 Q Q Q Q Q Q K 4 @ . . * e E Q Q Q Q Q Q Q Q Q Q Q Q Q Q Q Q Q Q Q Q Q Q Q Q Q Q W T T W Q Q 5       @.@.@.@.@.@.@.",
"@.@.@.      5 Q Q Q Q Q Q Q Q U Z J R W Q Q Q Q Q Q Q Q Q Q Q Q Q Q Q Q Q Q Q Q Q Q Q Q Q Q Q W Q Q Q Q Q V .     @.@.@.@.@.@.@.",
"@.@.@.      6 Q Q Q Q Q Q Q Q Q Q Q Q Q Q Q Q Q Q Q Q Q Q Q Q Q Q Q Q Q Q Q Q Q Q Q Q Q Q Q Q Q @.Q Q W Q E *     @.@.@.@.@.@.@.",
"@.@.@.      6 Q Q Q Q Q Q Q Q Q Q Q Q Q Q Q Q Q Q Q Q Q Q Q Q Q Q Q Q Q Q Q Q Q Q Q Q Q Q Q Q Q Q T W Q Q Q 8       @.@.@.@.@.@.",
"@.@.@.      4 Q Q Q Q Q Q Q Q Q Q Q Q Q Q Q Q Q Q Q Q Q Q Q Q Q Q Q Q Q Q Q Q Q Q Q Q Q Q Q Q Q Q Q Q Q Q Q k       @.@.@.@.@.@.",
"@.@.@.      > Q Q Q Q Q Q Q Q Q Q Q Q Q Q Q Q Q Q Q Q Q Q Q Q Q Q Q Q Q Q Q Y K C Y E Q Q Q Q Q Q Q Q Q Q W K X     @.@.@.@.@.@.",
"@.@.@.      * Q Q Q Q Q Q Q Q Q Q Q Q Q Q Q Q Q Q Q Q Q Q Q Q Q Q Q Q Q Q I M g b f Z R Q Q Q Q Q Q Q Q Q Q E -     @.@.@.@.@.@.",
"@.@.@.@.    X E Q Q Q Q Q Q Q Q Q Q Q Q Q Q Q Q Q Q Q Q Q Q Q Q Q Q Q Q W C b / _ ^ l C Q Q Q Q Q Q Q Q Q Q Q 4     @.@.@.@.@.@.",
"@.@.@.@.    . J Q Q Q Q Q Q Q Q Q Q Q Q Q Q Q Q Q Q Q Q Q Q Q Q Q Q Q Q Q z F ] ] ] ! l I Q Q Q Q Q Q Q Q Q Q s       @.@.@.@.@.",
"@.@.@.@.      f Q Q Q Q Q Q Q Q Q Q Q Q Q Q Q Q Q Q Q Q Q Q Q Q Q Q Q Q P x ! ] ] ] / s I Q Q Q Q Q Q Q Q Q Q V .     @.@.@.@.@.",
"@.@.@.@.      w Q Q Q Q Q Q Q Q Q Q Q Q Q Q Q Q U P Y E Q Q Q Q Q W I C h n ) ] ' ' G c U Q Q Q Q Q Q Q Q Q Q A .     @.@.@.@.@.",
"@.@.@.@.      w Q Q Q Q Q Q Q Q Q Q Q Q Q Q R A f l f A T Q Q I A z s v G ( ] _ F b x A Q Q Q Q Q Q Q Q Q Q Q L X     @.@.@.@.@.",
"@.@.@.@.    . w Q Q Q Q Q Q Q Q Q Q Q Q Q Q J f G ( ~ g V V z f g D ~ _ ] ] ] ) D S f L Q Q Q Q Q Q Q Q Q Q Q I o     @.@.@.@.@.",
"@.@.@.@.      r Q Q Q Q Q Q Q Q Q Q Q Q Q E z F ' ] ] ^ b n S ~ _ ] ] ] ` _ ` ] ] ) v C Q Q Q Q Q Q Q Q Q Q Q U O     @.@.@.@.@.",
"@.@.@.@.      f Q Q Q Q Q Q Q Q Q Q Q Q Q I g ) ] ] ] ] ] ` _ ` ) ^ G D n v D ^ ] ] F z W Q Q Q Q Q Q Q Q Q Q Y @     @.@.@.@.@.",
"@.@.@.@.      J Q Q Q Q Q Q Q Q Q Q Q Q Q A S ) ) / ] ] _ ! S g g f h z C C M S F ~ g C Q Q Q Q Q Q Q Q Q Q Q Y *     @.@.@.@.@.",
"@.@.@.@.    X E Q Q Q Q Q Q Q Q Q Q Q Q Q A d F n / ' ] ~ f V A K Y Q Q Q Q Y V k f M U Q Q Q Q Q Q Q Q Q Q Q Y @     @.@.@.@.@.",
"@.@.@.      = Q Q Q Q Q Q Q Q Q Q Q Q Q Q U c j ^ ] ] ] S z Q Q Q Q Q Q Q Q Q Q T T Q Q Q Q Q Q Q Q Q Q Q Q Q T O     @.@.@.@.@.",
"@.@.@.      4 Q Q Q Q Q Q Q Q Q Q Q Q Q Q Q Z S ' ] ] ' D V Q Q Q Q Q Q Q Q Q Q Q Q Q Q Q Q Q Q Q Q Q Q Q Q Q Y @     @.@.@.@.@.",
"@.@.@.      s Q Q Q Q Q Q Q Q Q Q Q Q Q Q Q K r ( ] ] _ g A Q Q Q Q Q Q Q Q Q Q Q Q Q Q Q Q Q Q Q Q Q Q Q Q Q L O     @.@.@.@.@.",
"@.@.@.    . I Q Q Q Q Q Q Q Q Q Q Q Q Q Q Q Y V F ~ _ D k U Q Q Q Q Q Q Q Q Q Q Q Q Q Q Q Q Q Q Q Q Q Q Q Q Q L o     @.@.@.@.@.",
"@.@.      = Q Q Q Q Q Q Q Q Q Q Q Q Q Q Q Q W K z l g f K Q Q Q Q Q Q Q Q Q Q Q Q Q Q Q Q Q Q Q Q Q Q Q Q Q Q Z o     @.@.@.@.@.",
"@.@.      8 Q Q Q Q Q Q Q Q Q Q Q Q Q Q Q Q Q Q R L K T Q Q Q Q Q Q Q Q Q Q Q Q Q Q Q Q Q Q Q Q Q Q Q Q Q Q Q V       @.@.@.@.@.",
"@.@.      V Q Q Q Q Q Q Q Q Q Q Q Q Q Q Q Q Q Q Q Q Q Q Q Q Q Q Q Q Q Q Q Q Q Q Q Q Q Q Q Q Q Q Q Q Q Q Q Q Q R .     @.@.@.@.@.",
"@.@.    X E Q Q Q Q Q Q Q Q Q Q Q Q Q Q Q Q Q Q Q Q Q Q Q Q Q Q Q Q Q Q Q Q Q Q Q Q Q Q Q Q Q Q Q Q Q Q Q Q Q Q @       @.@.@.@.",
"@.      = Q Q Q Q Q Q Q Q Q Q Q Q Q Q Q Q Q Q Q Q Q Q Q Q Q Q Q Q Q Q Q Q Q Q Q Q Q Q Q Q Q Q Q Q Q Q Q Q Q Q Q *       @.@.@.@.",
"@.      > Q Q Q Q Q Q Q Q Q Q Q Q Q Q Q Q Q Q Q Q Q Q Q Q Q Q Q Q Q Q Q Q Q Q Q Q Q Q Q Q Q Q Q Q Q Q Q Q Q Q Q @       @.@.@.@.",
"@.      5 Q Q Q Q Q Q Q Q Q Q Q Q Q Q Q Q Q Q Q Q Q Q Q Q Q Q Q Q Q Q Q Q Q Q Q Q Q Q Q Q Q Q Q Q Q Q Q Q Q Q R         @.@.@.@.",
"@.      6 Q Q Q Q Q Q Q Q Q Q Q Q Q Q Q Q Q Q Q Q Q Q Q Q Q Q Q Q Q Q Q Q Q Q Q Q Q Q Q Q Q Q Q Q Q Q Q Q Q Q 3       @.@.@.@.@.",
"@.      > Q Q Q Q Q Q Q Q Q Q Q Q Q Q Q Q Q Q Q Q Q Q Q Q Q Q Q Q Q Q Q Q Q Q Q Q Q Q Q Q Q Q Q Q Q Q Q Q Q 8         @.@.@.@.@.",
"@.      X Y Q Q Q Q Q Q Q Q Q Q Q Q Q Q Q Q Q Q Q Q Q Q Q Q Q Q Q Q Q Q Q Q Q Q Q Q Q Q Q Q Q Q Q Q Q Q W 8         @.@.@.@.@.@.",
"@.@.      : R Q Q Q Q Q Q Q Q Q Q Q Q Q Q Q Q Q Q Q Q Q Q Q Q Q Q Q Q Q Q Q Q Q Q Q Q Q Q Q Q Q Q Q Q T >         @.@.@.@.@.@.@.",
"@.@.        - I Q Q Q Q Q Q Q Q Q Q Q Q Q Q Q Q Q Q Q Q Q Q Q Q Q Q Q Q Q Q Q Q Q Q Q Q Q Q Q Q Q Y 9 .         @.@.@.@.@.@.@.@.",
"@.@.@.        . - 7 V R Q Q Q Q Q Q Q Q Q Q Q Q Q Q Q Q Q Q Q Q Q Q Q Q Q Q Q Q Q Q Q Q Q Q T h : .           @.@.@.@.@.@.@.@.@.",
"@.@.@.@.              . . . o O @ & * * * = > h V z f s f N C I W U W Q Q Q Q Q Q U Z r > @ .               @.@.@.@.@.@.@.@.@.@.",
"@.@.@.@.@.                                                      X . . . X X . . .                       @.@.@.@.@.@.@.@.@.@.@.@.",
"@.@.@.@.@.@.@.                                                                                      @.@.@.@.@.@.@.@.@.@.@.@.@.@.",
"@.@.@.@.@.@.@.@.@.@.@.@.@.@.@.@.                                                            @.@.@.@.@.@.@.@.@.@.@.@.@.@.@.@.@.@."
};
