/* XPM */
static char *result[] = {
/* columns rows colors chars-per-pixel */
"64 64 576 2 ",
"   c #00000000",
" ! c #06000000",
" # c #0C000000",
" $ c #3B000000",
" % c #72000000",
" & c #A0000000",
" ' c #C0000000",
" ( c #CF000000",
" ) c #DC000000",
" * c #E7000000",
" + c #EF000000",
" , c #E9000000",
" - c #D4000000",
" . c #A2000000",
" / c #6F000000",
" 0 c #38000000",
" 1 c #0B000000",
" 2 c #0D000000",
" 3 c #60000000",
" 4 c #AC000000",
" 5 c #DD000000",
" 6 c #F8000000",
" 7 c #FD000000",
" 8 c #FE000000",
" 9 c #FF000000",
" : c #F9000000",
" ; c #E6000000",
" < c #9C000000",
" = c #27000000",
" > c #01000000",
" ? c #02000000",
" @ c #37000000",
" A c #A6000000",
" B c #EC000000",
" C c #FE000001",
" D c #FD000001",
" E c #FD000102",
" F c #FC000102",
" G c #FA000000",
" H c #81000000",
" I c #03000000",
" J c #41000000",
" K c #CA000000",
" L c #FC000203",
" M c #F2000A0D",
" N c #DF001A23",
" O c #D0002C3A",
" P c #BD004259",
" Q c #B400506B",
" R c #AD005A78",
" S c #A500688B",
" T c #B300516C",
" U c #CF002C3B",
" V c #DF001922",
" W c #E5000F15",
" X c #EB000507",
" Y c #96000000",
" Z c #05000000",
" [ c #49000000",
" \ c #F9000304",
" ] c #EA001015",
" ^ c #CC003041",
" _ c #A400698D",
" ` c #8700ABE4",
" a c #8000BFFF",
" b c #8100BAF9",
" c c #8400AFE9",
" d c #92006081",
" e c #C900080B",
" f c #FB000000",
" g c #BA000000",
" h c #1A000000",
" i c #87000000",
" j c #F200080B",
" k c #C8003446",
" l c #950087B5",
" m c #8100BCFB",
" n c #8200B4F1",
" o c #9F003243",
" p c #F4000000",
" q c #CB000000",
" r c #29000000",
" s c #09000000",
" t c #8C000000",
" u c #EF00090C",
" v c #BA00465E",
" w c #8800A7DF",
" x c #8200B7F5",
" y c #97003C51",
" z c #F1000000",
" { c #C9000000",
" | c #18000000",
" } c #82000000",
"!  c #FC000000",
"!! c #F8000203",
"!# c #C7003243",
"!$ c #8B00A0D6",
"!% c #8000BDFD",
"!& c #AC003344",
"!' c #FA000001",
"!( c #08000000",
"!) c #5F000000",
"!* c #F4000608",
"!+ c #9D0078A0",
"!, c #8400B3EF",
"!- c #D400232E",
"!. c #F6000000",
"!/ c #5D000000",
"!0 c #1E000000",
"!1 c #F8000406",
"!2 c #9B007CA6",
"!3 c #950089B7",
"!4 c #EE000C10",
"!5 c #1F000000",
"!6 c #04000000",
"!7 c #A7006486",
"!8 c #BB00455C",
"!9 c #ED000C10",
"!: c #AD000000",
"!; c #30000000",
"!< c #F5000000",
"!= c #D900222D",
"!> c #D7002430",
"!? c #F8000305",
"!@ c #58000000",
"!A c #F400080B",
"!B c #8C009ED3",
"!C c #8A00A3DA",
"!D c #A0007197",
"!E c #D5002532",
"!F c #D5000000",
"!G c #1D000000",
"!H c #19000000",
"!I c #EB000000",
"!J c #C6003649",
"!K c #8600ADE8",
"!L c #AB005D7D",
"!M c #D4002734",
"!N c #E400161E",
"!O c #E1001A23",
"!P c #C500384B",
"!Q c #980081AC",
"!R c #8200B9F7",
"!S c #B6004D67",
"!T c #E8001218",
"!U c #85000000",
"!V c #FA000406",
"!W c #8F0095C7",
"!X c #8800A8E1",
"!Y c #C500394D",
"!Z c #FB0D1011",
"![ c #FF3F3F3F",
"!\ c #FF6F6F6F",
"!] c #FF636363",
"!^ c #FF282828",
"!_ c #ED031218",
"!` c #A6006688",
"!a c #C9003445",
"!b c #FB000203",
"!c c #2B000000",
"!d c #C1000000",
"!e c #DD001E28",
"!f c #BA00475F",
"!g c #FC141718",
"!h c #FF797979",
"!i c #FFD9D9D9",
"!j c #FFEAEAEA",
"!k c #FFE6E6E6",
"!l c #FFBFBFBF",
"!m c #FF4C4C4C",
"!n c #ED031217",
"!o c #7F00BFFF",
"!p c #910092C3",
"!q c #E400151D",
"!r c #12000000",
"!s c #E700141B",
"!t c #FF585858",
"!u c #FFE4E4E4",
"!v c #FFFEFEFE",
"!w c #FFFFFFFF",
"!x c #FFFBFBFB",
"!y c #FFBABABA",
"!z c #FE222323",
"!{ c #BE004157",
"!| c #F7000608",
"!} c #EE000000",
"#  c #32000000",
"#! c #4A000000",
"## c #8F0096C9",
"#$ c #94008AB8",
"#% c #F9000507",
"#& c #FF9B9B9B",
"#' c #FFFAFAFA",
"#( c #FFE2E2E2",
"#) c #FF535353",
"#* c #DA00212C",
"#+ c #8500B0EB",
"#, c #A8000000",
"#- c #8D000000",
"#. c #EC000F14",
"#/ c #970083AF",
"#0 c #FFA5A5A5",
"#1 c #FF5A5A5A",
"#2 c #DC001E28",
"#3 c #8600ACE6",
"#4 c #8700A9E2",
"#5 c #8100B9F7",
"#6 c #900094C6",
"#7 c #ED000D12",
"#8 c #B0000000",
"#9 c #DB00202B",
"#: c #EF000C11",
"#; c #FF6A6A6A",
"#< c #FFF1F1F1",
"#= c #FFFDFDFD",
"#> c #FFCCCCCC",
"#? c #FF2E2F2F",
"#@ c #CA003344",
"#A c #8300B4F1",
"#B c #C0003E53",
"#C c #7F000000",
"#D c #BB000000",
"#E c #D0002B39",
"#F c #FE1F2121",
"#G c #FF999999",
"#H c #FFF0F0F0",
"#I c #FFF9F9F9",
"#J c #FFF7F7F7",
"#K c #FFDBDBDB",
"#L c #FF6B6B6B",
"#M c #F7070E11",
"#N c #A1007096",
"#O c #B4004F6A",
"#P c #EC001015",
"#Q c #E9001219",
"#R c #CD002F3F",
"#S c #9F00749B",
"#T c #F7000507",
"#U c #E0000000",
"#V c #16000000",
"#W c #C2000000",
"#X c #CA003242",
"#Y c #DE011E27",
"#Z c #FE1F2020",
"#[ c #FF686868",
"#\ c #FFA1A1A1",
"#] c #FF939393",
"#^ c #FF4A4A4A",
"#_ c #F70D1315",
"#` c #CC003040",
"#a c #FC0D1010",
"#b c #F0031014",
"#c c #AD005B7A",
"#d c #E500151C",
"#e c #61000000",
"#f c #C3000000",
"#g c #C2003C50",
"#h c #C600374A",
"#i c #EB001116",
"#j c #F6000609",
"#k c #F400090C",
"#l c #E0001A23",
"#m c #AE005A78",
"#n c #8300B6F3",
"#o c #BE004258",
"#p c #FD141616",
"#q c #FF787878",
"#r c #F0030F13",
"#s c #CF002B39",
"#t c #D9000000",
"#u c #C1003D51",
"#v c #8500AFE9",
"#w c #E9001218",
"#x c #C2003D51",
"#y c #A9006181",
"#z c #53000000",
"#{ c #8400B1ED",
"#| c #F4000709",
"#} c #E4000000",
"$  c #960085B2",
"$! c #DC001F29",
"$# c #CB002F3E",
"$$ c #63000000",
"$% c #B2000000",
"$& c #D1002A39",
"$' c #EE000E13",
"$( c #C7003547",
"$) c #8D009BCF",
"$* c #FB000102",
"$+ c #93000000",
"$, c #E1001922",
"$- c #C4003A4E",
"$. c #FD1F2121",
"$/ c #F5071013",
"$0 c #CB002F40",
"$1 c #70000000",
"$2 c #8D009ACE",
"$3 c #D801242F",
"$4 c #F50E1618",
"$5 c #B5004E68",
"$6 c #F2000709",
"$7 c #CC000000",
"$8 c #FA000305",
"$9 c #900093C4",
"$: c #BC00445A",
"$; c #F0000C11",
"$< c #D900212C",
"$= c #A600678A",
"$> c #B5004D66",
"$? c #26000000",
"$@ c #FD000203",
"$A c #F000080B",
"$B c #E8000000",
"$C c #FE000102",
"$D c #B1005470",
"$E c #CD002E3E",
"$F c #E3000000",
"$G c #9B007BA4",
"$H c #FA000203",
"$I c #3E000000",
"$J c #8200BCFB",
"$K c #8D00ADE7",
"$L c #9C009CD1",
"$M c #A00098CC",
"$N c #9B009DD2",
"$O c #8E00ACE6",
"$P c #EC000E13",
"$Q c #E5000000",
"$R c #B200536F",
"$S c #9500A4DB",
"$T c #C5007CA5",
"$U c #E80B7497",
"$V c #FB0B6D8D",
"$W c #FA096B8B",
"$X c #D4007399",
"$Y c #CE002D3C",
"$Z c #DB000000",
"$[ c #F3000000",
"$\ c #AB008EBE",
"$] c #EF066D8F",
"$^ c #FF2888A8",
"$_ c #FF56B6D6",
"$` c #FF6DCDED",
"$a c #FF167696",
"$b c #B80186B2",
"$c c #8700B5F1",
"$d c #A500698C",
"$e c #2F000000",
"$f c #FA000304",
"$g c #92008FC0",
"$h c #9100A8E1",
"$i c #E6016C8F",
"$j c #FF3292B2",
"$k c #FF6FCFEF",
"$l c #FF7FDEFF",
"$m c #FF40A0C0",
"$n c #D402759C",
"$o c #F500080B",
"$p c #78000000",
"$q c #F1000B0E",
"$r c #9D029ED2",
"$s c #ED056C8E",
"$t c #FF2D8DAD",
"$u c #FF55B5D5",
"$v c #FE60C0E1",
"$w c #FD7DDEFF",
"$x c #FF7DDCFD",
"$y c #FF52B2D2",
"$z c #E900688C",
"${ c #9504A8DF",
"$| c #CD000000",
"$} c #AA000000",
"%  c #DE001B24",
"%! c #8100BDFD",
"%# c #B70085B2",
"%$ c #FB056687",
"%% c #FF2787A7",
"%& c #FE51B2D2",
"%' c #FF7EDEFE",
"%( c #FF6CCCEC",
"%) c #FD147595",
"%* c #EA046D90",
"%+ c #B00993C2",
"%, c #9700A1D8",
"%- c #8400B9F7",
"%. c #9D009BCF",
"%/ c #B6004C66",
"%0 c #F2000000",
"%1 c #15000000",
"%2 c #D7000000",
"%3 c #8E00ACE5",
"%4 c #EA01698C",
"%5 c #FD45A6C6",
"%6 c #FF78D8F8",
"%7 c #FF7EDDFE",
"%8 c #FF62C2E2",
"%9 c #FF3393B3",
"%: c #FF0D6D8D",
"%; c #EA056D90",
"%< c #D000759C",
"%= c #AD008DBC",
"%> c #8300BAF9",
"%? c #A50094C5",
"%@ c #D904759B",
"%A c #EC0A7194",
"%B c #EA00688B",
"%C c #B50087B4",
"%D c #FB000305",
"%E c #51000000",
"%F c #25000000",
"%G c #A90090C1",
"%H c #F6107495",
"%I c #FF63C2E3",
"%J c #FF79D9F9",
"%K c #FF43A3C3",
"%L c #FF4DADCD",
"%M c #FF72D1F2",
"%N c #FF48A8C8",
"%O c #FF2C8CAC",
"%P c #F9096B8C",
"%Q c #EB00688A",
"%R c #C2007EA8",
"%S c #B20089B7",
"%T c #BD0081AC",
"%U c #F4066A8C",
"%V c #FF59B9D9",
"%W c #FF3D9DBD",
"%X c #F7036687",
"%Y c #9700A2D8",
"%Z c #E800131A",
"%[ c #9B000000",
"%\ c #7D000000",
"%] c #EC177FA2",
"%^ c #FF58B8D8",
"%_ c #FF73D3F3",
"%` c #FF3A9ABA",
"%a c #F9006384",
"%b c #DD006E93",
"%c c #F1056A8C",
"%d c #FF1F7F9F",
"%e c #FF5EBEDE",
"%f c #FF7DDDFD",
"%g c #FF7ADAFA",
"%h c #FF68C8E8",
"%i c #FF41A1C1",
"%j c #FF1E7E9E",
"%k c #F71B7EA0",
"%l c #F91A7C9D",
"%m c #FF77D6F7",
"%n c #FF76D6F6",
"%o c #FF2585A5",
"%p c #B80085B2",
"%q c #8500B7F5",
"%r c #CF002D3C",
"%s c #C5000000",
"%t c #D705779D",
"%u c #FF6FCEEF",
"%v c #FF67C7E7",
"%w c #FF3999B9",
"%x c #F40B7091",
"%y c #B1008AB8",
"%z c #A30095C8",
"%{ c #FF3898B8",
"%| c #FF63C3E3",
"%} c #FF65C4E5",
"&  c #FF71D1F1",
"&! c #CF00769D",
"&# c #EA000000",
"&$ c #BD00435A",
"&% c #A20096C9",
"&& c #E8016B8E",
"&' c #F80B6E8F",
"&( c #DF006D92",
"&) c #FC147595",
"&* c #FF3494B4",
"&+ c #FE3494B5",
"&, c #D5007299",
"&- c #31000000",
"&. c #FC000304",
"&/ c #980082AE",
"&0 c #A40095C7",
"&1 c #8B00AFEA",
"&2 c #DE006E93",
"&3 c #FF0F6F8F",
"&4 c #FF53B3D3",
"&5 c #FF5DBDDD",
"&6 c #FF147494",
"&7 c #FF3E9EBE",
"&8 c #FF046484",
"&9 c #B0008AB9",
"&: c #67000000",
"&; c #77000000",
"&< c #D100749C",
"&= c #FD2687A7",
"&> c #FF77D7F7",
"&? c #FD066787",
"&@ c #EC10789A",
"&A c #DB0A7A9F",
"&B c #8600B6F3",
"&C c #8A000000",
"&D c #A5000000",
"&E c #DF001B24",
"&F c #EF177DA0",
"&G c #FF61C1E1",
"&H c #FF5CBCDC",
"&I c #F315799B",
"&J c #9D000000",
"&K c #BF000000",
"&L c #CE002E3D",
"&M c #9800A0D6",
"&N c #DC0A799E",
"&O c #FD75D5F6",
"&P c #FC4BACCD",
"&Q c #ED00688A",
"&R c #9A009ED3",
"&S c #E4001218",
"&T c #9E000000",
"&U c #C3003A4E",
"&V c #B30088B6",
"&W c #F8076A8B",
"&X c #FF096989",
"&Y c #CD00779F",
"&Z c #F4000406",
"&[ c #80000000",
"&\ c #AE008CBB",
"&] c #C1007EA9",
"&^ c #AA008FC0",
"&_ c #C9003040",
"&` c #B9004961",
"&a c #AB000000",
"&b c #F0000B0E",
"&c c #BC00455C",
"&d c #35000000",
"&e c #5A000000",
"&f c #D4002633",
"&g c #5C000000",
"&h c #73000000",
"&i c #DE001D27",
"&j c #BF004156",
"&k c #99007FAA",
"&l c #A2006D92",
"&m c #50000000",
"&n c #3F000000",
"&o c #F5000709",
"&p c #E9000F14",
"&q c #E200151D",
"&r c #E100171F",
"&s c #DD001D27",
"&t c #A1006F94",
"&u c #AA006081",
"&v c #9A007EA8",
"&w c #8A00A1D8",
"&x c #8900A5DD",
"&y c #AE005876",
"&z c #F600070A",
"&{ c #24000000",
"&| c #F300080B",
"&} c #F9000406",
"'  c #F8000608",
"'! c #F8000507",
"'# c #FB000304",
"'$ c #2E000000",
"'% c #84000000",
"'& c #C4000000",
"'' c #DF000000",
"'( c #94000000",
"') c #2C000000",
"'* c #0A000000",
"'+ c #45000000",
"', c #56000000",
"'- c #68000000",
"'. c #A7000000",
"'/ c #DA000000",
"'0 c #F0000000",
"'1 c #D8000000",
"'2 c #B1000000",
/* pixels */
"                                                                                                                                ",
"                                                                                                                                ",
"                                                                                                                                ",
"                                                                                                                                ",
"                                                                                                                                ",
"                                         # $ % & ' ( ) * + + , - . / 0 1                                                        ",
"                                   2 3 4 5 6 7 8 9 9 9 9 9 9 9 9 9 7 : ; < = >                                                  ",
"                             ? @ A B 7 9 9 9 9 9 8 C D D E F C 9 9 9 9 9 9 G H !                                                ",
"                         I J K : 9 9 9 9 8 L M N O P Q Q R S T U V W X G 9 9 8 Y #                                              ",
"                     Z [ ' : 9 9 9 8 \ ] ^ _ ` a a a a a a a a a a b c d e f 9 8 g h                                            ",
"                   ? i : 9 9 9 C j k l m a a a a a a a a a a a a a a a a n o p 9 8 q r                                          ",
"                 s t f 9 9 8 u v w a a a a a a a a a a a a a a a a a a a a x y z 9 8 { |                                        ",
"               I }!  9 9!!!#!$!% a a a a a a a a a a a a a a a a a a a a a a b!&!' 9 7 <!(                                      ",
"             >!) G 9 9!*!+ a a a a a a a a a a a a a a a a a a a a a a a a a a!,!-!' 9!.!/ >                                    ",
"            !0 ; 9 9!1!2 a a a a a a a a a a a a a a a a a a a a a a a a a a a a!3!4 7 9 5!5                                    ",
"          !6 . 8 9 F!7 a a a a a a a a a a a a a a a a a a a a a a a a a a a a a m!8!9 9 7!:!(                                  ",
"          !;!< 9 9!=!% a a a a a a a a a a a a a a a a a a a a a a a a a a a a a a w!>!? 9 6!@                                  ",
"         > & 8 9!A!B a a a a a a a x!C `!% a a a a a a a a a a a a a a a a a a a a!%!D!E D 9!F!G                                ",
"        !H!I 9 8!J a a a a a a!K!L!M!N!O!P!Q m a a a a a a a a a a a a a a a a a a a!R!S!T 8! !U ?                              ",
"         % 7 9!V!W a a a a a!X!Y!Z![!\!]!^!_!`!% a a a a a a a a a a a a a a a a a a a!K!a!b 9 *!c                              ",
"       >!d 9 9!e a a a a a!%!f!g!h!i!j!k!l!m!n l a a a a a a a a a a a a a a a a a a!o a!p!q 8 8 < Z                            ",
"      !r B 9 D R a a a a a `!s!t!u!v!w!w!x!y!z!{!% a a a a a a a a a a a a a a a a a a a!%!L!| 9!}#                             ",
"      #! G 9!V## a a a a a#$#%#&#'!w!i!w!w#(#)#*#+ a a a a a a a a a a a a a a a a a a#+ a!, ^ C 8#,!6                          ",
"      #- 8 9#. b a a a a a#/!V#0!x!i 9!i!w!u#1#2#3 a a a a a a a a a a a a a a a a a a#4#5 a#6#7 9 B!c                          ",
"      #8 8 9#9 a a a a a a!$#:#;#<!w!i!w#=#>#?#@ b a a a a a a a a x!C#4 m a a a a a a a#A!o m#B 8 8#C >                        ",
"      #D 9 8#E a a a a a a x k#F#G#H#I#J#K#L#M#N a a a a a a a#4#O!e#P#Q#R#S!R a a a a a a!% a!Q#T 9#U#V                        ",
"      #W 9 8#X a a a a a a a!p#Y#Z#[#\#]#^#_ P b a a a a a a!$#`#a![!\!]!^#b#c m a a a a a a a#3#d 9 8#e                        ",
"      #f 9 8#g a a a a a a a a###h#i#j#k#l#m#n a a a a a a m#o#p#q!i!j!k!l!m#r!Q a a a a a a a m#s 9 9#t I                      ",
"      #f 9 C#u a a a a a a a a a m w!3!p#v m a a a a a a a!X#w!t!u!v!w!w!x!y!z#x!% a a a a a a a#y D 9 8#z                      ",
"      #W 9 C#x a a a a a a a a a a a a a a a a a a a a a a l#%#&#'!w!i!w!w#(#)#9#v a a a a a a a#{#| 9 9#} ?                    ",
"      !d 9 8!P a a a a a a a a a a a a a a a a a a a a a a$ !V#0!x!i 9!i!w!u#1$!!K a a a a a a a a$# 9 9 9$$                    ",
"      $% 9 9$& a a a a a a a a a a a a a a a a a a a a a a!C$'#;#<!w!i!w#=#>#?$( m a a a a a a a a$)$* 9 9!I 2                  ",
"      $+ 8 9$, a a a a a a a a a a a a a a a a a a a a a a!R$-$.#G#H#I#J#K#L$/!+ a a a a a a a a a!%$0 9 9 8 3                  ",
"      $1 7 9!A#n a a a a a a a a a a a a a a a a a a a a a a$2$3#F#[#\#]#^$4$5 m a a a a a a a a a a#+$6 9 9$7 >                ",
"       $ : 9$8$9 a a a a a a a a a a a a a a a a a a a a a a a!$$:!N M$;$<$= b a a a a a a a a a a a a$> D 9!.$?                ",
"       2 p 9$@ _ a a a a a a a a a a a a a a a a a a a a a a a a a a a a a a a a a a a a a a a a a a a!C$A 9 8 Y                ",
"        $B 9$C$D a a a a a a a a a a a a a a a a a a a a a a a a a a a a a a a a a a a a a a a a a a a a$E 8 9$F!6              ",
"         5 9$C T a a a a a a a a a a a a a a a a a a a a a a a a a a a a a a a a a a a a a a a a a a a a$G$H 9 G$I              ",
"         5 9 D T a a a a a a a a a a a a a a a a a a$J$K$L$M$N$O a a a a a a a a a a a a a a a a a a a a x$P 9 8$+              ",
"        $Q 9 D$R a a a a a a a a a a a a a a a a a a$S$T$U$V$W$X$K a a a a a a a a a a a a a a a a a a a a$Y 8 9$Z Z            ",
"       #$[ 9 F S a a a a a a a a a a a a a a a a a$\$]$^$_$`$_$a$b$c a a a a a a a a a a a a a a a a a a a$d D 9 :$e            ",
"       J f 9$f$g a a a a a a a a a a a a a a a a$h$i$j$k$l$l$l$m$n$K a a a a a a a a a a a a a a a a a a a `$o 9 8 H            ",
"      $p 7 9$q#A a a a a a a a a a a a a a a a a$r$s$t$u$v$w$x$y$z${ a a a a a a a a a a a a a a a a a a a a#9 9 9$| >          ",
"      $} 8 9%  a a a a a a a a a a a a a a a a%!%#%$%%$t%&$w%'%(%)%*%+%,%! a a a a a%-$S%.$K$J a a a a a a a%/ C 9%0%1          ",
"     I%2 9 8 k a a a a a a a a a a a a a a a a%3%4%5%'%'%6$l%7$l%8%9%:%;%<%=%3%> a a%?%@%A%B%C a a a a a a a$g%D 9! %E          ",
"    %F!. 9 E!7 a a a a a a a a a a a a a a a a%G%H%I$l$l$l%J$u%K%L$`%M%N%O%P%Q%R%S%T%U%9%V%W%X%Y%! a a a a a m%Z 9 9%[          ",
"    %\ 8 9!A!C a a a a a a a a a a a a a a a a%?%]%^$l$l%_%`%a%b%c%d%e%f%g%h%i%j%k%l$m%m$l%n%o%p%q a a a a a a%r 9 9 -          ",
"    %s 9 9$!!% a a a a a a a a a a a a a a a a%3%t%o%u%v%w%x%y a%z$X%$%{%|$l$l%n%}& $l$l$l$x%W&!%> a a a a a a$R D 9 z s        ",
"   #&# 9 C&$ a a a a a a a a a a a a a a a a a a&%&&%:&'%b$\%- a a$c$\&(&)&*%}$l$l%7%_%g$l%g&+&, a a a a a a a#$%D 9 6&-        ",
"   $ : 9&.&/ a a a a a a a a a a a a a a a a a a a%,&0%z$h%! a a a a a&1%#&2&3&4$l&5&6&7%^&7&8&9%! a a a a a a#+ M 9! &:        ",
"  &; 7 9$q#A a a a a a a a a a a a a a a a a a a a a%! a a a a a a a a a a%3&<&=%J&>%W&?&@&A%#&B a a a a a a a a#d 9 8&C        ",
"  &D 8 9&E a a a a a a a a a a a a a a a a a a a a a a a a a a a a a a a a a%=&F&G$l&H&I%T%3%! a a a a a a a a a V 9 9&J        ",
"  &K 9 9&L a a a a a a a a a a a a a a a a a a a a a a a a a a a a a a a a a&M&N%{&O&P&Q&R a a a a a a a a a a a&S 9 9&T        ",
"  #W 9 8&U a a a a a a a a a a a a a a a a a a a a a a a a a a a a a a a a a%q&V&W%d&X&Y%q a a a a a a a a a a#+&Z 9 7&[        ",
"  #W 9 8#g a a a a a a a a a a a a a a a a a a a a a a a a a a a a a a a a a a a&\&]&^%q a a a a a a a a a a m&_ 8 9 6 @        ",
"  !d 9 8&L a a a a a a a a a a a a a a a a a a a a a a a a a a a a a a a a a a a a%q%q a a a a a a a a a a!%&` E 9 9 K Z        ",
"  &a 9 9&b ` a a a a a a a a a a a a a a a a a a a a a a a a a a a a a a a a a a a a a a a a a a a a a a b&c F 9 9 z&d          ",
"  &e!  9 8&f#+ a a a a a a a a a a a a a a a a a a a a a a a a a a a a a a a a a a a a a a a a a a a a!K U D 9 9 6&g >          ",
"   2$| 9 9 8#*!C a a a a a a a a a a a a a a a a a a a a a a a a a a a a a a a a a a a a a a a a a#3!f$o 8 9 9 6&h ?            ",
"    %F!I 9 9 9!1&i&j&k!, a a a a a a a a a a a a a a a a a a a a a a a a a a a a a a a a a a `&l!M!| C 9 9 9!}&m >              ",
"      &n + 9 9 9 9 8 L$f!1&o!9&p&q&r&E&E!O&s$E&t&k!+ S&u S&v l&w!R!X!R a a a a a!%&x#$&y U!N&z E 8 9 9 9! !d r                  ",
"        &{#D!. 8 9 9 9 9 9 9 9 9 9 9 9 9 9 9 9 9 9 9 9 9 9 9 8 F&|&o&}#T#T!|' ' '!$8'# C 8 9 9 9 9 8 : -&e !                    ",
"           I'$'%'& ;!. : f! !  7 7 8 8 9 9 9 9 9 9 9 9 9 9 9 9 9 9 9 9 9 9 9 9 9 9 9 9 9 9 9 7 6'''(') >                        ",
"                  '*!c'+',&:'-&h'% Y'.'/ 6! !  f f G G : G 7 8 9 8 G : : : : : : : :!.'0'1'2&;!; !                              "
};