/* XPM */
static char *result[] = {
/* columns rows colors chars-per-pixel */
"64 64 94 2 ",
"   c #000000",
".  c #000709",
"X  c #00090D",
"o  c #000E13",
"O  c #021015",
"+  c #0D1010",
"@  c #00141B",
"#  c #0E1618",
"$  c #141616",
"%  c #001B24",
"&  c #001F29",
"*  c #00212C",
"=  c #1F2121",
"-  c #002734",
";  c #002D3C",
":  c #222323",
">  c #2B2C2C",
",  c #3F3F3F",
"<  c #003243",
"1  c #003649",
"2  c #003A4E",
"3  c #003D52",
"4  c #004157",
"5  c #00445B",
"6  c #004B64",
"7  c #004F69",
"8  c #00516C",
"9  c #005673",
"0  c #005876",
"q  c #005B7A",
"w  c #4B4B4B",
"e  c #535353",
"r  c gray35",
"t  c gray39",
"y  c gray42",
"u  c gray47",
"i  c #006385",
"p  c #016789",
"a  c #02698C",
"s  c #0A6B8B",
"d  c #016D92",
"f  c #007095",
"g  c #0E7293",
"h  c #01749B",
"j  c #087499",
"k  c #127292",
"l  c #117698",
"z  c #117A9D",
"x  c #1C7C9C",
"c  c #0077A0",
"v  c #017AA3",
"b  c #007EA9",
"n  c #127DA1",
"m  c #0181AC",
"M  c #0086B4",
"N  c #008CBB",
"B  c #2384A4",
"V  c #2D8DAD",
"C  c #3292B2",
"Z  c #3A9ABA",
"A  c #008FC0",
"S  c #0093C4",
"D  c #0096C9",
"F  c #009ACD",
"G  c #009DD2",
"H  c #00A0D6",
"J  c #09A0D3",
"K  c #00A4DB",
"L  c #00AAE3",
"P  c #00AEE9",
"I  c #00B2ED",
"U  c #00B5F2",
"Y  c #00B9F7",
"T  c #00BFFF",
"R  c #42A2C2",
"E  c #4CACCC",
"W  c #52B2D2",
"Q  c #5CBCDC",
"!  c #63C3E3",
"~  c #66C8E9",
"^  c #6CCBEC",
"/  c #75D5F5",
"(  c #7EDDFE",
")  c #939393",
"_  c #9A9A9A",
"`  c gray64",
"'  c #BDBDBD",
"]  c gray80",
"[  c #D9D9D9",
"{  c #E4E4E4",
"}  c #EAEAEA",
"|  c #F3F3F3",
" . c #FDFDFD",
".. c None",
/* pixels */
"................................................................................................................................",
"................................................................................................................................",
"................................................................................................................................",
"................................................................................................................................",
"................................................................................................................................",
"..............................................                      ............................................................",
"......................................                                    ......................................................",
"................................                                                ................................................",
"............................                X % ; 4 8 8 q a 8 ; @ . X               ............................................",
"........................            . O < a P T T T T T T T T T T T Y A 6 O           ..........................................",
"....................            X 1 M T T T T T T T T T T T T T T T T T T K 0 o         ........................................",
"..................          X 5 K T T T T T T T T T T T T T T T T T T T T T T I 5         ......................................",
"................          < H T T T T T T T T T T T T T T T T T T T T T T T T T T i       ......................................",
"................      . v T T T T T T T T T T T T T T T T T T T T T T T T T Y T T T 4       ....................................",
"..............      . v T T T T T T T T T T T T T T T T T T T T T T T T T T Y T T T G o     ....................................",
"............        i T T T T T T T T T T T T T T T T T T T T T T T T T T T T ..T T T 7       ..................................",
"............      * T T T L 8 & o @ ; h Y T T T T T T T T T T T T T T T T T T ....T T G o     ..................................",
"..........      X G T T H ; + , y t > o q Y T T T T T T T T T T T T T T T T T U ..Y T T 5       ................................",
"..........      1 T T Y 5 $ u [ } } ' w o m T T T T T T T T T T T T T T T T T T T ..T T N X     ................................",
"..........    . D T T L O r {  . . . .' : 3 T T T T T T T T T T T T T T T T T T T ..T T T 5       ..............................",
"........      & T T T M . _  . .[  . .{ e * P T T T T T T T T T T T T T T T T T T T T T T K @       ............................",
"........      0 T T T M   `  .[   [  .{ r * P T T T T T T T T T T T T T T T T T T T T T T T f .       ..........................",
"........    . D T T T K o y }  .[  . .] > 1 Y T T T T T T T T T L 8 * O @ ; h Y T T T T T T Y 8         ........................",
"......      o Y T T T Y 2 = _ | |  .[ y # h T T T T T T T T T H ; + , y t > O q Y T T T Y T T Y 3 .       ......................",
"......      * T T T T T F - = y ` ) w # 8 Y T T T T T T T T T 5 $ u [ } { ' w O m T T T T T T T I 2         ....................",
"......      ; T T T T T T H 5 @ X o * p Y T T T T T T T T T K @ r {  . . . .' : 2 Y T T T T ..T T U 3         ..................",
"......      < T T T T T T T T T T T T T T T T T T T T T T T M . _  . .[  . .{ e * P T T T T T Y T T I 4         ................",
"......      2 T T T T T T T T T T T T T T T T T T T T T T T m . `  .[   [  .{ r * I T T T T T T ..T T U 7       ................",
"......      3 T T T T T T T T T T T T T T T T T T T T T T T K O y |  .[  . .] > 1 Y T T T T T T ....T Y Y 7       ..............",
"......      3 T T T T T T T T T T T T T T T T T T T T T T T Y 2 = _ | |  .[ y O v T T T T T T T T ..Y T T Y O     ..............",
"......      1 T T T T T T T T T T T T T T T T T T T T T T T T F * = y ` ) w $ 7 Y T T T T T T T T ....T T T 0       ............",
"......      ; T T T T T T T T T T T T T T T T T T T T T T T T T G 5 @ X o * p Y T T T T T T T T T T ..T T Y A       ............",
"......      @ T T T T T T T T T T T T T T T T T T T T T T T T T T T T T T T T T T T T T T T T T T T T ..T T Y O       ..........",
"........    X Y T T T T T T T T T T T T T T T T T T T T T T T T T T T T T T T T T T T T T T T T T T T ..T T T ;       ..........",
"........      D T T T T T T T T T T T T T T T T T T T T T T T T T T T T T T T T T T T T T T T T T T T ..T T T q       ..........",
"........      a T T T T T T T T T T T T T T T T T T T T T T T T T T T T T T T T T T T T T T T T T T T T T T T m .     ..........",
"........      9 T T T T T T T T T T T T T T T T T T T T T T T T T T T T T T T T T T T T T T T T T T T T T T T N X     ..........",
"........      9 T T T T T T T T T T T T T T T T T T T T T T T T T T T T T T T T T T T T T T T T T T T T T T T F X     ..........",
"........      8 T T T T T T T T T T T T T T T T T Y P L U Y T T T T T T T T T T T T T T T T T T T T T T T T T H O     ..........",
"........      0 T T T T T T T T T T T T T T T T Y D m f p m Y T T T T T T T T T T T T T T T T T T T T T T T T K O     ..........",
"........      a T T T T T T T T T T T T T T T K f s V E R s N U T T T T T T T T T T T T T T T T T T T T T T T L @     ..........",
"........      S T T T T T T T T T T T T T T Y m B ! ( ( ( R h P T T T T T T T T T T T T T T T T T T T T T T T P @     ..........",
"........    X Y T T T T T T T T T T T T T T K d V ^ ( ( ( Q p K T T T T T T T T T Y T T T T T T T T T T T T T L O     ..........",
"......      % T T T T T T T T T T T T T T T K s x x Z ( ( ! g h J Y T T T T T T T P H I T T T T T T T T T T T L O     ..........",
"......      1 T T T T T T T T T T T T T T T h B Q / ^ ( ( ( E B p a m D Y Y T T K v j p M T T T T T T T T T T L @     ..........",
"......      i T T T T T T T T T T T T T T H p E ( ( ( ( ^ Q ~ ^ ! Z x s f M F N p B E Z s F Y T T T T T T T T F O     ..........",
"......    . K T T T T T T T T T T T T T T F B E ( ( ( ! x s s C ^ ( / W Z g k z C ^ ( ( C v I T T T T T T T T F o     ..........",
"....      & T T T T T T T T T T T T T T T I h C / ( ! B h L M d k R ^ ( ( / Q Q / ( ( ( W a U T T T T T T T T N o     ..........",
"....      5 T T T T T T T T T T T T T T T T N s V B s f H T T K M a l R ^ ( ( ( / ( ( ( R a Y T T T T T T T T b       ..........",
"....      m T T T T T T T T T T T T T T T T T N v b S I T T T T T L b p k W ( ^ B R ! E k v U T T T T T T T T P X     ..........",
"....    X U T T T T T T T T T T T T T T T T T T T U Y T T T T T T T T K h B ^ / R k g n b L T T T T T T T T T T @       ........",
"..      & T T T T T T T T T T T T T T T T T T T T T T T T T T T T T T T F n W ( ^ B h H I T T T T T T T T T T T %       ........",
"..      ; T T T T T T T T T T T T T T T T T T T T T T T T T T T T T T T I v V / ~ s N T T T T T T T T T T T T T @       ........",
"..      2 T T T T T T T T T T T T T T T T T T T T T T T T T T T T T T T T N i C B a K T T T T T T T T T T T T I         ........",
"..      3 T T T T T T T T T T T T T T T T T T T T T T T T T T T T T T T T T N v N P T T T T T T T T T T T T Y <       ..........",
"..      ; T T T T T T T T T T T T T T T T T T T T T T T T T T T T T T T T T T T T T T T T T T T T T T T T T 6         ..........",
"..      X L T T T T T T T T T T T T T T T T T T T T T T T T T T T T T T T T T T T T T T T T T T T T T T Y 5         ............",
"....      - P T T T T T T T T T T T T T T T T T T T T T T T T T T T T T T T T T T T T T T T T T T T T P ;         ..............",
"....        * K T T T T T T T T T T T T T T T T T T T T T T T T T T T T T T T T T T T T T T T T T L 6 .         ................",
"......        . * 4 m I T T T T T T T T T T T T T T T T T T T T T T T T T T T T T T T T T T L d - .           ..................",
"........                . X X O @ % % % % & ; d m h a i p b M K Y K Y T T T T T T K N q ; @ .               ....................",
"..........                                                      X . . . . . . . .                       ........................",
"..............                                                                                      ............................",
"................................                                                            ...................................."
};
