/* XPM */
static char *result[] = {
/* columns rows colors chars-per-pixel */
"64 64 96 2 ",
"   c #000000",
".  c #000609",
"X  c #00090C",
"o  c #010E12",
"O  c #021115",
"+  c #0D1112",
"@  c #00141B",
"#  c #0E1618",
"$  c #141616",
"%  c #141718",
"&  c #001B24",
"*  c #001F29",
"=  c #00222D",
"-  c #1F2121",
";  c #002632",
":  c #002936",
">  c #002D3C",
",  c #222323",
"<  c #2B2C2C",
"1  c #3F3F3F",
"2  c #003244",
"3  c #003649",
"4  c #00394D",
"5  c #003D51",
"6  c #004157",
"7  c #00445B",
"8  c #004B65",
"9  c #004E69",
"0  c #00516C",
"q  c #005470",
"w  c #005876",
"e  c #005B7A",
"r  c #4B4B4B",
"t  c #535353",
"y  c gray35",
"u  c gray39",
"i  c gray42",
"p  c #797979",
"a  c #016485",
"s  c #016688",
"d  c #01698D",
"f  c #096C8C",
"g  c #016E93",
"h  c #027195",
"j  c #0C7294",
"k  c #01749B",
"l  c #06799F",
"z  c #0F7A9E",
"x  c #137495",
"c  c #177D9F",
"v  c #1B7B9B",
"b  c #0077A0",
"n  c #0079A2",
"m  c #007FAA",
"M  c #0082AD",
"N  c #0086B4",
"B  c #0289B6",
"V  c #008CBB",
"C  c #2484A5",
"Z  c #2B8BAB",
"A  c #3393B3",
"S  c #3C9CBC",
"D  c #008FC0",
"F  c #0092C3",
"G  c #0096C9",
"H  c #009ACE",
"J  c #009FD4",
"K  c #00A0D6",
"L  c #09A2D6",
"P  c #00A3DB",
"I  c #00AAE3",
"U  c #00AEE9",
"Y  c #00B1ED",
"T  c #00B5F3",
"R  c #00B9F7",
"E  c #00BFFF",
"W  c #43A3C4",
"Q  c #4BABCB",
"!  c #52B2D2",
"~  c #5BBBDB",
"^  c #64C3E4",
"/  c #6DCCED",
"(  c #70CFF0",
")  c #73D3F3",
"_  c #7EDDFE",
"`  c #939393",
"'  c #9A9A9A",
"]  c gray64",
"[  c #BDBDBD",
"{  c gray80",
"}  c #D9D9D9",
"|  c #E4E4E4",
" . c #EAEAEA",
".. c #F3F3F3",
"X. c #FDFDFD",
"o. c None",
/* pixels */
"o.o.o.o.o.o.o.o.o.o.o.o.o.o.o.o.o.o.o.o.o.o.o.o.o.o.o.o.o.o.o.o.o.o.o.o.o.o.o.o.o.o.o.o.o.o.o.o.o.o.o.o.o.o.o.o.o.o.o.o.o.o.o.o.",
"o.o.o.o.o.o.o.o.o.o.o.o.o.o.o.o.o.o.o.o.o.o.o.o.o.o.o.o.o.o.o.o.o.o.o.o.o.o.o.o.o.o.o.o.o.o.o.o.o.o.o.o.o.o.o.o.o.o.o.o.o.o.o.o.",
"o.o.o.o.o.o.o.o.o.o.o.o.o.o.o.o.o.o.o.o.o.o.o.o.o.o.o.o.o.o.o.o.o.o.o.o.o.o.o.o.o.o.o.o.o.o.o.o.o.o.o.o.o.o.o.o.o.o.o.o.o.o.o.o.",
"o.o.o.o.o.o.o.o.o.o.o.o.o.o.o.o.o.o.o.o.o.o.o.o.o.o.o.o.o.o.o.o.o.o.o.o.o.o.o.o.o.o.o.o.o.o.o.o.o.o.o.o.o.o.o.o.o.o.o.o.o.o.o.o.",
"o.o.o.o.o.o.o.o.o.o.o.o.o.o.o.o.o.o.o.o.o.o.o.o.o.o.o.o.o.o.o.o.o.o.o.o.o.o.o.o.o.o.o.o.o.o.o.o.o.o.o.o.o.o.o.o.o.o.o.o.o.o.o.o.",
"o.o.o.o.o.o.o.o.o.o.o.o.o.o.o.o.o.o.o.o.o.o.o.                      o.o.o.o.o.o.o.o.o.o.o.o.o.o.o.o.o.o.o.o.o.o.o.o.o.o.o.o.o.o.",
"o.o.o.o.o.o.o.o.o.o.o.o.o.o.o.o.o.o.o.                                    o.o.o.o.o.o.o.o.o.o.o.o.o.o.o.o.o.o.o.o.o.o.o.o.o.o.o.",
"o.o.o.o.o.o.o.o.o.o.o.o.o.o.o.o.                                                o.o.o.o.o.o.o.o.o.o.o.o.o.o.o.o.o.o.o.o.o.o.o.o.",
"o.o.o.o.o.o.o.o.o.o.o.o.o.o.                X * > 6 0 0 e d 0 : o                   o.o.o.o.o.o.o.o.o.o.o.o.o.o.o.o.o.o.o.o.o.o.",
"o.o.o.o.o.o.o.o.o.o.o.o.            . O 2 d I E E E E E E E E E R T M ; .                 o.o.o.o.o.o.o.o.o.o.o.o.o.o.o.o.o.o.o.",
"o.o.o.o.o.o.o.o.o.o.            X 2 B E E E E E E E E E E E E E E E E E K e * . .             o.o.o.o.o.o.o.o.o.o.o.o.o.o.o.o.o.",
"o.o.o.o.o.o.o.o.o.          X 7 P E E E E E E E E E E E E E E E E E E E E E R F e w * .           o.o.o.o.o.o.o.o.o.o.o.o.o.o.o.",
"o.o.o.o.o.o.o.o.          2 K E E E E E E E E E E E E E E E E E E E E E E E E E E R R V 4 .         o.o.o.o.o.o.o.o.o.o.o.o.o.o.",
"o.o.o.o.o.o.o.o.      . n E E E E E E E E E E E E E E E E E E E E E E E E E o.E E E E E R F >           o.o.o.o.o.o.o.o.o.o.o.o.",
"o.o.o.o.o.o.o.      . n E E E E E E E E E E E E E E E E E E E E E E E E E E E E E E E E E E Y 9 .             o.o.o.o.o.o.o.o.o.",
"o.o.o.o.o.o.        a E E E E E E E E E E E E E E E E E E E E E E E E E E E E E E E Y E E E E R M > X           o.o.o.o.o.o.o.o.",
"o.o.o.o.o.o.      = E E E E E E E E E E E E E E E E E I 9 * O @ > k R E E E E E E E E R E E E E E R V a > .       o.o.o.o.o.o.o.",
"o.o.o.o.o.      . J E E E E E E E E E E E E E E E E K 2 + 1 i u < O e R E E E E E E E E E E E E E E E E R w       o.o.o.o.o.o.o.",
"o.o.o.o.o.      3 E E E E E E E E E E E E E E E E R 7 % p }  .| [ r o M E E E E E E E E E E E E E E E E E T *     o.o.o.o.o.o.o.",
"o.o.o.o.o.    . G E E E E E E E E E E E E E E E E I O y | X.X.X.X.[ , 6 E E E E E E E E E E E E E E E E E E >     o.o.o.o.o.o.o.",
"o.o.o.o.      * E E E E E E E E E E E E E E E E E N . ' X.X.} X.X.| t = U E E E R E E E E E E E E E E E E P O     o.o.o.o.o.o.o.",
"o.o.o.o.      w E E E E E E E R P I R E E E E E E N   ] X.}   } X.| y * U E E E E R E E E E E E E E E E E s       o.o.o.o.o.o.o.",
"o.o.o.o.    . G E E E E E U e ; @ * 3 M R E E E E P o i  .X.} X.X.{ < 2 E E E E E E R E E E E E E E E E E 3     o.o.o.o.o.o.o.o.",
"o.o.o.      o R E E E E I 4 + 1 i u < @ s E E E E R 4 - ' ..X...} i + n E E E E E E E E E E E E E E E E E ;     o.o.o.o.o.o.o.o.",
"o.o.o.      = E E E E R 8 $ p }  . .[ r O B E E E E H = - i ] ` r # 0 R E E E E E E E E E E E E E E E E E =     o.o.o.o.o.o.o.o.",
"o.o.o.      > E E E E I @ y | X.X.X.X.[ , 6 E E E E E K 7 @ X o = s R E E E E E E E E E E E E E E E E E E ;     o.o.o.o.o.o.o.o.",
"o.o.o.      2 E E E E V . ' X.X.} X.X.| t = Y E E E E E E E E E E E E E E E E E E E E E E E E E E E E E E ;     o.o.o.o.o.o.o.o.",
"o.o.o.      4 E E E E M   ] X.}   } X.| y * I E E E E E E E E E E E E E E E E E E E I G F I T E E E E E E ;     o.o.o.o.o.o.o.o.",
"o.o.o.      5 E E E E K o i ..X.} X.X.{ < 2 R E E E E E E E E E E E E E E E E E E H k f x h V T E E E E T 3     o.o.o.o.o.o.o.o.",
"o.o.o.      5 E E E E R 2 - '  .X...} i + k E E E E E E E E E E E E E E E E E E T M v ~ ^ Q f N E E E E Y 9     o.o.o.o.o.o.o.o.",
"o.o.o.      3 E E E E E F * - i ] ` r + 6 R E E E E E E E E E E E E E E E E E E R h S _ _ _ W h P E E E R 6     o.o.o.o.o.o.o.o.",
"o.o.o.      > E E E E E E G 3 O . X & w R E E E E E E E E E E E E E E E E E E E P j Q _ _ _ ! s P E E E E =       o.o.o.o.o.o.o.",
"o.o.o.      & E E E E E E E E I V F Y R E E E E E E E E E E E E E E E E E E Y K k C ~ _ _ ) A l I E E E E ;       o.o.o.o.o.o.o.",
"o.o.o.o.    X T E E E E E E E E E E E E E E E E E E E R V M V K E E E R I V h f C ! _ ( A C z V E E E E E ;       o.o.o.o.o.o.o.",
"o.o.o.o.    . F E E E E E E E E E E E E E E E E E E U M f C x k K I L k s x Z ! ) _ _ ~ C C g V E E E E E >       o.o.o.o.o.o.o.",
"o.o.o.o.      d E E E E E E E E E E E E E E E E E R V j ! ( ) C s f f C W / _ _ _ ) ) _ _ ^ C k R E E E E 7       o.o.o.o.o.o.o.",
"o.o.o.o.      w E E E E E E E E E E E E E E E E E E k A _ _ _ / ! W ! _ ) ) ~ W Z C Z ! _ _ W d T E E E E 9       o.o.o.o.o.o.o.",
"o.o.o.o.      0 E E E E E E E E E E E E E E E E E P f ~ _ _ _ _ _ ( Q A Z x a d k M k C A Q x M T E E E E 0       o.o.o.o.o.o.o.",
"o.o.o.o.      q E E E E E E E E E E E E E E E E E H x ! ~ S ) _ ^ Z s h n V K I E E I B k d k P E E E E E 0       o.o.o.o.o.o.o.",
"o.o.o.o.      q E E E E E E E E E E E E E E E E E I g x v ~ _ _ ! a I R E E E E E E E E I Y R E E E E E E 6       o.o.o.o.o.o.o.",
"o.o.o.o.      s E E E E E E E E E E E E E E E E E R B f Q _ _ _ W h I E E E E E E E E E E E E E E E E E E d         o.o.o.o.o.o.",
"o.o.o.o.      F E E E E E E E E E E E E E E E E E E P h ~ _ _ _ W d R E E E E E E E E E E E E E E E E E E I .       o.o.o.o.o.o.",
"o.o.o.o.    o T E E E E E E E E E E E E E E E E E E R h Z ) _ ) x N R E E E E E E E E E E E E E E E E E E E *       o.o.o.o.o.o.",
"o.o.o.      & E E E E E E E E E E E E E E E E E E E E V z Z S Z h K E E E E E E E E E E E E E E E E E E E E 8       o.o.o.o.o.o.",
"o.o.o.      2 E E E E E E E E E E E E E E E E E E E E E F n h h H R E E E E E E E E E E E E E E E E E E E E F .     o.o.o.o.o.o.",
"o.o.o.      a E E E E E E E E E E E E E E E E E E E E E E Y R R E E E E E E E E E E E E E E E E E E E E E E R @       o.o.o.o.o.",
"o.o.o.    X P E E E E E E E E E E E E E E E E E E E E E E E E E E E E E E E E E E E E E E E E E E E E E E E E >       o.o.o.o.o.",
"o.o.      * E E E E E E E E E E E E E E E E E E E E E E E E E E E E E E E E E E E E E E E E E E E E E E E E E 0       o.o.o.o.o.",
"o.o.      7 E E E E E E E E E E E E E E E E E E E E E E E E E E E E E E E E E E E E E E E E E E E E E E E E E B .     o.o.o.o.o.",
"o.o.      M E E E E E E E E E E E E E E E E E E E E E E E E E E E E E E E E E E E E E E E E E E E E E E E E E Y X     o.o.o.o.o.",
"o.o.    X T E E E E E E E E E E E E E E E E E E E E E E E E E E E E E E E E E E E E E E E E E E E E E E E E E E @       o.o.o.o.",
"o.      * E E E E E E E E E E E E E E E E E E E E E E E E E E E E E E E E E E E E E E E E E E E E E E E E E E E &       o.o.o.o.",
"o.      > E E E E E E E E E E E E E E E E E E E E E E E E E E E E E E E E E E E E E E E E E E E E E E E E E E E O       o.o.o.o.",
"o.      4 E E E E E E E E E E E E E E E E E E E E E E E E E E E E E E E E E E E E E E E E E E E E E E E E E E Y .       o.o.o.o.",
"o.      5 E E E E E E E E E E E E E E E E E E E E E E E E E E E E E E E E E E E E E E E E E E E E E E E E E R 2       o.o.o.o.o.",
"o.      > E E E E E E E E E E E E E E E E E E E E E E E E E E E E E E E E E E E E E E E E E E E E E E E E E 8         o.o.o.o.o.",
"o.      X I E E E E E E E E E E E E E E E E E E E E E E E E E E E E E E E E E E E E E E E E E E E E E E R 7         o.o.o.o.o.o.",
"o.o.      ; U E E E E E E E E E E E E E E E E E E E E E E E E E E E E E E E E E E E E E E E E E E E E U >         o.o.o.o.o.o.o.",
"o.o.        = P E E E E E E E E E E E E E E E E E E E E E E E E E E E E E E E E E E E E E E E E E I 8 .         o.o.o.o.o.o.o.o.",
"o.o.o.        . = 6 M Y E E E E E E E E E E E E E E E E E E E E E E E E E E E E E E E E E E I g ; .           o.o.o.o.o.o.o.o.o.",
"o.o.o.o.                . X X O @ @ * & & * > g m n s a s M B P R P R E E E E E E P V e > @ .               o.o.o.o.o.o.o.o.o.o.",
"o.o.o.o.o.                                                      X . . . X . . . .                       o.o.o.o.o.o.o.o.o.o.o.o.",
"o.o.o.o.o.o.o.                                                                                      o.o.o.o.o.o.o.o.o.o.o.o.o.o.",
"o.o.o.o.o.o.o.o.o.o.o.o.o.o.o.o.                                                            o.o.o.o.o.o.o.o.o.o.o.o.o.o.o.o.o.o."
};
