/* XPM */
static char *result[] = {
/* columns rows colors chars-per-pixel */
"64 64 99 2 ",
"   c #000000",
".  c #000609",
"X  c #00090D",
"o  c #010E12",
"O  c #021015",
"+  c #0D1112",
"@  c #00141C",
"#  c #0E1618",
"$  c #141616",
"%  c #141718",
"&  c #001720",
"*  c #001B24",
"=  c #001F29",
"-  c #00212C",
";  c #1F2121",
":  c #002734",
">  c #002836",
",  c #002D3C",
"<  c #222323",
"1  c #2B2C2C",
"2  c #3F3F3F",
"3  c #003344",
"4  c #00374A",
"5  c #00394D",
"6  c #003D51",
"7  c #004157",
"8  c #00455C",
"9  c #004B64",
"0  c #004F69",
"q  c #00516D",
"w  c #005571",
"e  c #005876",
"r  c #005B7A",
"t  c #4B4B4B",
"y  c #535353",
"u  c gray35",
"i  c gray39",
"p  c gray42",
"a  c #797979",
"s  c #016384",
"d  c #006789",
"f  c #026A8D",
"g  c #0C6D8E",
"h  c #006E93",
"j  c #037196",
"k  c #0D7294",
"l  c #01749B",
"z  c #08759A",
"x  c #0C799E",
"c  c #137494",
"v  c #157899",
"b  c #1C7C9C",
"n  c #0077A0",
"m  c #007AA2",
"M  c #087BA2",
"N  c #007FA9",
"B  c #157DA0",
"V  c #0082AD",
"C  c #0086B3",
"Z  c #0089B7",
"A  c #008CBB",
"S  c #2484A4",
"D  c #2C8CAD",
"F  c #3494B5",
"G  c #3B9BBB",
"H  c #008FC0",
"J  c #0094C5",
"K  c #0096C9",
"L  c #009ACE",
"P  c #009ED3",
"I  c #00A0D6",
"U  c #00A4DC",
"Y  c #00ABE4",
"T  c #00AEE9",
"R  c #00B1ED",
"E  c #00B6F3",
"W  c #01B9F7",
"Q  c #00BFFF",
"!  c #42A2C2",
"~  c #4BABCB",
"^  c #54B4D4",
"/  c #5BBBDB",
"(  c #64C3E4",
")  c #6CCCEC",
"_  c #70CFF0",
"`  c #73D3F3",
"'  c #78D7F8",
"]  c #7DDDFD",
"[  c #939393",
"{  c #9A9A9A",
"}  c gray64",
"|  c #BDBDBD",
" . c gray80",
".. c #D9D9D9",
"X. c #E4E4E4",
"o. c #EAEAEA",
"O. c #F3F3F3",
"+. c #FDFDFD",
"@. c None",
/* pixels */
"@.@.@.@.@.@.@.@.@.@.@.@.@.@.@.@.@.@.@.@.@.@.@.@.@.@.@.@.@.@.@.@.@.@.@.@.@.@.@.@.@.@.@.@.@.@.@.@.@.@.@.@.@.@.@.@.@.@.@.@.@.@.@.@.",
"@.@.@.@.@.@.@.@.@.@.@.@.@.@.@.@.@.@.@.@.@.@.@.@.@.@.@.@.@.@.@.@.@.@.@.@.@.@.@.@.@.@.@.@.@.@.@.@.@.@.@.@.@.@.@.@.@.@.@.@.@.@.@.@.",
"@.@.@.@.@.@.@.@.@.@.@.@.@.@.@.@.@.@.@.@.@.@.@.@.@.@.@.@.@.@.@.@.@.@.@.@.@.@.@.@.@.@.@.@.@.@.@.@.@.@.@.@.@.@.@.@.@.@.@.@.@.@.@.@.",
"@.@.@.@.@.@.@.@.@.@.@.@.@.@.@.@.@.@.@.@.@.@.@.@.@.@.@.@.@.@.@.@.@.@.@.@.@.@.@.@.@.@.@.@.@.@.@.@.@.@.@.@.@.@.@.@.@.@.@.@.@.@.@.@.",
"@.@.@.@.@.@.@.@.@.@.@.@.@.@.@.@.@.@.@.@.@.@.@.@.@.@.@.@.@.@.@.@.@.@.@.@.@.@.@.@.@.@.@.@.@.@.@.@.@.@.@.@.@.@.@.@.@.@.@.@.@.@.@.@.",
"@.@.@.@.@.@.@.@.@.@.@.@.@.@.@.@.@.@.@.@.@.@.@.                      @.@.@.@.@.@.@.@.@.@.@.@.@.@.@.@.@.@.@.@.@.@.@.@.@.@.@.@.@.@.",
"@.@.@.@.@.@.@.@.@.@.@.@.@.@.@.@.@.@.@.                                        @.@.@.@.@.@.@.@.@.@.@.@.@.@.@.@.@.@.@.@.@.@.@.@.@.",
"@.@.@.@.@.@.@.@.@.@.@.@.@.@.@.@.                                                      @.@.@.@.@.@.@.@.@.@.@.@.@.@.@.@.@.@.@.@.@.",
"@.@.@.@.@.@.@.@.@.@.@.@.@.@.                X & , 8 q q r d 0 - O . . .                   @.@.@.@.@.@.@.@.@.@.@.@.@.@.@.@.@.@.@.",
"@.@.@.@.@.@.@.@.@.@.@.@.            . O 3 f Y Q Q Q W Q Q Q Q Q Q E E Y V 9 - @ O               @.@.@.@.@.@.@.@.@.@.@.@.@.@.@.@.",
"@.@.@.@.@.@.@.@.@.@.            X 3 C Q Q Q Q Q Q Q Q Q Q Q Q Q Q Q Q @.@.@.Q R Y A 5 X             @.@.@.@.@.@.@.@.@.@.@.@.@.@.",
"@.@.@.@.@.@.@.@.@.          X 8 U Q Q Q Q Q Q Q Q Q Q Q Q Q Q Q Q Q Q Q Q @.@.@.@.@.Q U s @           @.@.@.@.@.@.@.@.@.@.@.@.@.",
"@.@.@.@.@.@.@.@.          3 I Q Q Q Q Q Q Q Q Q Q Q Q Q Q Q Q Q Q Q Q Q Q Q Q Q @.@.@.@.Q R j &         @.@.@.@.@.@.@.@.@.@.@.@.",
"@.@.@.@.@.@.@.@.      . m Q Q Q Q Q Q Q Q Q Q Q Q Q Q Q Q Q Q Q Q Q Q Q Q E W Q Q @.Q Q @.Q Q R d .       @.@.@.@.@.@.@.@.@.@.@.",
"@.@.@.@.@.@.@.      . m Q Q Q Q Q Q Q Q Q Q Q Q Q Q Q Q Q Q Q Q Q Q Q Q Q Q Q Q Q Q Q @.@.Q Q Q Q Z X       @.@.@.@.@.@.@.@.@.@.",
"@.@.@.@.@.@.        s Q Q Q Q Q Q Q Q Q Q Q Q Q Q Q Q Q Q Q Q Q Q Q Q Q Q Q Q Q Q Q Q @.@.Q Q @.Q W s .     @.@.@.@.@.@.@.@.@.@.",
"@.@.@.@.@.@.      - Q Q Q Q Q Q Q Q Q Q Q Q Q Q Q Q Q Q Q Q Q Q Q Q Q Q Q Q Q Q Q Q Q @.@.Q Q Q Q @.E :       @.@.@.@.@.@.@.@.@.",
"@.@.@.@.@.      X P Q Q Q Q Q Q Q Q Q Q Q Q Q Q Q Q Q Q Q Q Q Q Q Q Q Q Q Q Q R Q Q Q Q @.Q Q Q Q Q @.l .     @.@.@.@.@.@.@.@.@.",
"@.@.@.@.@.      4 Q Q Q Q Q Q Q Q Q Q Q Q Q Q Q Q Q Q Q Q Q Q Q Q Q Q Q Q Q Q W Q Q Q Q @.@.Q Q Q Q @.R &     @.@.@.@.@.@.@.@.@.",
"@.@.@.@.@.    . J Q Q Q Q Q Q Q Q Q Q Q Q Q Q Q Q Q Q Q Q Y q = O @ , l W Q Q Q Q Q Q Q Q @.Q Q Q Q Q @.8       @.@.@.@.@.@.@.@.",
"@.@.@.@.      = Q Q Q Q Q Q Q E U Y Q Q Q Q Q Q Q Q Q Q I , + 2 p i 1 O r W Q Q Q Q Q Q Q Q Q Q Q Q Q @.m .     @.@.@.@.@.@.@.@.",
"@.@.@.@.      e Q Q Q Q Q T r : @ * 4 V W Q Q Q Q Q Q W 7 $ a ..o.o.| t O V Q Q Q Q Q @.Q Q Q Q Q Q @.@.P X     @.@.@.@.@.@.@.@.",
"@.@.@.@.    . K Q Q Q Q Y 4 + 2 p i 1 O d Q Q Q Q Q Q Y O u X.+.+.+.+.| ; 5 Q Q Q Q Q Q Q Q W Q Q Q Q @.E =     @.@.@.@.@.@.@.@.",
"@.@.@.      o W Q Q Q Q 8 % a ..o.o.| t O Z Q Q Q Q Q C . { +.+...+.+.X.y - R Q Q Q Q Q Q Q Q Q Q Q Q @.@.,     @.@.@.@.@.@.@.@.",
"@.@.@.      - Q Q Q Q Y @ u X.+.+.+.+.| < 8 Q Q Q Q Q C . } +...  ..+.X.u - Y Q Q Q Q Q Q @.Q Q Q Q Q @.Q 7     @.@.@.@.@.@.@.@.",
"@.@.@.      , Q Q Q Q Z . { +.+...+.+.X.y - T Q Q Q Q U o p O.+...+.+. .1 4 W Q Q Q Q Q Q Q Q Q Q Q Q @.Q 8     @.@.@.@.@.@.@.@.",
"@.@.@.      3 Q Q Q Q V . } +...  ..+.X.u - Y Q Q Q Q W 5 < { O.+.O...p + l Q Q Q Q Q Q Q Q Q Q Q Q Q W @.8     @.@.@.@.@.@.@.@.",
"@.@.@.      5 Q Q Q Q I X p O.+...+.+. .1 3 W Q Q Q Q Q L : % p } [ t # q Q Q Q Q Q Q Q Q Q Q Q @.Q Q Q @.6     @.@.@.@.@.@.@.@.",
"@.@.@.      6 Q Q Q Q W 3 ; { O.+.O...p o j Q Q Q Q Q Q Q I 8 @ X O - d W Q Q Q Q Q Q Q Q Q Q Q Q Q Q Q W 4     @.@.@.@.@.@.@.@.",
"@.@.@.      6 Q Q Q Q Q J = % p } [ t # 8 W Q Q Q Q Q Q Q Q Q Q Q Q Q Q Q Q Q Q Q Q Q Q Q Q Q Q Q Q Q Q W ,     @.@.@.@.@.@.@.@.",
"@.@.@.      4 Q Q Q Q Q Q K 4 O . . & r E Q Q Q Q Q Q Q Q Q Q Q Q Q Q Q Q Q Q Q Q Q Q Q Q Q Q Q Q Q Q Q W :     @.@.@.@.@.@.@.@.",
"@.@.@.      , Q Q Q Q Q Q Q W Y Z J T W Q Q Q Q Q Q Q Q Q Q Q Q Q Q Q Q Q Q Q Q Q Q Q Q Q Q Q Q Q Q Q Q W =     @.@.@.@.@.@.@.@.",
"@.@.@.      @ Q Q Q Q Q Q Q Q Q Q Q Q Q Q Q Q Q Q Q Q Q Q Q Q Q Q Q Q Q Q Q Q Q Q Q Q Q Q E Q Q Q Q Q @.Q =     @.@.@.@.@.@.@.@.",
"@.@.@.@.    X E Q Q Q Q Q Q Q Q Q Q Q Q Q Q Q Q Q Q Q Q Q Q Q Q Q Q Q Q Q Q Q Q Q Q Q L V l C R Q Q Q @.W &     @.@.@.@.@.@.@.@.",
"@.@.@.@.    . J Q Q Q Q Q Q Q Q Q Q Q Q Q Q Q Q Q Q Q Q Q Q Q Q Q Q Q Q Q Q Q Q Q Q L l b F c l Y Q Q Q E @     @.@.@.@.@.@.@.@.",
"@.@.@.@.      f Q Q Q Q Q Q Q Q Q Q Q Q Q Q Q Q Q Q Q W R K K T Q Q Q Q Q Q Q Q Q Q V v ) ' ) c V Q Q Q T X     @.@.@.@.@.@.@.@.",
"@.@.@.@.      e Q Q Q Q Q Q Q Q Q Q Q Q Q Q Q Q Q Q E K l g g l I Q Q Q Q Q Q Q Q L j ! ] ] ] ~ h U Q Q U       @.@.@.@.@.@.@.@.",
"@.@.@.@.      q Q Q Q Q Q Q Q Q Q Q Q Q Q Q Q Q Q Q I z D ( ( S z T W R U J A V l k S ( ] ] ] ~ d U Q Q U       @.@.@.@.@.@.@.@.",
"@.@.@.@.    . w Q Q Q Q Q Q Q Q Q Q Q Q Q Q Q Q Q Q l S ' ] ] ( k j j d d g k S S ~ ) ] ] _ ( D M T Q Q E .       @.@.@.@.@.@.@.",
"@.@.@.@.      e Q Q Q Q Q Q Q Q Q Q Q Q Q Q Q Q Q J v ( ] ] ] ' ( F F ~ ^ ) ) ' ] ] ] ' S S k M K Q Q Q Q @       @.@.@.@.@.@.@.",
"@.@.@.@.      d Q Q Q Q Q Q Q Q Q Q Q Q Q Q Q Q Q A g ^ ~ ~ ] ] ] _ ( _ _ _ _ _ ) _ ' ' / F k V Q Q Q Q Q w       @.@.@.@.@.@.@.",
"@.@.@.@.      J Q Q Q Q Q Q Q Q Q Q Q Q Q Q Q Q Q L f b S ( ] ] ^ b c s c v g k c c F ` ] _ S m W Q Q Q Q Y .       @.@.@.@.@.@.",
"@.@.@.@.    X E Q Q Q Q Q Q Q Q Q Q Q Q Q Q Q Q Q Q h S ] ] ] ' b m A K A A A A A V x F ` ' F l E Q Q Q Q Q =       @.@.@.@.@.@.",
"@.@.@.      = Q Q Q Q Q Q Q Q Q Q Q Q Q Q Q Q Q Q T h ~ ] ] ] / k L Q Q Q Q Q Q Q Q A x S F r A Q Q Q Q Q Q 9       @.@.@.@.@.@.",
"@.@.@.      3 Q Q Q Q Q Q Q Q Q Q Q Q Q Q Q Q Q Q W l D ] ] ] F f T Q Q Q Q Q Q Q Q Q J m l Z R Q Q Q Q Q Q J .     @.@.@.@.@.@.",
"@.@.@.      d Q Q Q Q Q Q Q Q Q Q Q Q Q Q Q Q Q Q Q Z S F ( ! g K Q Q Q Q Q Q Q Q Q Q Q Q E Q Q Q Q Q Q Q Q W @       @.@.@.@.@.",
"@.@.@.    X U Q Q Q Q Q Q Q Q Q Q Q Q Q Q Q Q Q Q Q Q V j g d A R Q Q Q Q Q Q Q Q Q Q Q Q Q Q Q Q Q Q Q Q Q Q ,       @.@.@.@.@.",
"@.@.      - W Q Q Q Q Q Q Q Q Q Q Q Q Q Q Q Q Q Q Q Q Q Y K Y W Q Q Q Q Q Q Q Q Q Q Q Q Q Q Q Q Q Q Q Q Q Q Q q       @.@.@.@.@.",
"@.@.      8 Q Q Q Q Q Q Q Q Q Q Q Q Q Q Q Q Q Q Q Q Q Q Q Q Q Q Q Q Q Q Q Q Q Q Q Q Q Q Q Q Q Q Q Q Q Q Q Q Q Z       @.@.@.@.@.",
"@.@.    . V Q Q Q Q Q Q Q Q Q Q Q Q Q Q Q Q Q Q Q Q Q Q Q Q Q Q Q Q Q Q Q Q Q Q Q Q Q Q Q Q Q Q Q Q Q Q Q Q Q R X     @.@.@.@.@.",
"@.@.    X R Q Q Q Q Q Q Q Q Q Q Q Q Q Q Q Q Q Q Q Q Q Q Q Q Q Q Q Q Q Q Q Q Q Q Q Q Q Q Q Q Q Q Q Q Q Q Q Q Q Q @       @.@.@.@.",
"@.      = Q Q Q Q Q Q Q Q Q Q Q Q Q Q Q Q Q Q Q Q Q Q Q Q Q Q Q Q Q Q Q Q Q Q Q Q Q Q Q Q Q Q Q Q Q Q Q Q Q Q Q *       @.@.@.@.",
"@.      , Q Q Q Q Q Q Q Q Q Q Q Q Q Q Q Q Q Q Q Q Q Q Q Q Q Q Q Q Q Q Q Q Q Q Q Q Q Q Q Q Q Q Q Q Q Q Q Q Q Q Q @       @.@.@.@.",
"@.      5 Q Q Q Q Q Q Q Q Q Q Q Q Q Q Q Q Q Q Q Q Q Q Q Q Q Q Q Q Q Q Q Q Q Q Q Q Q Q Q Q Q Q Q Q Q Q Q Q Q Q R .       @.@.@.@.",
"@.      6 Q Q Q Q Q Q Q Q Q Q Q Q Q Q Q Q Q Q Q Q Q Q Q Q Q Q Q Q Q Q Q Q Q Q Q Q Q Q Q Q Q Q Q Q Q Q Q Q Q W 3       @.@.@.@.@.",
"@.      , Q Q Q Q Q Q Q Q Q Q Q Q Q Q Q Q Q Q Q Q Q Q Q Q Q Q Q Q Q Q Q Q Q Q Q Q Q Q Q Q Q Q Q Q Q Q Q Q Q 9         @.@.@.@.@.",
"@.      X Y Q Q Q Q Q Q Q Q Q Q Q Q Q Q Q Q Q Q Q Q Q Q Q Q Q Q Q Q Q Q Q Q Q Q Q Q Q Q Q Q Q Q Q Q Q Q W 8         @.@.@.@.@.@.",
"@.@.      : T Q Q Q Q Q Q Q Q Q Q Q Q Q Q Q Q Q Q Q Q Q Q Q Q Q Q Q Q Q Q Q Q Q Q Q Q Q Q Q Q Q Q Q Q T ,         @.@.@.@.@.@.@.",
"@.@.        - U Q Q Q Q Q Q Q Q Q Q Q Q Q Q Q Q Q Q Q Q Q Q Q Q Q Q Q Q Q Q Q Q Q Q Q Q Q Q Q Q Q Y 8 X         @.@.@.@.@.@.@.@.",
"@.@.@.        . = 7 V R Q Q Q Q Q Q Q Q Q Q Q Q Q Q Q Q Q Q Q Q Q Q Q Q Q Q Q Q Q Q Q Q Q Q Y h : .           @.@.@.@.@.@.@.@.@.",
"@.@.@.@.              . . . X O @ @ = * & = , h N m d s d V C U W U W Q Q Q Q Q W U Z e , @ .               @.@.@.@.@.@.@.@.@.@.",
"@.@.@.@.@.                                                      X . . . X . . . . . .                   @.@.@.@.@.@.@.@.@.@.@.@.",
"@.@.@.@.@.@.@.                                                                                      @.@.@.@.@.@.@.@.@.@.@.@.@.@.",
"@.@.@.@.@.@.@.@.@.@.@.@.@.@.@.@.                                                            @.@.@.@.@.@.@.@.@.@.@.@.@.@.@.@.@.@."
};
