/* XPM */
static char *result[] = {
/* columns rows colors chars-per-pixel */
"64 64 98 2 ",
"   c #000101",
".  c #000609",
"X  c #00090C",
"o  c #010E13",
"O  c #011015",
"+  c #0D1112",
"@  c #00141B",
"#  c #0E1618",
"$  c #141616",
"%  c #141718",
"&  c #001B24",
"*  c #001F29",
"=  c #00212C",
"-  c #1F2121",
";  c #002532",
":  c #002D3C",
">  c #222323",
",  c #2B2C2C",
"<  c #3F3F3F",
"1  c #003345",
"2  c #00374A",
"3  c #00394D",
"4  c #003E52",
"5  c #004157",
"6  c #00435A",
"7  c #004A63",
"8  c #004F69",
"9  c #00526E",
"0  c #005774",
"q  c #005B7A",
"w  c #4B4B4B",
"e  c #535353",
"r  c gray35",
"t  c gray39",
"y  c gray42",
"u  c #797979",
"i  c #006182",
"p  c #016789",
"a  c #036B8D",
"s  c #0D6E8E",
"d  c #006D92",
"f  c #047195",
"g  c #0C7295",
"h  c #00749A",
"j  c #0B769A",
"k  c #07799F",
"l  c #137696",
"z  c #157799",
"x  c #127A9C",
"c  c #1B7C9C",
"v  c #017AA3",
"b  c #0E7EA3",
"n  c #017FA9",
"m  c #177FA2",
"M  c #1D7FA0",
"N  c #0081AD",
"B  c #1F83A4",
"V  c #0086B3",
"C  c #0089B6",
"Z  c #008CBB",
"A  c #2484A4",
"S  c #2D8DAD",
"D  c #3393B3",
"F  c #3C9CBC",
"G  c #008FC0",
"H  c #0093C4",
"J  c #0096C9",
"K  c #009ACE",
"L  c #009DD2",
"P  c #00A0D6",
"I  c #00A4DB",
"U  c #00AAE4",
"Y  c #00AEE9",
"T  c #00B1EC",
"R  c #00B6F4",
"E  c #00B9F7",
"W  c #00BFFF",
"Q  c #43A3C4",
"!  c #4DADCD",
"~  c #51B1D1",
"^  c #5CBCDC",
"/  c #60BFE0",
"(  c #64C4E5",
")  c #67C7E8",
"_  c #6DCDED",
"`  c #74D3F4",
"'  c #7DDDFD",
"]  c #939393",
"[  c #9A9A9A",
"{  c gray64",
"}  c #BDBDBD",
"|  c gray80",
" . c #D9D9D9",
".. c #E4E4E4",
"X. c #EAEAEA",
"o. c #F3F3F3",
"O. c #FDFDFD",
"+. c None",
/* pixels */
"+.+.+.+.+.+.+.+.+.+.+.+.+.+.+.+.+.+.+.+.+.+.+.+.+.+.+.+.+.+.+.+.+.+.+.+.+.+.+.+.+.+.+.+.+.+.+.+.+.+.+.+.+.+.+.+.+.+.+.+.+.+.+.+.",
"+.+.+.+.+.+.+.+.+.+.+.+.+.+.+.+.+.+.+.+.+.+.+.+.+.+.+.+.+.+.+.+.+.+.+.+.+.+.+.+.+.+.+.+.+.+.+.+.+.+.+.+.+.+.+.+.+.+.+.+.+.+.+.+.",
"+.+.+.+.+.+.+.+.+.+.+.+.+.+.+.+.+.+.+.+.+.+.+.+.+.+.+.+.+.+.+.+.+.+.+.+.+.+.+.+.+.+.+.+.+.+.+.+.+.+.+.+.+.+.+.+.+.+.+.+.+.+.+.+.",
"+.+.+.+.+.+.+.+.+.+.+.+.+.+.+.+.+.+.+.+.+.+.+.+.+.+.+.+.+.+.+.+.+.+.+.+.+.+.+.+.+.+.+.+.+.+.+.+.+.+.+.+.+.+.+.+.+.+.+.+.+.+.+.+.",
"+.+.+.+.+.+.+.+.+.+.+.+.+.+.+.+.+.+.+.+.+.+.+.+.+.+.+.+.+.+.+.+.+.+.+.+.+.+.+.+.+.+.+.+.+.+.+.+.+.+.+.+.+.+.+.+.+.+.+.+.+.+.+.+.",
"+.+.+.+.+.+.+.+.+.+.+.+.+.+.+.+.+.+.+.+.+.+.+.+.+.+.+.+.+.+.+.+.+.+.+.+.+.+.+.+.+.+.+.+.+.+.+.+.+.+.+.+.+.+.+.+.+.+.+.+.+.+.+.+.",
"+.+.+.+.+.+.+.+.+.+.+.+.+.+.+.+.+.+.+.+.+.+.+.+.+.+.+.+.+.+.+.+.+.+.+.+.+.+.+.+.+.+.+.+.+.+.+.+.+.+.+.+.+.+.+.+.+.+.+.+.+.+.+.+.",
"+.+.+.+.+.+.+.+.+.+.+.+.+.+.+.+.+.+.+.+.+.+.+.+.+.+.+.+.+.+.+.+.+.+.+.+.+.+.+.+.+.+.+.+.+.+.+.+.+.+.+.+.+.+.+.+.+.+.+.+.+.+.+.+.",
"+.+.+.+.+.+.+.+.+.+.+.+.+.+.+.+.+.+.+.+.+.+.+.+.+.+.+.+.+.+.+.+.+.+.+.+.+.+.+.+.+.+.+.+.+.+.+.+.+.+.+.+.+.+.+.+.+.+.+.+.+.+.+.+.",
"+.+.+.+.+.+.+.+.+.+.+.+.+.+.+.+.+.+.+.+.+.+.+.+.+.+.+.+.+.+.+.+.+.+.+.+.+.+.+.+.+.+.+.+.+.+.+.+.+.+.+.+.+.+.+.+.+.+.+.+.+.+.+.+.",
"+.+.+.+.+.+.+.+.+.+.+.+.+.+.+.+.+.+.+.+.+.+.+.+.+.+.+.+.+.+.+.+.+.+.+.+.+.+.+.+.+.+.+.+.+.+.+.+.+.+.+.+.+.+.  +.+.+.+.+.+.+.+.+.",
"+.+.+.+.+.+.+.+.+.+.+.+.+.+.+.+.+.+.+.+.+.+.+.+.+.+.+.+.+.+.+.+.+.+.+.+.+.+.+.+.+.+.+.+.+.+.+.+.+.+.+.        . .   . . .     +.",
"+.+.+.+.+.+.+.+.+.+.+.+.+.+.+.+.+.+.+.+.+.+.+.+.+.+.+.+.+.+.+.+.+.+.+.+.+.+.+.+.+.+.+.+.+.+.+.+.+.+.+.    . h Z Z Z V v d     +.",
"+.+.+.+.+.+.+.+.+.+.+.+.+.+.+.+.+.+.+.+.+.+.  .               +.+.+.+.+.+.+.+.+.+.+.+.+.+.+.+.+.+.+.+.                .   . +.+.",
"+.+.+.+.+.+.+.+.+.+.+.+.+.+.+.+.+.+.+.+.+.    9 W W W W W N .   +.+.+.+.+.+.+.+.+.+.+.+.+.+.+.+.+.+.+.+.+.+.+.+.+.    +.+.+.+.+.",
"+.+.+.+.+.+.+.+.+.+.+.+.+.+.+.+.+.+.+.+.+.    . W W W W W h       +.+.+.+.+.+.+.                      +.+.+.+.+.+.+.+.+.+.+.+.+.",
"+.+.+.+.+.+.+.+.+.+.+.+.+.+.+.+.+.+.+.+.+.+.    .           .   +.+.+.+.          .       .   . .   .     +.+.+.+.+.+.+.+.+.+.+.",
"+.+.+.+.+.+.+.+.+.+.+.+.+.+.+.+.+.+.+.+.+.+.+.+.+.+.+.+.+.+.+.+.+.+.+.+.  . = 0 T E W W W W W W W W d :     +.+.+.+.+.+.+.+.+.+.",
"+.+.+.+.+.+.+.+.+.+.+.                  +.+.+.+.+.+.+.+.+.+.+.+.+.+.+.+.    .     .   . . . .   .         +.+.+.+.+.+.+.+.+.+.+.",
"+.+.+.+.+.+.+.+.                                          +.+.+.+.+.+.+.+.+.+.+.                  +.+.+.+.+.+.+.+.+.+.+.+.+.+.+.",
"+.+.+.+.+.+.              X O o O o X                             +.+.+.+.+.+.+.+.+.+.+.+.+.+.+.+.+.+.+.+.+.+.+.+.+.+.+.+.+.+.+.",
"+.+.+.+.+.          * 0 H R W W E W U C d 0 1 @                         +.+.+.+.+.+.+.+.+.+.+.+.+.+.+.+.+.+.+.+.+.+.+.+.+.+.+.+.",
"+.+.+.+.        1 Z E W W W W W W W W W W W W W W U H v i : O .             +.+.+.+.+.+.+.+.+.+.+.+.+.+.+.+.+.+.+.+.+.+.+.+.+.+.",
"+.+.+.        i W W W W W W W E I U E W W W W W W W W W W W W J 8 = .             +.+.+.+.+.+.+.+.+.+.+.                  +.+.+.",
"+.+.+.    . d W W W W W W Y q ; @ * 3 N E W W W W W W W W W W W W W I 9 @             +.+.+.+.+.+.+.        H W W W W H     +.+.",
"+.+.      5 W W W W W W U 3 + < y t , O p W W W W W W W W W W W W W W W E V ;             +.+.+.+.+.      N W W W W P       +.+.",
"+.+.    O T W W W W W W 6 % u  .X...} w O C W W W W W W W W W W W W W W W W W J 2 X           +.+.+.+.                    +.+.+.",
"+.      7 W W W W W W U @ e ..O.O.O.O.} > 5 W W W W W W W W W W W W W W W W W W W P 5 X         +.+.+.+.+.+.+.+.+.+.+.+.+.+.+.+.",
"+.    . K W W W W W W C . [ O.O. .O.O...e = T W W W W W W W W W W W W W W W W W W W W P 2 .         +.+.+.+.+.+.+.+.+.+.+.+.+.+.",
"+.    @ E W W W W W W V . { O. .   .O...r * U W W W W W W W W W W W W W W W W W W W W W W H ; .         +.+.+.+.+.+.+.+.+.+.+.+.",
"+.    ; W W W W W W W P o y o.O. .O.O.| , 1 E W W W W W W W W W W W W W W W W W W W W W W W W h @         +.+.+.+.+.+.+.+.+.+.+.",
"+.    5 W W W W W W W R 1 > ] o.O.o. .y + h W W W W W W W W W W W W W W W W W W W W W W W W W W E 8 .         +.+.+.+.+.+.+.+.+.",
"    . N W W W W W W W W Z = - y { ] w $ 5 W W W W W W W W W W W W W W W W W W W W W W W R L C Z I E L = .       +.+.+.+.+.+.+.+.",
"    . T W W W W W W W W W J 2 @ . X & 0 R W W W W W W W W W W W W W W W W W W W W W W T N B B g a h V Z 0 X         +.+.+.+.+.+.",
"    O E W W W W W W W W W W W I V H Y W W W W W W W W W W W W W W W W W W W W W W W E C s F ) ` F s s g V Z = .       +.+.+.+.+.",
"    = W W W W W W W W W W W W W W W W W W W W W W W W W W W W W W W W W W W W W W W W N D ` ' ' / S ! Q B Z T 6         +.+.+.+.",
"    = W W W W W W W W W W W W W W W W W W W W W W W W W W W W W W W W W W W W W W W E V B ( ' ' ` D / ' D N U E 9       +.+.+.+.",
"    = W W W W W W W W W W W W W W W W W W R I U W W W W W W W W W W W W W W W W W W W I a Q ' ' ' ) ` ' ! B L W E 2       +.+.+.",
"    * W W W W W W W W W W W W W W W W W U 8 = @ O : h E W W W W W W W W W W W W W W W W N g F _ ' ' ' ' ~ g J W E E :       +.+.",
"    O W W W W W W W W W W W W W W W W P : + < y t , O q W W W W W W W W W W W W W W W W T Z a Q ' ' ` ` D g I E W W L X     +.+.",
"    o W W W W W W W W W W W W W W W W 5 $ u  .X...| w O N W W W W W W W W W W W W W W W W W f Q ` ~ A z j H R W W R W 2     +.+.",
"    X T W W W W W W W W W W W W W W I O r ..O.O.O.O.} % 3 W W W W W W W W W W W W W W W W K a ~ ( z N Z K E W W W E W N       +.",
"    . P W W W W W W W W W W W W W W C . [ O.O. .O.O...e = Y W W W W W W W W W W W W W W W N B ` D g I W W W W W W W W E @     +.",
"      Z W W W W W W W W W W W W W W V . { O. .   .O...r * Y W W W W W W W W W W W W W W I q Q ` B v E W W W W W W W E W 4     +.",
"      h W W W W W W W W W W W W W W I O y X.O. .O.O.| , 2 W W W W W W W W W W W W W W W N B _ ( s Z W W W W W W W W W W h       ",
"+.    d W W W W W W W W W W W W W W E 3 - [ X.O.o. .y + N W W W W W W W W W W W W W W U a F ' ! p U W W W W W W W W W W P .     ",
"+.    8 W W W W W W W W W W W W W W W K ; - y { ] w # 8 E E W W W W W W W W W W W W W C s ( ' S h E W W W W W W W W W W U X     ",
"+.    = W W W W W W W W W W W W W W W W P 6 @ X o = a E W W W W W W W W W W W W W U Z g S ' _ B N W W W W W W W W W W W E o     ",
"+.    o R W W W W W W W W W W W W W W W W W T J P R W W W W W W W W W W W W W T C k c D ) ' ^ a P W W W W W W W W W W W E O     ",
"+.      C W W W W W W W W W W W W W W W W W W W W W W W W W W W W W W W W W W Z g D ~ ` ' ` ~ j L W W W W W W W W W W W W @     ",
"+.+.    3 W W W W W W W W W W W W W W W W W W W W W W W W W W W W W W W W W T k S ' ' ` ) ' ( l N W W W W W W W W W W W W ;     ",
"+.+.    o T W W W W W W W W W W W W W W W W W W W W W W W W W W W W W W W W U b B ( ( F A ' ` F g C R W W W W W W W W W W =     ",
"+.+.      d W W W W W W W W W W W W W W W W W W W W W W W W W W W W W W W W W J a z B l Q ' ' ` Q h P W W W W W W W W W W @     ",
"+.+.+.    & E W W W W W W W W W W W W W W W W W W W W W W W W W W W W W W W W E L C h l ~ ' ' ' ~ f L W W W W W W W W W J .     ",
"+.+.+.      q W W W W W W W W W W W W W W W W W W W W W W W W W W W W W W W W W W W I N Q ` ' _ D k I W W W W W W W W I =       ",
"+.+.+.+.    . Z W W W W W W W W W W W W W W W W W W W W W W W W W W W W W W W W W W T N g S D z f Z W W W W W W W U 9 X       +.",
"+.+.+.+.      @ I W W W W W W W W W W W W W W W W W W W W W W W W W W W W W W W W W W T Z h k Z U E W W W W W W T *         +.+.",
"+.+.+.+.+.      O N W W W W W W W W W W W W W W W W W W W W W W W W W W W W W W W W W W W W W W W W W W E P v 4 @         +.+.+.",
"+.+.+.+.+.+.      . = 9 J E W W W W W W W W W W W W W W W W W W W W W W W W W W W W W W W U L v h i 3 = O .               +.+.+.",
"+.+.+.+.+.+.+.            X * : 5 0 h V P I I I I I I I I I J v h h h h h h i 6 5 : * @ o . .                       +.+.+.+.+.+.",
"+.+.+.+.+.+.+.+.+.                      . . . . X . . . . .         .                                         +.+.+.+.+.+.+.+.+.",
"+.+.+.+.+.+.+.+.+.+.+.                                                                          +.+.+.+.+.+.+.+.+.+.+.+.+.+.+.+.",
"+.+.+.+.+.+.+.+.+.+.+.+.+.+.+.+.+.+.                            +.+.+.+.+.+.+.+.+.+.+.+.+.+.+.+.+.+.+.+.+.+.+.+.+.+.+.+.+.+.+.+.",
"+.+.+.+.+.+.+.+.+.+.+.+.+.+.+.+.+.+.+.+.+.+.+.+.+.+.+.+.+.+.+.+.+.+.+.+.+.+.+.+.+.+.+.+.+.+.+.+.+.+.+.+.+.+.+.+.+.+.+.+.+.+.+.+."
};
