/* XPM */
static char *result[] = {
/* columns rows colors chars-per-pixel */
"64 64 106 2 ",
"   c #000000",
".  c #000709",
"X  c #00090C",
"o  c #010D12",
"O  c #021115",
"+  c #0D1112",
"@  c #00141B",
"#  c #0E1618",
"$  c #141616",
"%  c #141718",
"&  c #001B24",
"*  c #001F29",
"=  c #00212C",
"-  c #1F2121",
";  c #002633",
":  c #002937",
">  c #002D3C",
",  c #222323",
"<  c #2B2C2C",
"1  c #3F3F3F",
"2  c #002F40",
"3  c #003244",
"4  c #00374A",
"5  c #00394D",
"6  c #003D51",
"7  c #004157",
"8  c #00445B",
"9  c #004A62",
"0  c #004F69",
"q  c #00516C",
"w  c #005470",
"e  c #005876",
"r  c #005B79",
"t  c #4B4B4B",
"y  c #535353",
"u  c gray35",
"i  c gray39",
"p  c gray42",
"a  c #797979",
"s  c #006384",
"d  c #006789",
"f  c #02698C",
"g  c #0D6D8D",
"h  c #006F94",
"j  c #037196",
"k  c #0D7394",
"l  c #03759B",
"z  c #0D7598",
"x  c #02789F",
"c  c #0E7B9F",
"v  c #167797",
"b  c #14799A",
"n  c #1C7D9E",
"m  c #017BA3",
"M  c #0C7EA4",
"N  c #007EA9",
"B  c #127DA1",
"V  c #1B7EA0",
"C  c #0082AD",
"Z  c #0E82A9",
"A  c #1781A4",
"S  c #1B82A4",
"D  c #1884A8",
"F  c #0086B4",
"G  c #0189B6",
"H  c #008CBA",
"J  c #0290BF",
"K  c #2485A5",
"L  c #2489AB",
"P  c #2B8CAD",
"I  c #2E91B3",
"U  c #3293B3",
"Y  c #3B9BBB",
"T  c #008FC0",
"R  c #0093C4",
"E  c #0096C9",
"W  c #009ACE",
"Q  c #009DD2",
"!  c #00A0D6",
"~  c #00A4DB",
"^  c #00ABE4",
"/  c #00AEE9",
"(  c #00B1ED",
")  c #00B6F3",
"_  c #00B9F7",
"`  c #00BFFF",
"'  c #43A3C3",
"]  c #4DADCD",
"[  c #53B3D3",
"{  c #5DBDDD",
"}  c #60BFE0",
"|  c #63C3E3",
" . c #6DCCED",
".. c #73D3F3",
"X. c #7EDDFE",
"o. c #939393",
"O. c #9A9A9A",
"+. c gray64",
"@. c #BDBDBD",
"#. c gray80",
"$. c #D9D9D9",
"%. c #E4E4E4",
"&. c #EAEAEA",
"*. c #F3F3F3",
"=. c #FDFDFD",
"-. c None",
/* pixels */
"-.-.-.-.-.-.-.-.-.-.-.-.-.-.-.-.-.-.-.-.-.-.-.-.-.-.-.-.-.-.-.-.-.-.-.-.-.-.-.-.-.-.-.-.-.-.-.-.-.-.-.-.-.-.-.-.-.-.-.-.-.-.-.-.",
"-.-.-.-.-.-.-.-.-.-.-.-.-.-.-.-.-.-.-.-.-.-.-.-.-.-.-.-.-.-.-.-.-.-.-.-.-.-.-.-.-.-.-.-.-.-.-.-.-.-.-.-.-.-.-.-.-.-.-.-.-.-.-.-.",
"-.-.-.-.-.-.-.-.-.-.-.-.-.-.-.-.-.-.-.-.-.-.-.-.-.-.-.-.-.-.-.-.-.-.-.-.-.-.-.-.-.-.-.-.-.-.-.-.-.-.-.-.-.-.-.-.-.-.-.-.-.-.-.-.",
"-.-.-.-.-.-.-.-.-.-.-.-.-.-.-.-.-.-.-.-.-.-.-.-.-.-.-.-.-.-.-.-.-.-.-.-.-.-.-.-.-.-.-.-.-.-.-.-.-.-.-.-.-.-.-.-.-.-.-.-.-.-.-.-.",
"-.-.-.-.-.-.-.-.-.-.-.-.-.-.-.-.-.-.-.-.-.-.-.-.-.-.-.-.-.-.-.-.-.-.-.-.-.-.-.-.-.-.-.-.-.-.-.-.-.-.-.-.-.-.-.-.-.-.-.-.-.-.-.-.",
"-.-.-.-.-.-.-.-.-.-.-.-.-.-.-.-.-.-.-.-.-.-.-.                      -.-.-.-.-.-.-.-.-.-.-.-.-.-.-.-.-.-.-.-.-.-.-.-.-.-.-.-.-.-.",
"-.-.-.-.-.-.-.-.-.-.-.-.-.-.-.-.-.-.-.                                    -.-.-.-.-.-.-.-.-.-.-.-.-.-.-.-.-.-.-.-.-.-.-.-.-.-.-.",
"-.-.-.-.-.-.-.-.-.-.-.-.-.-.-.-.                                                -.-.-.-.-.-.-.-.-.-.-.-.-.-.-.-.-.-.-.-.-.-.-.-.",
"-.-.-.-.-.-.-.-.-.-.-.-.-.-.                X & > 7 q q r d q > @ . .               -.-.-.-.-.-.-.-.-.-.-.-.-.-.          -.-.-.",
"-.-.-.-.-.-.-.-.-.-.-.-.            . o 3 f ^ ` ` ` ` ` ` ` ` ` ` ` _ H 9 @ .           -.-.-.-.-.-.-.-.-.-.                -.-.",
"-.-.-.-.-.-.-.-.-.-.            X 4 F ` ` ` ` ` ` ` ` ` ` ` ` ` ` ` ` ` ` ^ h > X           -.-.-.-.-.-.-.-.      & 9 *       -.",
"-.-.-.-.-.-.-.-.-.          X 8 ~ ` ` ` ` ` ` ` ` ` ` ` ` ` ` ` ` ` ` ` ` ` ` ` Q 8 .         -.-.-.-.-.-.      0 ( ` ) >     -.",
"-.-.-.-.-.-.-.-.          3 ! ` ` ` ` ` ` ` ` ` ` ` ` ` ` ` ` ` ` ` ` ` ` ` ` ` ` ` Q @         -.-.-.-.-.    = ) ` ` ` N       ",
"-.-.-.-.-.-.-.-.      . m ` ` ` ` ` ` ` ` ` ` ` ` ` ` ` ` ^ 0 & O @ > l _ ` ) ` ` ` ` -.:         -.-.-.-.    8 ` ` ` ` E .     ",
"-.-.-.-.-.-.-.      . m ` ` ` ` ` ` ` ` ` ` ` ` ` ` ` ` Q 3 + 1 p i < O r ` _ -.` ` ` ` ) ;       -.-.-.-.    : ` ` ` ` E       ",
"-.-.-.-.-.-.        s ` ` ` ` ` ` ` ` ` ` ` ` ` ` ` ` ` 7 $ a $.&.&.@.t o C ` ` ` ` ` ` ` / &       -.-.-.    O ( ` ` ` R .     ",
"-.-.-.-.-.-.      = ` ` ` ` ` ` ` ` ` ` ` ` ` ` ` ` ` ^ O u %.=.=.=.=.@., 6 ` ` ` ` ` ` ` ` R .                 R ` ` ` r       ",
"-.-.-.-.-.      X ! ` ` ` ` ` ` ` ` ` ` ` ` ` ` ` ` ` G . O.=.=.$.=.=.%.y * / ) ` _ ` ` ` ` ` 0                 q ` _ C .     -.",
"-.-.-.-.-.      4 ` ` ` ` ` ` ` ` ` ` ` ` ` ` ` ` ` ` F . +.=.$.  $.=.%.u * ^ ` ` ` ` ` ` ` ` ) 0 X   .           = = .       -.",
"-.-.-.-.-.    . R ` ` ` ` ` ` ` _ ~ ^ ` ` ` ` ` ` ` ` ~ X p *.=.$.=.=.#.< 4 ` ` ` ` ` ` ` ` ` ` ` W N C G .                 -.-.",
"-.-.-.-.      * ` ` ` ` ` ` / r ; @ & 4 C ` ` ` ` ` ` _ 5 , O.*.=.*.$.p + x ` ` ` ` ` ` ` ` ` ` ` ` ` ` E o               -.-.-.",
"-.-.-.-.      r ` ` ` ` ` ^ 4 + 1 p i , O d ` ` ` ` ` ` W = - p +.o.t # 0 ` ` ` ` ` ` ` ` ` ` ` ` ` ` ` G X     -.-.-.-.-.-.-.-.",
"-.-.-.-.    . R ` ` ` ` ` 8 $ a $.&.%.#.t O F ` ` ` ` ` ` ! 8 @ X o = d _ ` ` ` ` ` ` ` ` ` ` ` ` ` ` ` C .     -.-.-.-.-.-.-.-.",
"-.-.-.      o _ ` ` ` ` ^ @ u %.=.=.=.=.@., 6 ` ` ` ` ` ` ` ` ` ` ` ` ` ` ` ` ` ` ` ` _ _ _ ` ` ` ` ` ` C .     -.-.-.-.-.-.-.-.",
"-.-.-.      = ` ` ` ` ` H . O.=.=.$.=.=.%.y = ( ` ` ` ` ` ` ` ` ` ` ` ` ` ` ` ` ` ` ` ` ` -.` ` ` ` ` ` R X     -.-.-.-.-.-.-.-.",
"-.-.-.      > ` ` ` ` ` C . +.=.$.  $.=.%.u * / ` ` ` ` ` ` ` ` ` ` ` ` ` ` ` ` ` ` ` ` ` ` ` ` ` ` ` ` / @     -.-.-.-.-.-.-.-.",
"-.-.-.      3 ` ` ` ` ` ! X p *.=.$.=.=.#.< 4 _ ` ` ` ` ` ` ` ` ` ` ` ` ` ` ` ` ` ` ` ` ` ` ` _ / / _ ` ` 6       -.-.-.-.-.-.-.",
"-.-.-.      5 ` ` ` ` ` _ 4 % O.&.=.=.$.p o h ` ` ` ` ` ` ` ` ` ` ` ` ` ` ` ` ` ` ` ` ` ` ` ` _ ` ` ` ` ` C .     -.-.-.-.-.-.-.",
"-.-.-.      6 ` ` ` ` ` ` R = - p +.o.t + 7 _ ` ` ` ` ` ` ` ` ` ` ` ` ` ` ` ` ` ` ` _ ) _ ` ` ` ` ` ` _ ` ( @     -.-.-.-.-.-.-.",
"-.-.-.      6 ` ` ` ` ` ` ` R 4 o . X & r ) ` ` ` ` ` ` ` ` ` ` ` ` ` ` ` ` ` ` ` ^ G m m R / ` ` / _ ` ` ` 8       -.-.-.-.-.-.",
"-.-.-.      4 ` ` ` ` ` ` ` ` ` ~ G R ( ` ` ` ` ` ` ` ` ` ` ` ` ` ` ` ` ` ` ` ` / C z P U S F ^ ` ` ` ` ` ` h       -.-.-.-.-.-.",
"-.-.-.      > ` ` ` ` ` ` ` ` ` ` ` ` ` ` ` ` ` ` ` ` ` ` ` ` ` ` ` ` ` ` ` ` ` Q B Y  ...] A G ` ` ` ` ` ` R .     -.-.-.-.-.-.",
"-.-.-.      & ` ` ` ` ` ` ` ` ` ` ` ` ` ` ` ` ` ` ` ` ` ` ` ` ` ` ` ` ` ` ` ` ` R A [ X.X. .U x / ` ` ` ` ` ( @     -.-.-.-.-.-.",
"-.-.-.-.    X ) ` ` ` ` ` ` ` ` ` ` ` ` ` ` ` ` ` ` ` ` ` ` ` ` ` ` ` ` ` ` ` ` G S { X.X. .U x ~ ` ` ` ` ` ` >     -.-.-.-.-.-.",
"-.-.-.-.    . R ` ` ` ` ` ` ` ` ` ` ` ` ` ` ` ` ` ` ` ` ` ` ` ` ` ` ` ` ` ` ) J l U  ...| ' S J ) ` ` ` ` ` ` e       -.-.-.-.-.",
"-.-.-.-.      f ` ` ` ` ` ` ` ` ` ` ` ` ` ` ` ` ` ` ` ` ` _ _ ` ` ` ` ` ( W l k U } X.} U v j W ` ` ` ` ` ` ` m       -.-.-.-.-.",
"-.-.-.-.      w ` ` ` ` ` ` ` ` ` ` ` ` ` ` ` ` ` ` ` ` G x C R ) _ ^ R m g K ] ..X.X. .[ Y v C ) ` ` ` ` ` ` J       -.-.-.-.-.",
"-.-.-.-.      w ` ` ` ` ` ` ` ` ` ` ` ` ` ` ` ` ` ` ( J g P I c F F x c K ] ..X... .|  .X...U k ! ` ` ` ` ` ` E       -.-.-.-.-.",
"-.-.-.-.    . w ` ` ` ` ` ` ` ` ` ` ` ` ` ` ` ` ` ` W Z Y  ...' S n P ]  .X.| ] U v S Y }  .Y l ~ ` ` ` ` ` ` ! .     -.-.-.-.-.",
"-.-.-.-.    . r ` ` ` ` ` ` ` ` ` ` ` ` ` ` ` ` ` ` F P | X.X...{ { | } [ P v z x G G Z D P k F ( ` ` ` ` ` ` ~ X     -.-.-.-.-.",
"-.-.-.-.      d ` ` ` ` ` ` ` ` ` ` ` ` ` ` ` ` ` ( Z Y X. ...X.X.| Y v f x H ! ( ) ( ! G C F ( ` ` ` ` ` ` ` ^ X     -.-.-.-.-.",
"-.-.-.-.      R ` ` ` ` ` ` ` ` ` ` ` ` ` ` ` ` ` ^ Z U } Y | X...U l G ! _ ` ` ` ` ` ` ) ` ` ` ` ` ` ` ` ` ` ^ .     -.-.-.-.-.",
"-.-.-.-.    X ) ` ` ` ` ` ` ` ` ` ` ` ` ` ` ` ` ` ) C g K Y ..X. .K C ` ` ` ` ` ` ` ` ` ` ` ` ` ` ` ` ` ` ` ` ^ .     -.-.-.-.-.",
"-.-.-.      & ` ` ` ` ` ` ` ` ` ` ` ` ` ` ` ` ` ` _ W j S { X.X. .P m ` ` ` ` ` ` ` ` ` ` ` ` ` ` ` ` ` ` ` ` ^ O     -.-.-.-.-.",
"-.-.-.      4 ` ` ` ` ` ` ` ` ` ` ` ` ` ` ` ` ` ` ` _ F n { X.X.| L C ` ` ` ` ` ` ` ` ` ` ` ` ` ` ` ` ` ` ` ` ^ @     -.-.-.-.-.",
"-.-.-.      s ` ` ` ` ` ` ` ` ` ` ` ` ` ` ` ` ` ` ` ` W b '  . .' c E ` ` ` ` ` ` ` ` ` ` ` ` ` ` ` ` ` ` ` ` W O     -.-.-.-.-.",
"-.-.-.    X ~ ` ` ` ` ` ` ` ` ` ` ` ` ` ` ` ` ` ` ` ` ( F S P P A C / ` ` ` ` ` ` ` ` ` ` ` ` ` ` ` ` ` ` ` ` Q o     -.-.-.-.-.",
"-.-.      & ` ` ` ` ` ` ` ` ` ` ` ` ` ` ` ` ` ` ` ` ` ` ^ J C C G ~ ` ` ` ` ` ` ` ` ` ` ` ` ` ` ` ` ` ` ` ` ` G o     -.-.-.-.-.",
"-.-.      8 ` ` ` ` ` ` ` ` ` ` ` ` ` ` ` ` ` ` ` ` ` ` ` _ ( _ ` ` ` ` ` ` ` ` ` ` ` ` ` ` ` ` ` ` ` ` ` ` ` m       -.-.-.-.-.",
"-.-.    . C ` ` ` ` ` ` ` ` ` ` ` ` ` ` ` ` ` ` ` ` ` ` ` ` ` ` ` ` ` ` ` ` ` ` ` ` ` ` ` ` ` ` ` ` ` ` ` ` ` ( X     -.-.-.-.-.",
"-.-.    X ) ` ` ` ` ` ` ` ` ` ` ` ` ` ` ` ` ` ` ` ` ` ` ` ` ` ` ` ` ` ` ` ` ` ` ` ` ` ` ` ` ` ` ` ` ` ` ` ` ` ` @       -.-.-.-.",
"-.      & ` ` ` ` ` ` ` ` ` ` ` ` ` ` ` ` ` ` ` ` ` ` ` ` ` ` ` ` ` ` ` ` ` ` ` ` ` ` ` ` ` ` ` ` ` ` ` ` ` ` ` &       -.-.-.-.",
"-.      > ` ` ` ` ` ` ` ` ` ` ` ` ` ` ` ` ` ` ` ` ` ` ` ` ` ` ` ` ` ` ` ` ` ` ` ` ` ` ` ` ` ` ` ` ` ` ` ` ` ` ` @       -.-.-.-.",
"-.      5 ` ` ` ` ` ` ` ` ` ` ` ` ` ` ` ` ` ` ` ` ` ` ` ` ` ` ` ` ` ` ` ` ` ` ` ` ` ` ` ` ` ` ` ` ` ` ` ` ` ` ( .       -.-.-.-.",
"-.      6 ` ` ` ` ` ` ` ` ` ` ` ` ` ` ` ` ` ` ` ` ` ` ` ` ` ` ` ` ` ` ` ` ` ` ` ` ` ` ` ` ` ` ` ` ` ` ` ` ` ` 3       -.-.-.-.-.",
"-.      > ` ` ` ` ` ` ` ` ` ` ` ` ` ` ` ` ` ` ` ` ` ` ` ` ` ` ` ` ` ` ` ` ` ` ` ` ` ` ` ` ` ` ` ` ` ` ` ` ` 8         -.-.-.-.-.",
"-.      X ^ ` ` ` ` ` ` ` ` ` ` ` ` ` ` ` ` ` ` ` ` ` ` ` ` ` ` ` ` ` ` ` ` ` ` ` ` ` ` ` ` ` ` ` ` ` ` _ 8         -.-.-.-.-.-.",
"-.-.      ; / ` ` ` ` ` ` ` ` ` ` ` ` ` ` ` ` ` ` ` ` ` ` ` ` ` ` ` ` ` ` ` ` ` ` ` ` ` ` ` ` ` ` ` ` / >         -.-.-.-.-.-.-.",
"-.-.        = ~ ` ` ` ` ` ` ` ` ` ` ` ` ` ` ` ` ` ` ` ` ` ` ` ` ` ` ` ` ` ` ` ` ` ` ` ` ` ` ` ` ` ^ 9 .         -.-.-.-.-.-.-.-.",
"-.-.-.        . = 7 C ( ` ` ` ` ` ` ` ` ` ` ` ` ` ` ` ` ` ` ` ` ` ` ` ` ` ` ` ` ` ` ` ` ` ` / h ; .           -.-.-.-.-.-.-.-.-.",
"-.-.-.-.              . . X X O @ & & & & * > h C x d s d C F ~ _ ~ _ ` ` ` ` ` _ ~ G e > @ .               -.-.-.-.-.-.-.-.-.-.",
"-.-.-.-.-.                                                      X . . . . . . . . . .                   -.-.-.-.-.-.-.-.-.-.-.-.",
"-.-.-.-.-.-.-.                                                                                      -.-.-.-.-.-.-.-.-.-.-.-.-.-.",
"-.-.-.-.-.-.-.-.-.-.-.-.-.-.-.-.                                                            -.-.-.-.-.-.-.-.-.-.-.-.-.-.-.-.-.-."
};
