/* XPM */
static char *result[] = {
/* columns rows colors chars-per-pixel */
"64 64 601 2 ",
"   c #00000000",
" ! c #06000000",
" # c #0C000000",
" $ c #3B000000",
" % c #72000000",
" & c #A0000000",
" ' c #C0000000",
" ( c #CF000000",
" ) c #E5000000",
" * c #E8000000",
" + c #EF000000",
" , c #E9000000",
" - c #D4000000",
" . c #A2000000",
" / c #71000000",
" 0 c #48000000",
" 1 c #18000000",
" 2 c #02000000",
" 3 c #0D000000",
" 4 c #60000000",
" 5 c #AC000000",
" 6 c #DD000000",
" 7 c #F8000000",
" 8 c #FD000000",
" 9 c #FE000000",
" : c #FF000000",
" ; c #F9000000",
" < c #44000000",
" = c #08000000",
" > c #37000000",
" ? c #A6000000",
" @ c #EC000000",
" A c #FE000001",
" B c #FD000102",
" C c #FC000102",
" D c #C5000000",
" E c #4D000000",
" F c #03000000",
" G c #41000000",
" H c #CA000000",
" I c #FC000203",
" J c #F2000A0D",
" K c #DF001A23",
" L c #D0002C3A",
" M c #BD004259",
" N c #C500394C",
" O c #B6004D67",
" P c #AD005A78",
" Q c #A500688B",
" R c #B300516C",
" S c #CF002C3B",
" T c #E1001922",
" U c #F6000609",
" V c #B8000000",
" W c #38000000",
" X c #05000000",
" Y c #49000000",
" Z c #F9000304",
" [ c #EA001015",
" \ c #CC003041",
" ] c #A400698D",
" ^ c #8700ABE4",
" _ c #8000BFFF",
" ` c #8500AFE9",
" a c #9A007EA8",
" b c #AD005875",
" c c #D600212D",
" d c #F9000305",
" e c #F1000000",
" f c #96000000",
" g c #1D000000",
" h c #01000000",
" i c #87000000",
" j c #F200080B",
" k c #C8003446",
" l c #950087B5",
" m c #8100BCFB",
" n c #8000BDFD",
" o c #8A00A3DA",
" p c #D3002633",
" q c #FC000001",
" r c #DB000000",
" s c #5B000000",
" t c #09000000",
" u c #8C000000",
" v c #FB000000",
" w c #EF00090C",
" x c #BA00465E",
" y c #8800A7DF",
" z c #AB005D7D",
" { c #E5001218",
" | c #F6000102",
" } c #F6000000",
"!  c #9D000000",
"!! c #82000000",
"!# c #FC000000",
"!$ c #F8000203",
"!% c #C7003243",
"!& c #8B00A0D6",
"!' c #93008DBD",
"!( c #A6006587",
"!) c #E0001015",
"!* c #C6000000",
"!+ c #24000000",
"!, c #5F000000",
"!- c #FA000000",
"!. c #F4000608",
"!/ c #9D0078A0",
"!0 c #8900A5DD",
"!1 c #C4003446",
"!2 c #F7000102",
"!3 c #D2000000",
"!4 c #1E000000",
"!5 c #E6000000",
"!6 c #F8000406",
"!7 c #9B007CA6",
"!8 c #7F00BFFF",
"!9 c #8200B7F5",
"!: c #B0005471",
"!; c #F3000304",
"!< c #C8000000",
"!= c #13000000",
"!> c #04000000",
"!? c #A7006486",
"!@ c #8200B9F7",
"!A c #8100BAF9",
"!B c #9D005C7B",
"!C c #F3000406",
"!D c #A5000000",
"!E c #07000000",
"!F c #30000000",
"!G c #F5000000",
"!H c #D900222D",
"!I c #AF005876",
"!J c #FB000304",
"!K c #F7000000",
"!L c #52000000",
"!M c #F400080B",
"!N c #8C009ED3",
"!O c #8400B1ED",
"!P c #CD002F3F",
"!Q c #CE000001",
"!R c #16000000",
"!S c #19000000",
"!T c #EB000000",
"!U c #C6003649",
"!V c #8400B0EB",
"!W c #8F0095C7",
"!X c #ED000F14",
"!Y c #FB000001",
"!Z c #5E000000",
"![ c #FA000406",
"!\ c #8600ADE8",
"!] c #D4002734",
"!^ c #E400161E",
"!_ c #E1001A23",
"!` c #C500384B",
"!a c #980081AC",
"!b c #7F00BDFC",
"!c c #B4004F6A",
"!d c #C5000001",
"!e c #C1000000",
"!f c #DD001E28",
"!g c #8800A8E1",
"!h c #C500394D",
"!i c #FB0D1011",
"!j c #FF3F3F3F",
"!k c #FF6F6F6F",
"!l c #FF636363",
"!m c #FF282828",
"!n c #ED031218",
"!o c #A6006688",
"!p c #8200B6F3",
"!q c #EE000E13",
"!r c #F9000001",
"!s c #4B000000",
"!t c #12000000",
"!u c #FD000001",
"!v c #BA00475F",
"!w c #FC141718",
"!x c #FF797979",
"!y c #FFD9D9D9",
"!z c #FFEAEAEA",
"!{ c #FFE6E6E6",
"!| c #FFBFBFBF",
"!} c #FF4C4C4C",
"#  c #ED031217",
"#! c #C0003E53",
"## c #A8000101",
"#$ c #4A000000",
"#% c #8F0096C9",
"#& c #E700141B",
"#' c #FF585858",
"#( c #FFE4E4E4",
"#) c #FFFEFEFE",
"#* c #FFFFFFFF",
"#+ c #FFFBFBFB",
"#, c #FFBABABA",
"#- c #FE222323",
"#. c #BE004157",
"#/ c #92008EBE",
"#0 c #F500080B",
"#1 c #E8000001",
"#2 c #25000000",
"#3 c #8D000000",
"#4 c #EC000F14",
"#5 c #94008AB8",
"#6 c #F9000507",
"#7 c #FF9B9B9B",
"#8 c #FFFAFAFA",
"#9 c #FFE2E2E2",
"#: c #FF535353",
"#; c #DA00212C",
"#< c #8500B0EB",
"#= c #8700A9E2",
"#> c #EC001015",
"#? c #E9001219",
"#@ c #9F00749B",
"#A c #D900212C",
"#B c #58000000",
"#C c #B0000000",
"#D c #DB00202B",
"#E c #970083AF",
"#F c #FFA5A5A5",
"#G c #FF5A5A5A",
"#H c #DC001E28",
"#I c #8600ACE6",
"#J c #CC003040",
"#K c #FC0D1010",
"#L c #F0031014",
"#M c #AD005B7A",
"#N c #8300B6F3",
"#O c #BB000000",
"#P c #D0002B39",
"#Q c #EF000C11",
"#R c #FF6A6A6A",
"#S c #FFF1F1F1",
"#T c #FFFDFDFD",
"#U c #FFCCCCCC",
"#V c #FF2E2F2F",
"#W c #CA003344",
"#X c #BE004258",
"#Y c #FD141616",
"#Z c #FF787878",
"#[ c #F0030F13",
"#\ c #A1007096",
"#] c #F7000406",
"#^ c #B9000000",
"#_ c #C2000000",
"#` c #CA003242",
"#a c #FE1F2121",
"#b c #FF999999",
"#c c #FFF0F0F0",
"#d c #FFF9F9F9",
"#e c #FFF7F7F7",
"#f c #FFDBDBDB",
"#g c #FF6B6B6B",
"#h c #F7070E11",
"#i c #E9001218",
"#j c #C2003D51",
"#k c #B200526E",
"#l c #D8000000",
"#m c #17000000",
"#n c #C3000000",
"#o c #C2003C50",
"#p c #910092C3",
"#q c #DE011E27",
"#r c #FE1F2020",
"#s c #FF686868",
"#t c #FFA1A1A1",
"#u c #FF939393",
"#v c #FF4A4A4A",
"#w c #F70D1315",
"#x c #A1006F94",
"#y c #F300080B",
"#z c #E1000000",
"#{ c #C1003D51",
"#| c #C600374A",
"#} c #EB001116",
"$  c #F400090C",
"$! c #E0001A23",
"$# c #AE005A78",
"$$ c #960085B2",
"$% c #DC001F29",
"$& c #9B007BA4",
"$' c #F8000507",
"$( c #EA000000",
"$) c #26000000",
"$* c #950089B7",
"$+ c #C7003547",
"$, c #960086B4",
"$- c #F400070A",
"$. c #F3000000",
"$/ c #C4003A4E",
"$0 c #FD1F2121",
"$1 c #F5071013",
"$2 c #EA001116",
"$3 c #59000000",
"$4 c #B2000000",
"$5 c #D1002A39",
"$6 c #8D009ACE",
"$7 c #D801242F",
"$8 c #F50E1618",
"$9 c #B5004E68",
"$: c #E400151D",
"$; c #81000000",
"$< c #93000000",
"$= c #BC00445A",
"$> c #F0000C11",
"$? c #A600678A",
"$@ c #E000161D",
"$A c #70000000",
"$B c #C7002C3A",
"$C c #15000000",
"$D c #FA000305",
"$E c #900093C4",
"$F c #9C0077A0",
"$G c #3C000000",
"$H c #F4000000",
"$I c #FD000203",
"$J c #F8000305",
"$K c #9B000000",
"$L c #FE000102",
"$M c #B1005470",
"$N c #CF002B39",
"$O c #E3000000",
"$P c #8700B5F1",
"$Q c #8A00B1EC",
"$R c #8700B5F2",
"$S c #FA000203",
"$T c #3E000000",
"$U c #8500B7F5",
"$V c #99009FD5",
"$W c #B1008AB8",
"$X c #CC0077A0",
"$Y c #9C009CD1",
"$Z c #8400B9F7",
"$[ c #8200BCFB",
"$\ c #EC000E13",
"$] c #B200536F",
"$^ c #8100BDFD",
"$_ c #A40095C7",
"$` c #DB06759B",
"$a c #FD1C7C9D",
"$b c #FF3090B0",
"$c c #FF2585A5",
"$d c #DE08769B",
"$e c #A10097CA",
"$f c #9100A8E1",
"$g c #AA008FC0",
"$h c #CE002D3C",
"$i c #E5097497",
"$j c #FF3595B5",
"$k c #FF6BCAEB",
"$l c #FF7ADAFA",
"$m c #FF66C5E6",
"$n c #F82E91B2",
"$o c #C90079A2",
"$p c #8501B9F6",
"$q c #9000A9E2",
"$r c #CB0179A1",
"$s c #EF0E7597",
"$t c #FA137596",
"$u c #E8046D91",
"$v c #A500698C",
"$w c #2F000000",
"$x c #FA000304",
"$y c #92008FC0",
"$z c #8900B2EE",
"${ c #D00379A0",
"$| c #FF2D8DAD",
"$} c #FF70D0F0",
"%  c #FF7EDEFE",
"%! c #FF7FDEFF",
"%# c #FF7EDDFE",
"%$ c #FF4FAFCF",
"%% c #ED02698C",
"%& c #B50188B5",
"%' c #9C05A2D6",
"%( c #9300A6DE",
"%) c #8D00ADE7",
"%* c #8B00AFEA",
"%+ c #C3007DA7",
"%, c #F71A7D9E",
"%- c #FF52B2D2",
"%. c #FF5FBFDF",
"%/ c #FF3393B3",
"%0 c #D90B7CA2",
"%1 c #9B009DD2",
"%2 c #78000000",
"%3 c #F1000B0E",
"%4 c #8300B4F1",
"%5 c #E8016B8E",
"%6 c #FF56B6D6",
"%7 c #FE5ABBDB",
"%8 c #FD79D9FA",
"%9 c #FF73D2F3",
"%: c #FF2E8EAE",
"%; c #FC177899",
"%< c #EC0A7295",
"%= c #E8016A8E",
"%> c #DF047196",
"%? c #D203779E",
"%@ c #CF00769D",
"%A c #C8007AA3",
"%B c #BA0084B0",
"%C c #C8047EA7",
"%D c #EE11779A",
"%E c #FF49A9C9",
"%F c #FF6AC9EA",
"%G c #F5298CAE",
"%H c #BD0081AC",
"%I c #CD000000",
"%J c #AA000000",
"%K c #DE001B24",
"%L c #9301A7DF",
"%M c #DE006E93",
"%N c #FF177797",
"%O c #FF2888A8",
"%P c #FF44A4C4",
"%Q c #FE72D2F2",
"%R c #FE7EDEFF",
"%S c #FF73D3F3",
"%T c #FF59B9D9",
"%U c #FF54B4D4",
"%V c #FF55B5D5",
"%W c #FF40A0C0",
"%X c #FF3696B6",
"%Y c #FF3292B2",
"%Z c #FC2889AA",
"%[ c #FE1C7D9D",
"%\ c #FD2B8CAC",
"%] c #FF4BABCB",
"%^ c #FF77D6F7",
"%_ c #FF7DDDFD",
"%` c #FE3898B9",
"%a c #D6007298",
"%b c #B6004C66",
"%c c #F2000000",
"%d c #D7000000",
"%e c #9A009ED3",
"%f c #E4087497",
"%g c #FF3F9FBF",
"%h c #FF7BDBFB",
"%i c #FF5ABADA",
"%j c #FF41A1C1",
"%k c #FF6FCEEF",
"%l c #FF7DDCFD",
"%m c #FF75D4F5",
"%n c #FF76D5F6",
"%o c #FF6ECEEE",
"%p c #FF7BDAFB",
"%q c #FF79D9F9",
"%r c #FF67C7E7",
"%s c #FF1A7A9A",
"%t c #C5007CA5",
"%u c #FB000305",
"%v c #51000000",
"%w c #A20096C9",
"%x c #F9117394",
"%y c #FF64C4E4",
"%z c #FF57B7D7",
"%{ c #FF0E6E8E",
"%| c #DC006F94",
"%} c #E0006D91",
"&  c #ED0A7193",
"&! c #FF147494",
"&# c #FF4EAECE",
"&$ c #FF6BCBEB",
"&% c #FF7CDBFC",
"&& c #FF77D7F7",
"&' c #FF3797B7",
"&( c #FE46A6C6",
"&) c #F83294B5",
"&* c #E00A779C",
"&+ c #A00098CC",
"&, c #E800131A",
"&- c #7D000000",
"&. c #A90090C1",
"&/ c #F3117698",
"&0 c #FF6DCDED",
"&1 c #FF2989A9",
"&2 c #D001769E",
"&3 c #8C00AEE9",
"&4 c #A30095C8",
"&5 c #B30088B6",
"&6 c #D000759C",
"&7 c #E7046E91",
"&8 c #EE107699",
"&9 c #FB18799A",
"&: c #FF69C9E9",
"&; c #FF53B3D3",
"&< c #FF2282A2",
"&= c #F6026587",
"&> c #D10479A0",
"&? c #9F009ACD",
"&@ c #8300BAF9",
"&A c #CF002D3C",
"&B c #D70C7DA3",
"&C c #FC3091B2",
"&D c #FF65C4E5",
"&E c #FF72D1F2",
"&F c #FE3F9FBF",
"&G c #E50D779B",
"&H c #A60093C4",
"&I c #B70085B2",
"&J c #E3087498",
"&K c #FF3494B4",
"&L c #FF7AD9FA",
"&M c #FF51B1D1",
"&N c #ED0F7699",
"&O c #BD00435A",
"&P c #A80091C2",
"&Q c #DC07769B",
"&R c #FF167696",
"&S c #FF117191",
"&T c #E4016C90",
"&U c #AF008BBA",
"&V c #8600B6F3",
"&W c #ED157C9F",
"&X c #FD57B8D8",
"&Y c #F1066B8D",
"&Z c #31000000",
"&[ c #FC000304",
"&\ c #980082AE",
"&] c #B40087B5",
"&^ c #AB008FBF",
"&_ c #9200A7DF",
"&` c #CA047DA5",
"&a c #F71C7FA1",
"&b c #FF3999B9",
"&c c #FF1B7B9B",
"&d c #E0016E93",
"&e c #9400A5DC",
"&f c #67000000",
"&g c #77000000",
"&h c #9700A1D8",
"&i c #C4007CA6",
"&j c #DE057498",
"&k c #CA037CA4",
"&l c #E500151C",
"&m c #8A000000",
"&n c #DF001B24",
"&o c #9500A4DB",
"&p c #DF001922",
"&q c #BF000000",
"&r c #CE002E3D",
"&s c #E4001218",
"&t c #9E000000",
"&u c #C3003A4E",
"&v c #F4000406",
"&w c #80000000",
"&x c #C9003040",
"&y c #B9004961",
"&z c #AB000000",
"&{ c #F0000B0E",
"&| c #BC00455C",
"&} c #35000000",
"'  c #5A000000",
"'! c #D4002633",
"'# c #5C000000",
"'$ c #73000000",
"'% c #DE001D27",
"'& c #BF004156",
"'' c #99007FAA",
"'( c #8400B3EF",
"') c #A2006D92",
"'* c #F7000608",
"'+ c #EE000000",
"', c #50000000",
"'- c #3F000000",
"'. c #F5000709",
"'/ c #ED000C10",
"'0 c #E9000F14",
"'1 c #E200151D",
"'2 c #E100171F",
"'3 c #DD001D27",
"'4 c #CD002E3E",
"'5 c #AA006081",
"'6 c #8A00A1D8",
"'7 c #AE005876",
"'8 c #F600070A",
"'9 c #29000000",
"': c #F9000406",
"'; c #F7000507",
"'< c #F8000608",
"'= c #2E000000",
"'> c #84000000",
"'? c #C4000000",
"'@ c #DF000000",
"'A c #94000000",
"'B c #2C000000",
"'C c #0A000000",
"'D c #2B000000",
"'E c #45000000",
"'F c #56000000",
"'G c #68000000",
"'H c #A7000000",
"'I c #DA000000",
"'J c #F0000000",
"'K c #B1000000",
/* pixels */
"                                                                                                                               !",
"                                                                                                                               !",
"                                                                                                                               !",
"                                                                                                                               !",
"                                                                                                                               !",
"                                         # $ % & ' ( ) * + + , - . / 0 1 2                                                     !",
"                                   3 4 5 6 7 8 9 : : : : : : : : : 9 9 ; ' < =                                                 !",
"                             2 > ? @ 8 : : : : : 9 A : A B C A : : : : : : 8 D E #                                             !",
"                         F G H ; : : : : 9 I J K L M N O P Q R S T U 9 : : : : 7 V W F                                         !",
"                     X Y ' ; : : : 9 Z [ \ ] ^ _ _ _ _ _ _ _ _ _ _ ` a b c d : : 9 e f g h                                     !",
"                   2 i ; : : : A j k l m _ _ _ _ _ _ _ _ _ _ _ _ _ _ _ _ n o p q 9 : 8 r s !                                   !",
"                 t u v : : 9 w x y _ _ _ _ _ _ _ _ _ _ _ _ _ _ _ _ _ _ _ _ _ n z { | 9 : }!  1                                 !",
"               F!!!# : :!$!%!& n _ _ _ _ _ _ _ _ _ _ _ _ _ _ _ _ _ _ _ _ _ _ _ _!'!(!)!# : 8!*!+                               !",
"             h!,!- : :!.!/ _ _ _ _ _ _ _ _ _ _ _ _ _ _ _ _ _ _ _ _ _ _ _ _ _ _ _ _ `!0!1!2 : 9!3!+                             !",
"            !4!5 : :!6!7 _ _ _ _ _ _ _ _ _ _ _ _ _ _ _ _ _ _ _ _ _ _ _ _ _ _!8 _ _ _ n!9!:!; : 9!<!=                           !",
"          !> . 9 : C!? _ _ _ _ _ _ _ _ _ _ _ _ _ _ _ _ _ _ _ _ _ _ _ _ _ _ _!@!8 _ _ _ _!A!B!C : 8!D!E                         !",
"          !F!G : :!H n _ _ _ _ _ _ _ _ _ _ _ _ _ _ _ _ _ _ _ _ _ _ _ _ _ _ _ _ m n _ _ m _ m!I!J :!K!L h                       !",
"         h & 9 :!M!N _ _ _ _ _ _ _ _ _ _ _ _ _ _ _ _ _ _ _ _ _ _ _ _ _ _ _ _ _ _ _ _ _!O _ _!9!P A 9!Q!R                       !",
"        !S!T : 9!U _ _ _ _ _ _ _!9 o ^ n _ _ _ _ _ _ _ _ _ _ _ _ _ _ _ _ _ _ _ _ _ _ _ n!V _ _!W!X 9!Y!Z                       !",
"         % 8 :![!W _ _ _ _ _!\ z!]!^!_!`!a m _ _ _ _ _ _ _ _ _ _ _ _ _ _ _ _ _ _ _ _ _ _!b!9 _ n!c B :!d #                     !",
"       h!e : :!f _ _ _ _ _!g!h!i!j!k!l!m!n!o n _ _ _ _ _ _ _ _ _ _ _ _ _ _ _ _ _ n _ _ _ _ _!p!8!&!q :!r!s                     !",
"      !t @ :!u P _ _ _ _ n!v!w!x!y!z!{!|!}#  l _ _ _ _ _ _ _ _ _ _ _ _ _ _ _ _ _ _ m _ _ _ _ n!A n#! A 9## X                   !",
"      #$!- :![#% _ _ _ _ ^#&#'#(#)#*#*#+#,#-#. n _ _ _ _ _ _ _ _ _ _ _ _ _ _ _ _ _ _ m _ _ _ _!@!9#/#0 :#1#2                   !",
"      #3 9 :#4!A _ _ _ _#5#6#7#8#*!y#*#*#9#:#;#< _ _ _ _ _ _#=!c!f#>#?!P#@!@ _ _ _ _ _!@!8 _ _ _ m!9#A 9!Y#B                   !",
"      #C 9 :#D _ _ _ _ _#E![#F#+!y :!y#*#(#G#H#I _ _ _ _ _!&#J#K!j!k!l!m#L#M m _ _ _ _ _#N!8 _ _ _!\ z B 9 i h                 !",
"      #O : 9#P _ _ _ _ _!&#Q#R#S#*!y#*#T#U#V#W!A _ _ _ _ m#X#Y#Z!y!z!{!|!}#[!a _ _ _ _ _ _!9!8 _ _!A#\#] 9#^ t                 !",
"      #_ : 9#` _ _ _ _ _!9 k#a#b#c#d#e#f#g#h#\ _ _ _ _ _!g#i#'#(#)#*#*#+#,#-#j n _ _ _ _ _ _ _ _ _ _#k j :#l#m                 !",
"      #n : 9#o _ _ _ _ _ _#p#q#r#s#t#u#v#w M!A _ _ _ _ _ l#6#7#8#*!y#*#*#9#:#D ` _ _ _ _ _ _ _ _ _ _#x#y :#z!4                 !",
"      #n : A#{ _ _ _ _ _ _ _#%#|#} U$ $!$##N _ _ _ _ _ _$$![#F#+!y :!y#*#(#G$%!\ _ _ _ _ _ _ _ n!9 n$&$' :$($)                 !",
"      #_ : A#j _ _ _ _ _ _ _ _ m y$*#p ` m _ _ _ _ _ _ _ o!q#R#S#*!y#*#T#U#V$+ m _ _ _ _ _ _ _ _!9 n$,$- :$. $                 !",
"      !e : 9!` _ _ _ _ _ _ _ _ _ _ _ _ _ _ _ _ _ _ _ _ _!@$/$0#b#c#d#e#f#g$1!/ _ _ _ _ _ _ _ _ _ _ n!&$2 :!#$3                 !",
"      $4 : :$5 _ _ _ _ _ _ _ _ _ _ _ _ _ _ _ _ _ _ _ _ _ _$6$7#a#s#t#u#v$8$9 m _ _ _ _ _ _ _ _ _ _ _!\$: : :$;                 !",
"      $< 9 : T _ _ _ _ _ _ _ _ _ _ _ _ _ _ _ _ _ _ _ _ _ _ _!&$=!^ J$>#A$?!A _ _ _ _ _ _ _ _ _ _ _ _!9$@ : :!* !               !",
"      $A 8 :!M#N _ _ _ _ _ _ _ _ _ _ _ _ _ _ _ _ _ _ _ _ _ _ _ _ _ _ _ _ _ _ _ _ _ _ _ _ _ _ _ _ _ _ _$B : :!G$C               !",
"       $ ; :$D$E _ _ _ _ _ _ _ _ _ _ _ _ _ _ _ _ _ _ _ _ _ _ _ _ _ _ _ _ _ _ _ _ _ _ _ _ _ _ _ _ _ _ _$F 9 : 9$G               !",
"       3$H :$I ] _ _ _ _ _ _ _ _ _ _ _ _ _ _ _ _ _ _ _ _ _ _ _ _ _ _ _ _ _ _ _ _ _ _ _ _ _ _ _ _ _ _ _!O$J : :$K               !",
"         * :$L$M _ _ _ _ _ _ _ _ _ _ _ _ _ _ _ _ _ _ _ _ _ _ _ _ _ _ _ _ _ _ _ _ _ _ _ _ _ _ _ _ _ _ _ _$N 9 :$O!>             !",
"         6 :$L R _ _ _ _ _ _ _ _ _ _ _ _ _ _ _ _ _ _ _ _$P$Q$R _ _ _ _ _ _ _ _ _ _ _ _ _ _ _ _ _ _ _ _ _ a$S :!-$T             !",
"         6 :!u R _ _ _ _ _ _ _ _ _ _ _ _ _ _ _ _ _ _$U$V$W$X$X$Y$Z _ _ _ _ _ _ _ _ _ _ _$[ _ _ _ _ _ _ _!@$\ : 9$<             !",
"         ) :!u$] _ _ _ _ _ _ _ _ _ _ _ _ _ _ _ _ _$^$_$`$a$b$c$d$e$^ _ _ _ _ _ _ _ _$^$f$_$g$Y _ _ _ _ _ _$h 9 : r X           !",
"       #$. : C Q _ _ _ _ _ _ _ _ _ _ _ _ _ _ _ _ _$e$i$j$k$l$m$n$o$p _ _ _ _ _ _ _ _$q$r$s$t$u$_$Z _ _ _ _$v!u : ;$w           !",
"       G v :$x$y _ _ _ _ _ _ _ _ _ _ _ _ _ _ _ _$z${$|$}% %!%#%$%%%&%'%($z%)$U _$[%*%+%,%-%.%/%0%1 _ _ _ _ ^#0 : 9$;           !",
"      %2 8 :%3%4 _ _ _ _ _ _ _ _ _ _ _ _ _ _ _ _$f%5$|%6%7%8%!%9%:%;%<%=%>%?%@%A%B%C%D%E%!%!%F%G%H _ _ _ _ _#D : :%I h         !",
"      %J 9 :%K _ _ _ _ _ _ _ _ _ _ _ _ _ _ _ _ _%L%M%N%O%P%Q%R%!%S%T%U%V%W%X%Y%Z%[%\%]%^%!%!%_%`%a _ _ _ _ _%b A :%c$C         !",
"     F%d : 9 k _ _ _ _ _ _ _ _ _ _ _ _ _ _ _ _ _%e%f%g%^%#%#%h%i%j%j%$%k% %l%_%m%n%o%#%!%p%q%r%s%t$P _ _ _ _$y%u :!#%v         !",
"    #2 } : B!? _ _ _ _ _ _ _ _ _ _ _ _ _ _ _ _ _%w%x%y%!%!%_%z%{%|%}& &!%Y&#%T&$&%%!&&&'%:&(&)&*&+ _ _ _ _ _ m&, : :$K         !",
"    &- 9 :!M o _ _ _ _ _ _ _ _ _ _ _ _ _ _ _ _ _&.&/%.% %!&0&1&2$P&3&4&5&6&7&8&9%/&:%h&;&<&=&>&?&@ _ _ _ _ _ _&A : : -         !",
"     D : :$% n _ _ _ _ _ _ _ _ _ _ _ _ _ _ _ _ _$V&B&C&D&E&F&G&4 _ _ _$[$Z$q&H&I&J&K&L$l&M&N$g _ _ _ _ _ _ _ _$]!u : e t       !",
"   #$( : A&O _ _ _ _ _ _ _ _ _ _ _ _ _ _ _ _ _ _&@&P&Q&R&S&T&U&V _ _ _ _ _ _ _&@&5&W%-%R&X&Y%1 _ _ _ _ _ _ _ _#5%u : 7&Z       !",
"   $ ; :&[&\ _ _ _ _ _ _ _ _ _ _ _ _ _ _ _ _ _ _ _&@%e&]&^$V$Z _ _ _ _ _ _ _ _ _&_&`&a&b&c&d&e _ _ _ _ _ _ _ _#< J :!#&f       !",
"  &g 8 :%3%4 _ _ _ _ _ _ _ _ _ _ _ _ _ _ _ _ _ _ _ _ _$Z&@ _ _ _ _ _ _ _ _ _ _ _$^&h&i&j&k$V _ _ _ _ _ _ _ _ _ _&l : 9&m       !",
"  !D 9 :&n _ _ _ _ _ _ _ _ _ _ _ _ _ _ _ _ _ _ _ _ _ _ _ _ _ _ _ _ _ _ _ _ _ _ _ _ _$[&o$q$Z _ _ _ _ _ _ _ _ _ _&p : :!        !",
"  &q : :&r _ _ _ _ _ _ _ _ _ _ _ _ _ _ _ _ _ _ _ _ _ _ _ _ _ _ _ _ _ _ _ _ _ _ _ _ _ _ _ _ _ _ _ _ _ _ _ _ _ _ _&s : :&t       !",
"  #_ : 9&u _ _ _ _ _ _ _ _ _ _ _ _ _ _ _ _ _ _ _ _ _ _ _ _ _ _ _ _ _ _ _ _ _ _ _ _ _ _ _ _ _ _ _ _ _ _ _ _ _ _#<&v : 8&w       !",
"  #_ : 9#o _ _ _ _ _ _ _ _ _ _ _ _ _ _ _ _ _ _ _ _ _ _ _ _ _ _ _ _ _ _ _ _ _ _ _ _ _ _ _ _ _ _ _ _ _ _ _ _ _ m&x 9 : 7 >       !",
"  !e : 9&r _ _ _ _ _ _ _ _ _ _ _ _ _ _ _ _ _ _ _ _ _ _ _ _ _ _ _ _ _ _ _ _ _ _ _ _ _ _ _ _ _ _ _ _ _ _ _ _ n&y B : : H X       !",
"  &z : :&{ ^ _ _ _ _ _ _ _ _ _ _ _ _ _ _ _ _ _ _ _ _ _ _ _ _ _ _ _ _ _ _ _ _ _ _ _ _ _ _ _ _ _ _ _ _ _ _!A&| C : : e&}         !",
"  ' !# : 9'!#< _ _ _ _ _ _ _ _ _ _ _ _ _ _ _ _ _ _ _ _ _ _ _ _ _ _ _ _ _ _ _ _ _ _ _ _ _ _ _ _ _ _ _ _!\ S!u : : 7'# h         !",
"   3%I : : 9#; o _ _ _ _ _ _ _ _ _ _ _ _ _ _ _ _ _ _ _ _ _ _ _ _ _ _ _ _ _ _ _ _ _ _ _ _ _ _ _ _ _#I!v#0 9 : : 7'$ 2           !",
"    #2!T : : :!6'%'&'''( _ _ _ _ _ _ _ _ _ _ _ _ _ _ _ _ _ _ _ _ _ _ _ _ _ _ _ _ _ _ _ _ _ _ ^')!]'* A : : :'+', h             !",
"      '- + : : : : 9 I$x!6'.'/'0'1'2&n&n!_'3'4#x''!/ Q'5 Q a l'6!@!g!@ _ _ _ _ _ n!0#5'7 S!^'8 B 9 : : :!#!e'9                 !",
"        !+#O } 9 : : : : : : : : : : : : : : : : : : : : : : 9 C#y'.':';';'*'<'<$'$D!J A 9 : : : : 9 ; -'  !                   !",
"           F'='>'?!5 } ; v!#!# 8 8 9 9 : : : : : : : : : : : : : : : : : : : : : : : : : : : 8 7'@'A'B h                       !",
" ! ! ! ! ! ! !    'C'D'E'F&f'G'$'> f'H'I 7!#!# v v!-!- ;!- 8 9 : 9!- ; ; ; ; ; ; ; ; }'J#l'K&g!F !   ! ! ! ! ! ! ! ! ! ! ! ! ! #"
};