/* XPM */
static char *result[] = {
/* columns rows colors chars-per-pixel */
"64 64 96 2 ",
"   c #000000",
".  c #000709",
"X  c #00090C",
"o  c #000D12",
"O  c #021015",
"+  c #0D1010",
"@  c #00141C",
"#  c #0E1618",
"$  c #141616",
"%  c #001B24",
"&  c #001F29",
"*  c #00212C",
"=  c #1F2121",
"-  c #002734",
";  c #002D3C",
":  c #222323",
">  c #2B2C2C",
",  c #3F3F3F",
"<  c #002F40",
"1  c #003344",
"2  c #003649",
"3  c #003A4D",
"4  c #003D51",
"5  c #004156",
"6  c #00445B",
"7  c #004A63",
"8  c #004F69",
"9  c #00516C",
"0  c #005470",
"q  c #005876",
"w  c #005C7B",
"e  c #4B4B4B",
"r  c #535353",
"t  c gray35",
"y  c gray39",
"u  c gray42",
"i  c gray47",
"p  c #016485",
"a  c #01678A",
"s  c #02698C",
"d  c #0B6B8B",
"f  c #016E92",
"g  c #017197",
"h  c #087093",
"j  c #01749B",
"k  c #00789F",
"l  c #08789D",
"z  c #127393",
"x  c #137A9D",
"c  c #1D7D9D",
"v  c #0179A2",
"b  c #0F7BA0",
"n  c #007FA9",
"m  c #0081AD",
"M  c #0086B4",
"N  c #0289B7",
"B  c #008CBA",
"V  c #2686A6",
"C  c #2A8AAB",
"Z  c #3393B3",
"A  c #3C9CBC",
"S  c #008FC0",
"D  c #0092C3",
"F  c #0097CA",
"G  c #009ACE",
"H  c #009DD3",
"J  c #00A0D6",
"K  c #00A4DB",
"L  c #3FA0C0",
"P  c #00AAE3",
"I  c #00AEE9",
"U  c #00B1ED",
"Y  c #00B6F3",
"T  c #00B9F7",
"R  c #00BFFF",
"E  c #45A5C5",
"W  c #4CACCC",
"Q  c #53B3D3",
"!  c #57B8D8",
"~  c #5BBBDB",
"^  c #60BFE0",
"/  c #65C5E5",
"(  c #6CCCEC",
")  c #73D2F3",
"_  c #7EDDFE",
"`  c #939393",
"'  c #9A9A9A",
"]  c gray64",
"[  c #BDBDBD",
"{  c gray80",
"}  c #D9D9D9",
"|  c #E4E4E4",
" . c #EAEAEA",
".. c #F3F3F3",
"X. c #FDFDFD",
"o. c None",
/* pixels */
"o.o.o.o.o.o.o.o.o.o.o.o.o.o.o.o.o.o.o.o.o.o.o.o.o.o.o.o.o.o.o.o.o.o.o.o.o.o.o.o.o.o.o.o.o.o.o.o.o.o.o.o.o.o.o.o.o.o.o.o.o.o.o.o.",
"o.o.o.o.o.o.o.o.o.o.o.o.o.o.o.o.o.o.o.o.o.o.o.o.o.o.o.o.o.o.o.o.o.o.o.o.o.o.o.o.o.o.o.o.o.o.o.o.o.o.o.o.o.o.o.o.o.o.o.o.o.o.o.o.",
"o.o.o.o.o.o.o.o.o.o.o.o.o.o.o.o.o.o.o.o.o.o.o.o.o.o.o.o.o.o.o.o.o.o.o.o.o.o.o.o.o.o.o.o.o.o.o.o.o.o.o.o.o.o.o.o.o.o.o.o.o.o.o.o.",
"o.o.o.o.o.o.o.o.o.o.o.o.o.o.o.o.o.o.o.o.o.o.o.o.o.o.o.o.o.o.o.o.o.o.o.o.o.o.o.o.o.o.o.o.o.o.o.o.o.o.o.o.o.o.o.o.o.o.o.o.o.o.o.o.",
"o.o.o.o.o.o.o.o.o.o.o.o.o.o.o.o.o.o.o.o.o.o.o.o.o.o.o.o.o.o.o.o.o.o.o.o.o.o.o.o.o.o.o.o.o.o.o.o.o.o.o.o.o.o.o.o.o.o.o.o.o.o.o.o.",
"o.o.o.o.o.o.o.o.o.o.o.o.o.o.o.o.o.o.o.o.o.o.o.                      o.o.o.o.o.o.o.o.o.o.o.o.o.o.o.o.o.o.o.o.o.o.o.o.o.o.o.o.o.o.",
"o.o.o.o.o.o.o.o.o.o.o.o.o.o.o.o.o.o.o.                                    o.o.o.o.o.o.o.o.o.o.o.o.o.o.o.o.o.o.o.o.o.o.o.o.o.o.o.",
"o.o.o.o.o.o.o.o.o.o.o.o.o.o.o.o.                                                o.o.o.o.o.o.o.o.o.o.o.o.o.o.o.o.o.o.o.o.o.o.o.o.",
"o.o.o.o.o.o.o.o.o.o.o.o.o.o.                X % ; 6 9 9 q s 9 ; @ . X .             o.o.o.o.o.o.o.o.o.o.o.o.o.o.o.o.o.o.o.o.o.o.",
"o.o.o.o.o.o.o.o.o.o.o.o.            . O 1 s P R R R R R R R R R R R T B 7 @             o.o.o.o.o.o.o.o.o.o.o.o.o.o.o.o.o.o.o.o.",
"o.o.o.o.o.o.o.o.o.o.            X 2 M R R R R R R R R R R R R R R R R R R P f ; .         o.o.o.o.o.o.o.o.o.o.o.o.o.o.o.o.o.o.o.",
"o.o.o.o.o.o.o.o.o.          X 6 K R R R R R R R R R R R R R R R R R R R R R R R H 6         o.o.o.o.o.o.o.o.o.o.o.o.o.o.o.o.o.o.",
"o.o.o.o.o.o.o.o.          1 J R R R R R R R R R R R R R R R R R R R R R R R R R R R H o       o.o.o.o.o.o.o.o.o.o.o.o.o.o.o.o.o.",
"o.o.o.o.o.o.o.o.      . v R R R R R R R R R R R R R R R R R R R R R R R R R Y R R R R w         o.o.o.o.o.o.o.o.o.o.o.o.o.o.o.o.",
"o.o.o.o.o.o.o.      . v R R R R R R R R R R R R R R R R R R R R R R R R R R R R R R R Y 4         o.o.o.o.o.o.o.o.o.o.o.o.o.o.o.",
"o.o.o.o.o.o.        p R R R R R R R R R R R R R R R R R R R R R R R R R R R R R R R R R K @       o.o.o.o.o.o.o.o.o.o.o.o.o.o.o.",
"o.o.o.o.o.o.      * R R R R P 9 & O @ ; j T R R R R R R R R R R R R R R R R R R R R R R R p       o.o.o.o.o.o.o.o.o.o.o.o.o.o.o.",
"o.o.o.o.o.      . H R R R J ; + e u y > o w R R R R R R R R R R R R R R R R R Y R T R R R U @       o.o.o.o.o.o.o.o.o.o.o.o.o.o.",
"o.o.o.o.o.      2 R R R R 5 $ i } | | [ e o m R R R R R R R R R R R R R R R R R T R R R R R 8         o.o.o.o.o.o.o.o.o.o.o.o.o.",
"o.o.o.o.o.    . F R R R K @ t | X.X.X.X.[ : 3 R R R R R R R R R R R R R R R R R R R R R R R Y @         o.o.o.o.o.o.o.o.o.o.o.o.",
"o.o.o.o.      & R R R R N . ' ..X.} X.X.| r & I R R R R R R R R R R R R R R R R R R R R R R R K .       o.o.o.o.o.o.o.o.o.o.o.o.",
"o.o.o.o.      q R R R R M . ] X.}   } X.| t & I R R R R R R R R P 8 & O @ ; g T R R R R R R R R m         o.o.o.o.o.o.o.o.o.o.o.",
"o.o.o.o.    . F R R R R K o u ..X.} X.X.{ > 2 R R R R R R R R J 1 + , u y > O q R R R R R R R R R f           o.o.o.o.o.o.o.o.o.",
"o.o.o.      o T R R R R T 3 = '  .X.X.} u O j R R R R R R R R 5 $ i }  . .[ e o m R R R T R R R R R q         o.o.o.o.o.o.o.o.o.",
"o.o.o.      * R R R R R R G * = u ] ` e # 8 R R R R R R R R P O t | X.X.X.X.[ : 3 R R R R R R R R R T 2         o.o.o.o.o.o.o.o.",
"o.o.o.      ; R R R R R R R J 6 @ X o * s T R R R R R R R R M . ' X.X.} X.X.| r * I R R R R R R R R R I ;         o.o.o.o.o.o.o.",
"o.o.o.      1 R R R R R R R R R R R R R R R R R R R R R R R M . ] X.}   } X.| t % I R R R R R T U Y T R P o       o.o.o.o.o.o.o.",
"o.o.o.      3 R R R R R R R R R R R R R R R R R R R R R R R J o u ..X.} X.X.{ > 2 R R R R R R T R R R R R p       o.o.o.o.o.o.o.",
"o.o.o.      4 R R R R R R R R R R R R R R R R R R R R R R R T 3 $ '  .X.X.} u o k R R R R R R R R R R T R U @     o.o.o.o.o.o.o.",
"o.o.o.      4 R R R R R R R R R R R R R R R R R R R R R R R R G - = u ] ` e # 8 R R R R R R R R R I T R R R 6       o.o.o.o.o.o.",
"o.o.o.      2 R R R R R R R R R R R R R R R R R R R R R R R R R J 6 @ X o * a T R R R R R R R R R R R R R R g       o.o.o.o.o.o.",
"o.o.o.      ; R R R R R R R R R R R R R R R R R R R R R R R R R R R R R R R R R R R R R R R R R R R R R R R D X     o.o.o.o.o.o.",
"o.o.o.      % R R R R R R R R R R R R R R R R R R R R R R R R R R R R R R R R R R R R R R R R R R R o.R R R Y %     o.o.o.o.o.o.",
"o.o.o.o.    X Y R R R R R R R R R R R R R R R R R R R R R R R R R R R R R R R R R R R R R R R R R R R R R R R 2     o.o.o.o.o.o.",
"o.o.o.o.    . D R R R R R R R R R R R R R R R R R R R R R R R R R R R R R R R R R R R R R R R R R R R R R R R w       o.o.o.o.o.",
"o.o.o.o.      s R R R R R R R R R R R R R R R R R R R R R R R R R R R R R R R R R R R R R R R R R R R R R R R m       o.o.o.o.o.",
"o.o.o.o.      0 R R R R R R R R R R R R R R R R R R R R R R R R R R R R R R R R R R R R R R R R R R R R R R R B       o.o.o.o.o.",
"o.o.o.o.      0 R R R R R R R R R R R R R R R R R R R R R R R R R R R R R R R R R R R R R R R R R R R R R R R G .     o.o.o.o.o.",
"o.o.o.o.      0 R R R R R R R R R R R R R R R R R R R R R R R R R R R R R R R R R R R R R R R R R R R R R R R H .     o.o.o.o.o.",
"o.o.o.o.      q R R R R R R R R R R R R R R R R R R R R R R R R R R R R R R R R R R R R R R R R R R R R R R R P .     o.o.o.o.o.",
"o.o.o.o.      s R R R R R R R R R R R R R R R R R R R R R R R R R R R R R R R R R R R R R R R R R R R R R R R P .     o.o.o.o.o.",
"o.o.o.o.      D R R R R R R R R R R R T U Y Y R R R R R R R R R R R R R R R R R R R R R R R R R R R R R R R R P       o.o.o.o.o.",
"o.o.o.o.    X Y R R R R R R R R R R I B j a k J R R R R R R R R R R R R R R R R R R R R R R R R R R R R R R R P X     o.o.o.o.o.",
"o.o.o.      % R R R R R R R R R R I l z Z E V j J R R R R R R R R R R R R R R R R R R R R R R R R R R R R R R P @     o.o.o.o.o.",
"o.o.o.      2 R R R R R R R R R P j C / _ _ ) z F R R R R R R R R R R K J P Y R R R R R R R R R R R R R R R R P @     o.o.o.o.o.",
"o.o.o.      p R R R R R R R R R B d Q _ _ _ ) C k J R R R R R R R R F l h s m T R R R R R R R R R R R R R R R G O     o.o.o.o.o.",
"o.o.o.    . J R R R R R R R R R B d Z Z ~ _ _ ~ z d g v B G P Y R H s V ! E d D T R R R R R R R R R R R R R R G o     o.o.o.o.o.",
"o.o.      * R R R R R R R R R R m d Z Q ( _ _ _ ( E Z V z s a g j l C ( _ _ L j U R R R R R R R R R R R R R R B o     o.o.o.o.o.",
"o.o.      5 R R R R R R R R R Y f L _ _ _ _ / W L ^ _ _ ) ~ W Z A A / _ _ _ ~ s I R R R R R R R R R R R R R R m       o.o.o.o.o.",
"o.o.    . m R R R R R R R R R J d W _ _ _ ( c s s p C E ( _ _ _ ) _ _ _ _ _ W h H R R R R R R R R R R R R R R I .     o.o.o.o.o.",
"o.o.    X Y R R R R R R R R R I l L _ _ _ Z g P P F k d d Z W ( _ _ W Z Q W c j R R R R R R R R R R R R R R R R @       o.o.o.o.",
"o.      % R R R R R R R R R R R m x E ! V p B R R R R K M g s V ! _ ! V p x v J R R R R R R R R R R R R R R R R %       o.o.o.o.",
"o.      ; R R R R R R R R R R R I m d a k H R R R R R R R R K j V _ _ W x N R R R R R R R R R R R R R R R R R R @       o.o.o.o.",
"o.      3 R R R R R R R R R R R R R K K P R R R R R R R R R R B x Q _ ! p G R R R R R R R R R R R R R R R R R U         o.o.o.o.",
"o.      4 R R R R R R R R R R R R R R R R R R R R R R R R R R I v z W C f P R R R R R R R R R R R R R R R R R 1       o.o.o.o.o.",
"o.      ; R R R R R R R R R R R R R R R R R R R R R R R R R R R K v s g H R R R R R R R R R R R R R R R R R 6         o.o.o.o.o.",
"o.      X P R R R R R R R R R R R R R R R R R R R R R R R R R R R Y Y I T R R R R R R R R R R R R R R R T 6         o.o.o.o.o.o.",
"o.o.      - U R R R R R R R R R R R R R R R R R R R R R R R R R R R R R R R R R R R R R R R R R R R R I ;         o.o.o.o.o.o.o.",
"o.o.        * J R R R R R R R R R R R R R R R R R R R R R R R R R R R R R R R R R R R R R R R R R P 7 .         o.o.o.o.o.o.o.o.",
"o.o.o.        . * 5 m U R R R R R R R R R R R R R R R R R R R R R R R R R R R R R R R R R R I f - .           o.o.o.o.o.o.o.o.o.",
"o.o.o.o.              . . . X O @ @ % % % & ; f m k s p s v N J T P T R R R R R R K B q ; @ .               o.o.o.o.o.o.o.o.o.o.",
"o.o.o.o.o.                                                      . .   . . . . . .                       o.o.o.o.o.o.o.o.o.o.o.o.",
"o.o.o.o.o.o.o.                                                                                      o.o.o.o.o.o.o.o.o.o.o.o.o.o.",
"o.o.o.o.o.o.o.o.o.o.o.o.o.o.o.o.                                                            o.o.o.o.o.o.o.o.o.o.o.o.o.o.o.o.o.o."
};
