/* XPM */
static char *result[] = {
/* columns rows colors chars-per-pixel */
"64 64 604 2 ",
"   c #00000000",
" ! c #06000000",
" # c #0C000000",
" $ c #3B000000",
" % c #72000000",
" & c #A0000000",
" ' c #C0000000",
" ( c #CF000000",
" ) c #DC000000",
" * c #E7000000",
" + c #EF000000",
" , c #EA000000",
" - c #E1000000",
" . c #C8000000",
" / c #AA000000",
" 0 c #7A000000",
" 1 c #38000000",
" 2 c #14000000",
" 3 c #0A000000",
" 4 c #01000000",
" 5 c #0D000000",
" 6 c #60000000",
" 7 c #AC000000",
" 8 c #DD000000",
" 9 c #F8000000",
" : c #FD000000",
" ; c #FE000000",
" < c #FF000000",
" = c #EE000000",
" > c #C9000000",
" ? c #A1000000",
" @ c #6C000000",
" A c #47000000",
" B c #1B000000",
" C c #02000000",
" D c #37000000",
" E c #A6000000",
" F c #EC000000",
" G c #FE000001",
" H c #FD000001",
" I c #FD000102",
" J c #FC000102",
" K c #FA000000",
" L c #E5000000",
" M c #4E000000",
" N c #03000000",
" O c #41000000",
" P c #CA000000",
" Q c #F9000000",
" R c #FC000203",
" S c #F2000A0D",
" T c #DF001A23",
" U c #D0002C3A",
" V c #BD004259",
" W c #B400506B",
" X c #AD005A78",
" Y c #A500688B",
" Z c #B6004D67",
" [ c #D900212C",
" \ c #EA001015",
" ] c #F4000608",
" ^ c #F2000709",
" _ c #F6000305",
" ` c #F7000000",
" a c #CB000000",
" b c #77000000",
" c c #26000000",
" d c #05000000",
" e c #49000000",
" f c #F9000304",
" g c #CC003041",
" h c #A400698D",
" i c #8700ABE4",
" j c #8000BFFF",
" k c #8200B7F5",
" l c #8300B6F3",
" m c #8500AFE9",
" n c #970083AF",
" o c #B7004A62",
" p c #D7001F2A",
" q c #D800171F",
" r c #CF001016",
" s c #EE000203",
" t c #E9000000",
" u c #8F000000",
" v c #23000000",
" w c #87000000",
" x c #F200080B",
" y c #C8003446",
" z c #950087B5",
" { c #8100BCFB",
" | c #7F00BFFF",
" } c #8600ABE4",
"!  c #8C008FBF",
"!! c #B4003A4D",
"!# c #E200090C",
"!$ c #FA000001",
"!% c #E8000000",
"!& c #96000000",
"!' c #22000000",
"!( c #09000000",
"!) c #8C000000",
"!* c #FB000000",
"!+ c #EF00090C",
"!, c #BA00465E",
"!- c #8800A7DF",
"!. c #7A00BFFF",
"!/ c #7E00BFFF",
"!0 c #8000BDFD",
"!1 c #8800A5DD",
"!2 c #A5005E7E",
"!3 c #D500151C",
"!4 c #F5000102",
"!5 c #DF000000",
"!6 c #4D000000",
"!7 c #82000000",
"!8 c #FC000000",
"!9 c #F8000203",
"!: c #C7003243",
"!; c #8B00A0D6",
"!< c #7400BFFF",
"!= c #7900BFFF",
"!> c #9D006F95",
"!? c #CE001922",
"!@ c #F7000001",
"!A c #4B000000",
"!B c #5F000000",
"!C c #9D0078A0",
"!D c #8100BAF9",
"!E c #8300B3EF",
"!F c #9C006689",
"!G c #E300070A",
"!H c #D4000000",
"!I c #19000000",
"!J c #1E000000",
"!K c #E6000000",
"!L c #F8000406",
"!M c #9B007CA6",
"!N c #930089B7",
"!O c #E5000A0E",
"!P c #98000000",
"!Q c #04000000",
"!R c #A2000000",
"!S c #A7006486",
"!T c #7C00BFFF",
"!U c #A7006384",
"!V c #F8000304",
"!W c #32000000",
"!X c #30000000",
"!Y c #F5000000",
"!Z c #D900222D",
"![ c #D3002633",
"!\ c #9C000000",
"!] c #F400080B",
"!^ c #8C009ED3",
"!_ c #8400B1ED",
"!` c #7B00BFFF",
"!a c #9F007298",
"!b c #F8000305",
"!c c #1A000000",
"!d c #EB000000",
"!e c #C6003649",
"!f c #8400B0EB",
"!g c #DF001720",
"!h c #FA000406",
"!i c #8F0095C7",
"!j c #8700A9E2",
"!k c #B4004F6A",
"!l c #DD001E28",
"!m c #EC001015",
"!n c #E9001219",
"!o c #CD002F3F",
"!p c #9F00749B",
"!q c #8200B9F7",
"!r c #BA00455D",
"!s c #8D000000",
"!t c #C1000000",
"!u c #8A00A3DA",
"!v c #CC003040",
"!w c #FC0D1010",
"!x c #FF3F3F3F",
"!y c #FF6F6F6F",
"!z c #FF636363",
"!{ c #FF282828",
"!| c #F0031014",
"!} c #AD005B7A",
"#  c #9C0079A1",
"#! c #F7000304",
"## c #08000000",
"#$ c #12000000",
"#% c #8600ADE8",
"#& c #AB005D7D",
"#' c #D4002734",
"#( c #E400161E",
"#) c #E1001A23",
"#* c #C500384B",
"#+ c #980081AC",
"#, c #BE004258",
"#- c #FD141616",
"#. c #FF787878",
"#/ c #FFD9D9D9",
"#0 c #FFEAEAEA",
"#1 c #FFE6E6E6",
"#2 c #FFBFBFBF",
"#3 c #FF4C4C4C",
"#4 c #F0030F13",
"#5 c #EA000B0F",
"#6 c #20000000",
"#7 c #4A000000",
"#8 c #8F0096C9",
"#9 c #8800A8E1",
"#: c #C500394D",
"#; c #FB0D1011",
"#< c #ED031218",
"#= c #A6006688",
"#> c #E9001218",
"#? c #FF585858",
"#@ c #FFE4E4E4",
"#A c #FFFEFEFE",
"#B c #FFFFFFFF",
"#C c #FFFBFBFB",
"#D c #FFBABABA",
"#E c #FE222323",
"#F c #C2003D51",
"#G c #D7001C25",
"#H c #F2000000",
"#I c #34000000",
"#J c #EC000F14",
"#K c #BA00475F",
"#L c #FC141718",
"#M c #FF797979",
"#N c #ED031217",
"#O c #F9000507",
"#P c #FF9B9B9B",
"#Q c #FFFAFAFA",
"#R c #FFE2E2E2",
"#S c #FF535353",
"#T c #DB00202B",
"#U c #7D00BFFF",
"#V c #C9002D3C",
"#W c #B0000000",
"#X c #E700141B",
"#Y c #BE004157",
"#Z c #960085B2",
"#[ c #FFA5A5A5",
"#\ c #FF5A5A5A",
"#] c #DC001F29",
"#^ c #BD003F55",
"#_ c #53000000",
"#` c #BB000000",
"#a c #D0002B39",
"#b c #94008AB8",
"#c c #DA00212C",
"#d c #8500B0EB",
"#e c #EE000E13",
"#f c #FF6A6A6A",
"#g c #FFF1F1F1",
"#h c #FFFDFDFD",
"#i c #FFCCCCCC",
"#j c #FF2E2F2F",
"#k c #C7003547",
"#l c #B800475F",
"#m c #55000000",
"#n c #C2000000",
"#o c #CA003242",
"#p c #DC001E28",
"#q c #8600ACE6",
"#r c #C4003A4E",
"#s c #FD1F2121",
"#t c #FF999999",
"#u c #FFF0F0F0",
"#v c #FFF9F9F9",
"#w c #FFF7F7F7",
"#x c #FFDBDBDB",
"#y c #FF6B6B6B",
"#z c #F5071013",
"#{ c #C3000000",
"#| c #C2003C50",
"#} c #EF000C11",
"$  c #CA003344",
"$! c #8D009ACE",
"$# c #D801242F",
"$$ c #FE1F2121",
"$% c #FF686868",
"$& c #FFA1A1A1",
"$' c #FF939393",
"$( c #FF4A4A4A",
"$) c #F50E1618",
"$* c #B5004E68",
"$+ c #F6000000",
"$, c #C1003D51",
"$- c #F7070E11",
"$. c #A1007096",
"$/ c #BC00445A",
"$0 c #F0000C11",
"$1 c #A600678A",
"$2 c #44000000",
"$3 c #910092C3",
"$4 c #DE011E27",
"$5 c #FE1F2020",
"$6 c #F70D1315",
"$7 c #F3000000",
"$8 c #36000000",
"$9 c #C600374A",
"$: c #EB001116",
"$; c #F6000609",
"$< c #F400090C",
"$= c #E0001A23",
"$> c #AE005A78",
"$? c #8100B9F7",
"$@ c #D3002836",
"$A c #29000000",
"$B c #B2000000",
"$C c #D1002A39",
"$D c #950089B7",
"$E c #DE001C25",
"$F c #27000000",
"$G c #93000000",
"$H c #E1001922",
"$I c #8500B7F5",
"$J c #8000BCFB",
"$K c #DD001D27",
"$L c #25000000",
"$M c #70000000",
"$N c #A00098CC",
"$O c #C1007EA9",
"$P c #CE00779E",
"$Q c #B80084B1",
"$R c #8A00B1EC",
"$S c #8100BDFD",
"$T c #DE001A23",
"$U c #1C000000",
"$V c #FA000305",
"$W c #900093C4",
"$X c #9E009ACE",
"$Y c #D906779C",
"$Z c #FF1A7A9A",
"$[ c #FF3191B1",
"$\ c #FF137393",
"$] c #C9017AA3",
"$^ c #8F00AAE4",
"$_ c #E7001319",
"$` c #F4000000",
"$a c #FD000203",
"$b c #8400B9F7",
"$c c #8800B3F0",
"$d c #A40095C7",
"$e c #A20096C9",
"$f c #8900B2EE",
"$g c #BC0082AD",
"$h c #FF197999",
"$i c #FF6FCFEF",
"$j c #FF79D9F9",
"$k c #FF6ACAEA",
"$l c #FE177898",
"$m c #EF000B0E",
"$n c #F1000000",
"$o c #FE000102",
"$p c #B1005470",
"$q c #A30095C8",
"$r c #D8007197",
"$s c #FC0B6C8D",
"$t c #FA0B6D8D",
"$u c #D001769E",
"$v c #9A009ED3",
"$w c #9D009BCF",
"$x c #E0047196",
"$y c #FF42A2C2",
"$z c #FF7DDCFD",
"${ c #FF7FDEFF",
"$| c #FF4CACCC",
"$} c #EA036C8F",
"%  c #9300A6DE",
"%! c #FA000203",
"%# c #B300516C",
"%$ c #9700A1D8",
"%% c #DF08759A",
"%& c #FF2C8CAC",
"%' c #FF60C0E0",
"%( c #FF63C3E3",
"%) c #FF1F7F9F",
"%* c #CB0079A1",
"%+ c #8F02ADE6",
"%, c #8905B8F4",
"%- c #8A02B3EE",
"%. c #9600A2D9",
"%/ c #A80091C2",
"%0 c #C0007FAA",
"%1 c #CC0077A0",
"%2 c #E5077195",
"%3 c #FC1E7F9F",
"%4 c #FF61C1E1",
"%5 c #FF4DADCD",
"%6 c #F5006486",
"%7 c #9200A7DF",
"%8 c #8900A5DD",
"%9 c #59000000",
"%: c #D4007399",
"%; c #FF2686A6",
"%< c #FF76D5F6",
"%= c #FF62C2E2",
"%> c #FE0E6E8E",
"%? c #DE027195",
"%@ c #E1057196",
"%A c #EC00678A",
"%B c #EC056C8F",
"%C c #F90A6C8D",
"%D c #FB0D6F8F",
"%E c #FF2181A1",
"%F c #FF2585A5",
"%G c #FF49A9C9",
"%H c #FF65C4E5",
"%I c #FF6ECEEE",
"%J c #FE2D8DAE",
"%K c #CF0379A1",
"%L c #8D00ADE7",
"%M c #8400B3EF",
"%N c #B1000000",
"%O c #B200536F",
"%P c #F3137899",
"%Q c #FF5DBDDD",
"%R c #FE7EDEFF",
"%S c #FF78D8F8",
"%T c #FF3696B6",
"%U c #FF3999B9",
"%V c #FF48A8C8",
"%W c #FF53B3D3",
"%X c #FF69C8E9",
"%Y c #FF6CCCEC",
"%Z c #FF7AD9FA",
"%[ c #FF7EDEFE",
"%\ c #FF7DDDFD",
"%] c #FF78D7F8",
"%^ c #FF2787A7",
"%_ c #FF2080A0",
"%` c #FD0D6D8E",
"%a c #D4087BA2",
"%b c #E500161E",
"%c c #AB008EBE",
"%d c #FF0D6D8D",
"%e c #FF4BABCB",
"%f c #FE4CACCC",
"%g c #FD7DDEFF",
"%h c #FF70D0F0",
"%i c #FF66C5E6",
"%j c #FF6FCEEF",
"%k c #FF70CFF0",
"%l c #FF6AC9EA",
"%m c #FF58B8D8",
"%n c #FF3797B7",
"%o c #F60E7193",
"%p c #B0005572",
"%q c #2F000000",
"%r c #FA000304",
"%s c #92008FC0",
"%t c #A20097CA",
"%u c #EC056D8F",
"%v c #FF65C5E5",
"%w c #FF7BDAFB",
"%x c #FF7ADAFA",
"%y c #FF54B4D4",
"%z c #FF1C7C9C",
"%{ c #F90C6E8F",
"%| c #FF066686",
"%} c #FD107191",
"&  c #FB157697",
"&! c #FF0C6C8C",
"&# c #FF0F6F8F",
"&$ c #F9127495",
"&% c #FE147595",
"&& c #FF74D3F4",
"&' c #FF72D2F2",
"&( c #C4007CA6",
"&) c #8300BAF9",
"&* c #F600070A",
"&+ c #81000000",
"&, c #78000000",
"&- c #F1000B0E",
"&. c #8300B4F1",
"&/ c #E1006C91",
"&0 c #FF2989A9",
"&1 c #FF7CDCFC",
"&2 c #FF75D5F5",
"&3 c #CA0079A1",
"&4 c #A60093C4",
"&5 c #AA008FC0",
"&6 c #AC008EBD",
"&7 c #AE008CBB",
"&8 c #E10C799E",
"&9 c #FF3090B0",
"&: c #FF76D6F6",
"&; c #FC78D9FA",
"&< c #FC3091B2",
"&= c #D5007299",
"&> c #8600B6F3",
"&? c #CD000000",
"&@ c #DE001B24",
"&A c #8B00AFEA",
"&B c #E3026D91",
"&C c #FE4AABCB",
"&D c #FF57B7D7",
"&E c #F00C7294",
"&F c #9F0099CD",
"&G c #AD008DBC",
"&H c #E00C799E",
"&I c #FF1B7B9B",
"&J c #FF006080",
"&K c #B6004C66",
"&L c #15000000",
"&M c #D7000000",
"&N c #D200749B",
"&O c #FF2F8FAF",
"&P c #E700698D",
"&Q c #8C00AEE9",
"&R c #C6007BA4",
"&S c #D6007298",
"&T c #B1008AB8",
"&U c #FB000305",
"&V c #51000000",
"&W c #B20089B7",
"&X c #EA157DA0",
"&Y c #FF3F9FBF",
"&Z c #F5076B8C",
"&[ c #E800131A",
"&\ c #9B000000",
"&] c #7D000000",
"&^ c #B90084B0",
"&_ c #E0037195",
"&` c #F90B6D8E",
"&a c #EE006789",
"&b c #B0008BBA",
"&c c #CF002D3C",
"&d c #C5000000",
"&e c #8200BCFB",
"&f c #8E00ACE5",
"&g c #8700B5F1",
"&h c #BD00435A",
"&i c #31000000",
"&j c #FC000304",
"&k c #980082AE",
"&l c #67000000",
"&m c #E500151C",
"&n c #8A000000",
"&o c #A5000000",
"&p c #DF001B24",
"&q c #DF001922",
"&r c #9D000000",
"&s c #BF000000",
"&t c #CE002E3D",
"&u c #E4001218",
"&v c #9E000000",
"&w c #C3003A4E",
"&x c #F4000406",
"&y c #80000000",
"&z c #C9003040",
"&{ c #B9004961",
"&| c #AB000000",
"&} c #F0000B0E",
"'  c #BC00455C",
"'! c #35000000",
"'# c #5A000000",
"'$ c #D4002633",
"'% c #CF002C3B",
"'& c #5C000000",
"'' c #F500080B",
"'( c #73000000",
"') c #DE001D27",
"'* c #BF004156",
"'+ c #99007FAA",
"', c #A2006D92",
"'- c #F7000608",
"'. c #50000000",
"'/ c #3F000000",
"'0 c #F5000709",
"'1 c #ED000C10",
"'2 c #E9000F14",
"'3 c #E200151D",
"'4 c #E100171F",
"'5 c #CD002E3E",
"'6 c #A1006F94",
"'7 c #AA006081",
"'8 c #9A007EA8",
"'9 c #8A00A1D8",
"': c #AE005876",
"'; c #24000000",
"'< c #F300080B",
"'= c #F9000406",
"'> c #F7000507",
"'? c #F8000608",
"'@ c #F8000507",
"'A c #FB000304",
"'B c #2E000000",
"'C c #84000000",
"'D c #C4000000",
"'E c #94000000",
"'F c #2C000000",
"'G c #2B000000",
"'H c #45000000",
"'I c #56000000",
"'J c #68000000",
"'K c #A7000000",
"'L c #DA000000",
"'M c #F0000000",
"'N c #D8000000",
/* pixels */
"                                                                                                                                ",
"                                                                                                                                ",
"                                                                                                                                ",
"                                                                                                                                ",
"                                                                                                                                ",
"                                         # $ % & ' ( ) * + + , - . / 0 1 2 3 4                                                  ",
"                                   5 6 7 8 9 : ; < < < < < < < < < < < : = > ? @ A B C                                          ",
"                             C D E F : < < < < < ; G H H I J ; < < < < < < < ; : K L / M #                                      ",
"                         N O P Q < < < < ; R S T U V W W X Y Z [ \ ] ^ _ ; < < : < < ; ` a b c d                                ",
"                     d e ' Q < < < ; f \ g h i j j j j j j j j j j k l m n o p q r s : < < : t u v C                            ",
"                   C w Q < < < G x y z { j j j j j j j j j j j j j j j | | | j m }! !!!#!$ ; < :!%!&!' 4                        ",
"                !(!)!* < < ;!+!,!- j j j j j j j j j j j j j j j j j j j j!.!/!/!/ |!0!1!2!3!4 ; < :!5!6 C                      ",
"               N!7!8 < <!9!:!;!0 j j j j j j j j j j j j j j j j j j j j j j j j!<!= | | j m!>!?!@ < < =!A                      ",
"             4!B K < < ]!C j j j j j j j j j j j j j j j j j j j j j j j j l!D j j | j j | j j!E!F!G ; <!H!I                    ",
"            !J!K < <!L!M j j j j j j j j j j j j j j j j j j j j j j j j j j!0 j j j j | | j j j j!N!O < :!P d                  ",
"          !Q!R ; < J!S j j j j j j j j j j j j j j j j j j j j j j j j j j j j j j j j!T | j j | j!0!U!V < +!W                  ",
"          !X!Y < <!Z!0 j j j j j j j j j j j j j j j j j j j j j j j j j j j j j j j j!T | j j j j | k![ ; ;!\ C                ",
"         4 & ; <!]!^ j j j j j j j j j j j j j j j j j j j j j j j j j j j j j!_!0 j j j!` j j j j j |!a!b < -!c                ",
"        !I!d < ;!e j j j j j j j j j j j j j j j j j j j j j j j j j j j j j j { j j j j | | j j j j |!f!g < 9!6                ",
"         % : <!h!i j j j j j j j j j j j j j j j j j j j j!j!k!l!m!n!o!p!q j j j j j j j j | j j j j j |!r H :!s                ",
"       4!t < <!l j j j j j j j k!u i!0 j j j j j j j j j!;!v!w!x!y!z!{!|!} { j j j!0 j j j j j j j j j!/# #! < .##              ",
"      #$ F < H X j j j j j#%#&#'#(#)#*#+ { j j j j j j {#,#-#.#/#0#1#2#3#4#+ j j j j j | j j!0!0 j j |!.!^#5 < *#6              ",
"      #7 K <!h#8 j j j j#9#:#;!x!y!z!{#<#=!0 j j j j j#9#>#?#@#A#B#B#C#D#E#F!0 j j j j j j j!0 j j j j!` l#G ;#H#I              ",
"      !s ; <#J!D j j j!0#K#L#M#/#0#1#2#3#N z j j j j j z#O#P#Q#B#/#B#B#R#S#T m j j j j j j j!0 j j j j#U |#V ; ` A              ",
"      #W ; <#T j j j j i#X#?#@#A#B#B#C#D#E#Y!0 j j j j#Z!h#[#C#/ <#/#B#@#\#]#% j j j j j j |!0 j j!0 j | j#^ :!*#_              ",
"      #` < ;#a j j j j#b#O#P#Q#B#/#B#B#R#S#c#d j j j j!u#e#f#g#B#/#B#h#i#j#k { j j j j j j j!0 j j j!0 | j#l :!*#m              ",
"      #n < ;#o j j j j n!h#[#C#/ <#/#B#@#\#p#q j j j j!q#r#s#t#u#v#w#x#y#z!C j j j j j j j j j j j j j { |#l H Q!6              ",
"      #{ < ;#| j j j j!;#}#f#g#B#/#B#h#i#j$ !D j j j j j$!$#$$$%$&$'$($)$* { j j j j j j j j j j | j j j |#| ;$+ e              ",
"      #{ < G$, j j j j k y$$#t#u#v#w#x#y$-$. j j j j j j j!;$/#( S$0 [$1!D j j j j j j j j j j j j j j j!q y ;$+$2              ",
"      #n < G#F j j j j j$3$4$5$%$&$'$($6 V!D j j j j j j j j j j j j j j j j j j j j j j j j j j j j j j!D!o ;$7$8              ",
"      !t < ;#* j j j j j j#8$9$:$;$<$=$> l j j j j j j j j j j j j j j j j j j j j j j j j j j j j j j j$?$@ < F$A              ",
"      $B < <$C j j j j j j j {!-$D$3 m { j j j j j j j j j j j j j j j j j j j j j j j j j j j j j j j j!D$E ; t$F              ",
"      $G ; <$H j j j j j j j j j j j j j j j j j j j j j j j j j j j j j j j j j j j j j j$I j j j j j!/$J$K ;!%$L              ",
"      $M : <!] l j j j j j j j j j j j j j j j j j j j j j j j j j j j j j j j j j j j$N$O$P$Q$R$S j j |!D$T < -$U              ",
"       $ Q <$V$W j j j j j j j j j j j j j j j j j j j j j j j j j j j j j j j j j j$X$Y$Z$[$\$]$^ j j j l$_ < -!c              ",
"       5$` <$a h j j j j j j j j j j j j j j j j j j j$b$c$d$e$f$S j j j j j j j j j$g$h$i$j$k$l$g j j j#%$m <$n!c              ",
"        !% <$o$p j j j j j j j j j j j j j j j j j j$I$q$r$s$t$u$v j j j j j j j j$w$x$y$z${$z$|$}%  j j!-%! <!*!J              ",
"         8 <$o%# j j j j j j j j j j j j j j j j j$S%$%%%&%'%(%)%*%+%,%-%.$d%/%0%1%2%3%4${${${%5%6%7 j j%8 G < <%9              ",
"         8 < H%# j j j j j j j j j j j j j j j j j j%:%;%<${${%=%>%?%@%A%B%C%D%E%F%G%H${$j%I%H%J%K%L j j%M$V < <%N              ",
"         L < H%O j j j j j j j j j j j j j j j j j$q%P%Q${%R%R%S%(%T%U%V%W%X%Y%Z%[%\${%]%^%_%`%a$d j j j!0%b < <!% d            ",
"       #$7 < J Y j j j j j j j j j j j j j j j j j%c%d%W%e%f%g${%[%h%i%I%j%h%k%k%l%h%]$j%m%n%o$g j j j j j%p ; < K%q            ",
"       O!* <%r%s j j j j j j j j j j j j j j j j j%t%u$h%F%v%w%x%y%z%{%|%}& &!&#&$&%%n&&${&'%)&(&) j j j j!j&* < ;&+            ",
"      &, : <&-&. j j j j j j j j j j j j j j j j j j&/&0&1${${&2$Z&3&4$d&5&6%c&7%c$g&8&9&:&;&<&=&> j j j j j#T < <&? 4          ",
"       / ; <&@ j j j j j j j j j j j j j j j j j j&A&B&C${${%[&D&E&F j j j j j j j j&G&H&I%T&J&6 j j j j j j&K G <#H&L          ",
"     N&M < ; y j j j j j j j j j j j j j j j j j j&>&N&O%w${%\%n&P&Q j j j j j j j j$S$d&R&S&T$R j j j j j j%s&U <!8&V          ",
"    $L$+ < I!S j j j j j j j j j j j j j j j j j j j&W&X%U%H&Y&Z$d j j j j j j j j j j$S j&> j j j j j j j j {&[ < <&\          ",
"    &] ; <!]!u j j j j j j j j j j j j j j j j j j j j&^&_&`&a&b$R j j j j j j j j j j j j j j j j j j j j j j&c < <!H          ",
"    &d < <#]!0 j j j j j j j j j j j j j j j j j j j j&e$^$e&f&g j j j j j j j j j j j j j j j j j j j j j j j%O H <$n!(        ",
"   # , < G&h j j j j j j j j j j j j j j j j j j j j j j j j j j j j j j j j j j j j j j j j j j j j j j j j j#b&U < 9&i        ",
"   $ Q <&j&k j j j j j j j j j j j j j j j j j j j j j j j j j j j j j j j j j j j j j j j j j j j j j j j j j#d S <!8&l        ",
"   b : <&-&. j j j j j j j j j j j j j j j j j j j j j j j j j j j j j j j j j j j j j j j j j j j j j j j j j j&m < ;&n        ",
"  &o ; <&p j j j j j j j j j j j j j j j j j j j j j j j j j j j j j j j j j j j j j j j j j j j j j j j j j j j&q < <&r        ",
"  &s < <&t j j j j j j j j j j j j j j j j j j j j j j j j j j j j j j j j j j j j j j j j j j j j j j j j j j j&u < <&v        ",
"  #n < ;&w j j j j j j j j j j j j j j j j j j j j j j j j j j j j j j j j j j j j j j j j j j j j j j j j j j#d&x < :&y        ",
"  #n < ;#| j j j j j j j j j j j j j j j j j j j j j j j j j j j j j j j j j j j j j j j j j j j j j j j j j {&z ; < 9 D        ",
"  !t < ;&t j j j j j j j j j j j j j j j j j j j j j j j j j j j j j j j j j j j j j j j j j j j j j j j j!0&{ I < < P d        ",
"  &| < <&} i j j j j j j j j j j j j j j j j j j j j j j j j j j j j j j j j j j j j j j j j j j j j j j!D'  J < <$n'!          ",
"  '#!8 < ;'$#d j j j j j j j j j j j j j j j j j j j j j j j j j j j j j j j j j j j j j j j j j j j j#%'% H < < 9'& 4          ",
"   5&? < < ;#c!u j j j j j j j j j j j j j j j j j j j j j j j j j j j j j j j j j j j j j j j j j#q#K'' ; < < 9'( C            ",
"    $L!d < < <!L')'*'+%M j j j j j j j j j j j j j j j j j j j j j j j j j j j j j j j j j j i',#''- G < < < ='. 4              ",
"      '/ + < < < < ; R%r!L'0'1'2'3'4&p&p#)$K'5'6'+!C Y'7 Y'8 z'9!q#9!q j j j j j!0%8#b':'%#(&* I ; < < <!8!t$A                  ",
"        ';#`$+ ; < < < < < < < < < < < < < < < < < < < < < < ; J'<'0'='>'>'-'?'?'@$V'A G ; < < < < ; Q!H'# !                    ",
"           N'B'C'D!K$+ Q!*!8!8 : : ; ; < < < < < < < < < < < < < < < < < < < < < < < < < < < : 9!5'E'F 4                        ",
"                   3'G'H'I&l'J'('C!&'K'L 9!8!8!*!* K K Q K : ; < ; K Q Q Q Q Q Q Q Q$+'M'N%N b!X !                              "
};