/* XPM */
static char *result[] = {
/* columns rows colors chars-per-pixel */
"64 64 610 2 ",
"   c #00000000",
" ! c #06000000",
" # c #09000000",
" $ c #2D000000",
" % c #5F000000",
" & c #87000000",
" ' c #9D000000",
" ( c #A8000000",
" ) c #B0000000",
" * c #B1000000",
" + c #95000000",
" , c #68000000",
" - c #3D000000",
" . c #1A000000",
" / c #04000000",
" 0 c #01000000",
" 1 c #02000000",
" 2 c #27000000",
" 3 c #70000000",
" 4 c #C8000000",
" 5 c #F1000000",
" 6 c #FC000000",
" 7 c #FE000000",
" 8 c #FD000000",
" 9 c #F6000000",
" : c #DE000000",
" ; c #A2000000",
" < c #46000000",
" = c #0A000000",
" > c #18000000",
" ? c #53000000",
" @ c #B2000000",
" A c #F0000001",
" B c #FF000000",
" C c #FF000001",
" D c #FE000001",
" E c #F8000001",
" F c #BC000000",
" G c #40000000",
" H c #35000000",
" I c #99000000",
" J c #EB000000",
" K c #FE000102",
" L c #F7000609",
" M c #EE000E13",
" N c #E700141B",
" O c #E400171F",
" P c #E400161E",
" Q c #E500161E",
" R c #EC000F14",
" S c #F6000609",
" T c #F0000000",
" U c #84000000",
" V c #0B000000",
" W c #05000000",
" X c #3B000000",
" Y c #C0000000",
" Z c #FA000000",
" [ c #F8000608",
" \ c #E0001B24",
" ] c #C4003A4E",
" ^ c #A500698C",
" _ c #94008BBA",
" ` c #8A00A1D8",
" a c #8700ABE4",
" b c #8500AFE9",
" c c #8600ADE8",
" d c #960085B2",
" e c #B0005673",
" f c #CA003242",
" g c #DE001C25",
" h c #F300090C",
" i c #FB000000",
" j c #A5000000",
" k c #15000000",
" l c #0C000000",
" m c #88000000",
" n c #E8001219",
" o c #BB00455C",
" p c #93008CBB",
" q c #8300B4F1",
" r c #8000BDFD",
" s c #8000BFFF",
" t c #8100BCFB",
" u c #8C009ED3",
" v c #CE002E3D",
" w c #FD000203",
" x c #AE000000",
" y c #13000A0D",
" z c #C0000001",
" { c #F2000B0E",
" | c #B1005470",
" } c #8100BAF9",
"!  c #B5004F69",
"!! c #F9000507",
"!# c #0D000000",
"!$ c #39000304",
"!% c #EA000203",
"!& c #D0002B39",
"!' c #9C0079A1",
"!( c #EE000C11",
"!) c #70000102",
"!* c #FB000001",
"!+ c #F600070A",
"!, c #A2006D92",
"!- c #8E0097CA",
"!. c #E4000D11",
"!/ c #64000000",
"!0 c #03000000",
"!1 c #83000000",
"!2 c #8A00A3DA",
"!3 c #8800A7DF",
"!4 c #DB000B0F",
"!5 c #EA000000",
"!6 c #3E000000",
"!7 c #41000000",
"!8 c #CC002F3F",
"!9 c #8200B7F5",
"!: c #900093C4",
"!; c #F0000406",
"!< c #CE000000",
"!= c #16000000",
"!> c #EC000000",
"!? c #B300506A",
"!@ c #6A000000",
"!A c #E2001820",
"!B c #E3000000",
"!C c #13000000",
"!D c #D2000000",
"!E c #9A007EA8",
"!F c #F8000406",
"!G c #B7000000",
"!H c #07000000",
"!I c #11000000",
"!J c #F9000000",
"!K c #B1005571",
"!L c #AB005D7D",
"!M c #D4002734",
"!N c #E1001A23",
"!O c #C500384B",
"!P c #980081AC",
"!Q c #C2003C50",
"!R c #55000000",
"!S c #4B000000",
"!T c #910092C3",
"!U c #8800A8E1",
"!V c #C500394D",
"!W c #FB0D1011",
"!X c #FF3F3F3F",
"!Y c #FF6F6F6F",
"!Z c #FF636363",
"![ c #FF282828",
"!\ c #ED031218",
"!] c #A6006688",
"!^ c #E800131A",
"!_ c #32000000",
"!` c #8C000000",
"!a c #ED000E13",
"!b c #BA00475F",
"!c c #FC141718",
"!d c #FF797979",
"!e c #FFD9D9D9",
"!f c #FFEAEAEA",
"!g c #FFE6E6E6",
"!h c #FFBFBFBF",
"!i c #FF4C4C4C",
"!j c #ED031217",
"!k c #950087B5",
"!l c #8700A9E2",
"!m c #8900A5DD",
"!n c #DF000000",
"!o c #DB00202B",
"!p c #FF585858",
"!q c #FFE4E4E4",
"!r c #FFFEFEFE",
"!s c #FFFFFFFF",
"!t c #FFFBFBFB",
"!u c #FFBABABA",
"!v c #FE222323",
"!w c #BE004157",
"!x c #B4004F6A",
"!y c #DD001E28",
"!z c #EC001015",
"!{ c #E9001219",
"!| c #CD002F3F",
"!} c #9F00749B",
"#  c #8200B9F7",
"#! c #92008EBE",
"## c #EE00080A",
"#$ c #BB000000",
"#% c #94008AB8",
"#& c #FF9B9B9B",
"#' c #FFFAFAFA",
"#( c #FFE2E2E2",
"#) c #FF535353",
"#* c #DA00212C",
"#+ c #8500B0EB",
"#, c #8B00A0D6",
"#- c #CC003040",
"#. c #FC0D1010",
"#/ c #F0031014",
"#0 c #AD005B7A",
"#1 c #960084B0",
"#2 c #EC000405",
"#3 c #97000000",
"#4 c #C2000000",
"#5 c #970083AF",
"#6 c #FA000406",
"#7 c #FFA5A5A5",
"#8 c #FF5A5A5A",
"#9 c #DC001E28",
"#: c #8600ACE6",
"#; c #BE004258",
"#< c #FD141616",
"#= c #FF787878",
"#> c #F0030F13",
"#? c #AA005775",
"#@ c #F7000001",
"#A c #F3000000",
"#B c #22000000",
"#C c #C6000000",
"#D c #C500394C",
"#E c #EF000C11",
"#F c #FF6A6A6A",
"#G c #FFF1F1F1",
"#H c #FFFDFDFD",
"#I c #FFCCCCCC",
"#J c #FF2E2F2F",
"#K c #CA003344",
"#L c #E9001218",
"#M c #C2003D51",
"#N c #8100B9F7",
"#O c #CD001C26",
"#P c #9C000000",
"#Q c #D9000000",
"#R c #D1002A39",
"#S c #C8003446",
"#T c #FE1F2121",
"#U c #FF999999",
"#V c #FFF0F0F0",
"#W c #FFF9F9F9",
"#X c #FFF7F7F7",
"#Y c #FFDBDBDB",
"#Z c #FF6B6B6B",
"#[ c #F7070E11",
"#\ c #A1007096",
"#] c #F4000203",
"#^ c #38000000",
"#_ c #D3002836",
"#` c #DE011E27",
"#a c #FE1F2020",
"#b c #FF686868",
"#c c #FFA1A1A1",
"#d c #FF939393",
"#e c #FF4A4A4A",
"#f c #F70D1315",
"#g c #BD004259",
"#h c #DC001F29",
"#i c #CC002C3A",
"#j c #CC000000",
"#k c #0F000000",
"#l c #F4000000",
"#m c #D0002C3A",
"#n c #8F0096C9",
"#o c #C600374A",
"#p c #EB001116",
"#q c #F400090C",
"#r c #E0001A23",
"#s c #AE005A78",
"#t c #8300B6F3",
"#u c #C7003547",
"#v c #FB000102",
"#w c #47000000",
"#x c #D5002532",
"#y c #950089B7",
"#z c #FD1F2121",
"#{ c #F5071013",
"#| c #9D0078A0",
"#} c #DF00161D",
"$  c #45000000",
"$! c #8D009ACE",
"$# c #D801242F",
"$$ c #F50E1618",
"$% c #B5004E68",
"$& c #74000000",
"$' c #E600151C",
"$( c #BC00445A",
"$) c #F2000A0D",
"$* c #F0000C11",
"$+ c #D900212C",
"$, c #A600678A",
"$- c #ED000B0F",
"$. c #CB000000",
"$/ c #B6000000",
"$0 c #8F0095C7",
"$1 c #B5004D66",
"$2 c #FD000001",
"$3 c #26000000",
"$4 c #D3000000",
"$5 c #F7000507",
"$6 c #8900A4DB",
"$7 c #F000080B",
"$8 c #96000000",
"$9 c #E4000000",
"$: c #E000151C",
"$; c #CD002E3E",
"$< c #36000000",
"$= c #F2000000",
"$> c #C2003A4D",
"$? c #9B007BA4",
"$@ c #FA000203",
"$A c #F8000000",
"$B c #F2000507",
"$C c #9F007298",
"$D c #8200BCFB",
"$E c #8600B6F3",
"$F c #8900B2EE",
"$G c #8700B5F1",
"$H c #8100BDFD",
"$I c #EC000E13",
"$J c #93000000",
"$K c #6C000000",
"$L c #E7001117",
"$M c #7F00BFFF",
"$N c #8300BAF9",
"$O c #8B00AFEA",
"$P c #A20096C9",
"$Q c #BB0184B0",
"$R c #C3017FA9",
"$S c #BA0184B0",
"$T c #9D009BCF",
"$U c #CE002D3C",
"$V c #DB000000",
"$W c #DE001B24",
"$X c #8500ADE7",
"$Y c #AC008EBE",
"$Z c #DF067498",
"$[ c #FA0D6E8F",
"$\ c #FA2789AA",
"$] c #F72F92B3",
"$^ c #F32085A6",
"$_ c #DA04759A",
"$` c #9000A9E2",
"$a c #2F000000",
"$b c #B4000000",
"$c c #8000B4F1",
"$d c #7F00BDFC",
"$e c #9C009CD1",
"$f c #E4067195",
"$g c #FF3393B3",
"$h c #FF65C5E5",
"$i c #FF76D6F6",
"$j c #FF6ECDEE",
"$k c #FF58B8D8",
"$l c #FD157696",
"$m c #AF018DBC",
"$n c #8400B9F7",
"$o c #F500080B",
"$p c #81000000",
"$q c #F9000304",
"$r c #7500B6F4",
"$s c #7E00BDFC",
"$t c #BC0082AD",
"$u c #F60B6F90",
"$v c #FF40A0C0",
"$w c #FF72D1F2",
"$x c #FF7FDEFF",
"$y c #F72A8DAE",
"$z c #BE0283AE",
"${ c #8800B3F0",
"$| c #CD000000",
"$} c #7300BAF8",
"%  c #A30095C8",
"%! c #DD08779C",
"%# c #FD1B7C9C",
"%$ c #FF2080A0",
"%% c #FF3191B1",
"%& c #FD61C2E2",
"%' c #FE7EDEFF",
"%( c #FF6DCCED",
"%) c #F63093B5",
"%* c #C20381AB",
"%+ c #B6004C66",
"%, c #19000000",
"%- c #D0000000",
"%. c #FC000102",
"%/ c #C2003B4E",
"%0 c #7D00BBFA",
"%1 c #8C00AEE9",
"%2 c #CB027BA3",
"%3 c #F82789AA",
"%4 c #FF5DBDDD",
"%5 c #FF73D2F3",
"%6 c #FF71D1F1",
"%7 c #FE75D5F5",
"%8 c #FF77D7F7",
"%9 c #FE43A3C3",
"%: c #EC0A7294",
"%; c #8D03B1EB",
"%< c #92008FC0",
"%= c #FB000305",
"%> c #51000000",
"%? c #10000000",
"%@ c #9700A2D8",
"%A c #E40B779B",
"%B c #FF47A7C7",
"%C c #FF74D4F4",
"%D c #FF6DCDED",
"%E c #FF68C7E8",
"%F c #FE42A2C2",
"%G c #F4086C8E",
"%H c #D4007399",
"%I c #A80091C2",
"%J c #8D00ADE7",
"%K c #9B000000",
"%L c #BF000000",
"%M c #AD005977",
"%N c #9500A4DB",
"%O c #E50D789C",
"%P c #FF48A8C8",
"%Q c #FF7DDDFD",
"%R c #FF6ACAEA",
"%S c #FE40A1C1",
"%T c #F83699BA",
"%U c #FF6AC9EA",
"%V c #FD2D8EAE",
"%W c #C40380AA",
"%X c #A20097C9",
"%Y c #8500B7F5",
"%Z c #9F009ACD",
"%[ c #AB008EBE",
"%\ c #CF002D3C",
"%] c #D4000000",
"%^ c #B3000000",
"%_ c #A9006080",
"%` c #8E00ACE5",
"%a c #D0057BA2",
"%b c #FF2B8BAB",
"%c c #FF69C8E9",
"%d c #FF75D5F5",
"%e c #FF5ABADA",
"%f c #FB298AAB",
"%g c #E00A779C",
"%h c #CB057DA6",
"%i c #EC0A7194",
"%j c #FF2A8AAA",
"%k c #FF6FCFEF",
"%l c #FF46A6C6",
"%m c #FC2182A3",
"%n c #E80C7598",
"%o c #C7007AA4",
"%p c #AA008FC0",
"%q c #9E009ACE",
"%r c #BD0081AD",
"%s c #E20D799D",
"%t c #EB1880A3",
"%u c #E3087498",
"%v c #B80084B1",
"%w c #B200536F",
"%x c #AB000000",
"%y c #A90090C1",
"%z c #DF0B789D",
"%{ c #F61B7FA0",
"%| c #FE147494",
"%} c #F9086A8B",
"&  c #D302769D",
"&! c #AD008DBC",
"&# c #E4016C90",
"&$ c #FF2383A3",
"&% c #FF61C1E1",
"&& c #FF79D8F9",
"&' c #FF61C0E1",
"&( c #FF43A3C3",
"&) c #F72689AA",
"&* c #E9137C9F",
"&+ c #E50C779A",
"&, c #FF1C7C9C",
"&- c #FF42A2C2",
"&. c #FE3A9ABB",
"&/ c #E8097296",
"&0 c #9200A7DF",
"&1 c #31000000",
"&2 c #B8000000",
"&3 c #B50087B4",
"&4 c #AF008CBB",
"&5 c #9B009DD2",
"&6 c #D203779E",
"&7 c #F92183A4",
"&8 c #FF53B3D3",
"&9 c #FF7BDAFB",
"&: c #FF56B6D6",
"&; c #FF4EAECE",
"&< c #FF63C2E3",
"&= c #FF7EDDFE",
"&> c #F01E84A6",
"&? c #A70092C3",
"&@ c #67000000",
"&A c #CA000000",
"&B c #A4006B8F",
"&C c #9300A6DE",
"&D c #C6007BA4",
"&E c #EF167C9E",
"&F c #FD3F9FC0",
"&G c #FF7EDEFE",
"&H c #FF66C5E6",
"&I c #ED2890B2",
"&J c #B0028DBB",
"&K c #E500151C",
"&L c #8A000000",
"&M c #A7006587",
"&N c #8F00AAE4",
"&O c #E5097497",
"&P c #FE3595B5",
"&Q c #FF6FCEEF",
"&R c #FF57B7D7",
"&S c #FF76D5F6",
"&T c #FF7CDCFC",
"&U c #FF50B0D0",
"&V c #EC1B82A5",
"&W c #AE018EBD",
"&X c #DF001922",
"&Y c #B1008AB8",
"&Z c #F0177D9F",
"&[ c #FF3D9DBD",
"&\ c #FF3B9BBB",
"&] c #FA2587A8",
"&^ c #D40679A0",
"&_ c #9A009ED4",
"&` c #E4001218",
"&a c #9E000000",
"&b c #C5000000",
"&c c #BC00455C",
"&d c #E10F7CA1",
"&e c #FF49A9C9",
"&f c #FF65C4E5",
"&g c #FC197A9A",
"&h c #ED006789",
"&i c #D41285AC",
"&j c #C70781AB",
"&k c #A10097CA",
"&l c #F4000406",
"&m c #80000000",
"&n c #C1003D51",
"&o c #DB05759A",
"&p c #FF3999B9",
"&q c #FF5EBEDE",
"&r c #F2187D9E",
"&s c #BD0081AC",
"&t c #9200A8E0",
"&u c #C9003040",
"&v c #37000000",
"&w c #C1000000",
"&x c #C1007EA9",
"&y c #FB187A9B",
"&z c #FF3696B6",
"&{ c #D6007399",
"&| c #B9004961",
"&} c #FD000102",
"'  c #F0000B0E",
"'! c #BA0386B2",
"'# c #D501749B",
"'$ c #CD00779F",
"'% c #5A000000",
"'& c #D4002633",
"'' c #8A00B1EC",
"'( c #CF002C3B",
"') c #5C000000",
"'* c #73000000",
"'+ c #25000000",
"', c #DE001D27",
"'- c #BF004156",
"'. c #99007FAA",
"'/ c #8400B3EF",
"'0 c #F7000608",
"'1 c #EE000000",
"'2 c #50000000",
"'3 c #3F000000",
"'4 c #EF000000",
"'5 c #FC000203",
"'6 c #FA000304",
"'7 c #F5000709",
"'8 c #ED000C10",
"'9 c #E9000F14",
"': c #E200151D",
"'; c #E100171F",
"'< c #DF001B24",
"'= c #DD001D27",
"'> c #A1006F94",
"'? c #A500688B",
"'@ c #AA006081",
"'A c #AE005876",
"'B c #29000000",
"'C c #24000000",
"'D c #F300080B",
"'E c #F9000406",
"'F c #F8000507",
"'G c #FA000305",
"'H c #FB000304",
"'I c #2E000000",
"'J c #C4000000",
"'K c #E6000000",
"'L c #94000000",
"'M c #2C000000",
"'N c #2B000000",
"'O c #56000000",
"'P c #A7000000",
"'Q c #DA000000",
"'R c #D8000000",
"'S c #77000000",
"'T c #30000000",
/* pixels */
"                                                                                                                               !",
"                                                                                                                               !",
"                                                                                                                               !",
"                                                                                                                               !",
"                                                                                                                               !",
"                                                                                                                               !",
"                                                                                                                               !",
"                                           # $ % & ' ( ) * ) + , - . /     0 1                                                 !",
"                                     ! 2 3 4 5 6 7 7 7 7 7 7 7 8 9 : ; < =                                                     !",
"                               0 > ? @ A 8 B B B 7 C C D D D 7 B B B 7 E F G /                                                 !",
"                           ! H I J 8 B B B B K L M N O P Q R S K B B B B B T U V                                               !",
"                       W X Y Z B B B B [ \ ] ^ _ ` a b b c ` d e f g h C B B i j k                                             !",
"                     l m 9 B B B K n o p q r r s s s s s s s s s r t u v w B B 8 x k                                           !",
"                   y z 7 B B C { | b r s s s s s s s s s s s s s s s s }! !! B B 8 (!#                                         !",
"                !$!% B B B w!& u s s s s s s s s s s s s s s s s s s s s r!'!( B B 6 U /                                       !",
"             0!)!* B B B!+!, r s s s s s s s s s s s s s s s s s s s s s s s!-!. B B 9!/!0                                     !",
"           0!1 7 B B B P!2 s s s s s s s s s s s s s s s s s s s s s s s s s s!3!4 B B!5!6                                     !",
"          !7 7 B B K!8!9 s s s s s s s s s s s s s s s s s s s s s s s s s s s s!:!; B B!<!=                                   !",
"         /!> B B D ] t s s s s s s s s s s s s s s s s s s s s s s s s s s s s s s!? 7 B 8!@                                   !",
"         , B B C ] r s s s s s s s s s s s s s s s s s s s s s s s s s s s s s s s q!A B B!B!C                                 !",
"        !D B B n } s s s s s s s s s!9!2 a r s s s s s s s s s s s s s s s s s s s s!E!F B B!G!H                               !",
"      !I!J B B!K s s s s s s s s c!L!M P!N!O!P t s s s s s s s s s s s s s s s s s s r!Q B B 7!R 1                             !",
"      !S 8 B w!T s s s s s s s!U!V!W!X!Y!Z![!\!] r s s s s s s s s s s s s s s s s s s q!^ B B!J!_                             !",
"      !` 7 B!a } s s s s s s r!b!c!d!e!f!g!h!i!j!k s s s s s s s s s!9!2!l t s s s s s s!m!( B B!n l                           !",
"       ) 7 B!o s s s s s s s a N!p!q!r!s!s!t!u!v!w r s s s s s s!l!x!y!z!{!|!}#  s s s s s#!## B B!< #                         !",
"      #$ B 7!& s s s s s s s#%!!#&#'!s!e!s!s#(#)#*#+ s s s s s#,#-#.!X!Y!Z![#/#0 t s s s s s#1#2 B B#3 1                       !",
"      #4 B 7 f s s s s s s s#5#6#7!t!e B!e!s!q#8#9#: s s s s t#;#<#=!e!f!g!h!i#>!P s s s s s r#?#@ B#A#B                       !",
"      #C B 7#D s s s s s s s#,#E#F#G!s!e!s#H#I#J#K } s s s s!U#L!p!q!r!s!s!t!u!v#M r s s s s s#N#O B 7#P 0                     !",
"      #Q B B#R s s s s s s s!9#S#T#U#V#W#X#Y#Z#[#\ s s s s s!k!!#&#'!s!e!s!s#(#)!o b s s s s s s d#] B 9#^                     !",
"     1!5 B B#_ s s s s s s s s!T#`#a#b#c#d#e#f#g } s s s s s d#6#7!t!e B!e!s!q#8#h c s s s s s s r#i B B#j 1                   !",
"    #k#l B B#m s s s s s s s s s#n#o#p S#q#r#s#t s s s s s s!2 M#F#G!s!e!s#H#I#J#u t s s s s s s s#%#v B i#w                   !",
"     2!J B B#x s s s s s s s s s s t!3#y!T b t s s s s s s s#  ]#z#U#V#W#X#Y#Z#{#| s s s s s s s s t#} B B#j W                 !",
"    $  6 B B!N s s s s s s s s s s s s s s s s s s s s s s s s$!$##T#b#c#d#e$$$% t s s s s s s s s s ^ 8 B i!R                 !",
"    $& 8 B B$' r s s s s s s s s s s s s s s s s s s s s s s s s#,$( P$)$*$+$, } s s s s s s s s s s }$- B B$. 0               !",
"   W$/ B B 7#g s s s s s s s s s s s s s s s s s s s s s s s s s s r b$0 u!9 r s s s s s s s s s s s s$1$2 B 9$3               !",
"  !=$4 B 7$5#5 s s s s s s s s s s s s s s s s s s s s s s s s s s s s s s s s s s s s s s s s s s s s$6$7 B 7$8               !",
"  #B$9 B i$:#: s s s s s s s s s s s s s s s s s s s s s s s s s s s s s s s s s s s s s s s s s s s s s$; 7 B!B /             !",
"  $<$= B#@$> t s s s s s s s s s s s s s s s s s s s s s s s s s s s s s s s s s s s s s s s s s s s s s$?$@ B Z!6             !",
"  !S$A 7$B$C s t s s s s s s s s s s s s s s s s s s$D$E$F$G$H s s s s s s s s s s s s s s s s s s s s s!9$I B 7$J             !",
"  $K 8 8$L u$M#+ s s s s s s s s s s s s s s s s$N$O$P$Q$R$S$T$N s s s s s s s s s s s s s s s s s s s s s$U 7 B$V W           !",
"  $8 7!*$W$X s$6 s s s s s s s s s s s s s s s$D$Y$Z$[$\$]$^$_$` s s s s s s s s s s s s s s s s s s s s s ^$2 B!J$a           !",
" 0$b 7$@#*$c$d a s s s s s s s s s s s s s s$D$e$f$g$h$i$j$k$l$m$n s s s s s s s s s s s s s s s s s s s s a$o B 7$p           !",
" V#4 7$q#x$r$s } s s s s s s s s s s s s s s$F$t$u$v$w$x$x$w$y$z${ s s s s s s s s s s s s s s s s s s s s s!o B B$| 0         !",
"!=$| 7$q!8$} r s s s s s s s s s s s s s s$H% %!%#%$%%%&%'%(%)%*${ s s s s s s s s s s s s s s s s s s s s s%+ D B$= k         !",
"%,%- B%.%/%0 t s s s s s s s s s s s s s s%1%2%3%4%5%6%7%'%8%9%:$t%; s s s s s s s s s s s s s s s s s s s s%<%= B 6%>         !",
"%?$. B 7!? r t s s s s s s s s s s s s s s%@%A%B$x$x$x$x%C%D%E%F%G%H%I%J$D s s s s$D$H s s s s s s s s s s s t!^ B B%K         !",
" /%L B B%M r r s s s s s s s s s s s s s s%N%O%P$x$x%Q%R%S%T%9%U$h%V%O%W%X%Y s s${%Z%[$P${ s s s s s s s s s s%\ B B%]         !",
"  %^ B B%_ r s s s s s s s s s s s s s s s%`%a%b%c%d%e%f%g%h%i%j%(%k%l%m%n%o%p%q%r%s%t%u%v$N s s s s s s s s s%w$2 B 5 #       !",
"  %x B B!] s s s s s s s s s s s s s s s s$D%y%z%{%|%}& % %J&!&#&$&%&&&'&(&)&*&+&,&-$k&.&/&0 s s s s s s s s s#%%= B$A&1       !",
"  &2 B B$, s s s s s s s s s s s s s s s s s${% &3&4&5%`$D s$H&5&6&7&8%8&9%E&:&;&<&=$x&'&>&? s s s s s s s s s#+$) B 6&@       !",
"  &A B B&B s s s s s s s s s s s s s s s s s s s$N$D s s s s s s&C&D&E&F%U%Q&G$x$x$x$x&H&I&J$G s s s s s s s s s&K B 7&L       !",
"  $4 B B&M s s s s s s s s s s s s s s s s s s s s s s s s s s s s&N%v&O&P&Q$i&R%e&S&T&U&V&W${ s s s s s s s s s&X B B '       !",
"  !D B B%+ s s s s s s s s s s s s s s s s s s s s s s s s s s s s s$n&Y&Z&:%8&[&,&\%B&]&^&_$N s s s s s s s s s&` B B&a       !",
"  &b B 7&c s s s s s s s s s s s s s s s s s s s s s s s s s s s s s s%N&d&e$x&f&g&h&i&j&k s s s s s s s s s s#+&l B 8&m       !",
"  #4 B 7&n s s s s s s s s s s s s s s s s s s s s s s s s s s s s s s&C&o&p%'&q&r&s&t$`$D s s s s s s s s s t&u 7 B$A&v       !",
"  &w B 7 v s s s s s s s s s s s s s s s s s s s s s s s s s s s s s s$G&x&y&z&$&{%N s s s s s s s s s s s r&|&} B B&A W       !",
"  %x B B'  a s s s s s s s s s s s s s s s s s s s s s s s s s s s s s s&C'!'#'$% $n s s s s s s s s s s }&c%. B B 5 H         !",
"  '% 6 B 7'&#+ s s s s s s s s s s s s s s s s s s s s s s s s s s s s s$D''&C$G s s s s s s s s s s s c'($2 B B$A') 0         !",
"  !#$| B B 7#*!2 s s s s s s s s s s s s s s s s s s s s s s s s s s s s s s$H$D s s s s s s s s s#:!b$o 7 B B$A'* 1           !",
"    '+ J B B B!F','-'.'/ s s s s s s s s s s s s s s s s s s s s s s s s s s$n%Y s s s s s s a!,!M'0 D B B B'1'2 0             !",
"      '3'4 B B B B 7'5'6!F'7'8'9':';'<'<!N'=$;'>'.#|'?'@'?!E!k `# !U#  s s s s s r!m#%'A'( P!+&} 7 B B B 6&w'B                 !",
"        'C#$ 9 7 B B B B B B B B B B B B B B B B B B B B B B 7%.'D'7'E$5$5'0 [ ['F'G'H D 7 B B B B 7!J%]'% !                   !",
"          !0'I U'J'K 9!J i 6 6 8 8 7 7 B B B B B B B B B B B B B B B B B B B B B B B B B B B 8$A!n'L'M 0                       !",
" ! ! ! ! ! ! !     ='N$ 'O&@ ,'* U$8'P'Q$A 6 6 i i Z Z!J Z 8 7 B 7 Z!J!J!J!J!J!J!J!J 9 T'R *'S'T !   ! ! ! ! ! ! ! ! ! ! ! ! ! l"
};