/* XPM */
static char *result[] = {
/* columns rows colors chars-per-pixel */
"64 64 99 2 ",
"   c #000101",
".  c #000609",
"X  c #00090D",
"o  c #000E12",
"O  c #021115",
"+  c #0D1112",
"@  c #00141A",
"#  c #0E1618",
"$  c #141616",
"%  c #141718",
"&  c #001A23",
"*  c #001E28",
"=  c #00212D",
"-  c #1F2121",
";  c #002532",
":  c #002C3B",
">  c #222323",
",  c #2B2C2C",
"<  c #3F3F3F",
"1  c #003445",
"2  c #00374A",
"3  c #00394D",
"4  c #003E52",
"5  c #004157",
"6  c #00445A",
"7  c #004A63",
"8  c #004F69",
"9  c #00526D",
"0  c #005774",
"q  c #005B7A",
"w  c #4B4B4B",
"e  c #535353",
"r  c gray35",
"t  c gray39",
"y  c gray42",
"u  c #797979",
"i  c #016283",
"p  c #016789",
"a  c #026A8C",
"s  c #0C6D8E",
"d  c #016D91",
"f  c #0E6F90",
"g  c #007096",
"h  c #0F7192",
"j  c #00749A",
"k  c #09769B",
"l  c #08799F",
"z  c #147595",
"x  c #177898",
"c  c #1D7D9D",
"v  c #0077A0",
"b  c #007AA3",
"n  c #017FA9",
"m  c #177DA0",
"M  c #0081AD",
"N  c #1680A3",
"B  c #1E81A2",
"V  c #0086B4",
"C  c #0089B6",
"Z  c #008CBB",
"A  c #2383A4",
"S  c #2A8BAB",
"D  c #3595B5",
"F  c #3C9CBC",
"G  c #008FC0",
"H  c #0093C4",
"J  c #0196C9",
"K  c #009ACD",
"L  c #009DD2",
"P  c #00A0D6",
"I  c #00A3DB",
"U  c #00AAE3",
"Y  c #00AEE9",
"T  c #00B1ED",
"R  c #00B6F3",
"E  c #00B9F7",
"W  c #00BFFF",
"Q  c #44A4C4",
"!  c #4DADCD",
"~  c #53B3D3",
"^  c #5DBDDD",
"/  c #60BFE0",
"(  c #63C3E3",
")  c #6BCBEB",
"_  c #6ED0F0",
"`  c #74D4F4",
"'  c #78D7F8",
"]  c #7EDDFE",
"[  c #939393",
"{  c #9A9A9A",
"}  c gray64",
"|  c #BDBDBD",
" . c gray80",
".. c #D9D9D9",
"X. c #E4E4E4",
"o. c #EAEAEA",
"O. c #F3F3F3",
"+. c #FDFDFD",
"@. c None",
/* pixels */
"@.@.@.@.@.@.@.@.@.@.@.@.@.@.@.@.@.@.@.@.@.@.@.@.@.@.@.@.@.@.@.@.@.@.@.@.@.@.@.@.@.@.@.@.@.@.@.@.@.@.@.@.@.@.@.@.@.@.@.@.@.@.@.@.",
"@.@.@.@.@.@.@.@.@.@.@.@.@.@.@.@.@.@.@.@.@.@.@.@.@.@.@.@.@.@.@.@.@.@.@.@.@.@.@.@.@.@.@.@.@.@.@.@.@.@.@.@.@.@.@.@.@.@.@.@.@.@.@.@.",
"@.@.@.@.@.@.@.@.@.@.@.@.@.@.@.@.@.@.@.@.@.@.@.@.@.@.@.@.@.@.@.@.@.@.@.@.@.@.@.@.@.@.@.@.@.@.@.@.@.@.@.@.@.@.@.@.@.@.@.@.@.@.@.@.",
"@.@.@.@.@.@.@.@.@.@.@.@.@.@.@.@.@.@.@.@.@.@.@.@.@.@.@.@.@.@.@.@.@.@.@.@.@.@.@.@.@.@.@.@.@.@.@.@.@.@.@.@.@.@.@.@.@.@.@.@.@.@.@.@.",
"@.@.@.@.@.@.@.@.@.@.@.@.@.@.@.@.@.@.@.@.@.@.@.@.@.@.@.@.@.@.@.@.@.@.@.@.@.@.@.@.@.@.@.@.@.@.@.@.@.@.@.@.@.@.@.@.@.@.@.@.@.@.@.@.",
"@.@.@.@.@.@.@.@.@.@.@.@.@.@.@.@.@.@.@.@.@.@.@.@.@.@.@.@.@.@.@.@.@.@.@.@.@.@.@.@.@.@.@.@.@.@.@.@.@.@.@.@.@.@.@.@.@.@.@.@.@.@.@.@.",
"@.@.@.@.@.@.@.@.@.@.@.@.@.@.@.@.@.@.@.@.@.@.@.@.@.@.@.@.@.@.@.@.@.@.@.@.@.@.@.@.@.@.@.@.@.@.@.@.@.@.@.@.@.@.@.@.@.@.@.@.@.@.@.@.",
"@.@.@.@.@.@.@.@.@.@.@.@.@.@.@.@.@.@.@.@.@.@.@.@.@.@.@.@.@.@.@.@.@.@.@.@.@.@.@.@.@.@.@.@.@.@.@.@.@.@.@.@.@.@.@.@.@.@.@.@.@.@.@.@.",
"@.@.@.@.@.@.@.@.@.@.@.@.@.@.@.@.@.@.@.@.@.@.@.@.@.@.@.@.@.@.@.@.@.@.@.@.@.@.@.@.@.@.@.@.@.@.@.@.@.@.@.@.@.@.@.@.@.@.@.@.@.@.@.@.",
"@.@.@.@.@.@.@.@.@.@.@.@.@.@.@.@.@.@.@.@.@.@.@.@.@.@.@.@.@.@.@.@.@.@.@.@.@.@.@.@.@.@.@.@.@.@.@.@.@.@.@.@.@.@.@.@.@.@.@.@.@.@.@.@.",
"@.@.@.@.@.@.@.@.@.@.@.@.@.@.@.@.@.@.@.@.@.@.@.@.@.@.@.@.@.@.@.@.@.@.@.@.@.@.@.@.@.@.@.@.@.@.@.@.@.@.@.@.@.@.@.@.@.@.@.@.@.@.@.@.",
"@.@.@.@.@.@.@.@.@.@.@.@.@.@.@.@.@.@.@.@.@.@.@.@.@.@.@.@.@.@.@.@.@.      .   .   .           @.@.@.@.@.@.@.@.@.@.@.@.@.@.@.@.@.@.",
"@.@.@.@.@.@.@.@.@.@.@.@.@.@.@.@.@.@.@.@.@.@.@.@.@.@.@.@.@.        . O @.@.@.@.@.@.@.@.@.@       @.@.@.@.@.@.@.@.@.@.@.@.@.@.@.@.",
"@.@.@.@.@.@.@.@.@.@.@.@.@.@.@.@.@.@.@.@.@.@.@.@.@.@.@.@.    X @.W U W @.@.@.@.@.@.@.@.@.@.@.    @.@.@.@.@.@.@.@.@.@.@.@.@.@.@.@.",
"@.@.@.@.@.@.@.@.@.@.@.@.@.@.@.@.@.@.@.@.@.@.@.@.@.@.@.@.  . b W W @.@.@.@.@.@.@.@.W @.@.W @.    @.@.@.@.@.@.@.@.@.@.@.@.@.@.@.@.",
"@.@.@.@.@.@.@.@.@.@.@.@.@.@.@.@.@.@.@.@.@.@.@.@.@.@.@.@.    . & W @.@.@.@.@.@.@.@.W W @.X     @.@.@.@.@.@.@.@.@.@.@.@.@.@.@.@.@.",
"@.@.@.@.@.@.@.@.@.@.@.@.@.@.@.@.@.@.@.@.@.@.@.@.@.@.@.@.@.@.        . . . . . . . . .       @.@.@.@.@.@.@.@.@.@.@.@.@.@.@.@.@.@.",
"@.@.@.@.@.@.@.@.@.@.@.@.@.@.@.@.@.@.@.@.@.@.@.@.@.@.@.@.@.@.@.@.@.@.@.@.@.@.@.@.@.@.@.@.@.@.@.@.@.@.@.@.@.@.@.@.@.@.@.@.@.@.@.@.",
"@.@.@.@.@.@.@.@.@.@.@.                  @.@.@.@.@.@.@.@.@.@.@.@.@.@.@.@.@.@.@.@.@.@.@.@.@.@.                    . .     @.@.@.@.",
"@.@.@.@.@.@.@.@.                                        @.@.@.@.@.@.@.@.@.@.@.@.@.@.@.@.@.    . @.W W @.@.@.@.@.@.@.X     @.@.@.",
"@.@.@.@.@.@.              X o o o o .                                 @.@.@.@.@.@.@.@.@.@.@.      o @.@.@.@.@.@.@.X       @.@.@.",
"@.@.@.@.@.        . * 0 H R E W E W U V d 7 1 & X .                             @.@.@.@.@.@.@.@.                      @.@.@.@.@.",
"@.@.@.@.        1 Z E W W W W W W W W W W W W W R I J b 9 5 = o .                   @.@.@.@.@.@.@.@.@.@.@.@.@.@.@.@.@.@.@.@.@.@.",
"@.@.@.        i W W W W W E I U W W W W W W W W W W W W W W W W E K v 4 @                 @.@.@.@.@.@.@.@.@.@.@.@.@.@.@.@.@.@.@.",
"@.@.@.      g W W W W Y q ; @ & 2 M E W W W W W W W W W W W W W W W W W W @.C 1 X               @.@.@.@.@.@.@.@.@.@.@.@.@.@.@.@.",
"@.@.      5 W W W W U 3 X w y y , O p W W W W W W W W W W W W W W W W W W W W W W Z 1 X             @.@.@.@.@.@.@.@.@.@.@.@.@.@.",
"@.@.    X T W W W W 6 % u ..o.X.| w O C W W W W W W W W W W W W W W W W W W W W W W W T i @             @.@.@.@.@.@.@.@.@.@.@.@.",
"@.      7 W W W W U @ r X.+.+.+.+.| > 5 W W W W W W W W W W W W W W W W W W W W W W W W W W H ;           @.@.@.@.@.@.@.    @.@.",
"@.      L W W W W C . { +.+...+.+.X.e = T W W W W W W W W W W W W W W W W W W W W W W W W W W W H *           @.@.            @.",
"@.    @ E W W W W V . } +...  ..+.X.r * U W W W W W W W W W W W W W W W W W W W W W W W W W W W W W b @         @.  . @.@.@.    ",
"@.    ; W W W W W P o y o.+...+.+. ., 1 E W W W W W W W W W W W W W W W W W W W W W W W W W W W W W W W 1       @.            @.",
"@.    5 W W W W W R 1 - { O.+.O...y + g W W W W W W W W W W W W W W W W W W W W W W W W W W W W W W W W W 4       @.@.@.@.@.@.@.",
"    . M W W W W W W Z = - y } [ w + 6 W W W W W W W W W W W W W W W W W W W W W W W W W W Y Z M C I W W W E 3       @.@.@.@.@.@.",
"    . Y W W W W W @.W K 2 O . X @ q R W W W W W W W W W W W W W W W W W W W W W W @.@.@.T l c S s g Z K R W R :       @.@.@.@.@.",
"    O E W W W W W W W W E I Z H T W W W W W W W W W W W W W W W W W W W W W W W W W W @.M z ~ ` _ S s a j P W P @       @.@.@.@.",
"    = W W W W W W @.@.W W W W W W W W W W W W W W W W W W W W W W W W W W W W W W W W T j D ] ] ] / B F S j W W M .     @.@.@.@.",
"    = W W W W W W @.@.W W W W W W W W W W W W W W W W W W W W W W W W W W W W W W W W R M A ] ] ] ) A ' / i K W E :       @.@.@.",
"    = W W W W W W @.@.W W W W W W W W W W R P U W W W W W W W W W W W W W W W W W W W W K q ~ ] ] ) ! ] ] A M R W H .     @.@.@.",
"    & W W W W W W W W W W W W W W W W U 8 = O @ : j E W W W W W W W W W W W W W W W W W W l z ~ ] ] ] ] ] D j T E W 1       @.@.",
"    o W W W W W W W W W W W W W W W P : + < y t , O q W W W W W W W W W W W W W W W W W W U M A ) ] ] ] ` S j W W W L .     @.@.",
"    o W W W W W W W W W W W W W W W 5 $ u ..o.X.| w X M W W W W W W W W W W W W W W W W W W C x ` ' ! F S p H W W R W 2     @.@.",
"    . Y W W W W W W W W W W W W W I @ r X.+.+.+.+.| > 5 W W W W W W W W W W W W W W W W W U a D ` A a k b P W W W E W M       @.",
"    . I W W W W W W W W W W W W W C . { +.+...+.+.X.e = U W W W W W W W W W W W W W W W W M x ) Q s J T R W W W W W W R @     @.",
"      Z W W W W W W W W W W W W W C . } +...  ..+.X.r = Y W W W W W W W W W W W W W W W H p ! ` A j E W W W W W W W E W 4     @.",
"      g W W W W W W W W W W W W W I o y o.+...+.+. ., 2 W W W W W W W W W W W W W W W Y d A ' ^ s H W W W W W W W W W W j       ",
"@.    d W W W W W W W W W W W W W E 3 - { O.O.+...y + l W W W W W W W W W W W W W W W C s ( ] F d E W W W W W W W W W W I .     ",
"@.    8 W W W W W W W W W W W W W W K ; - y } [ w # 8 W W W W W W W W W W W W W W E I a D ] ` h V W W W W W W W W W W W U .     ",
"@.    = W W W W W W W @.@.W W W W W W P 5 @ X o = a E W W W W W W W W W W W W U Z M N B ) ] Q a P W W W W W W W W W W W E o     ",
"@.    o R W W W W W W W @.@.W W W W W W W T J P R W W W W W W W W W W W W W I j z S F ( ] ` S v W W W W W W W W W W W W E O     ",
"@.      V W W W W W W W @.@.@.W W W W W W W W W W W W W W W W W W W W W W W C x ^ ] ] ' ] ) B V W W W W W W W W W W W W W @     ",
"@.@.    3 W W W W W W W W @.@.W W W W W W W W W W W W W W W W W W W W W W E V z _ ] ) F ' ' A j E W W W W W W W W W W W W ;     ",
"@.@.    o T W W W W W W W W @.@.W W W W W W W W W W W W W W W W W W W W W W P a c F S B ' ] ! f C R W W W W W W W W W W W =     ",
"@.@.      d W W W W W W W W W @.@.@.W W W W W W W W W W W W W W W W W W W W W J b g i ! ] ] ] F k I W W W W W W W W W W W @     ",
"@.@.@.    & E W W W W W W W W W W W W W W W W W W W W W W W W W W W @.@.W @.W W E H N ^ ] ] ] ~ d P W W W W W W W W W W H .     ",
"@.@.@.      q W W W W W W W W W W W W W W W W W W W W W W W W W W W W W W W W W W I k S ) ' ) S g E W W W W W W W W W I *       ",
"@.@.@.@.    . Z W W W W W W W W W W W W W W W W W W W W W W W W W W W W W W W W W W Z p c m h a J W W W W W W W W U 9 X       @.",
"@.@.@.@.      @ P W W W W W W W W W W W W W W W W W W W W W W W W W W W W W W W W W W K C Z K T W W W W W W W W T &         @.@.",
"@.@.@.@.@.      O M W W W W W W W W W W W W W W W W W W W W W W W W W W W W W W W W W W W W W W W W W W R I v 4 o         @.@.@.",
"@.@.@.@.@.@.        = 9 H E W W W W W W W W W W W W W W W W W W W W W W W W W W W W W W E U L n g i 3 = O .               @.@.@.",
"@.@.@.@.@.@.@.            X * : 6 0 g V P I I I I I I I I I H v j j j j j j i 6 5 : * @ o .                         @.@.@.@.@.@.",
"@.@.@.@.@.@.@.@.@.                        . . . X . . . . .             .                                     @.@.@.@.@.@.@.@.@.",
"@.@.@.@.@.@.@.@.@.@.@.                                                                          @.@.@.@.@.@.@.@.@.@.@.@.@.@.@.@.",
"@.@.@.@.@.@.@.@.@.@.@.@.@.@.@.@.@.@.                            @.@.@.@.@.@.@.@.@.@.@.@.@.@.@.@.@.@.@.@.@.@.@.@.@.@.@.@.@.@.@.@.",
"@.@.@.@.@.@.@.@.@.@.@.@.@.@.@.@.@.@.@.@.@.@.@.@.@.@.@.@.@.@.@.@.@.@.@.@.@.@.@.@.@.@.@.@.@.@.@.@.@.@.@.@.@.@.@.@.@.@.@.@.@.@.@.@."
};
