/* XPM */
static char *result[] = {
/* columns rows colors chars-per-pixel */
"64 64 578 2 ",
"   c #00000000",
" ! c #06000000",
" # c #0C000000",
" $ c #3B000000",
" % c #72000000",
" & c #A0000000",
" ' c #C0000000",
" ( c #CF000000",
" ) c #DC000000",
" * c #E7000000",
" + c #EF000000",
" , c #E9000000",
" - c #D4000000",
" . c #A7000000",
" / c #83000000",
" 0 c #4F000000",
" 1 c #13000000",
" 2 c #0D000000",
" 3 c #60000000",
" 4 c #AC000000",
" 5 c #DD000000",
" 6 c #F8000000",
" 7 c #FD000000",
" 8 c #FE000000",
" 9 c #FF000000",
" : c #BF000000",
" ; c #4E000000",
" < c #10000000",
" = c #01000000",
" > c #02000000",
" ? c #37000000",
" @ c #A6000000",
" A c #EC000000",
" B c #FE000001",
" C c #FD000001",
" D c #FD000102",
" E c #FC000102",
" F c #82000000",
" G c #32000000",
" H c #07000000",
" I c #03000000",
" J c #41000000",
" K c #CA000000",
" L c #F9000000",
" M c #FC000203",
" N c #F2000A0D",
" O c #DF001A23",
" P c #D0002C3A",
" Q c #BD004259",
" R c #B400506B",
" S c #AD005A78",
" T c #A500688B",
" U c #B300516C",
" V c #D1002936",
" W c #EE000C11",
" X c #C1000000",
" Y c #6A000000",
" Z c #23000000",
" [ c #05000000",
" \ c #49000000",
" ] c #F9000304",
" ^ c #EA001015",
" _ c #CC003041",
" ` c #A400698D",
" a c #8700ABE4",
" b c #8000BFFF",
" c c #8100BCFB",
" d c #8400B3EF",
" e c #96007FAA",
" f c #CB002734",
" g c #F300070A",
" h c #FC000000",
" i c #B6000000",
" j c #57000000",
" k c #87000000",
" l c #F200080B",
" m c #C8003446",
" n c #950087B5",
" o c #8A00A1D8",
" p c #DD001E28",
" q c #F7000608",
" r c #FC000001",
" s c #09000000",
" t c #8C000000",
" u c #FB000000",
" v c #EF00090C",
" w c #BA00465E",
" x c #8800A7DF",
" y c #8200B9F7",
" z c #910090C1",
" { c #AA005F7F",
" | c #D7001D27",
" } c #F0000406",
"!  c #97000000",
"!! c #15000000",
"!# c #F8000203",
"!$ c #C7003243",
"!% c #8B00A0D6",
"!& c #8000BDFD",
"!' c #8100BAF9",
"!( c #93008CBB",
"!) c #BD00394C",
"!* c #EB000507",
"!+ c #C6000000",
"!, c #43000000",
"!- c #5F000000",
"!. c #FA000000",
"!/ c #F4000608",
"!0 c #9D0078A0",
"!1 c #7F00BFFF",
"!2 c #910092C3",
"!3 c #CC002A38",
"!4 c #FB000102",
"!5 c #F2000000",
"!6 c #B3000000",
"!7 c #70000000",
"!8 c #38000000",
"!9 c #0A000000",
"!: c #1E000000",
"!; c #E6000000",
"!< c #F8000406",
"!= c #9B007CA6",
"!> c #8400B1ED",
"!? c #B7004C65",
"!@ c #F5000709",
"!A c #F1000000",
"!B c #A8000000",
"!C c #04000000",
"!D c #A2000000",
"!E c #A7006486",
"!F c #980081AC",
"!G c #CF002C3B",
"!H c #F300090C",
"!I c #D0000000",
"!J c #1A000000",
"!K c #30000000",
"!L c #F5000000",
"!M c #D900222D",
"!N c #8700A9E2",
"!O c #B4004F6A",
"!P c #EC001015",
"!Q c #E9001219",
"!R c #CD002F3F",
"!S c #9F00749B",
"!T c #93008DBD",
"!U c #A8006284",
"!V c #CC002E3E",
"!W c #F7000406",
"!X c #F400080B",
"!Y c #8C009ED3",
"!Z c #CC003040",
"![ c #FC0D1010",
"!\ c #FF3F3F3F",
"!] c #FF6F6F6F",
"!^ c #FF636363",
"!_ c #FF282828",
"!` c #F0031014",
"!a c #AD005B7A",
"!b c #AE005876",
"!c c #FA000304",
"!d c #EB000000",
"!e c #27000000",
"!f c #19000000",
"!g c #C6003649",
"!h c #BE004258",
"!i c #FD141616",
"!j c #FF787878",
"!k c #FFD9D9D9",
"!l c #FFEAEAEA",
"!m c #FFE6E6E6",
"!n c #FFBFBFBF",
"!o c #FF4C4C4C",
"!p c #F0030F13",
"!q c #8300B4F1",
"!r c #DC001F29",
"!s c #4A000000",
"!t c #FA000406",
"!u c #8F0095C7",
"!v c #8800A8E1",
"!w c #E9001218",
"!x c #FF585858",
"!y c #FFE4E4E4",
"!z c #FFFEFEFE",
"!{ c #FFFFFFFF",
"!| c #FFFBFBFB",
"!} c #FFBABABA",
"#  c #FE222323",
"#! c #C2003D51",
"## c #F9000507",
"#$ c #FF9B9B9B",
"#% c #FFFAFAFA",
"#& c #FFE2E2E2",
"#' c #FF535353",
"#( c #DB00202B",
"#) c #8500AFE9",
"#* c #8A00A3DA",
"#+ c #ED000F14",
"#, c #34000000",
"#- c #12000000",
"#. c #8200B7F5",
"#/ c #960085B2",
"#0 c #FFA5A5A5",
"#1 c #FF5A5A5A",
"#2 c #8600ADE8",
"#3 c #A6006688",
"#4 c #FB000203",
"#5 c #CE000000",
"#6 c #8F0096C9",
"#7 c #AB005D7D",
"#8 c #D4002734",
"#9 c #E400161E",
"#: c #E1001A23",
"#; c #C500384B",
"#< c #EE000E13",
"#= c #FF6A6A6A",
"#> c #FFF1F1F1",
"#? c #FFFDFDFD",
"#@ c #FFCCCCCC",
"#A c #FF2E2F2F",
"#B c #C7003547",
"#C c #76000000",
"#D c #8D000000",
"#E c #EC000F14",
"#F c #C500394D",
"#G c #FB0D1011",
"#H c #ED031218",
"#I c #C4003A4E",
"#J c #FD1F2121",
"#K c #FF999999",
"#L c #FFF0F0F0",
"#M c #FFF9F9F9",
"#N c #FFF7F7F7",
"#O c #FFDBDBDB",
"#P c #FF6B6B6B",
"#Q c #F5071013",
"#R c #D6002532",
"#S c #F4000000",
"#T c #3F000000",
"#U c #B0000000",
"#V c #BA00475F",
"#W c #FC141718",
"#X c #FF797979",
"#Y c #ED031217",
"#Z c #8D009ACE",
"#[ c #D801242F",
"#\ c #FE1F2121",
"#] c #FF686868",
"#^ c #FFA1A1A1",
"#_ c #FF939393",
"#` c #FF4A4A4A",
"#a c #F50E1618",
"#b c #B5004E68",
"#c c #D700232F",
"#d c #F0000000",
"#e c #33000000",
"#f c #BB000000",
"#g c #D0002B39",
"#h c #E700141B",
"#i c #BE004157",
"#j c #BC00445A",
"#k c #F0000C11",
"#l c #D900212C",
"#m c #A600678A",
"#n c #D7002430",
"#o c #C2000000",
"#p c #CA003242",
"#q c #94008AB8",
"#r c #DA00212C",
"#s c #8500B0EB",
"#t c #C3000000",
"#u c #C2003C50",
"#v c #970083AF",
"#w c #DC001E28",
"#x c #8600ACE6",
"#y c #8C00AEE9",
"#z c #A70092C3",
"#{ c #AA008FC0",
"#| c #8D00ADE7",
"#} c #8800B3F0",
"$  c #D5002633",
"$! c #F3000000",
"$# c #3D000000",
"$$ c #C1003D51",
"$% c #EF000C11",
"$& c #CA003344",
"$' c #9D009BCF",
"$( c #D101769D",
"$) c #FC0B6C8C",
"$* c #FE117292",
"$+ c #E4036F93",
"$, c #A90091C1",
"$- c #8700B5F1",
"$. c #8300B6F3",
"$/ c #C6003648",
"$0 c #F7070E11",
"$1 c #A1007096",
"$2 c #BF0181AC",
"$3 c #FE1A7A9A",
"$4 c #FF5EBEDE",
"$5 c #FF6ACAEA",
"$6 c #FF48A8C8",
"$7 c #F7096C8D",
"$8 c #B40087B5",
"$9 c #61000000",
"$: c #DE011E27",
"$; c #FE1F2020",
"$< c #F70D1315",
"$= c #8200BCFB",
"$> c #DC006F94",
"$? c #FF3E9EBE",
"$@ c #FF7FDEFF",
"$A c #FF7AD9FA",
"$B c #FF42A2C2",
"$C c #E2047094",
"$D c #9100A8E1",
"$E c #BC004359",
"$F c #7A000000",
"$G c #B2000000",
"$H c #D1002A39",
"$I c #C600374A",
"$J c #EB001116",
"$K c #F6000609",
"$L c #F400090C",
"$M c #E0001A23",
"$N c #AE005A78",
"$O c #9700A1D8",
"$P c #E5077195",
"$Q c #FF7DDDFD",
"$R c #FF50B0D0",
"$S c #F4016687",
"$T c #9400A5DC",
"$U c #D500232F",
"$V c #F8000001",
"$W c #93000000",
"$X c #E1001922",
"$Y c #950089B7",
"$Z c #8900B2EE",
"$[ c #99009FD5",
"$\ c #D5007299",
"$] c #F7197C9D",
"$^ c #FF61C1E1",
"$_ c #FF7BDBFB",
"$` c #FF76D6F6",
"$a c #FF3696B6",
"$b c #D606799F",
"$c c #D4002532",
"$d c #F9000001",
"$e c #AA000000",
"$f c #8300BAF9",
"$g c #A90090C1",
"$h c #C0007FAA",
"$i c #AB008EBE",
"$j c #9600A2D9",
"$k c #8400B9F7",
"$l c #8F00AAE4",
"$m c #AF008BBA",
"$n c #DF006D92",
"$o c #F2056A8C",
"$p c #FF2787A7",
"$q c #FF51B1D1",
"$r c #FF70D0F0",
"$s c #FF1B7B9B",
"$t c #EC0B7395",
"$u c #D5002431",
"$v c #C9000000",
"$w c #FA000305",
"$x c #900093C4",
"$y c #8100BDFD",
"$z c #BA0083AF",
"${ c #FD056686",
"$| c #FE2484A5",
"$} c #FF137393",
"%  c #D402769C",
"%! c #9B019FD4",
"%# c #9303A9E1",
"%$ c #9F09A2D6",
"%% c #CB0078A0",
"%& c #EB00688A",
"%' c #FA127495",
"%( c #FF2E8EAE",
"%) c #FF52B2D2",
"%* c #FF75D5F5",
"%+ c #FF61C0E1",
"%, c #FF2888A8",
"%- c #FF2484A4",
"%. c #ED066E90",
"%/ c #CC002F3F",
"%0 c #18000000",
"%1 c #FD000203",
"%2 c #A80091C2",
"%3 c #F30D7193",
"%4 c #FF4EAECE",
"%5 c #FF71D1F1",
"%6 c #FF71D0F1",
"%7 c #EE056C8E",
"%8 c #F6086B8C",
"%9 c #FF2282A2",
"%: c #FF6DCCED",
"%; c #FF7CDCFC",
"%< c #FF73D3F3",
"%= c #FF67C6E7",
"%> c #FF1C7C9C",
"%? c #C8007AA3",
"%@ c #D6000000",
"%A c #E8000000",
"%B c #FE000102",
"%C c #B1005470",
"%D c #D100749C",
"%E c #FF3191B1",
"%F c #FF7EDDFE",
"%G c #FF6ECDEE",
"%H c #FF44A4C4",
"%I c #FF58B8D8",
"%J c #FF78D8F8",
"%K c #FF70CFF0",
"%L c #FF5CBCDC",
"%M c #FF45A5C5",
"%N c #FF1A7A9A",
"%O c #FE2D8DAE",
"%P c #FF54B4D4",
"%Q c #FD7DDEFF",
"%R c #FA43A5C6",
"%S c #E3006B8F",
"%T c #B6004C66",
"%U c #1C000000",
"%V c #9300A6DE",
"%W c #F405698B",
"%X c #FF5DBDDD",
"%Y c #FD7BDBFC",
"%Z c #FF6FCEEF",
"%[ c #FF4BABCB",
"%\ c #FF3292B2",
"%] c #FD137394",
"%^ c #F8006283",
"%_ c #E8016A8E",
"%` c #CC0077A0",
"%a c #D00378A0",
"%b c #EF177D9F",
"%c c #FF4CACCC",
"%d c #C5007CA5",
"%e c #8600B6F3",
"%f c #B300526D",
"%g c #EE000000",
"%h c #29000000",
"%i c #9F0099CD",
"%j c #F5127697",
"%k c #FF5BBBDB",
"%l c #FF3A9ABA",
"%m c #FD75D6F6",
"%n c #FF66C5E6",
"%o c #FE2A8AAA",
"%p c #EF006688",
"%q c #DB006F95",
"%r c #C7007AA4",
"%s c #AC008EBD",
"%t c #9000A9E2",
"%u c #8E00ACE5",
"%v c #B60086B3",
"%w c #D502759C",
"%x c #EA01698C",
"%y c #D200749B",
"%z c #9500A4DB",
"%{ c #3C000000",
"%| c #E5000000",
"%} c #B200536F",
"&  c #E7016B8F",
"&! c #FF167696",
"&# c #FF59B9D9",
"&$ c #FF79D8F9",
"&% c #FF55B5D5",
"&& c #F3006486",
"&' c #8500B7F5",
"&( c #5C000000",
"&) c #B90488B5",
"&* c #F8056788",
"&+ c #E0037195",
"&, c #8E000000",
"&- c #92008FC0",
"&. c #ED056D8F",
"&/ c #FD5ABBDB",
"&0 c #E5006A8E",
"&1 c #F7000609",
"&2 c #AF000000",
"&3 c #78000000",
"&4 c #F1000B0E",
"&5 c #DA007095",
"&6 c #FF2B8BAB",
"&7 c #FF73D2F3",
"&8 c #FF72D2F2",
"&9 c #FF177797",
"&: c #B80084B1",
"&; c #DE001B24",
"&< c #E40F7A9E",
"&= c #FD2E8FAF",
"&> c #FF3B9BBB",
"&? c #FF2989A9",
"&@ c #E0026F94",
"&A c #9A009ED3",
"&B c #D7000000",
"&C c #CB0179A2",
"&D c #DD006E93",
"&E c #D8007197",
"&F c #FB000305",
"&G c #51000000",
"&H c #25000000",
"&I c #F6000000",
"&J c #E800131A",
"&K c #9B000000",
"&L c #7D000000",
"&M c #CF002D3C",
"&N c #C5000000",
"&O c #EA000000",
"&P c #BD00435A",
"&Q c #31000000",
"&R c #FC000304",
"&S c #980082AE",
"&T c #67000000",
"&U c #77000000",
"&V c #E500151C",
"&W c #8A000000",
"&X c #A5000000",
"&Y c #DF001B24",
"&Z c #DF001922",
"&[ c #9D000000",
"&\ c #CE002E3D",
"&] c #E4001218",
"&^ c #9E000000",
"&_ c #C3003A4E",
"&` c #F4000406",
"&a c #80000000",
"&b c #C9003040",
"&c c #B9004961",
"&d c #AB000000",
"&e c #F0000B0E",
"&f c #BC00455C",
"&g c #35000000",
"&h c #5A000000",
"&i c #D4002633",
"&j c #CD000000",
"&k c #F500080B",
"&l c #73000000",
"&m c #DE001D27",
"&n c #BF004156",
"&o c #99007FAA",
"&p c #A2006D92",
"&q c #50000000",
"&r c #ED000C10",
"&s c #E9000F14",
"&t c #E200151D",
"&u c #E100171F",
"&v c #DD001D27",
"&w c #CD002E3E",
"&x c #A1006F94",
"&y c #AA006081",
"&z c #9A007EA8",
"&{ c #8900A5DD",
"&| c #F600070A",
"&} c #24000000",
"'  c #F300080B",
"'! c #F9000406",
"'# c #F7000507",
"'$ c #F8000608",
"'% c #F8000507",
"'& c #FB000304",
"'' c #2E000000",
"'( c #84000000",
"') c #C4000000",
"'* c #DF000000",
"'+ c #94000000",
"', c #2C000000",
"'- c #2B000000",
"'. c #45000000",
"'/ c #56000000",
"'0 c #68000000",
"'1 c #96000000",
"'2 c #DA000000",
"'3 c #D8000000",
"'4 c #B1000000",
/* pixels */
"                                                                                                                               !",
"                                                                                                                               !",
"                                                                                                                               !",
"                                                                                                                               !",
"                                                                                                                               !",
"                                         # $ % & ' ( ) * + + , - . / 0 1                                                       !",
"                                   2 3 4 5 6 7 8 9 9 9 9 9 9 9 9 9 9 8 6 : ; < =                                               !",
"                             > ? @ A 7 9 9 9 9 9 8 B C C D E B 9 9 9 9 9 9 8 5 F G H                                           !",
"                         I J K L 9 9 9 9 8 M N O P Q R R S T U V W M 9 9 9 9 9 7 + X Y Z [                                     !",
"                     [ \ ' L 9 9 9 8 ] ^ _ ` a b b b b b b b b b c d e f g B 9 9 9 8 h * i j #                                 !",
"                   > k L 9 9 9 B l m n c b b b b b b b b b b b b b b b b o S p q g r 9 9 9 L K j H                             !",
"                 s t u 9 9 8 v w x b b b b b b b b b b b b b b b b b b b b b y z { S | } 7 9 9 6! !!                           !",
"               I F h 9 9!#!$!%!& b b b b b b b b b b b b b b b b b b b b b b b b c!'!'!(!)!* 7 9 7!+!, H                       !",
"             =!-!. 9 9!/!0 b b b b b b b b b b b b b b b b b b b b b b b b b!1 b b b b b c!2!3!4 9 8!5!6!7!8!9                 !",
"            !:!; 9 9!<!= b b b b b b b b b b b b b b b b b b b b b b b b b b b b b b b b b b!>!?!@ 8 9 9 7!A!B Z               !",
"          !C!D 8 9 E!E b b b b b b b b b b b b b b b b b b b b b b b b b b b b b b b d b b b b!'!F!G!H E 8 9 8!I!J             !",
"          !K!L 9 9!M!& b b b b b b b b b b b b b b b b!N!O p!P!Q!R!S y b b b b b b b!& y b b b b b y!T!U!V!W 9 8!D!C           !",
"         = & 8 9!X!Y b b b b b b b b b b b b b b b b!%!Z![!\!]!^!_!`!a c b b b b b b b!& b b b b b b b b y!b!c 9!d!e           !",
"        !f!d 9 8!g b b b b b b b b b b b b b b b b c!h!i!j!k!l!m!n!o!p!F b b b b b b b b b b b b b b b b b!q!r 9 6!s           !",
"         % 7 9!t!u b b b b b b b b b b b b b b b b!v!w!x!y!z!{!{!|!}# #!!& b b b!& b b b b b b b b b b b b b P 8!.!s           !",
"       = X 9 9 p b b b b b b b b b b b b b b b b b n###$#%!{!k!{!{#&#'#(#) b b b!'!& b b b b b b b b b b b#*#+ 9!A#,           !",
"      #- A 9 C S b b b b b b b#.#* a!& b b b b b b#/!t#0!|!k 9!k!{!y#1!r#2 b b b b y b b b b b b b b b b b#3#4 9#5#-           !",
"      !s!. 9!t#6 b b b b b#2#7#8#9#:#;!F c b b b b#*#<#=#>!{!k!{#?#@#A#B c b b b b b!& b b b b b b b b b b!g 8 h#C =           !",
"      #D 8 9#E!' b b b b!v#F#G!\!]!^!_#H#3!& b b b y#I#J#K#L#M#N#O#P#Q!0 b b b b b b b b b b b b b b b b b#R 8#S#T             !",
"      #U 8 9#( b b b b!&#V#W#X!k!l!m!n!o#Y n b b b b#Z#[#\#]#^#_#`#a#b c b b b b b b b b b b b b b b b b b#c 8#d#e             !",
"      #f 9 8#g b b b b a#h!x!y!z!{!{!|!}# #i!& b b b b!%#j#9 N#k#l#m!' b b b b b b b b b b b b b b b b b b#n 8 +#e             !",
"      #o 9 8#p b b b b#q###$#%!{!k!{!{#&#'#r#s b b b b b b b b b b b b b b b b b b b b b b b b b b b b b b#n 8 +#e             !",
"      #t 9 8#u b b b b#v!t#0!|!k 9!k!{!y#1#w#x b b b b b b b b b b b b b b b b b b b#y#z#{#|#} b b b b b b$  8$!$#             !",
"      #t 9 B$$ b b b b!%$%#=#>!{!k!{#?#@#A$&!' b b b b b b b b b b b b b b b b b b$'$($)$*$+$,$- b b b b$.$/ 8 L ;             !",
"      #o 9 B#! b b b b#. m#\#K#L#M#N#O#P$0$1 b b b b b b b b b b b b b b b b b b$-$2$3$4$5$6$7$8 b b b b#s#b 7 7$9             !",
"       X 9 8#; b b b b b!2$:$;#]#^#_#`$< Q!' b b b b b b b b b b b b b b b b b b$=$>$?$@$@$A$B$C$D!& b b y$E!. 7$F             !",
"      $G 9 9$H b b b b b b#6$I$J$K$L$M$N$. b b b b b b b b b b b b b b b b b b b$O$P$6$Q$@$@$R$S$T!& b b!&$U$V 8 t             !",
"      $W 8 9$X b b b b b b b c x$Y!2#) c b b b b b b b b b b b b b b b b b b$Z$[$\$]$^$@$_$`$a$b$D b b b b$c$d 8$e =           !",
"      !7 7 9!X$. b b b b b b b b b b b b b b b b b b b$f$g$h$i$j$= b b$k$l$m$n$o$p$q$@$r$a$s$t$i b b b b b$u h 8$v!9           !",
"       $ L 9$w$x b b b b b b b b b b b b b b b b b$y#|$z${$|$}% %!%#%$%%%&%'%(%)%*$Q$@%+%,%-%.#z b b b b b%/ 8 8 -%0           !",
"       2#S 9%1 ` b b b b b b b b b b b b b b b b b$=%2%3%4%5%6%,%&%7%8%9$B%:$@$@%;%<$`$@$Q%=%>%?$f b b b b!h 9 9%@!J           !",
"        %A 9%B%C b b b b b b b b b b b b b b b b b$=%D%E%;$@%F%G%4%H%I%;%J%K%L%M%(%N%O%P$@%Q%R%S#} b b b b%T 9 9 )%U           !",
"         5 9%B U b b b b b b b b b b b b b b b b b%V%W%X$@%Y%Q$@$@%Z%[%\%,%]%^%_%`$h%a%b%\%c$}%d%e b b b b%f 9 9%g%h           !",
"         5 9 C U b b b b b b b b b b b b b b b b b%i%j%)%k%l%m$@%n%o%p%q%r%s$O%t b b%u%v%w%x%y%z$y b b b b R 9 9!.%{           !",
"        %| 9 C%} b b b b b b b b b b b b b b b b b%t& &!$s&#&$$@&%&&%t&' b b b b b b b b$l$Z&'$= b b b b b!h 9 9 8&(           !",
"       #$! 9 E T b b b b b b b b b b b b b b b b b$k&)&*$6$@$@$@%H&+$l b b b b b b b b b b b b b b b b b b ` B 9 9&,           !",
"       J u 9!c&- b b b b b b b b b b b b b b b b b b%t&.&/$@$@%F$B&0&' b b b b b b b b b b b b b b b b b b a&1 9 9&2           !",
"      &3 7 9&4!q b b b b b b b b b b b b b b b b b b&'&5&6&7$@&8&9&:$= b b b b b b b b b b b b b b b b b b b!r 9 9!I =         !",
"      $e 8 9&; b b b b b b b b b b b b b b b b b b b$=%s&<&=&>&?&@&A b b b b b b b b b b b b b b b b b b b b%T B 9!5!!         !",
"     I&B 9 8 m b b b b b b b b b b b b b b b b b b b b b#z&C&D&E$'$k b b b b b b b b b b b b b b b b b b b b&-&F 9 h&G         !",
"    &H&I 9 D!E b b b b b b b b b b b b b b b b b b b b b b#}$k$- b b b b b b b b b b b b b b b b b b b b b b c&J 9 9&K         !",
"    &L 8 9!X#* b b b b b b b b b b b b b b b b b b b b b b b b b b b b b b b b b b b b b b b b b b b b b b b b&M 9 9 -         !",
"    &N 9 9!r!& b b b b b b b b b b b b b b b b b b b b b b b b b b b b b b b b b b b b b b b b b b b b b b b b%} C 9!A s       !",
"   #&O 9 B&P b b b b b b b b b b b b b b b b b b b b b b b b b b b b b b b b b b b b b b b b b b b b b b b b b#q&F 9 6&Q       !",
"   $ L 9&R&S b b b b b b b b b b b b b b b b b b b b b b b b b b b b b b b b b b b b b b b b b b b b b b b b b#s N 9 h&T       !",
"  &U 7 9&4!q b b b b b b b b b b b b b b b b b b b b b b b b b b b b b b b b b b b b b b b b b b b b b b b b b b&V 9 8&W       !",
"  &X 8 9&Y b b b b b b b b b b b b b b b b b b b b b b b b b b b b b b b b b b b b b b b b b b b b b b b b b b b&Z 9 9&[       !",
"   : 9 9&\ b b b b b b b b b b b b b b b b b b b b b b b b b b b b b b b b b b b b b b b b b b b b b b b b b b b&] 9 9&^       !",
"  #o 9 8&_ b b b b b b b b b b b b b b b b b b b b b b b b b b b b b b b b b b b b b b b b b b b b b b b b b b#s&` 9 7&a       !",
"  #o 9 8#u b b b b b b b b b b b b b b b b b b b b b b b b b b b b b b b b b b b b b b b b b b b b b b b b b c&b 8 9 6 ?       !",
"   X 9 8&\ b b b b b b b b b b b b b b b b b b b b b b b b b b b b b b b b b b b b b b b b b b b b b b b b!&&c D 9 9 K [       !",
"  &d 9 9&e a b b b b b b b b b b b b b b b b b b b b b b b b b b b b b b b b b b b b b b b b b b b b b b!'&f E 9 9!A&g         !",
"  &h h 9 8&i#s b b b b b b b b b b b b b b b b b b b b b b b b b b b b b b b b b b b b b b b b b b b b#2!G C 9 9 6&( =         !",
"   2&j 9 9 8#r#* b b b b b b b b b b b b b b b b b b b b b b b b b b b b b b b b b b b b b b b b b#x#V&k 8 9 9 6&l >           !",
"    &H!d 9 9 9!<&m&n&o d b b b b b b b b b b b b b b b b b b b b b b b b b b b b b b b b b b a&p#8 q B 9 9 9%g&q =             !",
"      #T + 9 9 9 9 8 M!c!<!@&r&s&t&u&Y&Y#:&v&w&x&o!0 T&y T&z n o y!v y b b b b b!&&{#q!b!G#9&| D 8 9 9 9 h X%h                 !",
"        &}#f&I 8 9 9 9 9 9 9 9 9 9 9 9 9 9 9 9 9 9 9 9 9 9 9 8 E' !@'!'#'# q'$'$'%$w'& B 8 9 9 9 9 8 L -&h !                   !",
"           I'''(')!;&I L u h h 7 7 8 8 9 9 9 9 9 9 9 9 9 9 9 9 9 9 9 9 9 9 9 9 9 9 9 9 9 9 9 7 6'*'+', =                       !",
" ! ! ! ! ! ! !    !9'-'.'/&T'0&l'('1 .'2 6 h h u u!.!. L!. 7 8 9 8!. L L L L L L L L&I#d'3'4&U!K !   ! ! ! ! ! ! ! ! ! ! ! ! ! #"
};