/* XPM */
static char *result[] = {
/* columns rows colors chars-per-pixel */
"64 64 565 2 ",
"   c #00000000",
" ! c #06000000",
" # c #0C000000",
" $ c #3B000000",
" % c #72000000",
" & c #A0000000",
" ' c #C0000000",
" ( c #CF000000",
" ) c #DC000000",
" * c #E7000000",
" + c #EF000000",
" , c #E9000000",
" - c #D4000000",
" . c #A2000000",
" / c #6F000000",
" 0 c #38000000",
" 1 c #0B000000",
" 2 c #0D000000",
" 3 c #60000000",
" 4 c #AC000000",
" 5 c #DD000000",
" 6 c #F8000000",
" 7 c #FD000000",
" 8 c #FE000000",
" 9 c #FF000000",
" : c #F9000000",
" ; c #E3000000",
" < c #87000000",
" = c #1A000000",
" > c #01000000",
" ? c #02000000",
" @ c #37000000",
" A c #A6000000",
" B c #EC000000",
" C c #FE000001",
" D c #FD000001",
" E c #FD000102",
" F c #FC000102",
" G c #E5000000",
" H c #44000000",
" I c #03000000",
" J c #41000000",
" K c #CA000000",
" L c #FC000203",
" M c #F2000A0D",
" N c #DF001A23",
" O c #D0002C3A",
" P c #BD004259",
" Q c #B400506B",
" R c #AD005A78",
" S c #A500688B",
" T c #B300516C",
" U c #CF002C3B",
" V c #E0001821",
" W c #F000070A",
" X c #ED000000",
" Y c #1C000000",
" Z c #05000000",
" [ c #49000000",
" \ c #F9000304",
" ] c #EA001015",
" ^ c #CC003041",
" _ c #A400698D",
" ` c #8700ABE4",
" a c #8000BFFF",
" b c #8400B1ED",
" c c #9F006F95",
" d c #D500161D",
" e c #C6000000",
" f c #F200080B",
" g c #C8003446",
" h c #950087B5",
" i c #8100BCFB",
" j c #8200B6F3",
" k c #E3001016",
" l c #09000000",
" m c #8C000000",
" n c #FB000000",
" o c #EF00090C",
" p c #BA00465E",
" q c #8800A7DF",
" r c #A0007095",
" s c #BE000000",
" t c #82000000",
" u c #FC000000",
" v c #F8000203",
" w c #C7003243",
" x c #8B00A0D6",
" y c #8000BDFD",
" z c #CB002F3E",
" { c #FC000001",
" | c #DE000000",
" } c #16000000",
"!  c #5F000000",
"!! c #FA000000",
"!# c #F4000608",
"!$ c #9D0078A0",
"!% c #8800A8E1",
"!& c #E1001117",
"!' c #6C000000",
"!( c #1E000000",
"!) c #E6000000",
"!* c #F8000406",
"!+ c #9B007CA6",
"!, c #8700A9E2",
"!- c #B4004F6A",
"!. c #DD001E28",
"!/ c #EC001015",
"!0 c #E9001219",
"!1 c #CD002F3F",
"!2 c #9F00749B",
"!3 c #8200B9F7",
"!4 c #B200506B",
"!5 c #D6000000",
"!6 c #13000000",
"!7 c #04000000",
"!8 c #A7006486",
"!9 c #CC003040",
"!: c #FC0D1010",
"!; c #FF3F3F3F",
"!< c #FF6F6F6F",
"!= c #FF636363",
"!> c #FF282828",
"!? c #F0031014",
"!@ c #AD005B7A",
"!A c #8900A5DD",
"!B c #E4000A0E",
"!C c #5B000000",
"!D c #30000000",
"!E c #F5000000",
"!F c #D900222D",
"!G c #BE004258",
"!H c #FD141616",
"!I c #FF787878",
"!J c #FFD9D9D9",
"!K c #FFEAEAEA",
"!L c #FFE6E6E6",
"!M c #FFBFBFBF",
"!N c #FF4C4C4C",
"!O c #F0030F13",
"!P c #980081AC",
"!Q c #B2004861",
"!R c #C4000000",
"!S c #F400080B",
"!T c #8C009ED3",
"!U c #E9001218",
"!V c #FF585858",
"!W c #FFE4E4E4",
"!X c #FFFEFEFE",
"!Y c #FFFFFFFF",
"!Z c #FFFBFBFB",
"![ c #FFBABABA",
"!\ c #FE222323",
"!] c #C2003D51",
"!^ c #8F0096C9",
"!_ c #EE00080A",
"!` c #F4000000",
"!a c #35000000",
"!b c #19000000",
"!c c #EB000000",
"!d c #C6003649",
"!e c #F9000507",
"!f c #FF9B9B9B",
"!g c #FFFAFAFA",
"!h c #FFE2E2E2",
"!i c #FF535353",
"!j c #DB00202B",
"!k c #8500AFE9",
"!l c #D5002431",
"!m c #8E000000",
"!n c #FA000406",
"!o c #8F0095C7",
"!p c #960085B2",
"!q c #FFA5A5A5",
"!r c #FF5A5A5A",
"!s c #DC001F29",
"!t c #8600ADE8",
"!u c #AB005D7D",
"!v c #D8000000",
"!w c #12000000",
"!x c #C1000000",
"!y c #8A00A3DA",
"!z c #EE000E13",
"!{ c #FF6A6A6A",
"!| c #FFF1F1F1",
"!} c #FFFDFDFD",
"#  c #FFCCCCCC",
"#! c #FF2E2F2F",
"## c #C7003547",
"#$ c #8B009FD4",
"#% c #EB001015",
"#& c #F9000001",
"#' c #51000203",
"#( c #C4003A4E",
"#) c #FD1F2121",
"#* c #FF999999",
"#+ c #FFF0F0F0",
"#, c #FFF9F9F9",
"#- c #FFF7F7F7",
"#. c #FFDBDBDB",
"#/ c #FF6B6B6B",
"#0 c #F5071013",
"#1 c #BD000506",
"#2 c #4A000000",
"#3 c #8D009ACE",
"#4 c #D801242F",
"#5 c #FE1F2121",
"#6 c #FF686868",
"#7 c #FFA1A1A1",
"#8 c #FF939393",
"#9 c #FF4A4A4A",
"#: c #F50E1618",
"#; c #B5004E68",
"#< c #92008FC0",
"#= c #F3000102",
"#> c #36000304",
"#? c #8D000000",
"#@ c #EC000F14",
"#A c #8100BAF9",
"#B c #BC00445A",
"#C c #E400161E",
"#D c #F0000C11",
"#E c #D900212C",
"#F c #A600678A",
"#G c #8200B7F5",
"#H c #CB003041",
"#I c #8A000101",
"#J c #B0000000",
"#K c #FA000305",
"#L c #DF000001",
"#M c #1A000709",
"#N c #BB000000",
"#O c #D0002B39",
"#P c #E400171F",
"#Q c #7D000304",
"#R c #C2000000",
"#S c #CA003242",
"#T c #B1005571",
"#U c #E1000001",
"#V c #22001016",
"#W c #C3000000",
"#X c #C2003C50",
"#Y c #E500151C",
"#Z c #80000203",
"#[ c #06003F55",
"#\ c #C1003D51",
"#] c #AA005F7F",
"#^ c #FC000304",
"#_ c #E6000001",
"#` c #2C000D11",
"#a c #E2001921",
"#b c #A0000203",
"#c c #09002A38",
"#d c #C500384B",
"#e c #A500698C",
"#f c #6B000304",
"#g c #04002F3F",
"#h c #B2000000",
"#i c #D1002A39",
"#j c #CC002F3F",
"#k c #F1000001",
"#l c #4A00070A",
"#m c #93000000",
"#n c #E1001922",
"#o c #DF000102",
"#p c #2B000D11",
"#q c #70000000",
"#r c #8300B6F3",
"#s c #960086B4",
"#t c #EF000D12",
"#u c #D6000709",
"#v c #1D000D11",
"#w c #900093C4",
"#x c #A0007299",
"#y c #F500070A",
"#z c #CC000B0F",
"#{ c #14000000",
"#| c #FD000203",
"#} c #AA006081",
"$  c #BB000304",
"$! c #11000000",
"$# c #E8000000",
"$$ c #FE000102",
"$% c #B1005470",
"$& c #8100BDFD",
"$' c #B6004C66",
"$( c #FB000304",
"$) c #9400A5DC",
"$* c #9A009ED3",
"$+ c #9C009CD1",
"$, c #9F0099CD",
"$- c #9600A2D9",
"$. c #8500B7F5",
"$/ c #BD00435A",
"$0 c #8700B5F1",
"$1 c #B1008AB8",
"$2 c #E3087498",
"$3 c #F90F7192",
"$4 c #FD0A6B8B",
"$5 c #F30F7395",
"$6 c #DE016F94",
"$7 c #B20089B7",
"$8 c #8400B3EF",
"$9 c #CD002E3E",
"$: c #F1000000",
"$; c #42000000",
"$< c #B200536F",
"$= c #A50397C9",
"$> c #EA046C8F",
"$? c #FF2787A7",
"$@ c #FF60BFE0",
"$A c #FF71D0F1",
"$B c #FF66C6E6",
"$C c #FF3C9CBC",
"$D c #F30D7193",
"$E c #AB008EBE",
"$F c #DA00202B",
"$G c #CD000000",
"$H c #10000000",
"$I c #F3000000",
"$J c #BD0081AC",
"$K c #EB00688A",
"$L c #FD0F6F90",
"$M c #FF3090B0",
"$N c #FF6AC9EA",
"$O c #FF7FDEFF",
"$P c #FF75D4F5",
"$Q c #C5007CA5",
"$R c #8300BAF9",
"$S c #94008BBA",
"$T c #F400070A",
"$U c #62000000",
"$V c #FA000304",
"$W c #B70085B2",
"$X c #FD066787",
"$Y c #FD48A8C9",
"$Z c #FF5CBCDC",
"$[ c #FF3797B7",
"$\ c #FF3292B2",
"$] c #FC75D6F6",
"$^ c #FF7DDDFD",
"$_ c #FF2585A5",
"$` c #BD0283AE",
"$a c #8600B6F3",
"$b c #E600151C",
"$c c #A7000000",
"$d c #78000000",
"$e c #F1000B0E",
"$f c #8300B4F1",
"$g c #8B00AFEA",
"$h c #DB07769C",
"$i c #FF3D9DBD",
"$j c #FF7EDDFE",
"$k c #FF6FCEEF",
"$l c #FD7DDEFF",
"$m c #FF67C7E7",
"$n c #FC0C6D8D",
"$o c #A40095C7",
"$p c #DD001D27",
"$q c #D1000000",
"$r c #AA000000",
"$s c #DE001B24",
"$t c #99009FD5",
"$u c #E50E799D",
"$v c #FF4EAECE",
"$w c #FF61C1E1",
"$x c #F204698B",
"$y c #9F049ED2",
"$z c #F2000000",
"${ c #15000000",
"$| c #D7000000",
"$} c #9100A8E1",
"%  c #E0006E92",
"%! c #FF3F9FBF",
"%# c #FF75D5F5",
"%$ c #FF6BCBEB",
"%% c #FF5DBDDD",
"%& c #FF6ACAEA",
"%' c #FF6CCCEC",
"%( c #FF2282A2",
"%) c #D905759B",
"%* c #8B08B8F3",
"%+ c #FB000305",
"%, c #51000000",
"%- c #25000000",
"%. c #F6000000",
"%/ c #C1007EA9",
"%0 c #FD096A8A",
"%1 c #FF3696B6",
"%2 c #FF2E8EAE",
"%3 c #FA0C6E8F",
"%4 c #F6056889",
"%5 c #FF1B7B9B",
"%6 c #FF5EBEDE",
"%7 c #FF53B3D3",
"%8 c #FF0C6C8C",
"%9 c #CF00769D",
"%: c #8C00AEE9",
"%; c #E800131A",
"%< c #9B000000",
"%= c #7D000000",
"%> c #A90090C1",
"%? c #C3027FA9",
"%@ c #D100749C",
"%A c #D300739A",
"%B c #AE008CBB",
"%C c #8F00AAE4",
"%D c #D9007096",
"%E c #FF2686A6",
"%F c #FF78D7F8",
"%G c #FF57B7D7",
"%H c #FB0D6E8F",
"%I c #C7007AA4",
"%J c #CF002D3C",
"%K c #C5000000",
"%L c #8200BCFB",
"%M c #8800B3F0",
"%N c #9D009BCF",
"%O c #EF006689",
"%P c #FF49A9C9",
"%Q c #FF55B5D5",
"%R c #F70D7091",
"%S c #BC0082AD",
"%T c #EA000000",
"%U c #BB0082AE",
"%V c #FE0E6F8F",
"%W c #FF62C2E2",
"%X c #FF7EDEFE",
"%Y c #F90D6F90",
"%Z c #B50087B4",
"%[ c #94008AB8",
"%\ c #31000000",
"%] c #980082AE",
"%^ c #D8007197",
"%_ c #FF2383A3",
"%` c #FF40A0C0",
"%a c #FA066888",
"%b c #CB0078A0",
"%c c #B40087B5",
"%d c #C3007DA7",
"%e c #CC027AA2",
"%f c #BB0083AF",
"%g c #8500B0EB",
"%h c #67000000",
"%i c #77000000",
"%j c #A30095C8",
"%k c #F1016688",
"%l c #FF3B9BBB",
"%m c #FF7DDCFD",
"%n c #FF7BDBFB",
"%o c #FF4CACCC",
"%p c #FC2081A2",
"%q c #F61B7EA0",
"%r c #FF2A8AAA",
"%s c #FF2C8CAC",
"%t c #FF147494",
"%u c #DA007095",
"%v c #8A000000",
"%w c #A5000000",
"%x c #DF001B24",
"%y c #F80A6C8D",
"%z c #FF77D6F7",
"%{ c #FF69C8E9",
"%| c #FF74D4F4",
"%} c #F9117495",
"&  c #A80091C2",
"&! c #DF001922",
"&# c #9D000000",
"&$ c #BF000000",
"&% c #CE002E3D",
"&& c #DF006D92",
"&' c #FF7ADAFA",
"&( c #FF79D9F9",
"&) c #FF76D6F6",
"&* c #FF187898",
"&+ c #A70092C3",
"&, c #E4001218",
"&- c #9E000000",
"&. c #C3003A4E",
"&/ c #D50779A0",
"&0 c #FF3999B9",
"&1 c #FF2080A0",
"&2 c #FF69C9E9",
"&3 c #F60B6E8F",
"&4 c #F4000406",
"&5 c #80000000",
"&6 c #E10D7A9E",
"&7 c #FF4BABCB",
"&8 c #FF68C8E8",
"&9 c #FF67C6E7",
"&: c #FF3494B4",
"&; c #C9003040",
"&< c #ED066D90",
"&= c #FE7EDEFF",
"&> c #FF59B9D9",
"&? c #F9157798",
"&@ c #EC056D8F",
"&A c #F11E84A6",
"&B c #FD127293",
"&C c #E6006B8E",
"&D c #B9004961",
"&E c #AB000000",
"&F c #F0000B0E",
"&G c #FE3090B0",
"&H c #F952B4D5",
"&I c #D702749A",
"&J c #A60093C4",
"&K c #B0008AB9",
"&L c #AD008DBC",
"&M c #9000A9E2",
"&N c #BC00455C",
"&O c #5A000000",
"&P c #D4002633",
"&Q c #A20096C9",
"&R c #EA00688B",
"&S c #D6007298",
"&T c #9700A1D8",
"&U c #5C000000",
"&V c #DA00212C",
"&W c #8400B9F7",
"&X c #8600ACE6",
"&Y c #BA00475F",
"&Z c #F500080B",
"&[ c #73000000",
"&\ c #DE001D27",
"&] c #BF004156",
"&^ c #99007FAA",
"&_ c #A2006D92",
"&` c #D4002734",
"&a c #F7000608",
"&b c #EE000000",
"&c c #50000000",
"&d c #3F000000",
"&e c #F5000709",
"&f c #ED000C10",
"&g c #E9000F14",
"&h c #E200151D",
"&i c #E100171F",
"&j c #E1001A23",
"&k c #A1006F94",
"&l c #9A007EA8",
"&m c #8A00A1D8",
"&n c #AE005876",
"&o c #F600070A",
"&p c #29000000",
"&q c #24000000",
"&r c #F300080B",
"&s c #F9000406",
"&t c #F7000507",
"&u c #F8000608",
"&v c #F8000507",
"&w c #2E000000",
"&x c #84000000",
"&y c #DF000000",
"&z c #94000000",
"&{ c #2C000000",
"&| c #0A000000",
"&} c #2B000000",
"'  c #45000000",
"'! c #56000000",
"'# c #68000000",
"'$ c #96000000",
"'% c #DA000000",
"'& c #F0000000",
"'' c #B1000000",
/* pixels */
"                                                                                                                                ",
"                                                                                                                                ",
"                                                                                                                                ",
"                                                                                                                                ",
"                                                                                                                                ",
"                                         # $ % & ' ( ) * + + , - . / 0 1                                                        ",
"                                   2 3 4 5 6 7 8 9 9 9 9 9 9 9 9 9 7 : ; < = >                                                  ",
"                             ? @ A B 7 9 9 9 9 9 8 C D D E F C 9 9 9 9 9 8 G H                                                  ",
"                         I J K : 9 9 9 9 8 L M N O P Q Q R S T U V W D 9 9 9 X Y                                                ",
"                     Z [ ' : 9 9 9 8 \ ] ^ _ ` a a a a a a a a a a b c d 7 9 9 e I                                              ",
"                   ? < : 9 9 9 C f g h i a a a a a a a a a a a a a a a j k 9 9 8 0                                              ",
"                 l m n 9 9 8 o p q a a a a a a a a a a a a a a a a a a a r C 9 9 s >                                            ",
"               I t u 9 9 v w x y a a a a a a a a a a a a a a a a a a a a i z { 9 | }                                            ",
"             >! !! 9 9!#!$ a a a a a a a a a a a a a a a a a a a a a a a a!%!& 9 n!' >                                          ",
"            !(!) 9 9!*!+ a a!,!-!.!/!0!1!2!3 a a a a a a a a a a a a a a a a!4 u 9!5!6                                          ",
"          !7 . 8 9 F!8 a a x!9!:!;!<!=!>!?!@ i a a a a a a a a a a a a a a a!A!B 9!!!C                                          ",
"          !D!E 9 9!F y a i!G!H!I!J!K!L!M!N!O!P a a a a a a a a a a a a a a a a!Q u 8!R 1                                        ",
"         > & 8 9!S!T a a!%!U!V!W!X!Y!Y!Z![!\!] y a a a a a a a a a a a a a a a!^!_ 9!`!a                                        ",
"        !b!c 9 8!d a a a h!e!f!g!Y!J!Y!Y!h!i!j!k a a a a a a a a a a a a a a a!3!l 9 8!m ?                                      ",
"         % 7 9!n!o a a a!p!n!q!Z!J 9!J!Y!W!r!s!t a a a a a a a a a a a a a a a a!u F 9!v!w                                      ",
"       >!x 9 9!. a a a a!y!z!{!|!Y!J!Y!}# #!## i a a a a a a a a a a a a a a a a#$#% 9#&#' ?                                    ",
"      !w B 9 D R a a a a!3#(#)#*#+#,#-#.#/#0!$ a a a a a a a a a a a a a a a a a i!G C 8#1 1                                    ",
"      #2!! 9!n!^ a a a a a#3#4#5#6#7#8#9#:#; i a a a a a a a a a a a a a a a a a a#< M 9#=#> ? ?                                ",
"      #? 8 9#@#A a a a a a a x#B#C M#D#E#F#A a a a a a a a a a a a a a a a a a a a#G#H 8 8#I ?                                  ",
"      #J 8 9!j a a a a a a a a a a a a a a a a a a a a a a!,!-!.!/!0!1!2!3 a a a a a!2#K 9#L#M                                  ",
"      #N 9 8#O a a a a a a a a a a a a a a a a a a a a a x!9!:!;!<!=!>!?!@ i a a a a!k#P 9 u#Q!7 >                              ",
"      #R 9 8#S a a a a a a a a a a a a a a a a a a a a i!G!H!I!J!K!L!M!N!O!P a a a a a#T F 9#U#V   > ? >                        ",
"      #W 9 8#X a a a a a a a a a a a a a a a a a a a a!%!U!V!W!X!Y!Y!Z![!\!] y a a a a!%#Y 8 7#Z#[ ? ?                          ",
"      #W 9 C#\ a a a a a a a a a a a a a a a a a a a a h!e!f!g!Y!J!Y!Y!h!i!j!k a a a a a#]#^ 9#_#` ?                            ",
"      #R 9 C!] a a a a a a a a a a a a a a a a a a a a!p!n!q!Z!J 9!J!Y!W!r!s!t a a a a a!%#a 9 8#b#c                            ",
"      !x 9 8#d a a a a a a a a a a a a a a a a a a a a!y!z!{!|!Y!J!Y!}# #!## i a a a a a y#e#K 9#&#f#g                          ",
"      #h 9 9#i a a a a a a a a a a a a a a a a a a a a!3#(#)#*#+#,#-#.#/#0!$ a a a a a a a#G#j 8 9#k#l                          ",
"      #m 8 9#n a a a a a a a a a a a a a a a a a a a a a#3#4#5#6#7#8#9#:#; i a a a a a a a a!y#C 8 9#o#p                        ",
"      #q 7 9!S#r a a a a a a a a a a a a a a a a a a a a a x#B#C M#D#E#F#A a a a a a a a a a a#s#t 9 8#u#v                      ",
"       $ : 9#K#w a a a a a a a a a a a a a a a a a a a a a a a a a a a a a a a a a a a a a a a a#x#y 9 8#z#{                    ",
"       2!` 9#| _ a a a a a a a a a a a a a a a a a a a a a a a a a a a a a a a a a a a a a a a a y#}!e 9 C$ $!                  ",
"        $# 9$$$% a a a a a a a a a a a a a a a a a a a a a a a a$& a a a a a a a a a a a a a a a a i$'$( 9 7 & l                ",
"         5 9$$ T a a a a a a a a a a a a a a a a a a a a a a$)$*$+$,$-$. a a a a a a a a a a a a a a#G$/#| 9 n t!7              ",
"         5 9 D T a a a a a a a a a a a a a a a a a a a a$0$1$2$3$4$5$6$7$. a a a a a a a a a a a a a a$8$9 D 9$:$;              ",
"         G 9 D$< a a a a a a a a a a a a a a a a a a a a$=$>$?$@$A$B$C$D$E a a a a a a a a a a a a a a a!,$F 8 8$G$H            ",
"       #$I 9 F S a a a a a a a a a a a a a a a a a a$.$J$K$L$M$N$O$O$P$?$Q$R a a a a a a a a a a a a a a a$S$T 9 8$U            ",
"       J n 9$V#< a a a a a a a a a a a a a a a a a a$W$X$Y$Z$[$\$]$O$^$_$`$a a a a a a a a a a a a a a a a y$b 9 9$c            ",
"      $d 7 9$e$f a a a a a a a a a a a a a a a a a$g$h$i$O$O$j$k$l$O$m$n$o$& a a a a a a a a a a a a a a a a$p 9 9$q >          ",
"      $r 8 9$s a a a a a a a a a a a a a a a a a a$t$u$v$O$O$O$O$O$O$w$x$y a a a a a a a a a a a a a a a a a$' C 9$z${          ",
"     I$| 9 8 g a a a a a a a a a a a a a a a a a a$}% %!$^$O%#%$%%%&%'%(%)%* a a a a a a a a a a a a a a a a#<%+ 9 u%,          ",
"    %-%. 9 E!8 a a a a a a a a a a a a a a a a a a a%/%0$?%1%2%3%4%5%6%7%8%9%: a a a a a a a a a a a a a a a i%; 9 9%<          ",
"    %= 8 9!S!y a a a a a a a a a a a a a a a a a a a$&%>%?%@%A%B%C%D%E%F%G%H%I$g a a a a a a a a a a a a a a a%J 9 9 -          ",
"    %K 9 9!s y a a a a a a a a a a a a a a a a a a a a%L%M$a a a a%N%O%P$O%Q%R%S$0 a a a a a a a a a a a a a a$< D 9$: l        ",
"   #%T 9 C$/ a a a a a a a a a a a a a a a a a a a a a a a a a a a%L%U%V%W%X%P%Y%Z a a$&$g$R a a a a a a a a a%[%+ 9 6%\        ",
"   $ : 9#^%] a a a a a a a a a a a a a a a a a a a a a a a a a a a a%:%^%_$P$j%`%a%b%c%d%e%f$) a a a a a a a a%g M 9 u%h        ",
"  %i 7 9$e$f a a a a a a a a a a a a a a a a a a a a a a a a a a a a a%j%k%l%m%n%o%p%q%r%s%t%u$} a a a a a a a a#Y 9 8%v        ",
"  %w 8 9%x a a a a a a a a a a a a a a a a a a a a a a a a a a a a a a a%Z%y%%$O$O%z%{%|$O$Z%}&  a a a a a a a a&! 9 9&#        ",
"  &$ 9 9&% a a a a a a a a a a a a a a a a a a a a a a a a a a a a a a a$a&&$i%X&'&($O$O$O&)&*&+$& a a a a a a a&, 9 9&-        ",
"  #R 9 8&. a a a a a a a a a a a a a a a a a a a a a a a a a a a a a a a%:&/&0$O%7&1&2$O$O%{&3$+ a a a a a a a%g&4 9 7&5        ",
"  #R 9 8#X a a a a a a a a a a a a a a a a a a a a a a a a a a a a a a a$*&6&7$O%W%5%2&8&9&:&&%M a a a a a a i&; 8 9 6 @        ",
"  !x 9 8&% a a a a a a a a a a a a a a a a a a a a a a a a a a a a a a a$+&<%7&=&>&?&@&A&B&C&+ a a a a a a y&D E 9 9 K Z        ",
"  &E 9 9&F ` a a a a a a a a a a a a a a a a a a a a a a a a a a a a a a$a%^&G&H&*&I&J&K&L&M%L a a a a a#A&N F 9 9$:!a          ",
"  &O u 9 8&P%g a a a a a a a a a a a a a a a a a a a a a a a a a a a a a$&&Q%9&R&S&T a a a a a a a a a!t U D 9 9 6&U >          ",
"   2$G 9 9 8&V!y a a a a a a a a a a a a a a a a a a a a a a a a a a a a a a a a&W$& a a a a a a a&X&Y&Z 8 9 9 6&[ ?            ",
"    %-!c 9 9 9!*&\&]&^$8 a a a a a a a a a a a a a a a a a a a a a a a a a a a a a a a a a a `&_&`&a C 9 9 9&b&c >              ",
"      &d + 9 9 9 9 8 L$V!*&e&f&g&h&i%x%x&j$p$9&k&^!$ S#} S&l h&m!3!%!3 a a a a a y!A%[&n U#C&o E 8 9 9 9 u!x&p                  ",
"        &q#N%. 8 9 9 9 9 9 9 9 9 9 9 9 9 9 9 9 9 9 9 9 9 9 9 8 F&r&e&s&t&t&a&u&u&v#K$( C 8 9 9 9 9 8 : -&O !                    ",
"           I&w&x!R!)%. : n u u 7 7 8 8 9 9 9 9 9 9 9 9 9 9 9 9 9 9 9 9 9 9 9 9 9 9 9 9 9 9 9 7 6&y&z&{ >                        ",
"                  &|&}' '!%h'#&[&x'$$c'% 6 u u n n!!!! :!! 7 8 9 8!! : : : : : : : :%.'&!v''%i!D !                              "
};