/* XPM */
static char *result[] = {
/* columns rows colors chars-per-pixel */
"64 64 97 2 ",
"   c #000000",
".  c #000609",
"X  c #00090C",
"o  c #010E12",
"O  c #021115",
"+  c #0D1112",
"@  c #00141B",
"#  c #0E1618",
"$  c #141616",
"%  c #141718",
"&  c #001B24",
"*  c #001E28",
"=  c #00212C",
"-  c #1F2121",
";  c #002734",
":  c #002D3C",
">  c #222323",
",  c #2B2C2C",
"<  c #3F3F3F",
"1  c #003344",
"2  c #00374A",
"3  c #00394D",
"4  c #003D51",
"5  c #004157",
"6  c #00445B",
"7  c #004B65",
"8  c #004F69",
"9  c #00526D",
"0  c #005471",
"q  c #005876",
"w  c #005C7B",
"e  c #4B4B4B",
"r  c #535353",
"t  c gray35",
"y  c gray39",
"u  c gray42",
"i  c #797979",
"p  c #006485",
"a  c #006789",
"s  c #01698C",
"d  c #0E6E8E",
"f  c #016E92",
"g  c #017096",
"h  c #0A7396",
"j  c #02759B",
"k  c #0B769A",
"l  c #147495",
"z  c #117699",
"x  c #167A9C",
"c  c #1B7B9C",
"v  c #0077A0",
"b  c #017BA3",
"n  c #0C7DA3",
"m  c #007EA9",
"M  c #1C7FA1",
"N  c #0082AD",
"B  c #0086B4",
"V  c #0088B6",
"C  c #008CBB",
"Z  c #2484A4",
"A  c #2B8CAC",
"S  c #2E91B2",
"D  c #3393B4",
"F  c #3C9CBC",
"G  c #008FC0",
"H  c #0093C5",
"J  c #0096C9",
"K  c #0099CD",
"L  c #009ED3",
"P  c #01A0D6",
"I  c #00A4DC",
"U  c #00AAE3",
"Y  c #00AEE9",
"T  c #00B1EC",
"R  c #00B6F4",
"E  c #00B9F7",
"W  c #00BFFF",
"Q  c #42A2C2",
"!  c #4DADCD",
"~  c #54B4D4",
"^  c #57B8D8",
"/  c #5BBCDC",
"(  c #66C5E6",
")  c #6CCBEC",
"_  c #74D4F4",
"`  c #7DDDFD",
"'  c #939393",
"]  c #9A9A9A",
"[  c gray64",
"{  c #BDBDBD",
"}  c gray80",
"|  c #D9D9D9",
" . c #E4E4E4",
".. c #EAEAEA",
"X. c #F3F3F3",
"o. c #FDFDFD",
"O. c None",
/* pixels */
"O.O.O.O.O.O.O.O.O.O.O.O.O.O.O.O.O.O.O.O.O.O.O.O.O.O.O.O.O.O.O.O.O.O.O.O.O.O.O.O.O.O.O.O.O.O.O.O.O.O.O.O.O.O.O.O.O.O.O.O.O.O.O.O.",
"O.O.O.O.O.O.O.O.O.O.O.O.O.O.O.O.O.O.O.O.O.O.O.O.O.O.O.O.O.O.O.O.O.O.O.O.O.O.O.O.O.O.O.O.O.O.O.O.O.O.O.O.O.O.O.O.O.O.O.O.O.O.O.O.",
"O.O.O.O.O.O.O.O.O.O.O.O.O.O.O.O.O.O.O.O.O.O.O.O.O.O.O.O.O.O.O.O.O.O.O.O.O.O.O.O.O.O.O.O.O.O.O.O.O.O.O.O.O.O.O.O.O.O.O.O.O.O.O.O.",
"O.O.O.O.O.O.O.O.O.O.O.O.O.O.O.O.O.O.O.O.O.O.O.O.O.O.O.O.O.O.O.O.O.O.O.O.O.O.O.O.O.O.O.O.O.O.O.O.O.O.O.O.O.O.O.O.O.O.O.O.O.O.O.O.",
"O.O.O.O.O.O.O.O.O.O.O.O.O.O.O.O.O.O.O.O.O.O.O.O.O.O.O.O.O.O.O.O.O.O.O.O.O.O.O.O.O.O.O.O.O.O.O.O.O.O.O.O.O.O.O.O.O.O.O.O.O.O.O.O.",
"O.O.O.O.O.O.O.O.O.O.O.O.O.O.O.O.O.O.O.O.O.O.O.                    O.O.O.O.O.O.O.O.O.O.O.O.O.O.O.O.O.O.O.O.O.O.O.O.O.O.O.O.O.O.O.",
"O.O.O.O.O.O.O.O.O.O.O.O.O.O.O.O.O.O.O.                                    O.O.O.O.O.O.O.O.O.O.O.O.O.O.O.O.O.O.O.O.O.O.O.O.O.O.O.",
"O.O.O.O.O.O.O.O.O.O.O.O.O.O.O.O.                                              O.O.O.O.O.O.O.O.O.O.O.O.O.O.O.O.O.O.O.O.O.O.O.O.O.",
"O.O.O.O.O.O.O.O.O.O.O.O.O.O.                X & : 5 3 8 w s 9 : & .               O.O.O.O.O.O.O.O.O.O.O.O.O.O.O.O.O.O.O.O.O.O.O.",
"O.O.O.O.O.O.O.O.O.O.O.O.              @ 1 s Y W W W W W W W W W W Y m q =             O.O.O.O.O.O.O.O.O.O.O.O.O.O.O.O.O.O.O.O.O.",
"O.O.O.O.O.O.O.O.O.O.            X 2 V W W W W W W W W W W W W W W W W W W I ;           O.O.O.O.O.O.O.O.O.O.O.O.O.O.O.O.O.O.O.O.",
"O.O.O.O.O.O.O.O.O.          X 6 I W W W W W W W W W W W W W W W W W W W W W W w O           O.O.O.O.O.O.O.O.O.O.O.O.O.O.O.O.O.O.",
"O.O.O.O.O.O.O.O.          1 L W W W W W W W W W W W W W W W W W W W W W W W W W C a O         O.O.O.O.O.O.O.O.O.O.O.O.O.O.O.O.O.",
"O.O.O.O.O.O.O.O.      . b W W W W W W W W W W W W W W W W W W W W W W W W W W W W T I 1         O.O.O.O.O.O.O.O.O.O.O.O.O.O.O.O.",
"O.O.O.O.O.O.O.      . b W W W W W W W W W W W W W W W W W W W W W W W W W W O.W W W W R 0 .       O.O.O.O.O.O.O.O.O.O.O.O.O.O.O.",
"O.O.O.O.O.O.        p W W W W W W W W W W W W W W W W W W W W W W W W W W W R O.W W W W E w .       O.O.O.O.O.O.O.O.O.O.O.O.O.O.",
"O.O.O.O.O.O.      = W W W W W W W W W W W W W W W W W W W W W W W W W W W W W W E W W W W W q       O.O.O.O.O.O.O.O.O.O.O.O.O.O.",
"O.O.O.O.O.      X L W W W W W W W W W W W W W W W W W W W W W W W W W W W W W W W W W T W W R :       O.O.O.O.O.O.O.O.O.O.O.O.O.",
"O.O.O.O.O.      2 W W W W W W W R I Y W W W W W W W W W W W W W W W W W W W W W W W W W T W W J o     O.O.O.O.O.O.O.O.O.O.O.O.O.",
"O.O.O.O.O.    . J W W W W W Y w ; @ & 2 N W W W W W W W W W W W W W W W W W W W W W W W O.R W W 9       O.O.O.O.O.O.O.O.O.O.O.O.",
"O.O.O.O.      * W W W W W U 3 + e u y , O a W W W W W W W W W W W W W W W W W W W W W W W W R O.L o     O.O.O.O.O.O.O.O.O.O.O.O.",
"O.O.O.O.      q W W W W W 6 $ i | .. .{ e O B W W W W W W W W W W W W W W W W W W W W W W W W W W 4       O.O.O.O.O.O.O.O.O.O.O.",
"O.O.O.O.    . J W W W W U @ r  .o.o.o.o.{ > 5 W W W W W W W W W W W W W W W W W W W E W W W W R R C X     O.O.O.O.O.O.O.O.O.O.O.",
"O.O.O.      o E W W W W V . ] o.o.| o.o. .r = Y W W W W W W I 9 = @ @ : j R W W W W W R O.W W W W R =     O.O.O.O.O.O.O.O.O.O.O.",
"O.O.O.      = W W W W W N . [ o.|   | o. .t = Y W W W W W P : + < u y , o w W W W W W W R O.W W W Y w       O.O.O.O.O.O.O.O.O.O.",
"O.O.O.      : W W W W W P o u X.o.| o.o.} , 1 E W W W W W 5 $ i | ....{ e o m W W W W W W R O.W W E g .     O.O.O.O.O.O.O.O.O.O.",
"O.O.O.      1 W W W W W R 1 - ] X.X.X.| u + g W W W W W I @ t  .o.o.o.o.{ > 3 W W W W W W W W W W W 9 X     O.O.O.O.O.O.O.O.O.O.",
"O.O.O.      3 W W W W W W H & - u [ ] e + 6 R W W W W W B . ] o.o.| o.o. .r = T W W W W W W W W W W f X     O.O.O.O.O.O.O.O.O.O.",
"O.O.O.      4 W W W W W W W J 2 o . X & q R W W W W W W B . [ o.|   | o. .t & Y W W W W W W W W R W b .     O.O.O.O.O.O.O.O.O.O.",
"O.O.O.      4 W W W W W W W W W I V H T W W W W W W W W I o u X.o.| o.o.} , 1 W W W W W W W W W R W B .     O.O.O.O.O.O.O.O.O.O.",
"O.O.O.      2 W W W W W W W W W W W W W W W W W W W W W R 3 - ] X.o.X.| u + j W W W W W W W W W W W L O     O.O.O.O.O.O.O.O.O.O.",
"O.O.O.      : W W W W W W W W W W W W W W W W W W W W W W K = - u ] ' e # 8 W W W W W W W W W W W W Y @       O.O.O.O.O.O.O.O.O.",
"O.O.O.      @ W W W W W W W W W W W W W W W W W W W W W W W P 6 @ X o = a E W W W W W W W W W W W W R @       O.O.O.O.O.O.O.O.O.",
"O.O.O.O.    X R W W W W W W W W W W W W W W W W W W W W W W W W W W W W W W W W W W W W W W W W W W W :       O.O.O.O.O.O.O.O.O.",
"O.O.O.O.    . H W W W W W W W W W W W W W W W W W W W W W W W W W W W W W W W W W W W W W W W W W W W b       O.O.O.O.O.O.O.O.O.",
"O.O.O.O.      s W W W W W W W W W W W W W W W W W W W W W W W W W W W W W W W W W W W W W W W W W W W T .       O.O.O.O.O.O.O.O.",
"O.O.O.O.      q W W W W W W W W W W W W W W W W W W W W W W W W W W W W W W W W W W W W W W W W W W W W :       O.O.O.O.O.O.O.O.",
"O.O.O.O.      9 W W W W W W W W W W W W W W W W W W W W R T R W W W W W W W W W W W W W W W W W W W W W N       O.O.O.O.O.O.O.O.",
"O.O.O.O.    . 0 W W W W W W W W W W W W W W W W W W R P V j j K E W W W W W W W W W W W W W W W W W W W R O       O.O.O.O.O.O.O.",
"O.O.O.O.      q W W W W W W W W W W W W W W W W W W K k Z D Z k K W W W W W W W W W W U J C L W W W W W W :       O.O.O.O.O.O.O.",
"O.O.O.O.      a W W W W W W W W W W W W W W W W W K h D ) ` ( S b R W W W W W W W W I b h l s J R W W W W s       O.O.O.O.O.O.O.",
"O.O.O.O.      H W W W W W W W W W W W W W W W W R j A _ ` ` ` ! a V I I T Y R W W T b Z ~ ( D n L W W W W U X       O.O.O.O.O.O.",
"O.O.O.O.    X R W W W W W W W W W W W W W W W W I f A ~ / ` ` _ S l h s g j j b N b k ! ` ` ) A N W W W W W *       O.O.O.O.O.O.",
"O.O.O.      & W W W W W W W W W W W W W W W W W I g l A Q _ ` ` _ / ~ ^ Q D D A Z A ! _ ` ` ` F g W W W W W 8       O.O.O.O.O.O.",
"O.O.O.      1 W W W W W W W W W W W W W W W W W P h Q _ ` ` ` / Q Q ! ) ` ` ` _ _ ) ` ` ` ` ( c m R W W W W H .     O.O.O.O.O.O.",
"O.O.O.      a W W W W W W W W W W W W W W W W W J l ( ` ` ` ~ d g s d l D ~ ^ ) ` ` _ D S Q D k K W W W W W E O       O.O.O.O.O.",
"O.O.O.    . I W W W W W W W W W W W W W W W W W C l / ` ` ) A j T Y J B j g z c D ) ` ~ Z a j K R W W W W W W :       O.O.O.O.O.",
"O.O.      = W W W W W W W W W W W W W W W W W W L N D ( _ Q k J W W W W R U H N h D _ ` ! z H W W W W W W W W 9       O.O.O.O.O.",
"O.O.      6 W W W W W W W W W W W W W W W W W W W H k l l s C R W W W W W W W W V x ! ` ^ s L W W W W W W W W C       O.O.O.O.O.",
"O.O.    . N W W W W W W W W W W W W W W W W W W W E P V C P E W W W W W W W W W U b Z F c f I W W W W W W W W T X     O.O.O.O.O.",
"O.O.    X R W W W W W W W W W W W W W W W W W W W W W E W W W W W W W W W W W W W P m h b P W W W W W W W W W W @       O.O.O.O.",
"O.      & W W W W W W W W W W W W W W W W W W W W W W W W W W W W W W W W W W W W W W I U R W W W W W W W W W W &       O.O.O.O.",
"O.      : W W W W W W W W W W W W W W W W W W W W W W W W W W W W W W W W W W W W W W W W W W W W W W W W W W W @       O.O.O.O.",
"O.      3 W W W W W W W W W W W W W W W W W W W W W W W W W W W W W W W W W W W W W W W W W W W W W W W W W W T .       O.O.O.O.",
"O.      4 W W W W W W W W W W W W W W W W W W W W W W W W W W W W W W W W W W W W W W W W W W W W W W W W W W 1       O.O.O.O.O.",
"O.      : W W W W W W W W W W W W W W W W W W W W W W W W W W W W W W W W W W W W W W W W W W W W W W W W W 6         O.O.O.O.O.",
"O.      X U W W W W W W W W W W W W W W W W W W W W W W W W W W W W W W W W W W W W W W W W W W W W W W E 6         O.O.O.O.O.O.",
"O.O.      ; T W W W W W W W W W W W W W W W W W W W W W W W W W W W W W W W W W W W W W W W W W W W W Y :         O.O.O.O.O.O.O.",
"O.O.        = P W W W W W W W W W W W W W W W W W W W W W W W W W W W W W W W W W W W W W W W W W Y 7 .         O.O.O.O.O.O.O.O.",
"O.O.O.        . = 5 N T W W W W W W W W W W W W W W W W W W W W W W W W W W W W W W W W W W Y f ; .           O.O.O.O.O.O.O.O.O.",
"O.O.O.O.              . . X X O @ @ & & & * : f N j s p a N B P R I R W W W W W E I C q : @ .               O.O.O.O.O.O.O.O.O.O.",
"O.O.O.O.O.                                                      X X . . . . . . . .                     O.O.O.O.O.O.O.O.O.O.O.O.",
"O.O.O.O.O.O.O.                                                                                      O.O.O.O.O.O.O.O.O.O.O.O.O.O.",
"O.O.O.O.O.O.O.O.O.O.O.O.O.O.O.O.                                                            O.O.O.O.O.O.O.O.O.O.O.O.O.O.O.O.O.O."
};
