/* XPM */
static char *result[] = {
/* columns rows colors chars-per-pixel */
"64 64 584 2 ",
"   c #00000000",
" ! c #06000000",
" # c #03000000",
" $ c #05000000",
" % c #0E000000",
" & c #01000000",
" ' c #0C000000",
" ( c #3B000000",
" ) c #72000000",
" * c #A0000000",
" + c #C0000000",
" , c #CF000000",
" - c #DC000000",
" . c #E7000000",
" / c #EF000000",
" 0 c #E9000000",
" 1 c #D4000000",
" 2 c #B2000000",
" 3 c #A1000000",
" 4 c #7D000000",
" 5 c #44000000",
" 6 c #0D000000",
" 7 c #60000000",
" 8 c #AC000000",
" 9 c #DD000000",
" : c #F8000000",
" ; c #FD000000",
" < c #FE000000",
" = c #FF000000",
" > c #E6000000",
" ? c #6D000000",
" @ c #25000000",
" A c #0A000000",
" B c #02000000",
" C c #37000000",
" D c #A6000000",
" E c #EC000000",
" F c #FE000001",
" G c #FD000001",
" H c #FD000102",
" I c #FC000102",
" J c #FA000000",
" K c #F4000000",
" L c #D9000000",
" M c #6B000000",
" N c #04000000",
" O c #41000000",
" P c #CA000000",
" Q c #F9000000",
" R c #FC000203",
" S c #F2000A0D",
" T c #DF001A23",
" U c #D0002C3A",
" V c #BD004259",
" W c #B400506B",
" X c #AD005A78",
" Y c #A500688B",
" Z c #B300516C",
" [ c #CF002B39",
" \ c #E6001319",
" ] c #F000070A",
" ^ c #E200090C",
" _ c #EE000203",
" ` c #FC000000",
" a c #E5000000",
" b c #68000000",
" c c #0B000000",
" d c #49000000",
" e c #F9000304",
" f c #EA001015",
" g c #CC003041",
" h c #A400698D",
" i c #8700ABE4",
" j c #8000BFFF",
" k c #8000BDFD",
" l c #8100B9F7",
" m c #92008FC0",
" n c #B7004961",
" o c #E8000E13",
" p c #CD000000",
" q c #26000000",
" r c #87000000",
" s c #F200080B",
" t c #C8003446",
" u c #950087B5",
" v c #8100BCFB",
" w c #8800A7DF",
" x c #AF005876",
" y c #EB000D12",
" z c #23000000",
" { c #09000000",
" | c #8C000000",
" } c #FB000000",
"!  c #EF00090C",
"!! c #BA00465E",
"!# c #8400B1ED",
"!$ c #B700465E",
"!% c #F3000203",
"!& c #B6000000",
"!' c #82000000",
"!( c #F8000203",
"!) c #C7003243",
"!* c #8B00A0D6",
"!+ c #A6006284",
"!, c #F2000304",
"!- c #61000000",
"!. c #5F000000",
"!/ c #F4000608",
"!0 c #9D0078A0",
"!1 c #8100BAF9",
"!2 c #BD004157",
"!3 c #D6000000",
"!4 c #15000000",
"!5 c #1E000000",
"!6 c #F8000406",
"!7 c #9B007CA6",
"!8 c #8C009CD1",
"!9 c #EB001015",
"!: c #6A000000",
"!; c #A2000000",
"!< c #A7006486",
"!= c #7F00BFFF",
"!> c #B4004F6A",
"!? c #13000000",
"!@ c #30000000",
"!A c #F5000000",
"!B c #D900222D",
"!C c #8700A9E2",
"!D c #DD001E28",
"!E c #EC001015",
"!F c #E9001219",
"!G c #CD002F3F",
"!H c #9F00749B",
"!I c #8200B9F7",
"!J c #7C00BDFC",
"!K c #7D00BFFF",
"!L c #EC000E13",
"!M c #59000000",
"!N c #08000000",
"!O c #F400080B",
"!P c #8C009ED3",
"!Q c #CC003040",
"!R c #FC0D1010",
"!S c #FF3F3F3F",
"!T c #FF6F6F6F",
"!U c #FF636363",
"!V c #FF282828",
"!W c #F0031014",
"!X c #AD005B7A",
"!Y c #8200B7F5",
"!Z c #7000BDFC",
"![ c #8000BCFB",
"!\ c #BE004258",
"!] c #FC000001",
"!^ c #C8000000",
"!_ c #0F000000",
"!` c #19000000",
"!a c #EB000000",
"!b c #C6003649",
"!c c #FD141616",
"!d c #FF787878",
"!e c #FFD9D9D9",
"!f c #FFEAEAEA",
"!g c #FFE6E6E6",
"!h c #FFBFBFBF",
"!i c #FF4C4C4C",
"!j c #F0030F13",
"!k c #980081AC",
"!l c #F0000B0E",
"!m c #69000000",
"!n c #07000000",
"!o c #FA000406",
"!p c #8F0095C7",
"!q c #8800A8E1",
"!r c #E9001218",
"!s c #FF585858",
"!t c #FFE4E4E4",
"!u c #FFFEFEFE",
"!v c #FFFFFFFF",
"!w c #FFFBFBFB",
"!x c #FFBABABA",
"!y c #FE222323",
"!z c #C2003D51",
"!{ c #BC004359",
"!| c #E4000000",
"!} c #2D000000",
"#  c #C1000000",
"#! c #F9000507",
"## c #FF9B9B9B",
"#$ c #FFFAFAFA",
"#% c #FFE2E2E2",
"#& c #FF535353",
"#' c #DB00202B",
"#( c #8500AFE9",
"#) c #8A00A3DA",
"#* c #E5001218",
"#+ c #1A000000",
"#, c #12000000",
"#- c #960085B2",
"#. c #FFA5A5A5",
"#/ c #FF5A5A5A",
"#0 c #DC001F29",
"#1 c #8600ADE8",
"#2 c #A0007299",
"#3 c #F4000507",
"#4 c #B5000000",
"#5 c #4A000000",
"#6 c #8F0096C9",
"#7 c #EE000E13",
"#8 c #FF6A6A6A",
"#9 c #FFF1F1F1",
"#: c #FFFDFDFD",
"#; c #FFCCCCCC",
"#< c #FF2E2F2F",
"#= c #C7003547",
"#> c #FA000304",
"#? c #A9000000",
"#@ c #11000000",
"#A c #8D000000",
"#B c #EC000F14",
"#C c #C4003A4E",
"#D c #FD1F2121",
"#E c #FF999999",
"#F c #FFF0F0F0",
"#G c #FFF9F9F9",
"#H c #FFF7F7F7",
"#I c #FFDBDBDB",
"#J c #FF6B6B6B",
"#K c #F5071013",
"#L c #8300B6F3",
"#M c #C1003E53",
"#N c #FB000203",
"#O c #A8000000",
"#P c #14000000",
"#Q c #B0000000",
"#R c #8D009ACE",
"#S c #D801242F",
"#T c #FE1F2121",
"#U c #FF686868",
"#V c #FFA1A1A1",
"#W c #FF939393",
"#X c #FF4A4A4A",
"#Y c #F50E1618",
"#Z c #B5004E68",
"#[ c #8400B3EF",
"#\ c #C3003B4F",
"#] c #BB000000",
"#^ c #D0002B39",
"#_ c #BC00445A",
"#` c #E400161E",
"#a c #F0000C11",
"#b c #D900212C",
"#c c #A600678A",
"#d c #C3003A4E",
"#e c #C2000000",
"#f c #CA003242",
"#g c #C0003F55",
"#h c #FB000304",
"#i c #83000000",
"#j c #C3000000",
"#k c #C2003C50",
"#l c #B6004D67",
"#m c #F0000000",
"#n c #C1003D51",
"#o c #7B00BFFF",
"#p c #B1004D67",
"#q c #B8000000",
"#r c #10000000",
"#s c #7D00AFEA",
"#t c #DA001218",
"#u c #76000000",
"#v c #C500384B",
"#w c #7E00BFFF",
"#x c #AC005775",
"#y c #D1002A39",
"#z c #7600BFFF",
"#{ c #FA000203",
"#| c #62000000",
"#} c #93000000",
"$  c #E1001922",
"$! c #E9000E13",
"$# c #70000000",
"$$ c #7C00BFFF",
"$% c #CD002C3B",
"$& c #D3000000",
"$' c #FA000305",
"$( c #900093C4",
"$) c #AA005E7E",
"$* c #FD000203",
"$+ c #990080AB",
"$, c #F3000304",
"$- c #E8000000",
"$. c #FE000102",
"$/ c #B1005470",
"$0 c #910090C1",
"$1 c #ED000709",
"$2 c #17000000",
"$3 c #8E0099CC",
"$4 c #E6000B0F",
"$5 c #DB000000",
"$6 c #1B000000",
"$7 c #8300BAF9",
"$8 c #8F00AAE4",
"$9 c #9000A9E2",
"$: c #8600B6F3",
"$; c #E2000F14",
"$< c #DE000000",
"$= c #1C000000",
"$> c #B200536F",
"$? c #8100BDFD",
"$@ c #A10098CA",
"$A c #C50480AA",
"$B c #DF026F94",
"$C c #E900688C",
"$D c #BD0081AC",
"$E c #8900A5DD",
"$F c #DF001116",
"$G c #24000000",
"$H c #F3000000",
"$I c #9400A5DC",
"$J c #D300739A",
"$K c #FB076889",
"$L c #FF2F8FAF",
"$M c #FF49A9C9",
"$N c #FF40A0C0",
"$O c #FF0D6D8D",
"$P c #B1008AB8",
"$Q c #DC00141B",
"$R c #27000000",
"$S c #C8017BA4",
"$T c #FB2485A6",
"$U c #FF5EBEDE",
"$V c #FF7DDCFD",
"$W c #FF7FDEFF",
"$X c #FF7DDDFD",
"$Y c #FF41A1C1",
"$Z c #D703759B",
"$[ c #8E00ACE5",
"$\ c #D9001319",
"$] c #78000000",
"$^ c #F1000B0E",
"$_ c #8300B4F1",
"$` c #9500A4DB",
"$a c #E5026D91",
"$b c #FF2A8AAA",
"$c c #FF6FCEEF",
"$d c #FF77D7F7",
"$e c #FE7EDEFF",
"$f c #FF7EDEFE",
"$g c #FF58B8D8",
"$h c #EC026A8D",
"$i c #9302A8E0",
"$j c #8600ABE4",
"$k c #D4000F14",
"$l c #AA000000",
"$m c #DE001B24",
"$n c #9602A5DB",
"$o c #F0056B8D",
"$p c #FF1A7A9A",
"$q c #FF1C7C9C",
"$r c #FF3D9DBD",
"$s c #FC7DDEFF",
"$t c #FF67C6E7",
"$u c #FD0E6F8F",
"$v c #D403769D",
"$w c #A209A0D3",
"$x c #8801B5F1",
"$y c #8D00ADE7",
"$z c #9800A0D6",
"${ c #8C00AEE9",
"$| c #D8001117",
"$} c #D7000000",
"%  c #CF00769D",
"%! c #FD1D7D9E",
"%# c #FF5DBDDD",
"%$ c #FF6FCFEF",
"%% c #FE7EDEFE",
"%& c #FF4EAECE",
"%' c #FF2686A6",
"%( c #F7046788",
"%) c #E0006D91",
"%* c #BB0082AE",
"%+ c #A20096C9",
"%, c #8500B7F5",
"%- c #CB027BA3",
"%. c #E2087499",
"%/ c #E700698D",
"%0 c #B70085B2",
"%1 c #E200151C",
"%2 c #F6000000",
"%3 c #ED01688B",
"%4 c #FF4DADCD",
"%5 c #FF69C8E9",
"%6 c #FF5CBCDC",
"%7 c #FF66C5E6",
"%8 c #FF6AC9EA",
"%9 c #FF62C2E2",
"%: c #FF3999B9",
"%; c #FF197999",
"%< c #F1066B8D",
"%= c #E2006C90",
"%> c #B50087B4",
"%? c #A00098CC",
"%@ c #AD008DBC",
"%A c #E800698C",
"%B c #FF2181A1",
"%C c #FF4BABCB",
"%D c #FF3A9ABA",
"%E c #FA086A8A",
"%F c #A10097CA",
"%G c #8200BCFB",
"%H c #8D009BCF",
"%I c #EA001116",
"%J c #E1000000",
"%K c #20000000",
"%L c #9D009BCF",
"%M c #E7127CA0",
"%N c #FF53B3D3",
"%O c #FF7EDDFE",
"%P c #FF60C0E0",
"%Q c #FF1E7E9E",
"%R c #F405698B",
"%S c #FB086A8A",
"%T c #FF3393B3",
"%U c #FF6ACAEA",
"%V c #FF74D4F4",
"%W c #FF3898B8",
"%X c #FF117191",
"%Y c #F3117698",
"%Z c #EF12789B",
"%[ c #FE3090B1",
"%\ c #FF6CCCEC",
"%] c #FF77D6F7",
"%^ c #FF3494B4",
"%_ c #8900B2EE",
"%` c #ED000E13",
"%a c #C5000000",
"%b c #8A00B1EC",
"%c c #D905759B",
"%d c #FF3292B2",
"%e c #FF7AD9FA",
"%f c #FF64C4E4",
"%g c #FD2384A4",
"%h c #D200749B",
"%i c #B60086B3",
"%j c #E3006B8F",
"%k c #FE137393",
"%l c #FF42A2C2",
"%m c #FF72D1F2",
"%n c #FF5BBBDB",
"%o c #FF5FBFDF",
"%p c #FF78D8F8",
"%q c #FF51B1D1",
"%r c #E1006D91",
"%s c #8800B3F0",
"%t c #94008BBA",
"%u c #EF000B10",
"%v c #EA000000",
"%w c #BD00435A",
"%x c #F204698B",
"%y c #FF2E8EAE",
"%z c #FF2585A5",
"%{ c #FF086888",
"%| c #DA007095",
"%} c #9B009DD2",
"&  c #9100A8E1",
"&! c #E6006A8D",
"&# c #FF177797",
"&$ c #FF7ADAFA",
"&% c #FF46A6C6",
"&& c #E7006A8D",
"&' c #9A007EA8",
"&( c #48000000",
"&) c #FC000304",
"&* c #980082AE",
"&+ c #AC008EBD",
"&, c #CC0077A0",
"&- c #C3007EA8",
"&. c #A70092C3",
"&/ c #C4007CA6",
"&0 c #E900698C",
"&1 c #FF137393",
"&2 c #FF52B2D2",
"&3 c #FF6CCBEC",
"&4 c #FF107090",
"&5 c #C5007CA5",
"&6 c #F500070A",
"&7 c #77000000",
"&8 c #9600A2D9",
"&9 c #F82083A4",
"&: c #FF43A3C3",
"&; c #F60E7293",
"&< c #E3127EA2",
"&= c #C7027CA6",
"&> c #E500151C",
"&? c #8A000000",
"&@ c #A5000000",
"&A c #DF001B24",
"&B c #9F0099CD",
"&C c #E4107B9F",
"&D c #FA2586A7",
"&E c #99009FD5",
"&F c #DF001922",
"&G c #9D000000",
"&H c #BF000000",
"&I c #CE002E3D",
"&J c #8B00AFEA",
"&K c #CF057BA3",
"&L c #FF2C8CAC",
"&M c #FA66C8E9",
"&N c #FE096A8A",
"&O c #AF008BBA",
"&P c #E4001218",
"&Q c #9E000000",
"&R c #AB008EBE",
"&S c #F6026687",
"&T c #FE3191B1",
"&U c #FC1D7E9E",
"&V c #E2016D91",
"&W c #9300A6DE",
"&X c #8500B0EB",
"&Y c #F4000406",
"&Z c #80000000",
"&[ c #CA0079A1",
"&\ c #B0008AB9",
"&] c #C9003040",
"&^ c #B9004961",
"&_ c #AB000000",
"&` c #BC00455C",
"&a c #F1000000",
"&b c #35000000",
"&c c #5A000000",
"&d c #D4002633",
"&e c #CF002C3B",
"&f c #5C000000",
"&g c #DA00212C",
"&h c #8600ACE6",
"&i c #BA00475F",
"&j c #F500080B",
"&k c #73000000",
"&l c #DE001D27",
"&m c #BF004156",
"&n c #99007FAA",
"&o c #A2006D92",
"&p c #D4002734",
"&q c #F7000608",
"&r c #EE000000",
"&s c #50000000",
"&t c #3F000000",
"&u c #F5000709",
"&v c #ED000C10",
"&w c #E9000F14",
"&x c #E200151D",
"&y c #E100171F",
"&z c #E1001A23",
"&{ c #DD001D27",
"&| c #CD002E3E",
"&} c #A1006F94",
"'  c #AA006081",
"'! c #8A00A1D8",
"'# c #94008AB8",
"'$ c #AE005876",
"'% c #F600070A",
"'& c #29000000",
"'' c #F300080B",
"'( c #F9000406",
"') c #F7000507",
"'* c #F8000608",
"'+ c #F8000507",
"', c #2E000000",
"'- c #84000000",
"'. c #C4000000",
"'/ c #DF000000",
"'0 c #94000000",
"'1 c #2C000000",
"'2 c #2B000000",
"'3 c #45000000",
"'4 c #56000000",
"'5 c #67000000",
"'6 c #96000000",
"'7 c #A7000000",
"'8 c #DA000000",
"'9 c #D8000000",
"': c #B1000000",
/* pixels */
"                                                                                                                               !",
"                                                                                                                               !",
"                                                                                                           # ! $ %             !",
"                                                                                                         &                     !",
"                                                                                                       &                       !",
"                                         ' ( ) * + , - . / / 0 1 2 3 4 5 '                             &                        ",
"                                   6 7 8 9 : ; < = = = = = = = = = = = < > ? @ A                     & &                        ",
"                             B C D E ; = = = = = < F G G H I F = = = = = = J K L M 6                 N B                        ",
"                         # O P Q = = = = < R S T U V W W X Y Z [ \ ] ^ _ ` = = = < a b c                                        ",
"                     $ d + Q = = = < e f g h i j j j j j j j j j j k l m n o ; = = < p q                                        ",
"                   B r Q = = = F s t u v j j j j j j j j j j j j j j j j j w x y ; = < p z               &                      ",
"                 { | } = = <! !! w j j j j j j j j j j j j j j j j j j j j j j!#!$!% = <!& '                 &                  ",
"               #!' ` = =!(!)!* k j j j j j j j j j j j j j j j j j j j j j j j j k!+!, = :!- &                                  ",
"             &!. J = =!/!0 j j j j j j j j j j j j j j j j j j j j j j j j k!1 j j v!2 G =!3!4                           B      ",
"            !5 > = =!6!7 j j j j j j j j j j j j j j j j j j j j j j j j j j v j j j!8!9 = }!:   B                       {      ",
"           N!; < = I!< j j j j j j j j j j j j j j j j j j j j j j j j j j j j!= j j j!> H = ,!? N                     & &     c",
"          !@!A = =!B k j j!C!>!D!E!F!G!H!I j j j j j j j j j j j j j j j j j j!J!K j j!8!L = Q!M                              !N",
"         & * < =!O!P j j!*!Q!R!S!T!U!V!W!X v j j j j j j j j j j j j j j j j j!Y!Z![ j k!\!] <!^!_                             !",
"        !`!a = <!b j j v!\!c!d!e!f!g!h!i!j!k j j j j j j j j j j j j j j j j j k k!K j j m!l = J!m                            !n",
"         ) ; =!o!p j j!q!r!s!t!u!v!v!w!x!y!z k j j j j j j j j j j j j j j j j j j!= j j v!{!] =!|!}   &                     B $",
"       &#  = =!D j j j u#!###$!v!e!v!v#%#&#'#( j j j j j j j j j j j j j j j j j j j j j j#)#* = <!^#+ &                       !",
"      #, E = G X j j j#-!o#.!w!e =!e!v!t#/#0#1 j j j j j j j j j j j j j j j j j j j j j j k#2#3 = <#4!4 & B                   !",
"      #5 J =!o#6 j j j#)#7#8#9!v!e!v#:#;#<#= v j j j j j j j j j!C!>!D!E!F!G!H!I j j j j j j v Z#> = ;#?#@                     !",
"      #A < =#B!1 j j j!I#C#D#E#F#G#H#I#J#K!0 j j j j j j j j j!*!Q!R!S!T!U!V!W!X v j j k!1 j j#L#M#N = `#O#P                   !",
"      #Q < =#' j j j j j#R#S#T#U#V#W#X#Y#Z v j j j j j j j j v!\!c!d!e!f!g!h!i!j!k j j j j j j j#[#\ R = `#4 6                 !",
"      #] = <#^ j j j j j j!*#_#` S#a#b#c!1 j j j j j j j j j!q!r!s!t!u!v!v!w!x!y!z k j j j j!= j j#[#d#N = ;#O '               !",
"      #e = <#f j j j j j j j j j j j j j j j j j j j j j j j u#!###$!v!e!v!v#%#&#'#( j j j j j![ j j!##g#h = Q#i !             !",
"      #j = <#k j j j j j j j j j j j j j j j j j j j j j j j#-!o#.!w!e =!e!v!t#/#0#1 j j j j j v!= j j#L#l!( =#m#5             !",
"      #j = F#n j j j j j j j j j j j j j j j j j j j j j j j#)#7#8#9!v!e!v#:#;#<#= v j j j j j j#o!= k!1!I#p ; ;#q#r           !",
"      #e = F!z j j j j j j j j j j j j j j j j j j j j j j j!I#C#D#E#F#G#H#I#J#K!0 j j j j j j j k#s!I j j!Y#t = }#u           !",
"      #  = <#v j j j j j j j j j j j j j j j j j j j j j j j j#R#S#T#U#V#W#X#Y#Z v j j j j j j j j!K#w j j j#x < = /#P         !",
"       2 = =#y j j j j j j j j j j j j j j j j j j j j j j j j j!*#_#` S#a#b#c!1 j j j j j j j j j j#z j j v m#{ = <#|         !",
"      #} < =$  j j j j j j j j j j j j j j j j j j j j j j j j j j j j j j j j j j j j j j j j j j j j!K j j#L$! = = 2 &       !",
"      $# ; =!O#L j j j j j j j j j j j j j j j j j j j j j j j j j j j j j j j j j j j j j j j j j j j$$ j j j$% = =$& c       !",
"       ( Q =$'$( j j j j j j j j j j j j j j j j j j j j j j j j j j j j j j j j j j j j j j j j j j j!= j j v$) ` = + !       !",
"       6 K =$* h j j j j j j j j j j j j j j j j j j j j j j j j j j j j j j j j j j j j j j j j j j j j j j j$+$, <#j {       !",
"        $- =$.$/ j j j j j j j j j j j j j j j j j j j j j j j j j j j j j j j j j j j j j j j j j j j j j j k$0$1 < 1$2       !",
"         9 =$. Z j j j j j j j j j j j j j j j j j j j j j j j j j j j j j j j j j j j j j j j j j j j j j j j$3$4 <$5$6       !",
"         9 = G Z j j j j j j j j j j j j j j j j j$7$8$9$:$7 j j j j j j j j j j j j j j j j j j j j j j j j j!8$; =$<$=       !",
"         a = G$> j j j j j j j j j j j j j j j j$?$@$A$B$C$D$: j j j j j j j j j j j j j j j j j j j j j j j j$E$F =!|$G       !",
"       '$H = I Y j j j j j j j j j j j j j j j$I$J$K$L$M$N$O$P$: j j j j j j j j j j j j j j j j j j j j j j j!C$Q = a$R       !",
"       O } =#> m j j j j j j j j j j j j j j$7$S$T$U$V$W$X$Y$Z$[ j j j j j j j j j j j j j j j j j j j j j j j i$\ = a$R       !",
"      $] ; =$^$_ j j j j j j j j j j j j j j$`$a$b$c$d$e$f$g$h$i j j j j j j j j j j j j j j j j j j j j j j j$j$k = a$R       !",
"      $l < =$m j j j j j j j j j j j j j j j$n$o$p$q$r$s$W$t$u$v$w$x$? j j j j j j$y$z${ j j j j j j j j j j j i$| = a$R       !",
"     #$} = < t j j j j j j j j j j j j j j$?% %!%#$c%$%%$W$W%&%'%(%)%*%+%,$? j j$`%-%.%/%0 j j j j j j j j j j!q%1 = a$R       !",
"     @%2 = H!< j j j j j j j j j j j j j j$z%3%4$W$W$W$W%5%6%7%8%9%:%;%<%=%>%?%@%A%B%C%D%E%F%G j j j j j j j j%H%I =%J%K       !",
"     4 < =!O#) j j j j j j j j j j j j j j%L%M%N$W$W%O%P%Q%R%S%T%U$W%V%N%W%X%Y%Z%[%\$W%]%^$S%_ j j j j j j j j#R%` =$}$6       !",
"    %a = =#0 k j j j j j j j j j j j j j j%b%c%d%e$X%f%g%h$8%i%j%k%l%\$W$W%m%n%o%p$W$W$f%q%r%s j j j j j j j j%t%u = E @       !",
"   '%v = F%w j j j j j j j j j j j j j j j j$P%x%y%z%{%|%} j j& %0&!&#$Y%5$W$W$W&$$V$W$W&%&&$: j j j j j j j j&'$. = <&(       !",
"   ( Q =&)&* j j j j j j j j j j j j j j j j$?&+&,&-&.%s j j j j j$[&/&0&1&2$f&3%B$N%P%&&4&5$: j j j j j j j j#1&6 = ;!:       !",
"  &7 ; =$^$_ j j j j j j j j j j j j j j j j j j$?%s$? j j j j j j j j&8% &9%\%p&:&4&;&<&=&  j j j j j j j j j j&> = <&?       !",
"  &@ < =&A j j j j j j j j j j j j j j j j j j j j j j j j j j j j j j j&B&C%4$W%\&D$J&E%s j j j j j j j j j j j&F = =&G       !",
"  &H = =&I j j j j j j j j j j j j j j j j j j j j j j j j j j j j j j j&J&K&L%p&M&N&O j j j j j j j j j j j j j&P = =&Q       !",
"  #e = <#d j j j j j j j j j j j j j j j j j j j j j j j j j j j j j j j j&R&S&T&U&V&W j j j j j j j j j j j j&X&Y = ;&Z       !",
"  #e = <#k j j j j j j j j j j j j j j j j j j j j j j j j j j j j j j j j$?&R&[&\${ j j j j j j j j j j j j v&] < = : C       !",
"  #  = <&I j j j j j j j j j j j j j j j j j j j j j j j j j j j j j j j j j j j j j j j j j j j j j j j j k&^ H = = P $       !",
"  &_ = =!l i j j j j j j j j j j j j j j j j j j j j j j j j j j j j j j j j j j j j j j j j j j j j j j!1&` I = =&a&b         !",
"  &c ` = <&d&X j j j j j j j j j j j j j j j j j j j j j j j j j j j j j j j j j j j j j j j j j j j j#1&e G = = :&f &         !",
"   6 p = = <&g#) j j j j j j j j j j j j j j j j j j j j j j j j j j j j j j j j j j j j j j j j j&h&i&j < = = :&k B           !",
"     @!a = = =!6&l&m&n#[ j j j j j j j j j j j j j j j j j j j j j j j j j j j j j j j j j j i&o&p&q F = = =&r&s &             !",
"      &t / = = = = < R#>!6&u&v&w&x&y&A&A&z&{&|&}&n!0 Y'  Y&' u'!!I!q!I j j j j j k$E'#'$&e#`'% H < = = = `# '&                 !",
"        $G#]%2 < = = = = = = = = = = = = = = = = = = = = = = < I''&u'(')')&q'*'*'+$'#h F < = = = = < Q 1&c !                   !",
"           #','-'. >%2 Q } ` ` ; ; < < = = = = = = = = = = = = = = = = = = = = = = = = = = = ; :'/'0'1 &                       !",
" ! ! ! ! ! ! !     A'2'3'4'5 b&k'-'6'7'8 : ` ` } } J J Q J ; < = < J Q Q Q Q Q Q Q Q%2#m'9':&7!@ !   ! ! ! ! ! ! ! ! ! ! ! ! ! '"
};