/* XPM */
static char *result[] = {
/* columns rows colors chars-per-pixel */
"64 64 563 2 ",
"   c #00000000",
" ! c #06000000",
" # c #03000000",
" $ c #05000000",
" % c #0E000000",
" & c #01000000",
" ' c #0C000000",
" ( c #3B000000",
" ) c #72000000",
" * c #A0000000",
" + c #C0000000",
" , c #CF000000",
" - c #DC000000",
" . c #E7000000",
" / c #EF000000",
" 0 c #E9000000",
" 1 c #D4000000",
" 2 c #B2000000",
" 3 c #A1000000",
" 4 c #7D000000",
" 5 c #44000000",
" 6 c #0D000000",
" 7 c #60000000",
" 8 c #AC000000",
" 9 c #DD000000",
" : c #F8000000",
" ; c #FD000000",
" < c #FE000000",
" = c #FF000000",
" > c #E6000000",
" ? c #6C000000",
" @ c #17000000",
" A c #02000000",
" B c #37000000",
" C c #A6000000",
" D c #EC000000",
" E c #FE000001",
" F c #FD000001",
" G c #FD000102",
" H c #FC000102",
" I c #F9000000",
" J c #DF000000",
" K c #8E000000",
" L c #38000000",
" M c #09000000",
" N c #41000000",
" O c #CA000000",
" P c #FC000203",
" Q c #F2000A0D",
" R c #DF001A23",
" S c #D0002C3A",
" T c #BD004259",
" U c #B400506B",
" V c #AD005A78",
" W c #A500688B",
" X c #B300516C",
" Y c #CF002B39",
" Z c #E6001319",
" [ c #F100080B",
" \ c #E5000B0F",
" ] c #F2000507",
" ^ c #F2000000",
" _ c #C4000000",
" ` c #65000000",
" a c #49000000",
" b c #F9000304",
" c c #EA001015",
" d c #CC003041",
" e c #A400698D",
" f c #8700ABE4",
" g c #8000BFFF",
" h c #8000BDFD",
" i c #8100B9F7",
" j c #92008FC0",
" k c #B8004962",
" l c #E400151D",
" m c #F8000203",
" n c #FB000000",
" o c #D8000000",
" p c #40000000",
" q c #87000000",
" r c #F200080B",
" s c #C8003446",
" t c #950087B5",
" u c #8100BCFB",
" v c #8700A9E2",
" w c #A1006F94",
" x c #CB002F40",
" y c #EA000507",
" z c #FC000000",
" { c #DB000000",
" | c #24000000",
" } c #8C000000",
"!  c #EF00090C",
"!! c #BA00465E",
"!# c #8800A7DF",
"!$ c #8C009ED3",
"!% c #AE00465D",
"!& c #DE000203",
"!' c #CC000000",
"!( c #47000000",
"!) c #82000000",
"!* c #C7003243",
"!+ c #8B00A0D6",
"!, c #8B009CD1",
"!- c #D6000C10",
"!. c #EA000000",
"!/ c #4A000000",
"!0 c #5F000000",
"!1 c #FA000000",
"!2 c #F4000608",
"!3 c #9D0078A0",
"!4 c #8200B7F5",
"!5 c #AB005D7D",
"!6 c #FB000203",
"!7 c #28000000",
"!8 c #1E000000",
"!9 c #F8000406",
"!: c #9B007CA6",
"!; c #8300B6F3",
"!< c #C2003C50",
"!= c #04000000",
"!> c #A2000000",
"!? c #A7006486",
"!@ c #8900A5DD",
"!A c #E400161E",
"!B c #B6000000",
"!C c #0B000000",
"!D c #30000000",
"!E c #F5000000",
"!F c #D900222D",
"!G c #B4004F6A",
"!H c #DD001E28",
"!I c #EC001015",
"!J c #E9001219",
"!K c #CD002F3F",
"!L c #9F00749B",
"!M c #8200B9F7",
"!N c #A8006284",
"!O c #FB000102",
"!P c #F7000000",
"!Q c #6D000000",
"!R c #08000000",
"!S c #F400080B",
"!T c #CC003040",
"!U c #FC0D1010",
"!V c #FF3F3F3F",
"!W c #FF6F6F6F",
"!X c #FF636363",
"!Y c #FF282828",
"!Z c #F0031014",
"![ c #AD005B7A",
"!\ c #8500B0EB",
"!] c #E4001319",
"!^ c #ED000000",
"!_ c #19000000",
"!` c #EB000000",
"!a c #C6003649",
"!b c #BE004258",
"!c c #FD141616",
"!d c #FF787878",
"!e c #FFD9D9D9",
"!f c #FFEAEAEA",
"!g c #FFE6E6E6",
"!h c #FFBFBFBF",
"!i c #FF4C4C4C",
"!j c #F0030F13",
"!k c #980081AC",
"!l c #B6004D67",
"!m c #BC000000",
"!n c #07000000",
"!o c #FA000406",
"!p c #8F0095C7",
"!q c #8800A8E1",
"!r c #E9001218",
"!s c #FF585858",
"!t c #FFE4E4E4",
"!u c #FFFEFEFE",
"!v c #FFFFFFFF",
"!w c #FFFBFBFB",
"!x c #FFBABABA",
"!y c #FE222323",
"!z c #C2003D51",
"!{ c #8400B3EF",
"!| c #E300171F",
"!} c #88000000",
"#  c #C1000000",
"#! c #F9000507",
"## c #FF9B9B9B",
"#$ c #FFFAFAFA",
"#% c #FFE2E2E2",
"#& c #FF535353",
"#' c #DB00202B",
"#( c #8500AFE9",
"#) c #8900A4DB",
"#* c #F500080B",
"#+ c #69000000",
"#, c #12000000",
"#- c #960085B2",
"#. c #FFA5A5A5",
"#/ c #FF5A5A5A",
"#0 c #DC001F29",
"#1 c #8600ADE8",
"#2 c #990080AB",
"#3 c #F9000305",
"#4 c #F6000000",
"#5 c #7B000000",
"#6 c #8F0096C9",
"#7 c #8A00A3DA",
"#8 c #EE000E13",
"#9 c #FF6A6A6A",
"#: c #FFF1F1F1",
"#; c #FFFDFDFD",
"#< c #FFCCCCCC",
"#= c #FF2E2F2F",
"#> c #C7003547",
"#? c #A3006C91",
"#@ c #FA000305",
"#A c #9A000000",
"#B c #8D000000",
"#C c #EC000F14",
"#D c #8100BAF9",
"#E c #C4003A4E",
"#F c #FD1F2121",
"#G c #FF999999",
"#H c #FFF0F0F0",
"#I c #FFF9F9F9",
"#J c #FFF7F7F7",
"#K c #FFDBDBDB",
"#L c #FF6B6B6B",
"#M c #F5071013",
"#N c #AE005876",
"#O c #3C000000",
"#P c #B0000000",
"#Q c #8D009ACE",
"#R c #D801242F",
"#S c #FE1F2121",
"#T c #FF686868",
"#U c #FFA1A1A1",
"#V c #FF939393",
"#W c #FF4A4A4A",
"#X c #F50E1618",
"#Y c #B5004E68",
"#Z c #D0000000",
"#[ c #BB000000",
"#\ c #D0002B39",
"#] c #BC00445A",
"#^ c #F0000C11",
"#_ c #D900212C",
"#` c #A600678A",
"#a c #8600ACE6",
"#b c #CE002E3D",
"#c c #C2000000",
"#d c #CA003242",
"#e c #8400B1ED",
"#f c #EF000D12",
"#g c #22000000",
"#h c #C3000000",
"#i c #A7006587",
"#j c #35000000",
"#k c #C1003D51",
"#l c #E500151C",
"#m c #4F000000",
"#n c #8400B0EB",
"#o c #BB00455C",
"#p c #85000000",
"#q c #C500384B",
"#r c #D1002A39",
"#s c #900093C4",
"#t c #E4000000",
"#u c #20000000",
"#v c #93000000",
"#w c #E1001922",
"#x c #7F00BFFF",
"#y c #DC001921",
"#z c #70000000",
"#{ c #C2003546",
"#| c #6E000000",
"#} c #A6005F7F",
"$  c #A4000000",
"$! c #F4000000",
"$# c #FD000203",
"$$ c #97007FAA",
"$% c #E8000000",
"$& c #FE000102",
"$' c #B1005470",
"$( c #910090C1",
"$) c #E5000001",
"$* c #8E0099CC",
"$+ c #DC000304",
"$, c #1B000000",
"$- c #8C009CD1",
"$. c #D900070A",
"$/ c #DE000000",
"$0 c #1C000000",
"$1 c #E5000000",
"$2 c #B200536F",
"$3 c #D400080A",
"$4 c #F3000000",
"$5 c #8600A9E2",
"$6 c #C9000406",
"$7 c #27000000",
"$8 c #FA000304",
"$9 c #8300BAF9",
"$: c #8A00B1EC",
"$; c #8600B6F3",
"$< c #8800B4F0",
"$= c #8100AAE3",
"$> c #C6000203",
"$? c #78000000",
"$@ c #F1000B0E",
"$A c #8300B4F1",
"$B c #8D00ADE7",
"$C c #AE008DBC",
"$D c #D101769D",
"$E c #EB00688A",
"$F c #CD00789F",
"$G c #9700A1D8",
"$H c #8200BCFB",
"$I c #8600ABE4",
"$J c #CD00090C",
"$K c #AA000000",
"$L c #DE001B24",
"$M c #8E00ACE5",
"$N c #D000759C",
"$O c #FC127394",
"$P c #FF3393B3",
"$Q c #FF46A6C6",
"$R c #FF2484A4",
"$S c #D9017298",
"$T c #9500A4DB",
"$U c #D8001117",
"$V c #D7000000",
"$W c #8F00AAE4",
"$X c #D6017399",
"$Y c #FF2787A7",
"$Z c #FF66C6E6",
"$[ c #FF7EDEFE",
"$\ c #FF7CDCFC",
"$] c #FF71D0F1",
"$^ c #FD107191",
"$_ c #A60093C5",
"$` c #8100BDFD",
"$a c #9300A6DE",
"$b c #9A009ED3",
"$c c #8500B7F5",
"$d c #E200151C",
"$e c #25000000",
"$f c #A70092C3",
"$g c #FF0C6C8C",
"$h c #FF54B4D4",
"$i c #FF7FDEFF",
"$j c #FF79D8F9",
"$k c #FF2989A9",
"$l c #CB0078A0",
"$m c #9A03A2D7",
"$n c #8406BFFD",
"$o c #A10097CA",
"$p c #D20579A0",
"$q c #F0076D8F",
"$r c #EC036A8D",
"$s c #C2007EA8",
"$t c #8D009BCF",
"$u c #EA001116",
"$v c #E1000000",
"$w c #B5038AB7",
"$x c #F807698A",
"$y c #FF3595B5",
"$z c #FD57B8D8",
"${ c #FD7DDEFF",
"$| c #FF7BDAFB",
"$} c #FF5CBCDC",
"%  c #FC127393",
"%! c #F4076B8D",
"%# c #D7007197",
"%$ c #C5007CA5",
"%% c #AE008CBB",
"%& c #9F0099CD",
"%' c #9000A9E2",
"%( c #9D009BCF",
"%) c #E5006A8E",
"%* c #FF2585A5",
"%+ c #FF58B8D8",
"%, c #FF47A7C7",
"%- c #FD0C6C8D",
"%. c #A90091C1",
"%/ c #8400B9F7",
"%0 c #ED000E13",
"%1 c #C5000000",
"%2 c #BA0083AF",
"%3 c #FD086989",
"%4 c #FF50B0D0",
"%5 c #FF6BCAEB",
"%6 c #FE7EDEFF",
"%7 c #FF6AC9EA",
"%8 c #FF3494B4",
"%9 c #FF2383A3",
"%: c #FF137393",
"%; c #F3066A8C",
"%< c #F0016789",
"%= c #D8007197",
"%> c #D6007298",
"%? c #DA08789D",
"%@ c #FC2889AA",
"%A c #FF6DCDED",
"%B c #FF7CDBFC",
"%C c #FF40A0C0",
"%D c #D500739A",
"%E c #94008BBA",
"%F c #EF000B10",
"%G c #BD00435A",
"%H c #E1006D91",
"%I c #FD3FA0C0",
"%J c #FF64C4E4",
"%K c #FF4BABCB",
"%L c #FF3F9FBF",
"%M c #FF60BFE0",
"%N c #FF7AD9FA",
"%O c #FF72D1F2",
"%P c #FF5DBDDD",
"%Q c #FF4CACCC",
"%R c #FE3898B8",
"%S c #FF3999B9",
"%T c #FF65C5E5",
"%U c #FF7EDDFE",
"%V c #FF5EBEDE",
"%W c #F5036789",
"%X c #9A007EA8",
"%Y c #48000000",
"%Z c #FC000304",
"%[ c #980082AE",
"%\ c #9800A0D6",
"%] c #E9046D91",
"%^ c #FF4DADCD",
"%_ c #FF6BCBEB",
"%` c #FF1C7C9C",
"%a c #E800698C",
"%b c #E6006A8D",
"%c c #FC056687",
"%d c #FF2D8DAD",
"%e c #FF6CCBEC",
"%f c #FF78D8F8",
"%g c #EC087093",
"%h c #99009FD5",
"%i c #F500070A",
"%j c #6A000000",
"%k c #77000000",
"%l c #DB07769C",
"%m c #FF3E9EBE",
"%n c #FF76D6F6",
"%o c #FF3696B6",
"%p c #DE027195",
"%q c #A60093C4",
"%r c #CE00769E",
"%s c #E9046D90",
"%t c #FF0B6B8B",
"%u c #FF3090B0",
"%v c #FF6FCFEF",
"%w c #FF7DDDFD",
"%x c #FF3292B2",
"%y c #FF51B1D1",
"%z c #FF4AAACA",
"%{ c #FD1E7E9F",
"%| c #CD00779F",
"%} c #8A000000",
"&  c #A5000000",
"&! c #DF001B24",
"&# c #BE0080AB",
"&$ c #F414789A",
"&% c #F4006485",
"&& c #B60086B3",
"&' c #EB01698C",
"&( c #FE1D7D9D",
"&) c #FF56B6D6",
"&* c #FF57B7D7",
"&+ c #FD006182",
"&, c #E10F7BA0",
"&- c #C90079A2",
"&. c #DF001922",
"&/ c #9D000000",
"&0 c #BF000000",
"&1 c #EF056B8D",
"&2 c #F5026687",
"&3 c #CD0279A1",
"&4 c #9C009CD1",
"&5 c #D301759C",
"&6 c #F2107597",
"&7 c #B30088B6",
"&8 c #E4001218",
"&9 c #9E000000",
"&: c #C3003A4E",
"&; c #9400A5DC",
"&< c #A90090C1",
"&= c #E9127B9F",
"&> c #FF52B2D2",
"&? c #FE58B8D8",
"&@ c #F4036789",
"&A c #9E009ACE",
"&B c #F4000406",
"&C c #80000000",
"&D c #8C00AEE9",
"&E c #C7027DA6",
"&F c #FF127292",
"&G c #E2006D91",
"&H c #C9003040",
"&I c #EC00678A",
"&J c #B9004961",
"&K c #AB000000",
"&L c #F0000B0E",
"&M c #8800B3F0",
"&N c #BC00455C",
"&O c #F1000000",
"&P c #5A000000",
"&Q c #D4002633",
"&R c #CF002C3B",
"&S c #5C000000",
"&T c #CD000000",
"&U c #DA00212C",
"&V c #BA00475F",
"&W c #73000000",
"&X c #DE001D27",
"&Y c #BF004156",
"&Z c #99007FAA",
"&[ c #A2006D92",
"&\ c #D4002734",
"&] c #F7000608",
"&^ c #EE000000",
"&_ c #50000000",
"&` c #3F000000",
"&a c #F5000709",
"&b c #ED000C10",
"&c c #E9000F14",
"&d c #E200151D",
"&e c #E100171F",
"&f c #E1001A23",
"&g c #DD001D27",
"&h c #CD002E3E",
"&i c #AA006081",
"&j c #8A00A1D8",
"&k c #94008AB8",
"&l c #F600070A",
"&m c #29000000",
"&n c #F300080B",
"&o c #F9000406",
"&p c #F7000507",
"&q c #F8000608",
"&r c #F8000507",
"&s c #FB000304",
"&t c #2E000000",
"&u c #84000000",
"&v c #94000000",
"&w c #2C000000",
"&x c #0A000000",
"&y c #2B000000",
"&z c #45000000",
"&{ c #56000000",
"&| c #67000000",
"&} c #68000000",
"'  c #96000000",
"'! c #A7000000",
"'# c #DA000000",
"'$ c #F0000000",
"'% c #B1000000",
/* pixels */
"                                                                                                                               !",
"                                                                                                                               !",
"                                                                                                           # ! $ %             !",
"                                                                                                         &                     !",
"                                                                                                       &                       !",
"                                         ' ( ) * + , - . / / 0 1 2 3 4 5 '                             &                        ",
"                                   6 7 8 9 : ; < = = = = = = = = = = = < > ? @ &                     & &                        ",
"                             A B C D ; = = = = = < E F F G H E = = = = = = I J K L M                 $ A                        ",
"                         # N O I = = = = < P Q R S T U U V W X Y Z [ \ ] F = = ; ^ _ ` @ &                                      ",
"                     $ a + I = = = < b c d e f g g g g g g g g g g h i j k l m < = = n o p                                      ",
"                   A q I = = = E r s t u g g g g g g g g g g g g g g g g g v w x y z = = { |             &                      ",
"                 M } n = = <! !!!# g g g g g g g g g g g g g g g g g g g g g g h!$!%!& ; z!'!( &             &                  ",
"               #!) z = = m!*!+ h g g g g g g g g g g g g g g g g g g g g g g g g g h!,!- = =!.!/                                ",
"             &!0!1 = =!2!3 g g g g g g g g g g g g g g g g g g g g g g g g h!4 u g g g!5!6 = = >!7                       A      ",
"            !8 > = =!9!: g g g g g g g g g g g g g g g g g g g g g g g g g g u g g g g!;!< E = = 3 &                     M      ",
"          !=!> < = H!? g g g g g g g g g g g g g g g g g g g g g g g g g g g g g g g g g!@!A = =!B '                   & &    !C",
"          !D!E = =!F h g g g v!G!H!I!J!K!L!M g g g g g g g g g g g g g g g g g h g g h g h!N!O =!P!Q #                        !R",
"         & * < =!S!$ g g g!+!T!U!V!W!X!Y!Z![ u g g g g g g g g g g g g g g g g!4 h u g g g!\!] = =!^ B                         !",
"        !_!` = <!a g g g u!b!c!d!e!f!g!h!i!j!k g g g g g g g g g g g g g g g g h h g g g g g!l F = =!m %                      !n",
"         ) ; =!o!p g g g!q!r!s!t!u!v!v!w!x!y!z h g g g g g g g g g g g g g g g g g g g g g g!{!| = = ;!}!R                   A $",
"       &#  = =!H g g g g t#!###$!v!e!v!v#%#&#'#( g g g g g g g g g g g g g g g g g g g g g g g#)#* = ;!E#+ $                   !",
"      #, D = F V g g g g#-!o#.!w!e =!e!v!t#/#0#1 g g g g g g g g v!G!H!I!J!K!L!M g g g g g g g g#2#3 = <#4#5 $                 !",
"      !/!1 =!o#6 g g g g#7#8#9#:!v!e!v#;#<#=#> u g g g g g g g!+!T!U!V!W!X!Y!Z![ u g g g g g g g g#?#@ = =!1#A &               !",
"      #B < =#C#D g g g g!M#E#F#G#H#I#J#K#L#M!3 g g g g g g g u!b!c!d!e!f!g!h!i!j!k g g h#D g g g g g#N!O = = <#O               !",
"      #P < =#' g g g g g g#Q#R#S#T#U#V#W#X#Y u g g g g g g g!q!r!s!t!u!v!v!w!x!y!z h g g g g g g g g u#> G = =#Z!n             !",
"      #[ = <#\ g g g g g g g!+#]!A Q#^#_#`#D g g g g g g g g t#!###$!v!e!v!v#%#&#'#( g g g g g g g g g#a#b = = = *             !",
"      #c = <#d g g g g g g g g g g g g g g g g g g g g g g g#-!o#.!w!e =!e!v!t#/#0#1 g g g g g!M#e!;#D g!q#f = = :#g           !",
"      #h = <!< g g g g g g g g g g g g g g g g g g g g g g g#7#8#9#:!v!e!v#;#<#=#> u g g g g g!4 h g g g g#i < = z#j           !",
"      #h = E#k g g g g g g g g g g g g g g g g g g g g g g g!M#E#F#G#H#I#J#K#L#M!3 g g g g g g g g g h#D h!{#l =!1#m           !",
"      #c = E!z g g g g g g g g g g g g g g g g g g g g g g g g#Q#R#S#T#U#V#W#X#Y u g g g g g g g h#n!M g g g#o E ;#p &         !",
"      #  = <#q g g g g g g g g g g g g g g g g g g g g g g g g g!+#]!A Q#^#_#`#D g g g g g g g g g g g g g g w!6 =#h '         !",
"       2 = =#r g g g g g g g g g g g g g g g g g g g g g g g g g g g g g g g g g g g g g g g g g g g g g g u#s!  =#t#u         !",
"      #v < =#w g g g g g g g g g g g g g g g g g g g g g g g g g g g g g g g g g g g g g g g g g g g#x g g g!;#y =!E p         !",
"      #z ; =!S!; g g g g g g g g g g g g g g g g g g g g g g g g g g g g g g g g g g g g g g g g g g g g g g g#{ < ;#|         !",
"       ( I =#@#s g g g g g g g g g g g g g g g g g g g g g g g g g g g g g g g g g g g g g g g g g g g g g g u#}!1 <$  &       !",
"       6$! =$# e g g g g g g g g g g g g g g g g g g g g g g g g g g g g g g g g g g g g g g g g g g g g g g g$$ / <#c M       !",
"        $% =$&$' g g g g g g g g g g g g g g g g g g g g g g g g g g g g g g g g g g g g g g g g g g g g g g h$($) < 1 @       !",
"         9 =$& X g g g g g g g g g g g g g g g g g g g g g g g g g g g g g g g g g g g g g g g g g g g g g g g$*$+ < {$,       !",
"         9 = F X g g g g g g g g g g g g g g g g g g g g g g g g g g g g g g g g g g g g g g g g g g g g g g g$-$. =$/$0       !",
"        $1 = F$2 g g g g g g g g g g g g g g g g g g g g g g g g g g g g g g g g g g g g g g g g g g g g g g g!@$3 =#t |       !",
"       '$4 = H W g g g g g g g g g g g g g g g g g g g g g g g g g g g g g g g g g g g g g g g g g g g g g g g$5$6 =$1$7       !",
"       N n =$8 j g g g g g g g g g g g$9$:$;$< g g g g g g g g g g g g g g g g g g g g g g g g g g g g g g g g$=$> =$1$7       !",
"      $? ; =$@$A g g g g g g g g g g$B$C$D$E$F$G$H g g g g g g g g g g g g g g g g g g g g g g g g g g g g g g$I$J =$1$7       !",
"      $K < =$L g g g g g g g g g g$M$N$O$P$Q$R$S$T g g g g g g g g g g g g g g g g g g g g g g g g g g g g g g f$U =$1$7       !",
"     #$V = < s g g g g g g g g g$W$X$Y$Z$[$\$]$^$_$` g g g g g g g g g$a$b$W$c g g g g g g g g g g g g g g g g!q$d =$1$7       !",
"    $e#4 = G!? g g g g g g g g g$f$g$h$i$[$i$j$k$l$m$n g g g g g g g$o$p$q$r$s$9 g g g g g g g g g g g g g g g$t$u =$v#u       !",
"     4 < =!S#7 g g g g g g g g g$w$x$y$P$z${$|$}% %!%#%$%%%&%'$; g%(%)%*%+%,%-%.%/ g g g g g g g g g g g g g g#Q%0 =$V$,       !",
"    %1 = =#0 h g g g g g g g g g%2%3$P%4%5%6$i$i%7$Q%8%9%:%;%<%=%>%?%@%A$i%B%C%D$: g g g g g g g g g g g g g g%E%F = D$e       !",
"   '!. = E%G g g g g g g g g g$;%H%I%6$i$[$[%J%K%L%M$|%N%O%P%Q$y%R%S%T$i$i%U%V%W$W g g g g g g g g g g g g g g%X$& = <%Y       !",
"   ( I =%Z%[ g g g g g g g g g%\%]%^$i$i$i%_%`%a%b%c%d%K%e$i$i$i%f$i$i$i$i$i%Q%g%h g g g g g g g g g g g g g g#1%i = ;%j       !",
"  %k ; =$@$A g g g g g g g g g$M%l%m$i$i%n%o%p$M$M%q%r%s%t%u%^%v$\%w%^%x%y%z%{%|$H g g g g g g g g g g g g g g g#l = <%}       !",
"  &  < =&! g g g g g g g g g g g&#&$$Q%+$Y&%%%$` g g g$a&&%=&'&(&)$i&*%*&+&,&-%\ g g g g g g g g g g g g g g g g&. = =&/       !",
"  &0 = =#b g g g g g g g g g g g$W%2&1&2&3&4 g g g g g g g$9$G&5$Y%f$i%y&6&7 g g g g g g g g g g g g g g g g g g&8 = =&9       !",
"  #c = <&: g g g g g g g g g g g g g&;$T$W$` g g g g g g g g g&<&=&>$i&?&@&A g g g g g g g g g g g g g g g g g!\&B = ;&C       !",
"  #c = <!< g g g g g g g g g g g g g g g g g g g g g g g g g g&D&E&F%Q$Y&G$W g g g g g g g g g g g g g g g g u&H < = : B       !",
"  #  = <#b g g g g g g g g g g g g g g g g g g g g g g g g g g g$T&-&I%>$b g g g g g g g g g g g g g g g g h&J G = = O $       !",
"  &K = =&L f g g g g g g g g g g g g g g g g g g g g g g g g g g g$;&M&D%/ g g g g g g g g g g g g g g g#D&N H = =&O#j         !",
"  &P z = <&Q!\ g g g g g g g g g g g g g g g g g g g g g g g g g g g g g g g g g g g g g g g g g g g g#1&R F = = :&S &         !",
"   6&T = = <&U#7 g g g g g g g g g g g g g g g g g g g g g g g g g g g g g g g g g g g g g g g g g#a&V#* < = = :&W A           !",
"    $e!` = = =!9&X&Y&Z!{ g g g g g g g g g g g g g g g g g g g g g g g g g g g g g g g g g g f&[&\&] E = = =&^&_ &             !",
"      &` / = = = = < P$8!9&a&b&c&d&e&!&!&f&g&h w&Z!3 W&i W%X t&j!M!q!M g g g g g h!@&k#N&R!A&l G < = = = z# &m                 !",
"         |#[#4 < = = = = = = = = = = = = = = = = = = = = = = < H&n&a&o&p&p&]&q&q&r#@&s E < = = = = < I 1&P !                   !",
"           #&t&u _ >#4 I n z z ; ; < < = = = = = = = = = = = = = = = = = = = = = = = = = = = ; : J&v&w &                       !",
" ! ! ! ! ! ! !    &x&y&z&{&|&}&W&u' '!'# : z z n n!1!1 I!1 ; < = <!1 I I I I I I I I#4'$ o'%%k!D !   ! ! ! ! ! ! ! ! ! ! ! ! ! '"
};