/* XPM */
static char *result[] = {
/* columns rows colors chars-per-pixel */
"64 64 98 2 ",
"   c #000000",
".  c #000709",
"X  c #00090C",
"o  c #010D12",
"O  c #021115",
"+  c #0D1112",
"@  c #00141B",
"#  c #0E1618",
"$  c #141616",
"%  c #141718",
"&  c #001B24",
"*  c #001E28",
"=  c #00212D",
"-  c #1F2121",
";  c #002633",
":  c #002D3C",
">  c #222323",
",  c #2B2C2C",
"<  c #3F3F3F",
"1  c #003243",
"2  c #003749",
"3  c #00394D",
"4  c #003D52",
"5  c #004157",
"6  c #00455C",
"7  c #004A63",
"8  c #004F69",
"9  c #00516C",
"0  c #005470",
"q  c #005876",
"w  c #005B79",
"e  c #4B4B4B",
"r  c #535353",
"t  c gray35",
"y  c gray39",
"u  c gray42",
"i  c #797979",
"p  c #006485",
"a  c #006689",
"s  c #02698C",
"d  c #0C6D8D",
"f  c #016E93",
"g  c #0E6F90",
"h  c #017196",
"j  c #0D7396",
"k  c #01759C",
"l  c #147494",
"z  c #1B7C9D",
"x  c #0079A2",
"c  c #0D7BA0",
"v  c #007EA9",
"b  c #157EA1",
"n  c #1C7FA0",
"m  c #0081AC",
"M  c #0086B3",
"N  c #0189B7",
"B  c #008CBB",
"V  c #2383A4",
"C  c #2C8CAC",
"Z  c #2E8FB0",
"A  c #3393B3",
"S  c #3D9DBD",
"D  c #008FC0",
"F  c #0093C4",
"G  c #0096C9",
"H  c #009ACE",
"J  c #009DD3",
"K  c #00A0D6",
"L  c #00A4DC",
"P  c #00AAE3",
"I  c #0AAEE5",
"U  c #00AEE9",
"Y  c #00B1EC",
"T  c #00B6F3",
"R  c #00B9F7",
"E  c #00BFFF",
"W  c #42A2C2",
"Q  c #4CACCC",
"!  c #54B4D4",
"~  c #5BBBDB",
"^  c #5FC0E1",
"/  c #62C2E2",
"(  c #68C7E8",
")  c #6ACAEA",
"_  c #70CFF0",
"`  c #73D2F3",
"'  c #7EDDFE",
"]  c #939393",
"[  c #9A9A9A",
"{  c gray64",
"}  c #BDBDBD",
"|  c gray80",
" . c #D9D9D9",
".. c #E4E4E4",
"X. c #EAEAEA",
"o. c #F3F3F3",
"O. c #FDFDFD",
"+. c None",
/* pixels */
"+.+.+.+.+.+.+.+.+.+.+.+.+.+.+.+.+.+.+.+.+.+.+.+.+.+.+.+.+.+.+.+.+.+.+.+.+.+.+.+.+.+.+.+.+.+.+.+.+.+.+.+.+.+.+.+.+.+.+.+.+.+.+.+.",
"+.+.+.+.+.+.+.+.+.+.+.+.+.+.+.+.+.+.+.+.+.+.+.+.+.+.+.+.+.+.+.+.+.+.+.+.+.+.+.+.+.+.+.+.+.+.+.+.+.+.+.+.+.+.+.+.+.+.+.+.+.+.+.+.",
"+.+.+.+.+.+.+.+.+.+.+.+.+.+.+.+.+.+.+.+.+.+.+.+.+.+.+.+.+.+.+.+.+.+.+.+.+.+.+.+.+.+.+.+.+.+.+.+.+.+.+.+.+.+.+.          +.+.+.+.",
"+.+.+.+.+.+.+.+.+.+.+.+.+.+.+.+.+.+.+.+.+.+.+.+.+.+.+.+.+.+.+.+.+.+.+.+.+.+.+.+.+.+.+.+.+.+.+.+.+.+.+.+.+.                +.+.+.",
"+.+.+.+.+.+.+.+.+.+.+.+.+.+.+.+.+.+.+.+.+.+.+.+.+.+.+.+.+.+.+.+.+.+.+.+.+.+.+.+.+.+.+.+.+.+.+.+.+.+.+.+.                    +.+.",
"+.+.+.+.+.+.+.+.+.+.+.+.+.+.+.+.+.+.+.+.+.+.+.                      +.+.+.+.+.+.+.+.+.+.+.+.+.+.+.+.+.+.      4 B F x ;       +.",
"+.+.+.+.+.+.+.+.+.+.+.+.+.+.+.+.+.+.+.                                    +.+.+.+.+.+.+.+.+.+.+.+.+.+.      0 E E E E R &     +.",
"+.+.+.+.+.+.+.+.+.+.+.+.+.+.+.+.                                                +.+.+.+.+.+.+.+.+.+.+.      M E E R E E 6     +.",
"+.+.+.+.+.+.+.+.+.+.+.+.+.+.                X & : 5 9 9 w s 9 : @ . .               +.+.+.+.+.+.+.+.+.      N E E E E E 7     +.",
"+.+.+.+.+.+.+.+.+.+.+.+.            . O 1 s P E E E E E E E E E E E R B 6 @             +.+.+.+.+.+.+.      k E R E E E :     +.",
"+.+.+.+.+.+.+.+.+.+.            X 2 N E E E E E E E E E E E E E E E E E E P f : X           +.+.+.+.+.      4 E E E E T X     +.",
"+.+.+.+.+.+.+.+.+.          X 6 L E E E E E E E E E E E E E E E E E E E E E E E J 6 .         +.+.+.+.+.      f U R B @       +.",
"+.+.+.+.+.+.+.+.          1 K E E E E E E E E E E E E E E E E E E E E E E E E E E E J :         +.+.+.+.        & ;         +.+.",
"+.+.+.+.+.+.+.+.      . x E E E E E E E E E E E E E E E E E E E E E E E E E T E E E E R 5         +.+.+.+.                +.+.+.",
"+.+.+.+.+.+.+.      . x E E E E E E E E E E E E E E E E E E E E E E E E E E E +.E E E E T 1       +.+.+.+.+.            +.+.+.+.",
"+.+.+.+.+.+.        p E E E E E E E E E E E E E E E E E E E E E E E E E E E E E +.E E E E U =       +.+.+.+.+.+.+.+.+.+.+.+.+.+.",
"+.+.+.+.+.+.      = E E E E E E R L P E E E E E E E E E E E E P 8 & o @ : k T E E +.+.E E E F X       +.+.+.+.+.+.+.+.+.+.+.+.+.",
"+.+.+.+.+.      X J E E E E U w ; @ & 2 m E E E E E E E E E K : + e u y , O w T E E +.+.E E E 7         +.+.+.+.+.+.+.+.+.+.+.+.",
"+.+.+.+.+.      2 E E E E P 3 + < u y , O a R E E E E E E E 5 $ i  .X...} e O m E E E E +.E E T 8 .       +.+.+.+.+.+.+.+.+.+.+.",
"+.+.+.+.+.    . G E E E E 6 $ i  .X.X.} e O N E E E E E E P O t ..O.O.O.O.} > 3 R E E E E +.E E E a .         +.+.+.+.+.+.+.+.+.",
"+.+.+.+.      * E E E E P @ t ..O.O.O.O.} > 5 E E E E E E N . [ O.O. .O.O...r = U E E E E E +.E E E p X       +.+.+.+.+.+.+.+.+.",
"+.+.+.+.      q E E E E N . [ o.O. .O.O...r = U E E E E E m . { o. .   .O...t = U E E E E E E +.E E R 9       +.+.+.+.+.+.+.+.+.",
"+.+.+.+.    . G E E E E m . { O. .   .O.X.t * P E E E E E L O u o.O. .O.O.| , 1 E E E E E E E E E E E T =       +.+.+.+.+.+.+.+.",
"+.+.+.      o R E E E E K o u o.O. .O.O.| , 1 R E E E E E R 3 - [ o.o.O. .u # k E E E E R E E E +.E E E h       +.+.+.+.+.+.+.+.",
"+.+.+.      = E E E E E T 1 - [ o.O.o. .u + h E E E E E E E H ; - y { ] e # 7 E E E E E E E E E E +.E E G X     +.+.+.+.+.+.+.+.",
"+.+.+.      : E E E E E E F = - u [ ] e # 5 R E E E E E E E E K 5 & X o = a R E E E E E E E E E E E E E U &     +.+.+.+.+.+.+.+.",
"+.+.+.      1 E E E E E E E G 2 O . X & w T E E E E E E E E E E E E E E E E E E E E E E E E E R U Y R E E 3       +.+.+.+.+.+.+.",
"+.+.+.      3 E E E E E E E E E L N F Y E E E E E E E E E E E E E E E E E E E E E E E E E E E R E E +.E E m .     +.+.+.+.+.+.+.",
"+.+.+.      4 E E E E E E E E E E E E E E E E E E E E E E E E E E E E E E E E E E E E E E E E E E E E R E Y &     +.+.+.+.+.+.+.",
"+.+.+.      4 E E E E E E E E E E E E E E E E E E E E E E E E E E E E E E E E E E E E E E E E E R Y R +.E E 6       +.+.+.+.+.+.",
"+.+.+.      2 E E E E E E E E E E E E E E E E E E E E E E E E E E E E E E E E E E E E E E E E E E E E E E E h       +.+.+.+.+.+.",
"+.+.+.      : E E E E E E E E E E E E E E E E E E E E E E E E E E E E E E E E E E E E E E E E E E E E E E E F X     +.+.+.+.+.+.",
"+.+.+.      @ E E E E E E E E E E E E E E E E E E E E E E E E E E E E E E E E E E E E E E E E E E E E E E E T &     +.+.+.+.+.+.",
"+.+.+.+.    X T E E E E E E E E E E E E E E E E E E E E E E E E E E E E E E E E E E E E E E E E E E E E E E E 2     +.+.+.+.+.+.",
"+.+.+.+.    . F E E E E E E E E E E E E E E E E E E E E E E E E E E E E E E E E E E E E E E E E E E E +.+.E E p       +.+.+.+.+.",
"+.+.+.+.    . s E E E E E E E E E E E E E E E E E E E E E E E E E E E E E Y Y L E E E E E E E E E E E E E E E m .     +.+.+.+.+.",
"+.+.+.+.      0 E E E E E E E E E E E E E E E E E E E E E E E E E E E E L m s h v L E E E E E E E E E E E E E B .     +.+.+.+.+.",
"+.+.+.+.      9 E E E E E E E E E E E E E E E R E E E E E E E E E E E E m l W Q z x Y E E E E E E E E E E E E H X     +.+.+.+.+.",
"+.+.+.+.    . 0 E E E E E E E E E E E E E U G m B U E E E E E E E E E L a Q ' ' ( j N E E E E E E E E E E E E K X     +.+.+.+.+.",
"+.+.+.+.    . q E E E E E E E E E E E E L m d V d m L E E E E E E Y P x V / ' ' ' A k T E E E E E E E E E E E L X     +.+.+.+.+.",
"+.+.+.+.      s E E E E E E E E E E E R M l ~ _ ) l m L I F B x k h p z S ' ' ' ' V k E E E E E E E E E E E E P .     +.+.+.+.+.",
"+.+.+.+.      D E E E E E E E E E E E G a ! ' ' ' ! d d s d d V C S ! / ' ' ~ ~ S z B E E E E E E E E E E E E P       +.+.+.+.+.",
"+.+.+.+.    o T E E E E E E E E E E R m C _ ' ' ' ' ) ~ Q ) _ ' ' ' ' ' ' / l l p M E E E E E E E E E E E E E P X     +.+.+.+.+.",
"+.+.+.      & E E E E E E E E E E E E m l ! C ^ ' ' ` ~ ! ~ ! ~ ~ ! ! ~ ` ' ) S j G E E E E E E E E E E E E E P @     +.+.+.+.+.",
"+.+.+.      1 E E E E E E E E E E E E N d V Q _ ' _ A w f a a f s p a j Z ` ' ) d B E E E E E E E E E E E E E P @     +.+.+.+.+.",
"+.+.+.      p E E E E E E E E E E E E L a ! ' ' ' ! p J L L U L L L P B j Z ) / d B E E E E E E E E E E E E E H O     +.+.+.+.+.",
"+.+.+.    X L E E E E E E E E E E E E H d / ' ' ' S k U E E E E E E E E B k l g k U E E E E E E E E E E E E E H o     +.+.+.+.+.",
"+.+.      * E E E E E E E E E E E E E L h W ' ' ) l m E E E E E E E E E E K B B P E E E E E E E E E E E E E E B o     +.+.+.+.+.",
"+.+.      6 E E E E E E E E E E E E E E m V A ! z k P E E E E E E E E E E E E E E E E E E E E E E E E E E E E m       +.+.+.+.+.",
"+.+.    . m E E E E E E E E E E E E E E R M h s k K E E E E E E E E E E E E E E E E E E E E E E E E E E E E E Y X     +.+.+.+.+.",
"+.+.    X T E E E E E E E E E E E E E E E E R L E E E E E E E E E E E E E E E E E E E E E E E E E E E E E E E E @       +.+.+.+.",
"+.      & E E E E E E E E E E E E E E E E E E E E E E E E E E E E E E E E E E E E E E E E E E E E E E E E E E E &       +.+.+.+.",
"+.      : E E E E E E E E E E E E E E E E E E E E E E E E E E E E E E E E E E E E E E E E E E E E E E E E E E E @       +.+.+.+.",
"+.      3 E E E E E E E E E E E E E E E E E E E E E E E E E E E E E E E E E E E E E E E E E E E E E E E E E E Y         +.+.+.+.",
"+.      4 E E E E E E E E E E E E E E E E E E E E E E E E E E E E E E E E E E E E E E E E E E E E E E E E E E 1       +.+.+.+.+.",
"+.      : E E E E E E E E E E E E E E E E E E E E E E E E E E E E E E E E E E E E E E E E E E E E E E E E E 6         +.+.+.+.+.",
"+.      X P E E E E E E E E E E E E E E E E E E E E E E E E E E E E E E E E E E E E E E E E E E E E E E R 6         +.+.+.+.+.+.",
"+.+.      ; U E E E E E E E E E E E E E E E E E E E E E E E E E E E E E E E E E E E E E E E E E E E E U :         +.+.+.+.+.+.+.",
"+.+.        = L E E E E E E E E E E E E E E E E E E E E E E E E E E E E E E E E E E E E E E E E E P 7 .         +.+.+.+.+.+.+.+.",
"+.+.+.        . = 5 m Y E E E E E E E E E E E E E E E E E E E E E E E E E E E E E E E E E E U f ; .           +.+.+.+.+.+.+.+.+.",
"+.+.+.+.              . . X X O @ @ & & & * : f v x s w s v N L R L R E E E E E E L B q : @ .               +.+.+.+.+.+.+.+.+.+.",
"+.+.+.+.+.                                                      X . . . X X . . .                       +.+.+.+.+.+.+.+.+.+.+.+.",
"+.+.+.+.+.+.+.                                                                                      +.+.+.+.+.+.+.+.+.+.+.+.+.+.",
"+.+.+.+.+.+.+.+.+.+.+.+.+.+.+.+.                                                            +.+.+.+.+.+.+.+.+.+.+.+.+.+.+.+.+.+."
};
