/* XPM */
static char *result[] = {
/* columns rows colors chars-per-pixel */
"64 64 598 2 ",
"   c #00000000",
" ! c #06000000",
" # c #01000000",
" $ c #0100BFFF",
" % c #09000000",
" & c #2D000000",
" ' c #5F000000",
" ( c #87000000",
" ) c #9D000000",
" * c #A8000000",
" + c #B0000000",
" , c #B1000000",
" - c #95000000",
" . c #68000000",
" / c #3A000000",
" 0 c #16000000",
" 1 c #03000000",
" 2 c #27000000",
" 3 c #70000000",
" 4 c #C8000000",
" 5 c #F1000000",
" 6 c #FC000000",
" 7 c #FE000000",
" 8 c #FD000000",
" 9 c #F6000000",
" : c #DE000000",
" ; c #A2000000",
" < c #46000000",
" = c #0A000000",
" > c #18000000",
" ? c #53000000",
" @ c #B2000000",
" A c #F0000001",
" B c #FF000000",
" C c #FE000001",
" D c #F7000000",
" E c #BC000000",
" F c #40000000",
" G c #04000000",
" H c #35000000",
" I c #99000000",
" J c #EB000000",
" K c #FE000102",
" L c #F7000609",
" M c #EE000E13",
" N c #E700141B",
" O c #E400171F",
" P c #E400161E",
" Q c #E500161E",
" R c #EC000F14",
" S c #F6000609",
" T c #FD000001",
" U c #F0000000",
" V c #84000000",
" W c #0B000000",
" X c #05000000",
" Y c #3B000000",
" Z c #C0000000",
" [ c #FA000000",
" \ c #F8000608",
" ] c #E0001B24",
" ^ c #C4003A4E",
" _ c #A500698C",
" ` c #94008BBA",
" a c #8A00A1D8",
" b c #8700ABE4",
" c c #8500AFE9",
" d c #8600ADE8",
" e c #960085B2",
" f c #B0005673",
" g c #CA003242",
" h c #DE001C25",
" i c #F200080B",
" j c #FB000000",
" k c #A5000000",
" l c #15000000",
" m c #0C000000",
" n c #88000000",
" o c #E8001219",
" p c #BB00455C",
" q c #93008CBB",
" r c #8300B4F1",
" s c #8000BDFD",
" t c #8000BFFF",
" u c #8100BCFB",
" v c #8C009ED3",
" w c #CE002E3D",
" x c #FC000102",
" y c #AE000000",
" z c #12000000",
" { c #BF000000",
" | c #F2000B0E",
" } c #B1005470",
"!  c #8100BAF9",
"!! c #B5004F69",
"!# c #F8000406",
"!$ c #0D000000",
"!% c #38000000",
"!& c #E7000000",
"!' c #FD000203",
"!( c #D0002B39",
"!) c #9C0079A1",
"!* c #EE000C11",
"!+ c #70000102",
"!, c #FB000001",
"!- c #F600070A",
"!. c #A2006D92",
"!/ c #8E0097CA",
"!0 c #E2000B0F",
"!1 c #64000000",
"!2 c #83000000",
"!3 c #8A00A3DA",
"!4 c #8100A5DD",
"!5 c #D2000304",
"!6 c #EA000000",
"!7 c #3E000000",
"!8 c #41000000",
"!9 c #CC002F3F",
"!: c #8200B7F5",
"!; c #730088B5",
"!< c #EB000001",
"!= c #CE000000",
"!> c #EC000000",
"!? c #7F00BFFF",
"!@ c #9500394D",
"!A c #6A000000",
"!B c #FF000001",
"!C c #8100B4F1",
"!D c #D3000C10",
"!E c #E3000000",
"!F c #13000000",
"!G c #D2000000",
"!H c #AB005D7D",
"!I c #D4002734",
"!J c #E1001A23",
"!K c #C500384B",
"!L c #980081AC",
"!M c #96007CA6",
"!N c #F4000102",
"!O c #B7000000",
"!P c #07000000",
"!Q c #11000000",
"!R c #F9000000",
"!S c #B1005571",
"!T c #8800A8E1",
"!U c #C500394D",
"!V c #FB0D1011",
"!W c #FF3F3F3F",
"!X c #FF6F6F6F",
"!Y c #FF636363",
"!Z c #FF282828",
"![ c #ED031218",
"!\ c #A6006688",
"!] c #BC00374A",
"!^ c #55000000",
"!_ c #02000000",
"!` c #4B000000",
"!a c #910092C3",
"!b c #BA00475F",
"!c c #FC141718",
"!d c #FF797979",
"!e c #FFD9D9D9",
"!f c #FFEAEAEA",
"!g c #FFE6E6E6",
"!h c #FFBFBFBF",
"!i c #FF4C4C4C",
"!j c #ED031217",
"!k c #950087B5",
"!l c #E3000F15",
"!m c #32000000",
"!n c #8C000000",
"!o c #ED000E13",
"!p c #FF585858",
"!q c #FFE4E4E4",
"!r c #FFFEFEFE",
"!s c #FFFFFFFF",
"!t c #FFFBFBFB",
"!u c #FFBABABA",
"!v c #FE222323",
"!w c #BE004157",
"!x c #8800A5DD",
"!y c #E800080A",
"!z c #DF000000",
"!{ c #DB00202B",
"!| c #94008AB8",
"!} c #F9000507",
"#  c #FF9B9B9B",
"#! c #FFFAFAFA",
"## c #FFE2E2E2",
"#$ c #FF535353",
"#% c #DA00212C",
"#& c #8500B0EB",
"#' c #8700A9E2",
"#( c #90008DBD",
"#) c #EA000406",
"#* c #BB000000",
"#+ c #970083AF",
"#, c #FA000406",
"#- c #FFA5A5A5",
"#. c #FF5A5A5A",
"#/ c #DC001E28",
"#0 c #8600ACE6",
"#1 c #B4004F6A",
"#2 c #DD001E28",
"#3 c #EC001015",
"#4 c #E9001219",
"#5 c #CD002F3F",
"#6 c #9F00749B",
"#7 c #8200B9F7",
"#8 c #900081AD",
"#9 c #EA000203",
"#: c #97000000",
"#; c #C2000000",
"#< c #8B00A0D6",
"#= c #EF000C11",
"#> c #FF6A6A6A",
"#? c #FFF1F1F1",
"#@ c #FFFDFDFD",
"#A c #FFCCCCCC",
"#B c #FF2E2F2F",
"#C c #CA003344",
"#D c #CC003040",
"#E c #FC0D1010",
"#F c #F0031014",
"#G c #AD005B7A",
"#H c #9C004E68",
"#I c #F3000000",
"#J c #22000000",
"#K c #C6000000",
"#L c #C500394C",
"#M c #C8003446",
"#N c #FE1F2121",
"#O c #FF999999",
"#P c #FFF0F0F0",
"#Q c #FFF9F9F9",
"#R c #FFF7F7F7",
"#S c #FFDBDBDB",
"#T c #FF6B6B6B",
"#U c #F7070E11",
"#V c #A1007096",
"#W c #BE004258",
"#X c #FD141616",
"#Y c #FF787878",
"#Z c #F0030F13",
"#[ c #8100B9F7",
"#\ c #C200131A",
"#] c #9C000000",
"#^ c #D9000000",
"#_ c #D1002A39",
"#` c #DE011E27",
"#a c #FE1F2020",
"#b c #FF686868",
"#c c #FFA1A1A1",
"#d c #FF939393",
"#e c #FF4A4A4A",
"#f c #F70D1315",
"#g c #BD004259",
"#h c #E9001218",
"#i c #C2003D51",
"#j c #8E0082AE",
"#k c #F2000001",
"#l c #D3002836",
"#m c #8F0096C9",
"#n c #C600374A",
"#o c #EB001116",
"#p c #F400090C",
"#q c #E0001A23",
"#r c #AE005A78",
"#s c #8300B6F3",
"#t c #BE00212C",
"#u c #CC000000",
"#v c #0F000000",
"#w c #F4000000",
"#x c #D0002C3A",
"#y c #8800A7DF",
"#z c #950089B7",
"#{ c #DC001F29",
"#| c #910088B6",
"#} c #FA000001",
"$  c #47000000",
"$! c #D5002532",
"$# c #C7003547",
"$$ c #DC00131A",
"$% c #45000000",
"$& c #FD1F2121",
"$' c #F5071013",
"$( c #9D0078A0",
"$) c #A400688B",
"$* c #74000000",
"$+ c #E600151C",
"$, c #8D009ACE",
"$- c #D801242F",
"$. c #F50E1618",
"$/ c #B5004E68",
"$0 c #ED000B0F",
"$1 c #CB000000",
"$2 c #B6000000",
"$3 c #BC00445A",
"$4 c #F2000A0D",
"$5 c #F0000C11",
"$6 c #D900212C",
"$7 c #A600678A",
"$8 c #B5004D66",
"$9 c #26000000",
"$: c #D3000000",
"$; c #F7000507",
"$< c #8F0095C7",
"$= c #8900A4DB",
"$> c #F000080B",
"$? c #96000000",
"$@ c #E4000000",
"$A c #FC000001",
"$B c #E300171F",
"$C c #CD002E3E",
"$D c #36000000",
"$E c #F2000000",
"$F c #F8000102",
"$G c #C3003A4E",
"$H c #9B007BA4",
"$I c #FA000203",
"$J c #F8000000",
"$K c #F1000406",
"$L c #A0007299",
"$M c #8300BAF9",
"$N c #8900B2EE",
"$O c #8B00AFEA",
"$P c #EC000E13",
"$Q c #93000000",
"$R c #6C000000",
"$S c #E4000F14",
"$T c #8800B3F0",
"$U c #AA008FC0",
"$V c #C40380AA",
"$W c #CF00769E",
"$X c #C8007AA3",
"$Y c #9F0099CD",
"$Z c #CE002D3C",
"$[ c #DB000000",
"$\ c #DC001A22",
"$] c #AD008DBC",
"$^ c #EB01698C",
"$_ c #FF117191",
"$` c #FF2E8EAE",
"$a c #FF3696B6",
"$b c #FF2282A2",
"$c c #E6006A8D",
"$d c #9100A8E1",
"$e c #2F000000",
"$f c #B4000000",
"$g c #F8000001",
"$h c #D8001F2A",
"$i c #9E009ACE",
"$j c #F404688A",
"$k c #FF3C9CBC",
"$l c #FF6DCDED",
"$m c #FF7EDDFE",
"$n c #FF6BCAEB",
"$o c #FF187898",
"$p c #B1018BB9",
"$q c #F500080B",
"$r c #81000000",
"$s c #F6000001",
"$t c #BD0486B1",
"$u c #FA07698A",
"$v c #FF4BABCB",
"$w c #FF71D0F1",
"$x c #FF7CDCFC",
"$y c #FF7FDEFF",
"$z c #FF2787A7",
"${ c #BB0083AF",
"$| c #8600B6F3",
"$} c #CD000000",
"%  c #F7000102",
"%! c #99009FD5",
"%# c #E2006C90",
"%$ c #FF147494",
"%% c #FF1D7D9D",
"%& c #FF2888A8",
"%' c #FD66C6E7",
"%( c #FE7EDEFF",
"%) c #FF77D6F7",
"%* c #FF2A8AAA",
"%+ c #C6007BA4",
"%, c #8902B4F0",
"%- c #B6004C66",
"%. c #19000000",
"%/ c #D0000000",
"%0 c #C3003B4F",
"%1 c #C90079A2",
"%2 c #FE2282A2",
"%3 c #FE68C8E8",
"%4 c #FF7CDBFC",
"%5 c #FF72D2F2",
"%6 c #FE77D7F7",
"%7 c #FF4DADCD",
"%8 c #F70A6D8E",
"%9 c #CE047BA3",
"%: c #9506AAE1",
"%; c #92008FC0",
"%< c #FB000305",
"%= c #51000000",
"%> c #10000000",
"%? c #B400506B",
"%@ c #9400A5DC",
"%A c #DF09779B",
"%B c #FF43A3C3",
"%C c #FF75D5F5",
"%D c #FF6FCEEF",
"%E c #FF74D3F4",
"%F c #FF55B5D5",
"%G c #FE137494",
"%H c #F0006588",
"%I c #BF0080AA",
"%J c #9800A0D6",
"%K c #8100BDFD",
"%L c #8700B5F1",
"%M c #8E00ACE5",
"%N c #E800131A",
"%O c #9B000000",
"%P c #8F00AAE4",
"%Q c #E10A779B",
"%R c #FF47A7C7",
"%S c #FF7DDDFD",
"%T c #FF6BCBEB",
"%U c #FF3A9ABA",
"%V c #FD2585A6",
"%W c #FF2D8DAD",
"%X c #FF64C3E4",
"%Y c #FF77D7F7",
"%Z c #FF45A5C5",
"%[ c #FF157595",
"%\ c #EA046C8F",
"%] c #C1007EA9",
"%^ c #9700A1D8",
"%_ c #C2017FA9",
"%` c #D2057AA1",
"%a c #CC0077A0",
"%b c #A00098CC",
"%c c #CF002D3C",
"%d c #D4000000",
"%e c #B3000000",
"%f c #A9006080",
"%g c #8500B7F5",
"%h c #CC027AA2",
"%i c #FF1E7E9E",
"%j c #FF70D0F0",
"%k c #FF5EBEDE",
"%l c #FC2485A6",
"%m c #B80084B1",
"%n c #FF137393",
"%o c #FF5CBCDC",
"%p c #FF3B9BBB",
"%q c #FF1B7B9B",
"%r c #E800698C",
"%s c #CB0078A0",
"%t c #BD0081AC",
"%u c #EB00688B",
"%v c #FF1C7C9C",
"%w c #FF3797B7",
"%x c #FF2080A0",
"%y c #E6026C90",
"%z c #9000A9E2",
"%{ c #B200536F",
"%| c #AB000000",
"%} c #9A009ED3",
"&  c #E8026B8E",
"&! c #FA026485",
"&# c #D9007096",
"&$ c #9D009BCF",
"&% c #9300A6DE",
"&& c #CE00769E",
"&' c #FD076888",
"&( c #FF68C7E8",
"&) c #FC2A8BAC",
"&* c #FC1E7F9F",
"&+ c #FF6FCFEF",
"&, c #FF69C8E9",
"&- c #FF1A7A9A",
"&. c #31000000",
"&/ c #B8000000",
"&0 c #AE008CBB",
"&1 c #AE008DBC",
"&2 c #B60086B3",
"&3 c #F1006587",
"&4 c #FF2F8FAF",
"&5 c #FF62C1E2",
"&6 c #FF73D2F3",
"&7 c #FF78D8F8",
"&8 c #FF7EDEFE",
"&9 c #FF3292B2",
"&: c #67000000",
"&; c #CA000000",
"&< c #A4006B8F",
"&= c #8200BCFB",
"&> c #A30095C8",
"&? c #DF006D92",
"&@ c #FB157697",
"&A c #FF79D9F9",
"&B c #FF76D6F6",
"&C c #E500151C",
"&D c #8A000000",
"&E c #A7006587",
"&F c #C4007CA6",
"&G c #F7127596",
"&H c #FF57B7D7",
"&I c #FF7DDCFD",
"&J c #FF1F7F9F",
"&K c #FF58B8D8",
"&L c #FF71D1F1",
"&M c #FA117394",
"&N c #B30088B6",
"&O c #DF001922",
"&P c #8D00ADE7",
"&Q c #DA08789D",
"&R c #FF68C8E8",
"&S c #FF2484A4",
"&T c #FD056686",
"&U c #F42387A8",
"&V c #ED137A9D",
"&W c #8A00B1EC",
"&X c #E4001218",
"&Y c #9E000000",
"&Z c #C5000000",
"&[ c #BC00455C",
"&\ c #CA037CA5",
"&] c #FD3495B5",
"&^ c #E3006B8F",
"&_ c #A90090C1",
"&` c #F4000406",
"&a c #80000000",
"&b c #C1003D51",
"&c c #B90084B0",
"&d c #FF127292",
"&e c #FF65C5E5",
"&f c #F965C7E8",
"&g c #FF0D6D8D",
"&h c #BA0083AF",
"&i c #C9003040",
"&j c #37000000",
"&k c #C1000000",
"&l c #DD006E93",
"&m c #FF0B6B8B",
"&n c #E1006D91",
"&o c #B9004961",
"&p c #FD000102",
"&q c #F0000B0E",
"&r c #AF008BBA",
"&s c #8C00AEE9",
"&t c #5A000000",
"&u c #D4002633",
"&v c #CF002C3B",
"&w c #5C000000",
"&x c #73000000",
"&y c #25000000",
"&z c #DE001D27",
"&{ c #BF004156",
"&| c #99007FAA",
"&} c #8400B3EF",
"'  c #8400B9F7",
"'! c #F7000608",
"'# c #EE000000",
"'$ c #50000000",
"'% c #3F000000",
"'& c #EF000000",
"'' c #FC000203",
"'( c #FA000304",
"') c #F5000709",
"'* c #ED000C10",
"'+ c #E9000F14",
"', c #E200151D",
"'- c #E100171F",
"'. c #DF001B24",
"'/ c #DD001D27",
"'0 c #A1006F94",
"'1 c #A500688B",
"'2 c #AA006081",
"'3 c #9A007EA8",
"'4 c #8900A5DD",
"'5 c #AE005876",
"'6 c #29000000",
"'7 c #24000000",
"'8 c #F300080B",
"'9 c #F9000406",
"': c #F8000507",
"'; c #FA000305",
"'< c #FB000304",
"'= c #2E000000",
"'> c #C4000000",
"'? c #E6000000",
"'@ c #94000000",
"'A c #2C000000",
"'B c #2B000000",
"'C c #56000000",
"'D c #A7000000",
"'E c #DA000000",
"'F c #D8000000",
"'G c #77000000",
"'H c #30000000",
/* pixels */
"                                                                                                                                ",
"                                                                                                                                ",
"                                                                                                                                ",
"                                                                                                                                ",
"                                                                                                                                ",
"                                               # # # # #                                                                        ",
"                                                               $ $                                                              ",
"                                           % & ' ( ) * + , + - . / 0 1                                                          ",
"                                     ! 2 3 4 5 6 7 7 7 7 7 7 7 8 9 : ; < =                                                      ",
"                               # > ? @ A 8 B B B 7 7 7 C C C 7 B B B 7 D E F G                                                  ",
"                           ! H I J 8 B B B B K L M N O P Q R S T B B B B B U V W                                                ",
"                       X Y Z [ B B B B \ ] ^ _ ` a b c c d a e f g h i 7 B B j k l                                              ",
"                     m n 9 B B B T o p q r s s t t t t t t t t t s u v w x B B 8 y l                                            ",
"                   z { 7 B B 7 | } c s t t t t t t t t t t t t t t t t! !!!# B B 8 *!$                                          ",
"                !%!& B B B!'!( v t t t t t t t t t t t t t t t t t t t t s!)!* B B 6 V G                                        ",
"             #!+!, B B B!-!. s t t t t t t t t t t t t t t t t t t t t t t t!/!0 B B 9!1 1                                      ",
"           #!2 7 B B B P!3 t t t t t t t t t t t t t t t t t t t t t t t t t t!4!5 B B!6!7                                      ",
"          !8 7 B B K!9!: t t t t t t t t t t t t t t t t t t t t t t t t t t t t!;!< B B!= 0                                    ",
"         G!> B B C ^ u t t t t t t t t t t t t t t t t t t t t t t t t t t t t t!?!@ 7 B 8!A                                    ",
"         . B B!B ^ s t t t t t t t t t!:!3 b s t t t t t t t t t t t t t t t t t t!C!D B B!E!F                                  ",
"        !G B B o!  t t t t t t t t d!H!I P!J!K!L u t t t t t t t t t t t t t t t t t!M!N B B!O!P                                ",
"      !Q!R B B!S t t t t t t t t!T!U!V!W!X!Y!Z![!\ s t t t t t t t t t t t t t t t t s!] B B 7!^!_                              ",
"      !` 8 B!'!a t t t t t t t s!b!c!d!e!f!g!h!i!j!k t t t t t t t t t t t t t t t t t r!l B B!R!m                              ",
"      !n 7 B!o!  t t t t t t t b N!p!q!r!s!s!t!u!v!w s t t t t t t t t t t t t t t t t t!x!y B B!z m                            ",
"       + 7 B!{ t t t t t t t t!|!}# #!!s!e!s!s###$#%#& t t t t t t t!:!3#' u t t t t t t t#(#) B B!= %                          ",
"      #* B 7!( t t t t t t t t#+#,#-!t!e B!e!s!q#.#/#0 t t t t t#'#1#2#3#4#5#6#7 t t t t t t#8#9 B B#:!_                        ",
"      #; B 7 g t t t t t t t t#<#=#>#?!s!e!s#@#A#B#C!  t t t t#<#D#E!W!X!Y!Z#F#G u t t t t t s#H 9 B#I#J                        ",
"      #K B 7#L t t t t t t t t!:#M#N#O#P#Q#R#S#T#U#V t t t t u#W#X#Y!e!f!g!h!i#Z!L t t t t t t#[#\ B 7#] #                      ",
"      #^ B B#_ t t t t t t t t t!a#`#a#b#c#d#e#f#g!  t t t t!T#h!p!q!r!s!s!t!u!v#i s t t t t t t#j#k B 9!%                      ",
"    !_!6 B B#l t t t t t t t t t t#m#n#o S#p#q#r#s t t t t t!k!}# #!!s!e!s!s###$!{ c t t t t t t s#t B B#u!_                    ",
"    #v#w B B#x t t t t t t t t t t t u#y#z!a c u t t t t t t e#,#-!t!e B!e!s!q#.#{ d t t t t t t t#|#} B j$                     ",
"     2!R B B$! t t t t t t t t t t t t t t t t t t t t t t t!3 M#>#?!s!e!s#@#A#B$# u t t t t t t t u$$ B B#u X                  ",
"    $% 6 B B!J t t t t t t t t t t t t t t t t t t t t t t t#7 ^$&#O#P#Q#R#S#T$'$( t t t t t t t t t$) 8 B j!^                  ",
"    $* 8 B B$+ s t t t t t t t t t t t t t t t t t t t t t t t$,$-#N#b#c#d#e$.$/ u t t t t t t t t t! $0 B B$1 #                ",
"   X$2 B B!B#g t t t t t t t t t t t t t t t t t t t t t t t t t#<$3 P$4$5$6$7!  t t t t t t t t t t t$8 T B 9$9                ",
"   0$: B 7$;#+ t t t t t t t t t t t t t t t t t t t t t t t t t t s c$< v!: s t t t t t t t t t t t t$=$> B 7$?                ",
"  #J$@ B$A$B#0 t t t t t t t t t t t t t t t t t t t t t t t t t t t t t t t t t t t t t t t t t t t t t$C 7 B!E G              ",
"  $D$E B$F$G u t t t t t t t t t t t t t t t t t t t t t t t t t t t t t t t t t t t t t t t t t t t t t$H$I B [!7              ",
"  !`$J 7$K$L t u t t t t t t t t t t t t t t t t t t$M$N$O t t t t t t t t t t t t t t t t t t t t t t t!:$P B 7$Q              ",
"  $R 8 8$S v t#& t t t t t t t t t t t t t t t t t$T$U$V$W$X$Y t t t t t t t t t t t t t t t t t t t t t t$Z 7 B$[ X            ",
"  $? 7 [$\ d t$= t t t t t t t t t t t t t t t t$]$^$_$`$a$b$c$d t t t t t t t t t t t t t t t t t t t t t _ T B!R$e            ",
" #$f 7$g$h r s b t t t t t t t t t t t t t t t$i$j$k$l$m$m$n$o$p$M t t t t t t t t t t t t t t t t t t t t b$q B 7$r            ",
" W#; 7$s$!!: s!  t t t t t t t t t t t t t t t$t$u$v$w$x$y$y$z${$| t t t t t t t t t t t t t t t t t t t t t!{ B B$} #          ",
" 0$} 7% !9!  s t t t t t t t t t t t t t t t%!%#%$%%%&%'%(%)%*%+%, t t t t t t t t t t t t t t t t t t t t t%- C B$E l          ",
"%.%/ B!,%0 u u t t t t t t t t t t t t t t$|%1%2%3%4%5%6%($y%7%8%9%:$M t t t t t t t t t t t t t t t t t t t%;%< B 6%=          ",
"%>$1 B 7%? s u t t t t t t t t t t t t t t%@%A%B$y$y$y$y%C%D%E%F%G%H%I%J%K t t t t%L%M$T t t t t t t t t t t u%N B B%O          ",
" G { B B#r s s t t t t t t t t t t t t t t%P%Q%R$y$y%S%T%U%V%W%X%Y%Z%[%\%]%^ t t$d%_%`%a%b t t t t t t t t t t%c B B%d          ",
"  %e B B%f s t t t t t t t t t t t t t t t%g%h%i%j%)%k%l%#%m%#%n%o$y$w%p%q%r%s%t%u%v%w%x%y%z%K t t t t t t t t%{ T B 5 %        ",
"  %| B B!\ t t t t t t t t t t t t t t t t t%}& %n%[&!&#&$ t&%&&&'%R%C$y&(%B&)&*%U&+$y&,&-$]$| t t t t t t t t!|%< B$J&.        ",
"  &/ B B$7 t t t t t t t t t t t t t t t t t t%J&0&1%}$M t t t%g&2&3&4&5$y$m&6&7$y$y$y&8&9%I$N t t t t t t t t#&$4 B 6&:        ",
"  &; B B&< t t t t t t t t t t t t t t t t t t t&=%K t t t t t t t&>&?&@$v%Y$y&A%)&8$y&B&4%+$M t t t t t t t t t&C B 7&D        ",
"  $: B B&E t t t t t t t t t t t t t t t t t t t t t t t t t t t t t%M&F&G&H&I%B&J&K&L%7&M&N t t t t t t t t t t&O B B )        ",
"  !G B B%- t t t t t t t t t t t t t t t t t t t t t t t t t t t t t t&P&Q$k$y&R&S&T&U&V%1&W t t t t t t t t t t&X B B&Y        ",
"  &Z B 7&[ t t t t t t t t t t t t t t t t t t t t t t t t t t t t t t$|&\&4$y$x&]&^&N&_&P t t t t t t t t t t#&&` B 8&a        ",
"  #; B 7&b t t t t t t t t t t t t t t t t t t t t t t t t t t t t t t t&c&d&e&f&g&h t t t t t t t t t t t t u&i 7 B$J&j        ",
"  &k B 7 w t t t t t t t t t t t t t t t t t t t t t t t t t t t t t t t&%&l%n&m&n&% t t t t t t t t t t t s&o&p B B&; X        ",
"  %| B B&q b t t t t t t t t t t t t t t t t t t t t t t t t t t t t t t t&%&r$U&s t t t t t t t t t t t! &[ x B B 5 H          ",
"  &t 6 B 7&u#& t t t t t t t t t t t t t t t t t t t t t t t t t t t t t t t t t t t t t t t t t t t t d&v T B B$J&w #          ",
"  !$$} B B 7#%!3 t t t t t t t t t t t t t t t t t t t t t t t t t t t t t t t t t t t t t t t t t#0!b$q 7 B B$J&x!_            ",
"    &y J B B B!#&z&{&|&} t t t t t t t t t t t t t t t t t t t t t t t t t t' %g t t t t t t b!.!I'! C B B B'#'$ #              ",
"      '%'& B B B B 7'''(!#')'*'+','-'.'.!J'/$C'0&|$('1'2'1'3!k a#7!T#7 t t t t t s'4!|'5&v P!-&p 7 B B B 6&k'6                  ",
"        '7#* 9 7 B B B B B B B B B B B B B B B B B B B B B B 7 x'8')'9$;$;'! \ \':';'< C 7 B B B B 7!R%d&t !                    ",
"           1'= V'>'? 9!R j 6 6 8 8 7 7 B B B B B B B B B B B B B B B B B B B B B B B B B B B 8$J!z'@'A #                        ",
"                   ='B$%'C&: .&x V$?'D'E$J 6 6 j j [ [!R [ 8 7 B 7 [!R!R!R!R!R!R!R!R 9 U'F ,'G'H !                              "
};