/* XPM */
static char *result[] = {
/* columns rows colors chars-per-pixel */
"64 64 94 2 ",
"   c #000000",
".  c #000609",
"X  c #00090C",
"o  c #010E12",
"O  c #021115",
"+  c #0D1112",
"@  c #00141B",
"#  c #0E1618",
"$  c #141616",
"%  c #141718",
"&  c #001A23",
"*  c #001E28",
"=  c #00212C",
"-  c #1F2121",
";  c #002632",
":  c #002D3C",
">  c #222323",
",  c #2B2C2C",
"<  c #3F3F3F",
"1  c #003243",
"2  c #00374A",
"3  c #00394D",
"4  c #003D51",
"5  c #004157",
"6  c #00445B",
"7  c #004B65",
"8  c #004F69",
"9  c #00516D",
"0  c #005470",
"q  c #005876",
"w  c #005B7A",
"e  c #4B4B4B",
"r  c #535353",
"t  c gray35",
"y  c gray39",
"u  c gray42",
"i  c #797979",
"p  c #006385",
"a  c #016789",
"s  c #02698C",
"d  c #0A6C8D",
"f  c #016E93",
"g  c #017196",
"h  c #0E7192",
"j  c #01749B",
"k  c #08779B",
"l  c #0F789B",
"z  c #147595",
"x  c #117C9F",
"c  c #1C7C9D",
"v  c #017BA4",
"b  c #007FAA",
"n  c #0082AE",
"m  c #1980A3",
"M  c #0086B4",
"N  c #0089B7",
"B  c #008BBA",
"V  c #2485A5",
"C  c #2A8AAB",
"Z  c #3494B4",
"A  c #3B9BBB",
"S  c #008FC0",
"D  c #0093C4",
"F  c #0096C9",
"G  c #009ACE",
"H  c #009ED3",
"J  c #00A0D6",
"K  c #00A4DC",
"L  c #00AAE3",
"P  c #00AEE9",
"I  c #00B1EC",
"U  c #00B6F4",
"Y  c #00B9F7",
"T  c #00BFFF",
"R  c #45A5C5",
"E  c #4AABCB",
"W  c #53B3D3",
"Q  c #5CBCDC",
"!  c #60BFE0",
"~  c #64C4E4",
"^  c #6BCAEB",
"/  c #75D4F5",
"(  c #7EDDFE",
")  c #939393",
"_  c #9A9A9A",
"`  c gray64",
"'  c #BDBDBD",
"]  c gray80",
"[  c #D9D9D9",
"{  c #E4E4E4",
"}  c #EAEAEA",
"|  c #F3F3F3",
" . c #FDFDFD",
".. c None",
/* pixels */
"................................................................................................................................",
"................................................................................................................................",
"................................................................................................................................",
"................................................................................................................................",
"................................................................................................................................",
"..............................................                    ..............................................................",
"......................................                                    ......................................................",
"................................                                            ....................................................",
"............................                X & : 5 9 9 w s 9 : & .           ..................................................",
"........................            . O 1 s L T T T T T T T T T T I g @         ................................................",
"....................            X 2 M T T T T T T T T T T T T T T T T U &       ................................................",
"..................          X 6 K T T T T T T T T T T T T T T T T T T T b         ..............................................",
"................          1 H T T T T T T T T T T T T T T T T T T T T T Y ;       ..............................................",
"................      . v T T T T T T T T T T T T T T T T T T T T T T T T M       ..............................................",
"..............      . v T T T T T T T T T T T T T T T T T T T T T T T T T T O       ............................................",
"............        p T T T T T T T T T T T T T T T T T T T T T T T T T T T q       ............................................",
"............      = T T T T T T T U K P T T T T T T T T T T T T T T T T T T I o       ..........................................",
"..........      . J T T T T T P w ; @ & 2 n Y T T T T T T T T T T T T T T T T 7       ..........................................",
"..........      2 T T T T T K 3 + e u y , @ a T T T T T T T T T T T T T T T T L o       ........................................",
"..........    . F T T T T T 7 $ i [ { { ' e O M T T T T T T T T T T T T T T T T w         ......................................",
"........      * T T T T T L @ t {  . . . .' - 4 T T T T T T T T T T T T T T T T U ;         ....................................",
"........      q T T T T T B . _  . .[  . .{ r = I T T T T T T T T T T T T T T T T K &         ..................................",
"........    . F T T T T T n   `  .[   [  .{ t * P T T T T T T T T T T T T T T T T T G X         ................................",
"......      o Y T T T T T J o u |  .[  . .] , 1 Y T T T T T T T T T T T T T T T T T T v X         ..............................",
"......      = T T T T T T Y 1 - _ |  .| [ u X g T T T T T T T T T T U K K T T T T T T T D o       ..............................",
"......      : T T T T T T T D * % u ` ) e # 6 Y T T T T T T T T K 9 = O @ : j Y T T T T T v .       ............................",
"......      1 T T T T T T T T F 3 O . . & w U T T T T T T T T J 1 + < u y , O w Y T T T T T s .       ..........................",
"......      3 T T T T T T T T T Y K N D I Y T T T T T T T T Y 6 $ i [ } { ' e O n T T T T T T 3         ........................",
"......      4 T T T T T T T T T T T T T T T T T T T T T T T K O t {  . . . .' > 4 T T T T T T Y &       ........................",
"......      4 T T T T T T T T T T T T T T T T T T T T T T T M . _  . .[  . .{ r * P T T T T T T B         ......................",
"......      2 T T T T T T T T T T T T T T T T T T T T T T T M . `  .[   [  .{ t = P T T T T T T T 1       ......................",
"......      : T T T T T T T T T T T T T T T T T T T T T T T K O u |  .[  . .] , 2 Y T T T T T T T H .       ....................",
"......      & T T T T T T T T T T T T T T T T T T T T T T T Y 3 % _ }  .| [ u + k T T T T T T T T T 8       ....................",
"........    . U T T T T T T T T T T T T T T T T T T T T T T T G ; > u ` ) e # 8 T T T T T T T T T T U X       ..................",
"........    . D T T T T T T T T T T T T T T T T T T T T T T T T J 6 @ . X = a Y T T T T T T T T T T T 8       ..................",
"........      s T T T T T T T T T T T T T T T T T T T T T T T T T T I F H Y T T T T T T T T T T T T T K .       ................",
"........      0 T T T T T T T T T T T T T T T T T T T T T T T T T T T T T T T T T T T T T T T T T T T T : .     ................",
"........      9 T T T T T T T T T T T T T T T T T T T T T T T T T T T T T T T T T T T T T T T T T T T T v       ................",
"........    . 0 T T T T T T T T T T T T T T T T T T T T T T T I D n D G L Y T T T T T T T T T T T T T T U O       ..............",
"........  . . q T T T T T T T T T T T T T T T T T T T T T T P j h V z l j J T T T T T T T T T T T T T T T :       ..............",
"........      a T T T T T T T T T T T T T T T T T T T T U N g d A ^ / ! C a J T T T T T T T T T T T T T T a       ..............",
"........      D T T T T T T T T T T T T T T T T T T T I v d C C V Q ( ( ~ z N T T T T T T T T T T T T T T P .       ............",
"........    X U T T T T T T T T T T T T T T T T T T T B m E ( ( W E ( ( / z D T T T T T T T T T T T T T T T =       ............",
"......      & T T T T T T T T T T T T T T T T T T T T k C ( ( ( ( ( ( ( E f H T T T T T T T T T T T T T T T 8       ............",
"......      1 T T T T T T T T T T T T T T T T T T T Y n m ( ( ( ( ( ( ( c n Y T T T T T T T T T T T T T T T D       ............",
"......      p T T T T T T T T T T T T T T T T T T T T B d A ~ ! E W ! / V g U T T T T T T T T T T T T T T T Y @       ..........",
"......    . K T T T T T T T T T T T T T T T T T T T T T M k a h s a z ! W d B T T T T T T T T T T T T T T T T :       ..........",
"....      * T T T T T T T T T T T T T T T T T T T T T T U K K G J Y g Z ( Z g K T T T T T T T T T T T T T T T 9       ..........",
"....      6 T T T T T T T T T T T T T T T T T T T T T T T T T T T T B d ^ ^ z g I T T T T T T T T T T T T T T N .     ..........",
"....      n T T T T T T T T T T T T T T T T T T T T T T T T T T T T L f Z ( W d N T T T T T T T T T T T T T T I X     ..........",
"....    X U T T T T T T T T T T T T T T T T T T T T T T T T T T T T T M d ^ ( A f K T T T T T T T T T T T T T T @       ........",
"..      * T T T T T T T T T T T T T T T T T T T T T T T T T T T T T T P f A ( ^ c g F H F H U T T T T T T T T T &       ........",
"..      : T T T T T T T T T T T T T T T T T T T T T T T T T T T T T T T M z ~ ( ! V x d d k B T T T T T T T T T O       ........",
"..      3 T T T T T T T T T T T T T T T T T T T T T T T T T T T T T T T L s R ( ( / W Q ~ Z s G T T T T T T T I .       ........",
"..      4 T T T T T T T T T T T T T T T T T T T T T T T T T T T T T T T I j A ( ( ( ( ( ( ^ z B T T T T T T Y 1       ..........",
"..      : T T T T T T T T T T T T T T T T T T T T T T T T T T T T T T T D x W ( R Z / ( ( / z G T T T T T T 7         ..........",
"..      X L T T T T T T T T T T T T T T T T T T T T T T T T T T T T T T M c / ( R z Q ( / R f L T T T T Y 6         ............",
"....      ; P T T T T T T T T T T T T T T T T T T T T T T T T T T T T T M z / / A p V A C h B Y T T T L :         ..............",
"....        = K T T T T T T T T T T T T T T T T T T T T T T T T T T T T F a C C d b n v g M T T T P 7 .         ................",
"......        . = 5 n I T T T T T T T T T T T T T T T T T T T T T T T T T F j g D Y T P U T L f ; .           ..................",
"........                . . X O @ & & & & * : f b v a p a b M K Y L Y T T Y U T T K B q : @ .               ....................",
"..........                                                      X .   . . . . . .                       ........................",
"..............                                                                                      ............................",
"................................                                                            ...................................."
};
