/* XPM */
static char *result[] = {
/* columns rows colors chars-per-pixel */
"64 64 570 2 ",
"   c #00000000",
" ! c #06000000",
" # c #0C000000",
" $ c #3B000000",
" % c #72000000",
" & c #A0000000",
" ' c #C0000000",
" ( c #CF000000",
" ) c #DC000000",
" * c #E7000000",
" + c #EF000000",
" , c #E9000000",
" - c #D4000000",
" . c #A2000000",
" / c #6F000000",
" 0 c #38000000",
" 1 c #0B000000",
" 2 c #0D000000",
" 3 c #60000000",
" 4 c #AC000000",
" 5 c #DD000000",
" 6 c #F8000000",
" 7 c #FD000000",
" 8 c #FE000000",
" 9 c #FF000000",
" : c #F9000000",
" ; c #E3000000",
" < c #87000000",
" = c #1A000000",
" > c #01000000",
" ? c #02000000",
" @ c #37000000",
" A c #A6000000",
" B c #EC000000",
" C c #FE000001",
" D c #FD000001",
" E c #FD000102",
" F c #FC000102",
" G c #E5000000",
" H c #44000000",
" I c #03000000",
" J c #41000000",
" K c #CA000000",
" L c #FC000203",
" M c #F2000A0D",
" N c #DF001A23",
" O c #D0002C3A",
" P c #BD004259",
" Q c #B400506B",
" R c #AD005A78",
" S c #A500688B",
" T c #B300516C",
" U c #CF002C3B",
" V c #E0001821",
" W c #F000070A",
" X c #EA000000",
" Y c #18000000",
" Z c #05000000",
" [ c #49000000",
" \ c #F9000304",
" ] c #EA001015",
" ^ c #CC003041",
" _ c #A400698D",
" ` c #8700ABE4",
" a c #8000BFFF",
" b c #8400B1ED",
" c c #9F006F95",
" d c #D500161D",
" e c #A4000000",
" f c #F200080B",
" g c #C8003446",
" h c #950087B5",
" i c #8100BCFB",
" j c #8200B6F3",
" k c #D7001821",
" l c #F4000000",
" m c #1D000000",
" n c #09000000",
" o c #8C000000",
" p c #FB000000",
" q c #EF00090C",
" r c #BA00465E",
" s c #8800A7DF",
" t c #9A007DA7",
" u c #FA000203",
" v c #93000000",
" w c #82000000",
" x c #FC000000",
" y c #F8000203",
" z c #C7003243",
" { c #8B00A0D6",
" | c #8000BDFD",
" } c #D4002431",
"!  c #15000000",
"!! c #5F000000",
"!# c #FA000000",
"!$ c #F4000608",
"!% c #9D0078A0",
"!& c #970083AF",
"!' c #70000000",
"!( c #1E000000",
"!) c #E6000000",
"!* c #F8000406",
"!+ c #9B007CA6",
"!, c #E7001319",
"!- c #D7000000",
"!. c #04000000",
"!/ c #A7006486",
"!0 c #AE005876",
"!1 c #FC000001",
"!2 c #30000000",
"!3 c #F5000000",
"!4 c #D900222D",
"!5 c #8200B7F5",
"!6 c #8A00A3DA",
"!7 c #8500AFE9",
"!8 c #EC000D12",
"!9 c #CC000000",
"!: c #08000000",
"!; c #F400080B",
"!< c #8C009ED3",
"!= c #8600ADE8",
"!> c #AB005D7D",
"!? c #D4002734",
"!@ c #E400161E",
"!A c #E1001A23",
"!B c #C500384B",
"!C c #980081AC",
"!D c #B7004B64",
"!E c #56000000",
"!F c #19000000",
"!G c #EB000000",
"!H c #C6003649",
"!I c #8800A8E1",
"!J c #C500394D",
"!K c #FB0D1011",
"!L c #FF3F3F3F",
"!M c #FF6F6F6F",
"!N c #FF636363",
"!O c #FF282828",
"!P c #ED031218",
"!Q c #A6006688",
"!R c #ED000E13",
"!S c #22000000",
"!T c #FA000406",
"!U c #8F0095C7",
"!V c #BA00475F",
"!W c #FC141718",
"!X c #FF797979",
"!Y c #FFD9D9D9",
"!Z c #FFEAEAEA",
"![ c #FFE6E6E6",
"!\ c #FFBFBFBF",
"!] c #FF4C4C4C",
"!^ c #ED031217",
"!_ c #C8000000",
"!` c #10000000",
"!a c #C1000000",
"!b c #DD001E28",
"!c c #E700141B",
"!d c #FF585858",
"!e c #FFE4E4E4",
"!f c #FFFEFEFE",
"!g c #FFFFFFFF",
"!h c #FFFBFBFB",
"!i c #FFBABABA",
"!j c #FE222323",
"!k c #BE004157",
"!l c #8300B6F3",
"!m c #D6002430",
"!n c #B2000000",
"!o c #12000000",
"!p c #94008AB8",
"!q c #F9000507",
"!r c #FF9B9B9B",
"!s c #FFFAFAFA",
"!t c #FFE2E2E2",
"!u c #FF535353",
"!v c #DA00212C",
"!w c #8500B0EB",
"!x c #8900A5DD",
"!y c #E3001820",
"!z c #98000000",
"!{ c #4A000000",
"!| c #8F0096C9",
"!} c #FFA5A5A5",
"#  c #FF5A5A5A",
"#! c #DC001E28",
"## c #8600ACE6",
"#$ c #8D009BCF",
"#% c #F2000B0E",
"#& c #9F000000",
"#' c #0A000000",
"#( c #8D000000",
"#) c #EC000F14",
"#* c #8100BAF9",
"#+ c #EF000C11",
"#, c #FF6A6A6A",
"#- c #FFF1F1F1",
"#. c #FFFDFDFD",
"#/ c #FFCCCCCC",
"#0 c #FF2E2F2F",
"#1 c #CA003344",
"#2 c #F200090C",
"#3 c #86000000",
"#4 c #B0000000",
"#5 c #DB00202B",
"#6 c #FE1F2121",
"#7 c #FF999999",
"#8 c #FFF0F0F0",
"#9 c #FFF9F9F9",
"#: c #FFF7F7F7",
"#; c #FFDBDBDB",
"#< c #FF6B6B6B",
"#= c #F7070E11",
"#> c #A1007096",
"#? c #8700A9E2",
"#@ c #910090C1",
"#A c #6D000000",
"#B c #BB000000",
"#C c #D0002B39",
"#D c #910092C3",
"#E c #DE011E27",
"#F c #FE1F2020",
"#G c #FF686868",
"#H c #FFA1A1A1",
"#I c #FF939393",
"#J c #FF4A4A4A",
"#K c #F70D1315",
"#L c #B4004F6A",
"#M c #EC001015",
"#N c #E9001219",
"#O c #CD002F3F",
"#P c #9F00749B",
"#Q c #8200B9F7",
"#R c #F5000709",
"#S c #F3000000",
"#T c #3C000000",
"#U c #C2000000",
"#V c #CA003242",
"#W c #C600374A",
"#X c #EB001116",
"#Y c #F6000609",
"#Z c #F400090C",
"#[ c #E0001A23",
"#\ c #AE005A78",
"#] c #CC003040",
"#^ c #FC0D1010",
"#_ c #F0031014",
"#` c #AD005B7A",
"#a c #A3006B8F",
"#b c #E2000000",
"#c c #1C000000",
"#d c #C3000000",
"#e c #C2003C50",
"#f c #950089B7",
"#g c #BE004258",
"#h c #FD141616",
"#i c #FF787878",
"#j c #F0030F13",
"#k c #C2003B4E",
"#l c #9B000000",
"#m c #C1003D51",
"#n c #E9001218",
"#o c #C2003D51",
"#p c #DD001921",
"#q c #F6000000",
"#r c #94008BBA",
"#s c #960085B2",
"#t c #DC001F29",
"#u c #47000000",
"#v c #D1002A39",
"#w c #EE000E13",
"#x c #C7003547",
"#y c #EE00080B",
"#z c #E1001922",
"#{ c #C4003A4E",
"#| c #FD1F2121",
"#} c #F5071013",
"$  c #B6004C66",
"$! c #55000000",
"$# c #8D009ACE",
"$$ c #D801242F",
"$% c #F50E1618",
"$& c #B5004E68",
"$' c #ED000B0F",
"$( c #CB000000",
"$) c #FA000305",
"$* c #900093C4",
"$+ c #BC00445A",
"$, c #F0000C11",
"$- c #D900212C",
"$. c #A600678A",
"$/ c #B5004D66",
"$0 c #26000000",
"$1 c #FD000203",
"$2 c #F000080B",
"$3 c #96000000",
"$4 c #E8000000",
"$5 c #FE000102",
"$6 c #B1005470",
"$7 c #CD002E3E",
"$8 c #9B007BA4",
"$9 c #3E000000",
"$: c #8A00B1EC",
"$; c #A70092C3",
"$< c #B70085B2",
"$= c #A50094C5",
"$> c #9E009ACE",
"$? c #9100A8E1",
"$@ c #8200BCFB",
"$A c #EC000E13",
"$B c #B200536F",
"$C c #9102AAE3",
"$D c #CE0278A0",
"$E c #FE0F7090",
"$F c #FD2384A4",
"$G c #FF117191",
"$H c #F10E7395",
"$I c #D101769D",
"$J c #99009FD5",
"$K c #CE002D3C",
"$L c #DB000000",
"$M c #8500B7F5",
"$N c #B30088B6",
"$O c #DA007095",
"$P c #F8096B8C",
"$Q c #FF3A9ABA",
"$R c #FF6CCCEC",
"$S c #FF75D4F5",
"$T c #FF5FBFDF",
"$U c #FF2888A8",
"$V c #EA00688B",
"$W c #9A009FD4",
"$X c #A500698C",
"$Y c #2F000000",
"$Z c #FA000304",
"$[ c #92008FC0",
"$\ c #8C00AEE9",
"$] c #C4007DA7",
"$^ c #FC0A6B8B",
"$_ c #FE2989AA",
"$` c #FF2989A9",
"$a c #FF2282A2",
"$b c #FF60BFE0",
"$c c #FF7FDEFF",
"$d c #FF65C5E5",
"$e c #FE167696",
"$f c #AF008BBA",
"$g c #F500080B",
"$h c #81000000",
"$i c #78000000",
"$j c #F1000B0E",
"$k c #8300B4F1",
"$l c #B0008AB9",
"$m c #EE1980A3",
"$n c #FF4EAECE",
"$o c #FE7DDDFE",
"$p c #FF54B4D4",
"$q c #FE49AACA",
"$r c #FC7DDEFF",
"$s c #FF77D7F7",
"$t c #FF137393",
"$u c #8100BDFD",
"$v c #CD000000",
"$w c #AA000000",
"$x c #DE001B24",
"$y c #C6007BA4",
"$z c #FC2C8DAE",
"${ c #FF79D8F9",
"$| c #FF7ADAFA",
"$} c #FE78D8F9",
"%  c #FE7EDEFF",
"%! c #FF7AD9FA",
"%# c #FF47A7C7",
"%$ c #E4036F93",
"%% c #9800A0D6",
"%& c #F2000000",
"%' c #8400B9F7",
"%( c #C0007FAA",
"%) c #FF1F7F9F",
"%* c #FF7BDBFB",
"%+ c #FF7DDCFD",
"%, c #FF1C7C9C",
"%- c #BB0083AF",
"%. c #FB000305",
"%/ c #51000000",
"%0 c #25000000",
"%1 c #FA096B8C",
"%2 c #FF64C3E4",
"%3 c #FF50B0D0",
"%4 c #FF53B3D3",
"%5 c #FF60C0E0",
"%6 c #FF77D6F7",
"%7 c #FF2383A3",
"%8 c #DB027297",
"%9 c #8904B7F3",
"%: c #E800131A",
"%; c #7D000000",
"%< c #B1008AB8",
"%= c #DB047399",
"%> c #F9026586",
"%? c #FB0C6D8E",
"%@ c #E9046C90",
"%A c #EE006689",
"%B c #FF167696",
"%C c #F5076B8C",
"%D c #AB0291C1",
"%E c #CF002D3C",
"%F c #C5000000",
"%G c #8600B6F3",
"%H c #9300A6DE",
"%I c #9500A4DB",
"%J c #9F0099CD",
"%K c #DD006E93",
"%L c #FF3292B2",
"%M c #FF3696B6",
"%N c #E2026E93",
"%O c #F1000000",
"%P c #BD00435A",
"%Q c #AD008DBC",
"%R c #FC0A6B8C",
"%S c #FF66C6E6",
"%T c #FF6AC9EA",
"%U c #D300739A",
"%V c #8900B2EE",
"%W c #31000000",
"%X c #FC000304",
"%Y c #980082AE",
"%Z c #8E00ACE5",
"%[ c #E1006C91",
"%\ c #FF3595B5",
"%] c #FF7EDDFE",
"%^ c #F6076B8C",
"%_ c #B20089B7",
"%` c #67000000",
"%a c #77000000",
"%b c #B60086B3",
"%c c #FF0E6E8E",
"%d c #FF67C6E7",
"%e c #FF3D9DBD",
"%f c #E5046F92",
"%g c #E500151C",
"%h c #8A000000",
"%i c #A5000000",
"%j c #DF001B24",
"%k c #8B00AFEA",
"%l c #E4016C90",
"%m c #FF6CCBEC",
"%n c #FF1D7D9D",
"%o c #DC006F94",
"%p c #A10097CA",
"%q c #9B009DD2",
"%r c #DF001922",
"%s c #9D000000",
"%t c #BF000000",
"%u c #CE002E3D",
"%v c #FB137495",
"%w c #FF63C3E3",
"%x c #FC2687A7",
"%y c #E90F789B",
"%z c #F6096C8D",
"%{ c #F60A6D8F",
"%| c #DE08779B",
"%} c #AE008CBB",
"&  c #E4001218",
"&! c #9E000000",
"&# c #C3003A4E",
"&$ c #8F00AAE4",
"&% c #E900688C",
"&& c #FF43A3C3",
"&' c #FF7CDCFC",
"&( c #FF73D2F3",
"&) c #FF5CBCDC",
"&* c #FF65C4E5",
"&+ c #F2026789",
"&, c #F4000406",
"&- c #80000000",
"&. c #D804769C",
"&/ c #FF3999B9",
"&0 c #FF69C9E9",
"&1 c #FE177797",
"&2 c #C9003040",
"&3 c #A30095C8",
"&4 c #E6117C9F",
"&5 c #FF44A4C4",
"&6 c #FF3191B1",
"&7 c #FF72D2F2",
"&8 c #FA117293",
"&9 c #B9004961",
"&: c #AB000000",
"&; c #F0000B0E",
"&< c #FA1C7E9F",
"&= c #FF74D4F4",
"&> c #FF48A8C8",
"&? c #FF187898",
"&@ c #FF59B9D9",
"&A c #FF76D6F6",
"&B c #FF45A5C5",
"&C c #E0016E93",
"&D c #BC00455C",
"&E c #35000000",
"&F c #5A000000",
"&G c #D4002633",
"&H c #B50087B4",
"&I c #FF71D1F1",
"&J c #FE76D6F6",
"&K c #FE3A9ABA",
"&L c #F7006284",
"&M c #F82284A5",
"&N c #FF2A8AAA",
"&O c #F60D7092",
"&P c #8300BAF9",
"&Q c #5C000000",
"&R c #A40095C7",
"&S c #F304698B",
"&T c #FF2787A7",
"&U c #FD2C8DAD",
"&V c #EE056C8E",
"&W c #C3007DA7",
"&X c #BB0082AE",
"&Y c #D30579A0",
"&Z c #D7007197",
"&[ c #73000000",
"&\ c #DE001D27",
"&] c #BF004156",
"&^ c #99007FAA",
"&_ c #8400B3EF",
"&` c #D100749C",
"&a c #D6007298",
"&b c #A60093C4",
"&c c #8800B3F0",
"&d c #A2006D92",
"&e c #F7000608",
"&f c #EE000000",
"&g c #50000000",
"&h c #3F000000",
"&i c #ED000C10",
"&j c #E9000F14",
"&k c #E200151D",
"&l c #E100171F",
"&m c #DD001D27",
"&n c #A1006F94",
"&o c #AA006081",
"&p c #9A007EA8",
"&q c #8A00A1D8",
"&r c #8100BBFB",
"&s c #F600070A",
"&t c #29000000",
"&u c #24000000",
"&v c #F300080B",
"&w c #F9000406",
"&x c #F7000507",
"&y c #F8000608",
"&z c #F8000507",
"&{ c #FB000304",
"&| c #2E000000",
"&} c #84000000",
"'  c #C4000000",
"'! c #DF000000",
"'# c #94000000",
"'$ c #2C000000",
"'% c #2B000000",
"'& c #45000000",
"'' c #68000000",
"'( c #A7000000",
"') c #DA000000",
"'* c #F0000000",
"'+ c #D8000000",
"', c #B1000000",
/* pixels */
"                                                                                                                               !",
"                                                                                                                               !",
"                                                                                                                               !",
"                                                                                                                               !",
"                                                                                                                               !",
"                                         # $ % & ' ( ) * + + , - . / 0 1                                                       !",
"                                   2 3 4 5 6 7 8 9 9 9 9 9 9 9 9 9 7 : ; < = >                                                 !",
"                             ? @ A B 7 9 9 9 9 9 8 C D D E F C 9 9 9 9 9 8 G H                                                 !",
"                         I J K : 9 9 9 9 8 L M N O P Q Q R S T U V W D 9 9 9 X Y                                               !",
"                     Z [ ' : 9 9 9 8 \ ] ^ _ ` a a a a a a a a a a b c d 7 9 8 e >                                             !",
"                   ? < : 9 9 9 C f g h i a a a a a a a a a a a a a a a j k 9 9 l m                                             !",
"                 n o p 9 9 8 q r s a a a a a a a a a a a a a a a a a a a t u 9 8 v                                             !",
"               I w x 9 9 y z { | a a a a a a a a a a a a a a a a a a a a i } 8 9 X!                                            !",
"             >!!!# 9 9!$!% a a a a a a a a a a a a a a a a a a a a a a a a!& L 9 7!'                                           !",
"            !(!) 9 9!*!+ a a a a a a a a a a a a a a a a a a a a a a a a a |!, 9 9!-!.                                         !",
"          !. . 8 9 F!/ a a a a a a a a a a a a a a a a a a a a a a a a a a a!0!1 9!# [                                         !",
"          !2!3 9 9!4 | a a a a a a!5!6 ` | a a a a a a a a a a a a a a a a a!7!8 9 9!9!:                                       !",
"         > & 8 9!;!< a a a a a!=!>!?!@!A!B!C i a a a a a a a a a a a a a a a a!D C 9!#!E                                       !",
"        !F!G 9 8!H a a a a a!I!J!K!L!M!N!O!P!Q | a a a a a a a a a a a a a a a!I!R 9 9 G!S                                     !",
"         % 7 9!T!U a a a a |!V!W!X!Y!Z![!\!]!^ h a a a a a a a a a a a a a a a a!> E 9 9!_!`                                   !",
"       >!a 9 9!b a a a a a `!c!d!e!f!g!g!h!i!j!k | a a a a a a a a a a a a a a a!l!m 8 9 8!n 2                                 !",
"      !o B 9 D R a a a a a!p!q!r!s!g!Y!g!g!t!u!v!w a a a a a a a a a a a a a a a a!x!y 9 9 7!z!.                               !",
"      !{!# 9!T!| a a a a a!&!T!}!h!Y 9!Y!g!e# #!## a a a a a a a a a a a a a a a a a#$#% 9 9 7#&#'                             !",
"      #( 8 9#)#* a a a a a {#+#,#-!g!Y!g#.#/#0#1#* a a a a a a a a a a a a a a a a a a t#2 9 9 x#3!.                           !",
"      #4 8 9#5 a a a a a a!5 g#6#7#8#9#:#;#<#=#> a a a a a a a a a a!5!6#? i a a a a a a#@#+ 9 9 :#A >                         !",
"      #B 9 8#C a a a a a a a#D#E#F#G#H#I#J#K P#* a a a a a a a a#?#L!b#M#N#O#P#Q a a a a a t#R 9 9#S#T                         !",
"      #U 9 8#V a a a a a a a a!|#W#X#Y#Z#[#\!l a a a a a a a a {#]#^!L!M!N!O#_#` i a a a a a#a \ 9 9#b#c                       !",
"      #d 9 8#e a a a a a a a a a i s#f#D!7 i a a a a a a a a i#g#h#i!Y!Z![!\!]#j!C a a a a a |#k 8 9 8#l >                     !",
"      #d 9 C#m a a a a a a a a a a a a a a a a a a a a a a a!I#n!d!e!f!g!g!h!i!j#o | a a a a a#Q#p 9 9#q 0                     !",
"      #U 9 C#o a a a a a a a a a a a a a a a a a a a a a a a h!q!r!s!g!Y!g!g!t!u#5!7 a a a a a a#r y 9 9!9 ?                   !",
"      !a 9 8!B a a a a a a a a a a a a a a a a a a a a a a a#s!T!}!h!Y 9!Y!g!e# #t!= a a a a a a | z 8 9 p#u                   !",
"      !n 9 9#v a a a a a a a a a a a a a a a a a a a a a a a!6#w#,#-!g!Y!g#.#/#0#x i a a a a a a a!<#y 9 9!9 Z                 !",
"       v 8 9#z a a a a a a a a a a a a a a a a a a a a a a a#Q#{#|#7#8#9#:#;#<#}!% a a a a a a a a |$  7 9 p$!                 !",
"      !' 7 9!;!l a a a a a a a a a a a a a a a a a a a a a a a$#$$#6#G#H#I#J$%$& i a a a a a a a a a!l$' 9 9$( >               !",
"       $ : 9$)$* a a a a a a a a a a a a a a a a a a a a a a a a {$+!@ M$,$-$.#* a a a a a a a a a a a$/ D 9#q$0               !",
"       2 l 9$1 _ a a a a a a a a a a a a a a a a a a a a a a a a a |!7!U!<!5 | a a a a a a a a a a a a!6$2 9 8$3               !",
"        $4 9$5$6 a a a a a a a a a a a a a a a a a a a a a a a a a a a a a a a a a a a a a a a a a a a a$7 8 9 ;!.             !",
"         5 9$5 T a a a a a a a a a a a a a a a a a a a a a a a a a a a a a a a a a a a a a a a a a a a a$8 u 9!#$9             !",
"         5 9 D T a a a a a a a a a a a a a a a a a a a a a a a$:$;$<$=$>$?$@ a a a a a a a a a a a a a a!5$A 9 8 v             !",
"         G 9 D$B a a a a a a a a a a a a a a a a a a a a a a$C$D$E$F$G$H$I$J a a a a a a a a a a a a a a a$K 8 9$L Z           !",
"       ##S 9 F S a a a a a a a a a a a a a a a a a a a a$M$N$O$P$Q$R$S$T$U$V$W a a a a a a a a a a a a a a$X D 9 :$Y           !",
"       J p 9$Z$[ a a a a a a a a a a a a a a a a a a a$\$]$^$_$`$a$b$c$c$d$e$f a a a a a a a a a a a a a a `$g 9 8$h           !",
"      $i 7 9$j$k a a a a a a a a a a a a a a a a a a a$l$m$n$o$c$p$q$r$c$s$t$;$u a a a a a a a a a a a a a a#5 9 9$v >         !",
"      $w 8 9$x a a a a a a a a a a a a a a a a a a a a$y$z${$c$c$|$}% %!%#%$%% a a a a a a a a a a a a a a a$  C 9%&!          !",
"     I!- 9 8 g a a a a a a a a a a a a a a a a a a a%'%(%)%*$c$c$c%+$c%!%,%-$M a a a a a a a a a a a a a a a$[%. 9 x%/         !",
"    %0#q 9 E!/ a a a a a a a a a a a a a a a a a a a a$f%1$Q%2$b%3%4%5%6%7%8%9 a a a a a a a a a a a a a a a i%: 9 9#l         !",
"    %; 8 9!;!6 a a a a a a a a a a a a a a a a a a a a a%<%=%>%?%@%A%B$b$p%C%D a a a a a a a a a a a a a a a a%E 9 9 -         !",
"    %F 9 9#t | a a a a a a a a a a a a a a a a a a a a a%G%H%I%J%%$M%K%L${%M%N%H a a a a a a a a a a a a a a a$B D 9%O n       !",
"   # X 9 C%P a a a a a a a a a a a a a a a a a a a a a a a a a a a a%Q%R%S%T%B%U%V a a a a a a a a a a a a a a!p%. 9 6%W       !",
"   $ : 9%X%Y a a a a a a a a a a a a a a a a a a a a a a a a a a a a%Z%[%\%]$p%^%_ a a a a a a a a a a a a a a!w M 9 x%`       !",
"  %a 7 9$j$k a a a a a a a a a a a a a a a a a a a a a a a a a a a a a%b%c%d$c%e%f%I a a a a a a a a a a a a a a%g 9 8%h       !",
"  %i 8 9%j a a a a a a a a a a a a a a a a a a a a a a a a a a a a a a%k%l%e$c%m%n%o$=%%%p%q$M a a a a a a a a a%r 9 9%s       !",
"  %t 9 9%u a a a a a a a a a a a a a a a a a a a a a a a a a a a a a a a$<%v%w$c$b%x%y%z%{%|%} a a a a a a a a a&  9 9&!       !",
"  #U 9 8&# a a a a a a a a a a a a a a a a a a a a a a a a a a a a a a a&$&%&&&'$c&($p&)&*%M&+$> a a a a a a a!w&, 9 7&-       !",
"  #U 9 8#e a a a a a a a a a a a a a a a a a a a a a a a a a a a a a a a%V&.&/$c${%+$c$c$c&0&1$f a a a a a a i&2 8 9 6 @       !",
"  !a 9 8%u a a a a a a a a a a a a a a a a a a a a a a a a a a a a a a a&3&4%3$c&5&6%6$c$c&7&8%J$u a a a a |&9 E 9 9 K Z       !",
"  &: 9 9&; ` a a a a a a a a a a a a a a a a a a a a a a a a a a a a a a%b&<&=$c&>&?&@$c&A&B&C$? a a a a#*&D F 9 9%O&E         !",
"  &F x 9 8&G!w a a a a a a a a a a a a a a a a a a a a a a a a a a a a$u&H%B&I&J&K&L&M&/&N&O%}&P a a a!= U D 9 9 6&Q >         !",
"   2$v 9 9 8!v!6 a a a a a a a a a a a a a a a a a a a a a a a a a a a a&R&S&T&U&V&W&X&Y&Z%_$@ a a##!V$g 8 9 9 6&[ ?           !",
"    %0!G 9 9 9!*&\&]&^&_ a a a a a a a a a a a a a a a a a a a a a a a a a$;&`&a&b%' a%k&c a `&d!?&e C 9 9 9&f&g >             !",
"      &h + 9 9 9 9 8 L$Z!*#R&i&j&k&l%j%j!A&m$7&n&^!% S&o S&p h&q#Q!I#Q a a&P%G a&r!x!p!0 U!@&s E 8 9 9 9 x!a&t                 !",
"        &u#B#q 8 9 9 9 9 9 9 9 9 9 9 9 9 9 9 9 9 9 9 9 9 9 9 8 F&v#R&w&x&x&e&y&y&z$)&{ C 8 9 9 9 9 8 : -&F !                   !",
"           I&|&}' !)#q : p x x 7 7 8 8 9 9 9 9 9 9 9 9 9 9 9 9 9 9 9 9 9 9 9 9 9 9 9 9 9 9 9 7 6'!'#'$ >                       !",
" ! ! ! ! ! ! !    #''%'&!E%`''&[&}$3'(') 6 x x p p!#!# :!# 7 8 9 8!# : : : : : : : :#q'*'+',%a!2 !   ! ! ! ! ! ! ! ! ! ! ! ! ! #"
};