/* XPM */
static char *result[] = {
/* columns rows colors chars-per-pixel */
"64 64 103 2 ",
"   c #000001",
".  c #000609",
"X  c #000A0D",
"o  c #010E13",
"O  c #011115",
"+  c #0D1112",
"@  c #00141B",
"#  c #0E1618",
"$  c #141616",
"%  c #141718",
"&  c #001B24",
"*  c #001F29",
"=  c #00212C",
"-  c #1F2121",
";  c #002531",
":  c #002D3C",
">  c #222323",
",  c #2B2C2C",
"<  c #3F3F3F",
"1  c #003445",
"2  c #00374A",
"3  c #003A4D",
"4  c #003E52",
"5  c #004156",
"6  c #00445A",
"7  c #004A63",
"8  c #004F69",
"9  c #00526E",
"0  c #005774",
"q  c #005B7A",
"w  c #4B4B4B",
"e  c #535353",
"r  c gray35",
"t  c gray39",
"y  c gray42",
"u  c #797979",
"i  c #006283",
"p  c #006789",
"a  c #046A8D",
"s  c #096B8C",
"d  c #006E93",
"f  c #0C6F91",
"g  c #037196",
"h  c #0B7194",
"j  c #01749A",
"k  c #0A7599",
"l  c #05789F",
"z  c #0C789D",
"x  c #137495",
"c  c #10779A",
"v  c #147A9D",
"b  c #1D7D9D",
"n  c #017BA3",
"m  c #097DA4",
"M  c #007EA9",
"N  c #1C7FA0",
"B  c #0081AD",
"V  c #1D81A3",
"C  c #0086B4",
"Z  c #0189B6",
"A  c #008CBC",
"S  c #2484A5",
"D  c #2487A8",
"F  c #278AAB",
"G  c #2B8CAC",
"H  c #3192B2",
"J  c #3697B8",
"K  c #3B9BBB",
"L  c #008FC0",
"P  c #0093C4",
"I  c #0096C9",
"U  c #0099CD",
"Y  c #009DD2",
"T  c #00A0D6",
"R  c #00A4DB",
"E  c #00AAE3",
"W  c #00AEE9",
"Q  c #00B1ED",
"!  c #00B6F4",
"~  c #00B9F7",
"^  c #00BFFF",
"/  c #43A3C3",
"(  c #4CACCC",
")  c #54B4D4",
"_  c #5CBCDC",
"`  c #64C3E4",
"'  c #68C7E8",
"]  c #6BCBEB",
"[  c #70CFF0",
"{  c #74D3F4",
"}  c #78D7F8",
"|  c #7DDDFD",
" . c #939393",
".. c #9A9A9A",
"X. c gray64",
"o. c #BDBDBD",
"O. c gray80",
"+. c #D9D9D9",
"@. c #E4E4E4",
"#. c #EAEAEA",
"$. c #F3F3F3",
"%. c #FDFDFD",
"&. c None",
/* pixels */
"&.&.&.&.&.&.&.&.&.&.&.&.&.&.&.&.&.&.&.&.&.&.&.&.&.&.&.&.&.&.&.&.&.&.&.&.&.&.&.&.&.&.&.&.&.&.&.&.&.&.&.&.&.&.&.&.&.&.&.&.&.&.&.&.",
"&.&.&.&.&.&.&.&.&.&.&.&.&.&.&.&.&.&.&.&.&.&.&.&.&.&.&.&.&.&.&.&.&.&.&.&.&.&.&.&.&.&.&.&.&.&.&.&.&.&.&.&.&.&.&.&.&.&.&.&.&.&.&.&.",
"&.&.&.&.&.&.&.&.&.&.&.&.&.&.&.&.&.&.&.&.&.&.&.&.&.&.&.&.&.&.&.&.&.&.&.&.&.&.&.&.&.&.&.&.&.&.&.&.&.&.&.&.&.&.&.&.&.&.&.&.&.&.&.&.",
"&.&.&.&.&.&.&.&.&.&.&.&.&.&.&.&.&.&.&.&.&.&.&.&.&.&.&.&.&.&.&.&.&.&.&.&.&.&.&.&.&.&.&.&.&.&.&.&.&.&.&.&.&.&.&.&.&.&.&.&.&.&.&.&.",
"&.&.&.&.&.&.&.&.&.&.&.&.&.&.&.&.&.&.&.&.&.&.&.&.&.&.&.&.&.&.&.&.&.&.&.&.&.&.&.&.&.&.&.&.&.&.&.&.&.&.&.&.&.&.&.&.&.&.&.&.&.&.&.&.",
"&.&.&.&.&.&.&.&.&.&.&.&.&.&.&.&.&.&.&.&.&.&.&.&.&.&.&.&.&.&.&.&.&.&.&.&.&.&.&.&.&.&.&.&.&.&.&.&.&.&.&.&.&.&.&.&.&.&.&.&.&.&.&.&.",
"&.&.&.&.&.&.&.&.&.&.&.&.&.&.&.&.&.&.&.&.&.&.&.&.&.&.&.&.&.&.&.&.&.&.&.&.&.&.&.&.&.&.&.&.&.&.&.&.&.&.&.&.&.&.&.&.&.&.&.&.&.&.&.&.",
"&.&.&.&.&.&.&.&.&.&.&.&.&.&.&.&.&.&.&.&.&.&.&.&.&.&.&.&.&.&.&.&.&.&.&.&.&.&.&.&.&.&.&.&.&.&.&.&.&.&.&.&.&.&.&.&.&.&.&.&.&.&.&.&.",
"&.&.&.&.&.&.&.&.&.&.&.&.&.&.&.&.&.&.&.&.&.&.&.&.&.&.&.&.&.&.&.&.&.&.&.&.&.&.&.&.&.&.&.&.&.&.&.&.&.&.&.&.&.&.&.&.&.&.&.&.&.&.&.&.",
"&.&.&.&.&.&.&.&.&.&.&.&.&.&.&.&.&.&.&.&.&.&.&.&.&.&.&.&.&.&.&.&.&.&.&.&.&.&.&.&.&.&.&.&.&.&.&.&.      &.&.&.&.&.&.&.&.&.&.&.&.&.",
"&.&.&.&.&.&.&.&.&.&.&.&.&.&.&.&.&.&.&.&.&.&.&.&.&.&.&.&.&.              &.&.&.&.&.&.&.                    &.&.&.&.&.&.&.&.&.&.&.",
"&.&.&.&.&.&.&.&.&.&.&.&.&.&.&.&.&.&.&.&.&.&.&.&.&.&.&.          P R g     &.&.&.&.&.        ; I E W T 6     &.&.&.&.&.&.&.&.&.&.",
"&.&.&.&.&.&.&.&.&.&.&.&.&.&.&.&.&.&.&.  &.&.&.&.&.&.&.  . R ^ ^ ^       &.&.&.&.&.    3 j Y ! ~ Q W I 9     &.&.&.&.&.&.&.&.&.&.",
"&.&.&.&.&.&.&.&.&.&.&.&.&.                      &.&.&.              &.&.&.&.&.&.&.                        &.&.&.&.&.&.&.&.&.&.&.",
"&.&.&.&.&.&.&.&.&.&.&.&.      . d B P P P U T     &.&.&.&.&.&.&.&.&.&.&.&.&.&.&.&.&.&.&.&.          &.&.&.&.&.&.&.&.&.&.&.&.&.&.",
"&.&.&.&.&.&.&.&.&.&.&.&.        . . . .   .     &.&.&.&.&.&.&.&.&.&.&.            &.&.&.&.&.&.&.&.&.&.&.&.&.&.&.&.&.&.&.&.&.&.&.",
"&.&.&.&.&.&.&.&.&.&.&.&.&.&.&.        &.&.&.&.&.&.&.&.&.&.&.&.&.                    &.&.&.&.&.&.&.&.&.&.&.&.&.&.&.&.&.&.&.&.&.&.",
"&.&.&.&.&.&.&.&.&.&.&.&.&.&.&.&.&.&.&.&.&.&.&.&.&.&.&.&.&.&.&.&.    ^ ^ ^ ^ ^ ^     &.&.&.&.&.&.&.&.&.&.&.&.&.&.&.&.&.&.&.&.&.&.",
"&.&.&.&.&.&.&.&.&.&.&.                  &.&.&.&.&.&.&.&.&.&.&.&.&.                  &.&.&.&.&.&.&.&.&.&.            &.&.&.&.&.&.",
"&.&.&.&.&.&.&.&.                                        &.&.&.&.&.&.&.&.&.&.&.&.&.&.&.&.&.&.                                  &.",
"&.&.&.&.&.&.              X O o O o X                                 &.&.&.&.&.&.&.&.&.&.    : 7 p C I R E E E E U M i 1       ",
"&.&.&.&.&.        . * 0 P ! ^ ^ ^ ^ E C d 8 2 * X . .                           &.&.&.&.&.    @ 4 d P Q ^ ^ ^ ^ ^ ^ ^ ^ ^ i     ",
"&.&.&.&.        1 A ~ ^ ^ ^ ^ ^ ^ ^ ^ ^ ^ ^ ^ ^ ! R I M 9 4 = O o                   &.&.&.&.          X @ * : 1 3 3 1 : @     &.",
"&.&.&.      . i ^ ^ ^ ^ ^ ^ ^ ~ R E ^ ^ ^ ^ ^ ^ ^ ^ ^ ^ ^ ^ ^ ^ ~ U M 7 = X               &.&.&.&.&.                        &.&.",
"&.&.&.    . d ^ ^ ^ ^ ^ ^ W q ; @ & 3 B ^ ^ ^ ^ ^ ^ ^ ^ ^ ^ ^ ^ ^ ^ ^ ^ ^ ! A 5 O               &.&.&.&.&.&.&.&.&.&.&.&.&.&.&.&.",
"&.&.      5 ^ ^ ^ ^ ^ ^ E 3 + < y t , O p ^ ^ ^ ^ ^ ^ ^ ^ ^ ^ ^ ^ ^ ^ ^ ^ ^ ^ ^ ^ A 3 O             &.&.&.&.&.&.&.&.&.&.&.&.&.&.",
"&.&.    o Q ^ ^ ^ ^ ^ ^ 6 % u +.#.@.o.w O C ^ ^ ^ ^ ^ ^ ^ ^ ^ ^ ^ ^ ^ ^ ^ ^ ^ ^ ^ ^ ^ Q p & .           &.&.&.&.&.&.&.&.&.&.&.&.",
"&.      7 ^ ^ ^ ^ ^ ^ E @ r @.%.%.%.%.o.> 5 ^ ^ ^ ^ ^ ^ ^ ^ ^ ^ ^ ^ ^ ^ ^ ^ ^ ^ ^ ^ ^ ^ ^ ^ A : .         &.&.&.&.&.&.&.&.&.&.&.",
"&.    . Y ^ ^ ^ ^ ^ ^ A . ..%.%.+.%.%.@.e = Q ^ ^ ^ ^ ^ ^ ^ ^ ^ ^ ^ ^ ^ ^ ^ ^ ^ ^ ^ ^ ^ ^ ^ ^ ^ P ;           &.&.&.&.&.&.&.&.&.",
"&.    @ ! ^ ^ ^ ^ ^ ^ B . X.%.+.  +.%.@.r * E ^ ^ ^ ^ ^ ^ ^ ^ ^ ^ ^ ^ ^ ^ ^ ^ ^ ^ ^ ^ ^ ^ ^ ^ ^ ^ ^ B =         &.&.&.&.&.&.&.&.",
"&.    ; ^ ^ ^ ^ ^ ^ ^ T X y $.%.+.%.%.O., 1 ~ ^ ^ ^ ^ ^ ^ ^ ^ ^ ^ ^ ^ ^ ^ ^ ^ ^ ^ ^ ^ ^ ^ ^ ^ ^ ^ ^ ^ ~ 5       &.&.&.&.&.&.&.&.",
"&.    5 ^ ^ ^ ^ ^ ^ ^ ~ 1 > ..#.%.$.+.y + j ^ ^ ^ ^ ^ ^ ^ ^ ^ ^ ^ ^ ^ ^ ^ ^ ^ ^ ^ ^ ^ ^ ^ ~ ! ^ ^ ^ ^ ^ ^ 6       &.&.&.&.&.&.&.",
"      B ^ ^ ^ ^ ^ ^ ^ ^ A = - y X. .w # 6 ^ ^ ^ ^ ^ ^ ^ ^ ^ ^ ^ ^ ^ ^ ^ ^ ^ ^ ^ ^ ^ ^ ~ U B B A E Q ~ ^ ^ ~ 5       &.&.&.&.&.&.",
"    X W ^ ^ ^ ^ ^ ^ ^ ^ ^ I 2 O . X @ 0 ! ^ ^ ^ ^ ^ ^ ^ ^ ^ ^ ^ ^ ^ ^ ^ ^ ^ ^ ^ ^ ^ ^ P V G S f B B A R ^ ^ ~ :       &.&.&.&.&.",
"    O ^ ^ ^ ^ ^ ^ ^ ^ ^ ^ ^ ^ E Z P W ^ ^ ^ ^ ^ ^ ^ ^ ^ ^ ^ ^ ^ ^ ^ ^ ^ ^ ^ ^ ^ ^ ^ U f G ' } _ S s x B T ^ ^ Y @       &.&.&.&.",
"    = ^ ^ ^ ^ ^ ^ ^ ^ ^ ^ ^ ^ ^ ^ ^ ^ ^ ^ ^ ^ ^ ^ ^ ^ ^ ^ ^ ^ ^ ^ ^ ^ ^ ^ ^ ^ ^ ^ ^ A V ) | | | / G ( S B ~ ^ ^ B .     &.&.&.&.",
"    ; ^ ^ ^ ^ ^ ^ ^ ^ ^ ^ ^ ^ ^ ^ ^ ^ ^ ^ ^ ^ ^ ^ ^ ^ ^ ^ ^ ^ ^ ^ ^ ^ ^ ^ ^ ^ ^ ^ ^ Y B K | | } ) / | ( f Y ^ ^ ^ :       &.&.&.",
"    = ^ ^ ^ ^ ^ ^ ^ ^ ^ ^ ^ ^ ^ ^ ^ ^ ^ ^ ! R R ^ ^ ^ ^ ^ ^ ^ ^ ^ ^ ^ ^ ^ ^ ^ ^ ^ ^ ~ B V ` | | ' ` | ] V Z ^ ^ ~ I .     &.&.&.",
"    & ^ ^ ^ ^ ^ ^ ^ ^ ^ ^ ^ ^ ^ ^ ^ ^ ^ R 9 = @ @ : j ~ ^ ^ ^ ^ ^ ^ ^ ^ ^ ^ ^ ^ ^ ^ ^ R d V _ | | | | [ D B ^ ^ ^ ^ 1       &.&.",
"    O ^ ^ ^ ^ ^ ^ ^ ^ ^ ^ ^ ^ ^ ^ ^ ^ T : + < y t , O q ^ ^ ^ ^ ^ ^ ^ ^ ^ ^ ^ ^ ^ ^ ^ ^ Y k H { | { ] ( x Z ^ ^ ^ ~ U X     &.&.",
"    O ^ ^ ^ ^ ^ ^ ^ ^ ^ ^ ^ ^ ^ ^ ^ ^ 6 $ u +.#.@.o.w O B ^ ^ ^ ^ ^ ^ ^ ^ ^ ^ ^ ^ ^ ^ ^ ! B S } ` J F V n W ^ ^ ^ ! ^ 1     &.&.",
"    . W ^ ^ ^ ^ ^ ^ ^ ^ ^ ^ ^ ^ ^ ^ R @ r @.%.%.%.%.o.> 3 ^ ^ ^ ^ ^ ^ ^ ^ ^ ^ ^ ^ ^ ^ ^ T s / ] x j B A Q ^ ^ ^ ^ ~ ^ B       &.",
"    . R ^ ^ ^ ^ ^ ^ ^ ^ ^ ^ ^ ^ ^ ^ Z . ..%.%.+.%.%.@.r = Q ^ ^ ^ ^ ^ ^ ^ ^ ^ ^ ^ ^ ^ ^ B V [ H a R ^ ^ ^ ^ ^ ^ ^ ^ ^ ! @     &.",
"      A ^ ^ ^ ^ ^ ^ ^ ^ ^ ^ ^ ^ ^ ^ C . X.%.+.  +.%.@.r = E ^ ^ ^ ^ ^ ^ ^ ^ ^ ^ ^ ^ ^ U q ) { V B ^ ^ ^ ^ ^ ^ ^ ^ ^ ^ ^ 4     &.",
"      j ^ ^ ^ ^ ^ ^ ^ ^ ^ ^ ^ ^ ^ ^ R O y #.%.+.%.%.O., 2 ^ ^ ^ ^ ^ ^ ^ ^ ^ ^ ^ ^ ^ Q B S } _ s P ^ ^ ^ ^ ^ ^ ^ ^ ^ ^ ^ l       ",
"&.    d ^ ^ ^ ^ ^ ^ ^ ^ ^ ^ ^ ^ ^ ^ ~ 3 - ..#.%.$.+.y + B ^ ^ ^ ^ ^ ^ ^ ^ ^ ^ ^ ^ ^ A q _ | K g ~ ^ ^ ^ ^ ^ ^ ^ ^ ^ ^ ^ T .     ",
"&.    8 ^ ^ ^ ^ ^ ^ ^ ^ ^ ^ ^ ^ ^ ^ ^ U ; - y X. .w # 8 ! ^ ^ ^ ^ ^ ^ ^ ^ ^ ^ ^ ^ E d G | { x B ~ ^ ^ ^ ^ ^ ^ ^ ^ ^ ^ ^ E .     ",
"&.    = ^ ^ ^ ^ ^ ^ ^ ^ ^ ^ ^ ^ ^ ^ ^ ^ T 6 @ . o = p ~ ^ ^ ^ ^ ^ ^ ^ ^ ^ ^ ~ U Z B V _ | ( x I ^ ^ ^ ^ ^ ^ ^ ^ ^ ^ ^ ^ ~ o     ",
"&.    o ! ^ ^ ^ ^ ^ ^ ^ ^ ^ ^ ^ ^ ^ ^ ^ ^ ^ Q I T ! ^ ^ ^ ^ ^ ^ ^ ^ ^ ^ ^ ! B g V H _ } | H l W ^ ^ ^ ^ ^ ^ ^ ^ ^ ^ ^ ^ ~ O     ",
"&.      C ^ ^ ^ ^ ^ ^ ^ ^ ^ ^ ^ ^ ^ ^ ^ ^ ^ ^ ^ ^ ^ ^ ^ ^ ^ ^ ^ ^ ^ ^ ^ ^ Y k / ] | } | { H m W ^ ^ ^ ^ ^ ^ ^ ^ ^ ^ ^ ^ ^ @     ",
"&.&.    3 ^ ^ ^ ^ ^ ^ ^ ^ ^ ^ ^ ^ ^ ^ ^ ^ ^ ^ ^ ^ ^ ^ ^ ^ ^ ^ ^ ^ ^ ^ ^ ^ P h ) | } ( ' | K k Y ^ ^ ^ ^ ^ ^ ^ ^ ^ ^ ^ ^ ^ ;     ",
"&.&.    o Q ^ ^ ^ ^ ^ ^ ^ ^ ^ ^ ^ ^ ^ ^ ^ ^ ^ ^ ^ ^ ^ ^ ^ ^ ^ ^ ^ ^ ^ ^ ^ E d b / J b ) | ' S l T ^ ^ ^ ^ ^ ^ ^ ^ ^ ^ ^ ^ =     ",
"&.&.      d ^ ^ ^ ^ ^ ^ ^ ^ ^ ^ ^ ^ ^ ^ ^ ^ ^ ^ ^ ^ ^ ^ ^ ^ ^ ^ ^ ^ ^ ^ ^ ^ I n g i F ] | | _ V Z ! ^ ^ ^ ^ ^ ^ ^ ^ ^ ^ ^ &     ",
"&.&.&.    & ~ ^ ^ ^ ^ ^ ^ ^ ^ ^ ^ ^ ^ ^ ^ ^ ^ ^ ^ ^ ^ ^ ^ ^ ^ ^ ^ ^ ^ ^ ^ ^ ^ Q Y m K { | | ] D B ~ ^ ^ ^ ^ ^ ^ ^ ^ ^ ^ P .     ",
"&.&.&.      q ^ ^ ^ ^ ^ ^ ^ ^ ^ ^ ^ ^ ^ ^ ^ ^ ^ ^ ^ ^ ^ ^ ^ ^ ^ ^ ^ ^ ^ ^ ^ ^ ^ ~ Z V ( { { ( c P ^ ^ ^ ^ ^ ^ ^ ^ ^ ^ R =       ",
"&.&.&.&.    . A ^ ^ ^ ^ ^ ^ ^ ^ ^ ^ ^ ^ ^ ^ ^ ^ ^ ^ ^ ^ ^ ^ ^ ^ ^ ^ ^ ^ ^ ^ ^ ^ ^ R j x V x a B Q ^ ^ ^ ^ ^ ^ ^ ^ E 9 X       &.",
"&.&.&.&.      @ T ^ ^ ^ ^ ^ ^ ^ ^ ^ ^ ^ ^ ^ ^ ^ ^ ^ ^ ^ ^ ^ ^ ^ ^ ^ ^ ^ ^ ^ ^ ^ ^ ^ E A Z P R ^ ^ ^ ^ ^ ^ ^ ^ ^ Q *         &.&.",
"&.&.&.&.&.      @ B ^ ^ ^ ^ ^ ^ ^ ^ ^ ^ ^ ^ ^ ^ ^ ^ ^ ^ ^ ^ ^ ^ ^ ^ ^ ^ ^ ^ ^ ^ ^ ^ ^ ^ ^ ^ ^ ^ ^ ^ ^ ^ ! R n 4 @         &.&.&.",
"&.&.&.&.&.&.      . = 9 P ~ ^ ^ ^ ^ ^ ^ ^ ^ ^ ^ ^ ^ ^ ^ ^ ^ ^ ^ ^ ^ ^ ^ ^ ^ ^ ^ ^ ^ ^ ^ ~ E Y M j i 3 = O .               &.&.&.",
"&.&.&.&.&.&.&.          . o & : 5 0 j Z T R R R R R R R R R P n j j j j j j q 7 5 : * @ o . .                       &.&.&.&.&.&.",
"&.&.&.&.&.&.&.&.&.                      . . . . . . . . . . .       .     .                                   &.&.&.&.&.&.&.&.&.",
"&.&.&.&.&.&.&.&.&.&.&.                                                                          &.&.&.&.&.&.&.&.&.&.&.&.&.&.&.&.",
"&.&.&.&.&.&.&.&.&.&.&.&.&.&.&.&.&.&.                            &.&.&.&.&.&.&.&.&.&.&.&.&.&.&.&.&.&.&.&.&.&.&.&.&.&.&.&.&.&.&.&.",
"&.&.&.&.&.&.&.&.&.&.&.&.&.&.&.&.&.&.&.&.&.&.&.&.&.&.&.&.&.&.&.&.&.&.&.&.&.&.&.&.&.&.&.&.&.&.&.&.&.&.&.&.&.&.&.&.&.&.&.&.&.&.&.&."
};
