/* XPM */
static char *result[] = {
/* columns rows colors chars-per-pixel */
"64 64 97 2 ",
"   c #000000",
".  c #000709",
"X  c #00090C",
"o  c #010E12",
"O  c #021015",
"+  c #0D1010",
"@  c #00151C",
"#  c #0E1618",
"$  c #141616",
"%  c #001B24",
"&  c #001F29",
"*  c #00212C",
"=  c #1F2121",
"-  c #002633",
";  c #002D3C",
":  c #222323",
">  c #2B2C2C",
",  c #3F3F3F",
"<  c #003243",
"1  c #003649",
"2  c #003A4D",
"3  c #003D51",
"4  c #004156",
"5  c #00445A",
"6  c #004A64",
"7  c #004F69",
"8  c #00516C",
"9  c #005571",
"0  c #005876",
"q  c #005C7B",
"w  c #4B4B4B",
"e  c #535353",
"r  c gray35",
"t  c gray39",
"y  c gray42",
"u  c gray47",
"i  c #016384",
"p  c #006789",
"a  c #02698C",
"s  c #0B6D8D",
"d  c #016E93",
"f  c #0E6F90",
"g  c #007096",
"h  c #0E7193",
"j  c #01749B",
"k  c #087498",
"l  c #0E7A9E",
"z  c #127394",
"x  c #157798",
"c  c #1A7A9A",
"v  c #017AA2",
"b  c #007FA9",
"n  c #1B7EA0",
"m  c #0082AD",
"M  c #1E84A6",
"N  c #0086B4",
"B  c #0089B7",
"V  c #008BBA",
"C  c #2484A4",
"Z  c #2D8DAD",
"A  c #3393B3",
"S  c #3C9CBC",
"D  c #008FC0",
"F  c #0093C4",
"G  c #0196C9",
"H  c #009ACE",
"J  c #009ED3",
"K  c #00A0D6",
"L  c #00A4DB",
"P  c #00A9E2",
"I  c #00AEE9",
"U  c #00B1ED",
"Y  c #00B6F3",
"T  c #00B9F7",
"R  c #08B8F3",
"E  c #00BFFF",
"W  c #40A0C0",
"Q  c #4BABCB",
"!  c #54B4D4",
"~  c #5CBCDC",
"^  c #60BFE0",
"/  c #64C4E4",
"(  c #6ACAEA",
")  c #75D4F5",
"_  c #78D7F8",
"`  c #7EDEFE",
"'  c #939393",
"]  c #9A9A9A",
"[  c gray64",
"{  c #BDBDBD",
"}  c gray80",
"|  c #D9D9D9",
" . c #E4E4E4",
".. c #EAEAEA",
"X. c #F3F3F3",
"o. c #FDFDFD",
"O. c None",
/* pixels */
"O.O.O.O.O.O.O.O.O.O.O.O.O.O.O.O.O.O.O.O.O.O.O.O.O.O.O.O.O.O.O.O.O.O.O.O.O.O.O.O.O.O.O.O.O.O.O.O.O.O.O.O.O.O.O.O.O.O.O.O.O.O.O.O.",
"O.O.O.O.O.O.O.O.O.O.O.O.O.O.O.O.O.O.O.O.O.O.O.O.O.O.O.O.O.O.O.O.O.O.O.O.O.O.O.O.O.O.O.O.O.O.O.O.O.O.O.O.O.O.O.O.O.O.O.O.O.O.O.O.",
"O.O.O.O.O.O.O.O.O.O.O.O.O.O.O.O.O.O.O.O.O.O.O.O.O.O.O.O.O.O.O.O.O.O.O.O.O.O.O.O.O.O.O.O.O.O.O.O.O.O.O.O.O.O.O.O.O.O.O.O.O.O.O.O.",
"O.O.O.O.O.O.O.O.O.O.O.O.O.O.O.O.O.O.O.O.O.O.O.O.O.O.O.O.O.O.O.O.O.O.O.O.O.O.O.O.O.O.O.O.O.O.O.O.O.O.O.O.O.O.O.O.O.O.O.O.O.O.O.O.",
"O.O.O.O.O.O.O.O.O.O.O.O.O.O.O.O.O.O.O.O.O.O.O.O.O.O.O.O.O.O.O.O.O.O.O.O.O.O.O.O.O.O.O.O.O.O.O.O.O.O.O.O.O.O.O.O.O.O.O.O.O.O.O.O.",
"O.O.O.O.O.O.O.O.O.O.O.O.O.O.O.O.O.O.O.O.O.O.O.                    O.O.O.O.O.O.O.O.O.O.O.O.O.O.O.O.O.O.O.O.O.O.O.O.O.O.O.O.O.O.O.",
"O.O.O.O.O.O.O.O.O.O.O.O.O.O.O.O.O.O.O.                                    O.O.O.O.O.O.O.O.O.O.O.O.O.O.O.O.O.O.O.O.O.O.O.O.O.O.O.",
"O.O.O.O.O.O.O.O.O.O.O.O.O.O.O.O.                                            O.O.O.O.O.O.O.O.O.O.O.O.O.O.O.O.O.O.O.O.O.O.O.O.O.O.",
"O.O.O.O.O.O.O.O.O.O.O.O.O.O.                X % ; 4 8 8 q a 8 ; % .           O.O.O.O.O.O.O.O.O.O.O.O.O.O.O.O.O.O.O.O.O.O.O.O.O.",
"O.O.O.O.O.O.O.O.O.O.O.O.            . O < a P E E E E E E E E E E I g @         O.O.O.O.O.O.O.O.O.O.O.O.O.O.O.O.O.O.O.O.O.O.O.O.",
"O.O.O.O.O.O.O.O.O.O.            X 1 B T E E E E E E E E E E E E E E E Y O       O.O.O.O.O.O.O.O.O.O.O.O.O.O.O.O.O.O.O.O.O.O.O.O.",
"O.O.O.O.O.O.O.O.O.          X 5 L E E E E E E E E E E E E E E E E E E E g         O.O.O.O.O.O.O.O.O.O.O.O.O.O.O.O.O.O.O.O.O.O.O.",
"O.O.O.O.O.O.O.O.          < K E E E E E E E E E E E E E E E E E E E E E T <       O.O.O.O.O.O.O.O.O.O.O.O.O.O.O.O.O.O.O.O.O.O.O.",
"O.O.O.O.O.O.O.O.      . v E E E E E E E E E E E E E E E E E E E E E E E E P O     O.O.O.O.O.O.O.O.O.O.O.O.O.O.O.O.O.O.O.O.O.O.O.",
"O.O.O.O.O.O.O.      . v E E P 7 * O O ; j T E E E E E E E E E E E E E E E E 8       O.O.O.O.O.O.O.O.O.O.O.O.O.O.O.O.O.O.O.O.O.O.",
"O.O.O.O.O.O.        i E E J < + , y t > O q E E E E E E E E E E E E E E E E L X     O.O.O.O.O.O.O.O.O.O.O.O.O.O.O.O.O.O.O.O.O.O.",
"O.O.O.O.O.O.      * E E T 5 $ u | .. .} w O m E E E E E E E E E E E E E E E E 6       O.O.O.O.O.O.O.O.O.O.O.O.O.O.O.O.O.O.O.O.O.",
"O.O.O.O.O.      X J E E P O r  .o.o.o.o.{ $ 3 E E E E E E E E E E E E E E E E G X     O.O.O.O.O.O.O.O.O.O.O.O.O.O.O.O.O.O.O.O.O.",
"O.O.O.O.O.      1 E E E B . ] o.o.| o.o. .e & I E E E E E E E E E E E E E E E T *       O.O.O.O.O.O.O.O.O.O.O.O.O.O.O.O.O.O.O.O.",
"O.O.O.O.O.    . G E E E N   [ o.|   | o. .r & I E E E E E E E E E E E E E E E E q       O.O.O.O.O.O.O.O.O.O.O.O.O.O.O.O.O.O.O.O.",
"O.O.O.O.      & E E E E L o y X.o.| o.o.} > 1 E E E E E E E E E E E E E E E E E K O     O.O.O.O.O.O.O.O.O.O.O.O.O.O.O.O.O.O.O.O.",
"O.O.O.O.      0 E E E E T 2 = ] X.X.o.| y + v E E E E E E E E E E E E E E E E E E 4     . O.O.O.O.O.O.O.O.O.O.O.O.O.O.O.O.O.O.O.",
"O.O.O.O.    . G E E E E E H * = y ] ' w # 7 T E E E E E E E E E E E E E E E E E E V X     O.O.O.O.O.O.O.O.O.O.O.O.O.O.O.O.O.O.O.",
"O.O.O.      o T E E E E E E K 5 % X o * p T E E E E E E E E E T E E E E E E E E E T <       O.O.O.O.O.O.O.O.O.O.O.O.O.O.O.O.O.O.",
"O.O.O.      * E E E E E E E E E E E E E E E E E E E E E E P 8 * O @ ; j T E E E E E j .     O.O.O.O.O.O.O.O.O.O.O.O.O.O.O.O.O.O.",
"O.O.O.      ; E E E E E E E E E E E E E E E E E E E E E K ; + , y t > o q T E E E E I @     O.O.O.O.O.O.O.O.O.O.O.O.O.O.O.O.O.O.",
"O.O.O.      < E E E E E E E E E E E E E E E E E E E E T 4 $ u | ....{ w o m E E E E E 9       O.O.O.O.O.O.O.O.O.O.O.O.O.O.O.O.O.",
"O.O.O.      2 E E E E E E E E E E E E E E E E E E E E P O e  .o.o.o.o.{ : 3 E E E E E P @       O.O.O.O.O.O.O.O.O.O.O.O.O.O.O.O.",
"O.O.O.      3 E E E E E E E E E E E E E E E E E E E E B . ] o.o.| o.o. .e * I E E E E E i       O.O.O.O.O.O.O.O.O.O.O.O.O.O.O.O.",
"O.O.O.      3 E E E E E E E E E E E E E E E E E E E E N . [ o.|   | o. .r & P E E E E E P %       O.O.O.O.O.O.O.O.O.O.O.O.O.O.O.",
"O.O.O.      1 E E E E E E E E E E E E E E E E E E E E L o y X.o.| o.o.} > 1 E E E E E E T a       O.O.O.O.O.O.O.O.O.O.O.O.O.O.O.",
"O.O.O.      ; E E E E E E E E E E E E E E E E E E E E T 2 = ] X.X.o.| y + v E E E E E E E T <       O.O.O.O.O.O.O.O.O.O.O.O.O.O.",
"O.O.O.      % E E E E E E E E E E E E E E E E E E E E E H * = y [ ' w # 7 T E E E E E E E E L @       O.O.O.O.O.O.O.O.O.O.O.O.O.",
"O.O.O.O.    X Y E E E E E E E E E E E E E E E E E E E E E K 4 @ X o * p T E E E E E E E E E E B O     X O.O.O.O.O.O.O.O.O.O.O.O.",
"O.O.O.O.    . F E E E E E E E E E E E E E E E E E E E E E E E E E E E E E E E E E E E E E E E E j X     o O.O.O.O.O.O.O.O.O.O.O.",
"O.O.O.O.      a E E E E E E E E E E E E E E E E E E E E E E E E E E E E E E E E E E E E E E E E E q .       O.O.O.O.O.O.O.O.O.O.",
"O.O.O.O.      9 E E E E E E E E E E E E E E E E E E E E E E E E T E E E E E E E E E E E E E E E E T 7         O.O.O.O.O.O.O.O.O.",
"O.O.O.O.      9 E E E E E E E E E E E E E E E E E E E E E E L K J H L T E E E E E E E E E E E E E E T 5         O.O.O.O.O.O.O.O.",
"O.O.O.O.    . 9 E E E E E E E E E E E E E E E E E E E E Y B k f s h g B T E E E E E E E E E E E E E E U ;       O.O.O.O.O.O.O.O.",
"O.O.O.O.      0 E E E E E E E E E E E E E E E E E E E E H s C ^ ) / S h V E E E E E E E E E E E E E E E P *       O.O.O.O.O.O.O.",
"O.O.O.O.      a E E E E E E E E E E E E E E E E E E Y m a f Z ( ` ` ) C m T E E E E E E E E E E E E E E E V X     O.O.O.O.O.O.O.",
"O.O.O.O.      F E E E E E E E E E E E E E E E E E E N i Q ~ S Z ) ` ` C m Y E E E E E E E E E E E E E E E E @       O.O.O.O.O.O.",
"O.O.O.O.    X Y E E E E E E E E E E E E E E E E E I l S ` ` ` ) ` ` ( s G T E E E E E E E E E E E E E E E E %       O.O.O.O.O.O.",
"O.O.O.      % E E E E E E E E E E E E E E E E E E K l Q ` ` ` ` ` ` / a K E E E E E E E E E E E E E E E E E 7       O.O.O.O.O.O.",
"O.O.O.      1 E E E E E E E E E E E E E E E E E E L j S ` ` ) ( ~ ( ( C k R E E E E E E E E E E E E E E E E F       O.O.O.O.O.O.",
"O.O.O.      i E E E E E E E E E E E E E E E E E E E m s C S Z h a c ^ ! s j P E E E E E E E E E E E E E E E T @       O.O.O.O.O.",
"O.O.O.    X L E E E E E E E E E E E E E E E E E E E E V m j j V P g C _ ! h v U E E E E E E E E E E E E E E E ;       O.O.O.O.O.",
"O.O.      % E E E E E E E E E E E E E E E E E E E E E E U Y E E E H a Q ` ! h m Y E E E E E E E E E E E E E E 8       O.O.O.O.O.",
"O.O.      5 E E E E E E E E E E E E E E E E E E E E E E E E E E E T m f ^ ` Q s B E E E U T E E E E E E E E E B       O.O.O.O.O.",
"O.O.    . m E E E E E E E E E E E E E E E E E E E E E E E E E E E E U g C ) ` W a j N b v m L E E E E E E E E U X     O.O.O.O.O.",
"O.O.    X Y E E E E E E E E E E E E E E E E E E E E E E E E E E E E E G i S ` ` Q C c Z Z z d P E E E E E E E E @       O.O.O.O.",
"O.      % E E E E E E E E E E E E E E E E E E E E E E E E E E E E E E E N s ~ ` ` _ ( ) ` ~ z F E E E E E E E E %       O.O.O.O.",
"O.      ; E E E E E E E E E E E E E E E E E E E E E E E E E E E E E E E T d S ` _ _ ` ` ` _ c F E E E E E E E E @       O.O.O.O.",
"O.      2 E E E E E E E E E E E E E E E E E E E E E E E E E E E E E E E P v S ` ! n ( ` ` ( s J E E E E E E E U         O.O.O.O.",
"O.      3 E E E E E E E E E E E E E E E E E E E E E E E E E E E E E E E J l Q ` / c Z ( / A d Y E E E E E E T <       O.O.O.O.O.",
"O.      ; E E E E E E E E E E E E E E E E E E E E E E E E E E E E E E E J a ! ` ~ x s C z a F E E E E E E E 6         O.O.O.O.O.",
"O.      X P E E E E E E E E E E E E E E E E E E E E E E E E E E E E E E Y g Z ! x j F V V P T E E E E E T 5         O.O.O.O.O.O.",
"O.O.      - I E E E E E E E E E E E E E E E E E E E E E E E E E E E E E E H j a j J E E E E E E E E E P ;         O.O.O.O.O.O.O.",
"O.O.        * L E E E E E E E E E E E E E E E E E E E E E E E E E E E E E E E E T E E E E E E E E P 6 .         O.O.O.O.O.O.O.O.",
"O.O.O.        . % 5 m U E E E E E E E E E E E E E E E E E E E E E E E E E E E E E E E E E E P d - X           O.O.O.O.O.O.O.O.O.",
"O.O.O.O.                . X X O @ @ % % % & ; d b v p i a b N L T P T E E E E E E L V q ; @ .               O.O.O.O.O.O.O.O.O.O.",
"O.O.O.O.O.                                                      . X   . . . . . .                       O.O.O.O.O.O.O.O.O.O.O.O.",
"O.O.O.O.O.O.O.                                                                                      O.O.O.O.O.O.O.O.O.O.O.O.O.O.",
"O.O.O.O.O.O.O.O.O.O.O.O.O.O.O.O.                                                            O.O.O.O.O.O.O.O.O.O.O.O.O.O.O.O.O.O."
};
