/* XPM */
static char *result[] = {
/* columns rows colors chars-per-pixel */
"64 64 544 2 ",
"   c #00000000",
" ! c #06000000",
" # c #0C000000",
" $ c #3B000000",
" % c #72000000",
" & c #A0000000",
" ' c #C0000000",
" ( c #CF000000",
" ) c #DC000000",
" * c #E7000000",
" + c #EF000000",
" , c #E9000000",
" - c #D4000000",
" . c #A2000000",
" / c #6F000000",
" 0 c #38000000",
" 1 c #0B000000",
" 2 c #0D000000",
" 3 c #60000000",
" 4 c #AC000000",
" 5 c #DD000000",
" 6 c #F8000000",
" 7 c #FD000000",
" 8 c #FE000000",
" 9 c #FF000000",
" : c #F9000000",
" ; c #E3000000",
" < c #87000000",
" = c #1A000000",
" > c #01000000",
" ? c #02000000",
" @ c #37000000",
" A c #A6000000",
" B c #EC000000",
" C c #FE000001",
" D c #FD000001",
" E c #FD000102",
" F c #FC000102",
" G c #E5000000",
" H c #44000000",
" I c #03000000",
" J c #41000000",
" K c #CA000000",
" L c #FC000203",
" M c #F2000A0D",
" N c #DF001A23",
" O c #D0002C3A",
" P c #BD004259",
" Q c #B400506B",
" R c #AD005A78",
" S c #A500688B",
" T c #B300516C",
" U c #CF002C3B",
" V c #E0001821",
" W c #F000070A",
" X c #EA000000",
" Y c #18000000",
" Z c #05000000",
" [ c #49000000",
" \ c #F9000304",
" ] c #EA001015",
" ^ c #CC003041",
" _ c #A400698D",
" ` c #8700ABE4",
" a c #8000BFFF",
" b c #8400B1ED",
" c c #9F006F95",
" d c #D500161D",
" e c #A4000000",
" f c #F200080B",
" g c #C8003446",
" h c #950087B5",
" i c #8100BCFB",
" j c #8200B6F3",
" k c #D7001821",
" l c #F4000000",
" m c #1D000000",
" n c #09000000",
" o c #8C000000",
" p c #FB000000",
" q c #EF00090C",
" r c #BA00465E",
" s c #8800A7DF",
" t c #9A007DA7",
" u c #FA000203",
" v c #93000000",
" w c #82000000",
" x c #FC000000",
" y c #F8000203",
" z c #C7003243",
" { c #8B00A0D6",
" | c #8000BDFD",
" } c #D4002431",
"!  c #15000000",
"!! c #5F000000",
"!# c #FA000000",
"!$ c #F4000608",
"!% c #9D0078A0",
"!& c #970083AF",
"!' c #70000000",
"!( c #1E000000",
"!) c #E6000000",
"!* c #F8000406",
"!+ c #9B007CA6",
"!, c #E7001319",
"!- c #D7000000",
"!. c #04000000",
"!/ c #A7006486",
"!0 c #AE005876",
"!1 c #FC000001",
"!2 c #30000000",
"!3 c #F5000000",
"!4 c #D900222D",
"!5 c #8500AFE9",
"!6 c #EC000D12",
"!7 c #CC000000",
"!8 c #08000000",
"!9 c #F400080B",
"!: c #8C009ED3",
"!; c #B7004B64",
"!< c #56000000",
"!= c #19000000",
"!> c #EB000000",
"!? c #C6003649",
"!@ c #8200B7F5",
"!A c #8A00A3DA",
"!B c #8800A8E1",
"!C c #ED000E13",
"!D c #22000000",
"!E c #FA000406",
"!F c #8F0095C7",
"!G c #8600ADE8",
"!H c #AB005D7D",
"!I c #D4002734",
"!J c #E400161E",
"!K c #E1001A23",
"!L c #C500384B",
"!M c #980081AC",
"!N c #C8000000",
"!O c #10000000",
"!P c #C1000000",
"!Q c #DD001E28",
"!R c #C500394D",
"!S c #FB0D1011",
"!T c #FF3F3F3F",
"!U c #FF6F6F6F",
"!V c #FF636363",
"!W c #FF282828",
"!X c #ED031218",
"!Y c #A6006688",
"!Z c #8300B6F3",
"![ c #D6002430",
"!\ c #B2000000",
"!] c #12000000",
"!^ c #BA00475F",
"!_ c #FC141718",
"!` c #FF797979",
"!a c #FFD9D9D9",
"!b c #FFEAEAEA",
"!c c #FFE6E6E6",
"!d c #FFBFBFBF",
"!e c #FF4C4C4C",
"!f c #ED031217",
"!g c #8900A5DD",
"!h c #E3001820",
"!i c #98000000",
"!j c #4A000000",
"!k c #8F0096C9",
"!l c #E700141B",
"!m c #FF585858",
"!n c #FFE4E4E4",
"!o c #FFFEFEFE",
"!p c #FFFFFFFF",
"!q c #FFFBFBFB",
"!r c #FFBABABA",
"!s c #FE222323",
"!t c #BE004157",
"!u c #8D009BCF",
"!v c #F2000B0E",
"!w c #9F000000",
"!x c #0A000000",
"!y c #8D000000",
"!z c #EC000F14",
"!{ c #8100BAF9",
"!| c #94008AB8",
"!} c #F9000507",
"#  c #FF9B9B9B",
"#! c #FFFAFAFA",
"## c #FFE2E2E2",
"#$ c #FF535353",
"#% c #DA00212C",
"#& c #8500B0EB",
"#' c #F200090C",
"#( c #86000000",
"#) c #B0000000",
"#* c #DB00202B",
"#+ c #FFA5A5A5",
"#, c #FF5A5A5A",
"#- c #DC001E28",
"#. c #8600ACE6",
"#/ c #910090C1",
"#0 c #EF000C11",
"#1 c #6D000000",
"#2 c #BB000000",
"#3 c #D0002B39",
"#4 c #FF6A6A6A",
"#5 c #FFF1F1F1",
"#6 c #FFFDFDFD",
"#7 c #FFCCCCCC",
"#8 c #FF2E2F2F",
"#9 c #CA003344",
"#: c #F5000709",
"#; c #F3000000",
"#< c #3C000000",
"#= c #C2000000",
"#> c #CA003242",
"#? c #FE1F2121",
"#@ c #FF999999",
"#A c #FFF0F0F0",
"#B c #FFF9F9F9",
"#C c #FFF7F7F7",
"#D c #FFDBDBDB",
"#E c #FF6B6B6B",
"#F c #F7070E11",
"#G c #A1007096",
"#H c #8700A9E2",
"#I c #A3006B8F",
"#J c #E2000000",
"#K c #1C000000",
"#L c #C3000000",
"#M c #C2003C50",
"#N c #910092C3",
"#O c #DE011E27",
"#P c #FE1F2020",
"#Q c #FF686868",
"#R c #FFA1A1A1",
"#S c #FF939393",
"#T c #FF4A4A4A",
"#U c #F70D1315",
"#V c #B4004F6A",
"#W c #EC001015",
"#X c #E9001219",
"#Y c #CD002F3F",
"#Z c #9F00749B",
"#[ c #8200B9F7",
"#\ c #C2003B4E",
"#] c #9B000000",
"#^ c #C1003D51",
"#_ c #C600374A",
"#` c #EB001116",
"#a c #F6000609",
"#b c #F400090C",
"#c c #E0001A23",
"#d c #AE005A78",
"#e c #CC003040",
"#f c #FC0D1010",
"#g c #F0031014",
"#h c #AD005B7A",
"#i c #DD001921",
"#j c #F6000000",
"#k c #C2003D51",
"#l c #950089B7",
"#m c #BE004258",
"#n c #FD141616",
"#o c #FF787878",
"#p c #F0030F13",
"#q c #94008BBA",
"#r c #E9001218",
"#s c #47000000",
"#t c #D1002A39",
"#u c #EE00080B",
"#v c #E1001922",
"#w c #960085B2",
"#x c #DC001F29",
"#y c #B6004C66",
"#z c #55000000",
"#{ c #EE000E13",
"#| c #C7003547",
"#} c #ED000B0F",
"$  c #CB000000",
"$! c #FA000305",
"$# c #900093C4",
"$$ c #C4003A4E",
"$% c #FD1F2121",
"$& c #F5071013",
"$' c #B5004D66",
"$( c #26000000",
"$) c #FD000203",
"$* c #8D009ACE",
"$+ c #D801242F",
"$, c #F50E1618",
"$- c #B5004E68",
"$. c #F000080B",
"$/ c #96000000",
"$0 c #E8000000",
"$1 c #FE000102",
"$2 c #B1005470",
"$3 c #BC00445A",
"$4 c #F0000C11",
"$5 c #D900212C",
"$6 c #A600678A",
"$7 c #CD002E3E",
"$8 c #9B007BA4",
"$9 c #3E000000",
"$: c #EC000E13",
"$; c #B200536F",
"$< c #CE002D3C",
"$= c #DB000000",
"$> c #8300BAF9",
"$? c #99009FD5",
"$@ c #A90090C1",
"$A c #9000A9E2",
"$B c #A500698C",
"$C c #2F000000",
"$D c #FA000304",
"$E c #92008FC0",
"$F c #B20089B7",
"$G c #E800698C",
"$H c #FA056787",
"$I c #FD167797",
"$J c #FD0F6F90",
"$K c #F4006485",
"$L c #B60086B3",
"$M c #F500080B",
"$N c #81000000",
"$O c #78000000",
"$P c #F1000B0E",
"$Q c #8300B4F1",
"$R c #AE018DBC",
"$S c #FF076787",
"$T c #FF41A1C1",
"$U c #FF68C7E8",
"$V c #FF74D4F4",
"$W c #FF6FCEEF",
"$X c #F4016687",
"$Y c #9300A6DE",
"$Z c #CD000000",
"$[ c #AA000000",
"$\ c #DE001B24",
"$] c #8101BEFE",
"$^ c #D906779D",
"$_ c #FF0F6F8F",
"$` c #FF5CBCDC",
"$a c #FF7DDDFD",
"$b c #FF7FDEFF",
"$c c #FF77D6F7",
"$d c #FE127393",
"$e c #A70092C3",
"$f c #F2000000",
"$g c #8500B7F5",
"$h c #CD00779F",
"$i c #FB066888",
"$j c #FF2484A4",
"$k c #FF1A7A9A",
"$l c #FF3595B5",
"$m c #FC7DDEFF",
"$n c #FF6ECDEE",
"$o c #FC0E6F8F",
"$p c #A20096C9",
"$q c #FB000305",
"$r c #51000000",
"$s c #25000000",
"$t c #B1008AB8",
"$u c #FF086888",
"$v c #FD5BBCDC",
"$w c #FF69C9E9",
"$x c #FD7DDEFF",
"$y c #FF65C5E5",
"$z c #F9066889",
"${ c #A3059BCD",
"$| c #E800131A",
"$} c #7D000000",
"%  c #CE00769E",
"%! c #FF3393B3",
"%# c #FF7CDCFC",
"%$ c #FF2383A3",
"%% c #EF056B8E",
"%& c #A20AA1D4",
"%' c #CF002D3C",
"%( c #C5000000",
"%) c #D000759C",
"%* c #FF63C2E3",
"%+ c #FF51B1D1",
"%, c #FF69C8E9",
"%- c #FF72D1F2",
"%. c #F8006283",
"%/ c #BE0080AB",
"%0 c #8600B6F3",
"%1 c #F1000000",
"%2 c #BD00435A",
"%3 c #FF0D6D8D",
"%4 c #FF63C3E3",
"%5 c #FF75D4F5",
"%6 c #FF67C7E7",
"%7 c #FC046586",
"%8 c #EE006689",
"%9 c #FF0A6A8A",
"%: c #FF52B2D2",
"%; c #FF48A8C8",
"%< c #DD006E93",
"%= c #9800A0D6",
"%> c #31000000",
"%? c #FC000304",
"%@ c #980082AE",
"%A c #8700B5F1",
"%B c #D9007096",
"%C c #FF127292",
"%D c #FF056585",
"%E c #AE008CBB",
"%F c #CB0078A0",
"%G c #FF58B8D8",
"%H c #FF1D7D9D",
"%I c #8100BDFD",
"%J c #8C00AEE9",
"%K c #BA0083AF",
"%L c #67000000",
"%M c #77000000",
"%N c #A30095C8",
"%O c #AA008FC0",
"%P c #9B009DD2",
"%Q c #8800B3F0",
"%R c #8200BCFB",
"%S c #C8007AA3",
"%T c #FF55B5D5",
"%U c #FF78D8F8",
"%V c #FF3E9EBE",
"%W c #FE066686",
"%X c #DC006F94",
"%Y c #C4007CA6",
"%Z c #EB00688A",
"%[ c #FF117191",
"%\ c #FF1C7C9C",
"%] c #FB026484",
"%^ c #BB0082AE",
"%_ c #E500151C",
"%` c #8A000000",
"%a c #A5000000",
"%b c #DF001B24",
"%c c #FF5FBFDF",
"%d c #FF40A0C0",
"%e c #FF70CFF0",
"%f c #FF7ADAFA",
"%g c #FF44A4C4",
"%h c #F2006587",
"%i c #8D00ADE7",
"%j c #DF001922",
"%k c #9D000000",
"%l c #BF000000",
"%m c #CE002E3D",
"%n c #C5007CA5",
"%o c #FF45A5C5",
"%p c #FF7EDDFE",
"%q c #F80E7192",
"%r c #9C009CD1",
"%s c #E4001218",
"%t c #9E000000",
"%u c #C3003A4E",
"%v c #B90084B0",
"%w c #FA006283",
"%x c #FF50B0D0",
"%y c #FF7BDAFB",
"%z c #FF71D1F1",
"%{ c #FF6CCCEC",
"%| c #F70B6E8F",
"%} c #9A009ED3",
"&  c #F4000406",
"&! c #80000000",
"&# c #D100749C",
"&$ c #FF2D8DAD",
"&% c #FF137393",
"&& c #FF4DADCD",
"&' c #FF7EDEFE",
"&( c #EF006789",
"&) c #8B00AFEA",
"&* c #C9003040",
"&+ c #C2007EA8",
"&, c #FF2888A8",
"&- c #FF7AD9FA",
"&. c #FF3292B2",
"&/ c #FF066686",
"&0 c #FF3090B0",
"&1 c #FF2C8CAC",
"&2 c #FF046484",
"&3 c #BC0082AD",
"&4 c #B9004961",
"&5 c #AB000000",
"&6 c #F0000B0E",
"&7 c #C0007FAA",
"&8 c #FE3A9ABB",
"&9 c #C7007AA4",
"&: c #C90079A2",
"&; c #BC00455C",
"&< c #35000000",
"&= c #5A000000",
"&> c #D4002633",
"&? c #FF56B6D6",
"&@ c #F85ABDDE",
"&A c #5C000000",
"&B c #8400B9F7",
"&C c #FE016181",
"&D c #FB006283",
"&E c #D5007299",
"&F c #73000000",
"&G c #DE001D27",
"&H c #BF004156",
"&I c #99007FAA",
"&J c #8400B3EF",
"&K c #A2006D92",
"&L c #F7000608",
"&M c #EE000000",
"&N c #50000000",
"&O c #3F000000",
"&P c #ED000C10",
"&Q c #E9000F14",
"&R c #E200151D",
"&S c #E100171F",
"&T c #DD001D27",
"&U c #A1006F94",
"&V c #AA006081",
"&W c #9A007EA8",
"&X c #8A00A1D8",
"&Y c #F600070A",
"&Z c #29000000",
"&[ c #24000000",
"&\ c #F300080B",
"&] c #F9000406",
"&^ c #F7000507",
"&_ c #F8000608",
"&` c #F8000507",
"&a c #FB000304",
"&b c #2E000000",
"&c c #84000000",
"&d c #C4000000",
"&e c #DF000000",
"&f c #94000000",
"&g c #2C000000",
"&h c #2B000000",
"&i c #45000000",
"&j c #68000000",
"&k c #A7000000",
"&l c #DA000000",
"&m c #F0000000",
"&n c #D8000000",
"&o c #B1000000",
/* pixels */
"                                                                                                                                ",
"                                                                                                                                ",
"                                                                                                                                ",
"                                                                                                                                ",
"                                                                                                                                ",
"                                         # $ % & ' ( ) * + + , - . / 0 1                                                        ",
"                                   2 3 4 5 6 7 8 9 9 9 9 9 9 9 9 9 7 : ; < = >                                                  ",
"                             ? @ A B 7 9 9 9 9 9 8 C D D E F C 9 9 9 9 9 8 G H                                                  ",
"                         I J K : 9 9 9 9 8 L M N O P Q Q R S T U V W D 9 9 9 X Y                                                ",
"                     Z [ ' : 9 9 9 8 \ ] ^ _ ` a a a a a a a a a a b c d 7 9 8 e >                                              ",
"                   ? < : 9 9 9 C f g h i a a a a a a a a a a a a a a a j k 9 9 l m                                              ",
"                 n o p 9 9 8 q r s a a a a a a a a a a a a a a a a a a a t u 9 8 v                                              ",
"               I w x 9 9 y z { | a a a a a a a a a a a a a a a a a a a a i } 8 9 X!                                             ",
"             >!!!# 9 9!$!% a a a a a a a a a a a a a a a a a a a a a a a a!& L 9 7!'                                            ",
"            !(!) 9 9!*!+ a a a a a a a a a a a a a a a a a a a a a a a a a |!, 9 9!-!.                                          ",
"          !. . 8 9 F!/ a a a a a a a a a a a a a a a a a a a a a a a a a a a!0!1 9!# [                                          ",
"          !2!3 9 9!4 | a a a a a a a a a a a a a a a a a a a a a a a a a a a!5!6 9 9!7!8                                        ",
"         > & 8 9!9!: a a a a a a a a a a a a a a a a a a a a a a a a a a a a a!; C 9!#!<                                        ",
"        !=!> 9 8!? a a a a a a a a a a!@!A ` | a a a a a a a a a a a a a a a a!B!C 9 9 G!D                                      ",
"         % 7 9!E!F a a a a a a a a!G!H!I!J!K!L!M i a a a a a a a a a a a a a a a!H E 9 9!N!O                                    ",
"       >!P 9 9!Q a a a a a a a a!B!R!S!T!U!V!W!X!Y | a a a a a a a a a a a a a a!Z![ 8 9 8!\ 2                                  ",
"      !] B 9 D R a a a a a a a |!^!_!`!a!b!c!d!e!f h a a a a a a a a a a a a a a a!g!h 9 9 7!i!.                                ",
"      !j!# 9!E!k a a a a a a a `!l!m!n!o!p!p!q!r!s!t | a a a a a a a a a a a a a a a!u!v 9 9 7!w!x                              ",
"      !y 8 9!z!{ a a a a a a a!|!}# #!!p!a!p!p###$#%#& a a a a a a a a a a a a a a a a t#' 9 9 x#(!.                            ",
"      #) 8 9#* a a a a a a a a!&!E#+!q!a 9!a!p!n#,#-#. a a a a a a a a a a a a a a a a a#/#0 9 9 :#1 >                          ",
"      #2 9 8#3 a a a a a a a a {#0#4#5!p!a!p#6#7#8#9!{ a a a a a a a a a a a a a a a a a a t#: 9 9#;#<                          ",
"      #= 9 8#> a a a a a a a a!@ g#?#@#A#B#C#D#E#F#G a a a a a a a a!@!A#H i a a a a a a a a#I \ 9 9#J#K                        ",
"      #L 9 8#M a a a a a a a a a#N#O#P#Q#R#S#T#U P!{ a a a a a a#H#V!Q#W#X#Y#Z#[ a a a a a a |#\ 8 9 8#] >                      ",
"      #L 9 C#^ a a a a a a a a a a!k#_#`#a#b#c#d!Z a a a a a a {#e#f!T!U!V!W#g#h i a a a a a a#[#i 9 9#j 0                      ",
"      #= 9 C#k a a a a a a a a a a a i s#l#N!5 i a a a a a a i#m#n#o!a!b!c!d!e#p!M a a a a a a a#q y 9 9!7 ?                    ",
"      !P 9 8!L a a a a a a a a a a a a a a a a a a a a a a a!B#r!m!n!o!p!p!q!r!s#k | a a a a a a | z 8 9 p#s                    ",
"      !\ 9 9#t a a a a a a a a a a a a a a a a a a a a a a a h!}# #!!p!a!p!p###$#*!5 a a a a a a a!:#u 9 9!7 Z                  ",
"       v 8 9#v a a a a a a a a a a a a a a a a a a a a a a a#w!E#+!q!a 9!a!p!n#,#x!G a a a a a a a |#y 7 9 p#z                  ",
"      !' 7 9!9!Z a a a a a a a a a a a a a a a a a a a a a a!A#{#4#5!p!a!p#6#7#8#| i a a a a a a a a!Z#} 9 9$  >                ",
"       $ : 9$!$# a a a a a a a a a a a a a a a a a a a a a a#[$$$%#@#A#B#C#D#E$&!% a a a a a a a a a a$' D 9#j$(                ",
"       2 l 9$) _ a a a a a a a a a a a a a a a a a a a a a a a$*$+#?#Q#R#S#T$,$- i a a a a a a a a a a!A$. 9 8$/                ",
"        $0 9$1$2 a a a a a a a a a a a a a a a a a a a a a a a a {$3!J M$4$5$6!{ a a a a a a a a a a a a$7 8 9 ;!.              ",
"         5 9$1 T a a a a a a a a a a a a a a a a a a a a a a a a a |!5!F!:!@ | a a a a a a a a a a a a a$8 u 9!#$9              ",
"         5 9 D T a a a a a a a a a a a a a a a a a a a a a a a a a a a a a a a a a a a a a a a a a a a a!@$: 9 8 v              ",
"         G 9 D$; a a a a a a a a a a a a a a a a a a a a a a a a a a a a a a a a a a a a a a a a a a a a a$< 8 9$= Z            ",
"       ##; 9 F S a a a a a a a a a a a a a a a a a a$>$?$@$@$A a a a a a a a a a a a a a a a a a a a a a a$B D 9 :$C            ",
"       J p 9$D$E a a a a a a a a a a a a a a a a$>$F$G$H$I$J$K$L a a a a a a a a a a a a a a a a a a a a a `$M 9 8$N            ",
"      $O 7 9$P$Q a a a a a a a a a a a a a a a a$R$S$T$U$V$W$T$X$Y a a a a a a a a a a a a a a a a a a a a a#* 9 9$Z >          ",
"      $[ 8 9$\ a a a a a a a a a a a a a a a a$]$^$_$`$a$b$b$c$d$e a a a a a a a a a a a a a a a a a a a a a#y C 9$f!           ",
"     I!- 9 8 g a a a a a a a a a a a a a a a$g$h$i$j$k$l$m$b$n$o$p a a a a a a a a a a a a a a a a a a a a a$E$q 9 x$r          ",
"    $s#j 9 E!/ a a a a a a a a a a a a a a a$t$u$v$b$V$w$x$b$y$z${ a a a a a a a a a a a a a a a a a a a a a i$| 9 9#]          ",
"    $} 8 9!9!A a a a a a a a a a a a a a a a% %!$b$b$b$b$b$b%#%$%%%& a a a a a a a a a a a a a a a a a a a a a%' 9 9 -          ",
"    %( 9 9#x | a a a a a a a a a a a a a a a%)%!$b$b$b$b%*%+%,%-$j%.%/%0 a a a a a a a a a a a a a a a a a a a$; D 9%1 n        ",
"   # X 9 C%2 a a a a a a a a a a a a a a a a$L%3%4%5%6$l%7%8%9%:%#%;%9%<%= a a a a a a a a a a a a a a a a a a!|$q 9 6%>        ",
"   $ : 9%?%@ a a a a a a a a a a a a a a a a%A%B$u%C%D$G%E%0%F$S%G$b$y%H$K$F%I a%J$F%K$p a a a a a a a a a a a#& M 9 x%L        ",
"  %M 7 9$P$Q a a a a a a a a a a a a a a a a a$g%N%O%P%Q a a%R%S$u%T$b%U%V%W%X%Y%Z%[%\%]%^ a a a a a a a a a a a%_ 9 8%`        ",
"  %a 8 9%b a a a a a a a a a a a a a a a a a a a a a a a a a a%R%Y%D%:$b$b%c%!%$%d%e%f%g%h%i a a a a a a a a a a%j 9 9%k        ",
"  %l 9 9%m a a a a a a a a a a a a a a a a a a a a a a a a a a a a%n%D%o%p$b$b$b$b$b$b%e%q%r a a a a a a a a a a%s 9 9%t        ",
"  #= 9 8%u a a a a a a a a a a a a a a a a a a a a a a a a a a a a%R%v%w%x$b%y%z$b$b$b%{%|%} a a a a a a a a a#&&  9 7&!        ",
"  #= 9 8#M a a a a a a a a a a a a a a a a a a a a a a a a a a a a a a&#&$$b%c&%&&&'$a%o&(&) a a a a a a a a i&* 8 9 6 @        ",
"  !P 9 8%m a a a a a a a a a a a a a a a a a a a a a a a a a a a a a a&+&,%p&-&.&/&0&1&2&3 a a a a a a a a |&4 E 9 9 K Z        ",
"  &5 9 9&6 ` a a a a a a a a a a a a a a a a a a a a a a a a a a a a a&7%$&'$b&8%Z&9&:%O%R a a a a a a a!{&; F 9 9%1&<          ",
"  &= x 9 8&>#& a a a a a a a a a a a a a a a a a a a a a a a a a a a a%O$S&?&@%9&3 a a a a a a a a a a!G U D 9 9 6&A >          ",
"   2$Z 9 9 8#%!A a a a a a a a a a a a a a a a a a a a a a a a a a a a&B$h&C&D&E%J a a a a a a a a#.!^$M 8 9 9 6&F ?            ",
"    $s!> 9 9 9!*&G&H&I&J a a a a a a a a a a a a a a a a a a a a a a a a$>%P%}$> a a a a a a `&K!I&L C 9 9 9&M&N >              ",
"      &O + 9 9 9 9 8 L$D!*#:&P&Q&R&S%b%b!K&T$7&U&I!% S&V S&W h&X#[!B#[ a a a a a |!g!|!0 U!J&Y E 8 9 9 9 x!P&Z                  ",
"        &[#2#j 8 9 9 9 9 9 9 9 9 9 9 9 9 9 9 9 9 9 9 9 9 9 9 8 F&\#:&]&^&^&L&_&_&`$!&a C 8 9 9 9 9 8 : -&= !                    ",
"           I&b&c&d!)#j : p x x 7 7 8 8 9 9 9 9 9 9 9 9 9 9 9 9 9 9 9 9 9 9 9 9 9 9 9 9 9 9 9 7 6&e&f&g >                        ",
"                  !x&h&i!<%L&j&F&c$/&k&l 6 x x p p!#!# :!# 7 8 9 8!# : : : : : : : :#j&m&n&o%M!2 !                              "
};