/* XPM */
static char *result[] = {
/* columns rows colors chars-per-pixel */
"64 64 355 2 ",
"   c #FF294A21",
" ! c #FF294A20",
" # c #FF2A4A21",
" $ c #FF2A4B21",
" % c #FF294B20",
" & c #FF2A4C21",
" ' c #FF2B4C22",
" ( c #FF284A20",
" ) c #FF294920",
" * c #FF284C1F",
" + c #FF2B4D22",
" , c #FF2A4C22",
" - c #FF2B4E22",
" . c #FF2B4E23",
" / c #FF2B4C21",
" 0 c #FF294C21",
" 1 c #FF284820",
" 2 c #FF294B21",
" 3 c #FF2C4E23",
" 4 c #FF2A4C20",
" 5 c #FF2C4E22",
" 6 c #FF294820",
" 7 c #FF284720",
" 8 c #FF2B4D21",
" 9 c #FF284920",
" : c #FF294C20",
" ; c #FF2A4D21",
" < c #FF2A4D22",
" = c #FF2A4B22",
" > c #FF2C4F22",
" ? c #FF2C4F23",
" @ c #FF2B4B21",
" A c #FF28481F",
" B c #FF223D1B",
" C c #FF1C3216",
" D c #FF24421C",
" E c #FF2A4B20",
" F c #FF2A4A20",
" G c #FF2C4D22",
" H c #FF1A3014",
" I c #FF0A0F06",
" J c #FF020301",
" K c #FF000000",
" L c #FF030401",
" M c #FF152710",
" N c #FF26461E",
" O c #FF0C1509",
" P c #FF020100",
" Q c #FF030100",
" R c #FF090300",
" S c #FF100600",
" T c #FF040100",
" U c #FF010000",
" V c #FF0E1B0B",
" W c #FF27461F",
" X c #FF091107",
" Y c #FF030300",
" Z c #FF1B0A00",
" [ c #FF200C00",
" \ c #FF210D00",
" ] c #FF1C0B00",
" ^ c #FF010100",
" _ c #FF0A1308",
" ` c #FF26451E",
" a c #FF294921",
" b c #FF1C3416",
" c c #FF030200",
" d c #FF0F0500",
" e c #FF1D0B00",
" f c #FF1F0C00",
" g c #FF0F1A0B",
" h c #FF23411B",
" i c #FF0A1207",
" j c #FF040602",
" k c #FF020000",
" l c #FF050200",
" m c #FF170900",
" n c #FF080300",
" o c #FF152610",
" p c #FF284A1F",
" q c #FF24421D",
" r c #FF1D230C",
" s c #FF150800",
" t c #FF020201",
" u c #FF1D3316",
" v c #FF26441D",
" w c #FF213C1A",
" x c #FF152510",
" y c #FF0F1C0C",
" z c #FF0D180A",
" { c #FF0D170A",
" | c #FF0E1A0B",
" } c #FF13230F",
"!  c #FF1C3316",
"!! c #FF233E1B",
"!# c #FF26461F",
"!$ c #FF213515",
"!% c #FF070401",
"!& c #FF160800",
"!' c #FF020401",
"!( c #FF050803",
"!) c #FF020200",
"!* c #FF040300",
"!+ c #FF060903",
"!, c #FF101C0C",
"!- c #FF1E3717",
"!. c #FF27461E",
"!/ c #FF1F3617",
"!0 c #FF190900",
"!1 c #FF060200",
"!2 c #FF0F0600",
"!3 c #FF190A00",
"!4 c #FF230E00",
"!5 c #FF220D00",
"!6 c #FF1E0C00",
"!7 c #FF0C0400",
"!8 c #FF010201",
"!9 c #FF050904",
"!: c #FF111F0D",
"!; c #FF26441E",
"!< c #FF142510",
"!= c #FF040200",
"!> c #FF130700",
"!? c #FF260F00",
"!@ c #FF270F00",
"!A c #FF281000",
"!B c #FF240E00",
"!C c #FF0D0500",
"!D c #FF030602",
"!E c #FF162811",
"!F c #FF2A4E22",
"!G c #FF1D3417",
"!H c #FF070300",
"!I c #FF1A0A00",
"!J c #FF0E0600",
"!K c #FF000100",
"!L c #FF0F1B0B",
"!M c #FF120700",
"!N c #FF250E00",
"!O c #FF200D00",
"!P c #FF060300",
"!Q c #FF12210E",
"!R c #FF010200",
"!S c #FF101D0C",
"!T c #FF1E0B00",
"!U c #FF1B0B00",
"!V c #FF0B1408",
"!W c #FF162911",
"!X c #FF152811",
"!Y c #FF1A2F14",
"!Z c #FF27471F",
"![ c #FF250F00",
"!\ c #FF0A0601",
"!] c #FF200E01",
"!^ c #FF3B1800",
"!_ c #FF491D00",
"!` c #FF562200",
"!a c #FF532000",
"!b c #FF192E14",
"!c c #FF0B0400",
"!d c #FF0E0500",
"!e c #FF090500",
"!f c #FF291100",
"!g c #FF4A1D00",
"!h c #FF5C2400",
"!i c #FF632700",
"!j c #FF622700",
"!k c #FF612600",
"!l c #FF1F3718",
"!m c #FF24411C",
"!n c #FF050903",
"!o c #FF0C0500",
"!p c #FF3E1800",
"!q c #FF5D2400",
"!r c #FF612700",
"!s c #FF4E1E00",
"!t c #FF10190A",
"!u c #FF12220E",
"!v c #FF471C00",
"!w c #FF5F2500",
"!x c #FF140800",
"!y c #FF060702",
"!z c #FF25411D",
"!{ c #FF25441E",
"!| c #FF060A04",
"!} c #FF451B00",
"#  c #FF622600",
"#! c #FF341400",
"## c #FF1A2E14",
"#$ c #FF1D3517",
"#% c #FF070601",
"#& c #FF3F1900",
"#' c #FF602600",
"#( c #FF542100",
"#) c #FF0B1207",
"#* c #FF27481F",
"#+ c #FF101C0B",
"#, c #FF230D00",
"#- c #FF210C00",
"#. c #FF0C0600",
"#/ c #FF070200",
"#0 c #FF321400",
"#1 c #FF040502",
"#2 c #FF25421D",
"#3 c #FF070903",
"#4 c #FF401900",
"#5 c #FF0C1709",
"#6 c #FF050401",
"#7 c #FF0B0500",
"#8 c #FF3B1600",
"#9 c #FF5A2300",
"#: c #FF0A0500",
"#; c #FF080D05",
"#< c #FF25441D",
"#= c #FF070C05",
"#> c #FF070400",
"#? c #FF070501",
"#@ c #FF4A1C00",
"#A c #FF5E2400",
"#B c #FF271000",
"#C c #FF203B1A",
"#D c #FF0A1208",
"#E c #FF280F00",
"#F c #FF562100",
"#G c #FF5B2300",
"#H c #FF602500",
"#I c #FF172912",
"#J c #FF2B1000",
"#K c #FF5A2200",
"#L c #FF572200",
"#M c #FF0B1208",
"#N c #FF213B19",
"#O c #FF3B1700",
"#P c #FF5C2300",
"#Q c #FF190B00",
"#R c #FF233F1B",
"#S c #FF0A0400",
"#T c #FF4D1D00",
"#U c #FF351500",
"#V c #FF030301",
"#W c #FF1B3216",
"#X c #FF26451F",
"#Y c #FF091006",
"#Z c #FF612500",
"#[ c #FF101E0D",
"#\ c #FF0C170A",
"#] c #FF2F1200",
"#^ c #FF5D2300",
"#_ c #FF592300",
"#` c #FF0C1508",
"#a c #FF26431D",
"#b c #FF060B04",
"#c c #FF5F2400",
"#d c #FF100700",
"#e c #FF070A04",
"#f c #FF27471E",
"#g c #FF182C13",
"#h c #FF1F0D00",
"#i c #FF040501",
"#j c #FF25431D",
"#k c #FF091007",
"#l c #FF2E1100",
"#m c #FF301300",
"#n c #FF040803",
"#o c #FF391600",
"#p c #FF203918",
"#q c #FF28491F",
"#r c #FF030703",
"#s c #FF050501",
"#t c #FF421A00",
"#u c #FF4B1D00",
"#v c #FF1C2F13",
"#w c #FF020402",
"#x c #FF060602",
"#y c #FF532100",
"#z c #FF131F0D",
"#{ c #FF080702",
"#| c #FF4B1C00",
"#} c #FF0C1307",
"$  c #FF172A12",
"$! c #FF431A00",
"$# c #FF110700",
"$$ c #FF090E05",
"$% c #FF152611",
"$& c #FF010301",
"$' c #FF050400",
"$( c #FF401800",
"$) c #FF170A00",
"$* c #FF192D13",
"$+ c #FF050300",
"$, c #FF3F1800",
"$- c #FF592200",
"$. c #FF1D0C00",
"$/ c #FF220E00",
"$0 c #FF050602",
"$1 c #FF213A1A",
"$2 c #FF070B04",
"$3 c #FF511F00",
"$4 c #FF284B20",
"$5 c #FF0F1508",
"$6 c #FF223E1A",
"$7 c #FF18220D",
"$8 c #FF291000",
"$9 c #FF552100",
"$: c #FF2F1300",
"$; c #FF203616",
"$< c #FF0C0B03",
"$= c #FF223D1A",
"$> c #FF26451C",
"$? c #FF18240E",
"$@ c #FF441A00",
"$A c #FF582200",
"$B c #FF261000",
"$C c #FF203C19",
"$D c #FF0E1206",
"$E c #FF471B00",
"$F c #FF1F3415",
"$G c #FF0E0D04",
"$H c #FF391500",
"$I c #FF0F0700",
"$J c #FF090F06",
"$K c #FF111005",
"$L c #FF080400",
"$M c #FF180900",
"$N c #FF321300",
"$O c #FF542000",
"$P c #FF5E2500",
"$Q c #FF5E2701",
"$R c #FF512000",
"$S c #FF253C19",
"$T c #FF1D220C",
"$U c #FF100B02",
"$V c #FF2A1000",
"$W c #FF522000",
"$X c #FF572100",
"$Y c #FF192F14",
"$Z c #FF2A4920",
"$[ c #FF28471E",
"$\ c #FF283F1A",
"$] c #FF222A0F",
"$^ c #FF171406",
"$_ c #FF0D0801",
"$` c #FF090400",
"$a c #FF030502",
"$b c #FF24431D",
"$c c #FF27431C",
"$d c #FF263C18",
"$e c #FF212F12",
"$f c #FF1D240C",
"$g c #FF141708",
"$h c #FF0D1408",
"$i c #FF0F1B0C",
"$j c #FF2D5023",
"$k c #FF2B4B22",
"$l c #FF2D4F23",
/* pixels */
"     ! # $ % & $ & $ ' # % ( % % % ! ! )   $ $ & & * & & ' + ' & & , - - - . + ' / & $ ' 0 & & $   ) 1 1 1 ) & 2 ' & $ & & + + 3",
" ) ) ! $ $ 4 & + ' & ' % 2 % % % % % ! # % % $ % $ & & $ % & & & + + + - - ' + 3 5 + + ' & & ' $ ! 6 7 7 1 ) 2 & & & / 8 , + + '",
" ) 9   2 & - - 8 & ' & ' $ $ 2 2 $ $ $ & , & & : & & & ; & ; 8 8 8 + 3 < $ $ & + + 3 + ' & $ $ & ! 9 1 1 9 ! $ $ $ & $ & & + $ =",
" ) ) ) $ & + 5 + ' ' & & & & $ % $ $ & 2 $ 2 2 & % ! $ & & + & > ? - % $ $   $ ' + + + + @ 2 % 2 $ ( ) 9 ! ! $ $ $ $ $ $ $ $ $ $",
" ) ) ! ! / + - / & $ & & & % & & A B C D E & 4 2 % $ % $ $ ; 5 > > 5 & & # F # , ' G G + = F (         ) ( 9 !   $ $   $   ! ! !",
" ) )   & ' + + & $ $ $ & & & ! H I J K L M ! & & ! ! ! ! & < 3 ? 5 3 & $ F   # $ , & 8 + $ ) ( ) ) ! ! 9 ) 9 ! !   2   ! # ! ) !",
" ( !   $ $ & & $ $ $ $ & ' N O P Q R S T U V W %   ) ) ! $ ' + + + ' / $ ! $ ) ! % & & 8 $ ) ) 6 ) ) 6 9 9 # 9 9 )   ! ) 9 9 !  ",
"   2 2 $ $ $ $ $ $ $ $ % 1 X Y R Z [ \ ] R ^ _ ` ) 9 ) ! $ $ , ' & $ $ 2   ! ! ! % E & & $ F a     a ) 1 1 ) 1 1 ( a # 9 a ) ) )",
" & & & $ 2 ! ! $ $ $ $ 2 b K c d e \ \ \ f R ^ g W 9 ) ! ! $ $ @ 2   !     ) ) ! ! ! $ $ & 2 # #   ) ) 1 7 1 7 7 1 1 ) ) #     $",
" & & & & 2 9 ! 2 & $ $ 2 h i j k l m [ \ \ f n U o A ) ! $ $ $ #   )   !     ) ! ! !   $ $ $ $ $   ! ) 6 7 7 1 1 ) 1 9 ! 9 $ $ ,",
" & ; / /   ! 2 , @ & $ $ $ p q r l k s [ \ \ ] T t u v w C x y z { z { | }! !!!# ! ! $ $ $ $ $ $   # 9 6 1 7 1 1 1 9 )   $ , $ !",
" + - + + $ $ $ ' 8 ' & & % #   !!$!% k!& \ \ [ s ^!'!( ^ K ^!)!*!*!*!* Y!)!) J!+!,!-!. ( $ $ $ $ $ ! a 6 1 1 7 1 9 )   # $ $ $ !",
" + - + G + + + > - ; ' & $ $   ! !!/ c T e!0 R Q K K!1!2!3 [ \!4!4!4!4!5!6 m!7 T ^!8!9!:!; ! $ $ $ # a 6 1 1 1 1 9   2 , $ $ ! 2",
" - + + 8 : : - > > + & & $ $ ! ! ! )!< K!= P U!1!>!6!?!@!A!A!A!A!A!A!A!A!A!A!@!B e!C!) K!D!E % # !   ) 1 1 1 9 9 )   # 2 $ $ # !",
" < ' & 4 & & + -!F + & $ # ! ! ! ! A!G!8 K!H!I!?!A!A!A!A!A!A!A!A!A!A!A!A!A!A!A!A!A!@!5!J c!K!L ) 2 a 6 9 1 ) !   a   $ & $ !   )",
" 2 & 0 $ E 0 ; & ' & $ $   2 ! 9 A!E!'!)!M!N!A!A!A!A!A!A!A!A!A!A!A!A!A!A!A!A!A!A!A!A!A!A!O!P!K!- $ ) 1 1 ) ! 2 $   $ , 2 $   9 !",
" )   % & $ & & $ & & $ $ 2 ! # A!Q!R!* e!@!A!A!A!A!A!A!A!A!A!A!A!A!A!A!A!A!A!A!A!A!A!A!A!A e U!S & ! ) 9 ! $ / ' & & % $ ! # ! !",
" a # $ $ $ $ 2 $ $ % $   $   p o ^!1!T!@!A!A!A!A!A!A!A!A!A!A!A!A!A!A!A!A!A!A!A!A!A!A!A!A!@!U P!V & = $ # $ & + - & & & $ $ $ #  ",
" ! $ $ $ ! $ 2 % ! ) # # ! %!W ^ l f!4!?!A!A!A!A!A!A!A!A!A!A!A!A!A!A!A!A!A!A!A!@!N!O!I!M n K K!X & + & & & - 8 ; & $ & $ $   $ $",
" 2 $ $ % # F   ! ! 9 9   ! w!' Q ]!4!4!4!@!A!A!A!A!A!A!A!A!A!A!A!A!A!A!A!A!N e S!= P P U Q Q ^!Y & + + & + 5 - + & & $ $ $ $ 2 #",
" $ + $ $ # F ) ) 9 ) ) !!Z i K s!4!4!4!4![!A!A!A!A!A!A!A!A!A!A!A!A!A!@!5 S T U P!\!]!^!_!`!a!H I A ' ; - - 3 3 - + & ! $ $ $ $ 2",
" $ % $ $     a ) 9 1 1 9!b t!c!5!4!4!4!4!4!@!A!A!A!A!A!A!A!A!A!A!@!6!d P K!e!f!g!h!i!i!i!j!k!5 c!l & < & + ? ? G 4 % & $ $ $ # !",
" % $ #   a ) 6 1 1 1 1!m!n T!T!4!4!4!4!4!4!N!@!A!A!A!A!A!A!A!@!6!o P Q!d!p!q!i!i!i!i!i!i!j!r!s!1!t 9 $ $ & 5 3 8 + & % ! ! ! ! !",
" 2 $ !   ) ) 1 1 1 1 1!u K!M!5!4!4!4!4!4!4!4!@!A!A!A!A!A!@ \!J Q T!&!v!w!i!i!i!i!i!i!i!i!i!j!w!x!y!z (   = & 8 + $ & & $ $   # )",
" #       ) 9 1 1 1 1!{!| l [!4!4!4!4!4!4!4!4![!@!A!A!A!B!M c P!&!}!k!i!i!i!i!i!i!i!i!i!i!i!i# #! P## 1 9   $ % / & 2 ' & $ $ ) A",
" )     a ) 9 9 9 9 9#$ ^!d!4!4!4!4!4!4!4!4!4!4!@!A!? m#% U!M#&#'!i!i!i!i!i!i!i!i!i!i!i!i!i!i!i#(!H#) ` 1 ! 2 % $ & & & & & ! ) a",
" ) ) ) ) ) 1 ( ! !#*#+ U!U!4!4!4!4!4!4!4!4!4!4#,#-#. ^#/#0!h!i!i!i!i!i!i!i!i!i!i!i!i!i!i!i!i!i!k!6#1 w 1 )   ! $ ' & & ' & , $ 9",
" a ) ) ) a A 9 $ !#2#3 Q f!4!4!4!4!4!4!4!4!4 \!x!= Q m!a# !i!i!i!i!i!i!i!i!i!i!i!i!i!i!i!i!i!i!i#4!*!< ) ) ! # $ % ' $ & $ ' $ 1",
" ) ) ) ) ) ) ! !!Z#5#6 n \!4!4!4!4!4!4!4!4 \#7 U!H#8!w!i!i!i!i!i!i!i!i!i!i!i!i!i!i!i!i!i!i!i!i!i#9#:#;!. ) ) $ $ $ & ' & $ & $  ",
"         !   % !#<#=#> f!4!4!4!4!4!4!4!4!6#? K!&#@#A!i!i!i!i!i!i!i!i!i!i!i!i!i!i!i!i!i!i!i!i!i!i# #B J#C ) 9   % $ $ & $ & + % !",
" $ $ $ , # 2 ! ! A#D P!6!4!4!4!4!4!4!4 Z l U#E#F#G#G#H!i!i!i!i!i!i!i!i!i!i!i!i!i!i!i!i!i!i!i!i!i!j!} U#I A 9   $ $ $ & ' & % & %",
" % $ $ $ & 2 ! ! )!E K m!4!4!4!4!4!5!x Q P#J#K#G#G#G#A!i!i!i!i!i!i!i!i!i!i!i!i!i!i!i!i!i!i!i!i!i!j#L!P#M!Z 9 ! $ & & $ ' & + & $",
" & $ $ % $ ! !   9#N!8!1 [!4!4!4 [!d U#/#O#K#G#G#G#G#P!k!i!i!i!i!i!i!i!i!i!i!i!i!i!i!i!i!i!i!i!i!i#'#Q j#R ) ! $ ; 8 + + : + $ ,",
" & & & $ & 2 ! # ) A | K#S ] ]!x l P d#T#G#G#G#G#G#G#G#A# !i!i!i!i!i!i!i!i!i!i!i!i!i!i!i!i!i!i!i!i!i#U#V#W ! 2 ' + 8 - + ; % & &",
" + ' $ $ & & $ $   a#X#Y K P P K ^!B!a#G#G#G#G#G#G#G#G#G#Z!i!i!i!i!i!i!i!i!i!i!i!i!i!i!i!i!i!i!i!i!j!g c!< $ ' & - 5 - - & $ & +",
" & + & & & $ & )   # $ 1!b!S#[#\ ^#]#K#G#G#G#G#G#G#G#G#G#^# !i!i!i!i!i!i!i!i!i!i!i!i!i!i!i!i!i!i!i!j#_#>#` ! & & & + + + & 3 & !",
" & + & & + $ # !   # $ ' + G &#a#b!H!s#G#G#G#G#G#G#G#G#G#P#c!i!i!i!i!i!i!i!i!i!i!i!i!i!i!i!i!i!i!i!j!w#d#e#f $ % $ < , $ & & & +",
" & + $ + % !   ) a   $ & < & $ 2#g!8!4#K#G#G#G#G#G#G#G#G#G#P#H!i!i!i!i!i!i!i!i!i!i!i!i!i!i!i!i!i!i!i!k#h#i#j : % ! % ! ! 2 $ & (",
" % & 3 + + $ ! 9 ) ) # $ & $ & %!Z#k ^#l#K#G#G#G#G#G#G#G#G#G#^# !i!i!i!i!i!i!i!i!i!i!i!i!i!i!i!i!i!i!i#m!)!! & & ( ! ! ! 2 $ + (",
" & & & & & $   ) 9 1 9   a a   $ $!m#n!)#o#G#G#G#G#G#G#G#G#G#G#A# !i!i!i!i!i!i!i!i!i!i!i!i!i!i!i!i!i!j#4 ^#p , 2 9 ! ! $ $ ' & %",
" ( & & $ % $ # ) 9 1 1 1 9 1 ) !#q %!l#r#s#t#P#G#G#G#G#G#G#G#G#P#c!i!i!i!i!i!i!i!i!i!i!i!i!i!i!i!i!i!j#u U#v & $ $ )     $ & & +",
" & # $ ! ! $ % ) 1 7 7 7 7 1 ) ! ( & $! #w#x!v#P#G#G#G#G#G#G#G#G!q#H!i!i!i!i!i!i!i!i!i!i!i!i!i!i!i!i!j#y!=#z ; & $ ! $ $ & & % +",
" $ ! ! % 9 % 9 9 1 7 7 7 7 1 ) ! $ & % %!Y!8#{#|#G#G#G#G#G#G#G#G#G#A!k!i!i!i!i!i!i!i!i!i!i!i!i!i!i!i!i!h#:#} E ; & $ $ % & & & 2",
" 2       ) 9 ) ) 1 1 7 7 7 1 )   ( % & )#q$ !8#%$!#G#G#G#G#G#G#G#G#P#^!k!i!i!i!i!i!i!i!i!i!i!i!i!i!i!i!h$#$$#q $ & % $ % ! $ $ $",
" $ $ # #   ! ) ( 1 1 1 7 7 1   ! ! ( $ ! 9 A$%$&$'$(#K#G#G#G#G#G#G#G#P#^!k!i!i!i!i!i!i!i!i!i!i!i!i!i!i#H$)#e!. $ & & & $ $ 2   $",
" $ % 2 $ $ ! ! ( 9 ) 1 1 1 1   ! ! ( % ! ) 9#*$*!'$+$,$-#G#G#G#G#G#G#G#^#^# !i!i!i!i!i!i!i!i!i!i!i!i!i!j$.!y!. $ $ $ $ !       9",
" ! & ' $ $ ! & % % F ! ) ) A 9 % ( 9 % $ ! ! $#q#W!(!=#J$-#G#G#G#G#G#G#G#P#^# !i!i!i!i!i!i!i!i!i!i!i!i!j$/$0#< $ $ $ $ 2   ) # !",
" & ' & 2 ' & & ( : 4 ! ! ! ! % ! 9 a   ! $ ! $ ! %$1$2 K Z$3#G#G#G#G#G#G#G#P#A# !i!i!i!i!i!i!i!i!i!i!i!j!?$0 D 2 ! $ $ & & & ' $",
" ' ' & $ $ & $ $ + % & % $$4 ! % ) # $ $ % $ $ % $ $#j$5 Q!c$,$-#G#G#G#G#G#G#P#A# !i!i!i!i!i!i!i!i!i!i!j#]#i$6 ! ! ! $ ' $ & ' $",
" $ $ $ $ $ % & $ $ $ $ & % % ! ! ( 2 % $ $ $ 2 $ & % !!Z$7$+ l$8$9#G#G#G#G#G#G#P#A!k# !i!i!i!i!i!i!i!i!j$:#i$6 % $   & & & & ' '",
" $ $ $ $ $ $ $ $ # ! ( % % % %   2 $ $ $ $ $ & $ % $ % ##q$;$< U!d$,$-#G#G#G#G#G#G!q#H# !i!i!i!i!i!i!i!j$:#i$= ! % ! 2 & & ' ' %",
" $ $ $ $ $ $ $ # # # & ! % % E & & & & $ $ $ $ $ ' & $ ! ! %$>$?#? P!&$@$A#G#G#G#G#G!q!w# !i!i!i!i!i!i!i$B L B   ! ! & $ & $ & &",
"   $ # $ # $ &       2 & + , + $ $ & $ & & $ & % & $ & $ ! 2 ( p$C$D c!1 [$E$A#G#G#G#G!q#A#H# !i!i!i!i!k$) j!m   2 % 2 $ $ # $ &",
" ! #       $ # & % ; + 5 + ' $   E $ ' $ % $ $ & % & $ $ $ & & , 2#q$F$G P Q!0$H!a#K#G#G#G!q#A!k# !i!j!q$I$J#f ! ! $ 2 ! & $ $ &",
" !   ! ! ) ) ! $ % & & ' = $ # ! $ & $ & $ $ $   $ 2 & & & & & & + + $ A$F$K$L Q R$M$N#@$O#K#P#A$P$Q!k$R$+ | 9   ! )   2 $ 2 $ +",
"     9 9 9   9 $ & & & , $ # a ) $ $ $   $ $ $ # , $ ! & & & $ / + + + $ !!.$S$T$U!P P!1!C!I$V$H#|$W$X#m ^$Y     # ! ! E ! $ $ $",
" 9 ) 9 ) )   $ ' + & $ $ $ #  $Z $ #           2 % 2 & & 8 + / ; / + + $ ! ! ! )$[$\$]$^$_$L k U l!1$` c$a$b % 9   & & ' $ & # &",
" 9 ! !       2 ! & $     2 2 $ !   % ! ) ! ) ) ! 2 $$4 8 - - + - ; & : $ ! ! ) 6 9 6 ) 9!.$c$d$e$f$g$h!D$i % $ ' < + + + , ' & &",
"   # $ # # $ $   % 2 (   # $ 2   $     9 ) ! !   $ $$4 ; 5$j$j - 8 & & $ ! ! ! ) 7 1 1 9   & + - < & &#<#q & & & ' . - 3 - + & +",
" $ $ & $ $ $ $ $ % ( ( !$k $ # ! a   ) 9 ) )   # ! & : - 5$l$l 3 + + & $ ! ! ) 6 1 1 1 1 ! & ' ; + ; + + $ $ % % < G 3 3 - + + ,",
" / & $ $ $ $   ) 9 ) 9 ) # # ! # ! ) ) 6 9 ) ) # % & + 0 - ? 3 - - ' ' % ! ! ) 9 1 1 1 9 ! = $ + + + + & & ! $ ( , , - + ' , & /",
" & $ $ $ $ ! ! ) ) ) 9 A ! $ $ ! # ! a 6 1 ! ! 2 & % ; - + 3 + 8 ' & & & ! $ ! 1 1 7 1 ) ) & $ & 8 ' ' ' p $ $ $ $ & + ' $ 2 & 2",
" $ $ $ $ # ) ) 1 9 1 9 9   ! $ # ! ! ) ) 9 ( ( % & & & + : & ; $ & & 0 & ; , & 6 1 1 ) ) # = , + ' ' & & $ $ $ ! $ $ 2 =   ! $ $",
" & & $ $   ) a 9 ) ) ) ) ! $ $ $ $   a ! 9 ! ( 9 & $ & & & $ & ! $ $ & & - + % ! 1 1 ) 2 , ' + + ' / & & $ $ & ' $ $ & # 2 & $ $"
};