/* XPM */
static char *result[] = {
/* columns rows colors chars-per-pixel */
"64 64 302 2 ",
"   c #FF294A21",
" ! c #FF294A20",
" # c #FF2A4A21",
" $ c #FF2A4B21",
" % c #FF294B20",
" & c #FF2A4C21",
" ' c #FF2B4C22",
" ( c #FF284A20",
" ) c #FF294920",
" * c #FF284C1F",
" + c #FF2B4D22",
" , c #FF2A4C22",
" - c #FF2B4E22",
" . c #FF2B4E23",
" / c #FF2B4C21",
" 0 c #FF294C21",
" 1 c #FF284820",
" 2 c #FF294B21",
" 3 c #FF2C4E23",
" 4 c #FF2A4C20",
" 5 c #FF2C4E22",
" 6 c #FF294820",
" 7 c #FF284720",
" 8 c #FF2B4D21",
" 9 c #FF284920",
" : c #FF294C20",
" ; c #FF2A4D21",
" < c #FF2A4D22",
" = c #FF2A4B22",
" > c #FF2C4F22",
" ? c #FF2C4F23",
" @ c #FF2B4B21",
" A c #FF2A4B20",
" B c #FF2A4A20",
" C c #FF2C4D22",
" D c #FF3A4F21",
" E c #FF4A5222",
" F c #FF384E21",
" G c #FF294921",
" H c #FF3F4F21",
" I c #FF9F6527",
" J c #FFA96828",
" K c #FFA36627",
" L c #FF575422",
" M c #FF655723",
" N c #FFA86727",
" O c #FFA16425",
" P c #FF3A4D21",
" Q c #FF6C5923",
" R c #FFA76728",
" S c #FFA66627",
" T c #FFA76727",
" U c #FF785B23",
" V c #FF384D20",
" W c #FF916024",
" X c #FFA56626",
" Y c #FFA56526",
" Z c #FFA56627",
" [ c #FF9C6426",
" \ c #FF2D4A21",
" ] c #FF2C4A20",
" ^ c #FF7D5C23",
" _ c #FF9E6224",
" ` c #FFA06425",
" a c #FFA26426",
" b c #FFA46526",
" c c #FF9D6426",
" d c #FF304B21",
" e c #FF474F21",
" f c #FF9A6024",
" g c #FF9B6025",
" h c #FF9D6125",
" i c #FF8F6024",
" j c #FF2A4E22",
" k c #FF515121",
" l c #FF996224",
" m c #FF545422",
" n c #FF3E4E20",
" o c #FF354B21",
" p c #FF354B20",
" q c #FF905E24",
" r c #FF9B6124",
" s c #FF875F24",
" t c #FF445122",
" u c #FF404E20",
" v c #FF916125",
" w c #FFA16526",
" x c #FF916124",
" y c #FF495121",
" z c #FF374B20",
" { c #FF685523",
" | c #FF6B5723",
" } c #FF4A5122",
"!  c #FF324E21",
"!! c #FF2B4E21",
"!# c #FF3B4D21",
"!$ c #FFA66727",
"!% c #FF835D23",
"!& c #FF2B4A20",
"!' c #FF2A4D20",
"!( c #FF445121",
"!) c #FF926124",
"!* c #FFA86828",
"!+ c #FF966225",
"!, c #FF2D4B21",
"!- c #FF415022",
"!. c #FF966224",
"!/ c #FFA36526",
"!0 c #FF475021",
"!1 c #FF7C5D24",
"!2 c #FFA66728",
"!3 c #FF755B23",
"!4 c #FF314D22",
"!5 c #FF956124",
"!6 c #FF775B23",
"!7 c #FF2F4E21",
"!8 c #FFA46627",
"!9 c #FF4C5222",
"!: c #FF2F4D22",
"!; c #FF425021",
"!< c #FF555523",
"!= c #FF4F5322",
"!> c #FF374D21",
"!? c #FF645823",
"!@ c #FF9F6324",
"!A c #FFA36426",
"!B c #FF815E24",
"!C c #FF364D21",
"!D c #FF3B4E21",
"!E c #FF3A4E20",
"!F c #FF3C4E21",
"!G c #FF405021",
"!H c #FF545523",
"!I c #FF7F5D24",
"!J c #FF9A6224",
"!K c #FF9E6324",
"!L c #FF9D6324",
"!M c #FF8B6024",
"!N c #FF495222",
"!O c #FF304E21",
"!P c #FF865E23",
"!Q c #FF9F6425",
"!R c #FF2D4B20",
"!S c #FF665622",
"!T c #FF955F24",
"!U c #FF996024",
"!V c #FF986124",
"!W c #FF996124",
"!X c #FF9C6324",
"!Y c #FF906024",
"!Z c #FF394F21",
"![ c #FF28481F",
"!\ c #FF655823",
"!] c #FF2C4B21",
"!^ c #FF5C5421",
"!_ c #FF9B6024",
"!` c #FF9C6025",
"!a c #FF9F6325",
"!b c #FFA26526",
"!c c #FFA46626",
"!d c #FF4F5422",
"!e c #FF344D20",
"!f c #FF2F4C21",
"!g c #FF324C20",
"!h c #FF975F24",
"!i c #FF9F6225",
"!j c #FFA06325",
"!k c #FF9B6324",
"!l c #FF485222",
"!m c #FF4B5221",
"!n c #FF6E5A23",
"!o c #FF505021",
"!p c #FF865F24",
"!q c #FF314E22",
"!r c #FF2A4920",
"!s c #FF4C5122",
"!t c #FF675622",
"!u c #FF9C6125",
"!v c #FF9E6225",
"!w c #FFA16426",
"!x c #FF9C6124",
"!y c #FF4C5322",
"!z c #FF28491F",
"!{ c #FF885F24",
"!| c #FF795C24",
"!} c #FF2E4C22",
"#  c #FF745A23",
"#! c #FF795A23",
"## c #FF405121",
"#$ c #FF635823",
"#% c #FF5B5622",
"#& c #FF374E22",
"#' c #FF625622",
"#( c #FFA06324",
"#) c #FF725923",
"#* c #FF9E6125",
"#+ c #FF755A23",
"#, c #FF334B20",
"#- c #FF9B6426",
"#. c #FFA46527",
"#/ c #FF4B5121",
"#0 c #FF9D6225",
"#1 c #FF675722",
"#2 c #FF8B6025",
"#3 c #FF9E6325",
"#4 c #FF635622",
"#5 c #FF3D4C20",
"#6 c #FF9F6526",
"#7 c #FF9A6124",
"#8 c #FF475122",
"#9 c #FF2D4C22",
"#: c #FF2C4C21",
"#; c #FF8D6025",
"#< c #FF314B20",
"#= c #FF685722",
"#> c #FF925E24",
"#? c #FF8F5E24",
"#@ c #FF505222",
"#A c #FF515322",
"#B c #FF805D23",
"#C c #FF354D21",
"#D c #FF2C4B20",
"#E c #FF815D23",
"#F c #FF9D6124",
"#G c #FF935E24",
"#H c #FF334E22",
"#I c #FF785D24",
"#J c #FFAA6929",
"#K c #FF855E23",
"#L c #FF3E4F21",
"#M c #FF9D6025",
"#N c #FF435121",
"#O c #FF7A5D25",
"#P c #FF8A5F24",
"#Q c #FF354E21",
"#R c #FF4F5221",
"#S c #FF4B5321",
"#T c #FF314C21",
"#U c #FF5A5422",
"#V c #FF9F6226",
"#W c #FF505221",
"#X c #FF4F5222",
"#Y c #FFA36626",
"#Z c #FF3D5022",
"#[ c #FF625823",
"#\ c #FF8F6125",
"#] c #FF3A5022",
"#^ c #FF8E5F24",
"#_ c #FF3A4E21",
"#` c #FF5B5522",
"#a c #FF8B5F24",
"#b c #FF976124",
"#c c #FFA06525",
"#d c #FF465322",
"#e c #FF2D4D22",
"#f c #FF795C23",
"#g c #FF625723",
"#h c #FF454F21",
"#i c #FF855D23",
"#j c #FF4A5021",
"#k c #FF334C20",
"#l c #FF4C5422",
"#m c #FF515522",
"#n c #FF375122",
"#o c #FF7D5D24",
"#p c #FF645722",
"#q c #FF485021",
"#r c #FF765B23",
"#s c #FF2F4A20",
"#t c #FF675823",
"#u c #FFA76627",
"#v c #FF9A6325",
"#w c #FF3C5122",
"#x c #FF2A4E21",
"#y c #FF354C21",
"#z c #FF875E23",
"#{ c #FF845E23",
"#| c #FF344D21",
"#} c #FF384E22",
"$  c #FFA86728",
"$! c #FF956225",
"$# c #FF354C20",
"$$ c #FF314C20",
"$% c #FFA26425",
"$& c #FF845F25",
"$' c #FF9A6326",
"$( c #FF976224",
"$) c #FF284B20",
"$* c #FF936124",
"$+ c #FF515222",
"$, c #FF3F4E20",
"$- c #FFA16424",
"$. c #FF976225",
"$/ c #FF3D4E21",
"$0 c #FF3D4F21",
"$1 c #FF655722",
"$2 c #FF6A5723",
"$3 c #FF434F21",
"$4 c #FF2D5023",
"$5 c #FF2B4B22",
"$6 c #FF2D4F23",
"$7 c #FF284A1F",
/* pixels */
"     ! # $ % & $ & $ ' # % ( % % % ! ! )   $ $ & & * & & ' + ' & & , - - - . + ' / & $ ' 0 & & $   ) 1 1 1 ) & 2 ' & $ & & + + 3",
" ) ) ! $ $ 4 & + ' & ' % 2 % % % % % ! # % % $ % $ & & $ % & & & + + + - - ' + 3 5 + + ' & & ' $ ! 6 7 7 1 ) 2 & & & / 8 , + + '",
" ) 9   2 & - - 8 & ' & ' $ $ 2 2 $ $ $ & , & & : & & & ; & ; 8 8 8 + 3 < $ $ & + + 3 + ' & $ $ & ! 9 1 1 9 ! $ $ $ & $ & & + $ =",
" ) ) ) $ & + 5 + ' ' & & & & $ % $ $ & 2 $ 2 2 & % ! $ & & + & > ? - % $ $   $ ' + + + + @ 2 % 2 $ ( ) 9 ! ! $ $ $ $ $ $ $ $ $ $",
" ) ) ! ! / + - / & $ & & & % & & & $ $ % A & 4 2 % $ % $ $ ; 5 > > 5 & & # B # , ' C C + = B (         ) ( 9 !   $ $   $   ! ! !",
" ) )   & ' + + & $ $ $ & & & & % $ % A $ $ & & & ! ! ! ! & < 3 ? 5 3 & $ B   # $ , & 8 + $ ) ( ) ) ! ! 9 ) 9 ! !   2   ! # ! ) !",
" ( !   $ $ & & $ $ $ $ & ' & 2 2 $ % % & & & $ %   ) ) ! $ ' + + + ' / $ ! $ ) ! % & & 8 $ ) ) 6 ) ) 6 9 9 # 9 9 )   ! ) 9 9 !  ",
"   2 2 $ $ $ $ $ $ $ $ % $ % & $ $ ! $ $ $ $ #   ) 9 ) ! $ $ , ' D E F $   ! ! ! % A & & $ B G     G ) 1 1 ) 1 1 ( G # 9 G ) ) )",
" & & & $ 2 ! ! $ $ $ $ 2 % % % % $ % 2 $ A   ! G ) 9 ) ! ! $ $ H I J K L # ) ) ! ! ! $ $ & 2 # #   ) ) 1 7 1 7 7 1 1 ) ) #     $",
" & & & & 2 9 ! 2 & $ $ 2 % % ! !     ! # !   ) G G ) ) ! $ $ $ M N J N O P   ) ! ! !   $ $ $ $ $   ! ) 6 7 7 1 1 ) 1 9 ! 9 $ $ ,",
" & ; / /   ! 2 , @ & $ $ $ % 9 9 ) 9 9 ) #     ) G ) ) ! # # 2 Q N R S T U ! #   $ ! $ $ $ $ $ $   # 9 6 1 7 1 1 1 9 )   $ , $ !",
" + - + + $ $ $ ' 8 ' & & % #   ! ) 9 9 ! ) ) ) ) ) 9 9 !   ! V W X Y Z T [ \ $ # ! ! $ 2 $ $ $ $ $ ! G 6 1 1 7 1 9 )   # $ $ $ !",
" + - + C + + + > - ; ' & $ $   ! ! 6 1 9 9 9 9 9 ( 9 1 9 9 ] ^ _ ` a b N c d $ ! # !   $ $ ! $ $ $ # G 6 1 1 1 1 9   2 , $ $ ! 2",
" - + + 8 : : - > > + & & $ $ ! ! ! ) 9 1 1 6 9 ! 9 9 1 1 1 e f g h ` O O i d G ! ! = ) !   & & # !   ) 1 1 1 9 9 )   # 2 $ $ # !",
" < ' & 4 & & + - j + & $ # ! ! ! ! ) G G ) 9 ) ( ) 9 9 1 1 k f g g h ` l m   G ) 9 G ) )   $ $ $ 2 G 6 9 1 ) !   G   $ & $ !   )",
" 2 & 0 $ A 0 ; & ' & $ $   2 ! 9 ! ) ! d n o   ) ! ) 9 9 9 p q g f r s t = $ ! ( 1 G ) ) ! A & & $ ) 1 1 ) ! 2 $   $ , 2 $   9 !",
" )   % & $ & & $ & & $ $ 2 ! # ! !   u v w x y   2 A ! $ ) 9 z { | }!  8 + & $ ! 9 ) #   0 8!! - & ! ) 9 ! $ / ' & & % $ ! # ! !",
" G # $ $ $ $ 2 $ $ % $   $   % $ A!# W T N!$!%!&!' & $ $   ) ) G $ ; + 5 - 8 A A ! ! ! $ & ' C - & = $ # $ & + - & & & $ $ $ #  ",
" ! $ $ $ ! $ 2 % ! ) # # ! % A $!(!) ` T!* N!+!, & + & A $   G # $ + + - - & ' & $ $ 2 & & A / ; & + & & & - 8 ; & $ & $ $   $ $",
" 2 $ $ % # B   ! ! 9 9   ! $ &!-!. ` ` b b S!/!0!! 8 - & & $ $ = $ & - 5 5 3 ' $ & , + , & $ % 0 & + + & + 5 - + & & $ $ $ $ 2 #",
" $ + $ $ # B ) ) 9 ) ) !   $ C!1 ` ` ` Z Z!2 T!3 & 8 8 & & & , ' & 8 - + ; + & & ' ' + - ; & 2   & ' ; - - 3 3 - + & ! $ $ $ $ 2",
" $ % $ $     G ) 9 1 1 9   &!4!5 ` ` ` S Z!2 T!6 / & $ $ & & & ' / + ; - & / $ & ' ' + + 5 + $ #   & < & + ? ? C 4 % & $ $ $ # !",
" % $ #   G ) 6 1 1 1 1 1 ! $!7 i ` ` O b!8 R X!9 $ $ ! $ $ $ & ' ' %!:!;!<!=!> ' ' ' C 5 - & $   !   $ $ & 5 3 8 + & % ! ! ! ! !",
" 2 $ !   ) ) 1 1 1 1 1 9 ( 0 8!?!@ ` O!A Z N!B $ ! ! #!&!C!D!E!F!G!H!I!J!K!L!M!N ' + 3 3 + + $   9 6 (   = & 8 + $ & & $ $   # )",
" #       ) 9 1 1 1 1 1 ) 9   &!O!P ` a!A Z!Q!G # ! !!R!S!T!U!V!W!X!K!@!@!@!@!@!Y!Z + 5 - 8 ,   1 1 1 1 9   $ % / & 2 ' & $ $ )![",
" )     G ) 9 9 9 9 9 9 9 (   & C!% O a O!@!\!] $ ! )!^!_!` g g!a!b Z!c!/ O!@!@!L!d - + & $ %   9 1 1 1 1 ! 2 % $ & & & & & ! ) G",
" ) ) ) ) ) 1 ( ! ! 9 ( ! ) ! '!e l ` O ` W!f & $  !g!h!`!i h g!j T N N J Z ` `!k!l 8 / $ $ &   ! 1 1 1 1 )   ! $ ' & & ' & , $ 9",
" G ) ) ) G![ 9 $ ! )   ! (   !!m!K ` ` `!n & 2 $ !!o!_!`!i h h `!A!j!/ T!$ ` `!p!q + $ $ $ $ 2 %!r ) 9 ) ) ! # $ % ' $ & $ ' $ 1",
" ) ) ) ) ) ) ! ! ! ! # ) !   &!s!K ` `!X!( $ $ $  !t!_ g!`!u!a!a!v!v!v!i!w h!x!y & + % $ $ $ 2 # # ) ) ) ) ) $ $ $ & ' & $ & $  ",
"         !   % !!z   # $ % $ & F!{!@!K!|!} A % ( !# !a!v!a ` `!a!a!v!v!v h g!_#!!} & $   # ! ! # 2 ! ) 9 ) 9   % $ $ & $ & + % !",
" $ $ $ , # 2 ! ! )     $ $ $ 2 &###$#%#& $   ! ! $#'#(!$ S!/ ` `!a!v!v!v h g g!_#)!f $ ! ! ) ) # G ) 9 1![ 9   $ $ $ & ' & % & %",
" % $ $ $ & 2 ! ! ) )   # $ $ $ + + < ; & $ $ ! # $ }!c S Z!A!/ ` `!a#* h h g g g!_#+ ] # ! ) ) G G 6 1 1 9 9 ! $ & & $ ' & + & $",
" & $ $ % $ ! !   9 )   # # $ ' & & & $ $ $ $ $ ! 2#,#- R#.#. b O `!a!u g g g g g g f#/ ! G ) ) ) ) 9 6 ) ) ) ! $ ; 8 + + : + $ ,",
" & & & $ & 2 ! # ) ! G   $ & & & & & & $ & $ 2 # $   L!$ Z#.!A!/ `!a#0 g g g g g g!_#1 % ! ! ) ) 9 ) ! )   ! 2 ' + 8 - + ; % & &",
" + ' $ $ & & $ $   G   $ ' & & / ' ' & & & & $ $ !  !r#2 Z!8!8!/ ` `!a#0#0!a#3!`!_!x#4 ! !   G ! !     ! $ $ ' & - 5 - - & $ & +",
" & + & & & $ & )   # $ ' + & & & $ & ' & $ & % $   9#5#6 S!8!8!/ ` ` ` ` ` ` `!a!a#7#8 2 ! ! # ! 4 4 % A ! $ & & & + + + & 3 & !",
" & + & & + $ # !   # $ ' + C & $ $ $#9#: & $ 2 ! $!R#; N S#.#.!/ ` ` ` ` O Z!c `!@ U @ ! # !   ! % $ $ $ $ & $ % $ < , $ & & & +",
" & + $ + % !   ) G   $ & < & $ 2#<#=#>#?#@ + & ; /#A!*!* Z#.!/ O ` ` `!b!* J J O#B#C $ % 2 % % ! 2   2 & & & : % ! % ! ! 2 $ & (",
" % & 3 + + $ ! 9 ) ) # $ & $ &#D#E#F g g#G#H + + '#I N R#.!A!/ ` ` `!c J#J#J!*#K!> $ & $ % $ %   2 & $ & / / & & ( ! ! ! 2 $ + (",
" & & & & & $   ) 9 1 9   G G  #L!@#M!` g f#N + C 8#O N R!A!A ` ` `!$ J#J J!*#P#Q ' & & $ 2 &!g#R#S#T ' + + - , 2 9 ! ! $ $ ' & %",
" ( & & $ % $ # ) 9 1 1 1 9 1 )#U!@!i#V g f#W + < &#X#Y T b ` ` ` O!* J J!$!)#Z + ' & / & +#[!2 J!*#\#] + ? 8 & $ $ )     $ & & +",
" & # $ ! ! $ % ) 1 7 7 7 7 1#,#^ O `!v!_!h#_ & $ &#D#`#a#b l!k!L!X#Y!$#c!M#d + & ' + +#e#f J#J#J#J!*#g 8 - - ; & $ ! $ $ & & % +",
" $ ! ! % 9 % 9 9 1 7 7 7 7 1#h!L!w O#F#i#j ! ( ! ! ! B#k!F!G!(!N#l!d#m#d#n - + + ' ' +#o!$ J J#J#J R#p - - : / ; & $ $ % & & & 2",
" 2       ) 9 ) ) 1 1 7 7 7 1#q!L `!@#r#s ! ) ) ) ! # )     ! $ & + - - - 5 - ' ' ' +#t O#u!2!* J J#v#w >#x ; & $ & % $ % ! $ $ $",
" $ $ # #   ! ) ( 1 1 1 7 7 1#y#z!L#{#| ! 9 ) 9 ) ! )!z   ) ) # A & ; + & ' & $ & '#}!K!/ S Z$  N$!#Z > > - & & $ & & & $ $ 2   $",
" $ % 2 $ $ ! ! ( 9 ) 1 1 1 1  $#!0$$ % ! ) 9 9 ! ) ) ) 9!z 9 ! ! 2 & ' & $ $ $ $ $ Q `$% b Z N$&#D + 5 > - & & $ $ $ $ !       9",
" ! & ' $ $ ! & % % B ! ) )![ 9 % ( 9 % $ ! ! $ ! 2 ! 9 ) G 9 ' ( !   $ $ $ 2 $ $ $ i `$% Y S$'!] A ,!! + 3 & & $ $ $ $ 2   ) # !",
" & ' & 2 ' & & ( : 4 ! ! ! ! % ! 9 G   ! $ ! $ ! & # 1 G ) 9 ! ! ) ! # $ $ $ $ 2!]$( ` O T N!\ $ 2 $ & & 2 2 % 2 ! $ $ & & & ' $",
" ' ' & $ $ & $ $ + % & % $$) ! % ) # $ $ % $ $ % $ $   ) ) ! ( ! 9 !   $ $ $ $ # @$* `!b R!$$+ $     2 2     ! ! ! ! $ ' $ & ' $",
" $ $ $ $ $ % & $ $ $ $ & % % ! ! ( 2 % $ $ $ 2 $ & % !   ) ( ( 9   ! 2 # $ $ #    !6 `!c J T L $ # #   ! ! ) ! % $   & & & & ' '",
" $ $ $ $ $ $ $ $ # ! ( % % % %   2 $ $ $ $ $ & $ % $ % # ! ! & ! ! ! #   # !   ) 9$,!)$- X$.$/ # # ! ) G ) ) ) ! % ! 2 & & ' ' %",
" $ $ $ $ $ $ $ # # # & ! % % A & & & & $ $ $ $ $ ' & $ ! ! % % & % ! $   G ) 9 9 )  $0$1$2$3 # # ! ! G ) ) 9 )   ! ! & $ & $ & &",
"   $ # $ # $ &       2 & + , + $ $ & $ & & $ & % & $ & $ ! 2 ( % ( % $ ) 9 9 G G ) ! !   # # # # !   ) 6 1 9 )   2 % 2 $ $ # $ &",
" ! #       $ # & % ; + 5 + ' $   A $ ' $ % $ $ & % & $ $ $ & & , 2 % % 9 1 9 ) ) ) # # $ $ # # ! # G ) 1 9 9 ! ! ! $ 2 ! & $ $ &",
" !   ! ! ) ) ! $ % & & ' = $ # ! $ & $ & $ $ $   $ 2 & & & & & & + + $ $ ( ! ! ! ! ! !   ! $ # #   G ) ) 9 ( 9   ! )   2 $ 2 $ +",
"     9 9 9   9 $ & & & , $ # G ) $ $ $   $ $ $ # , $ ! & & & $ / + + + $ ! ! ! 9   # ! !   ! $ $   ! ! ! ( 9     # ! ! A ! $ $ $",
" 9 ) 9 ) )   $ ' + & $ $ $ #  !r $ #           2 % 2 & & 8 + / ; / + + $ ! ! ! ) ) ) ) ! !   $ & , 2 2 2 ( ( % 9   & & ' $ & # &",
" 9 ! !       2 ! & $     2 2 $ !   % ! ) ! ) ) ! 2 $$) 8 - - + - ; & : $ ! ! ) 6 9 6 ) 9 ) 2 & & 8 , & & $ & $ ' < + + + , ' & &",
"   # $ # # $ $   % 2 (   # $ 2   $     9 ) ! !   $ $$) ; 5$4$4 - 8 & & $ ! ! ! ) 7 1 1 9   & + - < & & % & & & & ' . - 3 - + & +",
" $ $ & $ $ $ $ $ % ( ( !$5 $ # ! G   ) 9 ) )   # ! & : - 5$6$6 3 + + & $ ! ! ) 6 1 1 1 1 ! & ' ; + ; + + $ $ % % < C 3 3 - + + ,",
" / & $ $ $ $   ) 9 ) 9 ) # # ! # ! ) ) 6 9 ) ) # % & + 0 - ? 3 - - ' ' % ! ! ) 9 1 1 1 9 ! = $ + + + + & & ! $ ( , , - + ' , & /",
" & $ $ $ $ ! ! ) ) ) 9![ ! $ $ ! # ! G 6 1 ! ! 2 & % ; - + 3 + 8 ' & & & ! $ ! 1 1 7 1 ) ) & $ & 8 ' ' '$7 $ $ $ $ & + ' $ 2 & 2",
" $ $ $ $ # ) ) 1 9 1 9 9   ! $ # ! ! ) ) 9 ( ( % & & & + : & ; $ & & 0 & ; , & 6 1 1 ) ) # = , + ' ' & & $ $ $ ! $ $ 2 =   ! $ $",
" & & $ $   ) G 9 ) ) ) ) ! $ $ $ $   G ! 9 ! ( 9 & $ & & & $ & ! $ $ & & - + % ! 1 1 ) 2 , ' + + ' / & & $ $ & ' $ $ & # 2 & $ $"
};