/* XPM */
static char * default_wall_xpm[] = {
"64 64 6 1",
" 	c #000000",
".	c #FFFFFF",
"+	c #FF0000",
"@	c #FF0000",
"#	c #FF0000",
"$	c #FF0000",
"                                                                ",
" .............................................................. ",
" .............................................................. ",
" .............................................................. ",
" .............................................................. ",
" .............................................................. ",
" .............................................................. ",
" .............................................................. ",
" .............................................................. ",
" .............................................................. ",
" .............................................................. ",
" .............................................................. ",
" .............................................................. ",
" .............................................................. ",
" .............................................................. ",
" .............@@@@.....................@@@@@@.................. ",
" .............@@@@.....................@@@@@@.................. ",
" .............................................................. ",
" .............................................................. ",
" .............................................................. ",
" .............................................................. ",
" .............................................................. ",
" .............................................................. ",
" .............................................................. ",
" .............................................................. ",
" .............................................................. ",
" .............................................................. ",
" .............................................................. ",
" .............................................................. ",
" .............................................................. ",
" .............................................................. ",
" .............................................................. ",
" ......................................  ...................... ",
" .....................................   ...................... ",
" ...................  ................  ....................... ",
" .................... ................  ....................... ",
" ....................  ..............  ........................ ",
" .....................  ............  ......................... ",
" ......................  .........   .......................... ",
" .....................@.           @@.......................... ",
" ....................@@...        ..@@......................... ",
" ....................@...............@......................... ",
" .............................................................. ",
" .............................................................. ",
" .............................................................. ",
" .............................................................. ",
" .............................................................. ",
" .............................................................. ",
" .............................................................. ",
" .............................................................. ",
" .............................................................. ",
" .............................................................. ",
" .............................................................. ",
" .............................................................. ",
" .............................................................. ",
" .............................................................. ",
" .............................................................. ",
" .............................................................. ",
" .............................................................. ",
" .............................................................. ",
" .............................................................. ",
" .............................................................. ",
" .............................................................. ",
"                                                                "};
