/* XPM */
static char *_a622d71951a460fdb67fdf993f8abf4QeiMHrHsRc1srUOB[] = {
/* columns rows colors chars-per-pixel */
"64 64 47 1 ",
"  c #070301",
". c #090501",
"X c #070B04",
"o c #0C0B04",
"O c #130D05",
"+ c #1B0E05",
"@ c #0E1107",
"# c #0E1509",
"$ c #0F1A0B",
"% c #141107",
"& c #1A1007",
"* c #121509",
"= c #1C1309",
"- c #111C0C",
"; c #1A1E0C",
": c #221107",
"> c #251208",
", c #2B1409",
"< c #32170A",
"1 c #36190B",
"2 c #3B1B0C",
"3 c #13210E",
"4 c #152610",
"5 c #182610",
"6 c #172912",
"7 c #192C13",
"8 c #1C3316",
"9 c #1F3718",
"0 c #1F3819",
"q c #213C1A",
"w c #421E0E",
"e c #46200E",
"r c #4A220F",
"t c #4E2410",
"y c #522611",
"u c #5B2A13",
"i c #632E15",
"p c #673016",
"a c #6D3217",
"s c #713418",
"d c #25441D",
"f c #28471F",
"g c #27481F",
"h c #28491F",
"j c #284720",
"k c #2A4B21",
"l c #2D5023",
/* pixels */
"kkfkkkkkkkkkkkkhkhkhkkkkklhkklklkkllklkkkkkklkkkkkjjkgkkkkkkllkl",
"kkkkkhkllklkkkhkkkhkkkkkkklkkkkkklkllkklkllkkkkkkjjjjhkkkkkkkkkl",
"kjkkllllkklkkkkklhkkkkklhlhlklkkkklkkkklklklkkkkkjkjjkkkkkklkkkk",
"fkjkkkkkkkkkklkkkkkkkkkkhhkhklklllkkkkkklklkkkklkkjkhkkkkkkkkklk",
"kfkkkklkkkklkkkkkkkkkkkklhhkklklllkkkkkkkllkkkkkkkkjkgkkkkkkkkkk",
"fkkkkllkkkkkkkkkkkkkkkkkhhkhkkllklkkkkkkkkklkjkjjkkhgkkhkkkkkkjk",
"kkkkkkkkkkkkklkklhhklhkkkkhkkkllklkkkkkgkkkkkkkjkjjkjkhkjkkjgkkk",
"kjjkkkkkkkkkkkkkkhklkkkkhkkhkkkkkkkkgkkkkkkkkkjkkjkjjkjjkjkkjjkj",
"kklkkgkkkkkkkkkkkkkkkkkjgkkgkkkkkkkkkjkkkkkkkkkkkjkjjjggggkjkkkk",
"lkkkkkkklkkkkkhkkkjkkkkjkgkkkkkkkkgkkkjkjkkkkkkkkkkjjjjkkjgkjkkk",
"kkkkkkkkkkkkkkhhkhjkjkkkjkkgkkkkgkkkkjkkkkkkklkkjkgjjjjjgjkjkkkk",
"kllkkkhllkkkkkkkjhkhkhjjkjgkkkhkkgkkkkkkjkkkkkkkkkkkjjjjjkkkkkkk",
"klkllhlhlllkkkkkhkhkjkkjkfjkjjkhkkkklkkkkkkkkkkkkjkjkgjgkkkkkkkk",
"lklklhlllkkkkkkhkjjjjjhhfkjfjkjkkkkkkkjkkkjkkkkkkkkjjjkgkkkkkkkk",
"klkglhhlhlkkkkhkkhkjkhjkkhjjjjkkkkkkkkkjgjkjkkkkkjjkgjkkjkkkkjkj",
"kkkkhhllkhkkkhkhkjkkkjkhkkjjjkjjkkkkkkkkjkjkkkkkkkjjkkgkkkkkkkkk",
"kkkkkkkkkkkkkkkkhkhkhhkkhhhkhhjkkllklkkkkgkkkllkkkkkgkkkglkkkkkg",
"kkkkkkkkkkkkkkkkkkkkkkkklklkkkkkkkklkkkkkkkkkkklkkkklglllgkkkkkk",
"kkkkgkkkkgkkkkkkkkkkkhkkhklkkkkkkklklkkkkkkkkkkkkkkkklglgklkkkkk",
"kkkkkkkkkjjkhkkkkkkkkkkkllkkkkkkkkkklllkkkklkkkkkklkkllklgkkkkkk",
"kkkkkkkgjkghkkkkllkkkkkkklkkkklkkklkklkkkkklkkkkklklklkllkkkkkkk",
"kkkkkkgkkjjkkkllkkkkkkkkkkkklkkkllklkkkkkllkllkkkkkkllllkkkkkkkk",
"kkkkkkggkggkhkhllkkkkkkkkkkkkkkkkkkklkkllkklkkkjkkkkglkkkkkkkjkj",
"kkkkgkgkjjjjkkllkkkkkkhq669fkkkkklkllkkkkklllkkkkjkkklklkkkkkkkk",
"kjkkjkgjjjjkjkkkkkkkkh6o,,O@-8djlkllkklkklllkkkgkjgkkkkkkklkkkkk",
"kkkjgkkgkgkgjklkkkhlhh$+riir1+%7kklkllllklkkkkkkgjjjkkkkkkkkkkjk",
"kjkjkjgkkkgkkhkhlhkklhd8#+<euirO4kllklkklkkkkkkkgjgggkkklkklkkkg",
"jkjkjgkkggkkkkkkkkklkhhlfq6-%+wt@0klkkllklkkkkkkjkkjjkkkkkkkkkkj",
"kjjkkjkgkhjkkkkkkkhlhkhhkkkfq6Xy1$jlllkllkkkkkkkkjkjjkkkkkkkkkkk",
"kkkkkkkkgkkkkjqdhllkhlhhgkkfjd@tu%0kkkkkkkkkkkjkkkjkkkkkkkkklkkk",
"kkkkkkkkjkkkk8X=36789dddkkkkkf#wa1$jkkkkkkkkkjkkkjkjggkklkklkkkk",
"kkkkkkkjkjkkk8o2e11<>%@#$369dj4:pu@0kjkjjkkjkkjkjkjjkkkkkkkklkkk",
"klkkkkkkjkkkkk8-=:,1rytw11,+*6q@ta<#qjkjjkkkjkjkhhjkhkhklklkklkk",
"kkkkkkjkkkkkkkkkq963*=>wtyuut>&X>puO-jkjkjkkhkjhjkkjkkkkklklkkkk",
"klkkkkkkkjkkkkklkkkkf973-oO>1yuwtpayO4qkjkkjkkjkhhkhkklkklkkkkkl",
"kkkkkkkkkkkkkkkkkkkkkgkkkdq6$%+<etisi>@7fkkkhkkkklhkkkkkkllkklkk",
"klkkkkkkkkkkklkkkkkfkkkkkkkjhf86-@+2upw+*6fhkhkkhlkkklkhklkkkklk",
"lkkkkkkkjkkkkkkkkk9@-689qqdfhhggkd8$O<rue>%$8fjkkkkkkkkhhkkkkkkk",
"kklkkkkjjkkkkkkkkk3<yw<,:%O*3370qjkjq4%&2ur,O@-9dhkkkhklhkkhkklh",
"kkklkkkkjjkkjkkkkg-,1wtyytuye1,:%%-47774o+ruuw>O$0klllkkgkkkkkkk",
"klkkkkkkkfjjkfkgggd3$$-@o>uaurryttw1<,>=%  ,ypir@3gllkkkkkkkkkkl",
"kkkkkkkfjjjjfkfkkkkhhkg0O1r,&***%=:<2eyyy,X*+yu2X8llklkkkhkklkhk",
"kkkkkggkjjjjjjkkkkkkhgg7O,@30ggfjq84-%@++O7j4+,+3glglklkkkkkkklk",
"kkkkgkfkkjjjjjfkkhkkhgg9$60khhhkklkkkkdq8qkkk6-8hhllglkkkkkkgkkk",
"kkkkkkfkhkgjjfkgkkkhhkkfgggkkkkhkkkkkklkkkkklkkkhllllkkkkklkkkkk",
"kkkkkkkhkhkfkkkkhgkkkhkgjkkgggkkkkkkkkkkkklkkllklhhllkkkkkkkkkkk",
"kkkkkkkkkkkgjfgkkgkkkhkhkkgkkgkkkkkkkkkkkkkkllkklklklkkkkkkkkgkk",
"kkkkkkkhhkgkgkkgkkkhkkkkkkgkkggkkkkkkkkkkkllkkkkhkkkkkkkkkkkkkkk",
"lkkkkkkkkkkkkkkkkkkkkkkkkkkkkkgkkjkjkkkkkkklkkkkhhkkkjkhkkkkklkk",
"kkkkkkkkkkkkkkkkkkkkkkkkkkkkgkkgkkkjkkkkkkkkkkkkhlkhkkhkkkkkkkkl",
"kkkkkkkkkkkkkkgkkkklkkkkkkkkkgkkkkjkkkkjjkjkkkkkkkkjgjjkhkkkkklk",
"kkkkkkkkkkkkhhkkkkkkkkkkkkkkkkkkkkkkkjgkjkkkkkkkhkjkkgkkkhkkkkkk",
"kkjkkkkkkkkklkkkklkkkkkkkkkkkkkkkjkjkjkkkkjkjkkkkkhjkhjkkkkkklkk",
"kkkkkkkkklklklkkkkkkkkkkkkklkklkkkkkkkjjjkkkkkkjkjkjkjgkhkkkkkkk",
"kkkkjjkkkkkkkkkkkkkkkkkkkkkkkklklkkkkkkkkjkkkkkkkjjjhkgkkkkkkkkl",
"kkkkkkkkkkkkkkkkkkkkkkkkkkkkkkkkkklkkjkjkkjjkkkkkkkkkjkkkhkkkkkk",
"kjjkkkkklkkkkkkjkkkkgkkkkklklkkkkllkkkkjjkkkkkkklgkkgkkgkkkkkkkk",
"jkkkkkkkkkkjkkkkgkkgkgkgkkgkkklllkkkkgkjkjkggkkkklkkkkklkklkklkk",
"kkkkjkkkkkkkkkkkkkkgkkkkkkkklllkkkkkkkkjjjjgjklllgkkkkkkkllkkllk",
"kkkkkkkkkkkhkkkkkkgkkgkkglkkllllklkkkkkjjjjgkkkkllklkkkklklllklk",
"kkkkkkkgkgjkkkkkkgkgkgkkkllgkllklkkkjkjgkjjgkkklglkkkkkkkkllkkkl",
"kkkkkjkkgkjjjkkkkkkggkgkkgklklklkklkkkkjgjjkkkkklkklkkkkkkkkkkkk",
"kkkkkkjjkhjjkkkkgkgkkkgkglklkllkkklkkkkkgkgkkkkklkkkkkkkkkkkkkkk",
"kkkkkjkhkkjkkkkkkkkgkggglglgkkkkkkkkkkkkggkkkklkklkkkkklkkkkkkkk"
};
