/* XPM */
static char *_4e0e25341764df6853fbe4f6ae7b084Oe6QTrfqdlpdw2pE[] = {
/* columns rows colors chars-per-pixel */
"64 64 46 1 ",
"  c #FF020201",
". c #FF0B0502",
"X c #FF060B04",
"o c #FF090D06",
"O c #FF100703",
"+ c #FF140904",
"@ c #FF1C0D05",
"# c #FF091107",
"$ c #FF0B1408",
"% c #FF0E1A0B",
"& c #FF111E0D",
"* c #FF210F06",
"= c #FF261107",
"- c #FF281207",
"; c #FF261208",
": c #FF2D1409",
"> c #FF33170A",
", c #FF36180B",
"< c #FF3C1B0C",
"1 c #FF13220F",
"2 c #FF152610",
"3 c #FF162811",
"4 c #FF192E14",
"5 c #FF1C3316",
"6 c #FF1F3718",
"7 c #FF1F3818",
"8 c #FF223C1A",
"9 c #FF431E0D",
"0 c #FF45200E",
"q c #FF4B220F",
"w c #FF50240F",
"e c #FF4D2410",
"r c #FF542611",
"t c #FF562811",
"y c #FF5B2913",
"u c #FF642E15",
"i c #FF682F15",
"p c #FF673016",
"a c #FF6D3216",
"s c #FF25431D",
"d c #FF28461F",
"f c #FF27481F",
"g c #FF28491F",
"h c #FF284720",
"j c #FF2A4B21",
"k c #FF2D5023",
/* pixels */
"jjfjjjjjjjkjjjjggjgjjjjjjjjjjjjjjkkjkjkjjjjjjjjjjjhhjjjjjjjjjjkk",
"jjjjjjjkjjjjjjjjjgjjjgkgjjjjjjkjkjjkkjjkkjkjkjkjjjhhfjjjjjjkjkjj",
"hjhjjkkkkjjjjjjjjjjjkjjgjjjkjkjjjjkjjjjkjkjjjjjjjjjhjfjjjjjjjkjj",
"jhjjjkjjjjkjjkjgjjkjjjjkjjjjjkjkkkjjjjjjkjkkjjjjjjsjfjjjjjjjjjjj",
"fjjgjjkjjjjjjgjkkgjgjjjjjjjjjjkkkjjjjfjjjkjjjjhjjjjhjhjjjjjjjjjj",
"hfjjjjjkjjjkjkjgjjgkjjjjjjjgjkjkkkjjjjjjjkjkjsjjsjfjjhfjjjjjjjjj",
"jjjjjjjjjkjjkkjjjjjjjjjjjjgjjjkkjjjjjjjjjjjjjjjjjhhjfjfhhjjjjhjj",
"jjjjjjjjjjjgggjjjjjjjjjjgfgjjjjjjjjjjjfjjjjjjjjjjjjhhjjhjhjsjjhh",
"kjjjjjjjjjjjjjjjjfjjjjjhfjjgjjjjjjjjjjhhjfjjjjjjjhjhhhhhhhjfjjjj",
"jjjkjffjjjjjgjjgjjjjhjjjjhfjjjjjjjjjhjjjjjjjjjjjjjhjhhhhjhhjjjjj",
"jkjjjjjjjjjgjggghjsjjjjshjjgjjjgjfjjjjjhjjjjjjjjjjhhjfhjhhjhjjjj",
"fkjkjjjjkjjkjjjjjjjjhjhjjhhjjjjjjjjjjjjjjjjjkjjjjhjhhfhhhjjjjjjj",
"kkjkjkjkkjkjjjjjjjhjjhsjjjfhjfjgfjjjjjjjjjjjjjjjjjhhhhjhhjjjjjjj",
"kfkjjkkkkjjjjjjgjsjshjjgfhjhhhfjjjjjjjjjhjjgjjjjjjjhhjhjhjjjjjjj",
"kffjjjkkkjjjjjjghjhjjshjjhhjhjjjjjjjjjjjhjhjhjjjjjhjhhhjjjjjjjjh",
"fkjjjjjjjjjjjjgjjjjjjjjjgfjfhjhhjjjjjjjjhjjhjjjjjjhhjhjjjjjjjjhj",
"fjjkfjkjjjjjjjjjgjjgjgjjggjjgjhjjkkjjjjjjjjjjjjkjjjhjjjjjjjjjjfj",
"jjjjjjjjjjjjjjjjjjgjjjjjkgjjjjjjjjjkkkjjjjjjjjkjjjjjjjkkjjkjjjfj",
"jjjjfjjfgjjjjjjjjjgjjjjjgkkjjjjjjjkjkjjjjjjjjjjjjkjjjkkjkjjjjjjj",
"jjjjjjjjjhfjfjjjkjjjjjgjkjkjjjjjjjjkjkkjjjjjkjjkjjjjjkjkjjjjjjjj",
"jjjjjjfjjfjjjjjkkkjjjjjjjkjjjkjjkkkjjkjjjjjkjjjjjkjkjkkjjjjjjjjj",
"jjjjjjjjhfhhjkjkjjjjjjjjjjjjjjjjjjjkjkjjkkkjkjjjjjjjjkkjjjjjjjjj",
"jjhjhjfhhjhffjjjkjjjjjjjssjjjjjjjjjjjjjkjjjkkjjjjjjjjkkkjjjjjjjj",
"jjjjjfjhhhhjjjkjjjjjjj4XX o1sjjjjjkkkjjjjkjkjjjjjhjjjjjjjjjjjjjj",
"jjjjjhhhhhjffjjkjjkjjs  ..   o6fkjkkkkjjjkjkjjjhfjfjjjjjkjjjjjff",
"jjjhfjjfjffjjjjjjjjjjs  .9t<O  %hjjkkkkkjkkjjjjjhhhhjjfjjjjkkjjj",
"hjhjjfjjfjjjjjjjjjjjjj8#  .*ty< %jkkjkkjjkjjjjjjhhhhjjjjjkjjjjjf",
"jhjhjffjjhjfjjjjjjkjjjjj5o  .@<> 4kjjkjkjkjjjjjjfjfjjfjjjjjjjjjj",
"hjhjhjjffjjjjjjjkjgkjjjjjh4o  oq. jjkjkjjjjjjjjjjjfhjhjjjjkjjjjj",
"jjjjhjfjfjjjj7%%135sffjfjjjs5  ee 2jjjjjjjjjjjhjjjfjjfjjjjjjjkjj",
"jjjjjjjfjjjjs   X    X$28jjjj2 ;p@ hjjjjjjjjjjjjjjjffjjjjjjjjjjj",
"jjjjjjjjfjjj6  :<>>=.X    $4ss  ur $fjjjjjfjjfhjhhhhjfjjkjjkjjjj",
"kjjjjjjjhjjj8#   .*>9wq<@.   oo <p+ 4jhjhjjfjhgjffhjjgjjjkjjjkjj",
"jjjjjjhjjjjjjjs4$   . O=<9r9@   +pe. 8hhjjjjgjjhhjgjjgjjkjkjkgjj",
"jkjjjjjjjhjjjjjkjhs4$X    .O:<:@9pa<  2sjjjjjjjjjjjjkjjjjkjkjjjk",
"jjjjjjjjjjjjkjjjjjjjjss62#X   . +>ra<   18sjjgjhjgjggjjkjkjkjkjg",
"jkjjjjjjjjjjjkjjjs&X135568s883$    .<t,.  o18fjjgjjjjjjjjjjjjjjk",
"kjjjjjjjhjjjjjjjj&         X#%2562o  .<t0+   #5sjjjjkjgjjjjjjjjj",
"jjkkjjjhjjjjjjjjj$ *0,:;+.        $22X .,tq@    4jjjjjjkjjjjjjjj",
"kjjjjjjjhhhjhjjjj$ +><qreerr9:@+.         =ty<+  &jjjkjjfjjjjjjj",
"jjjjjjjjjsjhjhjjj3       .tpq<<900<:@+     .>uu< Xfkkjjjjfjjjjjk",
"jjjhjjfjhhhhhhsjjj5111%  >0.      .;<0er>.   >y: Xfjkkkjjjjjjkjj",
"jjjjjfjhhhhhhsjjjjjjjf# O;X o231%o    o+. o8X .  5jjfjjkjjjjjkjj",
"jjjjfjfjjhhhhjjjgjjggj%   X4jfjjjj82# .  o7jso  5jkkkjjjjjjjjjjj",
"jjjjjjfjjsjhsjjjjfjjjfs648fgjfjjjjjjjfsshjkjkjhsgjkkkjjjkjjjjjjj",
"jjjjjjjfgjjhjfjjjjgjgjjjgjfffjjjjjjjjjjjjjjkjkjkgkkkkjjjjjjjjfjf",
"jjkjjjjjjgfjjsjffjgjjgjjjjfffjjfjjjjjjjjjjjjjjjjjjgkkjjjjjjjjjjj",
"jjjjjjjfgjjjjjfjfjjjjjjgjjfjffjjjjjjjjjjjjjjkjjjjgkgjjjjjjjjjjjj",
"jkjjjjjjjjjjjjjjjjjjjjkjjjjjjffjhjjjjjjjjjjkjjhjjjjjjjjjfjjkjjjj",
"jjjjjjjjjjjjjjjgjjjjjjjjjjjjjfjfjjjjjjhjjjjjjjjjjjjjfjfjjjjjjjjk",
"jjjjjjjjjjjjkggjjjjjjjjjjjjjjjjjjjjhjjjjhjhjjjjjjjjjfjjjffjjjjjj",
"jjjjjjjjjjjjgjjjjjjjjjjjjjjjjfjjjhjjjhhjhjjjjhjjfjjfjhfjjjjjjjkj",
"jjjjjjjjjjjjkjjjjjjjjjjjjjkjjjjjjjjjjhjhjjjjjjjjjjfhjsfjjjjjjjjj",
"jjhjjjjjjkjkjkjjjjkjjjjjjjjjjjkjjjjfhhhjhjhjjjjjjhjhjjjhjjjjkjjj",
"jjjjhhjjjjjjjjjjjjjjjjjjjjjjjkjjjjjjjjjjjjjjjjjjjhhhjhhjfjjjjjjk",
"jjjjjjhjjjjjjjjjjjjjjjjjjjjjjjjjkjjjjhjhjhjjjjjjjjjjfjjjjfjjjjjj",
"hhjhhjjjjjjjjjjhjjjjjjjjjjkfkjkjjkkjjjjhjhjjjjjjjjjjjjjjjjjkjjjj",
"jjjjjjjjjjjjjjjjjjjfjfhjjffkjkjjjjjjjhjhhjhffjjjkjjkjjjjjjjjjjjk",
"jjjjjjjjjjjjjjjjjjjfjjjjjjfkkkkkjjkjhjjhhhffjjjkjjjjjjjjjkkkkjjk",
"jjjjjjjjjjjjjjjjfjjjhjfjfkfkjkkjkjjjjjjhhhjhjjjjkjjjjjjjkjjkjkjj",
"jjjjjjjjfjfjjjjjjffffjfjjjkjkkjkkjjjjjjfffjhjjjkjjkjjjjjjjkjjkjj",
"jjjjjjjhjfjfhjjjjjjjfjjfjjkjjkjkjjkjfjjhhhhjjjjjjkkjjjjjjjkkjjjj",
"jjjjjhjsjshhjjjjjfjffjfkjjjjjkkjjjjjjjjfjhjjjjjjjkjjjjjjjjjjjjjj",
"jjjjjhjjjjhjjjjjjjfjfjjfjjkjjjjjjjkjjjjjhfjjjjkjkjjjjjjkjjjjjkjj"
};
