/* XPM */
static char * forest_flower_red[] = {
"64 64 249 2",
"  	c #FFFFFF",
". 	c #FFFEFE",
"+ 	c #FFFCFC",
"@ 	c #FFF4F4",
"# 	c #FEDDDD",
"$ 	c #FECECE",
"% 	c #FEDCDD",
"& 	c #FEE4E5",
"* 	c #FEE8E8",
"= 	c #FFF1F1",
"- 	c #FFF9F9",
"; 	c #FEDEDE",
"> 	c #FD9192",
", 	c #FC252E",
"' 	c #FC0016",
") 	c #FD7678",
"! 	c #FEB9BA",
"~ 	c #FFEDED",
"{ 	c #FFF0F0",
"] 	c #FEE5E6",
"^ 	c #FEE9EA",
"/ 	c #FEE6E7",
"( 	c #FFF2F2",
"_ 	c #FFF5F5",
": 	c #FEBCBC",
"< 	c #FC3A3F",
"[ 	c #FD9FA0",
"} 	c #FFF7F7",
"| 	c #FEE1E1",
"1 	c #FDB5B6",
"2 	c #FD6E70",
"3 	c #FC2A32",
"4 	c #FC343A",
"5 	c #FC373D",
"6 	c #FD7E80",
"7 	c #FEDADB",
"8 	c #FDADAE",
"9 	c #FC0519",
"0 	c #FC1E28",
"a 	c #FECFD0",
"b 	c #FFF3F3",
"c 	c #FDA5A6",
"d 	c #FC3B40",
"e 	c #FD797B",
"f 	c #FFF8F8",
"g 	c #FD9798",
"h 	c #FC3F44",
"i 	c #FED3D3",
"j 	c #FED5D5",
"k 	c #FC2E35",
"l 	c #FC1C26",
"m 	c #FC0B1C",
"n 	c #FD8587",
"o 	c #FFEBEB",
"p 	c #FECDCE",
"q 	c #FEE7E7",
"r 	c #FEE3E3",
"s 	c #FEEAEA",
"t 	c #FC4C50",
"u 	c #FDA0A1",
"v 	c #FD8183",
"w 	c #FFEEEF",
"x 	c #FFFBFB",
"y 	c #FEE4E4",
"z 	c #FD676A",
"A 	c #FC0F1E",
"B 	c #FC0217",
"C 	c #FD9B9C",
"D 	c #FEBCBD",
"E 	c #FEC7C8",
"F 	c #FFFAFA",
"G 	c #FEC8C8",
"H 	c #FC262E",
"I 	c #FC252D",
"J 	c #FD9395",
"K 	c #FDAAAB",
"L 	c #FC5558",
"M 	c #FD6E71",
"N 	c #FD7072",
"O 	c #FC363C",
"P 	c #FD8486",
"Q 	c #FED5D6",
"R 	c #FDB1B2",
"S 	c #FC565A",
"T 	c #FC0117",
"U 	c #FD7073",
"V 	c #FECBCB",
"W 	c #FFEEEE",
"X 	c #FECCCD",
"Y 	c #FD7274",
"Z 	c #FC1D27",
"` 	c #FC4F53",
" .	c #FED0D1",
"..	c #FDB7B8",
"+.	c #FC3B41",
"@.	c #FEDFE0",
"#.	c #FD6466",
"$.	c #FC5154",
"%.	c #FEE2E2",
"&.	c #FDB2B3",
"*.	c #FC1220",
"=.	c #FC101E",
"-.	c #FD8284",
";.	c #FD8D8E",
">.	c #FC081B",
",.	c #FDA2A3",
"'.	c #FDACAD",
").	c #FDB3B3",
"!.	c #FD8B8D",
"~.	c #FC091B",
"{.	c #FC3A40",
"].	c #FDA7A8",
"^.	c #FC0D1D",
"/.	c #FD8F91",
"(.	c #FDA1A2",
"_.	c #FEB8B9",
":.	c #FDB5B5",
"<.	c #FD8082",
"[.	c #FD7D7F",
"}.	c #FFECEC",
"|.	c #FC575A",
"1.	c #FD6A6D",
"2.	c #FC4348",
"3.	c #FEE8E9",
"4.	c #FC383D",
"5.	c #FC0017",
"6.	c #FEEAEB",
"7.	c #FD7C7E",
"8.	c #FEDBDB",
"9.	c #FED2D3",
"0.	c #FC3C41",
"a.	c #FC111F",
"b.	c #FC2830",
"c.	c #FD7376",
"d.	c #FECACB",
"e.	c #FEE5E5",
"f.	c #FEC9CA",
"g.	c #FD686A",
"h.	c #FC061A",
"i.	c #FC464A",
"j.	c #FC393E",
"k.	c #FC4246",
"l.	c #FD6567",
"m.	c #FD4C51",
"n.	c #FC4D51",
"o.	c #FD999A",
"p.	c #FC1B26",
"q.	c #FD6C6F",
"r.	c #FD7577",
"s.	c #FED9D9",
"t.	c #FC0418",
"u.	c #FC3E43",
"v.	c #FEE6E6",
"w.	c #FC484C",
"x.	c #FEBEBF",
"y.	c #FC4448",
"z.	c #FC1321",
"A.	c #FC5054",
"B.	c #FD8586",
"C.	c #FC272F",
"D.	c #FD6D70",
"E.	c #FC3F45",
"F.	c #FD7375",
"G.	c #FEE0E0",
"H.	c #FEDCDC",
"I.	c #FD9193",
"J.	c #FC2B32",
"K.	c #FC383E",
"L.	c #FC4247",
"M.	c #FD7A7C",
"N.	c #FEC1C2",
"O.	c #FEC6C6",
"P.	c #FEB1B1",
"Q.	c #FFE7E7",
"R.	c #FFEAEB",
"S.	c #FFEFEF",
"T.	c #FD9C9D",
"U.	c #FB7876",
"V.	c #FBCFCC",
"W.	c #FB2B27",
"X.	c #FD9293",
"Y.	c #F7F5EC",
"Z.	c #DEA768",
"`.	c #FED2D2",
" +	c #FEFFFE",
".+	c #DFFEDE",
"++	c #7BEB36",
"@+	c #D29D11",
"#+	c #FB1E16",
"$+	c #F5FFF5",
"%+	c #A4FFA4",
"&+	c #19FE00",
"*+	c #53F502",
"=+	c #A8CF30",
"-+	c #F7796B",
";+	c #FDB6B7",
">+	c #FCFFFC",
",+	c #CFFFCF",
"'+	c #2BFF2B",
")+	c #00FF00",
"!+	c #01FF00",
"~+	c #AAFCA5",
"{+	c #F8F0E8",
"]+	c #FECBCC",
"^+	c #FED7D7",
"/+	c #EDFFED",
"(+	c #74FF74",
"_+	c #6BFF6B",
":+	c #E5FFE5",
"<+	c #FFECED",
"[+	c #F8FFF8",
"}+	c #B1FFB1",
"|+	c #C8FFC8",
"1+	c #FBFFFB",
"2+	c #E1FFE1",
"3+	c #47FF47",
"4+	c #4FFF4F",
"5+	c #E9FFE9",
"6+	c #C5FFC5",
"7+	c #0DFF0D",
"8+	c #B3FFB3",
"9+	c #F9FFF9",
"0+	c #B0FFB0",
"a+	c #3EFF3E",
"b+	c #E7FFE7",
"c+	c #F4FFF4",
"d+	c #8BFF8B",
"e+	c #F1FFF1",
"f+	c #F2FFF2",
"g+	c #81FF81",
"h+	c #7FFF7F",
"i+	c #80FF80",
"j+	c #73FF73",
"k+	c #F0FFF0",
"l+	c #B8FFB8",
"m+	c #33FF33",
"n+	c #DBFFDB",
"o+	c #DFFFDF",
"p+	c #35FF35",
"q+	c #94FF94",
"r+	c #6EFF6E",
"s+	c #24FF24",
"t+	c #8FFF8F",
"u+	c #64FF64",
"v+	c #EEFFEE",
"w+	c #DCFFDC",
"x+	c #79FF79",
"y+	c #6DFF6D",
"z+	c #D0FFD0",
"                                              . + .                                                                             ",
"                                          . @ # $ % & * = - .                                                                   ",
"                                        - ; > , ' ' ' ' ) ! ~ .       . - { ] * ^ / ] ] * ( +                                   ",
"                                      _ : < ' ' ' ' ' ' ' ' [ _   . } | 1 2 3 4 5 ' ' ' ' 6 7 +                                 ",
"                                    _ 8 ' ' ' ' 9 ' ' ' ' ' 0 a b # c d ' ' ' ' ' ' ' ' ' ' e (                                 ",
"                                  f ! ' ' ' ' ' ' ' ' ' ' ' ' e g ' ' ' ' ' ' ' ' ' ' ' ' ' h i +                               ",
"                                + j k ' ' ' ' ' ' ' ' ' ' ' ' l ' ' ' ' m ' ' ' ' ' ' ' l ' ' n b                               ",
"                                f c ' ' ' ' ' ' ' ' ' ' ' ' ' ' ' ' ' ' ' ' ' ' ' ' ' ' ' ' ' h o                               ",
"                                + p ' ' ' ' ' ' ' ' ' ' ' m ' ' ' ' ' ' ' ' ' ' ' ' ' ' ' ' ' ' q                               ",
"                                  r ' ' ' ' ' ' ' ' ' ' ' ' ' ' ' ' ' ' ' ' ' ' ' ' ' ' ' ' ' ' q                               ",
"                                  s t ' ' ' ' ' ' ' ' ' ' ' ' ' ' ' ' ' ' ' ' ' ' ' ' ' ' ' ' h o                               ",
"                                  } u ' ' ' ' ' ' ' ' ' ' ' ' ' ' ' ' ' ' ' ' ' ' ' ' ' ' ' ' v w x .                           ",
"                                  . y z ' ' ' ' ' ' ' ' ' ' ' ' ' ' ' ' ' ' ' ' ' ' A B ' ' 0 C D E | ( +                       ",
"                                    F G H ' ' ' ' ' ' ' ' I J K e L M N , ' ' ' ' ' ' ' ' ' ' ' ' ' O P Q -                     ",
"                                - o # R S T ' ' ' ' ' ' U V b f = o { W X Y Z ' ' ' ' ' ' ' ' ' ' ' ' ' `  .x                   ",
"                              _ ..S k ' ' ' ' ' ' ' ' +.@.+             + { a #.' ' T ' ' ' ' ' ' ' ' ' ' $.%..                 ",
"                            _ &.*.' ' ' ' ' ' =.*.' ' -.b                   @ ;.' ' B ' ' ' ' ' ' ' ' >.' ' ,.}                 ",
"                          @ '.' ' ' ' ' ' ' ' ' ' ' ' ).-                   @ !.' ' ' ' ' ' ' ' ' ' ' ~.' ' {.| .               ",
"                        @ ].' ' ' ^.' ' ' ' ' ' ' ' ' /._                   } (.' ' ' ' ' ' ' ' ' ' ' ' T ' ' _.-               ",
"                      - :.' ' ' ~.' ' ' ' ' ' ' ' ' ' <.(                   ( [.' ' ' ' ' ' ' ' ' ' ' ' ' ' ' !.@               ",
"                      }.|.' ' ' ' ' ' ' ' ' ' ' ' ' ' 1.~                   }.2.' ' ' ' ' ' ' ' ' ' ' ' ' ' ' -.(               ",
"                      s {.' ' ' ' ' ' ' ' ' ' ' ' ' ' ' X +                 3.4.' ' ' ' ' ' ' ' ' ' ' ' 5.' ' > _               ",
"                      6.{.' ' ' ' ' ' ' ' ' ' ' ' ' ' ' 7.8.= +           x 9.' ' ' ' ' ' ' ' ' ' ' ' ' ' ' ' X +               ",
"                      6.0.' ' ' ' ' ' ' ' ' ' ' ' ' ' ' a.b.c.d.e.^ }.= ~ f.g.' ' h.' ' ' ' ' ' ' ' ' ' ' ' i.o                 ",
"                      ^ < ' ' ' ' ' ' ' ' ' ' ' ' ' ' ' ' ' ' 0 ' j.k.l.m.' ' ' ' ' ' ' ' ' ' ' ' ' ' ' ' ' D F                 ",
"                      s n.' ' ' ' ' ' ' ' ' ' ' ' ' ' ' ' ' ' ' ' ' ' ' ' ' ' ' ' ' ' ' ' ' ' ' ' ' ' ' ' o.(                   ",
"                      ( [.' ' ' ' ' ' ' ' ' ' ' T ' ' ' ' ^.' ' ' ' ' ' ' ' p.' ' ' ' ' ' ' ' ' ' ' ' ' q.y .                   ",
"                      + $ ' ' ' ' ' ' ' ' ' ' ' ' ' ' ' ' m ' ' ' ' ' ' ' ' ' ' ' ' ' ' ' ' ' ' ' ' 0 r.s.x                     ",
"                        } K ' ' t.' ' ' ' ' ' ' ' ' ' ' ' ' ' ' ' ' ' ' ' ' ' ' ' ' ' ' ' ' ' ' ' ' u.%.+                       ",
"                          v.0.' ' ' ' ' ' ' ' ' ' ' ' ' ' ' ' ' ' ' ' ' ' 5.' ' ' ' ' ' ' ' ' ' ' w.x.-                         ",
"                          - x.y.' ' ' ' ' ' ' ' z.A.B.' ' ' ' ' ' ' ' ' ' ' ' ' C.D.u.4.E.F.<.!...G.f                           ",
"                            f H.I.J.' ' K.L.2 M.N.e.O.' ' ' ' ' ' ' ' ' ' ' ' ' ' P.Q.R.}.= ( @ - .                             ",
"                              . _ v.y / ^ }.{ ( x . S.T.' ' ' ' ' ' ' ' ' ' ' ' ' !.@                                           ",
"                                                    . o U.' ' ' ' ' ' ' ' ' ' ' ' -.(                                           ",
"                                                      + V.W.' ' ' ' ' ' ' ' ' ' ' X._                                           ",
"                                                        Y.Z.' ' ' ' ' ' ' ' ' ' 0 `.+                                           ",
"                                                       +.+++@+#+' ' ' ' ' ' ' ' [ _                                             ",
"                                                      $+%+&+*+=+-+' ' ' ' ' A.;+~ .                                             ",
"                                                    >+,+'+)+!+~+{+]+[.' ;.T.^+} .                                               ",
"                                                    /+(+)+)+_+:+ ++ ( <+@ } +                                                   ",
"                                                  [+}+)+)+)+|+1+                                                                ",
"                                                 +2+3+)+)+4+5+                                                                  ",
"                                                1+6+)+)+7+8+9+                                                                  ",
"                                                [+0+)+)+a+b+                                                                    ",
"                                                c+d+)+)+(+e+                                                                    ",
"                                                f+g+)+)+h+f+                                                                    ",
"                                                f+i+)+)+i+f+                                                                    ",
"                                                f+i+)+)+i+f+                                                                    ",
"                                                f+i+)+)+i+f+                                                                    ",
"                                                f+g+)+)+h+f+                                                                    ",
"                                                c+d+)+)+j+k+                                                                    ",
"                                                9+l+)+)+m+n+ +                                                                  ",
"                                                 +o+p+)+)+q+$+                                                                  ",
"                                                  k+r+)+)+s+b+                                                                  ",
"                                                  $+t+)+)+u+v+                                                                  ",
"                                                  >+w+x+y+z+1+                                                                  ",
"                                                    >+c+f+1+                                                                    ",
"                                                                                                                                ",
"                                                                                                                                ",
"                                                                                                                                ",
"                                                                                                                                ",
"                                                                                                                                ",
"                                                                                                                                ",
"                                                                                                                                "};
