/* XPM */
static char *result[] = {
/* columns rows colors chars-per-pixel */
"64 64 237 2 ",
"   c #294A21",
".  c #294A20",
"X  c #2A4A21",
"o  c #2A4B21",
"O  c #294B20",
"+  c #2A4C21",
"@  c #2B4C22",
"#  c #284A20",
"$  c #294920",
"%  c #284C1F",
"&  c #2B4D22",
"*  c #2A4C22",
"=  c #2B4E22",
"-  c #2B4E23",
";  c #2B4C21",
":  c #294C21",
">  c #284820",
",  c #294B21",
"<  c #2C4E23",
"1  c #2A4C20",
"2  c #2C4E22",
"3  c #294820",
"4  c #284720",
"5  c #2B4D21",
"6  c #284920",
"7  c #294C20",
"8  c #2A4D21",
"9  c #2A4D22",
"0  c #2A4B22",
"q  c #2C4F22",
"w  c #2C4F23",
"e  c #2B4B21",
"r  c #2A4B20",
"t  c #2A4A20",
"y  c #2C4D22",
"u  c #294921",
"i  c #2A4E22",
"p  c #2B4E21",
"a  c #2A4D20",
"s  c #2D4F24",
"d  c #28481F",
"f  c #2A4920",
"g  c #28491F",
"h  c #2A4E21",
"j  c #28471F",
"k  c #1A3014",
"l  c #0F1D0C",
"z  c #091007",
"x  c #050A04",
"c  c #060B05",
"v  c #070D05",
"b  c #12210E",
"n  c #223E1B",
"m  c #24421D",
"M  c #172A12",
"N  c #0F1B0C",
"B  c #0A1208",
"V  c #0A1308",
"C  c #080E06",
"Z  c #24421C",
"A  c #030502",
"S  c black",
"D  c #020202",
"F  c gray4",
"G  c #111111",
"H  c #151515",
"J  c #090909",
"K  c #010101",
"L  c #060905",
"P  c #192D14",
"I  c #142510",
"U  c #040504",
"Y  c gray6",
"T  c #131313",
"R  c #030503",
"E  c #152510",
"W  c #13220F",
"Q  c #000100",
"!  c #0B0B0B",
"~  c #343434",
"^  c #4C4C4C",
"/  c gray31",
"(  c #505050",
")  c gray30",
"_  c gray26",
"`  c gray13",
"'  c #060606",
"]  c #060B04",
"[  c #192E14",
"{  c #27461F",
"}  c #27461E",
"|  c #1C3216",
" . c #010201",
".. c #464646",
"X. c #515151",
"o. c #565656",
"O. c #555555",
"+. c #424342",
"@. c #142410",
"#. c #111E0D",
"$. c #010200",
"%. c gray2",
"&. c #3A3A3A",
"*. c gray32",
"=. c #4B4B4B",
"-. c #585858",
";. c gray34",
":. c #4E4E4E",
">. c #2E2F2E",
",. c #080908",
"<. c #14240F",
"1. c #162912",
"2. c #040803",
"3. c #060C05",
"4. c #0C1609",
"5. c #1B3115",
"6. c #10190E",
"7. c gray33",
"8. c #5B5B5B",
"9. c #181818",
"0. c #233F1C",
"q. c #494949",
"w. c gray28",
"e. c #444544",
"r. c #434443",
"t. c gray27",
"y. c #535353",
"u. c #464746",
"i. c #111211",
"p. c #27451E",
"a. c #070B06",
"s. c #0D180A",
"d. c #162113",
"f. c gray1",
"g. c gray20",
"h. c #2F2F2F",
"j. c #26451E",
"k. c #233E1B",
"l. c #1C3417",
"z. c #162811",
"x. c gray29",
"c. c #0E100E",
"v. c #020301",
"b. c #050604",
"n. c gray10",
"m. c #3C3C3C",
"M. c #1C3315",
"N. c #25431D",
"B. c #090C08",
"V. c gray3",
"C. c #070807",
"Z. c #020402",
"A. c #080F06",
"S. c #12200E",
"D. c #040704",
"F. c #484848",
"G. c #434343",
"H. c gray25",
"J. c #030402",
"K. c #111F0D",
"L. c #101C0C",
"P. c #1C3316",
"I. c #0E1A0C",
"U. c gray17",
"Y. c gray22",
"T. c #393939",
"R. c #373737",
"E. c #101110",
"W. c #27481E",
"Q. c #152611",
"!. c #1D1D1D",
"~. c #2C2C2C",
"^. c #232323",
"/. c gray21",
"(. c #282828",
"). c #121312",
"_. c #25441E",
"`. c #353535",
"'. c gray5",
"]. c #161616",
"[. c #414141",
"{. c #444444",
"}. c #070707",
"|. c #050904",
" X c #29491F",
".X c #23401C",
"XX c #313131",
"oX c gray8",
"OX c gray24",
"+X c gray14",
"@X c #191919",
"#X c #3F3F3F",
"$X c #294A1F",
"%X c #202020",
"&X c gray16",
"*X c gray12",
"=X c #272727",
"-X c gray7",
";X c gray23",
":X c #040404",
">X c #3E3E3E",
",X c #030602",
"<X c #091107",
"1X c #27471F",
"2X c #0A1108",
"3X c #1B1B1B",
"4X c #2A2A2A",
"5X c #131413",
"6X c #203A19",
"7X c #393A39",
"8X c #0C0C0C",
"9X c #5A5A5A",
"0X c #0C1509",
"qX c #101A0D",
"wX c #474847",
"eX c #252525",
"rX c #010301",
"tX c gray19",
"yX c #0E190B",
"uX c #27481F",
"iX c #4A4B4A",
"pX c #1E3617",
"aX c #223F1B",
"sX c #23411B",
"dX c gray15",
"fX c #26441E",
"gX c #030403",
"hX c #26461E",
"jX c #213C1A",
"kX c #1B3015",
"lX c #020502",
"zX c #24401C",
"xX c #284B20",
"cX c #2D5023",
"vX c #2B4B22",
"bX c #2D4F23",
"nX c #284A1F",
/* pixels */
"    . X o O + o + o @ X O # O O O . . $   o o + + % + + @ & @ + + * = = = - & @ ; + o @ : + + o   $ > > > $ + , @ + o + + & & < ",
"$ $ . o o 1 + & @ + @ O , O O O O O . X O O o O o + + o O + + + & & & = = @ & < 2 & & @ + + @ o . 3 4 4 > $ , + + + ; 5 * & & @ ",
"$ 6   , + = = 5 + @ + @ o o , , o o o + * + + 7 + + + 8 + 8 5 5 5 & < 9 o o + & & < & @ + o o + . 6 > > 6 . o o o + o + + & o 0 ",
"$ $ $ o + & 2 & @ @ + + + + o O o o + , o , , + O . o + + & + q w = O o o   o @ & & & & e , O , o # $ 6 . . o o o o o o o o o o ",
"$ $ . . ; & = ; + o + + + O + + + o o O r + 1 , O o O o o 8 2 q q 2 + + X t X * @ y y & 0 t #         $ # 6 .   o o   o   . . . ",
"$ $   + @ & & + o o o + + + + O o O r o o + + + . . . . + 9 < w 2 < + o t   X o * + 5 & o $ # $ $ . . 6 $ 6 . .   ,   . X . $ . ",
"# .   o o + + o o o o + @ + , , o O O + + + o O   $ $ . o @ & & & @ ; o . o $ . O + + 5 o $ $ 3 $ $ 3 6 6 X 6 6 $   . $ 6 6 .   ",
"  , , o o o o o o o o O o O + o o . o o o o X   $ 6 $ . o o * @ + o o ,   . . . O r + + o t u     u $ > > $ > > # u X 6 u $ $ $ ",
"+ + + o , . . o o o o , O O O O o O , o r   . u $ 6 $ . . o o e ,   .     $ $ . . . o o + , X X   $ $ > 4 > 4 4 > > $ $ X     o ",
"+ + + + , 6 . , + o o , O O . .     . X .   $ u u $ $ . o o o X   $   .     $ . . .   o o o o o   . $ 3 4 4 > > $ > 6 . 6 o o * ",
"+ 8 ; ;   . , * e + o o o O 6 6 $ 6 6 $ X     $ u $ $ . X X , r 6 .   . o . X   o . o o o o o o   X 6 3 > 4 > > > 6 $   o * o . ",
"& = & & o o o @ 5 @ + + O X   . $ 6 6 . $ $ $ $ $ 6 6 .   . . . o 6 . o , X o X . . o , o o o o o . u 3 > > 4 > 6 $   X o o o . ",
"& = & y & & & q = 8 @ + o o   . . 3 > 6 6 6 6 6 # 6 > 6 6 6 . . O O + + o o o . X .   o o . o o o X u 3 > > > > 6   , * o o . , ",
"= & & 5 7 7 = q q & + + o o . . . $ 6 > > 3 6 . 6 6 > > > $ $ .   o O o X X u . . 0 $ .   + + X .   $ > > > 6 6 $   X , o o X . ",
"9 @ + 1 + + & = i & + o X . . . . $ u u $ 6 $ # $ 6 6 > > > $ X o o + o ,   u $ 6 u $ $   o o o , u 3 6 > $ .   u   o + o .   $ ",
", + : o r : 8 + @ + o o   , . 6 . $ .   . u   $ . $ 6 6 6 6 6 u o + ; @ 0 o . # > u $ $ . r + + o $ > > $ . , o   o * , o   6 . ",
"$   O + o + + o + + o o , . X . .   . . . . .   , r . o $ 6 3 u o @ 5 5 & + o . 6 $ X   : 5 p = + . $ 6 . o ; @ + + O o . X . . ",
"u X o o o o , o o O o   o   O o r X . . . X o . a + o o   $ $ u o 8 & 2 = 5 r r . . . o + @ y = + 0 o X o + & = + + + o o o X   ",
". o o o . o , O . $ X X . O r o + O .   o . o o + & + r o   u X o & & = = + @ + o o , + + r ; 8 + & + + + = 5 8 + o + o o   o o ",
", o o O X t   . . 6 6   . o + @ & * o . , o . o p 5 = + + o o 0 o + = 2 2 < @ o + * & * + o O : + & & + & 2 = & + + o o o o , X ",
"o & o o X t $ $ 6 $ $ .   o & 2 2 & + o , O , + + 5 5 + + + * @ + 5 = & 8 & + + @ @ & = 8 + ,   + @ 8 = = < < = & + . o o o o , ",
"o O o o     u $ 6 > > 6   + @ < = * + O o o + , ; + o o + + + @ ; & 8 = + ; o + @ @ & & 2 & o X   + 9 + & w w y 1 O + o o o X . ",
"O o X   u $ 3 > > > > > . o 8 p & 7 o o o o o + o o . o o o + @ @ O & + & @ o @ @ @ y 2 = + o   .   o o + 2 < 5 & + O . . . . . ",
", o .   $ $ > > > > > 6 # : 5 = 8 o + o o o + o . . X . o o O e + < & < = + & + @ & < < & & o   6 3 #   0 + 5 & o + + o o   X $ ",
"X       $ 6 > > > > > $ 6   + 8 O o + o o + + X . . . . . X , o + O s s 2 = = & ; & 2 = 5 *   > > > > 6   o O ; + , @ + o o $ d ",
"$     u $ 6 6 6 6 6 6 6 #   + & O O + + + + o o . $ . $ $   o * & 5 2 = w w 2 = & = & + o O   6 > > > > . , O o + + + + + . $ u ",
"$ $ $ $ $ > # . . 6 # . $ . @ O + r o * + o + o   . u 6 > 6   0 & & = < = 2 w = & 5 ; o o +   . > > > > $   . o @ + + @ + * o 6 ",
"u $ $ $ u d 6 o . $   . #   . O @ : + + & + , o . $ 3 > > > u o & = = = = = & 2 & & o o o o , O f $ 6 $ $ . X o O @ o + o @ o > ",
"$ $ $ $ $ $ . . . . X $ .   +   * ; ; & + o o o   u $ > 4 > u 0 & & 2 & & & & 5 + & O o o o , X X $ $ $ $ $ o o o + @ + o + o   ",
"        .   O . g   X o O o + o 5 h & & * r O # .   . > 4 > u o + y & * o e o + * + o   X . . X , . $ 6 $ 6   O o o + o + & O . ",
"o o o * X , . . $     o o o , + 5 2 8 @ o   . . o . . $ > 6   o @ & * X ,       , o o . . $ $ X u $ 6 > d 6   o o o + @ + O + O ",
"O o o o + , . . $ $   X o o o & & 9 8 + o o . X o . > j 6 6   o @ + r O u u u $ u X . X . $ $ u u 3 > > 6 6 . o + + o @ + & + o ",
"+ o o O o . .   6 $   $ X o @ + + + o o o o j k l z x c v b n $ + + + X $ 3 3 $ u X O . u $ $ $ $ 6 3 $ $ $ . o 8 5 & & 7 & o * ",
"+ + + o O m M N B V z C j + + + + + + o Z N A S D F G H J D K L P . ; O 6 > > 3 u   . O . . $ $ 6 $ . $   . , @ & 5 = & 8 O + + ",
"& @ o o I A U J Y T R S E + + ; @ @ O W Q S ! ~ ^ / ( / ) _ ` ' K ] [ . 6 6 3 $ { } $ . .   u . .     . o o @ + = 2 = = + o + & ",
"+ & + |  .T ..X.o.O.+.Q @.+ + + o O #.$.%.&.*.=.X.-.;.X.( :.^ =.>.,.$.<.g $ 4 1.c 2.3.4.5.g X . 1 1 O r . o + + + & & & + < + . ",
"+ & + 6.F / 7.8.-.7.9.Q 0.y + o . b Q F q.( w.O.o.X.e.r.t.q.^ y.:.u.i.Q M p.a.S %.Y %.K Q s.6 . O o o o o + o O o 9 * o + + + & ",
"+ & o d.f.g.y.o./ h.K 2.6 j.k.l.z.Q F ) / :.X.) / ( ( ) =.x.( y./ ) ^ c.v.b.S n.:.( =.m.! Q M.. ,   , + + + 7 O . O . . , o + # ",
"O + < N.B.K V.! C.Z.A.S.D.U  .Q Q %.F./ *./ ( ( ) / / :.( y.O.y.X.X.q.t.K S ' ^ G.H.) X.q.J.4.  , + o + ; ; + + # . . . , o & # ",
"+ + + + d P K.L.S.P.I.K Y U.Y.V.S T.( *.( X.) *.) ( ( / 7.;.*.X.R.X.) g.S K f.x.x.X.( ^ / E.v W.+ , @ & & = * , 6 . . o o @ + O ",
"# + + o O o X $ 6 Q.S !.X.7.~.S ^.( y.*.( X.X.) y.*./ ( O.X.) =.X./ /.J Y (.K R.( ;.:.) ( ).2.g + + & & w 5 + o o $     o + + & ",
"+ X o . . o O $ _.Z.Y X.7.=.V.J ) X.X.*.X.X.*.y.*./ X.y.7.*.*.:.`.H '.].[.{.%.`.*.;.O.7.) }.|. X@ + & 5 = = 8 + o . o o + + O & ",
"o . . O 6 O 6 6 .Xv.XX7.y.oXf.OX/ *.X.*.X.:.y.y.=.=.:.*.x.R.+X9.J @Xg.=.) #X' T.y.O.o.7.X.C.|.$Xo + 5 = = 7 ; 8 + o o O + + + , ",
",       $ 6 $ $ N.Z.%X7.&XK *XX.*.*.:./ X.*.y.w.*.T.`.=X-XG H n.;XF./ m.^ OX:X>X*.X.X.*.t.,X<X9 + + 2 q h 8 + o + O o O . o o o ",
"o o X X   . $ # 1X2X%.H.:XJ / *.X.:.*.r.y.( :.( X.R.3X-X4Xm.q.t...( q.F.^ g.D OXy.7.*.( 5Xv.| ; + & q q = + + o + + + o o ,   o ",
"o O , o o . . # 6 6XK f.S 7X7.O.X.X.=.*.*./ X.X.( q.F.G.q.( q.`.%XT 8X}.f.S S >X9Xy.*.^. .0X+ + r & 2 q = + + o o o o .       6 ",
". + @ o o . + O O  XqXS K X.o.7.wXy.y.( :.^ y./ X./ *.) / eXD S D :X! Y ].T S ! [.#X9.Q z d + o r * p & < + + o o o o ,   $ X . ",
"+ @ + , @ + + # 7 1 N.rX3Xy.O.O.o.7.x.=./ X.X.#X) *.( ^ H S :X~.^ / ( ( / / tXf.S K Q yX> o o o , o + + , , O , . o o + + + @ o ",
"@ @ + o o + o o & O uXA H *.^ 7.O.y./ / x.q.q.) *.:.*./.K ! q.X./ O.X.:.X.iXy.^ D K pX+ o X X o     , ,     . . . . o @ o + @ o ",
"o o o o o O + o o o o 4.Q tX/ ( ( q.w.F.=.x.q..._ ^ ^ Y K [.y.) X.7.^ / ( t.7.;.].Q aXo X X o o X X   . . $ . O o   + + + + @ @ ",
"o o o o o o o o X . # sX2.S K 8XoXn.%XdX&X&XeX^.` (.*XK ].X.y.;.O.y.*.X.X.*.y.[.U A fXo X o o X X . $ u $ $ $ . O . , + + @ @ O ",
"o o o o o o o X X X + . sXv v.gXJ.v.Q Q Q Q S K K S K D m.:.) 7.*.y.*.X.:.OXH  .Z.[ , .   X X X . . u $ $ 6 $   . . + o + o + + ",
"  o X o X o +       , + & * & . $ g j hXhXj.d W.g jX4.S :XT n.(.G dXn.}.A  .A 0Xn . .   X X X X .   $ 3 > 6 $   , O , o o X o + ",
". X       o X + O 8 & 2 & @ o   r o @ o O o o + O + . kXz ,Xv.Q  .rXlX2.B z.zXd $ X X o o X X . X u $ > 6 6 . . . o , . + o o + ",
".   . . $ $ . o O + + @ 0 o X . o + o + o o o   o , + + O g d hX{ 1X1X$ # . . . . . .   . o X X   u $ $ 6 # 6   . $   , o , o & ",
"    6 6 6   6 o + + + * o X u $ o o o   o o o X * o . + + + o ; & & & o . . . 6   X . .   . o o   . . . # 6     X . . r . o o o ",
"6 $ 6 $ $   o @ & + o o o X   f o X           , O , + + 5 & ; 8 ; & & o . . . $ $ $ $ . .   o + * , , , # # O 6   + + @ o + X + ",
"6 . .       , . + o     , , o .   O . $ . $ $ . , o xX5 = = & = 8 + 7 o . . $ 3 6 3 $ 6 $ , + + 5 * + + o + o @ 9 & & & * @ + + ",
"  X o X X o o   O , #   X o ,   o     6 $ . .   o o xX8 2 cXcX= 5 + + o . . . $ 4 > > 6   + & = 9 + + O + + + + @ - = < = & + & ",
"o o + o o o o o O # # . vXo X . u   $ 6 $ $   X . + 7 = 2 bXbX< & & + o . . $ 3 > > > > . + @ 8 & 8 & & o o O O 9 y < < = & & * ",
"; + o o o o   $ 6 $ 6 $ X X . X . $ $ 3 6 $ $ X O + & : = w < = = @ @ O . . $ 6 > > > 6 . 0 o & & & & + + . o # * * = & @ * + ; ",
"+ o o o o . . $ $ $ 6 d . o o . X . u 3 > . . , + O 8 = & < & 5 @ + + + . o . > > 4 > $ $ + o + 5 @ @ @ nXo o o o + & @ o , + , ",
"o o o o X $ $ > 6 > 6 6   . o X . . $ $ 6 # # O + + + & 7 + 8 o + + : + 8 * + 3 > > $ $ X 0 * & @ @ + + o o o . o o , 0   . o o ",
"+ + o o   $ u 6 $ $ $ $ . o o o o   u . 6 . # 6 + o + + + o + . o o + + = & O . > > $ , * @ & & @ ; + + o o + @ o o + X , + o o "
};
