/* XPM */
static char *result[] = {
/* columns rows colors chars-per-pixel */
"64 64 52 1 ",
"  c #FF294A21",
". c #FF294A20",
"X c #FF2A4A21",
"o c #FF2A4B21",
"O c #FF294B20",
"+ c #FF2A4C21",
"@ c #FF2B4C22",
"# c #FF284A20",
"$ c #FF294920",
"% c #FF284C1F",
"& c #FF294B21",
"* c #FF2A4D21",
"= c #FF2B4E22",
"- c #FF2B4C21",
"; c #FF284820",
": c #FF284720",
"> c #FF2A4C22",
", c #FF2B4D22",
"< c #FF2B4D23",
"1 c #FF2A4C20",
"2 c #FF2B4D21",
"3 c #FF294820",
"4 c #FF294C20",
"5 c #FF284920",
"6 c #FF294C21",
"7 c #FF2C4E22",
"8 c #FF2B4E21",
"9 c #FF284B20",
"0 c #FF2B4F22",
"q c #FF2A4A20",
"w c #FF2A4B20",
"e c #FF294921",
"r c #FF2A4B22",
"t c #FF2C4F22",
"y c #FF2A4E21",
"u c #FF294D20",
"i c #FF2A4D20",
"p c #FF2B4E23",
"a c #FF2C4D22",
"s c #FF2C4E23",
"d c #FF2C4F23",
"f c #FF28481F",
"g c #FF2A4D22",
"h c #FF28491F",
"j c #FF2B4B21",
"k c #FF284A1F",
"l c #FF2B4F21",
"z c #FF2B4C23",
"x c #FF2C4D23",
"c c #FF2D5023",
"v c #FF2B4B22",
"b c #FF2D4F23",
/* pixels */
"  .XoO+o+o@XO#OOO..$ oo++%++@@@++&*===*-++o+&++o $;::;OO>+oo+>,<",
"$$.oo1+,@+@O&OOOOO.XOOoOo++oO++++++=,+,=,2,-++@o.3:::;#4++-2>@@@",
"$5 &+==2+@+@oo&&oooooooOo+&6&6+++*,++&+,=72*+oo+.5;;;5..&++++2o>",
"$$$o+,7,@@++++oOooo&o  &...O4+48==9O&.+@,,,2-&Ooo#$5.5. oooooooo",
"$$..-,=-+o+++O++ooooo+OO#O#. +=007O+qX o@,,,ow#    $#5. oo o q&o",
"$$ +,,,+ooo++++OoOooo++o.##.6*=77=+o. Xoo22>+.#$...5$5.. & .X...",
"5# Oo++oooo+@+&&owoo+oo  ...o-=,,>oo.XXoo++,w.$$$$355X55$ .$55. ",
"oo&wOooooooOoO+ooooo&oX $$..Xo>@ooo. .q oo+ooqe  e$;;$;;#eX5e$$$",
"++++o.Xoooo&OOOOowXow   $$...ooo  .  $$..ooo& XX $$;:;::;;$$X  o",
"+++o&$.oooo&OO..   q  $$$$$.oooX $ .  $... oXooo .$3::;;$55.5oo>",
"+*,-..&+++o+oO55$55. ee$$$$.Xo w5. .o.X o.oooooo X53;:;;;;5eX>o.",
",,,2+oo>2+o+OX $$;;#5335555. ...o5.o&XoX..o&ooooo.e3;;;;5$5 Xoo.",
",=,,,>,==2++oX $$3;555;555;555...O++.Xo.X. oo.oooXe3;;;5$..roo.&",
",2,*448t7,++oo .$$5;;35.55;;;$$$..#.$Xe..r$. ooX. $;;;;5$. XooX.",
"++oO4w**y22ooX e.$ee$5$#$55;;;$ OOO.. e$5e$$ ooo& $53$X .O&oo. $",
"oo&X.6++o+oooo $.$. .e $#5;$555$oo+oXo.5;e$$OX+oOX5$$ oo X+&o 5.",
"$ Oooooooooo&& .. ..... .O.O.5;$o@**++o.5$X &+2,o#$5$&+>&owo.X..",
"eXoooo& .Oo ooOoX ...Xo.u4oo $$$&+,=,+Ow...oo+,=oo&.oo-,46+oooX ",
".ooo.o&O.5..OOO&6.. o.Xo+*++& X o2,==+@-oo&+oo1u+-444yi4&X+oo oo",
"&ooOXq ..55$.o+2*oo.&o.o22,++o&r+1==7p@++>@>+o.O1**1282*oooooo&X",
"o,ooXq$$5$$..o*==+oo&O&+++2-+ooo+*=++,-+@@@,+o.#O>u8===2+o.oooo&",
"oOoo  e$5;;5.o+=8++Ooo+6-@ooo+oo1*+2+---@@,,a*O..o*+2==,1O+oooX.",
"OoX e$3;;;;;.4+y*O-++o+6+oOoooo+o.++@@+@@,===+X . &o+==*,+O.....",
"&o. $$;;;;;5#O1y*o++o@>ow.X.ooOoo,+=,+@@@,==,+o 5$5.r4**+++oo X$",
"X   $5;;;;;$5.46Oo+@@@@oo....X &O.sd==,,@,=,-o.;;;;5.oo+o&@+oo$f",
"$  e$5555555#.O+OO-@@@oo&..$$ oo*i8yts7,,=2+&..5;;;;$ Oo+++++.$e",
"$$$$$;#..5#.$$oOoo+>+++o .e5;5 o22,===78=*+o&O .;;;;$ .o@++@+>o5",
"e$$$ef5o.$ .# OO@++>@+ooq$3;;5.&,,=8==,,=*oooo&O..5$$.XoO@o+o@o;",
".$$$$$....X$. o @@-@+ooo e$;;;.o>,ag,@,-+*Oooo&Xo$$$$$ooo+@+o+o ",
"    . O.h XoOooo@2@@>wO#. .;;;.oo,>,+o++>oo oXXX&.$5$5 Ooo+o+,O.",
"ooo>X&..$  ooooo@,@@o&..o..$5$ &>-+o&   oXo...XXe.5;f5 ooo+@+O+O",
"Oooo+&..$$ Xooo-,@+-+..Xoo $55..++oO ee$ X.X.$$ee$;;5e.&++o@+@oo",
"+ooOo.. 5$ XXoo++-++ooo.&. $5;$ o>+X$$3$eXO.e$$$$53$$$.O+**,4@o+",
"+++o+&.X$.e oooo+++o+o&Xo e$;;;$.+2O$;;3e .O..$$5$.$ .Oj+**,+OoO",
"@@oo++oo  &o+++o@@++++oo. $;;;;5$ooO553$e.X.. e.&  .ooo+*22,-o++",
"+@+++o+$ Xo+,*++o+@+o+Oo 5$;;;;5 &...$e  .o&..X.11Ow.o4oO**@+s+5",
"+,++,oX. Xoo,,+ooo@++o&wo.5;;;55$oO. XX .5&.X. .OoOO.OO.&6>o++++",
"++o,O. $e o+g+oo.o+++,+*+o.#$......XoXo .&oO&OO.& &o6&O.5O..&o+#",
"Oos,,o.5$. o+o+O oooo2+2+*o&oo+++o&ooooOoo+oOoO &ooo+oo+#...&o,#",
"+++++o $555.  .ooXoo+*2,*+oo+22,2+o+ooo-@++o&+Ok+6@@,,>o5..oo@+O",
"#++oOoX$5;;;;;e.hO&O49++oooo++,=,8++@@,,@+-+@@6+++,,t,+oo$  o++,",
"+Xo..oO$;::;:;$.#+o##Oo&&Owoo++,,==,==,+@,,@@+@-@+,,=,++o.oo++O,",
"o..O5O55;::::;$.o+Oo.55$$.OOo@o-===8l=,,@@@,-d,2++,,,1@++ooO+++&",
"&   $5$$;;:::;$X#O+..$$$$X$ &&o+,=8=8,@@@,,,,0=@++,=2++o+OoO.ooo",
"ooXX .$#;;;::; ..#o.5$5$.$h $.oo+2,+++o+@@,+===+o+==,++o+++oo& o",
"oO&oo..#5$;;;; ..#O.$55.$$$5h5. &o-+oooooo+,8t2+w+88,++oooo.   5",
".+@oo.+OOq.$$f5O#5Oo..o.&.5$e5z5. ooo&oooo++*,+oO+82=o+oooo& $X.",
"+@+&@++#41....O.5e .o.o.+X;e$5..$.Xoooo&o.+,2ooo&o++&&O&.oo+++@o",
"@@+oo+oo,O+Oo9.O$XooOooOoo $$.#.5. ooooXo&+xoXXo  &&  ....o@o+@o",
"oooooO+oooo+OO..#&Oooo&o+O. $##5 .&XooX  .OoXXooXX ..$.Oo ++++@@",
"ooooooooX.#OOOO &ooooo+oOoOX..+...X X. $5.$oXooXX.$e$$$.O.&++@@O",
"oooooooXXX+.OOw+oooooooo@+o..OO+O.o e$55$ &. XXX..e$$5$ ..+o+o++",
" oXoXo+   &+,>,  & ooo+O+o+o.O#O#Oo$55ee$.. XXXX. $3;5$ &O&ooXo+",
".X   oX+O*,7,@.5..oO.&&o.ooo.OO+OOO5;5$$$XXooXX.Xe$;55...o&.+oo+",
". ..$$.oO++@ro$5.4ooq.O.. ++++OO++oo#...... .oXX e$$5#5 .$ &o&o@",
"  555 5o+++>oX;;Ooo. q.$+..+++o-,++o...5 X.. .oo ..O#5. X$OwOooo",
"5$5$$ o@,+oooX$$wo&   5###O+2,-*-,+o...$$$$..oo6+OOO###5 oo+o&$O",
"5..   &.+o  &  ....$$$55#.#2==,=*+9O..$353$5 oo+*6OO.O.o+*2*++wO",
" XoXXoo O&# XX  .$.55$5#..#*7cc=2+OO...$:;;5 o+2+ooOoo+O+=2a=2++",
"oo+oooooO##.voX.  $5$5..5O4=7bbs,,OO..$3;;:;.o++@-+@ooO.6,ss=,>+",
"-+oooo $5$5$XX.X..$$555.#O,6=ds==@o#..$5;;;5$ o@@,@++.o$&+,-@+--",
"+oooo..$$$5f.oo.X.e3;$.OO#*=,s,2@+OO.o.;;:;;5oo-2@@@koo&&+>>o+oo",
"ooooX$$;5;55 .oX..$.5##OO++,4+*o++61*>+3;;;;eoo@@@++ooo.O&wo &oo",
"++oo $e5$$$$.oooo e.5.#5Oo+++o+.ooO+=,O.;;5#o+,,@-++oooo.Owq&-oo"
};
