/* XPM */
static char *_2ae656205b44894d53bdff2938ef7eedGxBvbUIz5ClUtvJ[] = {
/* columns rows colors chars-per-pixel */
"64 64 144 2 ",
"   c #FF020201",
".  c #FF060A05",
"X  c #FF080F06",
"o  c #FF0B0B0B",
"O  c #FF091007",
"+  c #FF0C1409",
"@  c #FF0E1A0C",
"#  c #FF101C0D",
"$  c #FF131413",
"%  c #FF1B1B1B",
"&  c #FF13230F",
"*  c #FF152511",
"=  c #FF162912",
"-  c #FF192D13",
";  c #FF1C3216",
":  c #FF1E3618",
">  c #FF1F3919",
",  c #FF213C1A",
"<  c #FF232323",
"1  c #FF282828",
"2  c #FF2A2A2A",
"3  c #FF2B2B2B",
"4  c #FF2C2C2C",
"5  c #FF2C2C2C",
"6  c #FF2E2F2E",
"7  c #FF2F2F2F",
"8  c #FF303030",
"9  c #FF313131",
"0  c #FF323232",
"q  c #FF333333",
"w  c #FF343434",
"e  c #FF343534",
"r  c #FF353535",
"t  c #FF363636",
"y  c #FF373737",
"u  c #FF373837",
"i  c #FF383838",
"p  c #FF393939",
"a  c #FF3A3A3A",
"s  c #FF3B3B3B",
"d  c #FF3C3C3C",
"f  c #FF3D3D3D",
"g  c #FF3E3E3E",
"h  c #FF3F3F3F",
"j  c #FF22401B",
"k  c #FF23401B",
"l  c #FF23411D",
"z  c #FF24421C",
"x  c #FF24421D",
"c  c #FF26431E",
"v  c #FF26441E",
"b  c #FF26451E",
"n  c #FF27451E",
"m  c #FF26461E",
"M  c #FF27461E",
"N  c #FF27461F",
"B  c #FF27471F",
"V  c #FF25431D",
"C  c #FF28471F",
"Z  c #FF28471F",
"A  c #FF27481E",
"S  c #FF27481F",
"D  c #FF27481F",
"F  c #FF28481F",
"G  c #FF28491F",
"H  c #FF29491F",
"J  c #FF284A1F",
"K  c #FF294A1F",
"L  c #FF284C1F",
"P  c #FF28491F",
"I  c #FF284720",
"U  c #FF284720",
"Y  c #FF284820",
"T  c #FF294820",
"R  c #FF284920",
"E  c #FF294920",
"W  c #FF294921",
"Q  c #FF2A4920",
"!  c #FF284A20",
"~  c #FF294A20",
"^  c #FF294B20",
"/  c #FF294A21",
"(  c #FF294B21",
")  c #FF2A4A20",
"_  c #FF2A4B20",
"`  c #FF2A4A21",
"'  c #FF2A4B21",
"]  c #FF2B4B21",
"[  c #FF2A4B22",
"{  c #FF294C20",
"}  c #FF294C21",
"|  c #FF2A4C20",
" . c #FF2A4D20",
".. c #FF2A4C21",
"X. c #FF2B4C21",
"o. c #FF2A4D21",
"O. c #FF2B4D21",
"+. c #FF2A4E21",
"@. c #FF2B4E21",
"#. c #FF2A4C22",
"$. c #FF2B4C22",
"%. c #FF2A4D22",
"&. c #FF2B4D22",
"*. c #FF2A4E22",
"=. c #FF2B4E22",
"-. c #FF2B4E23",
";. c #FF2C4D22",
":. c #FF2C4E22",
">. c #FF2C4F22",
",. c #FF2C4E23",
"<. c #FF2C4F23",
"1. c #FF2D4F24",
"2. c #FF2A4B21",
"3. c #FF2D5023",
"4. c #FF404040",
"5. c #FF414141",
"6. c #FF424242",
"7. c #FF424342",
"8. c #FF434343",
"9. c #FF434443",
"0. c #FF444444",
"q. c #FF444544",
"w. c #FF454545",
"e. c #FF464646",
"r. c #FF464746",
"t. c #FF474747",
"y. c #FF484848",
"u. c #FF494949",
"i. c #FF4A4A4A",
"p. c #FF4A4B4A",
"a. c #FF4B4B4B",
"s. c #FF4C4C4C",
"d. c #FF4D4D4D",
"f. c #FF4E4E4E",
"g. c #FF4F4F4F",
"h. c #FF505050",
"j. c #FF515151",
"k. c #FF525252",
"l. c #FF535353",
"z. c #FF545454",
"x. c #FF555555",
"c. c #FF565656",
"v. c #FF575757",
"b. c #FF585858",
/* pixels */
"/ / / / ../ ....../ O./ / / H ../ H / / / / ......L ......1./ ......3...3.-...-.O./ O.$./ ../ O./ / U / Z / / / ..../ O./ O.O.1.",
"/ H H / ......O.O.../ / / ../ L L H H O...H ..H / ................1.O.....-...1.O.O.1./ ....O.../ U U Z / H ........$.O.O.O.O.$.",
"H / / ....O.O.O...$./ 1./ ..../ / $.........................O.O...1.-.../ / ..../ 1.1.$.../ O.../ H U U H / / ....../ O./ 1./ $.",
"/ H / / / 1.O.1.O.$.O...O.../ L O./ ../ ../ ....H / ......O...3.3.../ ..../ / 1.1.O./ O.O./ / / / / H / / H ../ / ..O./ / O./ / ",
"H / H / O.O.O.O.O./ ....../ ....../ O./ K / L / ....../ ....O.O.3.O.O./ / H $./ O.O.1.O./ / H / / / / H R R / / O./ / / / / H / ",
"/ Z / ..O.O.O./ / O./ O.....O.L ....H O.O.$.O.$./ H H / ....-.1.O.O...$.$./ / $.O./ $.O.$.H / / / H / H / R H / / / / / / / / H ",
"H / / / / O./ $.$./ O./ O.../ / / H L / O./ / H / H / H ....O...O.1.O./ H $.H / L O.O.K / H H U H / Z / S / H S H / / H / H H / ",
"/ / / ..O./ O./ H $./ ../ / ....$.H $.$./ O.$./ H / H / ../ ..1.O./ ../ / H / H ..H O.$./ $./ H / / / Z U / U / / / / H / / H / ",
"......../ / / ..O./ O./ H / L / / H / ..H / H / / Z / H H / / O./ / / / / H H / H / ../ O./ / $./ H / Z U R U U Z U Z / / / / / ",
"..........R / / / $./ ....L / H / / / / / / / / / / H / O.O./ / / / / H / / / H / H / O./ O.$./ / / H / U U U R H / / H H / / ..",
"....O.O.R / ....O.$.H / ....H / H / S / / / / H U / / H / $.../ / H / / $.H / / O.H / $.$.H O.H / / B U U U R U U R / / O./ O./ ",
"O.O...../ ../ ..O.$.O...H / / H / S / H H / H / / H H / / H H / ../ H / / / $.$./ H / / / $./ $./ / / / U R U U / H / / / $./ / ",
"1.3...1.......3.O...O......./ / H / Z / R H / S H / B / / H / H H ......../ / H / H / / $.H O./ $./ / Z Z U / U / / ....$.H H ..",
"........L ..3.3.3.O......./ / H / H / Z U / S / / B U B Z / H / / ..H $./ $./ / / O.H / / / / $.H / / U / U H R / / / / / $./ / ",
"............1.....1.../ / H H / H / U / / S H R / H / B U U Z $./ / ../ / / / H / / / H / O.$./ / / Z / / H H / / / / O.../ / H ",
"......................../ ../ H / H / / / / / / H / S / H / U / ....O.O.$./ H / Z / Z / / K / O.$.H / Z H / / / / / ..../ / H / ",
"/ / / O./ O./ O...../ / ../ / / H / H ..H H ../ ....H ../ H U / ..O.O...O./ / / / / / / ..O...3./ H / H / ..O./ ....../ / $.H / ",
"/ / / O.O./ / / ..H ../ / / H $.H $./ H / / ..H ......../ / H / ....O.1.O.O.$.O.H / / / ..O.O...$./ $./ ....O.1...../ O.O./ / / ",
"/ ../ / / O...H H / / / H L / / O.../ / O.H ../ ..O.O.H / / / / / 1.O.O.O.O./ / / ................O./ O...O.........../ $./ $./ ",
"/ / O./ / H / / / H / / / ..O.O.O.../ / / / / ..O.O.O.O./ ../ $.../ 3.O.O.1.1.....................O.O.....3...1...../ ../ / H $.",
"$.O.$.H $.H H / S / H H / ....3.O.O...O.../ ....O.O.O./ ..../ $...O.O.1...O.....O.$.O.1......./ ..O...O.O.3...O.O...H ..$./ $./ ",
"/ H / $./ / / H / U U / / ......O.....H / ..../ O./ / $.....O.$.O.O...../ $.....$.$.O...1.O./ / / / ..O...3.1.1.........H O./ H ",
"H O.$./ / H U U / B S / / ....3.1...O./ O./ ..../ O.H / / O.O.$...........O./ O.$.$.1.O.O.../ / / / / / ..O.1.O.O...H / / H H / ",
"../ / / U / Z / U B / S / ....3.../ / $./ ..../ / H $./ $./ / O...1...1.1.O.O./ $./ 1.1.O.O./ / / / / / -./ O.O./ ..O./ ../ $.H ",
"/ / / / H R U U R U R / S / ........../ / O.../ / H / H H / / / ../ 3.1.-...3...O.1.O.1.O.../ / U B U H / O./ O.....O./ O.O./ U ",
"/ / / / / R R R R R / S / / ....L / ......O./ O.H / H / / / / ..O...3...1.-.3...O.O.O./ ../ / H / / U / / / L / ....O./ / / / / ",
"Z / H / / H / H / H S / / H O...../ ....../ O./ / / / / / H / $.O...3.-.3.O.3...O.O.$.$./ O./ / B U U U H / H ..O./ ..O./ $./ H ",
"$.H / Z / S H ..H / / H H / / H O.......O.../ O.H H / Z U U / / 1.....3...-...3.O.O./ / ../ / ..H / H / H / / ../ O.....O.O./ U ",
"Z / H / H / H / / H $.H H / ../ ..O.........../ / / H U U / / / / 1.1.O.-.O.1.../ O...O./ $./ / / H / H / H / / O./ $.O./ / O./ ",
"/ / / / H / ..H S / / / ../ O./ O...1.O.../ / H / / / Z U Z / ../ O.O.O......./ O./ / / $./ H $./ / H / H / / / / O./ / O.O./ / ",
"$./ $./ $./ H ../ / / ../ $./ O.O.1...O.../ / / / H / / U / / / O.1.../ / / / / / $.$.H H H U / / H / Z Z H / / $./ O.O.../ ../ ",
"H $.H $./ / / H H / / / O./ / O.O......./ O./ / $.H H Z / S / / O./ H / / / / / / / H / / H / / U / U U / H / O./ O./ O...O.....",
"O./ ../ $.$.U $.R H / H / / 1........./ ....U - @ X . X o # , U / O./ / H U / H U / / H / / / H / Z U / / H / / O.O...-.........",
"......../ , - # + + O X / / / ......../ k @       o $ $ o     . - / O./ / H U U / / H / / H H / H / / H / H / O.O.O.3...........",
"O.O./ / *     . o $     * / / ..O.O./ &     o w s.f.h.f.d.6.<     . - / / Z / H U B / / H / / H H ../ H / ......O.3.O...../ ....",
"/ 1...;   $ 0.h.x.x.5.  * O./ $./ / &     p k.a.h.b.v.j.h.f.d.d.7 .   * H / U = . . . + ; H / / ....H / / ........O.O.1...1.../ ",
"..O...# o d 4.u.j.x.$   , $.$.$./ &   . a.h.t.v.v.k.q.q.e.u.a.h.d.e.$   = c .     $       + / H L / ../ O...../ ................",
"..O.L %   1 4.5.h 7   . U U , : =   o s.f.f.h.s.f.h.h.s.a.u.h.z.g.d.d.o   .   % d.h.s.d o   ; H ../ / ......../ / / / H ../ ....",
"......j .   o . .   X # . .         u.h.k.h.h.h.f.f.f.f.h.z.x.x.j.j.i.0.      d.0.4.d.j.i.  + / / ../ ..O.O./ / H ../ / ../ ../ ",
"......S , * + + # ; @   o 2 y .   p h.h.h.h.f.k.s.h.h.h.x.b.h.h.u j.s.0       i.i.j.h.s.h.+ X H ....O.O.O.O.1./ R H / ../ ......",
"R ..../ S H , , > &   % k.x.2   < h.x.j.h.j.j.d.z.h.h.h.x.h.d.u.j.h.r . $ 1   y h.v.d.d.h.$   H ........3.O......./ / / ......O.",
"../ ..H ....H H j   + h.x.s.o o d.h.h.k.h.j.j.x.h.h.h.x.x.h.h.d.r $ o % 4.0.  r j.b.x.x.h.. . / ..........O...../ H / ....../ O.",
"../ H ..S / R S j   7 d.k.$   d h.k.h.h.h.f.x.k.d.a.h.h.a.t < % o % q s.f.4.  p x.x.x.x.j.  . / ......3.3...O...../ ../ ..O.....",
"../ / / / R H j >   % 4.<   % x.k.k.h.h.j.j.j.u.h.p t < $ $ $ % p u.d.d s.4.  g j.j.j.j.8.. O ......3...3...../ ..../ L / / ../ ",
"O./ / / / / H , > O   0   o 4.u.h.f.k.0.x.h.d.h.h.p % $ 2 d u.e.0.h.a.u.s.q   p a.j.h.h.$   ; O...O.3.3.3.............O./ ../ / ",
"/ ../ ....H H j = =       r 5.6.4.0.t.j.j.h.j.h.h.u.u.8.u.h.u.y < $ o         q e.4.u.<   + ..........3.O...../ / O./ H / / / H ",
"/ O.../ ..S S j ; - +     5.6.5.p 4.4.5.0.u.h.d.h.d.h.d.g.<         o $ $ $   o q 7 $   O Z ..../ ..3...O.......$./ / / / / / / ",
"/ O.......H B , ; - -   $ h 5.4.5.4.p p d g 4.q 4.u.d.d.$     4 i.d.j.h.h.h.7         @ / / / / ............H / H $.$./ O./ O.O.",
"O.O.$./ ../ B , = = =   $ s p 4.5.h d d p i p p g g g 7   o a.k.g.c.j.g.j.p.z.s.    , / $.$./ $./ / / ../ / H / H / ..../ ......",
"$./ / $./ H Z ; = * = X   < s p p w w r i i p r 0 p g o   h a.a.g.j.i.g.h.q.z.v.$   , $.Z Z $.H / / / / / H / H ../ ........O...",
"$.H $./ / O.H , - = = &       . $ $ % % < < % % % < %   $ 6.5.5.6.6.0.8.g.j.z.5.  . Z / $.$.$.$./ / H / H / / H H / ......O.O./ ",
"/ $./ $./ / / k ; - - - * .                             s 1.s g h h 1.4.s.g $     - / H / Z Z $.H H / / / R H / ..H ../ ../ ....",
"/ $./ ../ $.H H , - - - - - ; - - = = * = = - = - & O     $ % < o 1 $ o       + , / / / / $./ / / / H U / H / / / L / ../ $./ O.",
"H H / / / / / ..k , , ; ; ; - - - - - - = - - = - - = & .               + = z H / / / $.$./ $.H / / / U Z / H / / / ../ O./ $./ ",
"/ / H / H / H H H , , : : ; ; ; - - - - - - = - - ; ; > , > , > , U U U / H / H H H H / H O./ / / / / H / R R / H / / / / / / O.",
"/ / / H H / / / / H , , , : : ; : ; , : , , , , , k B S S S S H U $.$.$.H / H / / $./ H / / / ../ H H / H R / / O.H H O./ $./ $.",
"H / H H H / $.O.O./ / B k j k k k k k B k U k B B S ............$.$.O./ / / / H / Z / H / / / ..../ ../ H / H / / ....1./ ../ ..",
"/ H / / / / / H ..../ R / H / / U S / U Z U Z H S R { ..3.3...1./ $...../ / H / H / H / H / ................/ O...O...../ O.....",
"/ / H $./ $./ / / / H ../ ../ / H / / H / / H / ....{ ..O.3.3........./ / H / H U U B / / ....3.............O...O.1...1.......1.",
"/ / $./ $./ $./ L / / H $./ / H / / / / / H / / / ....1.O.3.3.3.1...../ H / H / B / U U / / ....3...O.O./ ../ L ..1.1.O.1.1.O./ ",
"O./ O./ / O./ / H / H / $.$.H / / H / U R H R / H ......1.3.1...1......./ / H / Z U / H / / / 1.....1.....H ../ ....O.........O.",
"/ O./ $./ H / H / Z / Z H / $./ ..H / H R / / { ........O.O.............H / / H / U Z / / ../ ....-.....H / ../ / / 1.1./ / ../ ",
"$./ $.H / / / B Z U / H / H / $.H / / H R R R { ......3......./ ..............H Z U / / / $./ ../ 1...../ $./ / / ../ ../ / ../ ",
"/ O./ O./ Z / / H / H / H / $.H / / / / S / R R ............../ ../ ....O.O.H / / Z / / / $.1.O.$.O.....$./ / 1.O./ O./ / O./ .."
};
