/* XPM */
static char *cee4de24b7a24bdd9f11d6f15d4bbdb2kwGIyuPxuyIhp2DP[] = {
/* columns rows colors chars-per-pixel */
"64 64 249 2 ",
"   c #FF010301",
".  c #FF040B04",
"X  c #FF090C06",
"o  c #FF050B08",
"O  c #FF120E09",
"+  c #FF100B07",
"@  c #FF041306",
"#  c #FF091107",
"$  c #FF05130B",
"%  c #FF0B1409",
"&  c #FF061B0B",
"*  c #FF0D1B0B",
"=  c #FF051B07",
"-  c #FF111E0D",
";  c #FF19120D",
":  c #FF091C14",
">  c #FF1E1510",
",  c #FF2A1D15",
"<  c #FF0A250D",
"1  c #FF13230E",
"2  c #FF082816",
"3  c #FF152610",
"4  c #FF172A12",
"5  c #FF182C13",
"6  c #FF0C3B15",
"7  c #FF0C3817",
"8  c #FF1C3316",
"9  c #FF1E3618",
"0  c #FF1F3918",
"q  c #FF143A15",
"w  c #FF0B340F",
"e  c #FF38271D",
"r  c #FF213C1A",
"t  c #FF2B2017",
"y  c #FF0E3825",
"u  c #FF40281E",
"i  c #FF422C22",
"p  c #FF4A3628",
"a  c #FF523B2D",
"s  c #FF583F31",
"d  c #FF0E4718",
"f  c #FF124A18",
"g  c #FF11561C",
"h  c #FF25441D",
"j  c #FF27481F",
"k  c #FF28491F",
"l  c #FF28471F",
"z  c #FF14631B",
"x  c #FF0E4925",
"c  c #FF124928",
"v  c #FF125326",
"b  c #FF155A3A",
"n  c #FF175A38",
"m  c #FF144D2F",
"M  c #FF284720",
"N  c #FF2A4B21",
"B  c #FF274820",
"V  c #FF166628",
"C  c #FF197429",
"Z  c #FF166D3C",
"A  c #FF1A6B3D",
"S  c #FF166637",
"D  c #FF15713B",
"F  c #FF1B733D",
"G  c #FF1A7B3A",
"H  c #FF187836",
"J  c #FF0F6638",
"K  c #FF20773F",
"L  c #FF207333",
"P  c #FF5D4633",
"I  c #FF58432D",
"U  c #FF664C36",
"Y  c #FF6C553B",
"T  c #FF735438",
"R  c #FF1B5E43",
"E  c #FF215D44",
"W  c #FF1A6444",
"Q  c #FF1C6C45",
"!  c #FF1C644B",
"~  c #FF1E6C4B",
"^  c #FF176D43",
"/  c #FF1D7244",
"(  c #FF1D7B43",
")  c #FF1D734B",
"_  c #FF177846",
"`  c #FF1C6953",
"'  c #FF1C795A",
"]  c #FF226C4C",
"[  c #FF22654C",
"{  c #FF227446",
"}  c #FF237C43",
"|  c #FF22744C",
" . c #FF237B4B",
".. c #FF297F4C",
"X. c #FF246D53",
"o. c #FF256B58",
"O. c #FF247453",
"+. c #FF297255",
"@. c #FF257954",
"#. c #FF2A7B53",
"$. c #FF23755B",
"%. c #FF267D5C",
"&. c #FF2D7B5A",
"*. c #FF2A735A",
"=. c #FF1F7361",
"-. c #FF237362",
";. c #FF267B63",
":. c #FF287C64",
">. c #FF216C67",
",. c #FF765C41",
"<. c #FF7D6241",
"1. c #FF8E643E",
"2. c #FF987851",
"3. c #FF1B833C",
"4. c #FF1B8A37",
"5. c #FF1E9C39",
"6. c #FF1C8927",
"7. c #FF23992A",
"8. c #FF20853D",
"9. c #FF238D3E",
"0. c #FF24983A",
"q. c #FF248C28",
"w. c #FF1DA038",
"e. c #FF28A73A",
"r. c #FF29B53C",
"t. c #FF30B43F",
"y. c #FF30C13F",
"u. c #FF1E8343",
"i. c #FF1C894B",
"p. c #FF1E934A",
"a. c #FF1E9342",
"s. c #FF1D8B5E",
"d. c #FF1D8457",
"f. c #FF1D925B",
"g. c #FF248343",
"h. c #FF298445",
"j. c #FF248C44",
"k. c #FF2B8B46",
"l. c #FF24834C",
"z. c #FF2B854B",
"x. c #FF258C4B",
"c. c #FF2B8B4B",
"v. c #FF249343",
"b. c #FF2B9444",
"n. c #FF2B9A44",
"m. c #FF26934D",
"M. c #FF2A944B",
"N. c #FF249C4D",
"B. c #FF2D9C4C",
"V. c #FF229D44",
"C. c #FF319545",
"Z. c #FF31984A",
"A. c #FF238353",
"S. c #FF2B8454",
"D. c #FF248C55",
"F. c #FF298C54",
"G. c #FF23845C",
"H. c #FF2A855C",
"J. c #FF248B5A",
"K. c #FF2C8C5C",
"L. c #FF308E5A",
"P. c #FF249453",
"I. c #FF2B9453",
"U. c #FF269B54",
"Y. c #FF2D9C53",
"T. c #FF26945C",
"R. c #FF2C935C",
"E. c #FF2B9C5C",
"W. c #FF239B5D",
"Q. c #FF329C54",
"!. c #FF339C5A",
"~. c #FF349759",
"^. c #FF328E4C",
"/. c #FF1FA149",
"(. c #FF2CA444",
"). c #FF26AC44",
"_. c #FF2CAC43",
"`. c #FF2CA44B",
"'. c #FF2CAA4A",
"]. c #FF26A246",
"[. c #FF32AD45",
"{. c #FF33A54D",
"}. c #FF33AB4B",
"|. c #FF35A74A",
" X c #FF2DB343",
".X c #FF2DBA43",
"XX c #FF2DB449",
"oX c #FF26B045",
"OX c #FF32B446",
"+X c #FF32BA43",
"@X c #FF33B24C",
"#X c #FF34B84B",
"$X c #FF2CA454",
"%X c #FF2CAC53",
"&X c #FF26A25C",
"*X c #FF2CA45B",
"=X c #FF2CAB5B",
"-X c #FF24A451",
";X c #FF33A352",
":X c #FF33AB52",
">X c #FF33A35B",
",X c #FF33AB5B",
"<X c #FF38A655",
"1X c #FF2EB352",
"2X c #FF2EB65C",
"3X c #FF34B353",
"4X c #FF35BB54",
"5X c #FF34B35B",
"6X c #FF39B35D",
"7X c #FF3CBD5D",
"8X c #FF37B856",
"9X c #FF258362",
"0X c #FF2B8463",
"qX c #FF2A8C63",
"wX c #FF268C64",
"eX c #FF259362",
"rX c #FF2C9462",
"tX c #FF299B63",
"yX c #FF2AA361",
"uX c #FF33A560",
"iX c #FF39B660",
"pX c #FF2FB361",
"aX c #FF1F9362",
"sX c #FF33C244",
"dX c #FF3CCC4C",
"fX c #FF37C849",
"gX c #FF3BD449",
"hX c #FF37C254",
"jX c #FF3CCB54",
"kX c #FF3DC45B",
"lX c #FF3DCB5A",
"zX c #FF37C458",
"xX c #FF3DD253",
"cX c #FF3ED851",
"vX c #FF3EC862",
"bX c #FF43CF4B",
"nX c #FF43D54D",
"mX c #FF47D84E",
"MX c #FF41CA5B",
"NX c #FF41C857",
"BX c #FF43D455",
"VX c #FF4BDC53",
"CX c #FF45D756",
"ZX c #FF52DF55",
"AX c #FF4CE551",
"SX c #FF52E155",
"DX c #FF5CE559",
"FX c #FF45E04E",
"GX c #FF51D75F",
/* pixels */
"N N l N N N N N N N N N N N N N N N N k N N N N N N N N N k l * .     1 l N N N N N N N N N N N N N N N N l N N N N N N N N N N ",
"N N N N N N N N N N N N N N N N N N N N N N k k N N N N h % .   % f =   * k N N N N N N N N N N N N N N l N N N N N N N N N N N ",
"N l N N N N N N N N N N N N N N N N N N N N N k l r f h 1   = 6 7.AXq.=   4 N N N N N N N N N N N N N N N N N N N N N N N N N N ",
"l N M N N N N N N N N N N N N N N N N N N N N h O     .   . e.dXhXAXy.e.. . h N N N N N N N N N N N N N N N N N N N N N N N N N ",
"N M N B N N N N N N N N N N N N N N N k l h #     < g < @ d .XAXcXFXxXsXz   . 1 5 r l N N N B N N N N M N M l N N N N N N N N N ",
"l N N N N N N N N N N N N N N N N k N N h #   * z -XzX2X2XzXlXFXAXcXgXgX-Xv &       % l N N B N N N N N M N N l N N N N N N N N ",
"N N N N N N N N N N N N N N N N N k l 1 .   w r.q./.CXlXlXcXFXcXFXcXgXfXzXMX6XN.g.w   . 8 l N M N N M N N N N N N N N N N N N N ",
"N B N N N N N N N N N N N N N N l l -   . f 0.NXSXxXVXAXSXjXxXgXxXgX.XhXmXmXzXSXBX7.6 .   1 B N N N M M l M M M N N N N N N N N ",
"N N N N N N N N N N N N N N N N r X   . e.sX#XlXVXVXjXVXmXxXgXgXgXgXfXfXnXdXBXSXjX+X#Xv.@   9 N N N N M B B M M N M N M N N N N ",
"N N N N N N N N N N N N N N N h .   w 6.e.hXVXVXBXxXmXbXxXnXmXfXsXfXgXfXnXnXBXxXmXVXjX[.z     8 l N l M M l N M N M B N M N N N ",
"N N N N N N N N N N N N N k 5 .   w ).).e.e.MXjXvXcXdXzXhXsXVX+XjXdXxXfX4XjXmXlXlXxX8X%X7.g     5 N N l M M B M M M N N N N N N ",
"N N N N N N N N N N N N N r . . z 4.zXjXNXzXjX5XdXjXdXmXmXCXXXmXlXdXgXmXmXCXbXBXjX2X7XkX%X@XD . . l M N M M B l N N N M N N N N ",
"N N N N N N N N N N N k N r . w f.f.W.f.zXlX2X&XjXxXVXVXVXBX8XSXCXlXfXXXDXZXSXMXcXxX=X2XkX&X&Xd   0 N N B B M N B B N N N N N N ",
"N N N N N N N N N N N l r -   q i.f.f.f.=X2X=XpXMXMXSXCXCXbXjXZXCXCXfX.XDXVXZXVX5XhX5X2XzXs.i.g   5 N B l N N B N N N N N N N N ",
"N N N N N N N N N N l O     X C 5._ p.p.&X1XlXkX,XSX7XyXyXZXvXmXSXMXxX4XDXZXMXDX8X4XkX=X-X_ C C   . h l B N N B N N N N N N N M ",
"N N N N N N N N N N r   - z z 6.XXXX&X%X1X&X*X4X8XSX7X=X=XNXiXAXVXVX2X*XMXCXuXCXjX=X6X%XXX-Xa.w.w   . h B N N N N N N N N N N N ",
"N N N N N N N N N l #   q C  X].1XsX5XiXsXzX7XlX3XlXkX8X8X%X6XVXvXBXNX=X3X4X6XkXhX5XkX2XzXoX1Xi.3.6   # l N N N N N N N N N N N ",
"N N N N N N N N l r   & 4.x.T.3XfX8X.XfXtXaXiXiX*X6X4XlXNXkX7X8X=X,X,X,X7XkX4XD.E.tXuXpXs.%XXX&X%XoX6   < j N N N N N N N N N N ",
"N N N N N N N N j 8   6 :X3XsX3Xi.d.r..Xr.r.-XU.3XzX7XkXkXNX6X6X5X,X3X5XlXkXMXkXp.f./.p.oXtX=XoXaXd._ =   1 N N N N N N N N N N ",
"N N N N N N N N 8     v $XXX%XE.U.P.5XXX).).].&X3XT.MXkXkX7X,X7X@X=X5X5XkXkXiX7X%XV.).e.-Xs.s.f.' i.4.4.@   0 N N N N N N N N N ",
"N N N N N N N N X   q 0.XX*Xr.r.K.;X4X4X$X=XOX'.p.uXlX7X7X,X7X3X4X8X<X,XuX6XlXyX-X`.%X&X1XP.4.i.p.w.w.U.Z     8 N N N N N N N N ",
"N N N N N N N N # . V e.r.).s.d.sXy.y.+X+X=XXX%XeXuXMX6X6X,X3X8X7XMX$X*X=X6XMX6XP.%X3XXX.XsXP.p.5.].N.w.w.g   . 4 k N N N N N N ",
"N N N N N N N N @ @ G r.r.oXJ.d.yX,X4X8X.X*X}.).oXv.T.-XN.a.Y.6XMX7X,XT.U.eXE.T.*X&XXX.X5X&XeXd.p.5.w.4.4.4.V @ . r N N N N N N ",
"N N N N N N N N % . B..X Xr.tXT.}.y.,X3X3XE.*X:X).e.>X:X@XV.U.iXNX,XE.m.`.'.).a.$XtX*X.X=X1XyXwX' U.].i.4.4.a.z   1 N N N N N N ",
"N N N N l N l N -   F @X*X XT.wX+X@Xd.J.E.'.1X`.'.XX,X*X*X$XyX>XMXuX*X_.eX$X%X$XP.d.s.E.d.'.'.i.D.J.i.d.f.4.u.g   1 N N N N l l ",
"N N N N l l N l 5   y >XtX-XrXT.;XN.G.G.{.+XsXr.%XXX3XE.E.>X$XE.iXuX). XE.3X*XtXW.d.' d._ D.v.v.D.U.%Xs.i.u._ 2   8 N N N N N N ",
"N l N N l r r r 1   6 U.wX9X`._.Y.I.T.n.tXY.{.3X,X,X@XE.R.}.'.W.rXT.(.Y..XsX&X@X'.N.N.M.a.I.J.T.N.`.Y._ _ i.D .   r l N N N N N ",
"l N l l -     .     C x.P.D.;X`.Y.Y.E.].<X:X[.3X@XuX@XG.J.,XtX!.Y.T.`.E.t.+XtX3X*Xd.I.m.x.N.P.P.P.Y.U.i.G 5.D     . % h N N N l ",
"N l l r . . f C C V t.9XG.J.}.XX}. XY.;X:X+XQ.}.@XD.m.u.i.wX,X+X@X@XtXeXOX$X8X@X:X'.B.U.m.M.`.`.$X'.B.^ D H H d < @   . l N N N ",
"N N N r . < 0.t.t.v.[.T.J.9X+X.X:XOX*X;XOX.XQ.@X%Xm.3.x.j.G.@X#X3X+XtX9X>XG.#X@X,XOXP.I.m.Y.$X'.E. X XD D J H C C H 6   4 N N N ",
"N N N N .   7 9.}.}.(.M.'.}.+X3XrX,XR.Y.#X@X;XY.B.I.u.x.x.F.I.>X#X>XF.@.m.M.{.{.G._.'.I.B.'.Y.}.B.]. Xu.^ D G u.4.j.H . 1 N N N ",
"N N N N r     [ !.Z.b.M.XX}..X;XrXE.T.T.}.}.}.Q.Q.b.( D.D.J.' >X+XE.D.P.M.M.M.I.J.B.:XI.{.`.F.;XF.D.'.M._ G G 8.8.4.2   1 N N N ",
"N N N k B %   x Z v.n.(.h.3._.v.;.9XqX>X3X>X:X[.!.B.g.J.J.j.x.Q.+XF.I.T.I.M.I.Y.I.B.{._.>X_.Q.'.I.;XQ.A.( ( ) G H w   X h N N N ",
"N N N k 0 *   x D n.0.(.g.4.e.v.9XG.qXuX3X>X}.[.Q.`.u.F.D.j.M.Z.+XF.I.F.M.I.I.B.Y.B.'.(.;X XY.'.F.:XQ.d.( ( ) _ V . . l N N N N ",
"N N l *     X C G l.A.8.u.l.4.l.G.G.qXqXL.qX!.,XqX|.Q.e.(.I.{.B.Z.B.;X{.R.R.[.{.[._.b.I.Q.G.~ n.OXQ g.'.3.( g.u.J   * N N N N N ",
"N N r   . n / u.g.j.v.A.l.g.M.].}.}.!.{.rXL.M.M.(.U. Xe._.~.qXY.M.[.{.[.;XqXwX;X(.OXn.OXQ.`.].g.^ D Z D _ l.( C V     1 N N N N ",
"N j .   . A } b.v.v.v.M.l.g.M.].'.@X9X].Q.K.A.A.I.J.t.e. XrXqX^.F.[.F.n.;XqXqX;X(.t.(.OXD.(.V.M.) D Z ) ` l.u.8.8.A @   5 k k N ",
"N l   2 S F F F } z.l.c.F.0XqXK.Q.<X:.qXQ.0XwXF.Z.M.<X}.|.A.[.(.x.M.$.` L.qXqX0XQ.z.e.:XF.R.H.H.0X/ _ F F g.g.j.h.D v . . 9 N N ",
"k r   & V ) | |  .H. .b.j.n.!.!.~.I.R.;.Q.@.;XOXF.n.n.I.M.b.|.Q.A.j.v.g.$.x.rXY.`.@.B.K.{.Q.Q.Q.Q.$.` H G  .$.@.@.~ ( b   < N N ",
"N l     A | ~ O.#.K.l.b.j.j.Z.|.l.B.c. .{  .qX9XQ.H.F.x.x.>.-.%.b.G.-.-.A.n.F.D.H.Q.S.%.;XK.[.K.;.) Q ( ( v.h.@.| ) | S . % N N ",
"N h   < | n v ) | K.B.b.c.9.@X(.( B.8.G K G 0X}.}.<X-.-.-.>.H.|.b.n.;.-.G.F.-.Q.H.>.] W c.G.;X{.O.W F }  .9.v.| b c n ] # # B N ",
"k 0   . o     & v W ] @.| h.c.S.{ } ] ) ! g.3XQ.Q.OX&.o.' <X|.H.c.M.M.%.;.-.[.|.|.|.! A / ! W l.~ { 3.~ Q K 8.v .     . . # B N ",
"N j %   . %     o S ) O.R | b.k.} | / { ` h.!.L.<X{.;.:.;.!.0X%.I.D.M.A.;.;.[.<X~.[.` A / Q { ) / 3.g. .@.| n     < -     % N N ",
"N N j h h 3   . x Q Q Q $.@.k.z.l.h.~ } A &.&.<X!.0X] ! ! :.K.}.<X;X;.;.X.%.K.K.|.;. ./ Q F { { | l.z.O.Q S y   # j M 3   4 N N ",
"N N N N B %   n | X.) ! +.S.z.z.h.k.| } G H.0X}.~. .W ! ! 0X!.}.<X|.:.:.! W :.K.OXK. .W { K } g.h...l.@.! Q W $   9 N M h B N N ",
"N N N N h . . S S W X.+.X.&.C.0.k.b...h.h.h.} } ] { K S A O.~.K.|.~.K.%.! Q X.X.Z.L.0X{ F } h.h.@.b.C.X.o.~ A x   - N N B N N B ",
"N N N N 8   2 Q ] | O.+.X.#.b.b.#.C.z.8.k.h...{ { { K Q A ] *.~.}.H.L.@.W Q ] Q [ @.H.{ K } h.z.o.C.b.#.o.` W n $   r N N N N N ",
"N N N N r     c ] W b [ W | { { X.] ! X.M.C.k.z.} } { |  .] / ^.@X0X+.[ Q A { ] | } { } h.z.! Q [ W A ] X.X.] ~ c   < N N N N N ",
"N N N N N 5   . y   . $ 2 x b R X.[ b  .b.k.k.k.z.h.{ #.#.| { ..<X0X{ ] ] L |  .+.h.K z.k.^.{ S 2 .   o : y n X.m   % N N N N N ",
"N N N N N N 3       X X     R X.X.X.R S.S.o.C.k.^.k.#...#.k.h.{ } } | { h.} h.k.k...} 8.^...^.[ .   . .     . o     5 N N N N N ",
"N N N N N N l 3 3 5 3 3   . x W ! S [ &.&.&.+.#.+...C.C.C.#.z...X.k.k.k.+.+.#.+.C.C.S.| *.o.o.E $     - 3 % X . # 3 B N N N N N ",
"N N N N N N N N M r 5 3     x ] n v ! &.&.*.*.+.+.+.0.C.C.&.*.X.] ^.z.k...X.*.+.C.9.o.R m o.o.X.b 2   # 4 4 4 4 5 8 B N N N N N ",
"N N N N N N N N N N l 8 *     #     2 2 2 c S ] ] [ ^.Z.n.E : $ * y o.*.S.! E [ ^.^.E X   o m X.X.y   . 3 4 4 5 5 N N N N N N N ",
"N N N N N N N N r 5 4 5 4 %                 c #.m   : 2 $     o +   O n o.2     5 m     .             % 3 4 4 4 4 8 B N N N N N ",
"N N N N M M N 8 8 5 4 4 4 4 4 3 3 3 - 3 %   # E -       o % p p P O     o     o       # 4 1 % X . # - 4 4 4 4 4 4 8 r N N N N N ",
"N N N N N N M r 8 h h 0 5 4 4 4 4 5 5 4 3 .         , ,.,.i P I P i , > O , i O     - 4 4 4 4 5 4 4 4 4 4 5 8 8 r 8 r N N N N N ",
"M N M M M N N N N N B 8 5 4 4 4 4 4 4 4 4 3 %     + U s P a U U Y p e a ,.I e e X   - 4 4 4 4 4 5 4 4 4 4 8 0 l l l N N N N N N ",
"N N N N N N N N N N h 4 5 4 4 4 4 4 4 4 4 3 .   ; T T a p P Y Y <.P e i 2.1.i , +   3 3 4 4 4 4 5 4 4 5 4 4 4 r N N N N N N N N ",
"N M N N N N N N N l 8 5 4 4 5 5 5 5 4 4 4 3     + + O O , p U T 2.P i i U <.e     . 3 4 5 4 5 5 5 4 4 4 4 4 5 8 r N N N N N N N ",
"N N N N N N N N N B h 3 8 5 r l 9 5 4 4 4 3 % X X           , 2.2.s ; ; > , p     - 3 4 3 5 5 5 0 0 r 5 4 5 5 f l N N N N N N N ",
"N N N N N N N N B l j l N N N M 8 5 4 3 4 4 4 4 3 3 4 3 %   . p 2.O               3 4 4 4 4 4 5 5 j k k N N N N N N N N N N N N ",
"N N N N N N N l N N N l N N N l h 8 4 4 8 4 4 4 4 4 4 5 4 -     a X   1 1 - - - 3 3 4 5 5 5 4 5 0 h N N N N N N N N N N N N N N ",
"N N N N N M N l l B N l N N N N l l h h M l h r 8 5 5 r 8 5 %         1 5 5 5 4 3 4 5 r N h h r h N N N N N N N N N N N N N N N ",
"N N N N N N M N l N M N M N N N N N M N B j N M r 3 8 M l l r 1 - % 1 4 8 5 l r 3 3 l N N N N N N N N N N N N N N N N N N N N N "
};
