/* XPM */
static char *bc4db87c404f48e0fe0de6d1b1183a09RXWGxTjOQKbGiNQg[] = {
/* columns rows colors chars-per-pixel */
"64 64 50 1 ",
"  c #0C0C05",
". c #130C05",
"X c #1B0D05",
"o c #0F1107",
"O c #0E1509",
"+ c #0F1A0B",
"@ c #151107",
"# c #191107",
"$ c #121509",
"% c #1B1308",
"& c #111C0C",
"* c #1C1D0C",
"= c #210F06",
"- c #201107",
"; c #251308",
": c #2C1409",
"> c #231B0C",
", c #2A1C0C",
"< c #32170A",
"1 c #34180B",
"2 c #3B1B0C",
"3 c #14220E",
"4 c #18240F",
"5 c #152611",
"6 c #182510",
"7 c #172912",
"8 c #192C13",
"9 c #1C3316",
"0 c #1E3817",
"q c #1F3718",
"w c #1F3919",
"e c #202D13",
"r c #213C1A",
"t c #421E0E",
"y c #46200E",
"u c #4A220F",
"i c #4E2410",
"p c #522511",
"a c #5C2A13",
"s c #632E15",
"d c #673016",
"f c #6D3217",
"g c #713418",
"h c #25431D",
"j c #28471F",
"k c #27481F",
"l c #28491F",
"z c #284720",
"x c #2A4B21",
"c c #2D5023",
/* pixels */
"xxjxxxxxxxcxxxlxxlxllxxxxlclcxxxxxxcxcckxxxxxxxxxzzxxkxxxxxxxcxc",
"xxxxxlxcxxxxxxxlxxlxxxxxxccllxxcxccxckcccxxcxxxxxxzzzkxxxxxccxcx",
"xjxxcccccxcxxxxxxxxxxxcxcclcxcxxccxcxxkcccxccxxxxxzzkxxxxxxxxxxc",
"zxzxxxxxxxxxxxxxcxxxxxxxllllxcxccxxxxxxxcxcxxxxxxxzxxxxxxxxxxxxx",
"xjxxxxcxxxxcclxxxxxxxxxxlllxxcxcccxxxxxxcxcxxxxxxzxkxkxxxxxxxxxx",
"jxxxxccxxxxxxxxxxxxxxxxxclxxxxccccxxxxxxxxxcxzxxzxxkzxkxxxxkxxxz",
"zxzxxxxxxxxxxcxxxxlxxxxxllxlxxccxxxxxxxxxxxxxzzzxxzxxxxzzxxxzkxz",
"xxxxxxxxxxxxxxxxxxxcxxxxlxkxxxxxxxxkxxkxxxxxxxzxxzzzkzkzxzxzxxzx",
"kcxxxxxxxxxxxxxxxxxxxxlxjxlxxxxxxxxxxzxxxxxxcxxxxxxzzzzzzzxkxxxx",
"cxxxxkkkcxxxxxlxxxkxzxxzxzxlxxxxxxxxxxzxzxxxxxxxzxzxzzzzzxzxzxxx",
"kcxcxxxcxxxxxxllzxlxxxxxzxjxxxxxkxkxxzxxxxxxxxxxxxzzxkkzzkzxxxxx",
"kcxcxxllxcxxxxlxlxzlzxzzjxxzxxlxxkxxxxxzzxxxxxxxxxxzzzkxxxxxxxxx",
"cccxcclccxxcxxxxxlzxxzxlxjzzxzxlxxxxxxxxxxxxxzxxxxzzzzxzxxxxxxxx",
"ckxckcccccxxxxlxxlzzlzlxzxzzzxjxxxxxxxxxxxxxxxxxzxzxzzkkzxxxxxxx",
"kckccllclcxxxxxxlxxzzxzxzlzzzzzxxxxxxxzzzzxzxxxxxxzxkxxxxxxxxxxz",
"xkckllccxlxxxlxkxzxxxzxlxxlxxzxxxxxcxxxxzxzxxxxxxxzzzxxxzxxxxxzx",
"kxxxxcxxxxxxxxxxxxxlxxlxlllclxzzxxcxcxxxkxxkxccxxxxkxxxxxxxxxxxk",
"xxxxxxxxxxxxxxxxxxlxlxxxclxxxlxxxxxcxxxxxxxxxxxcxxxxxxxcxcxxxxxx",
"xxxxxxkxxkxxxxlxxxlxxxxxlcxxxxxxcxcxcxcxxxxcxxxxxcxxxcxxxxcxxxxx",
"xxxxxxxxxzzxlxxxcxxxxxxxcxccxxxxxxxcxcxcxxxxcxxxxxcxcxccxxxxxxxx",
"xxxxxxxxzxkkxxcxcxcxxxxxxxxxcxxxxcxcxxxxxxxcxxxxxxxxcxcxxxxxxxxx",
"xxxxxkxxxzzxxxxccxxxxxxxxxxxxxxxcxxxxcxxxccxcxxxxxxxxcccxxxxxxxx",
"xxxzxzkkxkxzlxxcxxxxxxxxxxxxxxxxxxcxxxxxcxcxcxxxxxxxxccxxxxxxkxx",
"xxxxzxzzzzkzxxxcxxxxxxkw77rjxxxxxcxccxcxxxccxxxxxzxxcxxxxxxxxxxx",
"xxxxxkzzzzxzlxxxxxxxxl7 :;.$&9jxxxccxcxxxcxcxxxxxzkxxxxxcxxxxxxx",
"xxxzkxxkxkkxxzxcxxcxxl+Xussi1Xo8xxxcccccxccxxxxxkzkzxxxxxxxcxxxx",
"zxzxzzkxxxxkxxxlxlxxlxh9$X:tasu.5xccxccxcxxxxxxxzzkzzxxxxcxxxxxk",
"xzxzxkxxkkxxzxxxxcxxcllljr8&.Xtio0cxxcxcxcxxxxxxzxkxzxxxxxxxxxxk",
"zxzxzxxkxkxzxxxxcxlclclclxljr8 i2+xxcxcxxxxxxxxxxxzxxzxxxxcxxxxx",
"xxxxzxxzkxxxxzwhlccllllljxxzzhOpa@wxxxxxxxxxxxzxxxxzxkxxxxxxxcxx",
"xxxxxxxxxxxxx0 %37890whkxxxxzhO2f2&zxxxxxxxxxzxxxzkzkxxxxxxxxxxx",
"xxxxxxxxkxzxx9 2y11<;%$O+37qjl5;saowzxzxzxxzxxzxzxzzkxxxcxxxcxxx",
"xxxxxzxxzzzxxx9&%-:2ypuy21:XO7qoyf<+rzzzxxxxzxxzxjzxlxlxcxxclxxx",
"xxcxxxxxxxxxxxxxh97&$%:2ipaai;% :da.&zzzzxxzxlzjlxxjxxxxxccxxxcx",
"cxxxcxxxxzxxxxxcxxxxj093O @;2iatydfpX3rxxlxllxxxxxxlxxxxccccxxxx",
"xcxxxxxzxxxxcxxxxxxxxxxxzhw7+@X<ypsga;O8jxxxxlxxllxxxxxcxxxxxcxx",
"xcxxcxxxxxxxxcxxxxxxcxxxxxxxlj95&@#tsdtX$8hlxlxxxxxxxcllxcxxxxcx",
"xxxxxxzxzxxxxxxxxxxxxxxxxxzxllllxx8&.<yat-$+9jlxxxxxxxcxlxxlxxxx",
"xxccxxxzxxxxxxxxxxxxxcxxxcxxlcxxxxxxx5O#2au:.o&9jxxxxxxxxlxxxxcx",
"xxxxxxxxzzzxxzxxxxxcxxccxxxxclcxxxxxxxz5oXuaay:.+0xxccxxxxxxxxxl",
"xxxxxxxxxkzzxkxlxxxcxxccclllclxcxcxxxxxzh5o:assto3cxcccxxkxxxxxc",
"xxxklxlxzzzzzzlxlxxllxxxllclllclcxccxhee>;*o%pa2 9xxkckxxxxxxclx",
"xxxxkxxxzzzzzxkzxclxxxllllllcllhrq7&*,:<tu2@8X:X&kxcckxxxxxxxcxx",
"xxxxxkxkzzzzzzxxxlxxlzlxlhhh943*;;,y21t2:=#4x8&9llccxccxxxxllxxx",
"xxxxxlzxxkzkzzxllxxzllh008$@;2y2ii2:%>$&6rrhxxxxxccxckxxxxxxxxxx",
"xxxxxxxkxlzxxzxxxzxj8O4,<1upafa2%O58qrhxxjxcxccxxxcccxckxxxxxxxx",
"xxxxxxxllxlxkkkxlxxj*<ptuu<-ii%&qhzxxxxxxxxxccxxxxxccxxxxxxxxxxx",
"xcxxxxxxxlxxlxxlxzxx+:<,$Oo%y;3kxxxxxxxxxlccxxxxxxxxxxxxxxxxxxxx",
"xcxxxxxxcxxxxxlxxxxx0539hk7.-5hlxzxxxxxzxxxxxxxxxxxxxxxlxlxxxcxx",
"xxxxxxxxxxxxxllxxxxxzzxxxx9O5hllxxxxxxxxxxxxxxxxxxxllxzxxxxxxxcx",
"xxxxxxxxxzxxxxxxxxxxxxxxxxhrklxlxzxzxxxxxxzxxxxxxxlxxkkxxxxxxcxx",
"xxcxxxxxxxxxxxxxxxxcxxxxxxxxxxxxxxxxxzzxzxxxxxxxxlxlzxzxlxxxxxxx",
"xxxxzxxxxxxxxxcxcxxxxxxxxxcxlxlxxkxxxzxzzxzxzxxzlxxzzxzxxxxxxxxx",
"xxxxxxxxxxxccxxxxxxxxxxxxcxxxxcxxxxkzzzxxxxxxxxxxxzzxkxzxxxxxxxx",
"zxxxxzxxxxxcxxlxxxxxxxxxxxxxxxxxxcxxxxzxzxxxxxxxxzxlkxkxkxxxxxcx",
"xxzzzxxxxxxxxxxlxxxxxxxxxxxxxcxxxxcxxzxzxxxzxxxxzxxxxkxxxxxxxxxx",
"xzzzxzxxcxxxxxxxxxxkxxxxxxxkcxckxccxxxxkzxzxxxxxcxxxkxxxxxxxxxxx",
"zxxxxxxxxxxxxxxxxkxxkxzxxxxcxcxcxxxxkxxzxzxzzxxxxxxxxxxxxxxccxcx",
"xxxxxxxxxxlxxxxxxxxkxxxxxxkccccxcxxxxxxzkzzkxxcccxxxxxxxxcxcccxx",
"xxxxxxxxxxxlxxxxxxxkxzkxxxxkcccccxxxzxxzkxzkxxxxcxcxxxxxxcccxxcx",
"xxxxxxxxzkxzxzxxxkkkkxkxxxcxxccccxxxxxzkzzzxkxxxxxcxxxxxxxxcxxxc",
"xxxcxkxzxxkkxxxxkxckkxkcxxxcccxxxcxxxxxzzzxzkcxxcxcxxxxxxxcxxxxx",
"xxxxxxzzkzzxxzxxkxkxxxxkxcxcckcxxxxcxxxxkkkxxxkcxcxxxxxxxxxxxxxx",
"xxxxxzxxkxxzxxxxxxxkxkkkxxxkxxkxxxxxxxxxkkxxxccxcxxxxxxcxxxxxxxx"
};
