/* XPM */
static char * forest_flower_yellow_xpm[] = {
"64 64 253 2",
"  	c #FFFFFFFE",
". 	c #FFFFFFFE",
"+ 	c #FFFFFDF9",
"@ 	c #FFFFFAF0",
"# 	c #FFFFF5DE",
"$ 	c #FFFFEEC5",
"% 	c #FFFFE9B0",
"& 	c #FFFFE18B",
"* 	c #FFFFDF81",
"= 	c #FFFFDF80",
"- 	c #FFFFE293",
"; 	c #FFFFF2D7",
"> 	c #FFFFF6E2",
", 	c #FFFFEAB6",
"' 	c #FFFFDD75",
") 	c #FFFFD500",
"! 	c #FFFFD953",
"~ 	c #FFFFF0CC",
"{ 	c #FFFFFDF8",
"] 	c #FFFFFBF3",
"^ 	c #FFFFECBD",
"/ 	c #FFFFD73E",
"( 	c #FFFFD62F",
"_ 	c #FFFFECBF",
": 	c #FFFFF8EA",
"< 	c #FFFFE49A",
"[ 	c #FFFFD50C",
"} 	c #FFFFD504",
"| 	c #FFFFD516",
"1 	c #FFFFD735",
"2 	c #FFFFD72E",
"3 	c #FFFFD628",
"4 	c #FFFFF0CF",
"5 	c #FFFFFEFC",
"6 	c #FFFFE396",
"7 	c #FFFFDA5D",
"8 	c #FFFFF9ED",
"9 	c #FFFFFCF5",
"0 	c #FFFFFBF2",
"a 	c #FFFFFBF4",
"b 	c #FFFFE5A1",
"c 	c #FFFFEEC8",
"d 	c #FFFFF6E3",
"e 	c #FFFFEFCA",
"f 	c #FFFFE291",
"g 	c #FFFFEAB8",
"h 	c #FFFFF5DF",
"i 	c #FFFFD513",
"j 	c #FFFFD501",
"k 	c #FFFFE28D",
"l 	c #FFFFFEFB",
"m 	c #FFFFD62A",
"n 	c #FFFFD736",
"o 	c #FFFFE083",
"p 	c #FFFFF1D1",
"q 	c #FFFFF9EA",
"r 	c #FFFFDD76",
"s 	c #FFFFD502",
"t 	c #FFFFDF7E",
"u 	c #FFFFF0CE",
"v 	c #FFFFDB64",
"w 	c #FFFFD62C",
"x 	c #FFFFE59F",
"y 	c #FFFFE18C",
"z 	c #FFFFFCF6",
"A 	c #FFFFEBBB",
"B 	c #FFFFD61D",
"C 	c #FFFFD621",
"D 	c #FFFFEBBC",
"E 	c #FFFFD514",
"F 	c #FFFFDE7B",
"G 	c #FFFFF1D3",
"H 	c #FFFFEBBA",
"I 	c #FFFFD50E",
"J 	c #FFFFD510",
"K 	c #FFFFE49C",
"L 	c #FFFFD50A",
"M 	c #FFFFE8AC",
"N 	c #FFFFFCF7",
"O 	c #FFFFE6A4",
"P 	c #FFFFE49D",
"Q 	c #FFFFF5E0",
"R 	c #FFFFFAEF",
"S 	c #FFFFFDFA",
"T 	c #FFFFD619",
"U 	c #FFFFD519",
"V 	c #FFFFD73F",
"W 	c #FFFFDA5B",
"X 	c #FFFFDC6B",
"Y 	c #FFFFDC6E",
"Z 	c #FFFFDA5A",
"` 	c #FFFFD629",
" .	c #FFFFD739",
"..	c #FFFFD73C",
"+.	c #FFFFD73D",
"@.	c #FFFFD94D",
"#.	c #FFFFF8E8",
"$.	c #FFFFDC69",
"%.	c #FFFFE6A7",
"&.	c #FFFFF3D8",
"*.	c #FFFFF9EB",
"=.	c #FFFFE8AE",
"-.	c #FFFFD94C",
";.	c #FFFFD842",
">.	c #FFFFE7AA",
",.	c #FFFFF8E9",
"'.	c #FFFFFEFD",
").	c #FFFFF9EF",
"!.	c #FFFFD509",
"~.	c #FFFFD848",
"{.	c #FFFFE9B3",
"].	c #FFFFD734",
"^.	c #FFFFEBBF",
"/.	c #FFFFDB63",
"(.	c #FFFFD517",
"_.	c #FFFFE394",
":.	c #FFFFF9EC",
"<.	c #FFFFDB5D",
"[.	c #FFFFD50F",
"}.	c #FFFFD506",
"|.	c #FFFFE5A2",
"1.	c #FFFFEFCB",
"2.	c #FFFFD840",
"3.	c #FFFFD503",
"4.	c #FFFFD611",
"5.	c #FFFFDD73",
"6.	c #FFFFE087",
"7.	c #FFFFD84D",
"8.	c #FFFFD623",
"9.	c #FFFFF3D9",
"0.	c #FFFFE6A8",
"a.	c #FFFFD847",
"b.	c #FFFFD730",
"c.	c #FFFFD51A",
"d.	c #FFFFE7A9",
"e.	c #FFFFDE79",
"f.	c #FFFFEEC6",
"g.	c #FFFFF2D4",
"h.	c #FFFFDE7D",
"i.	c #FFFFD512",
"j.	c #FFFFD846",
"k.	c #FFFFF4DB",
"l.	c #FFFFEDC3",
"m.	c #FFFFD508",
"n.	c #FFFFECBE",
"o.	c #FFFFE8AB",
"p.	c #FFFFDB61",
"q.	c #FFFFFAF1",
"r.	c #FFFFD740",
"s.	c #FFFFE395",
"t.	c #FFFFD956",
"u.	c #FFFFD625",
"v.	c #FFFFF5E1",
"w.	c #FFFFE9B1",
"x.	c #FFFFEFC9",
"y.	c #FFFFE392",
"z.	c #FFFFE28F",
"A.	c #FFFFDD6E",
"B.	c #FFFFD507",
"C.	c #FFFFD955",
"D.	c #FFFFDE7A",
"E.	c #FFFFF0CD",
"F.	c #FFFFD84F",
"G.	c #FFFFD634",
"H.	c #FFFFE9AF",
"I.	c #FFFFD738",
"J.	c #FFFFD72F",
"K.	c #FFFFFBF1",
"L.	c #FFFFD627",
"M.	c #FFFFF7E5",
"N.	c #FFFFEAB5",
"O.	c #FFFFF6E4",
"P.	c #FFFFE28E",
"Q.	c #FFFFD622",
"R.	c #FFFFD737",
"S.	c #FFFFDD71",
"T.	c #FFFFDC6C",
"U.	c #FFFFE292",
"V.	c #FFFFD614",
"W.	c #FFF9E9A9",
"X.	c #FFF9FCEE",
"Y.	c #FFE2E875",
"Z.	c #FFFDD600",
"`.	c #FFFAFFFA",
" +	c #FFC3FCB5",
".+	c #FFB3ED00",
"++	c #FFE8DE00",
"@+	c #FFE9DE18",
"#+	c #FFFBDF75",
"$+	c #FFFFE9B4",
"%+	c #FFFFF4DA",
"&+	c #FFBCFFBC",
"*+	c #FF34FE00",
"=+	c #FF5DFB00",
"-+	c #FF6FFB39",
";+	c #FFECFBDE",
">+	c #FFF8FFF8",
",+	c #FFB0FFB0",
"'+	c #FF00FF00",
")+	c #FF42FF42",
"!+	c #FFECFFEC",
"~+	c #FFF6FFF6",
"{+	c #FF93FF93",
"]+	c #FF5CFF5C",
"^+	c #FFF7FFF7",
"/+	c #FF9BFF9B",
"(+	c #FF23FF23",
"_+	c #FFE4FFE4",
":+	c #FFF1FFF1",
"<+	c #FF76FF76",
"[+	c #FF40FF40",
"}+	c #FFE8FFE8",
"|+	c #FFFEFFFE",
"1+	c #FFDEFFDE",
"2+	c #FF35FF35",
"3+	c #FFA0FFA0",
"4+	c #FFF5FFF5",
"5+	c #FFA4FFA4",
"6+	c #FF39FF39",
"7+	c #FFFCFFFC",
"8+	c #FFD0FFD0",
"9+	c #FF2CFF2C",
"0+	c #FFA7FFA7",
"a+	c #FF82FF82",
"b+	c #FF66FF66",
"c+	c #FF28FF28",
"d+	c #FFB6FFB6",
"e+	c #FF92FF92",
"f+	c #FF5FFF5F",
"g+	c #FFF2FFF2",
"h+	c #FF81FF81",
"i+	c #FF7DFF7D",
"j+	c #FF7FFF7F",
"k+	c #FFF4FFF4",
"l+	c #FF8BFF8B",
"m+	c #FF74FF74",
"n+	c #FF3FFF3F",
"o+	c #FFE7FFE7",
"p+	c #FFFBFFFB",
"q+	c #FFC7FFC7",
"r+	c #FF15FF15",
"s+	c #FFAEFFAE",
"t+	c #FF6BFF6B",
"u+	c #FF1EFF1E",
"v+	c #FFBFFFBF",
"w+	c #FF3DFF3D",
"x+	c #FF44FF44",
"y+	c #FFF9FFF9",
"z+	c #FF6FFF6F",
"A+	c #FFABFFAB",
"B+	c #FFE9FFE9",
"C+	c #FFD6FFD6",
"D+	c #FFF0FFF0",
"                                                                  . + @ # $ % & * = * - ; +                                     ",
"                                                                + > , ' ) ) ) ) ) ) ) ) ! ~ {                                   ",
"                                                            . ] ^ / ) ) ) ) ) ) ) ) ) ) ) ( _ {                                 ",
"                                                          . : < [ ) ) ) ) } ) ) } | 1 2 ) ) 3 4 5                               ",
"                                                          @ 6 ) ) ) [ ) ) ) ) ) ) ) ) ) 3 ) ) 7 8                               ",
"                                  5 9 0 0 0 a + .       9 b ) ) ) ) ) ) ) ) ) ) ) ) ) ) ) ) ) ) c 5                             ",
"                            . 9 d e f * = * & g h 0 5 5 c i ) ) j ) ) ) ) ) ) ) ) ) ) ) ) ) ) ) k 9                             ",
"                          l > - m ) ) ) ) ) ) ) n o p q r ) ) s ) ) ) ) ) ) ) ) ) ) ) ) ) ) ) ) t 0                             ",
"                        { u v ) ) ) ) ) ) ) ) ) ) ) w x ) ) ) ) ) ) ) ) ) ) ) ) ) ) ) ) ) ) ) ) y 9                             ",
"                      z A B ) ) ) ) ) ) ) ) ) j ) ) ) ) ) ) ) ) ) ) ) ) ) ) ) ) ) ) ) ) ) ) ) C u 5                             ",
"                    { D E ) ) ) ) ) ) ) ) ) ) ) ) ) ) ) ) ) ) ) ) ) ) ) ) ) ) ) ) ) ) ) ) ) ) F @                               ",
"                  5 G ( ) ) ) ) ) ) ) ) ) ) ) ) ) ) ) ) ) ) ) ) ) ) ) ) ) ) ) ) ) ) ) ) ) ) ) H +                               ",
"                  9 - ) ) I ) ) ) ) ) ) ) ) ) ) ) ) ) ) ) ) ) ) ) ) ) ) ) ) ) ) ) ) J ) ) ) K 8 .                               ",
"                  a & ) ) ) ) s ) ) ) ) ) ) ) ) ) ) ) ) ) ) ) ) ) ) ) ) ) ) ) ) ) L ) ) ) M 0 .                                 ",
"                  N O ) ) ) ) ) ) ) ) ) ) ) ) ) ) ) ) ) ) ) ) ) ) ) ) ) ) ) ) ) j ) ) ) P Q : : R S                             ",
"                  N P ) ) ) ) ) ) ) ) ) ) ) ) ) ) ) ) j T ) U V W X Y Z w j ) ) ) ) ) `  ...+./ @.H #.{ .                       ",
"                  5 p C ) ) ) [ ) ) ) ) ) ) ) ) ) ) ) U w $.%.&.@ z S *.=.-.j ) ) ) ) ) ) ) ) ) ) ) ;.>.,.'.                    ",
"                    ).$.) ) ) ) ) ) ) ) ) ) ) ) ) !.!.~.=.a             . {.].) ) ) ) ) ) ) ) ) ) ) ) ) & ,..                   ",
"                    l ^.) ) ) ) ) ) ) ) ) ) ) ) ) s  .A .                 0 /.j !.(.) ) ) ) ) ) ) ) ) ) ) _.R                   ",
"                      :.<.) ) ) ) ) ) ) ) ) ) ) ) } X +                   . = ) [.) ) ) ) ) ) ) ) ) ) }.) !.|.N                 ",
"                      l 1.2.) ) ) ) ) ) ) ) ) ) 3.4.5.                      P ) ) ) ) ) ) ) ) ) ) ) ) ) ) ) ` d                 ",
"                        l d 6.) ) ) ) ) ) ) ) ) ) ) 7.,.                    P ) ) ) ) ) ) ) ) ) ) ) ) ) ) ) 8.9..               ",
"                          . q 0.a.b.) ) ) ) ) ) ) ) c.d.                  '.e.) ) ) ) ) ) ) ) ) ) ) ) ) ) ) ) f.l               ",
"                            . { 8 g.h.) ) ) ) ) ) i.[.j.k.                l. .) ) ) ) ) ) ) ) ) ) ) ) ) m.) ) n.S               ",
"                              . 0 o.) ) ) j ) ) ) ) ) s p.# .         q.O r.s j ) ) ) ) ) ) ) ) ) ) ) ) 8.) ) n.S               ",
"                            . #.- ) ) ) j ) ) ) ) ) ) ) 3.7.y d.A g s.t.c.) ) ) ) ) ) ) ) ) ) ) ) ) ) } u.) ) f.l               ",
"                            a & ) ) ) ) ) ) ) ) ) ) ) ) ) ) ) ) ) s ) ) ) ) ) ) ) ) ) ) ) ) ) ) ) ) ) ) ) ) ) v..               ",
"                            Q ) ) ) ) ) ) ) ) ) ) ) ) ) ) ) ) ) ) ) ) ) ) ) ) ) ) ) ) ) ) ) ) ) ) ) ) ) ) ) w.{                 ",
"                          5 x.) ) ) ) ) ) ) ) ) ) ) ) ) ) ) ) ) ) ) ) ) ) ) ) ) ) ) ) ) ) ) ) ) ) ) ) ) ) y.0                   ",
"                          9 z.) ) ) ) ) ) ) ) ) ) ) ) ) ) ) ) ) ) ) ) ) ) ) ) ) ) ) ) ) ) ) ) ) ) ) ) ) a.h .                   ",
"                          @ A.) ) ) ) ) ) ) ) ) ) ) ) ) ) ) ) ) ) ) B.j ) ) ) ) ) ) [ ) ) ) ) ) ) ) C.D.E.S                     ",
"                          *.F.) ) ) ) ) ) ) ) ) ) ) ) ) ) ) ) ) ) ) ) ) ) ) ) ) ) ) G.H.e.I.J.) B - h q.l                       ",
"                          K.5.) ) ) ) ) ) ) ) ) ) ) ) ) ) ) ) ) ) ) ) ) ) ) ) ) ) ) L.h ] :.#.> M.9 .                           ",
"                          + N.) ) ) ) ) ) ) ) ) ) ) ) ) ) ) ) ) ) ) ) ) ) ) ) ) ) ) ) 9..                                       ",
"                          . O.Z ) ) C ) ) ) ) j m.T ) ) ) ) ) ) ) ) ) ) ) ) ) ) ) ) ) f.l                                       ",
"                            a o ) ) ) ) ) ) ) ) ) ) ) ) ) P.T ) ) ) ) ) ) ) ) ) m.) ) c l                                       ",
"                            5 4 w ) ) ) ) ) ) ) ) ) Q.C.N.> C.) ) ) ) ) ) ) ) R.) ) V d .                                       ",
"                              + E.S.) ) ) ) ) T.= U.u : + l l.V.) ) ) ) ) ) }.) ) ) D +                                         ",
"                                5 0 #.M.M.M.#.R 0 9 5       N W.} ) ) ) ) ) ) ) ) %.9                                           ",
"                                                              X.Y.Z.) ) ) ) ) T O 0                                             ",
"                                                              `. +.+++@+#+& $+%+N                                               ",
"                                                              `.&+*+=+-+;+a + .                                                 ",
"                                                              >+,+'+'+)+!+                                                      ",
"                                                              ~+{+'+'+]+!+                                                      ",
"                                                              ^+/+'+'+(+_+                                                      ",
"                                                              :+<+'+'+[+}+                                                      ",
"                                                            |+1+2+'+'+3+^+                                                      ",
"                                                            4+5+'+'+6+1+|+                                                      ",
"                                                          7+8+9+'+'+0+^+                                                        ",
"                                                          :+a+'+'+b+_+|+                                                        ",
"                                                        7+8+c+'+'+d+>+                                                          ",
"                                                        4+e+'+'+f+_+|+                                                          ",
"                                                        g+h+'+'+i+:+                                                            ",
"                                                        g+h+'+'+j+g+                                                            ",
"                                                        k+l+'+'+m+:+                                                            ",
"                                                        >+,+'+'+n+o+                                                            ",
"                                                        p+q+'+'+r+s+4+                                                          ",
"                                                        |+}+t+'+'+u+v+`.                                                        ",
"                                                          p+8+w+'+'+x+g+                                                        ",
"                                                            y+8+z+'+A+>+                                                        ",
"                                                              p+B+C+D+|+                                                        ",
"                                                                |+7+|+                                                          ",
"                                                                                                                                ",
"                                                                                                                                "};
