/* XPM */
static char * default_exit_xpm[] = {
"64 64 227 2",
"  	c #03A06A",
". 	c #009F68",
"+ 	c #1FA26D",
"@ 	c #019F68",
"# 	c #04A069",
"$ 	c #04A06A",
"% 	c #03A069",
"& 	c #72B491",
"* 	c #FBFCFB",
"= 	c #FBFCFC",
"- 	c #7EBA9A",
"; 	c #73B592",
"> 	c #FEFEFE",
", 	c #7FBA9B",
"' 	c #ECF3EF",
") 	c #C1DACC",
"! 	c #B7D4C4",
"~ 	c #D1E3D8",
"{ 	c #F9FBFA",
"] 	c #FDFDFD",
"^ 	c #B2D1BF",
"/ 	c #14A06A",
"( 	c #58AC82",
"_ 	c #E1ECE6",
": 	c #BCD7C8",
"< 	c #40A677",
"[ 	c #EFF5F1",
"} 	c #3CA575",
"| 	c #AACDB9",
"1 	c #DFEBE4",
"2 	c #70B491",
"3 	c #DCE9E1",
"4 	c #67B18C",
"5 	c #F4F8F6",
"6 	c #19A06B",
"7 	c #9BC6AF",
"8 	c #73B492",
"9 	c #A4CBB5",
"0 	c #18A06B",
"a 	c #E3EDE7",
"b 	c #F8FAF9",
"c 	c #86BDA0",
"d 	c #22A16D",
"e 	c #C9DED2",
"f 	c #FCFDFD",
"g 	c #D0E3D8",
"h 	c #9CC6AF",
"i 	c #8FC0A5",
"j 	c #AECFBD",
"k 	c #E9F1EC",
"l 	c #E4EEE8",
"m 	c #DEEBE4",
"n 	c #E0EBE5",
"o 	c #E7EFEA",
"p 	c #EBF2EE",
"q 	c #89BEA1",
"r 	c #0FA06A",
"s 	c #32A472",
"t 	c #A8CCB8",
"u 	c #F7FAF8",
"v 	c #F5F9F7",
"w 	c #55AB81",
"x 	c #77B695",
"y 	c #F7FAF9",
"z 	c #A9CDB9",
"A 	c #99C5AD",
"B 	c #E7F0EA",
"C 	c #15A06B",
"D 	c #089F69",
"E 	c #26A26E",
"F 	c #1CA16C",
"G 	c #C4DCCF",
"H 	c #FDFEFD",
"I 	c #80BA9B",
"J 	c #CEE1D6",
"K 	c #A2CAB4",
"L 	c #E2EDE7",
"M 	c #CDE1D6",
"N 	c #7DB99A",
"O 	c #EDF4F0",
"P 	c #1EA16D",
"Q 	c #5CAD84",
"R 	c #F6F9F8",
"S 	c #53AB80",
"T 	c #13A06A",
"U 	c #E5EEE9",
"V 	c #A4CAB5",
"W 	c #8BBEA2",
"X 	c #AED0BD",
"Y 	c #A7CCB8",
"Z 	c #EDF3F0",
"` 	c #1DA16C",
" .	c #0EA069",
"..	c #ADD0BD",
"+.	c #B4D3C1",
"@.	c #4DA97D",
"#.	c #A3CAB4",
"$.	c #90C1A7",
"%.	c #0B9F69",
"&.	c #88BEA1",
"*.	c #42A778",
"=.	c #D6E5DC",
"-.	c #CCE0D4",
";.	c #1FA16C",
">.	c #DFEBE5",
",.	c #69B18C",
"'.	c #F3F8F5",
").	c #45A779",
"!.	c #82BB9D",
"~.	c #A1C9B3",
"{.	c #39A574",
"].	c #E9F1ED",
"^.	c #ACCEBB",
"/.	c #F6F9F7",
"(.	c #EFF5F2",
"_.	c #D4E5DB",
":.	c #BFD9CA",
"<.	c #DCE9E2",
"[.	c #94C2A8",
"}.	c #48A87A",
"|.	c #8CBFA4",
"1.	c #53AB81",
"2.	c #37A473",
"3.	c #059F68",
"4.	c #85BC9E",
"5.	c #2EA371",
"6.	c #029F68",
"7.	c #E0ECE5",
"8.	c #DBE9E1",
"9.	c #B2D2C0",
"0.	c #30A371",
"a.	c #8CC0A4",
"b.	c #D6E6DD",
"c.	c #D0E2D8",
"d.	c #ADCFBC",
"e.	c #049F68",
"f.	c #CCE0D5",
"g.	c #F2F7F4",
"h.	c #31A472",
"i.	c #92C2A8",
"j.	c #BFD8CA",
"k.	c #B0D1BE",
"l.	c #099F69",
"m.	c #E6F0EA",
"n.	c #AACEBA",
"o.	c #9AC5AD",
"p.	c #19A16C",
"q.	c #88BDA0",
"r.	c #9BC6AE",
"s.	c #37A676",
"t.	c #B3D2C1",
"u.	c #EAF2EE",
"v.	c #F8FBF9",
"w.	c #F3F7F5",
"x.	c #DAE8DF",
"y.	c #D4E5DC",
"z.	c #D3E5DB",
"A.	c #60AF88",
"B.	c #3DA576",
"C.	c #9EC8B1",
"D.	c #B9D6C6",
"E.	c #B8D5C4",
"F.	c #64B08A",
"G.	c #B6D4C3",
"H.	c #18A16B",
"I.	c #ADCFBD",
"J.	c #60AF87",
"K.	c #A5CBB6",
"L.	c #4BA97C",
"M.	c #75B694",
"N.	c #B9D5C5",
"O.	c #25A26E",
"P.	c #BBD6C7",
"Q.	c #17A06B",
"R.	c #48A87B",
"S.	c #AACDBA",
"T.	c #33A472",
"U.	c #F5F8F6",
"V.	c #A7CDB9",
"W.	c #54AC82",
"X.	c #8DC0A4",
"Y.	c #BDD7C8",
"Z.	c #2BA36F",
"`.	c #F1F6F4",
" +	c #50AA7E",
".+	c #56AB81",
"++	c #6BB28D",
"@+	c #5EAE85",
"#+	c #55AC82",
"$+	c #55AC81",
"%+	c #94C4AA",
"&+	c #C2DACC",
"*+	c #37A474",
"=+	c #57AC82",
"-+	c #C6DCD0",
";+	c #3EA676",
">+	c #5FAE86",
",+	c #B8D5C5",
"'+	c #85BC9F",
")+	c #91C2A7",
"!+	c #BED8C9",
"~+	c #FCFDFC",
"{+	c #CADFD3",
"]+	c #ABCEBA",
"^+	c #A2C9B4",
"/+	c #C8DED1",
"(+	c #44A779",
"_+	c #20A16C",
":+	c #FAFCFB",
"<+	c #A2C9B3",
"[+	c #27A26E",
"}+	c #D5E5DC",
"|+	c #7EB99A",
"1+	c #8CBFA3",
"2+	c #97C4AC",
"3+	c #34A472",
"4+	c #D9E8DF",
"5+	c #8ABEA2",
"6+	c #FAFBFB",
"7+	c #94C3A9",
"8+	c #37A574",
"9+	c #DDEAE3",
"0+	c #81BA9C",
"a+	c #14A06B",
"b+	c #7FBA9A",
"c+	c #7BB999",
"d+	c #78B795",
"  . . . . . . . . . . . . . . . . . . . . . . . . . . . . . . . . . . . . . . . . . . . . . . . . . . . . . . . . . . . . . . + ",
"  . . . . . . . . . . . . . . . . . . . . . . . . . . . . . . . . . . . . . . . . . . . . . . @ . . . . . . . . . . . . . . . + ",
"  . . . . . . . . . . . . . . . . . . . . . @ . . . @ . . . . . . . . . @ @ . . . . . . @ . . . @ . . . . . . . . . . . . . . + ",
"  . . . . . . . . . . . @     #   $ # $ # $ $ $ $ $ $   % $     $   # $   #   $ # $ $ $ # $ $ $ $     @ . . . . . . . . . . . + ",
"  . . . . . . . . . . . & * * * * * * = * * * * * * * * * * * * * * * * * * * * * = * * * * * * * * * - . . . . . . . . . . . + ",
"  . . . . . . . . . . . ; > > > > > > > > > > > > > > > > > > > > > > > > > > > > > > > > > > > > > > , . . . . . . . . . . . + ",
"  . . . . . . . . . . . ; > > > > > > > > > > > > > > > > > > > > > > > > > > > > > > > > > > > > > > , . . . . . . . . . . . + ",
"  . . . . . . . . . . . ; > > > > > > > > > > > > > > > > > > > > > > > > > > > > > > > > > > > > > > , . . . . . . . . . . . + ",
"  . . . . . . . . . . . ; > > > > > > > > > > > > > > > > > > > > > > > > > > > > > > > > > > > > > > , . . . . . . . . . . . + ",
"  . . . . . . . . . . . ; > > > > > > > > > > > > > > > > > > > > > > ' ) ! ~ { > > > > > > > > > > > , . . . . . . . . . . . + ",
"  . . . . . . . . . . . ; > > > > > > > > > > > > > > > > > > > > ] ^ / . . @ ( _ > > > > > > > > > > , . . . . . . . . . . . + ",
"  . . . . . . . . . . . ; > > > > > > > > > > > > > > > > > > > > : . . . . . . < [ > > > > > > > > > , . . . . . . . . . . . + ",
"  . . . . . . . . . . . ; > > > > > > > > > > > > > > > > > > > { } . . . . . . @ | > > > > > > > > > , . . . . . . . . . . . + ",
"  . . . . . . . . . . . ; > > > > > > > > > > > > > > > > > > > 1 @ . . . . . . . 2 > > > > > > > > > , . . . . . . . . . . . + ",
"  . . . . . . . . . . . ; > > > > > > > > > > > > > > > > > > > 3 @ . . . . . . . 4 > > > > > > > > > , . . . . . . . . . . . + ",
"  . . . . . . . . . . . ; > > > > > > > > > > > > > > > > > > > 5 6 . . . . . . . 7 > > > > > > > > > , . . . . . . . . . . . + ",
"  . . . . . . . . . . . 8 > > > > > > > > > > > > > > > > > > > > 9 . . . . . . 0 a > > > > > > > > > , . . . . . . . . . . . + ",
"  . . . . . . . . . . . ; > > > > > > > > > > > > > > > > > > > > b c . . . @ d e > > > > > > > > > > , . . . . . . . . . . . + ",
"  . . . . . . . . . . . ; > > > > > > > > > > > > > > > > > > > > > f g h i j k > > > > > > > > > > > , . . . . . . . . . . . + ",
"  . . . . . . . . . . . ; > > > > > > > > > 5 l 1 1 1 1 m 1 m 1 1 m 1 n o { > > > > > > > > > > > > > , . . . . . . . . . . . + ",
"  . . . . . . . . . . . ; > > > > > > > p q r @ . . . @ @ . . . . . . . . s t u > > > > > > > > > > > , . . . . . . . . . . . + ",
"  . . . . . . . . . . . ; > > > > > > v w . . . . . . @ . . . . . . . . . . @ x y > > > > > > > > > > , . . . . . . . . . . . + ",
"  . . . . . . . . . . . ; > > > > > > z . . . . . . . . . . . . . . . . . . . @ A > > > > > > > > > > , . . . . . . . . . . . + ",
"  . . . . . . . . . . . ; > > > > > B C @ . . D E E E E F . . . . . . . . . . . . G > > > > > > > > > , . . . . . . . . . . . + ",
"  . . . . . . . . . . . ; > > > > H I . . . @ J ] f f ] K . . . . . . . . . . . . E L > > > > > > > > , . . . . . . . . . . . + ",
"  . . . . . . . . . . . ; > > > > M @ . . . N ] > > > O P . . . . . . . . . . . . @ Q 5 > > > > > > > , . . . . . . . . . . . + ",
"  . . . . . . . . . . . ; > > > R S @ . . T U > > > > V . . . . . . . . . . . . . @ @ W f > > > > > > , . . . . . . . . . . . + ",
"  . . . . . . . . . . . ; > > > X . . . . Y > > > > Z ` . . . . . . . . .  .... . . . . +.> > > > > > , . . . . . . . . . . . + ",
"  . . . . . . . . . . . ; > > O P @ . . @.v > > > > #.. . . . . . . . . . $.> A @ . . @ %.c &.q q &.&.*.. . . . . . . . . . . + ",
"  . . . . . . . . . . . ; > > =.@ @ @ . -.> > > > Z ;.. . . . . . . . . @ >.> u ,.@ . @ . . . . . . . . . . . . . . . . . . . + ",
"  . . . . . . . . . . . ; > > '.).@ @ !.H > > > > ~.. . . . . . . . . . N > > > k {.. . . . . . . . . . . . . . . . . . . . . + ",
"  . . . . . . . . . . . ; > > > ].^.! /.> > > > (.F . . . . . . . . @ @ _.> > > > _./ . . . . . . . . @ @ . . . . . . . . . . + ",
"  . . . . . . . . . . . ; > > > > > > > > > > > :.. . . . . . . . . @ ,.] > > > > > <.h [.[.[.[.[.[.[.}.@ . . . . . . . . . . + ",
"  . . . . . . . . . . . ; > > > > > > > > > > > |.. . . . . . . . . . e > > > > > > > > > > > > > > > , . . . . . . . . . . . + ",
"  . . . . . . . . . . . ; > > > > > > > > > > > 1.. . . . . . . . . 2.{ > > > > > > > > > > > > > > > , . . . . . . . . . . . + ",
"  . . . . . . . . . . . ; > > > > > > > > > > u 3.. . . . . . . . . . <.> > > > > > > > > > > > > > > , . . . . . . . . . . . + ",
"  . . . . . . . . . . . ; > > > > > > > > > > ' @ @ . @ . . . . . . . 4.> > > > > > > > > > > > > > > , . . . . . . . . . . . + ",
"  . . . . . . . . . . . ; > > > > > > > > > > l @ @ . @ @ 5.. . . . . 6.7.> > > > > > > > > > > > > > , . . . . . . . . . . . + ",
"  . . . . . . . . . . . ; > > > > > > > > > > 8.. . . @ . 9.0.@ . . . . a.> > > > > > > > > > > > > > , . . . . . . . . . . . + ",
"  . . . . . . . . . . . ; > > > > > > > > > > b.. . . . @ c.d.. . . . . e.l > > > > > > > > > > > > > , . . . . . . . . . . . + ",
"  . . . . . . . . . @ . ; > > > > > > > > > > f.. . . . @ >.g.h.. . . . . i.> > > > > > > > > > > > > , . . . . . . . . . . . + ",
"  . . . . . . . . . @ @ ; > > > > > > > > > > j.. . . . . ' > k.. . . . . l.m.> > > > > > > > > > > > , . . . . . . . . . . . + ",
"  . . . . . . . . . . . ; > > > > > > > > > > n.@ . . . . y > '.{.@ . . . . o.> > > > > > > > > > > > , . . . . . . . . . . . + ",
"  . . . . . . . . . . p.q.> > > > > > > > > > r.. . . . s.> > > t.. . . . . / u.> > > > > > > > > > > , . . . . . . . . . . . + ",
"  . . . . . . . @ N b.v.w._ x.b.y.y.y.y.y.y.z.A.. . . . ,.> > > 5 B.. . . . @ C.> > > > > > > > > > > , . . . . . . . . . . . + ",
"  . . . . . @ e.D.R E.F.e.. . . @ . @ . . . . . . . . . !.> > > > G.. . . . . H.' > > > > > > > > > > , . . . . . . . . . . . + ",
"  . . . . @ @ I.' J.. . . . . . . . . . . . . . . . . . C.> > > > v *.. . . . . K.> > > > > > > > > > , . . . . . . . . . . . + ",
"  . . . . . L.v M.. . . . . . . . . @ @ . . . . . . . . X > > > > > N.@ . . . . O.(.> > > > > > > > > , . . . . . . . . . . . + ",
"  . . . . @ P._.. . . . . . . . . . . . . . . . . . . Q._ > > > > > u R.. . . . . S.> > > > > > > > > , . . . . . . . . . . . + ",
"  . . . . T.U.V.W.W.W.W.W.W.W.W.W.W.W.W.W.W.W.W.W.J.X.<.> > > > > > > Y.. . . . . Z.`.> > > > > > > > , . . . . . . . . . . . + ",
"  . . . . ~.> > > > > > > > > > > > > > > > > > > > > > > > > > > > > v. +. . . . . X > > > > > > > > , . . . . . . . . . . . + ",
"  . . . . .+++,.,.@+#+$+%+> > > > > > > > > > > > > > > > > > > > > > > &+. . . . . *+5 > > > > > > > , . . . . . . . . . . . + ",
"  . . . . . @ @ . . . . 4.> > > > > > > > > > > > > > > > > > > > > > > { =+. . . . @ +.> > > > > > > , . . . . . . . . . . . + ",
"  . . . . . . . . . . . 4.> > > > > > > > > > > > > > > > > > > > > > > > -+. . . . . ;+v > > > > > > , . . . . . . . . . . . + ",
"  . . . . . . . . . . . 4.> > > > > > > > > > > > > > > > > > > > > > > > * >+. . . . . ,+> > > > > > , . . . . . . . . . . . + ",
"  . . . . . . . . . . . '+> > > > > > > > > > > > > > > > > > > > > > > > > M . . . . @ R.u > > > > > , . . . . . . . . . . . + ",
"  . . . . . . . . . . . 4.> > > > > > > > > > > > > > > > > > > > > > > > > H )+. . . @ @ !+> > > > > , . . . . . . . . . . . + ",
"  . . . . . . . . . @ @ 4.> > > > > > > > > > > > > > > > > > > > > > > > > > ~+{+]+| | | ,+> > > > > , . . . . . . . . . . . + ",
"  . . . . . . . . . @ @ '+> > > > > > > > > > > > > > > > > > > > > > > > > > v.l a a a l > > > > > > , . . . . . . . . . . . + ",
"  . . . . . . . . . . . ^+> > > > > > > > > > > > > > > > > > > > > > > > > /+(+@ . @ _+c.> > > > > u >+. . . . . . . . . . . + ",
"  . . . . . . . . . . X.:+> > > > > > > > > > > > > > > > > > > > > > > ~+<+. . . . [+}+> > > > > u |+@ . . . . . . . . . . . + ",
"  . . . . . . . . . 1+:+> > > > > > > > > > > > > > > > > > > > > > > = 2+. . . . 3+4+> > > > > b I @ @ . . . . . . . . . . . + ",
"  . . . . . . @ @ 5+6+> > > > > > > > > > > > > > > > > > > > > > > = 7+. . . . 8+9+> > > > > b 0+. . . . . . . . . . . . . . + ",
"  . . . . @ @ @ a+~.z z z z z z z z z z z z z z z z z z z z z z z z b+@ . . . . c+z z z z z z d+@ . . . . . . . . . . . . . . + "};
