/* XPM */
static char * default_wall_xpm[] = {
"64 64 6 1",
" 	c #000000",
".	c #FFFFFF",
"+	c #BCBCBC",
"@	c #D4D4D4",
"#	c #C8C8C8",
"$	c #CDCDCD",
"                                                                ",
" .............................................................. ",
" .............................................................. ",
" .............................................................. ",
" .............................................................. ",
" .............................................................. ",
" .............................................................. ",
" .............................................................. ",
" .............................................................. ",
" .............................................................. ",
" .............................................................. ",
" .............................................................. ",
" .............................................................. ",
" .............................................................. ",
" .............................................................. ",
" .............    .....................++   ................... ",
" .............@#$$.....................++   ................... ",
" .............................................................. ",
" .............................................................. ",
" .............................................................. ",
" .............................................................. ",
" .............................................................. ",
" .............................................................. ",
" .............................................................. ",
" ........................ ..... ............................... ",
" .............................................................. ",
" .............................................................. ",
" .............................................................. ",
" .............................................................. ",
" .............................................................. ",
" .............................................................. ",
" .............................................................. ",
" ......................................  ...................... ",
" .....................................   ...................... ",
" ...................  ................$ ....................... ",
" .................... ................  ....................... ",
" ....................  ..............  ........................ ",
" .....................  ............  ......................... ",
" ......................  .........   .......................... ",
" .......................           ............................ ",
" .........................       $............................. ",
" .............................................................. ",
" .............................................................. ",
" .............................................................. ",
" .............................................................. ",
" .............................................................. ",
" .............................................................. ",
" .............................................................. ",
" .............................................................. ",
" .............................................................. ",
" .............................................................. ",
" .............................................................. ",
" .............................................................. ",
" .............................................................. ",
" .............................................................. ",
" .............................................................. ",
" .............................................................. ",
" .............................................................. ",
" .............................................................. ",
" .............................................................. ",
" .............................................................. ",
" .............................................................. ",
" .............................................................. ",
"                                                                "};
