/* XPM */
static char *_6f3ce206d4a4562baff1b132fde6218ukj50KRBtBQXEg1O[] = {
/* columns rows colors chars-per-pixel */
"64 64 246 2 ",
"   c #172A12",
".  c #192C13",
"X  c #162711",
"o  c #153116",
"O  c #1C3316",
"+  c #1F3919",
"@  c #18381A",
"#  c #252C17",
"$  c #362C1D",
"%  c #213B1A",
"&  c #382E22",
"*  c #422A1F",
"=  c #422D22",
"-  c #453223",
";  c #4C3325",
":  c #4C3729",
">  c #543B2C",
",  c #13401F",
"<  c #25441D",
"1  c #28491F",
"2  c #27481F",
"3  c #144623",
"4  c #13542D",
"5  c #1C5A29",
"6  c #0C5C37",
"7  c #135C3C",
"8  c #135937",
"9  c #284720",
"0  c #264C21",
"q  c #2A4B21",
"w  c #22492B",
"e  c #245423",
"r  c #295121",
"t  c #255A23",
"y  c #245A26",
"u  c #2F5030",
"i  c #1A632C",
"p  c #1B692A",
"a  c #16722E",
"s  c #1C792B",
"d  c #146C33",
"f  c #1A643C",
"g  c #166C3B",
"h  c #1A6B3D",
"j  c #166435",
"k  c #15713B",
"l  c #1B733D",
"z  c #1A7A3B",
"x  c #167735",
"c  c #0F6638",
"v  c #236B24",
"b  c #246324",
"n  c #237325",
"m  c #207929",
"M  c #20773F",
"N  c #56442E",
"B  c #5D4533",
"V  c #634B34",
"C  c #664936",
"Z  c #695239",
"A  c #74563B",
"S  c #62472E",
"D  c #456039",
"F  c #185D45",
"G  c #1B6544",
"H  c #1C6B44",
"J  c #1C644B",
"K  c #1E6C4B",
"L  c #176742",
"P  c #1D7244",
"I  c #1D7B44",
"U  c #1D734B",
"Y  c #177946",
"T  c #1C795A",
"R  c #1C6953",
"E  c #216C4C",
"W  c #20674D",
"Q  c #227446",
"!  c #237C43",
"~  c #22744C",
"^  c #237B4B",
"/  c #297F4C",
"(  c #246D53",
")  c #246C5A",
"_  c #247353",
"`  c #297254",
"'  c #257A53",
"]  c #2A7B53",
"[  c #23755B",
"{  c #2A745B",
"}  c #267D5C",
"|  c #2D7B5A",
" . c #1F7361",
".. c #237362",
"X. c #267B63",
"o. c #287C64",
"O. c #216C67",
"+. c #775D40",
"@. c #7D6244",
"#. c #8E643E",
"$. c #94744E",
"%. c #1C8828",
"&. c #1D952B",
"*. c #1B8334",
"=. c #1C823C",
"-. c #1D8C3C",
";. c #1A8A36",
":. c #1D9838",
">. c #238829",
",. c #23992A",
"<. c #20853D",
"1. c #228D3E",
"2. c #218932",
"3. c #259B3C",
"4. c #239734",
"5. c #1EA137",
"6. c #22A32B",
"7. c #28A83A",
"8. c #2BB43D",
"9. c #28B63D",
"0. c #30B937",
"q. c #32C23C",
"w. c #2FC03E",
"e. c #1E8343",
"r. c #1B854D",
"t. c #1E8A48",
"y. c #1E934A",
"u. c #1E9543",
"i. c #1D8B5E",
"p. c #1D8457",
"a. c #1D925B",
"s. c #238343",
"d. c #298445",
"f. c #248C44",
"g. c #2B8B46",
"h. c #24834C",
"j. c #2B854C",
"k. c #258C4B",
"l. c #2B8B4B",
"z. c #249343",
"x. c #2B9444",
"c. c #2B9A44",
"v. c #26934D",
"b. c #2A944B",
"n. c #249C4C",
"m. c #2D9C4C",
"M. c #229C43",
"N. c #309544",
"B. c #31984A",
"V. c #248353",
"C. c #2B8454",
"Z. c #248C55",
"A. c #298C54",
"S. c #23845C",
"D. c #2A855C",
"F. c #248B5A",
"G. c #2C8C5C",
"H. c #308E5A",
"J. c #249453",
"K. c #2B9453",
"L. c #279A54",
"P. c #2D9C53",
"I. c #26945C",
"U. c #2C935C",
"Y. c #2B9C5C",
"T. c #239B5D",
"R. c #329C54",
"E. c #339C5A",
"W. c #349759",
"Q. c #328E4C",
"!. c #1FA149",
"~. c #2CA444",
"^. c #26AC44",
"/. c #2CAC43",
"(. c #2CA44B",
"). c #2DAB4A",
"_. c #26A345",
"`. c #32AD45",
"'. c #33A54D",
"]. c #33AB4B",
"[. c #35A74A",
"{. c #2DB343",
"}. c #2DBA43",
"|. c #2DB54A",
" X c #2BB449",
".X c #32B445",
"XX c #32BA43",
"oX c #33B24C",
"OX c #34B84B",
"+X c #2CA454",
"@X c #2CAC53",
"#X c #26A25C",
"$X c #2CA45B",
"%X c #2CAB5B",
"&X c #25A753",
"*X c #33A352",
"=X c #33AB52",
"-X c #33A35B",
";X c #33AB5B",
":X c #38A655",
">X c #2EB352",
",X c #2FB85E",
"<X c #34B353",
"1X c #35BB54",
"2X c #34B35B",
"3X c #39B35D",
"4X c #34BB5B",
"5X c #3CBD5D",
"6X c #39B652",
"7X c #258362",
"8X c #2B8463",
"9X c #2A8C63",
"0X c #268C64",
"qX c #2C9462",
"wX c #279762",
"eX c #2AA361",
"rX c #33A560",
"tX c #39B660",
"yX c #2EB661",
"uX c #1F9362",
"iX c #32C244",
"pX c #3CCC4C",
"aX c #37C748",
"sX c #3BD449",
"dX c #3CCB54",
"fX c #3DC45B",
"gX c #3DCB5A",
"hX c #37C456",
"jX c #3DD253",
"kX c #3ED851",
"lX c #3CC764",
"zX c #43CF4B",
"xX c #43D54D",
"cX c #46D94D",
"vX c #41CA5B",
"bX c #41C857",
"nX c #43D455",
"mX c #4BDC53",
"MX c #45D756",
"NX c #52DF55",
"BX c #4CE551",
"VX c #52E155",
"CX c #5CE559",
"ZX c #45E04E",
"AX c #51D75F",
"SX c #A08057",
/* pixels */
"q q 2 q q q r q q q q q q q q q q q q q q q q q q 1 r r r r r q b n v r q r u q q q q q q q q q q q q q 9 1 q q q q q q q q q r ",
"q q q q q q q q r q u q q q q q q q 1 q 1 q q q q r q q 1 1 r b ,.cX>.n q q q q q r r q q u r q q q 9 9 9 q q q q q q q q u q q ",
"2 q 9 q q q u q q r q q q q q q q q q q q q q q r r q q 1 v ,.>.0.BX6.6.q q q r q q q q q q q q q 1 9 q 9 1 q q q q q q q q q q ",
"9 9 q q q r q r q q q q q q q q q q q q q q q r q t r r r v q.sXOXBX0.q.t r q q u q q q q q q q q 1 q 9 q q q q q q q q q q q q ",
"q 2 q q q q q q r q q q q q q q q q q q q q 0 0 v ,.&.s p %.9.BXZXZXkXw.6.b q r q q r r q q q q 1 q q 9 1 1 1 q q q q q q q q q ",
"9 q q q q q r q q q q q q q q q q q q q q q n n ;.@XhXlX,XhXgXZXBXkXsXsX].[.oXM.M.m r q q 2 q 1 9 q q 1 q 1 q q q q 9 q q q q q ",
"q 1 q q q q q q q q q q q q q r q q q q q r 6.0.>.!.cXgXgXjXZXkXZXjXsXaXlXvXlXyX4X}.q 0 q 9 1 q q 9 9 1 9 q 9 1 q q q 9 q q q q ",
"q q q q q q q q q q q q q q q q q q q n >.>.7.bXVXnXcXVXVXdXpXkXaXsX}.1XcXcXhXVXmX6.2.z 2.q q q 1 q q 9 9 q 9 1 q 9 q q q q q q ",
"q q q q q q q q q q q q q q q q q 1 0 %.iXiXOXgXmXVXgXcXmXpXpXkXsXsXaXjXcXdXnXVXgXXXOX>X:.1 1 q q 9 1 9 9 1 9 9 9 9 9 q q q q q ",
"q q q q q q q r q q q q q q q q 1 b >.,.7.bXmXmXjXjXcXxXsXxXcXiXaXaXaXaXxXxXxXjXcXmXdX`.&.r t 1 q 1 q q 9 9 9 1 q 9 9 q 9 q q q ",
"q q q q q q q q q r q q q q q q e s  X^.6.~.vXdXlXnXdXhXhXiXmXXXdXsXsXaX1XhXcXgXgXnX4X@X&.>.4.y q q 9 9 9 9 1 9 9 q 9 q q q q q ",
"1 D q q q q q q r q q q q q q r %.;.hXdXbXhXdX2XpXpXpXcXcXMX{.mXgXdXpXZXmXcXzXnXhX,X5XhX%X>Xn.;.v q q 9 9 q 9 9 q 9 q q q q q q ",
"q q q q u q q q r q q q q q q n a.a.T.a.4XgX%X#XgXjXmXmXmXnX1XVXcXlXaXOXCXmXVXvXsXjX%X%XgXeX#X_.>.q q q 9 1 9 1 9 q q q q q q q ",
"q r q q q q r r q q r q q q q v r.a.a.a.%XhXeXyXgXvXVXMXMXzXdXNXcXMXaX XCXmXVXmX1XhX2X4XhXa.r.s t q 1 1 9 9 1 1 q q q q q q q q ",
"r q q q r q q r q q 1 q 1 1 q >.:.Y y.y.#X2XgXfX%XVXbXwXeXNXlXcXVXvXjX1XCXNXvXCX6X5XhXeX&XY s &.>.q q 1 1 q 1 q 9 q q q q q 9 q ",
"q q r q q q q r r q 1 1 n ,.n m }.).#X@X X%X$X1X1XNXlX%X;XbXtXBXmXmXyX$XvXcXrXMXbX%X2X@X>X&X:.5.%.1 2 2 1 q q q q 1 q q q q 9 q ",
"q q q q q q q q q q q q t m {._.%XiX,X4XOXhX5XgX2XgXhX1X1X@X3XmXlXnXbX%X<X1X3XlXhX;XlX2XhX X>Xr.-.4.&.r q q q q r q q q q q q q ",
"q q q q q q q q 0 1 q t -.k.I.<XaX1X}.aXwXT.tXtX$X3X1XvXvX5X5X1X;X%X;X%X5XfX1Xy.Y.T.rXyXi.&X X#X@X|.|.s t q q r q q q q q q q q ",
"q q q q q q q q 1 q 0 s >X<X}.1Xr.p.9.{.^.9.+XJ.1XhX5X5XbXbX3X3X3X=X<X3XgXfXfXfXy.a.!.u.^.eX$X XuXT r.&.n 0 r q q q q q q q q q ",
"q q q q q q q q q 1 q =.+X|.@XY.n.n.3X<X8.^._.&XoXI.vXfX5X5X;X5X<X@X3X2XfXfX3X5X@XM.^.7.&Xi.i.J.p.y.u.;.1.t q 0 r q q q q q q q ",
"q q q q q q q q 0 t b 4.|.%X9.9.F.+X6X1X$X=X/.@Xy.rXgX5XtX;X5X6X6X5X=X;X;XtXvXrX&X(.&X$X>Xa.;.r.y.5.5.J.J.s y 0 q q q q q q q q ",
"q q q q q q q q 9 e p 7.9.^.i.T XXaXw.iXXX%X{.@X0X;XvX3X3X;X<X1XtXvX+X$XrX;XvX3XJ.@X<X|.}.aXJ.u.5.u.M.:.5.:.%.t q q q q q q q q ",
"q q q q 1 q q 9 2 p t.8.9.^.I.p.$X;X6X6XXX$X<X^.^.u.I._.n.u.L.3XvX3X;XI.L.I.&XF.$X$X|.{.2X#XwXp.a.5.:.-.;.;.:.:.b r q q q q q q ",
"q q 1 q 1 q 9 9 1 d ].}.8.9.Y.0X).iX;X<X<XY.$X=X/.^.rX=XoXM.P.tXvX;XY.J.).@X_.y.+XwX%X}.rX|.eXi.T n._.y.*.-.-.;.b q q q q q q 9 ",
"q q q q 2 q 9 2 9 p e.|.$X/.I.0XXXoXT I.Y.(.>X(.).OX;XY.Y.+XrX$XbX3XP.^.wX+X@X+XJ.p.uXL.p.).).p.p.a.r.i.a.-.=.a v q q r q q q q ",
"q q q q q 9 9 q q i 6 -XY.&XwXI.*Xn.p.S.'.}.iX9.@X|.<XY.Y.-X$XP.tXrX^. X$X=X$XwXwXp.T p.Y Z.z.z.k.P.+XF.r.e.Y 6 x q q q q q 9 q ",
"q 1 & q q 9 9 q 9 b x b.0XX.)./.n.K.K.m.Y.P.'.oX;X;X|.Y.Y.].).I.G.I.~.P.}.iX$X.X).y.n.v.z.J.F.J.n.(.(.Y z r.z a y q q q q q q q ",
"q 1 1 q 9 2 q 9 9 m 3.k.J.Z.+X*XY.P.Y._.;X:X`.6XOXrXoXS.F.;XwXY.P.wX(.Y.}.iXwX<X$XF.v.v.y.J.K.K.I.+XL.r.=.-.z p r q q r q q q 9 ",
"1 q 1 1 1 b :.7.3.*.XX7XS.Z.oX.X`..XP.+X].XXR.=XoXZ.k.r.s.0X;XXX6X.XwX0X.X-X6XoX=X=X+Xm.v.n.P.).+X].m.Y k x x *.b y y 0 q q q q ",
"q q q q q m 4.XXXX3.`.wXF.7XXX8.=X.X-X*X.X}.R..X].Z.=.k.k.S.<XXX6XXXwX7XE.S.OX6X@X.XZ.K.b.m.*X(.P./.^.g k c z a a *.*.e q q q q ",
"q q q q q t a c.'.`.c.x.@XoXXX=XqX=XqXY.oXoX*XR.m.b.e.k.k.Z.P.-XOX:XF.V.v.K.m.].S./.].K.L.(.P.`.m.(.}.-.g k z I -.z.1.v q q q q ",
"q q q q q t d V.E.B.b.b./.`.XX$XqXwXU.L.=X`.=XR.P.b.e.Z.Z.Z.[ -XXXY.Z.k.v.c.v.K.S.(.].K.'.(.A.+XA.Z.(.l.Y z z -.1.-.<.r q r q q ",
"q q q q 0 1 1 x g c.3.(.<.=.~.M.X.7X9X-X6X-X=X`.R.m.s.F.Z.z.v.W.OXA.J.A.K.K.K.(.K.P.(.).*X`.(.'.K.*XP.V.e.U U z z x y q q q q q ",
"q q q q 0 1 1 x g c.x.c.s.=./.z.7XS.9XrX].-X].`.E.(.s.A.A.f.k.P.XXA.K.K.K.b.K.m.P.B.~./.*X XP.(.A.=XP.V.I I Y z *.s y q q q q r ",
"r q q q q r e x x h.h.-.s.h.;.h.S.S.9X9X9X9X-X;X9X/.B._._.K.'.B.m.B.'.'.I.U./.*X`./.z.K.R.S.U m..XK h./.e.I s.s.=.0 r r q q q r ",
"q q q 0 p s.h.! s.z.x.S.s.e.x._.].=XE.].qXH.b.z.~.K.8././.W.qXB.k.`.'.].:X9X9X*X`.`.c..XK.[._.s.H k k g l h.I a a z k e q q q q ",
"q q q r 0 M s.z.x.x.z.b.h.=.m.m./..X7X(.E.G.V.V.K.F.8.`.`.U.9XA.A./.C.~.*X9X9X*X.X8.~.oXV.~._.v.U k k U R h.e.<.s.h.e.p r q q q ",
"q r q M l l l P I h.h.g.G.9X9XG.E.*XX.9X*X7X8XG.B.b.:X`.].h.`.~.k.m.[ J H.9X9X7XB.V.~.].A.U.C.D.8XY P k l e.s.f.f.k j i b u q q ",
"1 q r z d I ~ ~ ~ D.' z.1.x.W.E.W.K.G.8XE.' *X`.Z.c.c.K.K.x.[.R.V.f.z.h.T k.qXP.(.' '.G.'.*X*XW.R.[ J z z h._ ' _ K U I z q q q ",
"q q q y P ' P _ ' G.j.x.g.1.K.`.h.m.f.' Q ! 9X8XR.D.A.k.k.....| x.} ....V.c.A.C.C.K.C.X.*XG.`.G.X.U K I ^ z.s.' ' P ~ P b q q q ",
"0 q q x ] l d ~ ~ G.c.x.g.f.oX[.P m.<.z M z 8X[.`.:XO.......o.~.x.x.X...D.A...R.G.O.E G l.S.*X*X' G l s.^ z.x.U ' g ^ ' j q q q ",
"q q q i i q q i i L _ _ ~ s.g.C.Q ! ~ U J ! 6X*X:X].} ) ) *X`.D.l.m.v.} ....`.[.[.`.F h P J G h.J I I H G M =.i h e e j l 0 q r ",
"q q 1 q 9 q 9 9 9 h U ~ F ~ x.g.s.^ U Q R d.E.H.:X[.o.} o.E.8Xo.b.D.b.V.X.X.`.*XW.`.R H P H Q U l s.s.' ] ~ U e 5 r 0 e i r q q ",
"q q q q q 1 q j h K H K _ } g.j.^ d.E M H | o.[.-Xo.E J J 8X9X`.:X'.X.X.) } H.G.[.o.^ P H l Q ~ ^ ^ d.' J d d 5 y 9 0 q q q q q ",
"q q q q q q 1 P K ( _ J _ ] j.d.g.d.Q ! z D.8X[.W.~ J J J 8XE.`.:X[.X.o.G H X.G..XG.~ H Q M ! ! s.d./ ' J H H H h q q q q q q q ",
"q q q q q 1 e c j H J ' ( | N.N.j.x.C.d.d.d.! ! Q M l h h ` W.H.:XR.G.o.J J ( ( B.H.8XQ l ! d.d._ x.x.) ) J L j j q q q q q q 9 ",
"q q q q 0 0 d H E ~ _ ` ( C.3.N./ N.j.<.g.d.d.Q Q Q Q h h E { H.`.8XH.` G H E H G | D.Q l <.d.j.) N.c.` ) ( G g g 0 q q q q q q ",
"q r q 0 q 0 5 h E K G E G K ! E ( E J _ g.b.g.j.d.M Q _ ~ ~ M H.oX8X~ E P f Q E ~ ! Q ! j.j.F Q W E ! ~ ( ( E E f g r q q q q q ",
"q q q q q q q H ` f h H 8 c 7 G ( W 8 ` c.N.N.g./ d.Q ] ] Q Q ! :X8XQ E Q M ~ ~ ` g.M j.j.B.Q j 8 7 f L J W G _ H 5 0 q q q r q ",
"q q q q q q q ~ Q 0 0 r O   E ( E ( F C.] ( g.N.Q.g.] / ] g.j.Q ! ! ~ Q M ! j.g.g./ M <.Q./ Q.( E .   . 3 4 @ ~ _ 9 q 0 q q q q ",
"q q q q q q q q 1 #   o   3 3 G H j E | | | ] ` ` / N.N.N.] j.d.( g.g.g.] ( ] ] N.N.C.Q ) ) ) W 6 4 o       . % + < 9 0 q q q q ",
"q q q q q q q q q %       . 4 Q H 4 J | | { { ( ` ` 3.N.B.] { ` ` Q.j.g./ ` ) ] N.N.{ G F { ` ( 7 4 @         . . O 2 q q q r q ",
"q q q q q q q q q 1 2 O   . 3 8 3 @ 8 7 4 E f ~ E ` Q.B.B.{ ) W ] j.{ { C.E ` ` Q.Q.W 5 @ F ` ] } 8 3   X       O 1 1 1 q q q q ",
"q q 9 q q q q q < .   .       .       O   . 4 ] Q O 8 7 7 8 D - N w F ` ) F @ f ] G , O   . . o . X   X           O 1 1 q q q u ",
"q q q q q 9 q # O   X .       .             3 ] Q . w 6 6 u Z : V & 8 7 W 7 . f | G                     X         O % 1 q q q q ",
"q q q q 9 q 9 % O < < + . .   X                 X   Z @.@.; N N B = = > N ; ; $ . . .                     . o O % O # q q q q q ",
"q 9 q 9 9 q q q 0 1 2 O . .           .         # * A B N > V V A : & : A C $ = $ .             .     .   O O < < 1 q q q r q q ",
"9 q q q q q q q q q <           .     X . X X X = A C : : B Z A @.> $ - $.#.; ; ; .   X                   .   < 1 1 q u q r q q ",
"q q q q q q q q 1 1 O   . . . . . . X .     . $ > S = = = C Z +.$.B = = V A S $ . X X X         . . .       . # < q r q u q q q ",
"q q q q q q q q 1 1 2   . . % < O . . . X   X . .     # # > V @.SXV : : - = $.>   X X       . O O + + .     . # 2 1 q r q r q q ",
"q q q q q q q 9 9 1 2 2 q q q 9 . O   X             .   . O # V SXN #   .   # #     X       . . O 1 r 1 q q q 1 q q q r q q q q ",
"q q q q q 1 q 9 q q 9 2 q q q 2 < % X X O   X             .   - $.-   . . . .       X   .   . # O < 1 r q q q q q q u r q q q q ",
"q q q q 9 q q 9 2 9 q 2 q q q q 1 1 < < 1 < < % O   . % O   . . # .   . . . . . X X O # 1 < % % % q q q q q q q q q q q q q q q ",
"q r q q q q 9 2 q q 9 9 q q q q 1 1 1 1 1 1 1 1 % X % 1 1 < <           # . < %   X 1 1 q q q r q q q r q q q q q q q q q q q q "
};
