/* XPM */
static char *_5422a90cac646e6b31213e08fdc81d97ErFysXTMSrcgP5t[] = {
/* columns rows colors chars-per-pixel */
"64 64 148 2 ",
"   c #FF000101",
".  c #FF0B0603",
"X  c #FF040A05",
"o  c #FF0A0C05",
"O  c #FF000D09",
"+  c #FF130B06",
"@  c #FF190D07",
"#  c #FF051107",
"$  c #FF091107",
"%  c #FF00130D",
"&  c #FF0B1409",
"*  c #FF0E1A0B",
"=  c #FF1B1007",
"-  c #FF1E120B",
";  c #FF101E0D",
":  c #FF001611",
">  c #FF001C13",
",  c #FF011F1A",
"<  c #FF22150C",
"1  c #FF28170B",
"2  c #FF2D1A0C",
"3  c #FF331C0E",
"4  c #FF271910",
"5  c #FF2F1E14",
"6  c #FF371C10",
"7  c #FF0B230E",
"8  c #FF13220E",
"9  c #FF002115",
"0  c #FF0D2211",
"q  c #FF0E2B11",
"w  c #FF002319",
"e  c #FF002C1D",
"r  c #FF152610",
"t  c #FF162911",
"y  c #FF192D14",
"u  c #FF00301F",
"i  c #FF0B371A",
"p  c #FF1C3316",
"a  c #FF1E3817",
"s  c #FF1E3718",
"d  c #FF143D19",
"f  c #FF1F3818",
"g  c #FF36200F",
"h  c #FF352216",
"j  c #FF3E2412",
"k  c #FF223D1A",
"l  c #FF012721",
"z  c #FF002B22",
"x  c #FF013622",
"c  c #FF013B26",
"v  c #FF02322A",
"b  c #FF023C2D",
"n  c #FF023D33",
"m  c #FF4D2A15",
"M  c #FF552E19",
"N  c #FF5C2F1A",
"B  c #FF5C301B",
"V  c #FF64341D",
"C  c #FF17481D",
"Z  c #FF18491E",
"A  c #FF25431D",
"S  c #FF28471F",
"D  c #FF27491F",
"F  c #FF28491F",
"G  c #FF01432B",
"H  c #FF01492F",
"J  c #FF1B5422",
"K  c #FF1E5C25",
"L  c #FF014235",
"P  c #FF014B32",
"I  c #FF034338",
"U  c #FF015235",
"Y  c #FF015738",
"T  c #FF015B3A",
"R  c #FF274720",
"E  c #FF284720",
"W  c #FF294921",
"Q  c #FF294920",
"!  c #FF284A20",
"~  c #FF294A20",
"^  c #FF294B20",
"/  c #FF294A21",
"(  c #FF294B21",
")  c #FF2A4A21",
"_  c #FF2A4B21",
"`  c #FF2B4B21",
"'  c #FF2A4B20",
"]  c #FF2A4B22",
"[  c #FF294C20",
"{  c #FF294C21",
"}  c #FF2A4C20",
"|  c #FF2A4C21",
" . c #FF2B4C21",
".. c #FF2A4D21",
"X. c #FF2B4D21",
"o. c #FF2A4C22",
"O. c #FF2B4C22",
"+. c #FF2B4D22",
"@. c #FF2A4D22",
"#. c #FF2B4E22",
"$. c #FF2B4E23",
"%. c #FF2C4D22",
"&. c #FF2C4E22",
"*. c #FF2C4E23",
"=. c #FF2C4F22",
"-. c #FF2A4B21",
";. c #FF01603E",
":. c #FF01633F",
">. c #FF01613F",
",. c #FF0D723F",
"<. c #FF1A733B",
"1. c #FF1A733B",
"2. c #FF1A793A",
"3. c #FF1A793A",
"4. c #FF226629",
"5. c #FF246E2D",
"6. c #FF22692A",
"7. c #FF25712E",
"8. c #FF26732F",
"9. c #FF26742F",
"0. c #FF26752F",
"q. c #FF257C37",
"w. c #FF297C32",
"e. c #FF297D33",
"r. c #FF2A7F33",
"t. c #FF2A7F34",
"y. c #FF624028",
"u. c #FF734C2F",
"i. c #FF016340",
"p. c #FF016742",
"a. c #FF016644",
"s. c #FF016943",
"d. c #FF016E41",
"f. c #FF016944",
"g. c #FF016A44",
"h. c #FF026B45",
"j. c #FF026B45",
"k. c #FF2A8134",
"l. c #FF2A8034",
"z. c #FF2B8235",
"x. c #FF2B8235",
"c. c #FF3A8932",
"v. c #FF32863A",
"b. c #FF499228",
"n. c #FF539B2C",
"m. c #FF469231",
"M. c #FF5BA027",
"N. c #FF5FA52C",
/* pixels */
"/ / / / { {  . .{  .$./ ( ( D / F  .F F /  .F p k D  .{  .( r t / /  . .$.$. .$. . . . . . . .( ( / R ( F / )  . . .{  .{  . .$.",
"/ F F /  .{ {  . .{  .( ( ( F / /  . ./  .A       o s f f o     $ y A  .$. . .*.*. . .$. .{  .( ( R R R / F /  . . . . . . . .$.",
"F / /  . .$.$. . .$.(  ./ (  . . ./ / / f X   X                       * A k f (  .$. . .{ /  . ./ D Q Q F / ) ) /  . . . .$. .o.",
"/ F / /  . .$. . . . .{  . .( { /  . .s     X Y T : % % # e T >.x %             8 y s /  .( ( ( / / / R / F  ./  ./ /  .(  ./ ( ",
"F ) F /  . .$. . ./ {  . .D  . ./ k *     % i.x.g.z.z.z.z.z.z.g.z.k.P # X O             r D F / / / / / F / / / /  ./ / ( ( ( ( ",
") F /  . . . . . . ./ { {  . .{ A       % e.x.x.N.z.z.z.z.z.z.z.z.z.z.z.z.z.L c e e O     o s / / F F / / F F / / / / / / ( / A ",
"F / / )  . . . .( /  . . . .{ { ;   # J e.x.N.x.N.N.N.N.N.z.z.N.z.z.z.z.z.z.k.z.z.z.z.C X     $ y A S F F ) S Q F / / F / F / / ",
"/ / /  . . . ./ /  ./ { { D A p     K x.x.x.N.N.N.N.N.N.N.N.N.N.N.N.z.z.z.z.z.z.z.z.z.z.T >       O k / Q / Q Q / / / S / / F / ",
"{  . . . .D { {  ./  ./  .y       O t.x.x.x.N.N.N.N.N.N.N.N.N.N.N.N.N.N.N.z.N.z.z.z.N.z.z.k.Y x X   t Q R ( R R F / / F ) / / ) ",
" .{  . .{ ( D {  .( k f A     O w 9.N.N.x.x.N.N.N.N.N.N.N.N.N.N.N.N.N.N.N.N.N.N.z.N.N.z.z.z.z.z.O   o r k A ( R / S F / / )  .) ",
"{  . . .( (  . ./ f           s.x.x.x.N.N.N.N.N.N.N.N.N.N.N.N.N.N.N.N.N.N.N.N.N.N.N.N.z.v.m.z.z.J         $ A R S / F / /  ./ / ",
" .$. . ./ / F $. .8         i z.x.x.N.N.N.N.N.N.N.N.N.N.N.N.N.N.N.N.N.N.N.N.N.N.N.N.N.N.N.N.z.z.x.T c %     8 ( / F / /  . . .F ",
" .$. .$. .$. .$. .;   Z g.T z.z.x.N.N.N.x.x.N.N.N.N.N.N.N.N.N.N.N.N.N.N.N.N.N.N.N.N.N.N.N.N.z.z.x.x.x.x.w   o A ( (  . ./  ./ / ",
"$.$.$. . .D $. .y X   Z z.z.z.z.x.N.N.x.x.x.N.N.N.N.N.N.N.N.N.N.N.N.N.N.N.N.N.N.N.z.z.N.N.z.z.z.x.x.x.x.4.    o y A / /  ./ / / ",
"$. . .D  .{  .y       8.z.z.z.z.x.x.N.N.N.N.N.N.N.N.N.N.N.N.N.N.N.N.N.N.N.N.N.N.N.N.N.z.N.N.z.z.N.N.N.x.z.J X     X S  . ./ / F ",
"{  .{  . .{  .*   * 5.z.z.N.z.z.x.x.N.N.N.x.M.c.N.N.N.N.N.N.N.N.N.N.N.N.N.N.N.N.N.N.N.N.N.N.N.N.x.x.x.x.z.z.K       F /  ./ F / ",
"( ( F  . . .A X   > x.x.N.N.x.x.x.N.N.N.N.c.N.N.N.N.N.N.N.N.N.N.N.N.N.N.N.N.N.N.N.N.N.N.N.N.N.N.x.x.x.x.x.x.q     p  ./ / / F / ",
"( (  ./  .A     # 0.x.x.x.x.x.x.x.N.N.N.x.x.N.N.N.N.N.N.N.N.N.N.N.N.N.N.N.N.N.N.x.N.x.N.N.N.x.x.x.x.x.x.x.x.d     %  ./  ./ / / ",
"D  ./  ./ y   X 0.x.x.x.x.x.x.x.x.N.N.N.x.x.N.N.N.N.N.N.x.x.N.N.N.N.N.N.N.N.N.N.N.x.x.x.N.N.x.x.x.x.x.x.x.x.x.Z      . ./ /  . .",
"/ /  ./ / 8   0 x.x.x.x.x.x.x.x.x.N.N.b.x.x.N.N.N.N.N.N.x.n.N.N.N.N.N.N.N.N.x.x.N.N.x.x.N.N.N.x.N.N.x.x.x.x.k.*   ;  . . . ./ / ",
" . .) ) / p     z x.x.x.x.x.x.x.n.x.x.x.c.N.N.N.x.x.x.v.N.N.N.N.N.N.N.N.x.N.c.x.b.N.N.N.N.N.N.N.x.N.N.x.x.x.b     A F / /  ./  .",
" .F  .) / A X   : x.x.x.x.x.x.N.N.x.x.x.x.N.N.x.x.x.x.N.N.N.N.N.N.N.N.N.x.x.N.x.x.N.N.N.N.N.N.N.x.x.N.c.x.x.L O   ;  ./  ./ / F ",
" ./ ) / / :     J x.x.x.x.h.N.N.x.x.x.x.x.x.N.N.N.N.N.N.x.N.N.N.N.N.N.N.N.N.N.N.N.N.N.N.N.N.x.x.x.x.x.x.x.x.x.*     p D  .F / F ",
"/  ./ / F X   w x.h.x.x.h.h.h.x.x.x.x.x.x.x.N.N.N.N.N.N.x.M.N.N.N.N.N.N.N.N.N.N.N.N.N.N.N.N.x.x.x.x.x.x.x.x.x.9.      s  ./ / / ",
"/ / / / Q 8   q g.g.x.x.x.x.x.x.g.h.x.x.M.N.x.x.N.N.N.N.x.N.N.N.N.x.N.N.N.N.N.x.N.N.N.N.x.x.x.x.N.N.x.x.x.x.x.x.e.7   X F / F S ",
"/ / / / Q p   X g.g.x.x.x.x.N.N.g.x.x.x.N.N.x.x.N.N.N.N.N.N.N.N.x.x.c.N.N.N.x.x.x.N.N.N.x.N.x.x.N.N.x.x.x.x.x.x.z.6.    k S F / ",
"F / F / S r   O h.h.x.x.x.N.N.h.h.x.x.N.N.N.c.x.x.M.x.x.N.N.N.N.x.x.x.c.N.N.x.x.x.x.N.N.x.x.N.N.x.x.c.x.x.h.h.x.L O   O A  ./ / ",
") F / F A X   G h.x.x.x.x.N.M.h.h.h.c.N.N.N.N.x.x.x.x.x.N.N.N.N.x.M.x.v.N.N.x.x.x.x.x.x.x.x.N.N.x.x.x.x.x.x.h.h.:.    k  . ./ S ",
"Q Q F F ;   O g.h.x.x.x.x.h.h.h.h.x.N.N.N.N.N.x.x.x.N.x.x.N.N.N.N.x.N.x.x.x.x.x.x.x.x.x.x.x.x.N.n.x.x.x.x.x.x.x.s.O   f  . . ./ ",
"/ ) / k     P h.h.x.x.x.h.h.h.h.h.h.h.h.N.N.x.x.x.n.N.x.x.x.N.N.x.x.x.x.x.x.x.x.x.x.x.x.x.x.x.x.h.h.x.x.x.x.x.x.g.>   8  . ./ / ",
") )  .y   % g.g.h.h.x.x.h.h.h.h.h.h.h.h.x.x.x.x.c.N.N.N.x.x.x.x.x.x.x.x.x.N.x.x.N.N.N.N.N.N.x.x.q.h.h.h.x.x.x.x.x.H     A {  . .",
"/ ) ) ;   e g.g.h.h.x.x.x.d.h.h.h.h.h.h.h.h.x.x.N.N.N.N.x.x.N.x.x.x.x.x.N.N.x.x.N.N.N.N.N.N.N.x.x.3.h.h.x.x.x.x.h.g.%   X A  ./ ",
" ./ s     b h.h.x.x.x.x.x.h.h.h.d.h.h.h.h.x.h.h.x.N.x.x.x.N.N.x.x.x.x.x.x.N.N.x.N.N.N.N.N.x.x.x.x.x.h.x.x.x.x.x.x.x.T X   O A ] ",
" .k     9 g.h.h.x.x.x.x.x.h.h.x.h.h.h.h.h.x.x.x.x.x.x.x.x.m.N.x.x.x.x.x.x.x.x.x.x.N.N.N.N.b.x.x.x.x.h.h.x.x.x.x.x.x.g.Y X   ; / ",
" .*   # >.h.h.z.x.x.x.x.x.x.x.x.v.h.h.h.h.x.x.x.x.x.x.x.x.x.x.x.x.x.x.x.x.x.h.x.x.x.N.x.c.N.x.x.h.x.h.h.x.x.x.x.h.h.h.T X   o  .",
" .$   c h.h.h.3.x.x.x.x.h.h.x.x.x.h.x.h.x.x.x.x.x.x.x.x.x.x.x.x.x.x.h.x.x.x.h.h.x.x.x.x.x.x.x.x.h.h.x.h.x.x.x.x.h.h.h.:     s ( ",
" .r   : h.h.h.h.h.x.d.h.h.x.x.x.x.x.x.x.h.x.x.x.x.x.x.x.x.x.x.N.N.x.h.h.x.x.h.h.x.x.x.x.x.x.x.h.h.h.h.x.x.x.x.x.x.g.s.>   X A  .",
" .A     >.d.h.h.x.x.h.h.x.x.x.x.x.x.x.h.h.h.x.x.x.x.x.x.h.x.x.N.M.x.h.h.x.x.h.h.x.x.x.x.x.x.x.h.h.h.1.h.x.x.x.x.x.x.d.Y     r / ",
"F F X   O >.h.h.h.h.x.x.x.x.3.h.x.x.h.h.h.h.h.h.x.x.x.h.h.x.x.N.h.h.x.x.x.h.h.h.x.x.x.x.x.x.x.h.h.h.x.h.h.x.x.x.g.d.h.L X   r D ",
" ./ y     w h.h.h.h.h.h.x.x.h.h.x.h.h.h.h.h.h.h.x.x.x.h.h.t.3.x.h.h.x.x.x.h.h.x.x.x.3.x.x.x.x.h.x.h.x.x.h.h.x.x.h.h.g.l     A D ",
"F F k $   X g.g.h.h.h.h.x.x.x.x.x.h.h.h.x.x.h.h.h.h.x.h.x.h.h.x.h.h.h.h.x.x.x.x.x.x.h.q.x.h.x.h.x.x.x.x.x.h.x.x.v.h.h.x   & S F ",
"/ F k t     G I I I h.h.3.x.h.x.x.h.h.x.x.h.h.h.h.h.x.x.x.h.x.x.h.h.d.h.h.x.x.x.h.x.h.h.x.h.h.h.h.h.x.x.x.x.h.h.h.h.s.>   * A  .",
" .F k p o     $ I I h.h.h.h.x.x.x.h.h.h.h.h.h.h.h.h.x.x.x.x.x.x.x.x.x.x.h.x.x.x.h.h.h.h.x.h.h.h.h.h.x.x.x.x.h.h.h.h.Y     t A F ",
"/ F A s t o     > I h.h.h.h.x.x.x.h.h.h.h.h.h.h.h.x.x.x.x.x.x.x.x.x.x.x.x.x.x.x.x.h.h.h.h.h.h.h.h.h.x.x.x.x.h.s.T > X   X s A F ",
"/  ./ k p t &     P h.h.I h.h.h.h.h.h.h.h.h.h.h.h.x.x.x.x.x.x.x.x.x.x.x.x.x.h.x.x.x.h.h.h.h.h.h.h.h.x.x.h.h.h.z       X t s A / ",
" ./ / D k p y o   e h.I I h.h.I h.h.h.h.h.h.h.h.g.1.x.h.x.x.x.x.x.x.h.h.h.h.h.h.x.x.h.h.h.h.h.h.h.h.3.x.h.h.g.O   X & 8 y k S F ",
"/  . ./ A k y *   : g.l e , n I h.h.h.i.v n h.h.I I h.h.h.h.h.h.x.x.h.h.h.h.h.h.h.h.h.h.h.;.h.h.h.I I h.g.g.P     ; t y s A / F ",
" . . ./  .A s 7     O       O n h.U 9       e h.I I a.h.h.h.h.g.h.h.h.h.h.h.h.h.h.h.h.h.h.P h.h.h.I I h.s.e     O r t s k S ) / ",
" . . ./ / / A p X       X     O X             % n P x >.h.h.h.d.v : O + b I I g.g.I g.g.I I I I h.s.s.b %     o 8 p s k A F  ./ ",
"/  ./  . .F F A s ; & * ; $         X $ & &     :     O G s.T >           , I I I I v l l z b I I v O       X r p s k k A F  . .",
" ./  ./ /  .F S k k t r 8 8 * & & & ; ; ; ; &             O       + - .     O > :             > v       X & r y f k A A F /  . .",
"/  ./  . ./ F / S A k y y r 8 8 8 8 ; ; * * & X       o       o 4 h V V w             % : O           ; 8 r p k k k A A F /  . .",
"/  ./  ./ /  .F / A k k p t t t r t r r 8 ; * & o     1 3 2 M g j V u.u.u.j +     o & & & * o     X ; 8 t p k k k A A D / /  . .",
"/ / / / /  ./  .F  .F S A k k f p k p y r ; ; &     + j g m V g j V u.u.u.j m             X * & & ; 8 8 y k k k k A A D  . ./  .",
"/ / / F / / F / F  ./ / Q A k k k k k p r ; & o     3 h j m V m j B u.u.u.V j 3 @   .         * ; 8 y k k k k k A A /  ./ (  . .",
"/ / D / F / / /  . ./ / / / S A A k k y 8 $ X     < j m j V V j j V u.u.u.V V j j m N V 1     * y s k k k k k A A D D F (  ./  .",
"F / F / / /  . . . ./ / / / ( S S S k y         @ j h h m 3 + < j V u.u.j j V V m 4   .       8 k k k C f A A A / F  .$. ./ /  .",
"/ F / / / /  .F  . .( (  ./  .F F F S r       < j j 6 j < .     h V u.u.u.j V V V @         & k A k k A A A D /  . . .$. .$. . .",
"/ /  ./ / /  ./ { { { ( / / / / / / S k X       5 h g +         3 V u.u.h m j V V 3     p A A D S A A D D  .{  . .$. .*. .$. . .",
") )  ./  .) ) ) { D ( D  . ./ / / / S A k 8 X   + 4       X     M V y.j . . o + 2 N +   . A  .F / F  . .D  .D (  .$.$.*.$. .$.o.",
" . ./  .)  ./ ) / F / F / / F ) / F / S A k ;           8 X   + V 3               . < .   r (  ./  . . . . . .( o. . .$. .$.(  .",
" . . ./ ) F / F F / F F / /  ./ / F / F A S k 8   X & y 8     @ 6     X * 8 8 &           $ /  . . . . .D / /  .(  .$. .{ {  .( ",
" ./ /  .) / / S / S F / / F  ./ F  ./ F / D D D A k k s p &         & p s f f k k 8 X     p / $. . . . ./  ./ ( /  ./  .( ( ( / ",
" . . ./ / S / / F / ) F / /  .) / / / / D / / F F F D A A A 8 X X ; A A A F D S A R / A R  .$. .$. . . . ./ / $. ./ / / (  . ./ "
};
