/* XPM */
static char * forest_flower_d_xpm[] = {
"64 64 176 2",
"  	c #FFFFFF",
". 	c #FEFEFE",
"+ 	c #FAFAFA",
"@ 	c #F4F4F4",
"# 	c #F3F3F3",
"$ 	c #F1F1F1",
"% 	c #EDEDED",
"& 	c #EBECEB",
"* 	c #FCFCFC",
"= 	c #F2F2F2",
"- 	c #ECECEC",
"; 	c #F0F0F0",
"> 	c #F5F5F5",
", 	c #E1E1E1",
"' 	c #BCBDBC",
") 	c #939493",
"! 	c #898A89",
"~ 	c #7F807F",
"{ 	c #585B58",
"] 	c #545754",
"^ 	c #595B59",
"/ 	c #8D8E8D",
"( 	c #D3D4D3",
"_ 	c #F8F8F8",
": 	c #FBFBFB",
"< 	c #E7E8E7",
"[ 	c #BBBCBB",
"} 	c #838583",
"| 	c #656765",
"1 	c #7B7C7B",
"2 	c #888988",
"3 	c #8A8C8A",
"4 	c #989998",
"5 	c #D2D3D2",
"6 	c #F7F7F7",
"7 	c #8C8D8C",
"8 	c #505350",
"9 	c #3B403B",
"0 	c #4B4E4B",
"a 	c #BDBEBD",
"b 	c #CECFCE",
"c 	c #777977",
"d 	c #B1B1B1",
"e 	c #A5A6A5",
"f 	c #A5A7A5",
"g 	c #404440",
"h 	c #B6B7B6",
"i 	c #F6F6F6",
"j 	c #F9F9F9",
"k 	c #B6B6B6",
"l 	c #3C403C",
"m 	c #3E423E",
"n 	c #BDBDBD",
"o 	c #E2E2E2",
"p 	c #434743",
"q 	c #DEDEDE",
"r 	c #CACACA",
"s 	c #999B99",
"t 	c #CCCDCC",
"u 	c #565956",
"v 	c #EBEBEB",
"w 	c #E8E8E8",
"x 	c #757775",
"y 	c #474A47",
"z 	c #DADADA",
"A 	c #EEEEEE",
"B 	c #BABBBA",
"C 	c #767876",
"D 	c #7B7D7B",
"E 	c #6B6D6B",
"F 	c #A8A9A8",
"G 	c #E5E5E5",
"H 	c #3D413D",
"I 	c #DBDBDB",
"J 	c #CDCDCD",
"K 	c #484B48",
"L 	c #828482",
"M 	c #BABABA",
"N 	c #4E514E",
"O 	c #555855",
"P 	c #848684",
"Q 	c #949694",
"R 	c #7E807E",
"S 	c #515451",
"T 	c #B8B8B8",
"U 	c #D3D3D3",
"V 	c #848584",
"W 	c #4F524F",
"X 	c #8A8B8A",
"Y 	c #D9D9D9",
"Z 	c #686A68",
"` 	c #414541",
" .	c #595C59",
"..	c #E2E3E2",
"+.	c #6E706E",
"@.	c #B0B1B0",
"#.	c #4A4E4A",
"$.	c #AAABAA",
"%.	c #DCDCDC",
"&.	c #5A5C5A",
"*.	c #878887",
"=.	c #CFCFCF",
"-.	c #696B69",
";.	c #E6E6E6",
">.	c #979897",
",.	c #707370",
"'.	c #B9BAB9",
").	c #D1D2D1",
"!.	c #ACADAC",
"~.	c #616361",
"{.	c #C7C8C7",
"].	c #7C7E7C",
"^.	c #5B5E5B",
"/.	c #B7B8B7",
"(.	c #AFB0AF",
"_.	c #7F817F",
":.	c #C4C5C4",
"<.	c #999A99",
"[.	c #C3C3C3",
"}.	c #4A4D4A",
"|.	c #646664",
"1.	c #6C6E6C",
"2.	c #4B4F4B",
"3.	c #D5D5D5",
"4.	c #C9CAC9",
"5.	c #757675",
"6.	c #555755",
"7.	c #4C4F4C",
"8.	c #CACBCA",
"9.	c #444744",
"0.	c #424642",
"a.	c #767776",
"b.	c #D4D4D4",
"c.	c #525452",
"d.	c #CDCECD",
"e.	c #DDDDDD",
"f.	c #8B8C8B",
"g.	c #D2D2D2",
"h.	c #EFEFEF",
"i.	c #CFD0CF",
"j.	c #5F615F",
"k.	c #CCCCCC",
"l.	c #AAAAAA",
"m.	c #797B79",
"n.	c #C9C9C9",
"o.	c #E9E9E9",
"p.	c #DDDEDD",
"q.	c #E7E7E7",
"r.	c #EAEBEA",
"s.	c #8B8D8B",
"t.	c #E3E3E3",
"u.	c #D6D7D6",
"v.	c #5D605D",
"w.	c #424542",
"x.	c #B2B3B2",
"y.	c #F5F6F5",
"z.	c #717371",
"A.	c #7D7F7D",
"B.	c #525552",
"C.	c #9B9C9B",
"D.	c #6A6C6A",
"E.	c #6D6F6D",
"F.	c #EAEAEA",
"G.	c #3F433F",
"H.	c #DFDFDF",
"I.	c #818381",
"J.	c #727472",
"K.	c #DFE0DF",
"L.	c #CBCBCB",
"M.	c #E9EAE9",
"N.	c #D5D6D5",
"O.	c #FDFDFD",
"P.	c #494C49",
"Q.	c #A6A6A6",
"R.	c #636563",
"S.	c #9E9F9E",
"                                                                                                                                ",
"                                                                                                                                ",
"                                                                                                                                ",
"                                                                                                                                ",
"                                                                                                                                ",
"                                                                                                                                ",
"                                                                                                                                ",
"                                                                                                                                ",
"                                                                                                                                ",
"                                                                                                                                ",
"                                                                                                                                ",
"                                  . + @ # $ % & % @ *         . + = - ; # # > *                                                 ",
"                              * # , ' ) ! ~ { ] ^ / ( _     : < [ } | 1 2 3 4 5 6                                               ",
"                            _ ( 7 8 9 9 9 9 9 9 9 9 0 a > 6 b c 9 9 9 9 9 9 9 9 d >                                             ",
"                          > a 0 9 9 9 9 9 9 9 9 9 9 9 9 e f g 9 9 9 9 9 9 9 9 9 9 h i                                           ",
"                        j k 9 9 9 9 9 9 9 9 9 9 9 9 9 9 9 9 9 9 9 l 9 9 9 9 9 9 9 m n +                                         ",
"                      . o 9 9 9 9 9 9 9 9 9 9 9 9 9 9 9 9 9 9 9 9 9 9 9 9 9 9 9 9 9 p q .                                       ",
"                      : r 9 9 9 9 9 9 9 9 9 9 9 9 9 9 9 9 9 9 9 9 9 9 9 9 9 9 9 9 9 9 s 6                                       ",
"                      : t 9 9 9 9 9 9 9 9 9 9 9 9 9 9 9 9 9 9 9 9 9 9 9 9 9 9 9 9 9 9 u v                                       ",
"                      . w x 9 9 9 9 9 9 9 9 9 9 9 9 9 9 9 9 9 9 9 9 9 9 9 9 9 9 9 9 9 y z ; A 6 .                               ",
"                        j B 9 9 l 9 9 9 9 9 9 9 9 9 9 9 9 9 9 9 9 9 9 9 9 9 9 9 9 9 9 9 C D E F G :                             ",
"                        . < x 9 9 H 9 9 9 9 9 9 9 9 9 9 9 9 9 9 9 9 9 9 9 9 9 9 9 9 9 9 9 9 9 9 C I *                           ",
"                          : J K 9 9 l 9 9 9 9 9 9 9 9 9 9 9 9 9 9 9 9 9 9 9 9 9 9 9 9 9 9 9 9 9 9 L ;                           ",
"                            6 M N 9 9 9 9 9 l 9 9 9 9 9 O P Q R S 9 9 9 9 9 9 9 9 9 9 9 9 9 9 l 9 9 T j                         ",
"                            6 U V 9 9 9 9 9 9 9 9 9 W X Y     * t Z 9 9 9 9 9 9 9 9 9 9 9 9 9 9 9 9 9 , .                       ",
"                          # F ` 9 9 9 9 9 9 9 9 9  .T j           ..+.9 9 9 9 9 9 9 9 9 9 9 9 9 9 9 9 B +                       ",
"                        6 @.H 9 9 9 9 9 9 9 9 9 #.$.*               %.&.9 9 9 9 9 9 9 9 9 9 9 9 9 9 9 *.=                       ",
"                      * =.y 9 9 l 9 9 9 9 9 9 9 -.;.                . >.9 9 9 9 9 9 9 9 9 9 9 9 9 9 9 W , .                     ",
"                      $ *.9 9 l 9 9 9 9 9 9 9 9 ,.i                   '.9 9 9 9 9 9 9 9 9 9 9 9 9 9 9 9 ' +                     ",
"                    * ).K 9 9 9 9 9 9 9 9 9 9 9 S [                   !.9 9 9 9 9 9 9 9 9 9 9 9 9 9 9 9 ) @                     ",
"                    # 7 9 9 9 9 9 9 9 9 9 9 9 9 9 ~.{..             6 ].9 9 9 9 9 9 9 9 9 9 9 9 9 9 9 9 X #                     ",
"                  . ..8 9 9 9 9 9 9 9 9 9 9 9 9 9 9 ^./.j         * (.#.9 9 9 9 9 9 9 9 9 9 9 9 9 9 9 9 3 #                     ",
"                  : r 9 9 H 9 9 9 9 9 9 9 9 9 9 9 9 l #._.:.% $ G e O 9 9 9 9 9 9 9 9 9 9 9 9 9 9 9 9 9 <.>                     ",
"                  + [.9 9 9 9 9 9 9 9 9 9 9 9 9 9 9 9 9 9 }.|.1.|.}.9 9 9 9 9 9 9 9 9 9 9 9 9 9 9 9 9 2.3.*                     ",
"                  : 4.9 9 9 9 9 9 9 9 9 9 9 9 9 9 9 9 9 l 9 9 9 9 9 9 9 9 9 9 9 9 9 9 9 9 9 9 9 9 9 H n _                       ",
"                  . q 9 9 9 9 9 9 9 9 9 9 9 9 9 9 9 9 9 9 9 9 9 9 9 9 9 9 9 9 9 9 9 9 9 9 9 l l 9 9 5.%                         ",
"                    v 6.9 9 9 9 9 9 9 9 9 9 9 9 9 9 9 9 9 9 9 9 9 9 9 9 9 9 9 9 9 9 9 9 9 9 9 9 9 7.8.:                         ",
"                    @ ! 9 9 9 9 9 9 9 9 9 9 9 9 9 9 9 9 9 9 9 9 9 9 9 9 9 9 9 9 m }.9.9 9 9 9 0.a.8._                           ",
"                    * b.c.9 9 9 9 9 9 9 9 9 9 9 0.8 9 9 9 9 9 9 9 9 9 9 9 9 9 9 }.d.e.' ) f.<.g.h.:                             ",
"                      + i.j.9 9 9 9 9 9 9 9 K 3 k.l.9 9 9 9 9 9 9 9 9 9 9 9 9 9 9 r + + @ # > *                                 ",
"                        + 3.m.9 9 9 9 S ^ / ).$ _ n.9 9 l 9 9 9 9 9 9 9 9 9 9 9 9 [.+                                           ",
"                          : o.t r p.q.r.% @ *   . ..8 9 9 9 9 9 9 9 9 9 9 9 9 9 9 4.:                                           ",
"                            . : : .               # s.9 9 l 9 9 9 9 9 9 9 9 9 9 ^.t..                                           ",
"                                                  * =.9 9 9 9 9 9 9 9 9 9 9 9 g '.j                                             ",
"                                                    ; V 9 9 9 9 9 9 9 9 9 9 m T >                                               ",
"                                                    * u.v.9 9 9 9 l 9 9 9 w.M i                                                 ",
"                                                      + :.9 9 9 9 9 9 9 ` x.y.                                                  ",
"                                                        ;.9 9 9 9 9 9 z.[.i                                                     ",
"                                                        r.S 9 9 A.M p.h.:                                                       ",
"                                                        r.B.9 9 C.$ .                                                           ",
"                                                        v j.9 9 D.A                                                             ",
"                                                        = L 9 9 E.F.                                                            ",
"                                                        + '.9 9 G.B +                                                           ",
"                                                        . H.6.9 9 +.h.                                                          ",
"                                                          $ I.9 9 J.A                                                           ",
"                                                          + B 9 9 8 ...                                                         ",
"                                                          . K.7.9 9 L.:                                                         ",
"                                                            M.S 9 9 4.:                                                         ",
"                                                            w 9 9 9 N.O.                                                        ",
"                                                          . %.P.9 9 g.*                                                         ",
"                                                          6 Q.9 9 7., .                                                         ",
"                                                          v R.9 9 R.v                                                           ",
"                                                        O.%.#.9 9 Q.6                                                           ",
"                                                      . $ S.9 9 N H..                                                           "};
