/* XPM */
static char *result[] = {
/* columns rows colors chars-per-pixel */
"64 64 113 2 ",
"   c #FF294A21",
".  c #FF2A4B21",
"X  c #FF2A4C21",
"o  c #FF2B4D22",
"O  c #FF2B4C22",
"+  c #FF2C4E23",
"@  c #FF284A20",
"#  c #FF2C4D23",
"$  c #FF28491F",
"%  c #FF294B20",
"&  c #FF2A4D21",
"*  c #FF2B4E22",
"=  c #FF294B21",
"-  c #FF2A4C22",
";  c #FF2B4C21",
":  c #FF2B4D23",
">  c #FF294A20",
",  c #FF294920",
"<  c #FF2B4E23",
"1  c #FF2A4B22",
"2  c #FF2B4D21",
"3  c #FF294C20",
"4  c #FF2C4D22",
"5  c #FF2B4F22",
"6  c #FF2D5023",
"7  c #FF2C4E22",
"8  c #FF284A1F",
"9  c #FF2C4F23",
"0  c #FF2A4A21",
"q  c #FF2A4D22",
"w  c #FF284920",
"e  c #FF294921",
"r  c #FF284720",
"t  c #FF28471F",
"y  c #FF26401F",
"u  c #FF25401E",
"i  c #FF284820",
"p  c #FF27451F",
"a  c #FF27431F",
"s  c #FF274120",
"d  c #FF294821",
"f  c #FF2D4E24",
"g  c #FF26401E",
"h  c #FF284620",
"j  c #FF26431E",
"k  c #FF2A4B20",
"l  c #FF2C4F22",
"z  c #FF2D4E23",
"x  c #FF2B4B21",
"c  c #FF27441F",
"v  c #FF305426",
"b  c #FF25411E",
"n  c #FF27471F",
"m  c #FF253D1E",
"M  c #FF305526",
"N  c #FF26421F",
"B  c #FF27481F",
"V  c #FF26411F",
"C  c #FF284520",
"Z  c #FF2E5225",
"A  c #FF284420",
"S  c #FF27421F",
"D  c #FF2D4F24",
"F  c #FF26431F",
"G  c #FF253F1F",
"H  c #FF274620",
"J  c #FF2F5426",
"K  c #FF2D5124",
"L  c #FF294621",
"P  c #FF2A4921",
"I  c #FF274320",
"U  c #FF28451F",
"Y  c #FF263F1F",
"T  c #FF2F5325",
"R  c #FF284621",
"E  c #FF2D5024",
"W  c #FF274520",
"Q  c #FF284B20",
"!  c #FF2D4F23",
"~  c #FF274420",
"^  c #FF294C21",
"/  c #FF2E5325",
"(  c #FF2A4A22",
")  c #FF2C4E24",
"_  c #FF2E5224",
"`  c #FF2F5425",
"'  c #FF2A4C20",
"]  c #FF2A4A20",
"[  c #FF253E1E",
"{  c #FF2B4E21",
"}  c #FF253E1F",
"|  c #FF28441F",
" . c #FF294820",
".. c #FF294720",
"X. c #FF294721",
"o. c #FF2E5124",
"O. c #FF25401F",
"+. c #FF26411E",
"@. c #FF294620",
"#. c #FF27461F",
"$. c #FF253F1E",
"%. c #FF27491F",
"&. c #FF28481F",
"*. c #FF26441F",
"=. c #FF2E5024",
"-. c #FF2F5225",
";. c #FF2B4A22",
":. c #FF2B4B22",
">. c #FF274220",
",. c #FF28461F",
"<. c #FF2A4920",
"1. c #FF2C5023",
"2. c #FF305127",
/* pixels */
"    . X . X X X o O + o X @ o o # $ X X X X X X o O O O X O X o o o X % X o & * o * & # o o o X X = X @ X o o % - X . o ; - o : ",
"> , > = O o . X O X O O o X X X o % + X + X . o X o X O O + % o % X o X X X o * o o o o X X # X X X X X X + X & ; X o o : < * O ",
"> > 1 = + X X X O O O X X . X X o X X o X X o X X X X = X & 2 3 2 & X X X = X o * o 2 o X O . X X X X X % X % % & & ; o o + o o ",
"O . = . % X X o O % O O O o X X X X X % X X X o X X X % o 2 & * * * o o = = X - o o 2 o X X . > O % % X @ X % X . X X X ; X o 4 ",
". O . . # X X X X X O O O O O X X o X X 2 % 2 X % . X % & * * 5 6 7 X X . > . = O o o O . .     . X X o o % X X X . . O . X X X ",
"8 O O X X X X . . X . X O O O O # . X o O - o . - . . O ; * * 9 9 * - X % 0 . . . o o - X   > . O O X X X . . X # o X X o % . . ",
"X . X O . > X O . X X O o O O O X X X o o o X 1 . > 0 . X o < 2 o o = O . . . X X ; ; o % > , > . . > O . . . . O X O X X . . . ",
"X ; q X . . . O X o X o o O O % . X . ; - . 0     > > = . O + O . . . =   . . . X . o O 1 O   . . . . > ,   w . . . X X o X . X ",
"o o - . . > > . X . o o X X X + % & X - X .     e , > 0 . O X .     1     O . X . X o X q O . . . > . . , , e , . . = X X o X o ",
"X X o . = = > . . . . O X X X X X o o 4 .   0     > 0 0 . . . . r t , = . . X X . . X X # O . . . . = , , , , e   . O X X X X X ",
"2 o o ; . > > . X X . X X X X . X > X X . . . 0 . >   . . . . > y u w . . O X O . X X . X X . . . 0   , , i i , w > . X o o X $ ",
"7 7 q 2 X . . - o ; X X X O O O X % . - > . = =   = .   . . X p a s d . X X X . O X X X o X . . X . e , i i i i , 1 > = X > X X ",
"9 + o 7 q o o o o o ; X o . . . . O - =     f 1 . > = . >   @ g o h j X X . % O O O O O X X X . . 0 e , i i e , , w k = o X O . ",
"l * * o 2 2 z 7 + o o X . x = . . > > 0 > > . . > .     , 0 a c v O b X X X o O . % O O X 8 . . .   , w e w , e , . - . . X . > ",
"& o 9 & + * 7 9 * 2 o . . . =   . . . 0 > $ > - - > O , 0 n m = M 5 N & 3 . X h y y O O X & . . .   , w e , w 0 > = = X . . . . ",
"* & X . = X & o * X X X . .   . . . =       > p > .     B V C Z M 6 A = o o , V Z S 0 X . & X o O 0 w , , w   . . . X X . . X . ",
"O o . X X . X D * o o O X - 1 k . - . . 0 0 F G c : . . H g 7 J M K L P * & I e M U d X X 2 o o = = , ,   > . . . X O X % . X . ",
"O O X . % X X X O # X X O - X . - . O . O , Y h a ; o 1 r t v M T K R P E 9 . K v W h O & 2 * + - X = > . . Q X o X X X O X X X ",
"O X X o . O = . . . > X o o X 3 O o X X O S p ! ~ ^ o 7 X 0 4 9 / T ( ) l o o ; ! X O O & * o 3 4 o X % X & & X o o X X . % O . ",
"X . X X . . = . w     . X O X * 9 * X X i Y _ ` ~ * 7 o X . . . X 7 l E l o o O O X X o * & 3 % ' o & * 2 2 2 & + X X O O O . . ",
"X X . . . .   > , 0 ,   % O & * l * 2 X y ( M J a * o ; X ] - % O & * & & [ I . X O O o . & o % X f & 2 * * & 2 X X O X X O O . ",
"O . . .     e , w , ,     > o { 9 * X a I _ M _ S 0 c V V A . = X & & 2 % } a | O O o o o X % X $ r r P ' 9 * 7 X o O O O O o . ",
"o . . =   ,  .w i , , ,   - 4 7 7 o ..y o M M E S Y X.Z 6 N . . % @ % & X V o.I P O o o o 3 t ~ O.N N y , * * o o O O O + O O . ",
". . .   > , w i , e w w   . X & X % S , ` M M # a 9 o.M _ a X X % % o * e a T r A 4 o X w N N ( o.M o y   o & & O O + O O O O + ",
". . = 0 0 w e , , ,     . . % X % F c Z M M M O U E M M r c > o X 8 % O X.h ` T y o o p g w E J M M e +.X = o X O X o O % X O + ",
"0 0   e , , 0     . . . . O X X h S K M v M M d @._ M T N r . X B [ #.7 W E M T 6 X a N & Z M M v O $.p   = O . O X . O O O O o ",
". 0 .   > > w . . : % X % X X $ N 6 M ` T v M S ! M M O $.%.. . ..p a % l ! / * * c S 3 / v M v E p g &.0 . . X X O o O O O O o ",
". > 0     0 . : X % X X X o . c h K K K Z M T y M M T *.N e > O h v =.I o + 7 2 * i o 6 ` o.J _ > $.r   . . X . . O O O O X + X ",
". . 0 .   . . O X = O X o X & 0 . * o 9 9 ! 2 > o M -.u *.i   . ~ D M G X O ; O 4 K _ ` o.M T E ~ a w   . = . X . O O X O X O X ",
". . X . = : . . > - . X O o o * * 9 * * * & & X . X X O.n e 0 . I # M ;.X.O X X X . X v _ T T 0 N &.>     . . X . . O O X X o % ",
"X X X X . = . - . . . . O X & & * E * o ' X X X . . . > > ,   O N -.M v H     . . 0 . O T T T a a >   :., >   . X . O X % X O X ",
"X . X X X X O w   > = . . X & X 7 * * o o X . X . . 0 >     > X I T v J W e e > = e > . . . E >.W , w e ,   . . & X X O O O X D ",
"X . . . o = -   w >   . . O X + o o X o O O . O . X = > , (      .* T T ,., &.p y [ > . . 0 e &.&.w , e ,   w % * * o o O o X X ",
"X O X X % X > 0 > > , = . X X X # O O X O O i N . .   0 , e ,   O . o.< , ,.b C D V . X . .   > , , i , 0   . ; 9 * * o o O . X ",
"O O X X o X X . . 0 = . . & & X O O O O O O a V V , ,   , , ,     . . = r [ i M -.p . X . .   . >   > > 1 . . 2 ! * & 7 o O O X ",
"X % . . # . .   - . . X o o 2 X . O X O O O F Z O I , &., ,     0 1 $  .V <.M M X.> . . . . O > . . O . % O o 2 & 9 3 o ' X % X ",
"O O X X X . 0 > . . . O o 2 o X . . O O O X p # Z a C   , , &.,   O > $.. M M o.h o X 8 X X O : O X X X X X o % 2 7 E * X X o o ",
"O X + X @ .   , , = . o o o 4 & X . X O o o P N T o.y . . = >   = . c X.v M T ~ . o . X o . % X X . X X X X 3 3 3 * + D o o o o ",
"O X % % X .   > , > . . X X O = X o X o X 2 % N ` M e a X X X ; O <.y v v ` :.c X O O o X o X X X . & X 9 * & o o o o + + X o o ",
"o X + X % @ >   w > @ > 0 0 = . % X X X & o 2 a T M _ y % X 7 o 2 X , 6 1.T F d O o O % o X O O > O o * * E O ' + o D o o o X o ",
"X o . X X . .   0 ,   e , ,   . . X X o D * * ~ T M v p ..X o 7 7 * 7 & Z 6 V P % O X + O o O % O o o * l * * o + o o + o o o % ",
"X O X = o X . . , &.e , i , w   . X X o O X ; h o.T M Z a o 2 7 + l 9 o o X O O O X X % + + O O o X o * * 6 o o o o o O X o o % ",
"o O X X X X X > , e i i i , w   > % X . > > O i V -.M Z V X X o + 9 l * & X O O O O O X o X o o O o o 7 o o o + O O o X O X X + ",
"O o D X X + X - . w , e i i w . . o O .     , w I ` 9 . X.% o o 9 7 * 9 X X O X O O o o ; * o O o X o o o o o X O + O X O O X X ",
"O O X o > X % : . i e , i ,   w . o # >   , w   > . X . . . X o o o o 2 X X X X O # o 9 * l * 7 X + O o O O O O X O % O O o o X ",
"o X O O o X % X .   , , , , > . X X . . 0 , >   O > X . O X X q : X ; X X . . . X X & * * & * & & X . X O O O O O O O X O O X X ",
"O X O O X = X + % >         > O o X $ . . . . . O . X 8 X X X . .   > X . . X o X . o 2 & o o X o = X o X X O o O O X O X O O . ",
"O X O X X o X % X % . . . : . X X X X = . O . . X X X o X o . . > , 0 % . . . X O O X & 2 O . O - . o = X o X O o O O % % % 8 X ",
"O o O X . O X o X X % X X X o X = o X X o . X X . o + X 8 X . > > 0   . . . . 0 . X = O . . 0 . = = . O > o X . X o X O X % O o ",
"X . X X X o % o . o X X X % X % X o X . X . X X # o o . X X O >   , = 0 . . 0 = . X . . 0 0 . . 0 0 . . % X X + X O O X O # o O ",
"X # . % X X X % X X X X o X o X X O X X . X O X X X O X X X X . = 0 . = 0 = 0 > . = > O . . . 0 0 0     > % o X X O O X O O o X ",
"X . X . . X . . X o o o X X o O X o X X X X o X O O O X X X X X . # O   . >   > ,   = X = 0 > 0 0 0 e > 0 % % o X X O O O o O o ",
"X . > . . . . + X > X o o o o X o > = X o o o X X O O O % o X X % X X % > .   0 , > . O . 0 0 0 0 0   , . O X X X O O O O X O O ",
"O .   =     X X X o X + o o o X X X X X o X X + X o + X o X X X % o o X . . w   . > . X . 0 0 0 0   . w = > X . o % o o O % O X ",
"=   , > , , = . X @ X o X + % % X % ; ; k . X @ o X X + D o X X o % X X o . O - X . . . . . 0 0 .   0 = . X X X . O o X O O O O ",
"  1 w > > > = . o @ % X D o o X 3 X - X > . . X X X o D o X X o o X % X X X . . - > . X . X X O   X O O X X X o . O X o X X . o ",
"    w > > . . O X % X o O X X X X - X . . . % X X X X o * 7 2 * X o o % X % > = 0 1 . . X ; o 2 X o o X X X X X X % 9 2 * % X X ",
"w   . ,     . X X o @ X o X = X X X . 0 > > % X X X X * 9 * 9 * D + % o % . w   w . 1 . X o * & 9 & X % X % X o * & 2 * 2 7 & X ",
"> . O > . . X X % o + X o X X O X 0 = 0 > . > X X X X 7 9 6 9 9 * D o $ X . .   , > 0 = 2 9 l { * . o o + X O 3 o * 9 ! + + 2 X ",
". o X . . % X X X X o % . X . .     0 >   = : % X X * + 9 6 9 9 9 o X % X . > .   , O . 2 X * * * o X O O O X D 7 l 9 + 7 o - X ",
"O . O X . % > . . X X X . X > . . . , ,   1 % X X X o 7 E 9 E + * o X % X X O .   . . # % o & * * o o + o + . & o * o o O X X X ",
"+ . X X O . . =   - . X X . . . 0 =   0   . X X X o o * o + & * o o X @ X + X . . O X + + k & o X O o O o % X = 2 2 o - . > . . ",
"X X . X . >       w . % = X X . . =   . . % @ X X o o + X * o o + o o % % X $ f % X X o o . X O O O X O O O . o 3 4 - . .     . ",
"X X . . . =   , 0 > > X o o X > O O . . . X X $ @ o + o o X + o X o X @ % X o % 2.X X o X o O X O O X O X X X X X & o . = % . . "
};
