/* XPM */
static char *squirrel_idle0_21676078913[] = {
/* columns rows colors chars-per-pixel */
"42 34 5 1 ",
"  c None",
". c #2F2F2E",
"X c #694129",
"o c #825235",
"O c #A67354",
/* pixels */
"                                          ",
"                                          ",
"                                          ",
"                                          ",
"            ..                            ",
"            ..                            ",
"          ..OO..                          ",
"          ..OO..                          ",
"        ..OOOO..                          ",
"        ..OOOO..                          ",
"      ..OOOOoo..                          ",
"      ..OOOOoo..                          ",
"      ..OOOOooXX..    ....  ....          ",
"      ..OOOOooXX..    ....  ....          ",
"      ..OOooooXX..    ..OO..XX..          ",
"      ..OOooooXX..    ..OO..XX..          ",
"      ..ooooooXX..  ....OOoooo..          ",
"      ..ooooooXX..  ....OOoooo..          ",
"      ..ooooXXXX....XX..oo..oooo..        ",
"      ..ooooXXXX....XX..oo..oooo..        ",
"      ..XXXXXXXX..XXoo..ooooooooOO..      ",
"      ..XXXXXXXX..XXoo..ooooooooOO..      ",
"        ..XXXX..XXoooooo............      ",
"        ..XXXX..XXoooooo............      ",
"        ..XXXX..oooooooooo..XX..          ",
"        ..XXXX..oooooooooo..XX..          ",
"          ......oo....OO..oo....          ",
"          ......oo....OO..oo....          ",
"              ..XXoooo........            ",
"              ..XXoooo........            ",
"                ....XXoo..oo..            ",
"                ....XXoo..oo..            ",
"                  ............            ",
"                  ............            "
};
