/* XPM */
static char *squirrel_idle1_31676076111[] = {
/* columns rows colors chars-per-pixel */
"42 34 6 1 ",
"  c #0",
". c #FF2F2F2E",
"X c #FF694129",
"o c #FFFF0000",
"O c #FF825235",
"+ c #FFA67354",
/* pixels */
"                         oooo             ",
"                         oooo             ",
"                       oo    oo           ",
"                       oo    oo           ",
"                           oo             ",
"                           oo             ",
"                ......    oo              ",
"                ......    oo              ",
"              ..++++..    oo              ",
"              ..++++..                    ",
"            ..++++..      oo              ",
"            ..++++..      oo              ",
"          ..++++++..  ....  ....          ",
"          ..++++++..  ....  ....          ",
"        ..OO++++OO..  ..XX..++..          ",
"        ..OO++++OO..  ..XX..++..          ",
"        ..OOOOOOXX......OOOO++..          ",
"        ..OOOOOOXX......OOOO++..          ",
"      ..OOOOOOXX....XX..XXXX....          ",
"      ..OOOOOOXX....XX..XXXX....          ",
"      ..OOOOXXXX..XX..++OOOOOO..          ",
"      ..OOOOXXXX..XX..++OOOOOO..          ",
"      ..XXXXXX..XXOOOO..........          ",
"      ..XXXXXX..XXOOOO..........          ",
"        ..XXXX..OOOOOOOOOO..XX..          ",
"        ..XXXX..OOOOOOOOOO..XX..          ",
"        ..XXXX..OO....++..OO....          ",
"        ..XXXX..OO....++..OO....          ",
"          ......XXOOOO........            ",
"          ......XXOOOO........            ",
"                ....XXOO..OO..            ",
"                ....XXOO..OO..            ",
"                  ............            ",
"                  ............            "
};
