/* XPM */
static char *squirrel_idle0_41676079936[] = {
/* columns rows colors chars-per-pixel */
"42 34 5 1 ",
"  c #0",
". c #FF2F2F2E",
"X c #FF694129",
"o c #FF825235",
"O c #FFA67354",
/* pixels */
"                                          ",
"                                          ",
"                                          ",
"                                          ",
"                                          ",
"                                          ",
"                                          ",
"                                          ",
"                                          ",
"                                          ",
"                                          ",
"                                          ",
"          ..........  ....  ....          ",
"          ..........  ....  ....          ",
"        ..OOOOOOOO..  ..OO..XX..          ",
"        ..OOOOOOOO..  ..OO..XX..          ",
"      ..OOOOOOoo..  ....OOoooo..          ",
"      ..OOOOOOoo..  ....OOoooo..          ",
"      ..ooooooXX....XX..oo..oooo..        ",
"      ..ooooooXX....XX..oo..oooo..        ",
"    ..ooooooXX....XXoo..ooooooooOO..      ",
"    ..ooooooXX....XXoo..ooooooooOO..      ",
"    ..ooooXXXX..XXoooooo............      ",
"    ..ooooXXXX..XXoooooo............      ",
"    ..XXXXXXXX..oooooooooo..XX..          ",
"    ..XXXXXXXX..oooooooooo..XX..          ",
"      ..XXXXXX..oo....OO..oo....          ",
"      ..XXXXXX..oo....OO..oo....          ",
"      ..XXXXXX..XXoooo........            ",
"      ..XXXXXX..XXoooo........            ",
"        ......  ....XXoo..oo..            ",
"        ......  ....XXoo..oo..            ",
"                  ............            ",
"                  ............            "
};
