/* XPM */
static char *squirrel_idle1_41676076111[] = {
/* columns rows colors chars-per-pixel */
"42 34 6 1 ",
"  c #0",
". c #FF2F2F2E",
"X c #FF694129",
"o c #FFFF0000",
"O c #FF825235",
"+ c #FFA67354",
/* pixels */
"                          oooo            ",
"                          oooo            ",
"                        oo    oo          ",
"                        oo    oo          ",
"                            oo            ",
"                            oo            ",
"                           oo             ",
"                           oo             ",
"                           oo             ",
"                                          ",
"                           oo             ",
"                           oo             ",
"          ..........  ....    ....        ",
"          ..........  ....    ....        ",
"        ..++++++++..  ..++....++..        ",
"        ..++++++++..  ..++....++..        ",
"      ..++++++OO..  ....OOOOOOOO..        ",
"      ..++++++OO..  ....OOOOOOOO..        ",
"      ..OOOOOOXX....XX....XXXX....        ",
"      ..OOOOOOXX....XX....XXXX....        ",
"    ..OOOOOOXX....XXOO..OOOO++OO..        ",
"    ..OOOOOOXX....XXOO..OOOO++OO..        ",
"    ..OOOOXXXX..XXOOOOOO........          ",
"    ..OOOOXXXX..XXOOOOOO........          ",
"    ..XXXXXXXX..OOOOOOOOOO..XX..          ",
"    ..XXXXXXXX..OOOOOOOOOO..XX..          ",
"      ..XXXXXX..OO....++..OO....          ",
"      ..XXXXXX..OO....++..OO....          ",
"      ..XXXXXX..XXOOOO........            ",
"      ..XXXXXX..XXOOOO........            ",
"        ......  ....XXOO..OO..            ",
"        ......  ....XXOO..OO..            ",
"                  ............            ",
"                  ............            "
};
