/* XPM */
static char *squirrel_idle0_31676080096[] = {
/* columns rows colors chars-per-pixel */
"42 34 5 1 ",
"  c #0",
". c #FF2F2F2E",
"X c #FF694129",
"o c #FF825235",
"O c #FFA67354",
/* pixels */
"                                          ",
"                                          ",
"                                          ",
"                                          ",
"                                          ",
"                                          ",
"                ......                    ",
"                ......                    ",
"              ..OOOO..                    ",
"              ..OOOO..                    ",
"            ..OOOO..                      ",
"            ..OOOO..                      ",
"          ..OOOOOO..  ....  ....          ",
"          ..OOOOOO..  ....  ....          ",
"        ..ooOOOOoo..  ..OO..XX..          ",
"        ..ooOOOOoo..  ..OO..XX..          ",
"        ..ooooooXX......OOoooo..          ",
"        ..ooooooXX......OOoooo..          ",
"      ..ooooooXX....XX..oo..oooo..        ",
"      ..ooooooXX....XX..oo..oooo..        ",
"      ..ooooXXXX..XXoo..ooooooooOO..      ",
"      ..ooooXXXX..XXoo..ooooooooOO..      ",
"      ..XXXXXX..XXoooooo............      ",
"      ..XXXXXX..XXoooooo............      ",
"        ..XXXX..oooooooooo..XX..          ",
"        ..XXXX..oooooooooo..XX..          ",
"        ..XXXX..oo....OO..oo....          ",
"        ..XXXX..oo....OO..oo....          ",
"          ......XXoooo........            ",
"          ......XXoooo........            ",
"                ....XXoo..oo..            ",
"                ....XXoo..oo..            ",
"                  ............            ",
"                  ............            "
};
