/* XPM */
static char *_94a2f7de42d488db34d131fd622d1c5q2FyD7h50rKNt6ro[] = {
/* columns rows colors chars-per-pixel */
"42 34 5 1 ",
"  c #0",
". c #FF2F2F2E",
"X c #FF694129",
"o c #FF825235",
"O c #FFA67354",
/* pixels */
"                                          ",
"                                          ",
"                                          ",
"                                          ",
"                                          ",
"                                          ",
"                                          ",
"       ........                           ",
"       ........                           ",
"     ..OOOOOOoo..                         ",
"     ..OOOOOOoo..                         ",
"   ..OOOOOOOOooXX...  ....  ....          ",
"   ..OOOOOOOOooXX...  ....  ....          ",
"   ......OOooooXX...  ..OO..XX..          ",
"   ......OOooooXX...  ..OO..XX..          ",
"       ..ooooooXX.......OOoooo..          ",
"       ..ooooooXX.......OOoooo..          ",
"       ..ooooXXXX...XX..oo..oooo..        ",
"       ..ooooXXXX...XX..oo..oooo..        ",
"       ..XXXXXX..XXXoo..ooooooooOO..      ",
"       ..XXXXXX..XXXoo..ooooooooOO..      ",
"       ..XXXXXX..XXXoo..ooooooooOO..      ",
"         ..XX..XXooooooo............      ",
"         ..XX..XXooooooo............      ",
"         ..XX..ooooooooooo..XX..          ",
"         ..XX..ooooooooooo..XX..          ",
"           ....oo.....OO..oo....          ",
"           ....oo.....OO..oo....          ",
"             ..XXooooo........            ",
"             ..XXooooo........            ",
"               .....XXoo..oo..            ",
"               .....XXoo..oo..            ",
"                 .............            ",
"                 .............            "
};
