/* XPM */
static char *squirrel_idle1_11676076111[] = {
/* columns rows colors chars-per-pixel */
"42 34 5 1 ",
"  c #0",
". c #FF2F2F2E",
"X c #FF694129",
"o c #FF825235",
"O c #FFA67354",
/* pixels */
"                                          ",
"                                          ",
"                                          ",
"                                          ",
"                                          ",
"                                          ",
"                                          ",
"                                          ",
"        ........                          ",
"        ........                          ",
"      ..OOOOOOoo..                        ",
"      ..OOOOOOoo..                        ",
"    ..OOOOOOOOooXX..  ....    ....        ",
"    ..OOOOOOOOooXX..  ....    ....        ",
"    ......OOooooXX..  ..OO....OO..        ",
"    ......OOooooXX..  ..OO....OO..        ",
"        ..ooooooXX......oooooooo..        ",
"        ..ooooooXX......oooooooo..        ",
"        ..ooooXXXX..XX....XXXX....        ",
"        ..ooooXXXX..XX....XXXX....        ",
"        ..XXXXXX..XXoo..ooooOOoo..        ",
"        ..XXXXXX..XXoo..ooooOOoo..        ",
"          ..XX..XXoooooo........          ",
"          ..XX..XXoooooo........          ",
"          ..XX..oooooooooo..XX..          ",
"          ..XX..oooooooooo..XX..          ",
"            ....oo....OO..oo....          ",
"            ....oo....OO..oo....          ",
"              ..XXoooo........            ",
"              ..XXoooo........            ",
"                ....XXoo..oo..            ",
"                ....XXoo..oo..            ",
"                  ............            ",
"                  ............            "
};
