/* XPM */
static char *squirrel_idle1_21676076111[] = {
/* columns rows colors chars-per-pixel */
"42 34 6 1 ",
"  c #0",
". c #FF2F2F2E",
"X c #FF694129",
"o c #FFFF0000",
"O c #FF825235",
"+ c #FFA67354",
/* pixels */
"                         oooo             ",
"                         oooo             ",
"                       oo    oo           ",
"                       oo    oo           ",
"            ..             oo             ",
"            ..             oo             ",
"          ..++..          oo              ",
"          ..++..          oo              ",
"        ..++++..          oo              ",
"        ..++++..                          ",
"      ..++++OO..          oo              ",
"      ..++++OO..          oo              ",
"      ..++++OOXX..    ....  ....          ",
"      ..++++OOXX..    ....  ....          ",
"      ..++OOOOXX..    ..XX..++..          ",
"      ..++OOOOXX..    ..XX..++..          ",
"      ..OOOOOOXX..  ....OOOO++..          ",
"      ..OOOOOOXX..  ....OOOO++..          ",
"      ..OOOOXXXX....XX..XXXX....          ",
"      ..OOOOXXXX....XX..XXXX....          ",
"      ..XXXXXXXX..XX..++OOOOOO..          ",
"      ..XXXXXXXX..XX..++OOOOOO..          ",
"        ..XXXX..XXOOOO..........          ",
"        ..XXXX..XXOOOO..........          ",
"        ..XXXX..OOOOOOOOOO..XX..          ",
"        ..XXXX..OOOOOOOOOO..XX..          ",
"          ......OO....++..OO....          ",
"          ......OO....++..OO....          ",
"              ..XXOOOO........            ",
"              ..XXOOOO........            ",
"                ....XXOO..OO..            ",
"                ....XXOO..OO..            ",
"                  ............            ",
"                  ............            "
};
