/* XPM */
static char *ec7dbb1d2f4f42a3942bad7693677939U9c5vOWlUQalX0iU[] = {
/* columns rows colors chars-per-pixel */
"42 34 5 1 ",
"  c #0",
". c #FF2F2F2E",
"X c #FF694129",
"o c #FF825235",
"O c #FFA67354",
/* pixels */
"                                          ",
"                                          ",
"                                          ",
"                                          ",
"                                          ",
"                                          ",
"                                          ",
"                                          ",
"          ........                        ",
"          ........                        ",
"        ..OOOOOOoo..                      ",
"        ..OOOOOOoo..                      ",
"      ..OOOOOOOOooXX......  ....          ",
"      ..OOOOOOOOooXX......  ....          ",
"      ..OO..OOooooXX....OO..XX..          ",
"      ..OO..OOooooXX....OO..XX..          ",
"      ....  ..ooooXX....OOoooo..          ",
"      ....  ..ooooXX....OOoooo..          ",
"            ..ooXX..XX..oo..oooo..        ",
"            ..ooXX..XX..oo..oooo..        ",
"          ..XXXX..XXoo..ooooooooOO..      ",
"          ..XXXX..XXoo..ooooooooOO..      ",
"          ..XX..XXoooooo............      ",
"          ..XX..XXoooooo............      ",
"          ..XX..oooooooooo..XX..          ",
"          ..XX..oooooooooo..XX..          ",
"            ....oo....OO..oo....          ",
"            ....oo....OO..oo....          ",
"              ..XXoooo........            ",
"              ..XXoooo........            ",
"                ....XXoo..oo..            ",
"                ....XXoo..oo..            ",
"                  ............            ",
"                  ............            "
};
