/* XPM */
static char *squirrel_idle1_51676076112[] = {
/* columns rows colors chars-per-pixel */
"42 34 5 1 ",
"  c #0",
". c #FF2F2F2E",
"X c #FF694129",
"o c #FF825235",
"O c #FFA67354",
/* pixels */
"                                          ",
"                                          ",
"                                          ",
"                                          ",
"                                          ",
"                                          ",
"                                          ",
"                                          ",
"                                          ",
"                                          ",
"    ..........                            ",
"    ..........                            ",
"    ..OOOOOOOO..      ....  ....          ",
"    ..OOOOOOOO..      ....  ....          ",
"      ..OOOOOOOO..    ..OO..XX..          ",
"      ..OOOOOOOO..    ..OO..XX..          ",
"      ..OOOOoooo..  ....OOoooo..          ",
"      ..OOOOoooo..  ....OOoooo..          ",
"    ..ooooooXXXXXX..XX..oo..oooo..        ",
"    ..ooooooXXXXXX..XX..oo..oooo..        ",
"    ..ooooXXXXXX..XXoo..ooooooooOO..      ",
"    ..ooooXXXXXX..XXoo..ooooooooOO..      ",
"    ..XXXXXXXX..XXoooooo............      ",
"    ..XXXXXXXX..XXoooooo............      ",
"      ..XXXXXX..oooooooooo..XX..          ",
"      ..XXXXXX..oooooooooo..XX..          ",
"        ..XXXX..oo....OO..oo....          ",
"        ..XXXX..oo....OO..oo....          ",
"          ......XXoooo........            ",
"          ......XXoooo........            ",
"                ....XXoo..oo..            ",
"                ....XXoo..oo..            ",
"                  ............            ",
"                  ............            "
};
