/* XPM */
static char *squirrel_idle0_11676079789[] = {
/* columns rows colors chars-per-pixel */
"42 34 5 1 ",
"  c #0",
". c #FF2F2F2E",
"X c #FF694129",
"o c #FF825235",
"O c #FFA67354",
/* pixels */
"                                          ",
"                                          ",
"                                          ",
"                                          ",
"                                          ",
"                                          ",
"                                          ",
"                                          ",
"        ........                          ",
"        ........                          ",
"      ..OOOOOOoo..                        ",
"      ..OOOOOOoo..                        ",
"    ..OOOOOOOOooXX..  ....  ....          ",
"    ..OOOOOOOOooXX..  ....  ....          ",
"    ......OOooooXX..  ..OO..XX..          ",
"    ......OOooooXX..  ..OO..XX..          ",
"        ..ooooooXX......OOoooo..          ",
"        ..ooooooXX......OOoooo..          ",
"        ..ooooXXXX..XX..oo..oooo..        ",
"        ..ooooXXXX..XX..oo..oooo..        ",
"        ..XXXXXX..XXoo..ooooooooOO..      ",
"        ..XXXXXX..XXoo..ooooooooOO..      ",
"          ..XX..XXoooooo............      ",
"          ..XX..XXoooooo............      ",
"          ..XX..oooooooooo..XX..          ",
"          ..XX..oooooooooo..XX..          ",
"            ....oo....OO..oo....          ",
"            ....oo....OO..oo....          ",
"              ..XXoooo........            ",
"              ..XXoooo........            ",
"                ....XXoo..oo..            ",
"                ....XXoo..oo..            ",
"                  ............            ",
"                  ............            "
};
