/* XPM */
static char *squirrel_idle0_41676076111[] = {
/* columns rows colors chars-per-pixel */
"42 34 5 1 ",
"  c #0",
". c #FF2F2F2E",
"X c #FF694129",
"o c #FF825235",
"O c #FFA67354",
/* pixels */
"                                          ",
"                                          ",
"                                          ",
"                                          ",
"                                          ",
"                                          ",
"                                          ",
"                                          ",
"                                          ",
"                                          ",
"                                          ",
"                                          ",
"           .......... ....  ....          ",
"           .......... ....  ....          ",
"         ..OOOOOOOO.. ..OO..XX..          ",
"         ..OOOOOOOO.. ..OO..XX..          ",
"       ..OOOOOOoo..  ...OOoooo..          ",
"       ..OOOOOOoo..  ...OOoooo..          ",
"       ..ooooooXX....X..oo..oooo..        ",
"       ..ooooooXX....X..oo..oooo..        ",
"     ..ooooooXX....XXo..ooooooooOO..      ",
"     ..ooooooXX....XXo..ooooooooOO..      ",
"     ..ooooXXXX..XXooooo............      ",
"     ..ooooXXXX..XXooooo............      ",
"     ..XXXXXXXX..ooooooooo..XX..          ",
"     ..XXXXXXXX..ooooooooo..XX..          ",
"       ..XXXXXX..oo...OO..oo....          ",
"       ..XXXXXX..oo...OO..oo....          ",
"       ..XXXXXX..XXooo........            ",
"       ..XXXXXX..XXooo........            ",
"         ......  ....Xoo..oo..            ",
"         ......  ....Xoo..oo..            ",
"                   ...........            ",
"                   ...........            "
};
