/* XPM */
static char *abeille_f03b789d4804c44b70faf480af195c4Dwnq83ZrD0hhDb0O[] = {
/* columns rows colors chars-per-pixel */
"62 62 207 2 ",
"   c #00000000",
".  c #FF020101",
"X  c #FF0A0200",
"o  c #FF050902",
"O  c #FF0B0902",
"+  c #FF040309",
"@  c #FF0C0C0B",
"#  c #FF120400",
"$  c #FF1B0300",
"%  c #FF140B00",
"&  c #FF1A0D00",
"*  c #FF0C100A",
"=  c #FF1C1200",
"-  c #FF1A1A0C",
";  c #FF0F0E13",
":  c #FF151515",
">  c #FF191615",
",  c #FF1B1B1B",
"<  c #FF230E00",
"1  c #FF231300",
"2  c #FF2A1500",
"3  c #FF2A1C00",
"4  c #FF3A1A00",
"5  c #FF2A2508",
"6  c #FF352D00",
"7  c #FF392A00",
"8  c #FF362300",
"9  c #FF212322",
"0  c #FF2B2C2A",
"q  c #FF262926",
"w  c #FF33312D",
"e  c #FF343434",
"r  c #FF3D3D3D",
"t  c #FF432900",
"y  c #FF4D3C00",
"u  c #FF443500",
"i  c #FF533E00",
"p  c #FF594E0D",
"a  c #FF624900",
"s  c #FF665701",
"d  c #FF665800",
"f  c #FF685816",
"g  c #FF6E6105",
"h  c #FF7F710D",
"j  c #FF42453F",
"k  c #FF7D7423",
"l  c #FF434343",
"z  c #FF4D4D4D",
"x  c #FF4F4546",
"c  c #FF555654",
"v  c #FF5D5D5D",
"b  c #FF5F605D",
"n  c #FF6B6B6C",
"m  c #FF666666",
"M  c #FF757574",
"N  c #FF747478",
"B  c #FF7A7A7A",
"V  c #FF835E1B",
"C  c #FF8B740F",
"Z  c #FF897727",
"A  c #FF927229",
"S  c #FF817E7F",
"D  c #FF9A8720",
"F  c #FF9E8C36",
"G  c #FFA28A24",
"H  c #FFA48128",
"J  c #FFBA9E2D",
"K  c #FFA89637",
"L  c #FFBE9F35",
"P  c #FFB18A2A",
"I  c #FFB8A436",
"U  c #FFFDB61E",
"Y  c #FFF4B91C",
"T  c #FFFEBC1E",
"R  c #FFF5B414",
"E  c #FFC3A736",
"W  c #FFFFAE26",
"Q  c #FFFDB522",
"!  c #FFFEBC21",
"~  c #FFFDB62A",
"^  c #FFFCBB2F",
"/  c #FFF6BE28",
"(  c #FFEDB33E",
")  c #FFF7BA32",
"_  c #FFF7B939",
"`  c #FFECC01D",
"'  c #FFFCC61D",
"]  c #FFFECC1F",
"[  c #FFF2C81C",
"{  c #FFF7D61F",
"}  c #FFFDD51D",
"|  c #FFD9C13E",
" . c #FFFEC422",
".. c #FFF4CB25",
"X. c #FFFECC23",
"o. c #FFFBC529",
"O. c #FFF4CD2A",
"+. c #FFFCCC2C",
"@. c #FFF3C429",
"#. c #FFF5D424",
"$. c #FFFED423",
"%. c #FFFCD825",
"&. c #FFF4D32A",
"*. c #FFFDD42A",
"=. c #FFFDD92C",
"-. c #FFF4CE3E",
";. c #FFF8C737",
":. c #FFEED537",
">. c #FFF6D234",
",. c #FFFAD334",
"<. c #FFFCDC32",
"1. c #FFF5D33A",
"2. c #FFF9D33A",
"3. c #FFF6DA3D",
"4. c #FFFBD93E",
"5. c #FFF3D832",
"6. c #FFEBD529",
"7. c #FFFDE03F",
"8. c #FFA49345",
"9. c #FFBDAA4D",
"0. c #FFCBAB4E",
"q. c #FFDBB24E",
"w. c #FFD0A851",
"e. c #FFCCB653",
"r. c #FFD2BC5D",
"t. c #FFCBB34C",
"y. c #FFE2AF45",
"u. c #FFEBBB4C",
"i. c #FFF3BF44",
"p. c #FFE6BD57",
"a. c #FFDBC65C",
"s. c #FFDDC444",
"d. c #FFE9CB4C",
"f. c #FFF6C54B",
"g. c #FFF6CC4C",
"h. c #FFFAC945",
"j. c #FFEAD24D",
"k. c #FFEED140",
"l. c #FFF3D543",
"z. c #FFFCDC45",
"x. c #FFF9D34D",
"c. c #FFFDDB4B",
"v. c #FFF4D947",
"b. c #FFE6CF56",
"n. c #FFE8C858",
"m. c #FFF2CB58",
"M. c #FFEDD153",
"N. c #FFE8D059",
"B. c #FFE6D25E",
"V. c #FFF6DE52",
"C. c #FFFDDB53",
"Z. c #FFF5DA5B",
"A. c #FFF9DF5B",
"S. c #FFF1D358",
"D. c #FFFFE142",
"F. c #FFFDE252",
"G. c #FFFCE559",
"H. c #FFD1C26C",
"J. c #FFF8DF62",
"K. c #FFE4D171",
"L. c #FFF7DE73",
"P. c #FFFCE27B",
"I. c #FFF9E779",
"U. c #FFFCE962",
"Y. c #FF7D8182",
"T. c #FF838484",
"R. c #FF8C8C8C",
"E. c #FF878986",
"W. c #FF939393",
"Q. c #FF9B9B9B",
"!. c #FF9A9894",
"~. c #FF9DA09C",
"^. c #FFAAAAA9",
"/. c #FFA1A2A3",
"(. c #FFBCBBBC",
"). c #FFB4B4B4",
"_. c #FFE5D88F",
"`. c #FFFEEB8C",
"'. c #FFFCE584",
"]. c #FFFFE994",
"[. c #FFFEF492",
"{. c #FFFEF5A6",
"}. c #FFC7C7C7",
"|. c #FFDADADA",
" X c #FFD3D5D4",
".X c #FFFFFEC3",
"XX c #FFFFFECB",
"oX c #FFFFFED4",
"OX c #FFFFFFDD",
"+X c #FFE3E4E4",
"@X c #FFEDECEB",
"#X c #FFFFFFED",
"$X c #FFFFFFEA",
"%X c #FFFFFFE6",
"&X c #FFF2F2F2",
"*X c #F7F7F7F7",
"=X c #FFFFFDF4",
"-X c #FFF9F9F9",
";X c #FFFEFEF9",
":X c #FFFCFBFC",
">X c #FFFDFDFD",
",X c #FFFEFEFE",
"<X c #FFFFFFFE",
"1X c #FFFFFFFE",
"2X c #FFFFFDFD",
"3X c #FFFFFFFF",
"4X c #FFF4F6F8",
/* pixels */
"                                                                                                                            ",
"                                                                                                                            ",
"                                                                                                                            ",
"                                                                , . . . .                                   o . . . .       ",
"                                                                . . . . . .                                 . . . . . .     ",
"                                                              l . . . . . .                               B . . . . . o     ",
"                                                                . . . . . l + T.                        . . . . . . . +     ",
"                                                                  @ o .       .                       o z     n . . n       ",
"                                                                                +                     .                     ",
"                                    z o . r                                     .                   .                       ",
"                                . . 9 R.R.e . . l                                 ,                 .                       ",
"                            m o v <X<X<X<X<X<X<X. .                               .                 .                       ",
"                            o W.-X<X<X<X<X<X<X<X-X|.o M                           .                 e                       ",
"            e . . . . . M . T.<X<X<X<X<X<X<X<X<X<X<X-X. T.                        .               v B                       ",
"      l . . @ B (.}./.r . . o , <X<X<X<X<X<X<X<X<X<X<X<X+                         . Q.0 . . . > c w Q.                      ",
"    0 o + &X<X:X<X<X<X-X<X(.. o . -X<X<X<X<X<X<X<X<X<X<X@ :                     : . . . . . . . . + + M                     ",
"  . . :X-X<X<X<X<X<X<X<X<X<X<X<X> . ).<X<X<X<X<X<X<X<X<X<Xo               E.. . 1 . U.<.%.%.%.%.<.f 5 . . +                 ",
"e . <X<X<X<X<X<X<X<X<X<X<X<X<X<X<X(.o B <X<X<X<X<X<X<X<X<X9 r           . . G z.5.. :.%.$.$.*.$.$.F 5 ,.V.% o 0             ",
"o <X:X<X<X<X<X<X<X<X<X<X<X<X<X<X<X<X@Xo /.<X<X<X<X<X<X<X<X&X.       v . p =.{ $.D.O =.$.$.$.%.$.%.N.# #.$.{ J.O .           ",
". -X<X<X<X<X<X<X<X<X<X<X<X<X<X<X<X<X<X}.@ <X<X<X<X<X<X<X<X:Xo     9 . b.*.*.$.$.%.,.%.%.$.%.$.%.$.*.*.$.$.*.$.3.O .         ",
"^.<X<X<X<X<X<X<X<X<X<X<X<X<X<X<X<X<X<X<Xl . <X<X<X<X<X<X<X:X.   r . A.*.} *.} $.#.*.%.*.$.$.%.$.=.$.$.$.} } $.$...8 o       ",
"&X<X<X<X<X<X<X<X<X<X<X<X<X<X<X<X<X<X<X<X<X. 0 <X<X<X<X<X<X<Xo S + A.$.*.#.L.{.'.:.$.$.$.%.$.%.$.%.X.#.I.{.'.1.$.#.#.& .     ",
"+X<X<X<X<X<X<X<X<X<X<X<X<X<X<X<X<X<X<X<X<X<Xo <X<X<X<X<X<X:X* . D $.} j.$X:X=X<X=XP.$.%.%.$.*.%.$.j.=X-X:X<X=X`.*.#.1.. r   ",
"c <X<X<X<X<X<X<X<X<X<X<X<X<X<X<X<X<X<X<X<X:X> . <X<X<X<X<X<X: % ..$.1.=X<X<X-X<X<X:XP.$.$.$.%.$.3.$X<X<X*X<X<X<X].$.*.N.+   ",
". -X<X<X<X<X<X<X<X<X<X<X<X<X<X<X<X<X<X<X<X<X<X. +X<X<X<X<X<X. B.$.#.XX<X-X. M -Xe <X=X>.%.%.$.$.{.<X<X. e <X, -X#X3.*.} # : ",
".  X<X<X<X<X<X<X<X<X<X<X<X<X<X<X<X<X<X<X<X<X<Xr . <X<X<X<XM X #.#.>.%X<X. . <X<XR.}.<X{.$.$.$.#.=X-X. . <X<X@X(.:X[.=.#.j.. ",
"n . <X<X<X<X<X<X<X<X<X<X<X<X<X<X<X<X<X<X<X<X:X<X. |.<X<X:X. h { } -.#X:Xo . <X<Xl . -X.X#.} $.>.>X<X. . <X<X^.. <X{.=.$.2.X ",
"  . o <X<X<X<X<X<X<X<X<X<X<X<X<X<X<X<X<X<X<X<X<Xl . <X<X<Xo V.%.#.1.=X<X. . . . <X. <XOXX.} *.-.>X<X. . . o -X. <XXX} } $.= ",
"    . l <X<X<X<X<X<X<X<X<X<X<X<X<X<X<X<X<X<X<X<X<X. -X<X<X. z.$.$.2.#X<X. . . . l . >XXX*.} *.&.;X<Xo . . . 0 @ <X.X} %.%.Z ",
"      . r -X<X<X<X<X<X<X<X<X<X<X<X<X<X<X<X<X<X<X<X, . <X+X. ,.$.$.=.XX-XT.. . . . <X>X].$.$.} %..X<XM . . . o :X<XI.} $.=.r.",
"        . @ <X<X<X<X<X<X<X<X<X<X<X<X<X<X<X<X<X<X<X<Xo >X X. ,.%.$.%.M.=X>X(.. . @X>X=X>.} $.} } j.=X;X^.. . 4X-X%X>.$.} %.a.",
"          . . -X<X<X<X<X<X<X<X<X<X<X<X<X<X<X<X<X<X-X. B +XX ,.$.$.} X.P.=X<X<X<X>X=XS.*.$.$.$.$.&.].:X<X<X<X<X:XM.$.$.} $.a.",
"            0 . e <X<X<X<X<X<X<X<X<X<X<X<X<X<X<X<X<XM . . . z.$.$.*.*.$.M.oX%X$XoXM.%.$.$.$.$.} $.$.S.OX$X$XoXk.$.$.$.$.$.8.",
"                . . l <X<X<X<X<X<X<X<X<X<X<X<X<X<X<X<XO K.. V.$.} $.$.$.$.*.2.2.X.*.$.$.*.$.X.*.$.} $.+.>.>.*.$.$.X.X.$.*.7 ",
"                    . . @ *X<X>X<X<X<X<X<X<X<X<X<X<X<X. | O s } X.$.$.] $.$.X.} X.,.$.*.X.X.*.X.X.,.X.$.X.X.$.X.$.$.$.} >.X ",
"                        @ . . @ |.<X<X<X<X<X<X<X:X<X-X. C D X %.} X.$.X.X.$.X.$.X.# Z [ ] ] *.X.>.. J X.X.X.X.X.$.$.] ] x.. ",
"                            /.. . . . n -X<X<X<X<X<X<X. g 4.O Z  .X. .X.] X.X.X. .c.o 2 x.-.h.J X 2 +.X. .X.X. . . . .' X * ",
"                          W.o d 3.O . . . . . c @X<X<X. . c.K X x.' ] X. . . .X.o. .h.3 X . . X L  . . . . . . .X.'  .t.X   ",
"                        M o F.=.%.d . . . _.f O X . . . . O 5.% X ;.' ] X. . . .X. . .' +.,.o. . . . .]  . . . .] o.f.. Y.  ",
"                      ~.. 3 $.%.$.j.. . . Z $.$.2.A.o . . . 7 O.. X g. . . .'  .'  .!  . .! ! ! ' !  .! ! ! ! T  .m.X :     ",
"                      . . & #.$.$.4.X . . o &.$.%.*.a.. . . . p #.& X P Q U ! ! U T T T T T T T T U U U ! ! ! o.A . 0       ",
"                    o . . . { $.} &.# . . o C.%.$.*.$.C . . . . 6 6.D . . w.!  . .U U U U U U U ! Q Q Q U Y q.# X           ",
"                  j . . . . #.} *.} e.. . o 6 *.$.*.$.#.u . . . . X c.3.a . . t y._ ) ~ Q ! Q Q Q ~ _ ( a . . w             ",
"                  . 6 . . . z.$.$.$.=.. . . o F.&.$.$.$.*.u . + . . X a.#.4.I # . X . X $ 1 < $ # O X . o Q.                ",
"                n 3 J . . . e.$.$.$.$.C . . + % #.$.$.$.$.&.k o . . . . # v.*.$.<.G.r.Z p . e l B                           ",
"                . d.C.. . . = *.$.$.$.2.X . . X d.$.$.$.=.$.*.b.. . . . . . 6 F.#.%.} %.z..                                 ",
"                . >.@.X . . X t.*.+.X.*.9.. . . . 4.%.$.&.$.$.*.3.X . . . . . . # s.2.,.A..                                 ",
"                X O.' 2 . . . 8 ..X.X.$.,.X . . . y *.$.*.$.$.%.$.z.1 . . . . . . . & I H..                                 ",
"                . ` ' b.. . . X c.X.*.*.] d.. . . o K X.*.*.$.$.$.$.&.j.X . . . . . . . . N                                 ",
"                X o. .o.X . . . i X.X.X.X.+.f . . . . I *.*.$.$.$.$.$.*.} b.X . . . . . .                                   ",
"                . ;.! o.E + . . o C. . .X. ...1 . . . . F $.$.*.$.*.$.$.$.$...c.s X . o @                                   ",
"                . u.T ! o.X . . . X o. .]  . .+.# . . . . y +.*.X.$.] $.$.$.$.*.$.%.'.o                                     ",
"                E.$ R U T u.. . . . C X.'  . . .;.# . . . . X l.$. .} ] *.X.*.}  .3..                                       ",
"                  . q.! U  .8 . . . o n.!  . . . ./ < . . . . X G +.$.X.X.X.*.*.3.O n                                       ",
"              o . . X i.Q Q _ t . . . X f.! !  . .o./ a . . . . . . N.[ X. .] S.. M                                         ",
"        , . . . . . . . f.W Q ~ X . . . . _  .T ! ' !  .n.. . . . . . X J x.y .                                             ",
"    n z n E.            X V W U _ . . . . X h.! ! U T ! / h.1 . . . . . . . @                                               ",
"                          . X 4 u.p.. . + . . m.~ U ! ! ! U Y n.. . . . .                                                   ",
"                              v o X - . . . . . A ~ ^ ) i.w.f # + . n                                                       ",
"                                    !.> . . . . . . . . . . x                                                               ",
"                                                                                                                            ",
"                                                                                                                            ",
};
