/* XPM */
static char *de0c750badd14afdda376070326fbaeb7jM6S8K3n6hAAjlk[] = {
/* columns rows colors chars-per-pixel */
"64 64 6 1 ",
"  c #FF0C0C",
". c red",
"X c #FF0404",
"o c #FFABAB",
"O c #00FFFFFF",
"+ c #FF0202",
/* pixels */
" .XoOOOOOOOOOOOOOOOOOOOOOOOOOOOOOOOOOOOOOOOOOOOOOOOOOOOOOOOOoX..",
"...XoOOOOOOOOOOOOOOOOOOOOOOOOOOOOOOOOOOOOOOOOOOOOOOOOOOOOOOoX...",
"X...XoOOOOOOOOOOOOOOOOOOOOOOOOOOOOOOOOOOOOOOOOOOOOOOOOOOOOoX...X",
"oX...XoOOOOOOOOOOOOOOOOOOOOOOOOOOOOOOOOOOOOOOOOOOOOOOOOOOoX...Xo",
"OoX...XoOOOOOOOOOOOOOOOOOOOOOOOOOOOOOOOOOOOOOOOOOOOOOOOOoX...XoO",
"OOoX...XoOOOOOOOOOOOOOOOOOOOOOOOOOOOOOOOOOOOOOOOOOOOOOOoX...XoOO",
"OOOoX...XoOOOOOOOOOOOOOOOOOOOOOOOOOOOOOOOOOOOOOOOOOOOOoX...XoOOO",
"OOOOoX...XoOOOOOOOOOOOOOOOOOOOOOOOOOOOOOOOOOOOOOOOOOOoX...XoOOOO",
"OOOOOoX...XoOOOOOOOOOOOOOOOOOOOOOOOOOOOOOOOOOOOOOOOOoX...XoOOOOO",
"OOOOOOoX...XoOOOOOOOOOOOOOOOOOOOOOOOOOOOOOOOOOOOOOOoX...XoOOOOOO",
"OOOOOOOoX...XoOOOOOOOOOOOOOOOOOOOOOOOOOOOOOOOOOOOOoX...XoOOOOOOO",
"OOOOOOOOoX...XoOOOOOOOOOOOOOOOOOOOOOOOOOOOOOOOOOOoX...XoOOOOOOOO",
"OOOOOOOOOoX...XoOOOOOOOOOOOOOOOOOOOOOOOOOOOOOOOOoX...XoOOOOOOOOO",
"OOOOOOOOOOoX...XoOOOOOOOOOOOOOOOOOOOOOOOOOOOOOOoX...XoOOOOOOOOOO",
"OOOOOOOOOOOoX...XoOOOOOOOOOOOOOOOOOOOOOOOOOOOOoX...XoOOOOOOOOOOO",
"OOOOOOOOOOOOoX...XoOOOOOOOOOOOOOOOOOOOOOOOOOOoX...XoOOOOOOOOOOOO",
"OOOOOOOOOOOOOoX...XoOOOOOOOOOOOOOOOOOOOOOOOOoX...XoOOOOOOOOOOOOO",
"OOOOOOOOOOOOOOoX...XoOOOOOOOOOOOOOOOOOOOOOOoX...XoOOOOOOOOOOOOOO",
"OOOOOOOOOOOOOOOoX...XoOOOOOOOOOOOOOOOOOOOOoX...XoOOOOOOOOOOOOOOO",
"OOOOOOOOOOOOOOOOoX...XoOOOOOOOOOOOOOOOOOOoX...XoOOOOOOOOOOOOOOOO",
"OOOOOOOOOOOOOOOOOoX...XoOOOOOOOOOOOOOOOOoX...XoOOOOOOOOOOOOOOOOO",
"OOOOOOOOOOOOOOOOOOoX...XoOOOOOOOOOOOOOOoX...XoOOOOOOOOOOOOOOOOOO",
"OOOOOOOOOOOOOOOOOOOoX...XoOOOOOOOOOOOOoX...XoOOOOOOOOOOOOOOOOOOO",
"OOOOOOOOOOOOOOOOOOOOoX...XoOOOOOOOOOOoX...XoOOOOOOOOOOOOOOOOOOOO",
"OOOOOOOOOOOOOOOOOOOOOoX...XoOOOOOOOOoX...XoOOOOOOOOOOOOOOOOOOOOO",
"OOOOOOOOOOOOOOOOOOOOOOoX...XoOOOOOOoX...XoOOOOOOOOOOOOOOOOOOOOOO",
"OOOOOOOOOOOOOOOOOOOOOOOoX...XoOOOOoX...XoOOOOOOOOOOOOOOOOOOOOOOO",
"OOOOOOOOOOOOOOOOOOOOOOOOoX...XoOOoX...XoOOOOOOOOOOOOOOOOOOOOOOOO",
"OOOOOOOOOOOOOOOOOOOOOOOOOoX...XooX...XoOOOOOOOOOOOOOOOOOOOOOOOOO",
"OOOOOOOOOOOOOOOOOOOOOOOOOOoX...++...XoOOOOOOOOOOOOOOOOOOOOOOOOOO",
"OOOOOOOOOOOOOOOOOOOOOOOOOOOoX......XoOOOOOOOOOOOOOOOOOOOOOOOOOOO",
"OOOOOOOOOOOOOOOOOOOOOOOOOOOOo+....+oOOOOOOOOOOOOOOOOOOOOOOOOOOOO",
"OOOOOOOOOOOOOOOOOOOOOOOOOOOOo+....+oOOOOOOOOOOOOOOOOOOOOOOOOOOOO",
"OOOOOOOOOOOOOOOOOOOOOOOOOOOoX......XoOOOOOOOOOOOOOOOOOOOOOOOOOOO",
"OOOOOOOOOOOOOOOOOOOOOOOOOOoX...++...XoOOOOOOOOOOOOOOOOOOOOOOOOOO",
"OOOOOOOOOOOOOOOOOOOOOOOOOoX...XooX...XoOOOOOOOOOOOOOOOOOOOOOOOOO",
"OOOOOOOOOOOOOOOOOOOOOOOOoX...XoOOoX...XoOOOOOOOOOOOOOOOOOOOOOOOO",
"OOOOOOOOOOOOOOOOOOOOOOOoX...XoOOOOoX...XoOOOOOOOOOOOOOOOOOOOOOOO",
"OOOOOOOOOOOOOOOOOOOOOOoX...XoOOOOOOoX...XoOOOOOOOOOOOOOOOOOOOOOO",
"OOOOOOOOOOOOOOOOOOOOOoX...XoOOOOOOOOoX...XoOOOOOOOOOOOOOOOOOOOOO",
"OOOOOOOOOOOOOOOOOOOOoX...XoOOOOOOOOOOoX...XoOOOOOOOOOOOOOOOOOOOO",
"OOOOOOOOOOOOOOOOOOOoX...XoOOOOOOOOOOOOoX...XoOOOOOOOOOOOOOOOOOOO",
"OOOOOOOOOOOOOOOOOOoX...XoOOOOOOOOOOOOOOoX...XoOOOOOOOOOOOOOOOOOO",
"OOOOOOOOOOOOOOOOOoX...XoOOOOOOOOOOOOOOOOoX...XoOOOOOOOOOOOOOOOOO",
"OOOOOOOOOOOOOOOOoX...XoOOOOOOOOOOOOOOOOOOoX...XoOOOOOOOOOOOOOOOO",
"OOOOOOOOOOOOOOOoX...XoOOOOOOOOOOOOOOOOOOOOoX...XoOOOOOOOOOOOOOOO",
"OOOOOOOOOOOOOOoX...XoOOOOOOOOOOOOOOOOOOOOOOoX...XoOOOOOOOOOOOOOO",
"OOOOOOOOOOOOOoX...XoOOOOOOOOOOOOOOOOOOOOOOOOoX...XoOOOOOOOOOOOOO",
"OOOOOOOOOOOOoX...XoOOOOOOOOOOOOOOOOOOOOOOOOOOoX...XoOOOOOOOOOOOO",
"OOOOOOOOOOOoX...XoOOOOOOOOOOOOOOOOOOOOOOOOOOOOoX...XoOOOOOOOOOOO",
"OOOOOOOOOOoX...XoOOOOOOOOOOOOOOOOOOOOOOOOOOOOOOoX...XoOOOOOOOOOO",
"OOOOOOOOOoX...XoOOOOOOOOOOOOOOOOOOOOOOOOOOOOOOOOoX...XoOOOOOOOOO",
"OOOOOOOOoX...XoOOOOOOOOOOOOOOOOOOOOOOOOOOOOOOOOOOoX...XoOOOOOOOO",
"OOOOOOOoX...XoOOOOOOOOOOOOOOOOOOOOOOOOOOOOOOOOOOOOoX...XoOOOOOOO",
"OOOOOOoX...XoOOOOOOOOOOOOOOOOOOOOOOOOOOOOOOOOOOOOOOoX...XoOOOOOO",
"OOOOOoX...XoOOOOOOOOOOOOOOOOOOOOOOOOOOOOOOOOOOOOOOOOoX...XoOOOOO",
"OOOOoX...XoOOOOOOOOOOOOOOOOOOOOOOOOOOOOOOOOOOOOOOOOOOoX...XoOOOO",
"OOOoX...XoOOOOOOOOOOOOOOOOOOOOOOOOOOOOOOOOOOOOOOOOOOOOoX...XoOOO",
"OOoX...XoOOOOOOOOOOOOOOOOOOOOOOOOOOOOOOOOOOOOOOOOOOOOOOoX...XoOO",
"OoX...XoOOOOOOOOOOOOOOOOOOOOOOOOOOOOOOOOOOOOOOOOOOOOOOOOoX...XoO",
"oX...XoOOOOOOOOOOOOOOOOOOOOOOOOOOOOOOOOOOOOOOOOOOOOOOOOOOoX...Xo",
"X...XoOOOOOOOOOOOOOOOOOOOOOOOOOOOOOOOOOOOOOOOOOOOOOOOOOOOOoX...X",
"...XoOOOOOOOOOOOOOOOOOOOOOOOOOOOOOOOOOOOOOOOOOOOOOOOOOOOOOOoX...",
"..XoOOOOOOOOOOOOOOOOOOOOOOOOOOOOOOOOOOOOOOOOOOOOOOOOOOOOOOOOoX.."
};
